<svg xmlns="http://www.w3.org/2000/svg" xmlns:xlink="http://www.w3.org/1999/xlink" id="body_5" preserveAspectRatio="xMinYMin meet" viewBox="0 0 816 1056"><defs><clipPath id="1"><path id="" clip-rule="evenodd" transform="matrix(1 0 0 1 0 0)" d="M0 792L0 0L0 0L612 0L612 0L612 792L612 792L0 792z" /></clipPath><clipPath id="2"><path id="" clip-rule="evenodd" transform="matrix(1 0 0 1 0 0)" d="M0 792L612 792L612 792L612 0L612 0L0 0z" /></clipPath></defs><g transform="matrix(1.333333 0 0 1.333333 0 0)"><g clip-path="url(#1)"><g clip-path="url(#2)"><g transform="matrix(468.48 0 0 -0.48 71.748 54.37195)"><g transform="matrix(1 0 0 1 0 0)"><image x="0" y="0" xlink:href="img_01.png" width="1" height="1" /></g></g><g transform="matrix(0.48 0 0 -10.08 71.748 64.33203)"><g transform="matrix(1 0 0 1 0 0)"><image x="0" y="0" xlink:href="img_01.png" width="1" height="1" /></g></g><g transform="matrix(0.48 0 0 -10.08 139.668 64.33203)"><g transform="matrix(1 0 0 1 0 0)"><image x="0" y="0" xlink:href="img_01.png" width="1" height="1" /></g></g><g transform="matrix(0.48 0 0 -10.08 142.068 64.33203)"><g transform="matrix(1 0 0 1 0 0)"><image x="0" y="0" xlink:href="img_01.png" width="1" height="1" /></g></g><g transform="matrix(0.48 0 0 -10.08 274.788 64.33203)"><g transform="matrix(1 0 0 1 0 0)"><image x="0" y="0" xlink:href="img_01.png" width="1" height="1" /></g></g><g transform="matrix(0.48 0 0 -10.08 277.188 64.33203)"><g transform="matrix(1 0 0 1 0 0)"><image x="0" y="0" xlink:href="img_01.png" width="1" height="1" /></g></g><g transform="matrix(0.48 0 0 -10.08 407.268 64.33203)"><g transform="matrix(1 0 0 1 0 0)"><image x="0" y="0" xlink:href="img_01.png" width="1" height="1" /></g></g><g transform="matrix(0.48 0 0 -10.08 409.668 64.33203)"><g transform="matrix(1 0 0 1 0 0)"><image x="0" y="0" xlink:href="img_01.png" width="1" height="1" /></g></g><g transform="matrix(0.48 0 0 -10.08 539.868 64.33203)"><g transform="matrix(1 0 0 1 0 0)"><image x="0" y="0" xlink:href="img_01.png" width="1" height="1" /></g></g><g transform="matrix(0.48 0 0 -10.08 71.748 74.29205)"><g transform="matrix(1 0 0 1 0 0)"><image x="0" y="0" xlink:href="img_01.png" width="1" height="1" /></g></g><g transform="matrix(0.48 0 0 -10.08 139.668 74.29205)"><g transform="matrix(1 0 0 1 0 0)"><image x="0" y="0" xlink:href="img_01.png" width="1" height="1" /></g></g><g transform="matrix(0.48 0 0 -10.08 142.068 74.29205)"><g transform="matrix(1 0 0 1 0 0)"><image x="0" y="0" xlink:href="img_01.png" width="1" height="1" /></g></g><g transform="matrix(0.48 0 0 -10.08 177.228 74.29205)"><g transform="matrix(1 0 0 1 0 0)"><image x="0" y="0" xlink:href="img_01.png" width="1" height="1" /></g></g><g transform="matrix(0.48 0 0 -10.08 209.748 74.29205)"><g transform="matrix(1 0 0 1 0 0)"><image x="0" y="0" xlink:href="img_01.png" width="1" height="1" /></g></g><g transform="matrix(0.48 0 0 -10.08 242.268 74.29205)"><g transform="matrix(1 0 0 1 0 0)"><image x="0" y="0" xlink:href="img_01.png" width="1" height="1" /></g></g><g transform="matrix(0.48 0 0 -10.08 274.788 74.29205)"><g transform="matrix(1 0 0 1 0 0)"><image x="0" y="0" xlink:href="img_01.png" width="1" height="1" /></g></g><g transform="matrix(0.48 0 0 -10.08 277.188 74.29205)"><g transform="matrix(1 0 0 1 0 0)"><image x="0" y="0" xlink:href="img_01.png" width="1" height="1" /></g></g><g transform="matrix(0.48 0 0 -10.08 309.708 74.29205)"><g transform="matrix(1 0 0 1 0 0)"><image x="0" y="0" xlink:href="img_01.png" width="1" height="1" /></g></g><g transform="matrix(0.48 0 0 -10.08 342.228 74.29205)"><g transform="matrix(1 0 0 1 0 0)"><image x="0" y="0" xlink:href="img_01.png" width="1" height="1" /></g></g><g transform="matrix(0.48 0 0 -10.08 374.748 74.29205)"><g transform="matrix(1 0 0 1 0 0)"><image x="0" y="0" xlink:href="img_01.png" width="1" height="1" /></g></g><g transform="matrix(0.48 0 0 -10.08 407.268 74.29205)"><g transform="matrix(1 0 0 1 0 0)"><image x="0" y="0" xlink:href="img_01.png" width="1" height="1" /></g></g><g transform="matrix(0.48 0 0 -10.08 409.668 74.29205)"><g transform="matrix(1 0 0 1 0 0)"><image x="0" y="0" xlink:href="img_01.png" width="1" height="1" /></g></g><g transform="matrix(0.48 0 0 -10.08 442.188 74.29205)"><g transform="matrix(1 0 0 1 0 0)"><image x="0" y="0" xlink:href="img_01.png" width="1" height="1" /></g></g><g transform="matrix(0.48 0 0 -10.08 474.828 74.29205)"><g transform="matrix(1 0 0 1 0 0)"><image x="0" y="0" xlink:href="img_01.png" width="1" height="1" /></g></g><g transform="matrix(0.48 0 0 -10.08 507.348 74.29205)"><g transform="matrix(1 0 0 1 0 0)"><image x="0" y="0" xlink:href="img_01.png" width="1" height="1" /></g></g><g transform="matrix(0.48 0 0 -10.08 539.868 74.29205)"><g transform="matrix(1 0 0 1 0 0)"><image x="0" y="0" xlink:href="img_01.png" width="1" height="1" /></g></g><g transform="matrix(468.48 0 0 -0.48 71.748 74.77197)"><g transform="matrix(1 0 0 1 0 0)"><image x="0" y="0" xlink:href="img_01.png" width="1" height="1" /></g></g><g transform="matrix(0.48 0 0 -10.08 71.748 84.73199)"><g transform="matrix(1 0 0 1 0 0)"><image x="0" y="0" xlink:href="img_01.png" width="1" height="1" /></g></g><g transform="matrix(0.48 0 0 -10.08 139.668 84.73199)"><g transform="matrix(1 0 0 1 0 0)"><image x="0" y="0" xlink:href="img_01.png" width="1" height="1" /></g></g><g transform="matrix(0.48 0 0 -10.08 142.068 84.73199)"><g transform="matrix(1 0 0 1 0 0)"><image x="0" y="0" xlink:href="img_01.png" width="1" height="1" /></g></g><g transform="matrix(0.48 0 0 -10.08 177.228 84.73199)"><g transform="matrix(1 0 0 1 0 0)"><image x="0" y="0" xlink:href="img_01.png" width="1" height="1" /></g></g><g transform="matrix(0.48 0 0 -10.08 209.748 84.73199)"><g transform="matrix(1 0 0 1 0 0)"><image x="0" y="0" xlink:href="img_01.png" width="1" height="1" /></g></g><g transform="matrix(0.48 0 0 -10.08 242.268 84.73199)"><g transform="matrix(1 0 0 1 0 0)"><image x="0" y="0" xlink:href="img_01.png" width="1" height="1" /></g></g><g transform="matrix(0.48 0 0 -10.08 274.788 84.73199)"><g transform="matrix(1 0 0 1 0 0)"><image x="0" y="0" xlink:href="img_01.png" width="1" height="1" /></g></g><g transform="matrix(0.48 0 0 -10.08 277.188 84.73199)"><g transform="matrix(1 0 0 1 0 0)"><image x="0" y="0" xlink:href="img_01.png" width="1" height="1" /></g></g><g transform="matrix(0.48 0 0 -10.08 309.708 84.73199)"><g transform="matrix(1 0 0 1 0 0)"><image x="0" y="0" xlink:href="img_01.png" width="1" height="1" /></g></g><g transform="matrix(0.48 0 0 -10.08 342.228 84.73199)"><g transform="matrix(1 0 0 1 0 0)"><image x="0" y="0" xlink:href="img_01.png" width="1" height="1" /></g></g><g transform="matrix(0.48 0 0 -10.08 374.748 84.73199)"><g transform="matrix(1 0 0 1 0 0)"><image x="0" y="0" xlink:href="img_01.png" width="1" height="1" /></g></g><g transform="matrix(0.48 0 0 -10.08 407.268 84.73199)"><g transform="matrix(1 0 0 1 0 0)"><image x="0" y="0" xlink:href="img_01.png" width="1" height="1" /></g></g><g transform="matrix(0.48 0 0 -10.08 409.668 84.73199)"><g transform="matrix(1 0 0 1 0 0)"><image x="0" y="0" xlink:href="img_01.png" width="1" height="1" /></g></g><g transform="matrix(0.48 0 0 -10.08 442.188 84.73199)"><g transform="matrix(1 0 0 1 0 0)"><image x="0" y="0" xlink:href="img_01.png" width="1" height="1" /></g></g><g transform="matrix(0.48 0 0 -10.08 474.828 84.73199)"><g transform="matrix(1 0 0 1 0 0)"><image x="0" y="0" xlink:href="img_01.png" width="1" height="1" /></g></g><g transform="matrix(0.48 0 0 -10.08 507.348 84.73199)"><g transform="matrix(1 0 0 1 0 0)"><image x="0" y="0" xlink:href="img_01.png" width="1" height="1" /></g></g><g transform="matrix(0.48 0 0 -10.08 539.868 84.73199)"><g transform="matrix(1 0 0 1 0 0)"><image x="0" y="0" xlink:href="img_01.png" width="1" height="1" /></g></g><g transform="matrix(0.48 0 0 -10.08 71.748 94.69202)"><g transform="matrix(1 0 0 1 0 0)"><image x="0" y="0" xlink:href="img_01.png" width="1" height="1" /></g></g><g transform="matrix(0.48 0 0 -10.08 139.668 94.69202)"><g transform="matrix(1 0 0 1 0 0)"><image x="0" y="0" xlink:href="img_01.png" width="1" height="1" /></g></g><g transform="matrix(0.48 0 0 -10.08 142.068 94.69202)"><g transform="matrix(1 0 0 1 0 0)"><image x="0" y="0" xlink:href="img_01.png" width="1" height="1" /></g></g><g transform="matrix(0.48 0 0 -10.08 177.228 94.69202)"><g transform="matrix(1 0 0 1 0 0)"><image x="0" y="0" xlink:href="img_01.png" width="1" height="1" /></g></g><g transform="matrix(0.48 0 0 -10.08 209.748 94.69202)"><g transform="matrix(1 0 0 1 0 0)"><image x="0" y="0" xlink:href="img_01.png" width="1" height="1" /></g></g><g transform="matrix(0.48 0 0 -10.08 242.268 94.69202)"><g transform="matrix(1 0 0 1 0 0)"><image x="0" y="0" xlink:href="img_01.png" width="1" height="1" /></g></g><g transform="matrix(0.48 0 0 -10.08 274.788 94.69202)"><g transform="matrix(1 0 0 1 0 0)"><image x="0" y="0" xlink:href="img_01.png" width="1" height="1" /></g></g><g transform="matrix(0.48 0 0 -10.08 277.188 94.69202)"><g transform="matrix(1 0 0 1 0 0)"><image x="0" y="0" xlink:href="img_01.png" width="1" height="1" /></g></g><g transform="matrix(0.48 0 0 -10.08 309.708 94.69202)"><g transform="matrix(1 0 0 1 0 0)"><image x="0" y="0" xlink:href="img_01.png" width="1" height="1" /></g></g><g transform="matrix(0.48 0 0 -10.08 342.228 94.69202)"><g transform="matrix(1 0 0 1 0 0)"><image x="0" y="0" xlink:href="img_01.png" width="1" height="1" /></g></g><g transform="matrix(0.48 0 0 -10.08 374.748 94.69202)"><g transform="matrix(1 0 0 1 0 0)"><image x="0" y="0" xlink:href="img_01.png" width="1" height="1" /></g></g><g transform="matrix(0.48 0 0 -10.08 407.268 94.69202)"><g transform="matrix(1 0 0 1 0 0)"><image x="0" y="0" xlink:href="img_01.png" width="1" height="1" /></g></g><g transform="matrix(0.48 0 0 -10.08 409.668 94.69202)"><g transform="matrix(1 0 0 1 0 0)"><image x="0" y="0" xlink:href="img_01.png" width="1" height="1" /></g></g><g transform="matrix(0.48 0 0 -10.08 442.188 94.69202)"><g transform="matrix(1 0 0 1 0 0)"><image x="0" y="0" xlink:href="img_01.png" width="1" height="1" /></g></g><g transform="matrix(0.48 0 0 -10.08 474.828 94.69202)"><g transform="matrix(1 0 0 1 0 0)"><image x="0" y="0" xlink:href="img_01.png" width="1" height="1" /></g></g><g transform="matrix(0.48 0 0 -10.08 507.348 94.69202)"><g transform="matrix(1 0 0 1 0 0)"><image x="0" y="0" xlink:href="img_01.png" width="1" height="1" /></g></g><g transform="matrix(0.48 0 0 -10.08 539.868 94.69202)"><g transform="matrix(1 0 0 1 0 0)"><image x="0" y="0" xlink:href="img_01.png" width="1" height="1" /></g></g><g transform="matrix(0.48 0 0 -10.08 71.748 104.652)"><g transform="matrix(1 0 0 1 0 0)"><image x="0" y="0" xlink:href="img_01.png" width="1" height="1" /></g></g><g transform="matrix(0.48 0 0 -10.08 139.668 104.652)"><g transform="matrix(1 0 0 1 0 0)"><image x="0" y="0" xlink:href="img_01.png" width="1" height="1" /></g></g><g transform="matrix(0.48 0 0 -10.08 142.068 104.652)"><g transform="matrix(1 0 0 1 0 0)"><image x="0" y="0" xlink:href="img_01.png" width="1" height="1" /></g></g><g transform="matrix(0.48 0 0 -10.08 177.228 104.652)"><g transform="matrix(1 0 0 1 0 0)"><image x="0" y="0" xlink:href="img_01.png" width="1" height="1" /></g></g><g transform="matrix(0.48 0 0 -10.08 209.748 104.652)"><g transform="matrix(1 0 0 1 0 0)"><image x="0" y="0" xlink:href="img_01.png" width="1" height="1" /></g></g><g transform="matrix(0.48 0 0 -10.08 242.268 104.652)"><g transform="matrix(1 0 0 1 0 0)"><image x="0" y="0" xlink:href="img_01.png" width="1" height="1" /></g></g><g transform="matrix(0.48 0 0 -10.08 274.788 104.652)"><g transform="matrix(1 0 0 1 0 0)"><image x="0" y="0" xlink:href="img_01.png" width="1" height="1" /></g></g><g transform="matrix(0.48 0 0 -10.08 277.188 104.652)"><g transform="matrix(1 0 0 1 0 0)"><image x="0" y="0" xlink:href="img_01.png" width="1" height="1" /></g></g><g transform="matrix(0.48 0 0 -10.08 309.708 104.652)"><g transform="matrix(1 0 0 1 0 0)"><image x="0" y="0" xlink:href="img_01.png" width="1" height="1" /></g></g><g transform="matrix(0.48 0 0 -10.08 342.228 104.652)"><g transform="matrix(1 0 0 1 0 0)"><image x="0" y="0" xlink:href="img_01.png" width="1" height="1" /></g></g><g transform="matrix(0.48 0 0 -10.08 374.748 104.652)"><g transform="matrix(1 0 0 1 0 0)"><image x="0" y="0" xlink:href="img_01.png" width="1" height="1" /></g></g><g transform="matrix(0.48 0 0 -10.08 407.268 104.652)"><g transform="matrix(1 0 0 1 0 0)"><image x="0" y="0" xlink:href="img_01.png" width="1" height="1" /></g></g><g transform="matrix(0.48 0 0 -10.08 409.668 104.652)"><g transform="matrix(1 0 0 1 0 0)"><image x="0" y="0" xlink:href="img_01.png" width="1" height="1" /></g></g><g transform="matrix(0.48 0 0 -10.08 442.188 104.652)"><g transform="matrix(1 0 0 1 0 0)"><image x="0" y="0" xlink:href="img_01.png" width="1" height="1" /></g></g><g transform="matrix(0.48 0 0 -10.08 474.828 104.652)"><g transform="matrix(1 0 0 1 0 0)"><image x="0" y="0" xlink:href="img_01.png" width="1" height="1" /></g></g><g transform="matrix(0.48 0 0 -10.08 507.348 104.652)"><g transform="matrix(1 0 0 1 0 0)"><image x="0" y="0" xlink:href="img_01.png" width="1" height="1" /></g></g><g transform="matrix(0.48 0 0 -10.08 539.868 104.652)"><g transform="matrix(1 0 0 1 0 0)"><image x="0" y="0" xlink:href="img_01.png" width="1" height="1" /></g></g><g transform="matrix(0.48 0 0 -10.08 71.748 114.612)"><g transform="matrix(1 0 0 1 0 0)"><image x="0" y="0" xlink:href="img_01.png" width="1" height="1" /></g></g><g transform="matrix(0.48 0 0 -10.08 139.668 114.612)"><g transform="matrix(1 0 0 1 0 0)"><image x="0" y="0" xlink:href="img_01.png" width="1" height="1" /></g></g><g transform="matrix(0.48 0 0 -10.08 142.068 114.612)"><g transform="matrix(1 0 0 1 0 0)"><image x="0" y="0" xlink:href="img_01.png" width="1" height="1" /></g></g><g transform="matrix(0.48 0 0 -10.08 177.228 114.612)"><g transform="matrix(1 0 0 1 0 0)"><image x="0" y="0" xlink:href="img_01.png" width="1" height="1" /></g></g><g transform="matrix(0.48 0 0 -10.08 209.748 114.612)"><g transform="matrix(1 0 0 1 0 0)"><image x="0" y="0" xlink:href="img_01.png" width="1" height="1" /></g></g><g transform="matrix(0.48 0 0 -10.08 242.268 114.612)"><g transform="matrix(1 0 0 1 0 0)"><image x="0" y="0" xlink:href="img_01.png" width="1" height="1" /></g></g><g transform="matrix(0.48 0 0 -10.08 274.788 114.612)"><g transform="matrix(1 0 0 1 0 0)"><image x="0" y="0" xlink:href="img_01.png" width="1" height="1" /></g></g><g transform="matrix(0.48 0 0 -10.08 277.188 114.612)"><g transform="matrix(1 0 0 1 0 0)"><image x="0" y="0" xlink:href="img_01.png" width="1" height="1" /></g></g><g transform="matrix(0.48 0 0 -10.08 309.708 114.612)"><g transform="matrix(1 0 0 1 0 0)"><image x="0" y="0" xlink:href="img_01.png" width="1" height="1" /></g></g><g transform="matrix(0.48 0 0 -10.08 342.228 114.612)"><g transform="matrix(1 0 0 1 0 0)"><image x="0" y="0" xlink:href="img_01.png" width="1" height="1" /></g></g><g transform="matrix(0.48 0 0 -10.08 374.748 114.612)"><g transform="matrix(1 0 0 1 0 0)"><image x="0" y="0" xlink:href="img_01.png" width="1" height="1" /></g></g><g transform="matrix(0.48 0 0 -10.08 407.268 114.612)"><g transform="matrix(1 0 0 1 0 0)"><image x="0" y="0" xlink:href="img_01.png" width="1" height="1" /></g></g><g transform="matrix(0.48 0 0 -10.08 409.668 114.612)"><g transform="matrix(1 0 0 1 0 0)"><image x="0" y="0" xlink:href="img_01.png" width="1" height="1" /></g></g><g transform="matrix(0.48 0 0 -10.08 442.188 114.612)"><g transform="matrix(1 0 0 1 0 0)"><image x="0" y="0" xlink:href="img_01.png" width="1" height="1" /></g></g><g transform="matrix(0.48 0 0 -10.08 474.828 114.612)"><g transform="matrix(1 0 0 1 0 0)"><image x="0" y="0" xlink:href="img_01.png" width="1" height="1" /></g></g><g transform="matrix(0.48 0 0 -10.08 507.348 114.612)"><g transform="matrix(1 0 0 1 0 0)"><image x="0" y="0" xlink:href="img_01.png" width="1" height="1" /></g></g><g transform="matrix(0.48 0 0 -10.08 539.868 114.612)"><g transform="matrix(1 0 0 1 0 0)"><image x="0" y="0" xlink:href="img_01.png" width="1" height="1" /></g></g><g transform="matrix(468.48 0 0 -0.48 71.748 114.972)"><g transform="matrix(1 0 0 1 0 0)"><image x="0" y="0" xlink:href="img_01.png" width="1" height="1" /></g></g><g transform="matrix(0.48 0 0 -10.08 71.748 124.932)"><g transform="matrix(1 0 0 1 0 0)"><image x="0" y="0" xlink:href="img_01.png" width="1" height="1" /></g></g><g transform="matrix(0.48 0 0 -10.08 139.668 124.932)"><g transform="matrix(1 0 0 1 0 0)"><image x="0" y="0" xlink:href="img_01.png" width="1" height="1" /></g></g><g transform="matrix(0.48 0 0 -10.08 142.068 124.932)"><g transform="matrix(1 0 0 1 0 0)"><image x="0" y="0" xlink:href="img_01.png" width="1" height="1" /></g></g><g transform="matrix(0.48 0 0 -10.08 177.228 124.932)"><g transform="matrix(1 0 0 1 0 0)"><image x="0" y="0" xlink:href="img_01.png" width="1" height="1" /></g></g><g transform="matrix(0.48 0 0 -10.08 209.748 124.932)"><g transform="matrix(1 0 0 1 0 0)"><image x="0" y="0" xlink:href="img_01.png" width="1" height="1" /></g></g><g transform="matrix(0.48 0 0 -10.08 242.268 124.932)"><g transform="matrix(1 0 0 1 0 0)"><image x="0" y="0" xlink:href="img_01.png" width="1" height="1" /></g></g><g transform="matrix(0.48 0 0 -10.08 274.788 124.932)"><g transform="matrix(1 0 0 1 0 0)"><image x="0" y="0" xlink:href="img_01.png" width="1" height="1" /></g></g><g transform="matrix(0.48 0 0 -10.08 277.188 124.932)"><g transform="matrix(1 0 0 1 0 0)"><image x="0" y="0" xlink:href="img_01.png" width="1" height="1" /></g></g><g transform="matrix(0.48 0 0 -10.08 309.708 124.932)"><g transform="matrix(1 0 0 1 0 0)"><image x="0" y="0" xlink:href="img_01.png" width="1" height="1" /></g></g><g transform="matrix(0.48 0 0 -10.08 342.228 124.932)"><g transform="matrix(1 0 0 1 0 0)"><image x="0" y="0" xlink:href="img_01.png" width="1" height="1" /></g></g><g transform="matrix(0.48 0 0 -10.08 374.748 124.932)"><g transform="matrix(1 0 0 1 0 0)"><image x="0" y="0" xlink:href="img_01.png" width="1" height="1" /></g></g><g transform="matrix(0.48 0 0 -10.08 407.268 124.932)"><g transform="matrix(1 0 0 1 0 0)"><image x="0" y="0" xlink:href="img_01.png" width="1" height="1" /></g></g><g transform="matrix(0.48 0 0 -10.08 409.668 124.932)"><g transform="matrix(1 0 0 1 0 0)"><image x="0" y="0" xlink:href="img_01.png" width="1" height="1" /></g></g><g transform="matrix(0.48 0 0 -10.08 442.188 124.932)"><g transform="matrix(1 0 0 1 0 0)"><image x="0" y="0" xlink:href="img_01.png" width="1" height="1" /></g></g><g transform="matrix(0.48 0 0 -10.08 474.828 124.932)"><g transform="matrix(1 0 0 1 0 0)"><image x="0" y="0" xlink:href="img_01.png" width="1" height="1" /></g></g><g transform="matrix(0.48 0 0 -10.08 507.348 124.932)"><g transform="matrix(1 0 0 1 0 0)"><image x="0" y="0" xlink:href="img_01.png" width="1" height="1" /></g></g><g transform="matrix(0.48 0 0 -10.08 539.868 124.932)"><g transform="matrix(1 0 0 1 0 0)"><image x="0" y="0" xlink:href="img_01.png" width="1" height="1" /></g></g><g transform="matrix(0.48 0 0 -10.08 71.748 134.892)"><g transform="matrix(1 0 0 1 0 0)"><image x="0" y="0" xlink:href="img_01.png" width="1" height="1" /></g></g><g transform="matrix(0.48 0 0 -10.08 139.668 134.892)"><g transform="matrix(1 0 0 1 0 0)"><image x="0" y="0" xlink:href="img_01.png" width="1" height="1" /></g></g><g transform="matrix(0.48 0 0 -10.08 142.068 134.892)"><g transform="matrix(1 0 0 1 0 0)"><image x="0" y="0" xlink:href="img_01.png" width="1" height="1" /></g></g><g transform="matrix(0.48 0 0 -10.08 177.228 134.892)"><g transform="matrix(1 0 0 1 0 0)"><image x="0" y="0" xlink:href="img_01.png" width="1" height="1" /></g></g><g transform="matrix(0.48 0 0 -10.08 209.748 134.892)"><g transform="matrix(1 0 0 1 0 0)"><image x="0" y="0" xlink:href="img_01.png" width="1" height="1" /></g></g><g transform="matrix(0.48 0 0 -10.08 242.268 134.892)"><g transform="matrix(1 0 0 1 0 0)"><image x="0" y="0" xlink:href="img_01.png" width="1" height="1" /></g></g><g transform="matrix(0.48 0 0 -10.08 274.788 134.892)"><g transform="matrix(1 0 0 1 0 0)"><image x="0" y="0" xlink:href="img_01.png" width="1" height="1" /></g></g><g transform="matrix(0.48 0 0 -10.08 277.188 134.892)"><g transform="matrix(1 0 0 1 0 0)"><image x="0" y="0" xlink:href="img_01.png" width="1" height="1" /></g></g><g transform="matrix(0.48 0 0 -10.08 309.708 134.892)"><g transform="matrix(1 0 0 1 0 0)"><image x="0" y="0" xlink:href="img_01.png" width="1" height="1" /></g></g><g transform="matrix(0.48 0 0 -10.08 342.228 134.892)"><g transform="matrix(1 0 0 1 0 0)"><image x="0" y="0" xlink:href="img_01.png" width="1" height="1" /></g></g><g transform="matrix(0.48 0 0 -10.08 374.748 134.892)"><g transform="matrix(1 0 0 1 0 0)"><image x="0" y="0" xlink:href="img_01.png" width="1" height="1" /></g></g><g transform="matrix(0.48 0 0 -10.08 407.268 134.892)"><g transform="matrix(1 0 0 1 0 0)"><image x="0" y="0" xlink:href="img_01.png" width="1" height="1" /></g></g><g transform="matrix(0.48 0 0 -10.08 409.668 134.892)"><g transform="matrix(1 0 0 1 0 0)"><image x="0" y="0" xlink:href="img_01.png" width="1" height="1" /></g></g><g transform="matrix(0.48 0 0 -10.08 442.188 134.892)"><g transform="matrix(1 0 0 1 0 0)"><image x="0" y="0" xlink:href="img_01.png" width="1" height="1" /></g></g><g transform="matrix(0.48 0 0 -10.08 474.828 134.892)"><g transform="matrix(1 0 0 1 0 0)"><image x="0" y="0" xlink:href="img_01.png" width="1" height="1" /></g></g><g transform="matrix(0.48 0 0 -10.08 507.348 134.892)"><g transform="matrix(1 0 0 1 0 0)"><image x="0" y="0" xlink:href="img_01.png" width="1" height="1" /></g></g><g transform="matrix(0.48 0 0 -10.08 539.868 134.892)"><g transform="matrix(1 0 0 1 0 0)"><image x="0" y="0" xlink:href="img_01.png" width="1" height="1" /></g></g><g transform="matrix(0.48 0 0 -10.08 71.748 144.8521)"><g transform="matrix(1 0 0 1 0 0)"><image x="0" y="0" xlink:href="img_01.png" width="1" height="1" /></g></g><g transform="matrix(0.48 0 0 -10.08 139.668 144.8521)"><g transform="matrix(1 0 0 1 0 0)"><image x="0" y="0" xlink:href="img_01.png" width="1" height="1" /></g></g><g transform="matrix(0.48 0 0 -10.08 142.068 144.8521)"><g transform="matrix(1 0 0 1 0 0)"><image x="0" y="0" xlink:href="img_01.png" width="1" height="1" /></g></g><g transform="matrix(0.48 0 0 -10.08 177.228 144.8521)"><g transform="matrix(1 0 0 1 0 0)"><image x="0" y="0" xlink:href="img_01.png" width="1" height="1" /></g></g><g transform="matrix(0.48 0 0 -10.08 209.748 144.8521)"><g transform="matrix(1 0 0 1 0 0)"><image x="0" y="0" xlink:href="img_01.png" width="1" height="1" /></g></g><g transform="matrix(0.48 0 0 -10.08 242.268 144.8521)"><g transform="matrix(1 0 0 1 0 0)"><image x="0" y="0" xlink:href="img_01.png" width="1" height="1" /></g></g><g transform="matrix(0.48 0 0 -10.08 274.788 144.8521)"><g transform="matrix(1 0 0 1 0 0)"><image x="0" y="0" xlink:href="img_01.png" width="1" height="1" /></g></g><g transform="matrix(0.48 0 0 -10.08 277.188 144.8521)"><g transform="matrix(1 0 0 1 0 0)"><image x="0" y="0" xlink:href="img_01.png" width="1" height="1" /></g></g><g transform="matrix(0.48 0 0 -10.08 309.708 144.8521)"><g transform="matrix(1 0 0 1 0 0)"><image x="0" y="0" xlink:href="img_01.png" width="1" height="1" /></g></g><g transform="matrix(0.48 0 0 -10.08 342.228 144.8521)"><g transform="matrix(1 0 0 1 0 0)"><image x="0" y="0" xlink:href="img_01.png" width="1" height="1" /></g></g><g transform="matrix(0.48 0 0 -10.08 374.748 144.8521)"><g transform="matrix(1 0 0 1 0 0)"><image x="0" y="0" xlink:href="img_01.png" width="1" height="1" /></g></g><g transform="matrix(0.48 0 0 -10.08 407.268 144.8521)"><g transform="matrix(1 0 0 1 0 0)"><image x="0" y="0" xlink:href="img_01.png" width="1" height="1" /></g></g><g transform="matrix(0.48 0 0 -10.08 409.668 144.8521)"><g transform="matrix(1 0 0 1 0 0)"><image x="0" y="0" xlink:href="img_01.png" width="1" height="1" /></g></g><g transform="matrix(0.48 0 0 -10.08 442.188 144.8521)"><g transform="matrix(1 0 0 1 0 0)"><image x="0" y="0" xlink:href="img_01.png" width="1" height="1" /></g></g><g transform="matrix(0.48 0 0 -10.08 474.828 144.8521)"><g transform="matrix(1 0 0 1 0 0)"><image x="0" y="0" xlink:href="img_01.png" width="1" height="1" /></g></g><g transform="matrix(0.48 0 0 -10.08 507.348 144.8521)"><g transform="matrix(1 0 0 1 0 0)"><image x="0" y="0" xlink:href="img_01.png" width="1" height="1" /></g></g><g transform="matrix(0.48 0 0 -10.08 539.868 144.8521)"><g transform="matrix(1 0 0 1 0 0)"><image x="0" y="0" xlink:href="img_01.png" width="1" height="1" /></g></g><g transform="matrix(0.48 0 0 -10.08 71.748 154.812)"><g transform="matrix(1 0 0 1 0 0)"><image x="0" y="0" xlink:href="img_01.png" width="1" height="1" /></g></g><g transform="matrix(0.48 0 0 -10.08 139.668 154.812)"><g transform="matrix(1 0 0 1 0 0)"><image x="0" y="0" xlink:href="img_01.png" width="1" height="1" /></g></g><g transform="matrix(0.48 0 0 -10.08 142.068 154.812)"><g transform="matrix(1 0 0 1 0 0)"><image x="0" y="0" xlink:href="img_01.png" width="1" height="1" /></g></g><g transform="matrix(0.48 0 0 -10.08 177.228 154.812)"><g transform="matrix(1 0 0 1 0 0)"><image x="0" y="0" xlink:href="img_01.png" width="1" height="1" /></g></g><g transform="matrix(0.48 0 0 -10.08 209.748 154.812)"><g transform="matrix(1 0 0 1 0 0)"><image x="0" y="0" xlink:href="img_01.png" width="1" height="1" /></g></g><g transform="matrix(0.48 0 0 -10.08 242.268 154.812)"><g transform="matrix(1 0 0 1 0 0)"><image x="0" y="0" xlink:href="img_01.png" width="1" height="1" /></g></g><g transform="matrix(0.48 0 0 -10.08 274.788 154.812)"><g transform="matrix(1 0 0 1 0 0)"><image x="0" y="0" xlink:href="img_01.png" width="1" height="1" /></g></g><g transform="matrix(0.48 0 0 -10.08 277.188 154.812)"><g transform="matrix(1 0 0 1 0 0)"><image x="0" y="0" xlink:href="img_01.png" width="1" height="1" /></g></g><g transform="matrix(0.48 0 0 -10.08 309.708 154.812)"><g transform="matrix(1 0 0 1 0 0)"><image x="0" y="0" xlink:href="img_01.png" width="1" height="1" /></g></g><g transform="matrix(0.48 0 0 -10.08 342.228 154.812)"><g transform="matrix(1 0 0 1 0 0)"><image x="0" y="0" xlink:href="img_01.png" width="1" height="1" /></g></g><g transform="matrix(0.48 0 0 -10.08 374.748 154.812)"><g transform="matrix(1 0 0 1 0 0)"><image x="0" y="0" xlink:href="img_01.png" width="1" height="1" /></g></g><g transform="matrix(0.48 0 0 -10.08 407.268 154.812)"><g transform="matrix(1 0 0 1 0 0)"><image x="0" y="0" xlink:href="img_01.png" width="1" height="1" /></g></g><g transform="matrix(0.48 0 0 -10.08 409.668 154.812)"><g transform="matrix(1 0 0 1 0 0)"><image x="0" y="0" xlink:href="img_01.png" width="1" height="1" /></g></g><g transform="matrix(0.48 0 0 -10.08 442.188 154.812)"><g transform="matrix(1 0 0 1 0 0)"><image x="0" y="0" xlink:href="img_01.png" width="1" height="1" /></g></g><g transform="matrix(0.48 0 0 -10.08 474.828 154.812)"><g transform="matrix(1 0 0 1 0 0)"><image x="0" y="0" xlink:href="img_01.png" width="1" height="1" /></g></g><g transform="matrix(0.48 0 0 -10.08 507.348 154.812)"><g transform="matrix(1 0 0 1 0 0)"><image x="0" y="0" xlink:href="img_01.png" width="1" height="1" /></g></g><g transform="matrix(0.48 0 0 -10.08 539.868 154.812)"><g transform="matrix(1 0 0 1 0 0)"><image x="0" y="0" xlink:href="img_01.png" width="1" height="1" /></g></g><g transform="matrix(468.48 0 0 -0.48 71.748 155.292)"><g transform="matrix(1 0 0 1 0 0)"><image x="0" y="0" xlink:href="img_01.png" width="1" height="1" /></g></g><g transform="matrix(461.4 0 0 -0.48 75.348 193.932)"><g transform="matrix(1 0 0 1 0 0)"><image x="0" y="0" xlink:href="img_01.png" width="1" height="1" /></g></g><g transform="matrix(0.48 0 0 -10.08 75.348 203.892)"><g transform="matrix(1 0 0 1 0 0)"><image x="0" y="0" xlink:href="img_01.png" width="1" height="1" /></g></g><g transform="matrix(0.48 0 0 -10.08 143.268 203.892)"><g transform="matrix(1 0 0 1 0 0)"><image x="0" y="0" xlink:href="img_01.png" width="1" height="1" /></g></g><g transform="matrix(0.48 0 0 -10.08 145.548 203.892)"><g transform="matrix(1 0 0 1 0 0)"><image x="0" y="0" xlink:href="img_01.png" width="1" height="1" /></g></g><g transform="matrix(0.48 0 0 -10.08 275.748 203.892)"><g transform="matrix(1 0 0 1 0 0)"><image x="0" y="0" xlink:href="img_01.png" width="1" height="1" /></g></g><g transform="matrix(0.48 0 0 -10.08 278.148 203.892)"><g transform="matrix(1 0 0 1 0 0)"><image x="0" y="0" xlink:href="img_01.png" width="1" height="1" /></g></g><g transform="matrix(0.48 0 0 -10.08 408.228 203.892)"><g transform="matrix(1 0 0 1 0 0)"><image x="0" y="0" xlink:href="img_01.png" width="1" height="1" /></g></g><g transform="matrix(0.48 0 0 -10.08 410.628 203.892)"><g transform="matrix(1 0 0 1 0 0)"><image x="0" y="0" xlink:href="img_01.png" width="1" height="1" /></g></g><g transform="matrix(0.48 0 0 -10.08 536.268 203.892)"><g transform="matrix(1 0 0 1 0 0)"><image x="0" y="0" xlink:href="img_01.png" width="1" height="1" /></g></g><g transform="matrix(0.48 0 0 -10.08 75.348 213.8521)"><g transform="matrix(1 0 0 1 0 0)"><image x="0" y="0" xlink:href="img_01.png" width="1" height="1" /></g></g><g transform="matrix(0.48 0 0 -10.08 143.268 213.8521)"><g transform="matrix(1 0 0 1 0 0)"><image x="0" y="0" xlink:href="img_01.png" width="1" height="1" /></g></g><g transform="matrix(0.48 0 0 -10.08 145.548 213.8521)"><g transform="matrix(1 0 0 1 0 0)"><image x="0" y="0" xlink:href="img_01.png" width="1" height="1" /></g></g><g transform="matrix(0.48 0 0 -10.08 178.188 213.8521)"><g transform="matrix(1 0 0 1 0 0)"><image x="0" y="0" xlink:href="img_01.png" width="1" height="1" /></g></g><g transform="matrix(0.48 0 0 -10.08 210.708 213.8521)"><g transform="matrix(1 0 0 1 0 0)"><image x="0" y="0" xlink:href="img_01.png" width="1" height="1" /></g></g><g transform="matrix(0.48 0 0 -10.08 243.228 213.8521)"><g transform="matrix(1 0 0 1 0 0)"><image x="0" y="0" xlink:href="img_01.png" width="1" height="1" /></g></g><g transform="matrix(0.48 0 0 -10.08 275.748 213.8521)"><g transform="matrix(1 0 0 1 0 0)"><image x="0" y="0" xlink:href="img_01.png" width="1" height="1" /></g></g><g transform="matrix(0.48 0 0 -10.08 278.148 213.8521)"><g transform="matrix(1 0 0 1 0 0)"><image x="0" y="0" xlink:href="img_01.png" width="1" height="1" /></g></g><g transform="matrix(0.48 0 0 -10.08 310.668 213.8521)"><g transform="matrix(1 0 0 1 0 0)"><image x="0" y="0" xlink:href="img_01.png" width="1" height="1" /></g></g><g transform="matrix(0.48 0 0 -10.08 343.188 213.8521)"><g transform="matrix(1 0 0 1 0 0)"><image x="0" y="0" xlink:href="img_01.png" width="1" height="1" /></g></g><g transform="matrix(0.48 0 0 -10.08 375.708 213.8521)"><g transform="matrix(1 0 0 1 0 0)"><image x="0" y="0" xlink:href="img_01.png" width="1" height="1" /></g></g><g transform="matrix(0.48 0 0 -10.08 408.228 213.8521)"><g transform="matrix(1 0 0 1 0 0)"><image x="0" y="0" xlink:href="img_01.png" width="1" height="1" /></g></g><g transform="matrix(0.48 0 0 -10.08 410.628 213.8521)"><g transform="matrix(1 0 0 1 0 0)"><image x="0" y="0" xlink:href="img_01.png" width="1" height="1" /></g></g><g transform="matrix(0.48 0 0 -10.08 443.148 213.8521)"><g transform="matrix(1 0 0 1 0 0)"><image x="0" y="0" xlink:href="img_01.png" width="1" height="1" /></g></g><g transform="matrix(0.48 0 0 -10.08 475.668 213.8521)"><g transform="matrix(1 0 0 1 0 0)"><image x="0" y="0" xlink:href="img_01.png" width="1" height="1" /></g></g><g transform="matrix(0.48 0 0 -10.08 503.748 213.8521)"><g transform="matrix(1 0 0 1 0 0)"><image x="0" y="0" xlink:href="img_01.png" width="1" height="1" /></g></g><g transform="matrix(0.48 0 0 -10.08 536.268 213.8521)"><g transform="matrix(1 0 0 1 0 0)"><image x="0" y="0" xlink:href="img_01.png" width="1" height="1" /></g></g><g transform="matrix(461.4 0 0 -0.48 75.348 214.332)"><g transform="matrix(1 0 0 1 0 0)"><image x="0" y="0" xlink:href="img_01.png" width="1" height="1" /></g></g><g transform="matrix(0.48 0 0 -10.08 75.348 224.2921)"><g transform="matrix(1 0 0 1 0 0)"><image x="0" y="0" xlink:href="img_01.png" width="1" height="1" /></g></g><g transform="matrix(0.48 0 0 -10.08 143.268 224.2921)"><g transform="matrix(1 0 0 1 0 0)"><image x="0" y="0" xlink:href="img_01.png" width="1" height="1" /></g></g><g transform="matrix(0.48 0 0 -10.08 145.548 224.2921)"><g transform="matrix(1 0 0 1 0 0)"><image x="0" y="0" xlink:href="img_01.png" width="1" height="1" /></g></g><g transform="matrix(0.48 0 0 -10.08 178.188 224.2921)"><g transform="matrix(1 0 0 1 0 0)"><image x="0" y="0" xlink:href="img_01.png" width="1" height="1" /></g></g><g transform="matrix(0.48 0 0 -10.08 210.708 224.2921)"><g transform="matrix(1 0 0 1 0 0)"><image x="0" y="0" xlink:href="img_01.png" width="1" height="1" /></g></g><g transform="matrix(0.48 0 0 -10.08 243.228 224.2921)"><g transform="matrix(1 0 0 1 0 0)"><image x="0" y="0" xlink:href="img_01.png" width="1" height="1" /></g></g><g transform="matrix(0.48 0 0 -10.08 275.748 224.2921)"><g transform="matrix(1 0 0 1 0 0)"><image x="0" y="0" xlink:href="img_01.png" width="1" height="1" /></g></g><g transform="matrix(0.48 0 0 -10.08 278.148 224.2921)"><g transform="matrix(1 0 0 1 0 0)"><image x="0" y="0" xlink:href="img_01.png" width="1" height="1" /></g></g><g transform="matrix(0.48 0 0 -10.08 310.668 224.2921)"><g transform="matrix(1 0 0 1 0 0)"><image x="0" y="0" xlink:href="img_01.png" width="1" height="1" /></g></g><g transform="matrix(0.48 0 0 -10.08 343.188 224.2921)"><g transform="matrix(1 0 0 1 0 0)"><image x="0" y="0" xlink:href="img_01.png" width="1" height="1" /></g></g><g transform="matrix(0.48 0 0 -10.08 375.708 224.2921)"><g transform="matrix(1 0 0 1 0 0)"><image x="0" y="0" xlink:href="img_01.png" width="1" height="1" /></g></g><g transform="matrix(0.48 0 0 -10.08 408.228 224.2921)"><g transform="matrix(1 0 0 1 0 0)"><image x="0" y="0" xlink:href="img_01.png" width="1" height="1" /></g></g><g transform="matrix(0.48 0 0 -10.08 410.628 224.2921)"><g transform="matrix(1 0 0 1 0 0)"><image x="0" y="0" xlink:href="img_01.png" width="1" height="1" /></g></g><g transform="matrix(0.48 0 0 -10.08 443.148 224.2921)"><g transform="matrix(1 0 0 1 0 0)"><image x="0" y="0" xlink:href="img_01.png" width="1" height="1" /></g></g><g transform="matrix(0.48 0 0 -10.08 475.668 224.2921)"><g transform="matrix(1 0 0 1 0 0)"><image x="0" y="0" xlink:href="img_01.png" width="1" height="1" /></g></g><g transform="matrix(0.48 0 0 -10.08 503.748 224.2921)"><g transform="matrix(1 0 0 1 0 0)"><image x="0" y="0" xlink:href="img_01.png" width="1" height="1" /></g></g><g transform="matrix(0.48 0 0 -10.08 536.268 224.2921)"><g transform="matrix(1 0 0 1 0 0)"><image x="0" y="0" xlink:href="img_01.png" width="1" height="1" /></g></g><g transform="matrix(0.48 0 0 -10.08 75.348 234.252)"><g transform="matrix(1 0 0 1 0 0)"><image x="0" y="0" xlink:href="img_01.png" width="1" height="1" /></g></g><g transform="matrix(0.48 0 0 -10.08 143.268 234.252)"><g transform="matrix(1 0 0 1 0 0)"><image x="0" y="0" xlink:href="img_01.png" width="1" height="1" /></g></g><g transform="matrix(0.48 0 0 -10.08 145.548 234.252)"><g transform="matrix(1 0 0 1 0 0)"><image x="0" y="0" xlink:href="img_01.png" width="1" height="1" /></g></g><g transform="matrix(0.48 0 0 -10.08 178.188 234.252)"><g transform="matrix(1 0 0 1 0 0)"><image x="0" y="0" xlink:href="img_01.png" width="1" height="1" /></g></g><g transform="matrix(0.48 0 0 -10.08 210.708 234.252)"><g transform="matrix(1 0 0 1 0 0)"><image x="0" y="0" xlink:href="img_01.png" width="1" height="1" /></g></g><g transform="matrix(0.48 0 0 -10.08 243.228 234.252)"><g transform="matrix(1 0 0 1 0 0)"><image x="0" y="0" xlink:href="img_01.png" width="1" height="1" /></g></g><g transform="matrix(0.48 0 0 -10.08 275.748 234.252)"><g transform="matrix(1 0 0 1 0 0)"><image x="0" y="0" xlink:href="img_01.png" width="1" height="1" /></g></g><g transform="matrix(0.48 0 0 -10.08 278.148 234.252)"><g transform="matrix(1 0 0 1 0 0)"><image x="0" y="0" xlink:href="img_01.png" width="1" height="1" /></g></g><g transform="matrix(0.48 0 0 -10.08 310.668 234.252)"><g transform="matrix(1 0 0 1 0 0)"><image x="0" y="0" xlink:href="img_01.png" width="1" height="1" /></g></g><g transform="matrix(0.48 0 0 -10.08 343.188 234.252)"><g transform="matrix(1 0 0 1 0 0)"><image x="0" y="0" xlink:href="img_01.png" width="1" height="1" /></g></g><g transform="matrix(0.48 0 0 -10.08 375.708 234.252)"><g transform="matrix(1 0 0 1 0 0)"><image x="0" y="0" xlink:href="img_01.png" width="1" height="1" /></g></g><g transform="matrix(0.48 0 0 -10.08 408.228 234.252)"><g transform="matrix(1 0 0 1 0 0)"><image x="0" y="0" xlink:href="img_01.png" width="1" height="1" /></g></g><g transform="matrix(0.48 0 0 -10.08 410.628 234.252)"><g transform="matrix(1 0 0 1 0 0)"><image x="0" y="0" xlink:href="img_01.png" width="1" height="1" /></g></g><g transform="matrix(0.48 0 0 -10.08 443.148 234.252)"><g transform="matrix(1 0 0 1 0 0)"><image x="0" y="0" xlink:href="img_01.png" width="1" height="1" /></g></g><g transform="matrix(0.48 0 0 -10.08 475.668 234.252)"><g transform="matrix(1 0 0 1 0 0)"><image x="0" y="0" xlink:href="img_01.png" width="1" height="1" /></g></g><g transform="matrix(0.48 0 0 -10.08 503.748 234.252)"><g transform="matrix(1 0 0 1 0 0)"><image x="0" y="0" xlink:href="img_01.png" width="1" height="1" /></g></g><g transform="matrix(0.48 0 0 -10.08 536.268 234.252)"><g transform="matrix(1 0 0 1 0 0)"><image x="0" y="0" xlink:href="img_01.png" width="1" height="1" /></g></g><g transform="matrix(461.4 0 0 -0.48 75.348 234.6119)"><g transform="matrix(1 0 0 1 0 0)"><image x="0" y="0" xlink:href="img_01.png" width="1" height="1" /></g></g></g></g></g></svg>