<svg xmlns="http://www.w3.org/2000/svg" xmlns:xlink="http://www.w3.org/1999/xlink" id="body_6" preserveAspectRatio="xMinYMin meet" viewBox="0 0 816 1056"><defs><clipPath id="1"><path id="" clip-rule="evenodd" transform="matrix(1 0 0 1 0 0)" d="M0 792L0 0L0 0L612 0L612 0L612 792L612 792L0 792z" /></clipPath><clipPath id="2"><path id="" clip-rule="evenodd" transform="matrix(1 0 0 1 0 0)" d="M0 792L612 792L612 792L612 0L612 0L0 0z" /></clipPath></defs><g transform="matrix(1.333333 0 0 1.333333 0 0)"><g clip-path="url(#1)"><g clip-path="url(#2)"><g transform="matrix(143.4 0 0 -0.48 364.788 54.37195)"><g transform="matrix(1 0 0 1 0 0)"><image x="0" y="0" xlink:href="img_01.png" width="1" height="1" /></g></g><g transform="matrix(0.48 0 0 -10.08 364.788 64.33203)"><g transform="matrix(1 0 0 1 0 0)"><image x="0" y="0" xlink:href="img_01.png" width="1" height="1" /></g></g><g transform="matrix(0.48 0 0 -10.08 394.308 64.33203)"><g transform="matrix(1 0 0 1 0 0)"><image x="0" y="0" xlink:href="img_01.png" width="1" height="1" /></g></g><g transform="matrix(0.48 0 0 -10.08 396.708 64.33203)"><g transform="matrix(1 0 0 1 0 0)"><image x="0" y="0" xlink:href="img_01.png" width="1" height="1" /></g></g><g transform="matrix(0.48 0 0 -10.08 507.708 64.33203)"><g transform="matrix(1 0 0 1 0 0)"><image x="0" y="0" xlink:href="img_01.png" width="1" height="1" /></g></g><g transform="matrix(143.4 0 0 -0.48 364.788 64.81195)"><g transform="matrix(1 0 0 1 0 0)"><image x="0" y="0" xlink:href="img_01.png" width="1" height="1" /></g></g><g transform="matrix(0.48 0 0 -10.08 364.788 74.77203)"><g transform="matrix(1 0 0 1 0 0)"><image x="0" y="0" xlink:href="img_01.png" width="1" height="1" /></g></g><g transform="matrix(0.48 0 0 -10.08 394.308 74.77203)"><g transform="matrix(1 0 0 1 0 0)"><image x="0" y="0" xlink:href="img_01.png" width="1" height="1" /></g></g><g transform="matrix(0.48 0 0 -10.08 396.708 74.77203)"><g transform="matrix(1 0 0 1 0 0)"><image x="0" y="0" xlink:href="img_01.png" width="1" height="1" /></g></g><g transform="matrix(0.48 0 0 -10.08 507.708 74.77203)"><g transform="matrix(1 0 0 1 0 0)"><image x="0" y="0" xlink:href="img_01.png" width="1" height="1" /></g></g><g transform="matrix(0.48 0 0 -10.08 364.788 84.73199)"><g transform="matrix(1 0 0 1 0 0)"><image x="0" y="0" xlink:href="img_01.png" width="1" height="1" /></g></g><g transform="matrix(0.48 0 0 -10.08 394.308 84.73199)"><g transform="matrix(1 0 0 1 0 0)"><image x="0" y="0" xlink:href="img_01.png" width="1" height="1" /></g></g><g transform="matrix(0.48 0 0 -10.08 396.708 84.73199)"><g transform="matrix(1 0 0 1 0 0)"><image x="0" y="0" xlink:href="img_01.png" width="1" height="1" /></g></g><g transform="matrix(0.48 0 0 -10.08 507.708 84.73199)"><g transform="matrix(1 0 0 1 0 0)"><image x="0" y="0" xlink:href="img_01.png" width="1" height="1" /></g></g><g transform="matrix(143.4 0 0 -0.48 364.788 85.09198)"><g transform="matrix(1 0 0 1 0 0)"><image x="0" y="0" xlink:href="img_01.png" width="1" height="1" /></g></g><g transform="matrix(59.88 0 0 -0.48 314.988 691.572)"><g transform="matrix(1 0 0 1 0 0)"><image x="0" y="0" xlink:href="img_01.png" width="1" height="1" /></g></g></g></g></g></svg>