<svg xmlns="http://www.w3.org/2000/svg" xmlns:xlink="http://www.w3.org/1999/xlink" id="body_2" preserveAspectRatio="xMinYMin meet" viewBox="0 0 816 1056"><defs><clipPath id="1"><path id="" clip-rule="evenodd" transform="matrix(1 0 0 1 0 0)" d="M0 792L0 0L0 0L612 0L612 0L612 792L612 792L0 792z" /></clipPath><clipPath id="2"><path id="" clip-rule="evenodd" transform="matrix(1 0 0 1 0 0)" d="M0 792L612 792L612 792L612 0L612 0L0 0z" /></clipPath></defs><g transform="matrix(1.333333 0 0 1.333333 0 0)"><g clip-path="url(#1)"><g clip-path="url(#2)"><g transform="matrix(219.72 0 0 -0.48 65.62801 54.37195)"><g transform="matrix(1 0 0 1 0 0)"><image x="0" y="0" xlink:href="img_01.png" width="1" height="1" /></g></g><g transform="matrix(0.48 0 0 -10.08 65.62801 64.33203)"><g transform="matrix(1 0 0 1 0 0)"><image x="0" y="0" xlink:href="img_01.png" width="1" height="1" /></g></g><g transform="matrix(0.48 0 0 -10.08 284.988 64.33203)"><g transform="matrix(1 0 0 1 0 0)"><image x="0" y="0" xlink:href="img_01.png" width="1" height="1" /></g></g><g transform="matrix(0.48 0 0 -10.08 65.62801 74.29205)"><g transform="matrix(1 0 0 1 0 0)"><image x="0" y="0" xlink:href="img_01.png" width="1" height="1" /></g></g><g transform="matrix(0.48 0 0 -10.08 284.988 74.29205)"><g transform="matrix(1 0 0 1 0 0)"><image x="0" y="0" xlink:href="img_01.png" width="1" height="1" /></g></g><g transform="matrix(0.48 0 0 -10.08 65.62801 84.25201)"><g transform="matrix(1 0 0 1 0 0)"><image x="0" y="0" xlink:href="img_01.png" width="1" height="1" /></g></g><g transform="matrix(0.48 0 0 -10.08 284.988 84.25201)"><g transform="matrix(1 0 0 1 0 0)"><image x="0" y="0" xlink:href="img_01.png" width="1" height="1" /></g></g><g transform="matrix(219.72 0 0 -0.48 65.62801 84.73199)"><g transform="matrix(1 0 0 1 0 0)"><image x="0" y="0" xlink:href="img_01.png" width="1" height="1" /></g></g><g transform="matrix(59.88 0 0 -0.48 53.988 691.572)"><g transform="matrix(1 0 0 1 0 0)"><image x="0" y="0" xlink:href="img_01.png" width="1" height="1" /></g></g><g transform="matrix(170.64 0 0 -0.48 351.228 54.37195)"><g transform="matrix(1 0 0 1 0 0)"><image x="0" y="0" xlink:href="img_01.png" width="1" height="1" /></g></g><g transform="matrix(0.48 0 0 -10.08 351.228 64.33203)"><g transform="matrix(1 0 0 1 0 0)"><image x="0" y="0" xlink:href="img_01.png" width="1" height="1" /></g></g><g transform="matrix(0.48 0 0 -10.08 377.508 64.33203)"><g transform="matrix(1 0 0 1 0 0)"><image x="0" y="0" xlink:href="img_01.png" width="1" height="1" /></g></g><g transform="matrix(0.48 0 0 -10.08 521.388 64.33203)"><g transform="matrix(1 0 0 1 0 0)"><image x="0" y="0" xlink:href="img_01.png" width="1" height="1" /></g></g><g transform="matrix(170.64 0 0 -0.48 351.228 64.81195)"><g transform="matrix(1 0 0 1 0 0)"><image x="0" y="0" xlink:href="img_01.png" width="1" height="1" /></g></g><g transform="matrix(0.48 0 0 -10.08 351.228 74.77203)"><g transform="matrix(1 0 0 1 0 0)"><image x="0" y="0" xlink:href="img_01.png" width="1" height="1" /></g></g><g transform="matrix(0.48 0 0 -10.08 377.508 74.77203)"><g transform="matrix(1 0 0 1 0 0)"><image x="0" y="0" xlink:href="img_01.png" width="1" height="1" /></g></g><g transform="matrix(0.48 0 0 -10.08 521.388 74.77203)"><g transform="matrix(1 0 0 1 0 0)"><image x="0" y="0" xlink:href="img_01.png" width="1" height="1" /></g></g><g transform="matrix(0.48 0 0 -10.08 351.228 84.73199)"><g transform="matrix(1 0 0 1 0 0)"><image x="0" y="0" xlink:href="img_01.png" width="1" height="1" /></g></g><g transform="matrix(0.48 0 0 -10.08 377.508 84.73199)"><g transform="matrix(1 0 0 1 0 0)"><image x="0" y="0" xlink:href="img_01.png" width="1" height="1" /></g></g><g transform="matrix(0.48 0 0 -10.08 521.388 84.73199)"><g transform="matrix(1 0 0 1 0 0)"><image x="0" y="0" xlink:href="img_01.png" width="1" height="1" /></g></g><g transform="matrix(0.48 0 0 -10.08 351.228 94.69202)"><g transform="matrix(1 0 0 1 0 0)"><image x="0" y="0" xlink:href="img_01.png" width="1" height="1" /></g></g><g transform="matrix(0.48 0 0 -10.08 377.508 94.69202)"><g transform="matrix(1 0 0 1 0 0)"><image x="0" y="0" xlink:href="img_01.png" width="1" height="1" /></g></g><g transform="matrix(0.48 0 0 -10.08 521.388 94.69202)"><g transform="matrix(1 0 0 1 0 0)"><image x="0" y="0" xlink:href="img_01.png" width="1" height="1" /></g></g><g transform="matrix(170.64 0 0 -0.48 351.228 95.052)"><g transform="matrix(1 0 0 1 0 0)"><image x="0" y="0" xlink:href="img_01.png" width="1" height="1" /></g></g><g transform="matrix(59.88 0 0 -0.48 314.988 640.812)"><g transform="matrix(1 0 0 1 0 0)"><image x="0" y="0" xlink:href="img_01.png" width="1" height="1" /></g></g></g></g></g></svg>