<svg xmlns="http://www.w3.org/2000/svg" xmlns:xlink="http://www.w3.org/1999/xlink" id="body_3" preserveAspectRatio="xMinYMin meet" viewBox="0 0 816 1056"><defs><clipPath id="1"><path id="" clip-rule="evenodd" transform="matrix(1 0 0 1 0 0)" d="M0 792L0 0L0 0L612 0L612 0L612 792L612 792L0 792z" /></clipPath><clipPath id="2"><path id="" clip-rule="evenodd" transform="matrix(1 0 0 1 0 0)" d="M0 792L612 792L612 792L612 0L612 0L0 0z" /></clipPath></defs><g transform="matrix(1.333333 0 0 1.333333 0 0)"><g clip-path="url(#1)"><g clip-path="url(#2)"><g transform="matrix(0.48 0 0 -10.08 114.708 63.97198)"><g transform="matrix(1 0 0 1 0 0)"><image x="0" y="0" xlink:href="img_01.png" width="1" height="1" /></g></g><g transform="matrix(447.36 0 0 -0.48 82.308 64.33197)"><g transform="matrix(1 0 0 1 0 0)"><image x="0" y="0" xlink:href="img_01.png" width="1" height="1" /></g></g><g transform="matrix(0.48 0 0 -20.04 114.708 84.25201)"><g transform="matrix(1 0 0 1 0 0)"><image x="0" y="0" xlink:href="img_01.png" width="1" height="1" /></g></g><g transform="matrix(447.36 0 0 -0.48 82.308 84.73199)"><g transform="matrix(1 0 0 1 0 0)"><image x="0" y="0" xlink:href="img_01.png" width="1" height="1" /></g></g><g transform="matrix(0.48 0 0 -20.04 114.708 104.652)"><g transform="matrix(1 0 0 1 0 0)"><image x="0" y="0" xlink:href="img_01.png" width="1" height="1" /></g></g><g transform="matrix(447.36 0 0 -0.48 82.308 105.012)"><g transform="matrix(1 0 0 1 0 0)"><image x="0" y="0" xlink:href="img_01.png" width="1" height="1" /></g></g><g transform="matrix(0.48 0 0 -20.04 114.708 124.9319)"><g transform="matrix(1 0 0 1 0 0)"><image x="0" y="0" xlink:href="img_01.png" width="1" height="1" /></g></g><g transform="matrix(447.36 0 0 -0.48 82.308 125.292)"><g transform="matrix(1 0 0 1 0 0)"><image x="0" y="0" xlink:href="img_01.png" width="1" height="1" /></g></g><g transform="matrix(0.48 0 0 -20.04 114.708 145.212)"><g transform="matrix(1 0 0 1 0 0)"><image x="0" y="0" xlink:href="img_01.png" width="1" height="1" /></g></g><g transform="matrix(447.36 0 0 -0.48 82.308 145.692)"><g transform="matrix(1 0 0 1 0 0)"><image x="0" y="0" xlink:href="img_01.png" width="1" height="1" /></g></g><g transform="matrix(0.48 0 0 -20.04 114.708 165.612)"><g transform="matrix(1 0 0 1 0 0)"><image x="0" y="0" xlink:href="img_01.png" width="1" height="1" /></g></g><g transform="matrix(447.36 0 0 -0.48 82.308 165.972)"><g transform="matrix(1 0 0 1 0 0)"><image x="0" y="0" xlink:href="img_01.png" width="1" height="1" /></g></g><g transform="matrix(0.48 0 0 -20.04 114.708 185.892)"><g transform="matrix(1 0 0 1 0 0)"><image x="0" y="0" xlink:href="img_01.png" width="1" height="1" /></g></g><g transform="matrix(504 0 0 -0.48 53.988 217.452)"><g transform="matrix(1 0 0 1 0 0)"><image x="0" y="0" xlink:href="img_01.png" width="1" height="1" /></g></g><g transform="matrix(0.48 0 0 -10.08 53.988 227.412)"><g transform="matrix(1 0 0 1 0 0)"><image x="0" y="0" xlink:href="img_01.png" width="1" height="1" /></g></g><g transform="matrix(0.48 0 0 -10.08 137.988 227.412)"><g transform="matrix(1 0 0 1 0 0)"><image x="0" y="0" xlink:href="img_01.png" width="1" height="1" /></g></g><g transform="matrix(0.48 0 0 -10.08 213.348 227.412)"><g transform="matrix(1 0 0 1 0 0)"><image x="0" y="0" xlink:href="img_01.png" width="1" height="1" /></g></g><g transform="matrix(0.48 0 0 -10.08 275.268 227.412)"><g transform="matrix(1 0 0 1 0 0)"><image x="0" y="0" xlink:href="img_01.png" width="1" height="1" /></g></g><g transform="matrix(0.48 0 0 -10.08 557.628 227.412)"><g transform="matrix(1 0 0 1 0 0)"><image x="0" y="0" xlink:href="img_01.png" width="1" height="1" /></g></g><g transform="matrix(504 0 0 -0.48 53.988 227.892)"><g transform="matrix(1 0 0 1 0 0)"><image x="0" y="0" xlink:href="img_01.png" width="1" height="1" /></g></g><g transform="matrix(0.48 0 0 -10.08 53.988 237.8521)"><g transform="matrix(1 0 0 1 0 0)"><image x="0" y="0" xlink:href="img_01.png" width="1" height="1" /></g></g><g transform="matrix(0.48 0 0 -10.08 137.988 237.8521)"><g transform="matrix(1 0 0 1 0 0)"><image x="0" y="0" xlink:href="img_01.png" width="1" height="1" /></g></g><g transform="matrix(0.48 0 0 -10.08 213.348 237.8521)"><g transform="matrix(1 0 0 1 0 0)"><image x="0" y="0" xlink:href="img_01.png" width="1" height="1" /></g></g><g transform="matrix(0.48 0 0 -10.08 275.268 237.8521)"><g transform="matrix(1 0 0 1 0 0)"><image x="0" y="0" xlink:href="img_01.png" width="1" height="1" /></g></g><g transform="matrix(0.48 0 0 -10.08 557.628 237.8521)"><g transform="matrix(1 0 0 1 0 0)"><image x="0" y="0" xlink:href="img_01.png" width="1" height="1" /></g></g><g transform="matrix(504 0 0 -0.48 53.988 238.212)"><g transform="matrix(1 0 0 1 0 0)"><image x="0" y="0" xlink:href="img_01.png" width="1" height="1" /></g></g><g transform="matrix(0.48 0 0 -10.08 53.988 248.172)"><g transform="matrix(1 0 0 1 0 0)"><image x="0" y="0" xlink:href="img_01.png" width="1" height="1" /></g></g><g transform="matrix(0.48 0 0 -10.08 137.988 248.172)"><g transform="matrix(1 0 0 1 0 0)"><image x="0" y="0" xlink:href="img_01.png" width="1" height="1" /></g></g><g transform="matrix(0.48 0 0 -10.08 213.348 248.172)"><g transform="matrix(1 0 0 1 0 0)"><image x="0" y="0" xlink:href="img_01.png" width="1" height="1" /></g></g><g transform="matrix(0.48 0 0 -10.08 275.268 248.172)"><g transform="matrix(1 0 0 1 0 0)"><image x="0" y="0" xlink:href="img_01.png" width="1" height="1" /></g></g><g transform="matrix(0.48 0 0 -10.08 557.628 248.172)"><g transform="matrix(1 0 0 1 0 0)"><image x="0" y="0" xlink:href="img_01.png" width="1" height="1" /></g></g><g transform="matrix(504 0 0 -0.48 53.988 248.532)"><g transform="matrix(1 0 0 1 0 0)"><image x="0" y="0" xlink:href="img_01.png" width="1" height="1" /></g></g><g transform="matrix(0.48 0 0 -10.08 53.988 258.612)"><g transform="matrix(1 0 0 1 0 0)"><image x="0" y="0" xlink:href="img_01.png" width="1" height="1" /></g></g><g transform="matrix(0.48 0 0 -10.08 137.988 258.612)"><g transform="matrix(1 0 0 1 0 0)"><image x="0" y="0" xlink:href="img_01.png" width="1" height="1" /></g></g><g transform="matrix(0.48 0 0 -10.08 213.348 258.612)"><g transform="matrix(1 0 0 1 0 0)"><image x="0" y="0" xlink:href="img_01.png" width="1" height="1" /></g></g><g transform="matrix(0.48 0 0 -10.08 275.268 258.612)"><g transform="matrix(1 0 0 1 0 0)"><image x="0" y="0" xlink:href="img_01.png" width="1" height="1" /></g></g><g transform="matrix(0.48 0 0 -10.08 557.628 258.612)"><g transform="matrix(1 0 0 1 0 0)"><image x="0" y="0" xlink:href="img_01.png" width="1" height="1" /></g></g><g transform="matrix(504 0 0 -0.48 53.988 258.972)"><g transform="matrix(1 0 0 1 0 0)"><image x="0" y="0" xlink:href="img_01.png" width="1" height="1" /></g></g><g transform="matrix(0.48 0 0 -10.08 53.988 268.932)"><g transform="matrix(1 0 0 1 0 0)"><image x="0" y="0" xlink:href="img_01.png" width="1" height="1" /></g></g><g transform="matrix(0.48 0 0 -10.08 137.988 268.932)"><g transform="matrix(1 0 0 1 0 0)"><image x="0" y="0" xlink:href="img_01.png" width="1" height="1" /></g></g><g transform="matrix(0.48 0 0 -10.08 213.348 268.932)"><g transform="matrix(1 0 0 1 0 0)"><image x="0" y="0" xlink:href="img_01.png" width="1" height="1" /></g></g><g transform="matrix(0.48 0 0 -10.08 275.268 268.932)"><g transform="matrix(1 0 0 1 0 0)"><image x="0" y="0" xlink:href="img_01.png" width="1" height="1" /></g></g><g transform="matrix(0.48 0 0 -10.08 557.628 268.932)"><g transform="matrix(1 0 0 1 0 0)"><image x="0" y="0" xlink:href="img_01.png" width="1" height="1" /></g></g><g transform="matrix(504 0 0 -0.48 53.988 269.292)"><g transform="matrix(1 0 0 1 0 0)"><image x="0" y="0" xlink:href="img_01.png" width="1" height="1" /></g></g><g transform="matrix(0.48 0 0 -10.08 53.988 279.252)"><g transform="matrix(1 0 0 1 0 0)"><image x="0" y="0" xlink:href="img_01.png" width="1" height="1" /></g></g><g transform="matrix(0.48 0 0 -10.08 137.988 279.252)"><g transform="matrix(1 0 0 1 0 0)"><image x="0" y="0" xlink:href="img_01.png" width="1" height="1" /></g></g><g transform="matrix(0.48 0 0 -10.08 213.348 279.252)"><g transform="matrix(1 0 0 1 0 0)"><image x="0" y="0" xlink:href="img_01.png" width="1" height="1" /></g></g><g transform="matrix(0.48 0 0 -10.08 275.268 279.252)"><g transform="matrix(1 0 0 1 0 0)"><image x="0" y="0" xlink:href="img_01.png" width="1" height="1" /></g></g><g transform="matrix(0.48 0 0 -10.08 557.628 279.252)"><g transform="matrix(1 0 0 1 0 0)"><image x="0" y="0" xlink:href="img_01.png" width="1" height="1" /></g></g><g transform="matrix(504 0 0 -0.48 53.988 279.732)"><g transform="matrix(1 0 0 1 0 0)"><image x="0" y="0" xlink:href="img_01.png" width="1" height="1" /></g></g><g transform="matrix(0.48 0 0 -10.08 53.988 289.692)"><g transform="matrix(1 0 0 1 0 0)"><image x="0" y="0" xlink:href="img_01.png" width="1" height="1" /></g></g><g transform="matrix(0.48 0 0 -10.08 137.988 289.692)"><g transform="matrix(1 0 0 1 0 0)"><image x="0" y="0" xlink:href="img_01.png" width="1" height="1" /></g></g><g transform="matrix(0.48 0 0 -10.08 213.348 289.692)"><g transform="matrix(1 0 0 1 0 0)"><image x="0" y="0" xlink:href="img_01.png" width="1" height="1" /></g></g><g transform="matrix(0.48 0 0 -10.08 275.268 289.692)"><g transform="matrix(1 0 0 1 0 0)"><image x="0" y="0" xlink:href="img_01.png" width="1" height="1" /></g></g><g transform="matrix(0.48 0 0 -10.08 557.628 289.692)"><g transform="matrix(1 0 0 1 0 0)"><image x="0" y="0" xlink:href="img_01.png" width="1" height="1" /></g></g><g transform="matrix(504 0 0 -0.48 53.988 290.052)"><g transform="matrix(1 0 0 1 0 0)"><image x="0" y="0" xlink:href="img_01.png" width="1" height="1" /></g></g><g transform="matrix(0.48 0 0 -10.08 53.988 300.012)"><g transform="matrix(1 0 0 1 0 0)"><image x="0" y="0" xlink:href="img_01.png" width="1" height="1" /></g></g><g transform="matrix(0.48 0 0 -10.08 137.988 300.012)"><g transform="matrix(1 0 0 1 0 0)"><image x="0" y="0" xlink:href="img_01.png" width="1" height="1" /></g></g><g transform="matrix(0.48 0 0 -10.08 213.348 300.012)"><g transform="matrix(1 0 0 1 0 0)"><image x="0" y="0" xlink:href="img_01.png" width="1" height="1" /></g></g><g transform="matrix(0.48 0 0 -10.08 275.268 300.012)"><g transform="matrix(1 0 0 1 0 0)"><image x="0" y="0" xlink:href="img_01.png" width="1" height="1" /></g></g><g transform="matrix(0.48 0 0 -10.08 557.628 300.012)"><g transform="matrix(1 0 0 1 0 0)"><image x="0" y="0" xlink:href="img_01.png" width="1" height="1" /></g></g><g transform="matrix(504 0 0 -0.48 53.988 300.372)"><g transform="matrix(1 0 0 1 0 0)"><image x="0" y="0" xlink:href="img_01.png" width="1" height="1" /></g></g><g transform="matrix(3 0 0 -0.48 69.588 439.452)"><g transform="matrix(1 0 0 1 0 0)"><image x="0" y="0" xlink:href="img_01.png" width="1" height="1" /></g></g><g transform="matrix(3 0 0 -0.48 147.708 439.452)"><g transform="matrix(1 0 0 1 0 0)"><image x="0" y="0" xlink:href="img_01.png" width="1" height="1" /></g></g><g transform="matrix(3 0 0 -0.48 153.468 450.492)"><g transform="matrix(1 0 0 1 0 0)"><image x="0" y="0" xlink:href="img_01.png" width="1" height="1" /></g></g><g transform="matrix(3 0 0 -0.48 164.148 472.332)"><g transform="matrix(1 0 0 1 0 0)"><image x="0" y="0" xlink:href="img_01.png" width="1" height="1" /></g></g><g transform="matrix(3 0 0 -0.48 88.188 538.092)"><g transform="matrix(1 0 0 1 0 0)"><image x="0" y="0" xlink:href="img_01.png" width="1" height="1" /></g></g><g transform="matrix(59.76 0 0 -0.48 466.068 662.892)"><g transform="matrix(1 0 0 1 0 0)"><image x="0" y="0" xlink:href="img_01.png" width="1" height="1" /></g></g></g></g></g></svg>