<svg xmlns="http://www.w3.org/2000/svg" xmlns:xlink="http://www.w3.org/1999/xlink" id="body_7" preserveAspectRatio="xMinYMin meet" viewBox="0 0 816 1056"><defs><clipPath id="1"><path id="" clip-rule="evenodd" transform="matrix(1 0 0 1 0 0)" d="M0 792L0 0L0 0L612 0L612 0L612 792L612 792L0 792z" /></clipPath><clipPath id="2"><path id="" clip-rule="evenodd" transform="matrix(1 0 0 1 0 0)" d="M0 792L612 792L612 792L612 0L612 0L0 0z" /></clipPath></defs><g transform="matrix(1.333333 0 0 1.333333 0 0)"><g clip-path="url(#1)"><g clip-path="url(#2)"><g transform="matrix(503.64 0 0 -0.48 54.228 54.37195)"><g transform="matrix(1 0 0 1 0 0)"><image x="0" y="0" xlink:href="img_01.png" width="1" height="1" /></g></g><g transform="matrix(0.48 0 0 -10.08 54.228 64.33203)"><g transform="matrix(1 0 0 1 0 0)"><image x="0" y="0" xlink:href="img_01.png" width="1" height="1" /></g></g><g transform="matrix(0.48 0 0 -10.08 83.868 64.33203)"><g transform="matrix(1 0 0 1 0 0)"><image x="0" y="0" xlink:href="img_01.png" width="1" height="1" /></g></g><g transform="matrix(0.48 0 0 -10.08 86.268 64.33203)"><g transform="matrix(1 0 0 1 0 0)"><image x="0" y="0" xlink:href="img_01.png" width="1" height="1" /></g></g><g transform="matrix(0.48 0 0 -10.08 321.828 64.33203)"><g transform="matrix(1 0 0 1 0 0)"><image x="0" y="0" xlink:href="img_01.png" width="1" height="1" /></g></g><g transform="matrix(0.48 0 0 -10.08 557.388 64.33203)"><g transform="matrix(1 0 0 1 0 0)"><image x="0" y="0" xlink:href="img_01.png" width="1" height="1" /></g></g><g transform="matrix(503.64 0 0 -0.48 54.228 64.81195)"><g transform="matrix(1 0 0 1 0 0)"><image x="0" y="0" xlink:href="img_01.png" width="1" height="1" /></g></g><g transform="matrix(0.48 0 0 -10.08 54.228 74.77203)"><g transform="matrix(1 0 0 1 0 0)"><image x="0" y="0" xlink:href="img_01.png" width="1" height="1" /></g></g><g transform="matrix(0.48 0 0 -10.08 83.868 74.77203)"><g transform="matrix(1 0 0 1 0 0)"><image x="0" y="0" xlink:href="img_01.png" width="1" height="1" /></g></g><g transform="matrix(0.48 0 0 -10.08 86.268 74.77203)"><g transform="matrix(1 0 0 1 0 0)"><image x="0" y="0" xlink:href="img_01.png" width="1" height="1" /></g></g><g transform="matrix(0.48 0 0 -10.08 321.828 74.77203)"><g transform="matrix(1 0 0 1 0 0)"><image x="0" y="0" xlink:href="img_01.png" width="1" height="1" /></g></g><g transform="matrix(0.48 0 0 -10.08 557.388 74.77203)"><g transform="matrix(1 0 0 1 0 0)"><image x="0" y="0" xlink:href="img_01.png" width="1" height="1" /></g></g><g transform="matrix(0.48 0 0 -10.08 54.228 84.73199)"><g transform="matrix(1 0 0 1 0 0)"><image x="0" y="0" xlink:href="img_01.png" width="1" height="1" /></g></g><g transform="matrix(0.48 0 0 -10.08 83.868 84.73199)"><g transform="matrix(1 0 0 1 0 0)"><image x="0" y="0" xlink:href="img_01.png" width="1" height="1" /></g></g><g transform="matrix(0.48 0 0 -10.08 86.268 84.73199)"><g transform="matrix(1 0 0 1 0 0)"><image x="0" y="0" xlink:href="img_01.png" width="1" height="1" /></g></g><g transform="matrix(0.48 0 0 -10.08 321.828 84.73199)"><g transform="matrix(1 0 0 1 0 0)"><image x="0" y="0" xlink:href="img_01.png" width="1" height="1" /></g></g><g transform="matrix(0.48 0 0 -10.08 557.388 84.73199)"><g transform="matrix(1 0 0 1 0 0)"><image x="0" y="0" xlink:href="img_01.png" width="1" height="1" /></g></g><g transform="matrix(0.48 0 0 -10.08 54.228 94.69202)"><g transform="matrix(1 0 0 1 0 0)"><image x="0" y="0" xlink:href="img_01.png" width="1" height="1" /></g></g><g transform="matrix(0.48 0 0 -10.08 83.868 94.69202)"><g transform="matrix(1 0 0 1 0 0)"><image x="0" y="0" xlink:href="img_01.png" width="1" height="1" /></g></g><g transform="matrix(0.48 0 0 -10.08 86.268 94.69202)"><g transform="matrix(1 0 0 1 0 0)"><image x="0" y="0" xlink:href="img_01.png" width="1" height="1" /></g></g><g transform="matrix(0.48 0 0 -10.08 321.828 94.69202)"><g transform="matrix(1 0 0 1 0 0)"><image x="0" y="0" xlink:href="img_01.png" width="1" height="1" /></g></g><g transform="matrix(0.48 0 0 -10.08 557.388 94.69202)"><g transform="matrix(1 0 0 1 0 0)"><image x="0" y="0" xlink:href="img_01.png" width="1" height="1" /></g></g><g transform="matrix(0.48 0 0 -10.08 54.228 104.652)"><g transform="matrix(1 0 0 1 0 0)"><image x="0" y="0" xlink:href="img_01.png" width="1" height="1" /></g></g><g transform="matrix(0.48 0 0 -10.08 83.868 104.652)"><g transform="matrix(1 0 0 1 0 0)"><image x="0" y="0" xlink:href="img_01.png" width="1" height="1" /></g></g><g transform="matrix(0.48 0 0 -10.08 86.268 104.652)"><g transform="matrix(1 0 0 1 0 0)"><image x="0" y="0" xlink:href="img_01.png" width="1" height="1" /></g></g><g transform="matrix(0.48 0 0 -10.08 321.828 104.652)"><g transform="matrix(1 0 0 1 0 0)"><image x="0" y="0" xlink:href="img_01.png" width="1" height="1" /></g></g><g transform="matrix(0.48 0 0 -10.08 557.388 104.652)"><g transform="matrix(1 0 0 1 0 0)"><image x="0" y="0" xlink:href="img_01.png" width="1" height="1" /></g></g><g transform="matrix(0.48 0 0 -10.08 54.228 114.612)"><g transform="matrix(1 0 0 1 0 0)"><image x="0" y="0" xlink:href="img_01.png" width="1" height="1" /></g></g><g transform="matrix(0.48 0 0 -10.08 83.868 114.612)"><g transform="matrix(1 0 0 1 0 0)"><image x="0" y="0" xlink:href="img_01.png" width="1" height="1" /></g></g><g transform="matrix(0.48 0 0 -10.08 86.268 114.612)"><g transform="matrix(1 0 0 1 0 0)"><image x="0" y="0" xlink:href="img_01.png" width="1" height="1" /></g></g><g transform="matrix(0.48 0 0 -10.08 321.828 114.612)"><g transform="matrix(1 0 0 1 0 0)"><image x="0" y="0" xlink:href="img_01.png" width="1" height="1" /></g></g><g transform="matrix(0.48 0 0 -10.08 557.388 114.612)"><g transform="matrix(1 0 0 1 0 0)"><image x="0" y="0" xlink:href="img_01.png" width="1" height="1" /></g></g><g transform="matrix(503.64 0 0 -0.48 54.228 114.972)"><g transform="matrix(1 0 0 1 0 0)"><image x="0" y="0" xlink:href="img_01.png" width="1" height="1" /></g></g></g></g></g></svg>