<svg xmlns="http://www.w3.org/2000/svg" xmlns:xlink="http://www.w3.org/1999/xlink" id="body_1" preserveAspectRatio="xMinYMin meet" viewBox="0 0 816 1056"><defs><clipPath id="1"><path id="" clip-rule="evenodd" transform="matrix(1 0 0 1 0 0)" d="M0 792L0 0L0 0L612 0L612 0L612 792L612 792L0 792z" /></clipPath></defs><g transform="matrix(1.333333 0 0 1.333333 0 0)"><g clip-path="url(#1)"><path id="3886" transform="matrix(1 0 0 -1 0 792)" d="M30.71094 237.6934C 31.42057 236.7754 31.83073 236.1992 31.94141 235.9648C 32.10417 235.6133 32.18555 235.2389 32.18555 234.8418C 32.18555 233.6048 31.26107 232.7129 29.88086 232.7129C 29.44466 232.7129 29.06706 232.8105 28.74805 233.0059C 27.86263 233.5397 27.19206 234.6204 26.07227 237.6934L26.07227 237.6934L25.7207 237.6934C 23.93685 237.6934 23.38672 237.1139 23.38672 236.0332C 23.38672 235.623 23.49739 235.2975 23.71875 235.0566C 23.94011 234.8092 24.19401 234.6855 24.48047 234.6855L24.48047 234.6855L25.04688 234.7051C 25.64583 234.7051 25.98438 234.3698 25.98438 233.875C 25.98438 233.3932 25.62305 233.0547 25.03711 233.0547C 23.91732 233.0547 22.79102 234.2559 22.79102 236.3262C 22.79102 237.1204 22.92448 237.7715 23.19141 238.2793C 23.39323 238.6634 23.70898 238.9466 24.13867 239.1289C 24.41862 239.2461 24.99154 239.3047 25.85742 239.3047L25.85742 239.3047L28.89453 239.3047C 29.7474 239.3047 30.26986 239.321 30.46191 239.3535C 30.65397 239.3861 30.78255 239.4398 30.84766 239.5146C 30.91276 239.5895 30.94531 239.6758 30.94531 239.7734C 30.94531 239.8776 30.92253 239.9688 30.87695 240.0469C 30.79232 240.1836 30.55469 240.4473 30.16406 240.8379L30.16406 240.8379L30.71094 240.8379C 31.6875 240.1087 32.17578 239.4121 32.17578 238.748C 32.17578 238.11 31.77865 237.7064 30.71094 237.6934zM30.07617 237.6934L26.66797 237.6934C 27.05859 236.7103 27.33529 236.0755 27.49805 235.7891C 28.07096 234.7604 28.67969 234.3535 29.42188 234.3535C 30.35938 234.3535 31.05273 235.0111 31.05273 235.7402C 31.05273 236.235 30.72721 236.8861 30.07617 237.6934z" stroke="none" fill="#808080" fill-rule="evenodd" /><path id="3887" transform="matrix(1 0 0 -1 0 792)" d="M22.79102 244.1222L24.80273 244.1222C 23.46159 244.8709 22.79102 245.6391 22.79102 246.4269C 22.79102 247.143 23.30208 247.6671 23.875 247.6671C 24.38281 247.6671 24.7832 247.2765 24.7832 246.8077C 24.7832 246.352 24.10938 245.6847 24.10938 245.4113C 24.10938 245.2941 24.17448 245.1671 24.30469 245.0304C 24.57162 244.7374 25.01107 244.4347 25.62305 244.1222L25.62305 244.1222L29.91016 244.1222C 30.40495 244.1222 30.7793 244.184 31.0332 244.3077C 31.38477 244.477 31.64844 244.8774 31.64844 245.6847L31.64844 245.6847L32 245.6847L32 245.6847L32 241.1046L32 241.1046L31.64844 241.1046C 31.64844 241.5603 31.57682 241.8989 31.43359 242.1202C 31.32943 242.283 31.16341 242.3969 30.93555 242.462C 30.82487 242.4946 30.50912 242.5109 29.98828 242.5109L29.98828 242.5109L26.52148 242.5109C 25.47982 242.5109 24.8597 242.4897 24.66113 242.4474C 24.46256 242.4051 24.31771 242.3269 24.22656 242.213C 24.13542 242.0991 24.08984 241.9575 24.08984 241.7882C 24.08984 241.5864 24.13867 241.3585 24.23633 241.1046L24.23633 241.1046L23.88477 241.007L23.88477 241.007L22.79102 243.712z" stroke="none" fill="#808080" fill-rule="evenodd" /><path id="3888" transform="matrix(1 0 0 -1 0 792)" d="M24.66602 255.7041L28.9043 258.5459C 31.24805 260.1214 31.57357 260.5771 31.63867 261.749L31.63867 261.749L32 261.749L32 261.749L32 256.0654L32 256.0654L31.63867 256.0654C 31.63216 256.443 31.5931 256.7229 31.52148 256.9052C 31.4043 257.1787 31.13412 257.374 30.88672 257.374C 30.73698 257.374 30.58724 257.3447 30.4375 257.2861C 30.32682 257.2405 30.04037 257.0615 29.57813 256.749L29.57813 256.749L26.17969 254.5029L26.17969 254.5029L29.73438 251.7295C 30.48958 251.1435 30.61328 251.1142 30.88672 251.1142C 31.30338 251.1142 31.59961 251.3942 31.63867 252.3838L31.63867 252.3838L32 252.3838L32 252.3838L32 247.6865L32 247.6865L31.63867 247.6865C 31.60612 248.0185 31.53776 248.305 31.43359 248.5459C 31.09505 249.3531 30.61654 250.0107 29.43164 250.9482L29.43164 250.9482L25.48633 254.0732L25.48633 254.0732L21.66797 251.4658C 19.59766 250.0465 19.1582 249.2392 19.11914 247.9501L19.11914 247.9501L18.75781 247.9501L18.75781 247.9501L18.75781 254.0732L18.75781 254.0732L19.11914 254.0732C 19.1582 253.0315 19.50651 252.7158 19.87109 252.7158C 20.11198 252.7158 20.46354 252.872 20.92578 253.1845L20.92578 253.1845L23.96289 255.2158L23.96289 255.2158L20.98438 257.5693C 20.28125 258.1162 20.13477 258.165 19.86133 258.165C 19.72461 258.165 19.60417 258.1259 19.5 258.0478C 19.22656 257.8525 19.13216 257.6865 19.11914 256.749L19.11914 256.749L18.75781 256.749L18.75781 256.749L18.75781 261.4463L18.75781 261.4463L19.11914 261.4463C 19.13867 261.0752 19.19727 260.7724 19.29492 260.5381C 19.5944 259.8349 19.93945 259.3987 21.30664 258.331z" stroke="none" fill="#808080" fill-rule="evenodd" /><path id="3889" transform="matrix(1 0 0 -1 0 792)" d="M18.11328 264.8804C 18.11328 265.4273 18.55273 265.8667 19.09961 265.8667C 19.64648 265.8667 20.0957 265.4273 20.0957 264.8804C 20.0957 264.3335 19.64648 263.8843 19.09961 263.8843C 18.55273 263.8843 18.11328 264.3205 18.11328 264.8804zM22.79102 265.6909L29.97852 265.6909C 30.53841 265.6909 30.91113 265.7316 31.09668 265.813C 31.28223 265.8944 31.42057 266.0148 31.51172 266.1743C 31.60287 266.3338 31.64844 266.6252 31.64844 267.0484L31.64844 267.0484L32 267.0484L32 267.0484L32 262.7027L32 262.7027L31.64844 262.7027C 31.64844 263.1389 31.60612 263.4318 31.52148 263.5816C 31.43685 263.7313 31.29688 263.8501 31.10156 263.938C 30.90625 264.0259 30.5319 264.0699 29.97852 264.0699L29.97852 264.0699L26.53125 264.0699C 25.5612 264.0699 24.93294 264.0406 24.64648 263.982C 24.22982 263.8908 24.08984 263.7053 24.08984 263.3667C 24.08984 263.1844 24.13867 262.9631 24.23633 262.7027L24.23633 262.7027L23.88477 262.5659L23.88477 262.5659L22.79102 265.2613z" stroke="none" fill="#808080" fill-rule="evenodd" /><path id="3890" transform="matrix(1 0 0 -1 0 792)" d="M23.05469 267.706L23.05469 271.915L23.05469 271.915L23.41602 271.915L23.41602 271.915L23.41602 271.6416C 23.41602 271.1338 23.68294 270.8603 24.09961 270.8603C 24.32747 270.8603 24.59766 270.9287 24.91016 271.0654L24.91016 271.0654L29.85156 273.1455L29.85156 273.1455L24.72461 275.2353C 24.36003 275.385 24.08333 275.4599 23.89453 275.4599C 23.80339 275.4599 23.72852 275.4339 23.66992 275.3818C 23.47461 275.2386 23.41602 275.1116 23.41602 274.4345L23.41602 274.4345L23.05469 274.4345L23.05469 274.4345L23.05469 277.3545L23.05469 277.3545L23.41602 277.3545C 23.44206 277.0159 23.51042 276.7815 23.62109 276.6513C 23.81641 276.4235 24.14193 276.2184 24.59766 276.0361L24.59766 276.0361L32.27344 272.8623L32.27344 272.8623L32.27344 272.4619L32.27344 272.4619L24.72461 269.2685C 24.02148 268.9821 23.79036 268.7639 23.58203 268.3603C 23.52344 268.2496 23.4681 268.0315 23.41602 267.706z" stroke="none" fill="#808080" fill-rule="evenodd" /><path id="3891" transform="matrix(1 0 0 -1 0 792)" d="M22.78125 280.3623C 22.78125 280.9612 23.26628 281.4463 23.86523 281.4463C 24.46419 281.4463 24.94922 280.9612 24.94922 280.3623C 24.94922 279.7633 24.46419 279.2783 23.86523 279.2783C 23.26628 279.2783 22.78125 279.7633 22.78125 280.3623zM30.0957 280.3427C 30.0957 280.9547 30.59049 281.4365 31.18945 281.4365C 31.78841 281.4365 32.27344 280.9417 32.27344 280.3427C 32.27344 279.7438 31.78841 279.2588 31.18945 279.2588C 30.59049 279.2588 30.0957 279.7438 30.0957 280.3427z" stroke="none" fill="#808080" fill-rule="evenodd" /><path id="3892" transform="matrix(1 0 0 -1 0 792)" d="M20.05664 285.4438L18.48438 288.6664L18.48438 288.6664L18.48438 288.9887L18.48438 288.9887L29.66602 288.9887C 30.4082 288.9887 30.87044 289.0196 31.05273 289.0815C 31.23503 289.1433 31.375 289.2719 31.47266 289.4672C 31.57031 289.6625 31.62565 290.0596 31.63867 290.6586L31.63867 290.6586L32 290.6586L32 290.6586L32 285.6781L32 285.6781L31.63867 285.6781C 31.62565 286.3031 31.57194 286.7068 31.47754 286.8891C 31.38314 287.0714 31.25619 287.1983 31.09668 287.2699C 30.93717 287.3415 30.46029 287.3773 29.66602 287.3773L29.66602 287.3773L22.51758 287.3773C 21.55404 287.3773 20.93555 287.3448 20.66211 287.2797C 20.24544 287.1885 20.05664 286.9346 20.05664 286.5961C 20.05664 286.3552 20.15755 286.0199 20.35938 285.5902z" stroke="none" fill="#808080" fill-rule="evenodd" /><path id="3893" transform="matrix(1 0 0 -1 0 792)" d="M18.75781 295.1117L18.75781 302.2113L18.75781 302.2113L19.12891 302.2113L19.12891 302.2113L32.27344 297.7973L32.27344 297.7973L32.27344 296.7035L32.27344 296.7035L20.34961 300.6586L20.34961 300.6586L20.34961 297.016C 20.34961 296.2803 20.4375 295.7563 20.61328 295.4438C 20.91276 294.8969 21.375 294.4574 22 294.1254L22 294.1254L21.89258 293.8422z" stroke="none" fill="#808080" fill-rule="evenodd" /><path id="3894" transform="matrix(1 0 0 -1 0 792)" d="M25.45703 303.8227C 22.4362 303.8227 20.18685 304.8123 19.11914 306.3227C 18.69596 306.9086 18.48438 307.5141 18.48438 308.1391C 18.48438 309.1547 19.00195 310.0662 20.03711 310.8734C 21.31966 311.8826 23.05794 312.3871 25.25195 312.3871C 26.78841 312.3871 28.09375 312.1658 29.16797 311.7231C 30.24219 311.2803 31.02181 310.7156 31.50684 310.0287C 31.99186 309.3419 32.23438 308.6794 32.23438 308.0414C 32.23438 306.7784 31.48893 305.727 29.99805 304.8871C 28.74154 304.1775 27.22787 303.8227 25.45703 303.8227zM25.70117 305.7367C 27.52409 305.7367 29.01172 305.9613 30.16406 306.4106C 31.13412 306.7816 31.61914 307.335 31.61914 308.0707C 31.61914 308.7738 31.04297 309.6332 29.55859 310.0238C 28.4388 310.3233 26.86003 310.4731 24.82227 310.4731C 23.31185 310.4731 22.05208 310.3168 21.04297 310.0043C 20.29427 309.7699 19.76367 309.4672 19.45117 309.0961C 19.23633 308.8292 19.12891 308.5069 19.12891 308.1293C 19.12891 307.6866 19.32747 307.2927 19.72461 306.9477C 20.80534 306.0102 23.44857 305.7367 25.70117 305.7367z" stroke="none" fill="#808080" fill-rule="evenodd" /><path id="3895" transform="matrix(1 0 0 -1 0 792)" d="M29.45117 322.2699L32 321.3422L32 321.3422L32 313.5297L32 313.5297L31.63867 313.5297C 27.44596 318.126 25.0599 319.7895 22.85938 319.7895C 21.17969 319.7895 19.97852 318.6046 19.97852 317.1723C 19.97852 315.8702 20.75325 314.7667 22.22461 314.2719L22.22461 314.2719L22.22461 313.9106C 19.81575 314.2361 18.48438 315.6716 18.48438 317.6898C 18.48438 319.8383 20.08594 321.4594 21.96094 321.4594C 22.63151 321.4594 23.30208 321.3031 23.97266 320.9906C 25.02734 320.5089 26.14388 319.7276 27.32227 318.6469C 29.0931 317.0258 30.16081 316.0134 30.52539 315.6098L30.52539 315.6098L30.52539 319.0668C 30.52539 319.7699 30.49935 320.2631 30.44727 320.5463C 30.39518 320.8295 30.28939 321.085 30.12988 321.3129C 29.97038 321.5408 29.74414 321.7393 29.45117 321.9086z" stroke="none" fill="#808080" fill-rule="evenodd" /><path id="3896" transform="matrix(1 0 0 -1 0 792)" d="M30.10547 325.6C 30.10547 326.212 30.59049 326.684 31.18945 326.684C 31.78841 326.684 32.27344 326.199 32.27344 325.6C 32.27344 325.001 31.78841 324.516 31.18945 324.516C 30.57747 324.516 30.10547 325.001 30.10547 325.6z" stroke="none" fill="#808080" fill-rule="evenodd" /><path id="3897" transform="matrix(1 0 0 -1 0 792)" d="M25.45703 328.8227C 22.4362 328.8227 20.18685 329.8123 19.11914 331.3227C 18.69596 331.9086 18.48438 332.5141 18.48438 333.1391C 18.48438 334.1547 19.00195 335.0662 20.03711 335.8734C 21.31966 336.8826 23.05794 337.3871 25.25195 337.3871C 26.78841 337.3871 28.09375 337.1658 29.16797 336.7231C 30.24219 336.2803 31.02181 335.7156 31.50684 335.0287C 31.99186 334.3419 32.23438 333.6794 32.23438 333.0414C 32.23438 331.7784 31.48893 330.727 29.99805 329.8871C 28.74154 329.1775 27.22787 328.8227 25.45703 328.8227zM25.70117 330.7367C 27.52409 330.7367 29.01172 330.9613 30.16406 331.4106C 31.13412 331.7816 31.61914 332.335 31.61914 333.0707C 31.61914 333.7738 31.04297 334.6332 29.55859 335.0238C 28.4388 335.3233 26.86003 335.4731 24.82227 335.4731C 23.31185 335.4731 22.05208 335.3168 21.04297 335.0043C 20.29427 334.7699 19.76367 334.4672 19.45117 334.0961C 19.23633 333.8292 19.12891 333.5069 19.12891 333.1293C 19.12891 332.6866 19.32747 332.2927 19.72461 331.9477C 20.80534 331.0102 23.44857 330.7367 25.70117 330.7367z" stroke="none" fill="#808080" fill-rule="evenodd" /><path id="3898" transform="matrix(1 0 0 -1 0 792)" d="M25.33008 341.9379C 23.61133 339.8416 22.75846 339.4574 21.63867 339.4574C 19.91992 339.4574 18.48438 340.8995 18.48438 343.1C 18.48438 345.2354 19.85156 346.6547 21.33594 346.6547C 22.32552 346.6547 23.27279 346.1566 24.66602 343.9301C 25.55143 345.0759 26.24805 345.8344 26.75586 346.2055C 27.41992 346.7003 28.11979 346.9477 28.85547 346.9477C 30.71745 346.9477 32.23438 345.3949 32.23438 343.0902C 32.23438 341.8337 31.84049 340.8539 31.05273 340.1508C 30.42122 339.5909 29.73112 339.3109 28.98242 339.3109C 27.81055 339.3109 26.72331 340.0108 25.33008 341.9379zM24.28516 343.4711C 22.87891 345.0336 22.26693 345.268 21.23828 345.268C 19.87109 345.268 19.05078 344.4477 19.05078 343.1195C 19.05078 341.7914 19.94596 340.8734 20.97461 340.8734C 21.65169 340.8734 22.34505 341.2315 22.95703 341.8695zM25.70117 342.3969C 26.61263 341.3162 27.68359 340.8051 28.93359 340.8051C 30.61328 340.8051 31.70703 341.8272 31.70703 343.2465C 31.70703 344.6527 30.79883 345.5707 29.66602 345.5707C 29.19727 345.5707 28.77734 345.447 28.40625 345.1996C 27.71615 344.7374 26.81445 343.8031 25.70117 342.3969z" stroke="none" fill="#808080" fill-rule="evenodd" /><path id="3899" transform="matrix(1 0 0 -1 0 792)" d="M29.45117 357.2699L32 356.3422L32 356.3422L32 348.5297L32 348.5297L31.63867 348.5297C 27.44596 353.126 25.0599 354.7895 22.85938 354.7895C 21.17969 354.7895 19.97852 353.6046 19.97852 352.1723C 19.97852 350.8702 20.75325 349.7667 22.22461 349.2719L22.22461 349.2719L22.22461 348.9106C 19.81575 349.2361 18.48438 350.6716 18.48438 352.6898C 18.48438 354.8383 20.08594 356.4594 21.96094 356.4594C 22.63151 356.4594 23.30208 356.3031 23.97266 355.9906C 25.02734 355.5089 26.14388 354.7276 27.32227 353.6469C 29.0931 352.0258 30.16081 351.0134 30.52539 350.6098L30.52539 350.6098L30.52539 354.0668C 30.52539 354.7699 30.49935 355.2631 30.44727 355.5463C 30.39518 355.8295 30.28939 356.085 30.12988 356.3129C 29.97038 356.5408 29.74414 356.7393 29.45117 356.9086z" stroke="none" fill="#808080" fill-rule="evenodd" /><path id="3900" transform="matrix(1 0 0 -1 0 792)" d="M29.45117 367.2699L32 366.3422L32 366.3422L32 358.5297L32 358.5297L31.63867 358.5297C 27.44596 363.126 25.0599 364.7895 22.85938 364.7895C 21.17969 364.7895 19.97852 363.6046 19.97852 362.1723C 19.97852 360.8702 20.75325 359.7667 22.22461 359.2719L22.22461 359.2719L22.22461 358.9106C 19.81575 359.2361 18.48438 360.6716 18.48438 362.6898C 18.48438 364.8383 20.08594 366.4594 21.96094 366.4594C 22.63151 366.4594 23.30208 366.3031 23.97266 365.9906C 25.02734 365.5089 26.14388 364.7276 27.32227 363.6469C 29.0931 362.0258 30.16081 361.0134 30.52539 360.6098L30.52539 360.6098L30.52539 364.0668C 30.52539 364.7699 30.49935 365.2631 30.44727 365.5463C 30.39518 365.8295 30.28939 366.085 30.12988 366.3129C 29.97038 366.5408 29.74414 366.7393 29.45117 366.9086z" stroke="none" fill="#808080" fill-rule="evenodd" /><path id="3901" transform="matrix(1 0 0 -1 0 792)" d="M29.45117 377.2699L32 376.3422L32 376.3422L32 368.5297L32 368.5297L31.63867 368.5297C 27.44596 373.126 25.0599 374.7895 22.85938 374.7895C 21.17969 374.7895 19.97852 373.6046 19.97852 372.1723C 19.97852 370.8702 20.75325 369.7667 22.22461 369.2719L22.22461 369.2719L22.22461 368.9106C 19.81575 369.2361 18.48438 370.6716 18.48438 372.6898C 18.48438 374.8383 20.08594 376.4594 21.96094 376.4594C 22.63151 376.4594 23.30208 376.3031 23.97266 375.9906C 25.02734 375.5089 26.14388 374.7276 27.32227 373.6469C 29.0931 372.0258 30.16081 371.0134 30.52539 370.6098L30.52539 370.6098L30.52539 374.0668C 30.52539 374.7699 30.49935 375.2631 30.44727 375.5463C 30.39518 375.8295 30.28939 376.085 30.12988 376.3129C 29.97038 376.5408 29.74414 376.7393 29.45117 376.9086z" stroke="none" fill="#808080" fill-rule="evenodd" /><path id="3902" transform="matrix(1 0 0 -1 0 792)" d="M23.05469 378.266L23.05469 382.475L23.05469 382.475L23.41602 382.475L23.41602 382.475L23.41602 382.2016C 23.41602 381.6938 23.68294 381.4203 24.09961 381.4203C 24.32747 381.4203 24.59766 381.4887 24.91016 381.6254L24.91016 381.6254L29.85156 383.7055L29.85156 383.7055L24.72461 385.7953C 24.36003 385.9451 24.08333 386.0199 23.89453 386.0199C 23.80339 386.0199 23.72852 385.9939 23.66992 385.9418C 23.47461 385.7986 23.41602 385.6716 23.41602 384.9945L23.41602 384.9945L23.05469 384.9945L23.05469 384.9945L23.05469 387.9145L23.05469 387.9145L23.41602 387.9145C 23.44206 387.5759 23.51042 387.3416 23.62109 387.2113C 23.81641 386.9835 24.14193 386.7784 24.59766 386.5961L24.59766 386.5961L32.27344 383.4223L32.27344 383.4223L32.27344 383.0219L32.27344 383.0219L24.72461 379.8285C 24.02148 379.5421 23.79036 379.324 23.58203 378.9203C 23.52344 378.8096 23.4681 378.5916 23.41602 378.266z" stroke="none" fill="#808080" fill-rule="evenodd" /><path id="3903" transform="matrix(1 0 0 -1 0 792)" d="M20.05664 390.4438L18.48438 393.6664L18.48438 393.6664L18.48438 393.9887L18.48438 393.9887L29.66602 393.9887C 30.4082 393.9887 30.87044 394.0196 31.05273 394.0815C 31.23503 394.1433 31.375 394.2719 31.47266 394.4672C 31.57031 394.6625 31.62565 395.0596 31.63867 395.6586L31.63867 395.6586L32 395.6586L32 395.6586L32 390.6781L32 390.6781L31.63867 390.6781C 31.62565 391.3031 31.57194 391.7068 31.47754 391.8891C 31.38314 392.0714 31.25619 392.1983 31.09668 392.2699C 30.93717 392.3416 30.46029 392.3773 29.66602 392.3773L29.66602 392.3773L22.51758 392.3773C 21.55404 392.3773 20.93555 392.3448 20.66211 392.2797C 20.24544 392.1885 20.05664 391.9346 20.05664 391.5961C 20.05664 391.3552 20.15755 391.0199 20.35938 390.5902z" stroke="none" fill="#808080" fill-rule="evenodd" /><path id="3904" transform="matrix(1 0 0 -1 0 792)" d="" stroke="none" fill="#808080" fill-rule="evenodd" /><path id="3905" transform="matrix(1 0 0 -1 0 792)" d="" stroke="none" fill="#808080" fill-rule="evenodd" /><path id="3906" transform="matrix(1 0 0 -1 0 792)" d="M35.96484 414.0375L35.96484 409.7406L35.96484 409.7406L18.45508 409.7406L18.45508 409.7406L18.45508 414.0375L18.45508 414.0375L19.22656 414.0375L19.22656 414.0375L19.22656 411.2055L19.22656 411.2055L35.20313 411.2055L35.20313 411.2055L35.20313 414.0375z" stroke="none" fill="#808080" fill-rule="evenodd" /><path id="3907" transform="matrix(1 0 0 -1 0 792)" d="M28.60156 422.9827C 30.95833 422.5009 32.27344 420.9384 32.27344 419.2327C 32.27344 417.2014 30.44076 415.4436 27.53711 415.4436C 24.72461 415.4436 22.79102 417.3674 22.79102 419.7112C 22.79102 421.469 23.93685 422.7288 24.93945 422.7288C 25.43424 422.7288 25.76953 422.3935 25.76953 421.8206C 25.76953 421.4364 25.64583 421.1467 25.39844 420.9514C 25.125 420.73 24.14193 420.7919 23.73828 420.3362C 23.54297 420.1083 23.44531 419.7925 23.44531 419.3889C 23.44531 418.7379 23.6862 418.2138 24.16797 417.8167C 24.80599 417.2893 25.64909 417.0256 26.69727 417.0256C 28.83268 417.0256 30.75 418.1519 30.75 419.9358C 30.75 420.5738 30.5319 421.1467 30.0957 421.6545C 29.79622 422.0126 29.2526 422.3609 28.46484 422.6995z" stroke="none" fill="#808080" fill-rule="evenodd" /><path id="3908" transform="matrix(1 0 0 -1 0 792)" d="M22.79102 430.0463L25.83789 430.0463L25.83789 430.0463L25.83789 429.724C 23.92383 429.2292 23.36719 428.4903 23.36719 427.2924C 23.36719 426.3809 23.94336 425.7689 24.5293 425.7689C 24.89388 425.7689 25.20638 425.8731 25.4668 426.0814C 25.73372 426.2832 26.01693 426.6934 26.31641 427.3119L26.31641 427.3119L27.00977 428.7377C 27.6543 430.0593 28.50391 430.7201 29.55859 430.7201C 31.1862 430.7201 32.27344 429.2552 32.27344 427.7318C 32.27344 427.1849 32.17578 426.5599 31.98047 425.8568C 31.91537 425.642 31.88281 425.4662 31.88281 425.3295C 31.88281 425.1797 31.96745 425.0625 32.13672 424.9779L32.13672 424.9779L32.13672 424.6556L32.13672 424.6556L28.94336 424.6556L28.94336 424.6556L28.94336 424.9779C 30.76628 425.3425 31.69727 426.4753 31.69727 427.7513C 31.69727 428.6498 31.0918 429.2748 30.34961 429.2748C 29.90039 429.2748 29.52279 429.1169 29.2168 428.8011C 28.91081 428.4854 28.52344 427.8555 28.05469 426.9115C 27.58594 425.9675 27.16276 425.349 26.78516 425.056C 26.41406 424.7631 25.94531 424.6166 25.37891 424.6166C 23.90755 424.6166 22.79102 425.7299 22.79102 427.3314C 22.79102 427.683 22.86589 428.1094 23.01563 428.6107C 23.11328 428.9427 23.16211 429.1641 23.16211 429.2748C 23.16211 429.4831 23.10352 429.5677 22.79102 429.724z" stroke="none" fill="#808080" fill-rule="evenodd" /><path id="3909" transform="matrix(1 0 0 -1 0 792)" d="M30.10547 433.92C 30.10547 434.532 30.59049 435.004 31.18945 435.004C 31.78841 435.004 32.27344 434.519 32.27344 433.92C 32.27344 433.321 31.78841 432.836 31.18945 432.836C 30.57747 432.836 30.10547 433.321 30.10547 433.92z" stroke="none" fill="#808080" fill-rule="evenodd" /><path id="3910" transform="matrix(1 0 0 -1 0 792)" d="M27.56641 445.5704L27.56641 440.4434L27.56641 440.4434L29.65625 439.545C 30.17057 439.3236 30.55469 439.213 30.80859 439.213C 31.21224 439.213 31.54753 439.4701 31.63867 440.7462L31.63867 440.7462L32 440.7462L32 440.7462L32 436.5762L32 436.5762L31.63867 436.5762C 31.54102 437.1296 31.41406 437.4877 31.25781 437.6505C 30.94531 437.9825 30.31055 438.3503 29.35352 438.754L29.35352 438.754L18.45508 443.4122L18.45508 443.4122L18.45508 443.754L18.45508 443.754L29.4707 448.3633C 31.24154 449.1055 31.57357 449.558 31.63867 450.6387L31.63867 450.6387L32 450.6387L32 450.6387L32 445.4141L32 445.4141L31.63867 445.4141C 31.58659 446.4688 31.25781 446.7618 30.82813 446.7618C 30.54167 446.7618 30.08919 446.6316 29.4707 446.3712zM26.84375 445.2969L21.49219 443.0508L21.49219 443.0508L26.84375 440.7462z" stroke="none" fill="#808080" fill-rule="evenodd" /><path id="3911" transform="matrix(1 0 0 -1 0 792)" d="M31.63867 457.0319L32 457.0319L32 457.0319L32 451.358L32 451.358L31.63867 451.358L31.63867 451.358L31.63867 451.8268C 31.63867 452.3737 31.47917 452.7708 31.16016 453.0182C 30.95182 453.1744 30.45052 453.2526 29.65625 453.2526L29.65625 453.2526L21.10156 453.2526C 20.43099 453.2526 19.98828 453.2103 19.77344 453.1256C 19.61068 453.0605 19.4707 452.9271 19.35352 452.7252C 19.19727 452.4388 19.11914 452.1393 19.11914 451.8268L19.11914 451.8268L19.11914 451.358L19.11914 451.358L18.75781 451.358L18.75781 451.358L18.75781 457.0319L18.75781 457.0319L19.11914 457.0319L19.11914 457.0319L19.11914 456.5533C 19.11914 456.013 19.27864 455.6191 19.59766 455.3717C 19.80599 455.209 20.30729 455.1276 21.10156 455.1276L21.10156 455.1276L29.65625 455.1276C 30.32682 455.1276 30.76953 455.1699 30.98438 455.2545C 31.14713 455.3196 31.28711 455.4564 31.4043 455.6647C 31.56055 455.9446 31.63867 456.2408 31.63867 456.5533z" stroke="none" fill="#808080" fill-rule="evenodd" /><path id="3912" transform="matrix(1 0 0 -1 0 792)" d="M18.45508 458.2524L18.45508 462.5493L18.45508 462.5493L35.97461 462.5493L35.97461 462.5493L35.97461 458.2524L35.97461 458.2524L35.20313 458.2524L35.20313 458.2524L35.20313 461.0845L35.20313 461.0845L19.22656 461.0845L19.22656 461.0845L19.22656 458.2524z" stroke="none" fill="#808080" fill-rule="evenodd" /><path id="3913" transform="matrix(1 0 0 -1 0 792)" d="" stroke="none" fill="#808080" fill-rule="evenodd" /><path id="3914" transform="matrix(1 0 0 -1 0 792)" d="" stroke="none" fill="#808080" fill-rule="evenodd" /><path id="3915" transform="matrix(1 0 0 -1 0 792)" d="M29.45117 483.3499L32 482.4222L32 482.4222L32 474.6097L32 474.6097L31.63867 474.6097C 27.44596 479.2061 25.0599 480.8694 22.85938 480.8694C 21.17969 480.8694 19.97852 479.6846 19.97852 478.2523C 19.97852 476.9502 20.75325 475.8467 22.22461 475.3519L22.22461 475.3519L22.22461 474.9905C 19.81575 475.316 18.48438 476.7516 18.48438 478.7698C 18.48438 480.9183 20.08594 482.5394 21.96094 482.5394C 22.63151 482.5394 23.30208 482.3831 23.97266 482.0706C 25.02734 481.5889 26.14388 480.8076 27.32227 479.7269C 29.0931 478.1058 30.16081 477.0934 30.52539 476.6898L30.52539 476.6898L30.52539 480.1468C 30.52539 480.8499 30.49935 481.3431 30.44727 481.6263C 30.39518 481.9095 30.28939 482.165 30.12988 482.3929C 29.97038 482.6207 29.74414 482.8193 29.45117 482.9886z" stroke="none" fill="#808080" fill-rule="evenodd" /><path id="3916" transform="matrix(1 0 0 -1 0 792)" d="M18.75781 486.1917L18.75781 493.2913L18.75781 493.2913L19.12891 493.2913L19.12891 493.2913L32.27344 488.8773L32.27344 488.8773L32.27344 487.7835L32.27344 487.7835L20.34961 491.7386L20.34961 491.7386L20.34961 488.096C 20.34961 487.3604 20.4375 486.8362 20.61328 486.5237C 20.91276 485.9769 21.375 485.5374 22 485.2054L22 485.2054L21.89258 484.9222z" stroke="none" fill="#808080" fill-rule="evenodd" /><path id="3917" transform="matrix(1 0 0 -1 0 792)" d="" stroke="none" fill="#808080" fill-rule="evenodd" /><path id="3918" transform="matrix(1 0 0 -1 0 792)" d="M19.48047 503.2718L24.68555 503.2718L24.68555 503.2718L24.68555 505.6839C 24.68555 506.7907 24.31445 507.2431 22.86914 507.4124L22.86914 507.4124L22.86914 507.7737L22.86914 507.7737L27.35156 507.7737L27.35156 507.7737L27.35156 507.4124C 26.83724 507.4059 26.45963 507.3392 26.21875 507.2122C 25.97787 507.0853 25.7972 506.9095 25.67676 506.6849C 25.55631 506.4603 25.49609 506.1266 25.49609 505.6839L25.49609 505.6839L25.49609 503.2718L25.49609 503.2718L29.65625 503.2718C 30.32682 503.2718 30.76953 503.3141 30.98438 503.3987C 31.14713 503.4638 31.28711 503.6006 31.4043 503.8089C 31.56055 504.0954 31.63867 504.3948 31.63867 504.7073L31.63867 504.7073L31.63867 505.1859L31.63867 505.1859L32 505.1859L32 505.1859L32 499.5023L32 499.5023L31.63867 499.5023L31.63867 499.5023L31.63867 499.971C 31.63867 500.5179 31.47917 500.915 31.16016 501.1624C 30.95182 501.3187 30.45052 501.3968 29.65625 501.3968L29.65625 501.3968L21.10156 501.3968C 20.43099 501.3968 19.98828 501.3545 19.77344 501.2698C 19.61068 501.2047 19.4707 501.0713 19.35352 500.8694C 19.19727 500.5895 19.11914 500.29 19.11914 499.971L19.11914 499.971L19.11914 499.5023L19.11914 499.5023L18.75781 499.5023L18.75781 499.5023L18.75781 509.3558L18.75781 509.3558L21.66797 509.4827L21.66797 509.4827L21.66797 509.1409C 21.04948 508.9716 20.59538 508.7747 20.30566 508.5501C 20.01595 508.3255 19.80599 508.0488 19.67578 507.72C 19.54557 507.3913 19.48047 506.8818 19.48047 506.1917z" stroke="none" fill="#808080" fill-rule="evenodd" /><path id="3919" transform="matrix(1 0 0 -1 0 792)" d="M26.42383 512.4289C 27.75195 512.4224 28.79362 512.7446 29.54883 513.3957C 30.30404 514.0468 30.68164 514.8117 30.68164 515.6906C 30.68164 516.8625 30.10547 517.7219 28.54297 518.3078L28.54297 518.3078L28.73828 518.6105C 30.52213 518.3371 32.27344 516.9276 32.27344 514.9484C 32.27344 512.8 30.47005 511.0422 27.64453 511.0422C 24.58463 511.0422 22.78125 512.8032 22.78125 515.173C 22.78125 517.1782 24.21029 518.6105 26.42383 518.6105zM25.85742 512.4289L25.85742 516.5695C 25.28451 516.537 24.88086 516.4686 24.64648 516.3644C 23.91732 516.0389 23.47461 515.3293 23.47461 514.6262C 23.47461 513.5454 24.36003 512.5721 25.85742 512.4289z" stroke="none" fill="#808080" fill-rule="evenodd" /><path id="3920" transform="matrix(1 0 0 -1 0 792)" d="M24.59766 522.2562C 23.39323 523.1221 22.79102 524.0563 22.79102 525.0589C 22.79102 526.8948 24.46419 528.4866 27.18555 528.4866C 28.77409 528.4866 30.05338 527.9593 31.02344 526.9046C 31.85677 525.9996 32.27344 524.9905 32.27344 523.8773C 32.27344 522.8356 31.89583 521.7646 31.14063 520.6448L31.14063 520.6448L21.87305 520.6448C 20.85742 520.6448 20.23242 520.6204 19.99805 520.5716C 19.76367 520.5228 19.60417 520.4463 19.51953 520.3421C 19.43489 520.2379 19.39258 520.1077 19.39258 519.9515C 19.39258 519.7692 19.44466 519.5413 19.54883 519.2679L19.54883 519.2679L19.20703 519.1312L19.20703 519.1312L18.11328 521.8167L18.11328 521.8167L18.11328 522.2562zM25.22266 522.2562L30.57422 522.2562C 31.22526 522.9202 31.56055 523.6331 31.56055 524.3753C 31.56055 525.5602 30.22917 526.7972 27.74219 526.7972C 25.45052 526.7972 24.17773 525.5895 24.17773 524.2874C 24.17773 523.9424 24.26563 523.5973 24.44141 523.2523C 24.57162 522.9918 24.83203 522.6598 25.22266 522.2562z" stroke="none" fill="#808080" fill-rule="evenodd" /><path id="3921" transform="matrix(1 0 0 -1 0 792)" d="" stroke="none" fill="#808080" fill-rule="evenodd" /><path id="3922" transform="matrix(1 0 0 -1 0 792)" d="M29.45117 543.3499L32 542.4222L32 542.4222L32 534.6097L32 534.6097L31.63867 534.6097C 27.44596 539.2061 25.0599 540.8694 22.85938 540.8694C 21.17969 540.8694 19.97852 539.6846 19.97852 538.2523C 19.97852 536.9502 20.75325 535.8467 22.22461 535.3519L22.22461 535.3519L22.22461 534.9905C 19.81575 535.316 18.48438 536.7516 18.48438 538.7698C 18.48438 540.9183 20.08594 542.5394 21.96094 542.5394C 22.63151 542.5394 23.30208 542.3831 23.97266 542.0706C 25.02734 541.5889 26.14388 540.8076 27.32227 539.7269C 29.0931 538.1058 30.16081 537.0934 30.52539 536.6898L30.52539 536.6898L30.52539 540.1468C 30.52539 540.8499 30.49935 541.3431 30.44727 541.6263C 30.39518 541.9095 30.28939 542.165 30.12988 542.3929C 29.97038 542.6207 29.74414 542.8193 29.45117 542.9886z" stroke="none" fill="#808080" fill-rule="evenodd" /><path id="3923" transform="matrix(1 0 0 -1 0 792)" d="M25.45703 544.9026C 22.4362 544.9026 20.18685 545.8922 19.11914 547.4026C 18.69596 547.9886 18.48438 548.5941 18.48438 549.2191C 18.48438 550.2347 19.00195 551.1461 20.03711 551.9534C 21.31966 552.9625 23.05794 553.4671 25.25195 553.4671C 26.78841 553.4671 28.09375 553.2457 29.16797 552.803C 30.24219 552.3604 31.02181 551.7955 31.50684 551.1087C 31.99186 550.4219 32.23438 549.7594 32.23438 549.1214C 32.23438 547.8584 31.48893 546.8069 29.99805 545.9671C 28.74154 545.2574 27.22787 544.9026 25.45703 544.9026zM25.70117 546.8167C 27.52409 546.8167 29.01172 547.0413 30.16406 547.4905C 31.13412 547.8616 31.61914 548.415 31.61914 549.1507C 31.61914 549.8538 31.04297 550.7132 29.55859 551.1038C 28.4388 551.4033 26.86003 551.553 24.82227 551.553C 23.31185 551.553 22.05208 551.3968 21.04297 551.0843C 20.29427 550.8499 19.76367 550.5472 19.45117 550.1761C 19.23633 549.9092 19.12891 549.5869 19.12891 549.2093C 19.12891 548.7666 19.32747 548.3727 19.72461 548.0276C 20.80534 547.0901 23.44857 546.8167 25.70117 546.8167z" stroke="none" fill="#808080" fill-rule="evenodd" /><path id="3924" transform="matrix(1 0 0 -1 0 792)" d="M20.05664 556.5237L18.48438 559.7464L18.48438 559.7464L18.48438 560.0687L18.48438 560.0687L29.66602 560.0687C 30.4082 560.0687 30.87044 560.0996 31.05273 560.1614C 31.23503 560.2233 31.375 560.3519 31.47266 560.5472C 31.57031 560.7425 31.62565 561.1396 31.63867 561.7386L31.63867 561.7386L32 561.7386L32 561.7386L32 556.7581L32 556.7581L31.63867 556.7581C 31.62565 557.3831 31.57194 557.7867 31.47754 557.9691C 31.38314 558.1514 31.25619 558.2783 31.09668 558.3499C 30.93717 558.4215 30.46029 558.4573 29.66602 558.4573L29.66602 558.4573L22.51758 558.4573C 21.55404 558.4573 20.93555 558.4248 20.66211 558.3597C 20.24544 558.2686 20.05664 558.0146 20.05664 557.6761C 20.05664 557.4352 20.15755 557.0999 20.35938 556.6702z" stroke="none" fill="#808080" fill-rule="evenodd" /><path id="3925" transform="matrix(1 0 0 -1 0 792)" d="M18.75781 566.1917L18.75781 573.2913L18.75781 573.2913L19.12891 573.2913L19.12891 573.2913L32.27344 568.8773L32.27344 568.8773L32.27344 567.7835L32.27344 567.7835L20.34961 571.7386L20.34961 571.7386L20.34961 568.096C 20.34961 567.3604 20.4375 566.8362 20.61328 566.5237C 20.91276 565.9769 21.375 565.5374 22 565.2054L22 565.2054L21.89258 564.9222z" stroke="none" fill="#808080" fill-rule="evenodd" /></g></g></svg>