<svg xmlns="http://www.w3.org/2000/svg" xmlns:xlink="http://www.w3.org/1999/xlink" id="body_5" preserveAspectRatio="xMinYMin meet" viewBox="0 0 816 1056"><defs><clipPath id="1"><path id="" clip-rule="evenodd" transform="matrix(1 0 0 1 0 0)" d="M0 792L0 0L0 0L612 0L612 0L612 792L612 792L0 792z" /></clipPath></defs><g transform="matrix(1.333333 0 0 1.333333 0 0)"><g clip-path="url(#1)"><path id="452" transform="matrix(1 0 0 -1 0 792)" d="M81.884 634.271L85.471 634.271" stroke="#000000" stroke-width="0.359" fill="none" /><path id="2839" transform="matrix(1 0 0 -1 0 792)" d="M316.812 737.803L555.915 737.803" stroke="#000000" stroke-width="0.797" fill="none" /><path id="2858" transform="matrix(1 0 0 -1 0 792)" d="M316.812 714.335L555.915 714.335" stroke="#000000" stroke-width="0.398" fill="none" /><path id="3030" transform="matrix(1 0 0 -1 0 792)" d="M385.981 670.906L389.169 670.906" stroke="#000000" stroke-width="0.319" fill="none" /><path id="3338" transform="matrix(1 0 0 -1 0 792)" d="M397.605 554.343L400.793 554.343" stroke="#000000" stroke-width="0.319" fill="none" /><path id="3488" transform="matrix(1 0 0 -1 0 792)" d="M420.028 518.478L423.216 518.478" stroke="#000000" stroke-width="0.319" fill="none" /><path id="3636" transform="matrix(1 0 0 -1 0 792)" d="M433.997 482.612L437.185 482.612" stroke="#000000" stroke-width="0.319" fill="none" /><path id="4032" transform="matrix(1 0 0 -1 0 792)" d="M410.302 366.049L413.49 366.049" stroke="#000000" stroke-width="0.319" fill="none" /><path id="4129" transform="matrix(1 0 0 -1 0 792)" d="M442.178 330.184L445.366 330.184" stroke="#000000" stroke-width="0.319" fill="none" /><path id="4171" transform="matrix(1 0 0 -1 0 792)" d="M433.277 312.251L436.465 312.251" stroke="#000000" stroke-width="0.319" fill="none" /><path id="4198" transform="matrix(1 0 0 -1 0 792)" d="M316.812 298.245L555.915 298.245" stroke="#000000" stroke-width="0.398" fill="none" /></g></g></svg>