<svg xmlns="http://www.w3.org/2000/svg" xmlns:xlink="http://www.w3.org/1999/xlink" id="body_2" preserveAspectRatio="xMinYMin meet" viewBox="0 0 816 1056"><defs><clipPath id="1"><path id="" clip-rule="evenodd" transform="matrix(1 0 0 1 0 0)" d="M0 792L0 0L0 0L612 0L612 0L612 792L612 792L0 792z" /></clipPath></defs><g transform="matrix(1.333333 0 0 1.333333 0 0)"><g clip-path="url(#1)"><path id="762" transform="matrix(1 0 0 -1 0 792)" d="M148.148 513.841L261.581 513.841" stroke="#000000" stroke-width="0.379" fill="none" /><path id="953" transform="matrix(1 0 0 -1 0 792)" d="M150.158 444.293L258.728 444.293" stroke="#000000" stroke-width="0.379" fill="none" /><path id="1924" transform="matrix(1 0 0 -1 0 792)" d="M99.053 169.786L232.683 169.786" stroke="#000000" stroke-width="0.379" fill="none" /><path id="1995" transform="matrix(1 0 0 -1 0 792)" d="M123.831 154.688L282.034 154.688" stroke="#000000" stroke-width="0.379" fill="none" /><path id="2083" transform="matrix(1 0 0 -1 0 792)" d="M99.335 128.436L257.538 128.436" stroke="#000000" stroke-width="0.379" fill="none" /><path id="2174" transform="matrix(1 0 0 -1 0 792)" d="M91.911 104.18L186.167 104.18" stroke="#000000" stroke-width="0.379" fill="none" /><path id="2210" transform="matrix(1 0 0 -1 0 792)" d="M101.245 88.389L193.923 88.389" stroke="#000000" stroke-width="0.379" fill="none" /><path id="2259" transform="matrix(1 0 0 -1 0 792)" d="M195.792 80.867L202.567 80.867" stroke="#000000" stroke-width="0.398" fill="none" /><path id="2260" transform="matrix(1 0 0 -1 0 792)" d="M195.991 74.69L195.991 80.668" stroke="#000000" stroke-width="0.398" fill="none" /><path id="2261" transform="matrix(1 0 0 -1 0 792)" d="M202.367 74.69L202.367 80.668" stroke="#000000" stroke-width="0.398" fill="none" /><path id="2262" transform="matrix(1 0 0 -1 0 792)" d="M195.792 74.491L202.567 74.491" stroke="#000000" stroke-width="0.398" fill="none" /><path id="4130" transform="matrix(1 0 0 -1 0 792)" d="M375.907 224.578L398.616 224.578" stroke="#000000" stroke-width="0.379" fill="none" /><path id="4169" transform="matrix(1 0 0 -1 0 792)" d="M376.707 217.73L424.928 217.73" stroke="#000000" stroke-width="0.379" fill="none" /><path id="4183" transform="matrix(1 0 0 -1 0 792)" d="M371.149 208.385L424.928 208.385" stroke="#000000" stroke-width="0.379" fill="none" /><path id="4286" transform="matrix(1 0 0 -1 0 792)" d="M443.371 173.477L485.601 173.477" stroke="#000000" stroke-width="0.379" fill="none" /><path id="4664" transform="matrix(1 0 0 -1 0 792)" d="M336.207 76.932L398.097 76.932" stroke="#000000" stroke-width="0.379" fill="none" /></g></g></svg>