<svg xmlns="http://www.w3.org/2000/svg" xmlns:xlink="http://www.w3.org/1999/xlink" id="body_3" preserveAspectRatio="xMinYMin meet" viewBox="0 0 816 1056"><defs><clipPath id="1"><path id="" clip-rule="evenodd" transform="matrix(1 0 0 1 0 0)" d="M0 792L0 0L0 0L612 0L612 0L612 792L612 792L0 792z" /></clipPath><clipPath id="2"><path id="" clip-rule="evenodd" transform="matrix(1 0 0 1 0 0)" d="M89.318 124.5131L283.5917 124.5131L283.5917 124.5131L283.5917 59.75568L283.5917 59.75568L89.318 59.75568z" /></clipPath></defs><g transform="matrix(1.333333 0 0 1.333333 0 0)"><g clip-path="url(#1)"><path id="1" transform="matrix(1 0 0 -1 0 792)" d="M283.5917 732.2443L283.5917 727.9926M244.7369 732.2443L244.7369 727.9926M205.8822 732.2443L205.8822 727.9926M167.0275 732.2443L167.0275 727.9926M128.1727 732.2443L128.1727 727.9926M89.318 732.2443L89.318 727.9926M283.5917 667.4869L283.5917 671.7387M244.7369 667.4869L244.7369 671.7387M205.8822 667.4869L205.8822 671.7387M167.0275 667.4869L167.0275 671.7387M128.1727 667.4869L128.1727 671.7387M89.318 667.4869L89.318 671.7387" stroke="#808080" stroke-width="0.19925" fill="none" /><path id="2" transform="matrix(1 0 0 -1 0 792)" d="M283.5917 732.2443L279.339 732.2443M283.5917 716.055L279.339 716.055M283.5917 699.8657L279.339 699.8657M283.5917 683.6763L279.339 683.6763M283.5917 667.4869L279.339 667.4869M89.318 732.2443L93.57066 732.2443M89.318 716.055L93.57066 716.055M89.318 699.8657L93.57066 699.8657M89.318 683.6763L93.57066 683.6763M89.318 667.4869L93.57066 667.4869" stroke="#808080" stroke-width="0.19925" fill="none" /><path id="3" transform="matrix(1 0 0 -1 0 792)" d="M89.318 667.4869L89.318 732.2443L89.318 732.2443L283.5917 732.2443L283.5917 732.2443L283.5917 667.4869L283.5917 667.4869L89.318 667.4869z" stroke="#000000" stroke-width="0.3985" fill="none" /><g clip-path="url(#2)"><path id="121" transform="matrix(1 0 0 -1 0 792)" d="M89.318 667.4869L89.318 732.2443L89.318 732.2443L186.4548 732.2443L186.4548 732.2443L186.4548 667.4869z" stroke="#000000" stroke-width="0.79701" fill="none" /><path id="122" transform="matrix(1 0 0 -1 0 792)" d="M89.318 699.8657L283.5917 699.8657" stroke="#000000" stroke-width="0.3985" fill="none" /></g><path id="136" transform="matrix(1 0 0 -1 0 792)" d="M58.83868 672.0916C 58.56372 671.8047 58.05865 671.2846 58.05865 670.388C 58.05865 668.6425 59.50818 667.178 61.31342 667.178C 63.1665 667.178 64.57721 668.6664 64.57721 670.388C 64.57721 671.8704 63.35181 672.7999 62.29974 672.7999C 62.21606 672.7999 62.12939 672.7939 62.12939 672.6744C 62.12939 672.5549 62.20111 672.5489 62.27283 672.5489C 63.63574 672.4772 64.29926 671.3982 64.29926 670.4777C 64.29926 669.7125 63.82404 668.0926 61.31342 668.0926C 58.81482 668.0926 58.33661 669.7155 58.33661 670.4687C 58.33661 671.3534 59.01508 672.2979 60.46161 672.513C 60.58118 672.525 60.62305 672.5369 60.62305 672.6565C 60.62305 672.7999 60.58118 672.7999 60.38989 672.7999L60.38989 672.7999L58.29175 672.7999C 58.14832 672.7999 58.05865 672.7999 58.05865 672.6923C 58.05865 672.6206 58.09448 672.5967 58.1662 672.5489z" stroke="none" fill="#000000" fill-rule="evenodd" /><path id="137" transform="matrix(1 0 0 -1 0 792)" d="M62.47009 677.6624C 61.29846 677.6624 60.36298 676.7269 60.36298 675.6271C 60.36298 674.4794 61.32239 673.5827 62.47009 673.5827C 63.59387 673.5827 64.47858 674.5062 64.47858 675.6181C 64.47858 676.7538 63.58191 677.6624 62.47009 677.6624zM64.22754 675.6271C 64.22754 675.1727 64.01233 674.7991 63.65369 674.5959C 63.28308 674.3568 62.80786 674.3538 62.3894 674.3538C 62.06659 674.3538 61.54956 674.3508 61.17896 674.578C 60.72467 674.841 60.58716 675.2953 60.58716 675.6181C 60.58716 676.1202 60.88007 676.4968 61.17896 676.6761C 61.56152 676.8793 62.0188 676.8913 62.3894 676.8913C 62.72412 676.8913 63.24121 676.8823 63.63574 676.6672C 64.05414 676.4161 64.22754 675.9977 64.22754 675.6271z" stroke="none" fill="#000000" fill-rule="evenodd" /><path id="138" transform="matrix(1 0 0 -1 0 792)" d="M62.05762 679.5893C 61.11316 679.5893 60.64093 680.2528 60.64093 680.8267C 60.64093 681.3527 61.08032 681.4722 61.61829 681.4722L61.61829 681.4722L63.68951 681.4722C 64.10797 681.4722 64.10199 681.3676 64.10199 680.7819L64.10199 680.7819L64.37994 680.7819C 64.36798 681.2003 64.35303 681.3736 64.35303 681.804C 64.35303 682.2344 64.36798 682.348 64.37994 682.8262L64.37994 682.8262L64.10199 682.8262C 64.10199 682.3599 64.11096 682.1357 63.82404 682.1357L63.82404 682.1357L62.10248 682.1357C 61.36127 682.1357 61.10718 682.1357 60.78442 681.8847C 60.53339 681.6695 60.41681 681.3318 60.41681 680.8894C 60.41681 680.0526 61.03546 679.664 61.28656 679.5444L61.28656 679.5444L61.28656 679.5355L61.28656 679.5355L60.41681 679.5355L60.41681 679.5355L60.51544 678.2354L60.51544 678.2354L60.7934 678.2354C 60.7934 678.8451 60.86511 678.9258 61.29553 678.9258L61.29553 678.9258L63.68951 678.9258C 64.10797 678.9258 64.10199 678.8212 64.10199 678.2354L64.10199 678.2354L64.37994 678.2354C 64.36798 678.6538 64.35303 678.8271 64.35303 679.2576C 64.35303 679.6879 64.36798 679.8015 64.37994 680.2797L64.37994 680.2797L64.10199 680.2797C 64.10199 679.6819 64.10797 679.5893 63.68951 679.5893z" stroke="none" fill="#000000" fill-rule="evenodd" /><path id="139" transform="matrix(1 0 0 -1 0 792)" d="M62.77496 684.1532C 62.9184 684.3684 63.05292 684.6494 63.05292 685.0677C 63.05292 685.9166 62.45215 686.5652 61.73486 686.5652C 61.30444 686.5652 60.99664 686.3051 60.86511 686.1975C 60.5423 686.5562 60.5423 686.9776 60.5423 687.0852C 60.57819 687.0374 60.62006 686.9686 60.77545 686.9686C 60.88306 686.9686 61.04443 687.0225 61.04443 687.2376C 61.04443 687.3572 60.95776 687.5067 60.76648 687.5067C 60.59912 687.5067 60.31818 687.3811 60.31818 687.0225C 60.31818 686.7594 60.41681 686.356 60.73956 686.0451C 60.54828 685.7941 60.41681 685.4473 60.41681 685.0767C 60.41681 684.2159 61.02948 683.5793 61.73486 683.5793C 62.20111 683.5793 62.51794 683.8483 62.64941 683.9918C 62.67334 683.9679 62.98718 683.7228 63.39362 683.7228C 63.70447 683.7228 64.02728 683.8573 64.18268 684.1083C 64.32617 683.6421 64.64893 683.2924 65.07935 683.2924C 65.71295 683.2924 66.22705 684.1801 66.22705 685.3278C 66.22705 686.4277 65.74286 687.3721 65.0614 687.3721C 64.6908 687.3721 64.29926 687.1928 64.08405 686.87C 63.77319 686.3679 63.7702 685.8448 63.7702 684.996C 63.7702 684.8167 63.77618 684.5298 63.75232 684.4581C 63.70447 684.1951 63.45642 684.0276 63.16949 684.0276C 63.026 684.0276 62.89453 684.0695 62.77496 684.1532zM62.81085 685.0677C 62.81085 684.2668 61.93811 684.2698 61.73486 684.2698C 61.49573 684.2698 61.18793 684.2847 60.97272 684.4401C 60.7934 684.5717 60.65887 684.8167 60.65887 685.0677C 60.65887 685.8688 61.53162 685.8748 61.73486 685.8748C 61.95007 685.8748 62.81085 685.8688 62.81085 685.0677zM64.33508 685.4802C 64.33508 685.7672 64.34106 686.87 65.07037 686.87C 65.57245 686.87 65.98492 686.1736 65.98492 685.3368C 65.98492 684.4521 65.56055 683.7946 65.07037 683.7946C 64.92688 683.7946 64.33508 683.8782 64.33508 684.6553z" stroke="none" fill="#000000" fill-rule="evenodd" /><path id="140" transform="matrix(1 0 0 -1 0 792)" d="M62.32666 691.2178C 62.32666 691.4091 62.32965 691.4599 62.13837 691.4599C 61.21777 691.4599 60.36298 690.9578 60.36298 689.8101C 60.36298 688.7341 61.29553 687.8913 62.40735 687.8913C 63.59088 687.8913 64.47858 688.8268 64.47858 689.9266C 64.47858 691.0146 63.52814 691.4599 63.31293 691.4599C 63.25317 691.4599 63.19635 691.4061 63.19635 691.3344C 63.19635 691.2388 63.25916 691.2089 63.29498 691.2089C 64.21558 690.898 64.22754 690.103 64.22754 689.9715C 64.22754 689.5411 63.99139 689.1705 63.68054 688.9673C 63.25018 688.6684 62.70923 688.6624 62.32666 688.6624zM62.11145 688.6714C 60.73657 688.7431 60.58716 689.559 60.58716 689.8101C 60.58716 690.3003 60.96375 690.8383 62.11145 690.8502z" stroke="none" fill="#000000" fill-rule="evenodd" /><path id="141" transform="matrix(1 0 0 -1 0 792)" d="M62.05762 693.3984C 61.11316 693.3984 60.64093 694.062 60.64093 694.6358C 60.64093 695.1619 61.08032 695.2814 61.61829 695.2814L61.61829 695.2814L63.68951 695.2814C 64.10797 695.2814 64.10199 695.1768 64.10199 694.591L64.10199 694.591L64.37994 694.591C 64.36798 695.0094 64.35303 695.1827 64.35303 695.6132C 64.35303 696.0435 64.36798 696.1571 64.37994 696.6353L64.37994 696.6353L64.10199 696.6353C 64.10199 696.1691 64.11096 695.9449 63.82404 695.9449L63.82404 695.9449L62.10248 695.9449C 61.36127 695.9449 61.10718 695.9449 60.78442 695.6938C 60.53339 695.4786 60.41681 695.1409 60.41681 694.6986C 60.41681 693.8617 61.03546 693.4731 61.28656 693.3536L61.28656 693.3536L61.28656 693.3447L61.28656 693.3447L60.41681 693.3447L60.41681 693.3447L60.51544 692.0446L60.51544 692.0446L60.7934 692.0446C 60.7934 692.6542 60.86511 692.7349 61.29553 692.7349L61.29553 692.7349L63.68951 692.7349C 64.10797 692.7349 64.10199 692.6303 64.10199 692.0446L64.10199 692.0446L64.37994 692.0446C 64.36798 692.463 64.35303 692.6363 64.35303 693.0667C 64.35303 693.4971 64.36798 693.6107 64.37994 694.0889L64.37994 694.0889L64.10199 694.0889C 64.10199 693.4911 64.10797 693.3984 63.68951 693.3984z" stroke="none" fill="#000000" fill-rule="evenodd" /><path id="142" transform="matrix(1 0 0 -1 0 792)" d="M60.41681 698.4914L60.51544 697.2002L60.51544 697.2002L60.7934 697.2002C 60.7934 697.774 60.85614 697.8547 61.28656 697.8547L61.28656 697.8547L63.68951 697.8547C 64.10797 697.8547 64.10199 697.7501 64.10199 697.1644L64.10199 697.1644L64.37994 697.1644C 64.36798 697.5588 64.35303 697.7561 64.35303 698.1506C 64.35303 698.2941 64.35602 698.6677 64.37994 699.11L64.37994 699.11L64.10199 699.11C 64.10199 698.5242 64.0661 698.4914 63.70746 698.4914zM58.85663 698.5182C 58.59363 698.5182 58.37244 698.2971 58.37244 698.0341C 58.37244 697.7472 58.60559 697.5499 58.85663 697.5499C 59.11963 697.5499 59.34082 697.7472 59.34082 698.0341C 59.34082 698.2971 59.13159 698.5182 58.85663 698.5182z" stroke="none" fill="#000000" fill-rule="evenodd" /><path id="143" transform="matrix(1 0 0 -1 0 792)" d="M63.73438 702.459C 64.11694 702.4949 64.43372 702.7549 64.43372 703.1494C 64.43372 703.3646 64.29926 703.9385 63.58191 703.9385L63.58191 703.9385L63.07983 703.9385L63.07983 703.9385L63.07983 703.6874L63.07983 703.6874L63.573 703.6874C 63.68054 703.6874 64.11993 703.6874 64.11993 703.3646C 64.11993 703.0418 63.68951 703.0418 63.54608 703.0418L63.54608 703.0418L61.97693 703.0418C 61.47485 703.0418 61.164 703.0328 60.7934 702.6383C 60.50647 702.3036 60.36298 701.8702 60.36298 701.4279C 60.36298 700.6747 60.73956 700.0471 61.31342 700.0471C 61.60034 700.0471 61.74384 700.2294 61.74384 700.4684C 61.74384 700.7076 61.5705 700.8809 61.33136 700.8809C 60.94879 700.8809 60.901 700.4774 60.901 700.4774C 60.67383 700.7166 60.58716 701.1469 60.58716 701.4099C 60.58716 701.8643 60.92786 702.3783 61.71692 702.3783L61.71692 702.3783L62.01282 702.3783C 62.03674 701.8881 62.07556 701.2186 62.36249 700.6209C 62.6853 699.9753 63.14258 699.7781 63.50122 699.7781C 64.24243 699.7781 64.47858 700.6388 64.47858 701.2485C 64.47858 701.9897 63.98541 702.3275 63.73438 702.459zM63.11566 702.3783C 63.9884 702.3783 64.25439 701.7058 64.25439 701.3113C 64.25439 700.8809 63.95551 700.4954 63.50122 700.4954C 62.91541 700.4954 62.28778 701.0035 62.22803 702.3783z" stroke="none" fill="#000000" fill-rule="evenodd" /><path id="144" transform="matrix(1 0 0 -1 0 792)" d="M58.15729 705.6412L58.25592 704.3141L58.25592 704.3141L58.53387 704.3141C 58.53387 704.9239 58.60559 705.0046 59.03595 705.0046L59.03595 705.0046L63.68951 705.0046C 64.10797 705.0046 64.10199 704.9 64.10199 704.3141L64.10199 704.3141L64.37994 704.3141C 64.36798 704.7326 64.35303 704.9 64.35303 705.3184C 64.35303 705.7368 64.36798 705.8893 64.37994 706.3316L64.37994 706.3316L64.10199 706.3316C 64.10199 705.7338 64.10797 705.6412 63.68951 705.6412z" stroke="none" fill="#000000" fill-rule="evenodd" /><path id="145" transform="matrix(1 0 0 -1 0 792)" d="M60.41681 708.2011L60.51544 706.9099L60.51544 706.9099L60.7934 706.9099C 60.7934 707.4838 60.85614 707.5645 61.28656 707.5645L61.28656 707.5645L63.68951 707.5645C 64.10797 707.5645 64.10199 707.4598 64.10199 706.8741L64.10199 706.8741L64.37994 706.8741C 64.36798 707.2686 64.35303 707.4658 64.35303 707.8604C 64.35303 708.0038 64.35602 708.3774 64.37994 708.8198L64.37994 708.8198L64.10199 708.8198C 64.10199 708.2339 64.0661 708.2011 63.70746 708.2011zM58.85663 708.228C 58.59363 708.228 58.37244 708.0068 58.37244 707.7438C 58.37244 707.4569 58.60559 707.2596 58.85663 707.2596C 59.11963 707.2596 59.34082 707.4569 59.34082 707.7438C 59.34082 708.0068 59.13159 708.228 58.85663 708.228z" stroke="none" fill="#000000" fill-rule="evenodd" /><path id="146" transform="matrix(1 0 0 -1 0 792)" d="M60.7934 712.0163L60.51544 712.0163L60.51544 712.0163L60.51544 710.7162L60.51544 710.7162L58.8656 710.7162L58.8656 710.7162L58.8656 710.4651C 59.61877 710.4531 60.54529 710.1334 60.56921 709.2726L60.56921 709.2726L60.7934 709.2726L60.7934 709.2726L60.7934 710.0527L60.7934 710.0527L63.26813 710.0527C 64.27234 710.0527 64.47858 710.7759 64.47858 711.2542C 64.47858 711.8519 63.9137 712.1687 63.26813 712.1687L63.26813 712.1687L62.75702 712.1687L62.75702 712.1687L62.75702 711.9177L62.75702 711.9177L63.24121 711.9177C 63.91071 711.9177 64.22754 711.6397 64.22754 711.3169C 64.22754 710.7072 63.44446 710.7162 63.2771 710.7162L63.2771 710.7162L60.7934 710.7162z" stroke="none" fill="#000000" fill-rule="evenodd" /><path id="147" transform="matrix(1 0 0 -1 0 792)" d="M61.21478 714.0579C 61.09528 713.9982 61.05042 714.0042 61.02649 714.0042C 60.79938 714.0042 60.7934 714.306 60.7934 714.4973L60.7934 714.4973L60.51544 714.4973C 60.53931 714.0549 60.5423 713.8726 60.5423 713.502C 60.5423 713.4662 60.55127 712.9611 60.51544 712.6144L60.51544 712.6144L60.7934 712.6144C 60.7934 713.0089 60.81433 713.1882 61.05341 713.2958L61.05341 713.2958L64.37994 714.7125L64.37994 714.7125L64.90894 714.4883C 65.37524 714.2851 65.9939 714.0221 65.9939 713.4482C 65.9939 713.2211 65.87134 713.0687 65.85938 713.0447C 65.84747 713.1165 65.77271 713.3676 65.47382 713.3676C 65.23474 713.3676 65.09723 713.1942 65.09723 712.991C 65.09723 712.7638 65.23175 712.6054 65.48279 712.6054C 65.87732 712.6054 66.21808 712.982 66.21808 713.4482C 66.21808 714.0221 65.69501 714.4166 65.20483 714.6318L65.20483 714.6318L61.41205 716.2547C 61.18494 716.3503 60.81732 716.5147 60.7934 717.0886L60.7934 717.0886L60.51544 717.0886C 60.55127 716.8016 60.5423 716.5147 60.5423 716.4071C 60.5423 716.1561 60.53931 715.8781 60.51544 715.6271L60.51544 715.6271L60.7934 715.6271C 60.81732 716.0336 61.13409 716.0395 61.16998 716.0395C 61.27759 716.0395 61.35828 716.0037 61.42999 715.9678L61.42999 715.9678L63.56403 715.0622z" stroke="none" fill="#000000" fill-rule="evenodd" /><path id="148" transform="matrix(1 0 0 -1 0 792)" d="M66.51398 723.4135C 66.46613 723.4135 66.43921 723.3806 66.37946 723.3328C 65.31543 722.1732 63.71643 721.8264 62.13837 721.8264C 60.75153 721.8264 59.06885 722.0924 57.86139 723.3597C 57.8255 723.3956 57.80157 723.4135 57.75378 723.4135C 57.69397 723.4135 57.65515 723.3657 57.65515 723.3059C 57.65515 723.1983 58.30969 722.3853 59.27808 721.9071C 60.13885 721.4767 61.06537 721.2615 62.12939 721.2615C 62.77496 721.2615 63.8031 721.3333 64.85516 721.8354C 65.95502 722.3615 66.61255 723.1983 66.61255 723.3059C 66.61255 723.3657 66.57373 723.4135 66.51398 723.4135z" stroke="none" fill="#000000" fill-rule="evenodd" /><path id="149" transform="matrix(1 0 0 -1 0 792)" d="M61.17896 726.059C 61.0235 726.0948 60.71271 726.1845 60.67682 726.1845C 60.53339 726.1845 60.41681 726.062 60.41681 725.9066C 60.41681 725.6196 60.6828 725.5419 60.76648 725.5299L60.76648 725.5299L65.85938 724.2477C 65.97894 724.2119 65.99689 724.2119 66.05664 724.2119C 66.20013 724.2119 66.31671 724.3105 66.31671 724.4899C 66.31671 724.7767 66.04468 724.8395 65.91321 724.8754L65.91321 724.8754L64.20959 725.3058C 64.40088 725.533 64.47858 725.8946 64.47858 726.1935C 64.47858 726.5162 64.38293 726.9467 63.83301 727.4129C 64.31122 727.5205 64.47858 727.9359 64.47858 728.2468C 64.47858 728.4978 64.36798 728.725 63.98541 728.9282C 63.69849 729.0836 63.13361 729.2151 63.09778 729.2151C 63.06189 729.2151 62.99017 729.1823 62.99017 729.0986C 62.99017 728.991 63.03796 728.982 63.20532 728.9462C 63.99438 728.7429 64.25439 728.5486 64.25439 728.2737C 64.25439 728.0465 64.04523 727.9957 63.84198 727.9957C 63.67456 727.9957 63.50122 728.0375 63.17847 728.1212L63.17847 728.1212L62.25488 728.3454L62.25488 728.3454L61.45691 728.5516C 61.22974 728.5994 60.81134 728.713 60.77545 728.713C 60.66785 728.713 60.51544 728.6263 60.51544 728.4351C 60.51544 728.1481 60.75751 728.0824 61.00861 728.0226L61.00861 728.0226L61.75281 727.8343C 62.11145 727.7386 63.15753 727.4816 63.38464 727.4219C 63.42053 727.4099 64.25439 726.9705 64.25439 726.2293C 64.25439 725.5479 63.63275 725.5568 63.46539 725.5568C 63.26215 725.5568 63.1037 725.5748 62.6853 725.6824z" stroke="none" fill="#000000" fill-rule="evenodd" /><path id="150" transform="matrix(1 0 0 -1 0 792)" d="M62.12939 732.1579C 61.40009 732.1579 60.41681 732.0503 59.41254 731.584C 58.31268 731.0461 57.65515 730.2212 57.65515 730.1136C 57.65515 730.0179 57.72986 730.006 57.75378 730.006C 57.80157 730.006 57.82849 730.015 57.88824 730.0867C 58.35455 730.6007 59.58295 731.593 62.12939 731.593C 63.42053 731.593 65.18689 731.351 66.40637 730.0598C 66.43024 730.0359 66.46613 730.006 66.51398 730.006C 66.53784 730.006 66.61255 730.0179 66.61255 730.1136C 66.61255 730.2212 65.95801 731.0222 64.98969 731.5123C 64.12891 731.9427 63.20532 732.1579 62.12939 732.1579z" stroke="none" fill="#000000" fill-rule="evenodd" /></g></g></svg>