<svg xmlns="http://www.w3.org/2000/svg" xmlns:xlink="http://www.w3.org/1999/xlink" id="body_3" preserveAspectRatio="xMinYMin meet" viewBox="0 0 1056 816"><defs><clipPath id="1"><path id="" clip-rule="evenodd" transform="matrix(1 0 0 1 0 0)" d="M792 612L0 612L0 612L0 0L0 0L792 0L792 0L792 612z" /></clipPath><clipPath id="2"><path id="" clip-rule="evenodd" transform="matrix(1 0 0 1 0 0)" d="M0 612L792 612L792 612L792 0L792 0L0 0z" /></clipPath><clipPath id="3"><path id="" clip-rule="evenodd" transform="matrix(1 0 0 1 0 0)" d="M0 612L792 612L792 612L792 0L792 0L0 0z" /></clipPath><clipPath id="4"><path id="" clip-rule="evenodd" transform="matrix(1 0 0 1 0 0)" d="M792 612L792 0L792 0L0 0L0 0L0 612z" /></clipPath><clipPath id="5"><path id="" clip-rule="evenodd" transform="matrix(1 0 0 1 0 0)" d="M0 612L792 612L792 612L792 0L792 0L0 0z" /></clipPath><clipPath id="6"><path id="" clip-rule="evenodd" transform="matrix(1 0 0 1 0 0)" d="M0 612L792 612L792 612L792 0L792 0L0 0z" /></clipPath><clipPath id="7"><path id="" clip-rule="evenodd" transform="matrix(1 0 0 1 0 0)" d="M792 612L792 0L792 0L0 0L0 0L0 612z" /></clipPath><clipPath id="8"><path id="" clip-rule="evenodd" transform="matrix(1 0 0 1 0 0)" d="M0 612L792 612L792 612L792 0L792 0L0 0z" /></clipPath><clipPath id="9"><path id="" clip-rule="evenodd" transform="matrix(1 0 0 1 0 0)" d="M0 612L792 612L792 612L792 0L792 0L0 0z" /></clipPath><clipPath id="10"><path id="" clip-rule="evenodd" transform="matrix(1 0 0 1 0 0)" d="M792 612L792 0L792 0L0 0L0 0L0 612z" /></clipPath><clipPath id="11"><path id="" clip-rule="evenodd" transform="matrix(1 0 0 1 0 0)" d="M0 612L792 612L792 612L792 0L792 0L0 0z" /></clipPath><clipPath id="12"><path id="" clip-rule="evenodd" transform="matrix(1 0 0 1 0 0)" d="M0 612L792 612L792 612L792 0L792 0L0 0z" /></clipPath><clipPath id="13"><path id="" clip-rule="evenodd" transform="matrix(1 0 0 1 0 0)" d="M792 612L792 0L792 0L0 0L0 0L0 612z" /></clipPath><clipPath id="14"><path id="" clip-rule="evenodd" transform="matrix(1 0 0 1 0 0)" d="M0 612L792 612L792 612L792 0L792 0L0 0z" /></clipPath><clipPath id="15"><path id="" clip-rule="evenodd" transform="matrix(1 0 0 1 0 0)" d="M0 612L792 612L792 612L792 0L792 0L0 0z" /></clipPath><clipPath id="16"><path id="" clip-rule="evenodd" transform="matrix(1 0 0 1 0 0)" d="M792 612L792 0L792 0L0 0L0 0L0 612z" /></clipPath><clipPath id="17"><path id="" clip-rule="evenodd" transform="matrix(1 0 0 1 0 0)" d="M0 612L792 612L792 612L792 0L792 0L0 0z" /></clipPath><clipPath id="18"><path id="" clip-rule="evenodd" transform="matrix(1 0 0 1 0 0)" d="M0 612L792 612L792 612L792 0L792 0L0 0z" /></clipPath><clipPath id="19"><path id="" clip-rule="evenodd" transform="matrix(1 0 0 1 0 0)" d="M792 612L792 0L792 0L0 0L0 0L0 612z" /></clipPath><clipPath id="20"><path id="" clip-rule="evenodd" transform="matrix(1 0 0 1 0 0)" d="M0 612L792 612L792 612L792 0L792 0L0 0z" /></clipPath><clipPath id="21"><path id="" clip-rule="evenodd" transform="matrix(1 0 0 1 0 0)" d="M0 612L792 612L792 612L792 0L792 0L0 0z" /></clipPath><clipPath id="22"><path id="" clip-rule="evenodd" transform="matrix(1 0 0 1 0 0)" d="M792 612L792 0L792 0L0 0L0 0L0 612z" /></clipPath><clipPath id="23"><path id="" clip-rule="evenodd" transform="matrix(1 0 0 1 0 0)" d="M0 612L792 612L792 612L792 0L792 0L0 0z" /></clipPath><clipPath id="24"><path id="" clip-rule="evenodd" transform="matrix(1 0 0 1 0 0)" d="M0 612L792 612L792 612L792 0L792 0L0 0z" /></clipPath><clipPath id="25"><path id="" clip-rule="evenodd" transform="matrix(1 0 0 1 0 0)" d="M792 612L792 0L792 0L0 0L0 0L0 612z" /></clipPath><clipPath id="26"><path id="" clip-rule="evenodd" transform="matrix(1 0 0 1 0 0)" d="M0 612L792 612L792 612L792 0L792 0L0 0z" /></clipPath><clipPath id="27"><path id="" clip-rule="evenodd" transform="matrix(1 0 0 1 0 0)" d="M0 612L792 612L792 612L792 0L792 0L0 0z" /></clipPath><clipPath id="28"><path id="" clip-rule="evenodd" transform="matrix(1 0 0 1 0 0)" d="M792 612L792 0L792 0L0 0L0 0L0 612z" /></clipPath><clipPath id="29"><path id="" clip-rule="evenodd" transform="matrix(1 0 0 1 0 0)" d="M0 612L792 612L792 612L792 0L792 0L0 0z" /></clipPath><clipPath id="30"><path id="" clip-rule="evenodd" transform="matrix(1 0 0 1 0 0)" d="M0 612L792 612L792 612L792 0L792 0L0 0z" /></clipPath><clipPath id="31"><path id="" clip-rule="evenodd" transform="matrix(1 0 0 1 0 0)" d="M792 612L792 0L792 0L0 0L0 0L0 612z" /></clipPath><clipPath id="32"><path id="" clip-rule="evenodd" transform="matrix(1 0 0 1 0 0)" d="M0 612L792 612L792 612L792 0L792 0L0 0z" /></clipPath><clipPath id="33"><path id="" clip-rule="evenodd" transform="matrix(1 0 0 1 0 0)" d="M0 612L792 612L792 612L792 0L792 0L0 0z" /></clipPath><clipPath id="34"><path id="" clip-rule="evenodd" transform="matrix(1 0 0 1 0 0)" d="M792 612L792 0L792 0L0 0L0 0L0 612z" /></clipPath><clipPath id="35"><path id="" clip-rule="evenodd" transform="matrix(1 0 0 1 0 0)" d="M0 612L792 612L792 612L792 0L792 0L0 0z" /></clipPath><clipPath id="36"><path id="" clip-rule="evenodd" transform="matrix(1 0 0 1 0 0)" d="M0 612L792 612L792 612L792 0L792 0L0 0z" /></clipPath><clipPath id="37"><path id="" clip-rule="evenodd" transform="matrix(1 0 0 1 0 0)" d="M792 612L792 0L792 0L0 0L0 0L0 612z" /></clipPath><clipPath id="38"><path id="" clip-rule="evenodd" transform="matrix(1 0 0 1 0 0)" d="M0 612L792 612L792 612L792 0L792 0L0 0z" /></clipPath><clipPath id="39"><path id="" clip-rule="evenodd" transform="matrix(1 0 0 1 0 0)" d="M0 612L792 612L792 612L792 0L792 0L0 0z" /></clipPath><clipPath id="40"><path id="" clip-rule="evenodd" transform="matrix(1 0 0 1 0 0)" d="M792 612L792 0L792 0L0 0L0 0L0 612z" /></clipPath><clipPath id="41"><path id="" clip-rule="evenodd" transform="matrix(1 0 0 1 0 0)" d="M0 612L792 612L792 612L792 0L792 0L0 0z" /></clipPath><clipPath id="42"><path id="" clip-rule="evenodd" transform="matrix(1 0 0 1 0 0)" d="M0 612L792 612L792 612L792 0L792 0L0 0z" /></clipPath><clipPath id="43"><path id="" clip-rule="evenodd" transform="matrix(1 0 0 1 0 0)" d="M792 612L792 0L792 0L0 0L0 0L0 612z" /></clipPath><clipPath id="44"><path id="" clip-rule="evenodd" transform="matrix(1 0 0 1 0 0)" d="M0 612L792 612L792 612L792 0L792 0L0 0z" /></clipPath><clipPath id="45"><path id="" clip-rule="evenodd" transform="matrix(1 0 0 1 0 0)" d="M0 612L792 612L792 612L792 0L792 0L0 0z" /></clipPath><clipPath id="46"><path id="" clip-rule="evenodd" transform="matrix(1 0 0 1 0 0)" d="M792 612L792 0L792 0L0 0L0 0L0 612z" /></clipPath><clipPath id="47"><path id="" clip-rule="evenodd" transform="matrix(1 0 0 1 0 0)" d="M0 612L792 612L792 612L792 0L792 0L0 0z" /></clipPath><clipPath id="48"><path id="" clip-rule="evenodd" transform="matrix(1 0 0 1 0 0)" d="M0 612L792 612L792 612L792 0L792 0L0 0z" /></clipPath><clipPath id="49"><path id="" clip-rule="evenodd" transform="matrix(1 0 0 1 0 0)" d="M792 612L792 0L792 0L0 0L0 0L0 612z" /></clipPath><clipPath id="50"><path id="" clip-rule="evenodd" transform="matrix(1 0 0 1 0 0)" d="M0 612L792 612L792 612L792 0L792 0L0 0z" /></clipPath><clipPath id="51"><path id="" clip-rule="evenodd" transform="matrix(1 0 0 1 0 0)" d="M0 612L792 612L792 612L792 0L792 0L0 0z" /></clipPath><clipPath id="52"><path id="" clip-rule="evenodd" transform="matrix(1 0 0 1 0 0)" d="M792 612L792 0L792 0L0 0L0 0L0 612z" /></clipPath><clipPath id="53"><path id="" clip-rule="evenodd" transform="matrix(1 0 0 1 0 0)" d="M0 612L792 612L792 612L792 0L792 0L0 0z" /></clipPath><clipPath id="54"><path id="" clip-rule="evenodd" transform="matrix(1 0 0 1 0 0)" d="M0 612L792 612L792 612L792 0L792 0L0 0z" /></clipPath><clipPath id="55"><path id="" clip-rule="evenodd" transform="matrix(1 0 0 1 0 0)" d="M792 612L792 0L792 0L0 0L0 0L0 612z" /></clipPath><clipPath id="56"><path id="" clip-rule="evenodd" transform="matrix(1 0 0 1 0 0)" d="M0 612L792 612L792 612L792 0L792 0L0 0z" /></clipPath><clipPath id="57"><path id="" clip-rule="evenodd" transform="matrix(1 0 0 1 0 0)" d="M0 612L792 612L792 612L792 0L792 0L0 0z" /></clipPath><clipPath id="58"><path id="" clip-rule="evenodd" transform="matrix(1 0 0 1 0 0)" d="M792 612L792 0L792 0L0 0L0 0L0 612z" /></clipPath><clipPath id="59"><path id="" clip-rule="evenodd" transform="matrix(1 0 0 1 0 0)" d="M0 612L792 612L792 612L792 0L792 0L0 0z" /></clipPath><clipPath id="60"><path id="" clip-rule="evenodd" transform="matrix(1 0 0 1 0 0)" d="M0 612L792 612L792 612L792 0L792 0L0 0z" /></clipPath><clipPath id="61"><path id="" clip-rule="evenodd" transform="matrix(1 0 0 1 0 0)" d="M792 612L792 0L792 0L0 0L0 0L0 612z" /></clipPath><clipPath id="62"><path id="" clip-rule="evenodd" transform="matrix(1 0 0 1 0 0)" d="M0 612L792 612L792 612L792 0L792 0L0 0z" /></clipPath><clipPath id="63"><path id="" clip-rule="evenodd" transform="matrix(1 0 0 1 0 0)" d="M0 612L792 612L792 612L792 0L792 0L0 0z" /></clipPath><clipPath id="64"><path id="" clip-rule="evenodd" transform="matrix(1 0 0 1 0 0)" d="M792 612L792 0L792 0L0 0L0 0L0 612z" /></clipPath><clipPath id="65"><path id="" clip-rule="evenodd" transform="matrix(1 0 0 1 0 0)" d="M0 612L792 612L792 612L792 0L792 0L0 0z" /></clipPath><clipPath id="66"><path id="" clip-rule="evenodd" transform="matrix(1 0 0 1 0 0)" d="M0 612L792 612L792 612L792 0L792 0L0 0z" /></clipPath><clipPath id="67"><path id="" clip-rule="evenodd" transform="matrix(1 0 0 1 0 0)" d="M792 612L792 0L792 0L0 0L0 0L0 612z" /></clipPath><clipPath id="68"><path id="" clip-rule="evenodd" transform="matrix(1 0 0 1 0 0)" d="M0 612L792 612L792 612L792 0L792 0L0 0z" /></clipPath><clipPath id="69"><path id="" clip-rule="evenodd" transform="matrix(1 0 0 1 0 0)" d="M0 612L792 612L792 612L792 0L792 0L0 0z" /></clipPath><clipPath id="70"><path id="" clip-rule="evenodd" transform="matrix(1 0 0 1 0 0)" d="M792 612L792 0L792 0L0 0L0 0L0 612z" /></clipPath><clipPath id="71"><path id="" clip-rule="evenodd" transform="matrix(1 0 0 1 0 0)" d="M0 612L792 612L792 612L792 0L792 0L0 0z" /></clipPath><clipPath id="72"><path id="" clip-rule="evenodd" transform="matrix(1 0 0 1 0 0)" d="M0 612L792 612L792 612L792 0L792 0L0 0z" /></clipPath><clipPath id="73"><path id="" clip-rule="evenodd" transform="matrix(1 0 0 1 0 0)" d="M792 612L792 0L792 0L0 0L0 0L0 612z" /></clipPath><clipPath id="74"><path id="" clip-rule="evenodd" transform="matrix(1 0 0 1 0 0)" d="M0 612L792 612L792 612L792 0L792 0L0 0z" /></clipPath><clipPath id="75"><path id="" clip-rule="evenodd" transform="matrix(1 0 0 1 0 0)" d="M0 612L792 612L792 612L792 0L792 0L0 0z" /></clipPath><clipPath id="76"><path id="" clip-rule="evenodd" transform="matrix(1 0 0 1 0 0)" d="M792 612L792 0L792 0L0 0L0 0L0 612z" /></clipPath><clipPath id="77"><path id="" clip-rule="evenodd" transform="matrix(1 0 0 1 0 0)" d="M0 612L792 612L792 612L792 0L792 0L0 0z" /></clipPath><clipPath id="78"><path id="" clip-rule="evenodd" transform="matrix(1 0 0 1 0 0)" d="M0 612L792 612L792 612L792 0L792 0L0 0z" /></clipPath><clipPath id="79"><path id="" clip-rule="evenodd" transform="matrix(1 0 0 1 0 0)" d="M792 612L792 0L792 0L0 0L0 0L0 612z" /></clipPath><clipPath id="80"><path id="" clip-rule="evenodd" transform="matrix(1 0 0 1 0 0)" d="M0 612L792 612L792 612L792 0L792 0L0 0z" /></clipPath><clipPath id="81"><path id="" clip-rule="evenodd" transform="matrix(1 0 0 1 0 0)" d="M0 612L792 612L792 612L792 0L792 0L0 0z" /></clipPath><clipPath id="82"><path id="" clip-rule="evenodd" transform="matrix(1 0 0 1 0 0)" d="M792 612L792 0L792 0L0 0L0 0L0 612z" /></clipPath><clipPath id="83"><path id="" clip-rule="evenodd" transform="matrix(1 0 0 1 0 0)" d="M0 612L792 612L792 612L792 0L792 0L0 0z" /></clipPath><clipPath id="84"><path id="" clip-rule="evenodd" transform="matrix(1 0 0 1 0 0)" d="M0 612L792 612L792 612L792 0L792 0L0 0z" /></clipPath><clipPath id="85"><path id="" clip-rule="evenodd" transform="matrix(1 0 0 1 0 0)" d="M792 612L792 0L792 0L0 0L0 0L0 612z" /></clipPath><clipPath id="86"><path id="" clip-rule="evenodd" transform="matrix(1 0 0 1 0 0)" d="M0 612L792 612L792 612L792 0L792 0L0 0z" /></clipPath><clipPath id="87"><path id="" clip-rule="evenodd" transform="matrix(1 0 0 1 0 0)" d="M0 612L792 612L792 612L792 0L792 0L0 0z" /></clipPath><clipPath id="88"><path id="" clip-rule="evenodd" transform="matrix(1 0 0 1 0 0)" d="M792 612L792 0L792 0L0 0L0 0L0 612z" /></clipPath><clipPath id="89"><path id="" clip-rule="evenodd" transform="matrix(1 0 0 1 0 0)" d="M0 612L792 612L792 612L792 0L792 0L0 0z" /></clipPath><clipPath id="90"><path id="" clip-rule="evenodd" transform="matrix(1 0 0 1 0 0)" d="M0 612L792 612L792 612L792 0L792 0L0 0z" /></clipPath><clipPath id="91"><path id="" clip-rule="evenodd" transform="matrix(1 0 0 1 0 0)" d="M792 612L792 0L792 0L0 0L0 0L0 612z" /></clipPath><clipPath id="92"><path id="" clip-rule="evenodd" transform="matrix(1 0 0 1 0 0)" d="M0 612L792 612L792 612L792 0L792 0L0 0z" /></clipPath><clipPath id="93"><path id="" clip-rule="evenodd" transform="matrix(1 0 0 1 0 0)" d="M0 612L792 612L792 612L792 0L792 0L0 0z" /></clipPath><clipPath id="94"><path id="" clip-rule="evenodd" transform="matrix(1 0 0 1 0 0)" d="M792 612L792 0L792 0L0 0L0 0L0 612z" /></clipPath><clipPath id="95"><path id="" clip-rule="evenodd" transform="matrix(1 0 0 1 0 0)" d="M0 612L792 612L792 612L792 0L792 0L0 0z" /></clipPath><clipPath id="96"><path id="" clip-rule="evenodd" transform="matrix(1 0 0 1 0 0)" d="M0 612L792 612L792 612L792 0L792 0L0 0z" /></clipPath><clipPath id="97"><path id="" clip-rule="evenodd" transform="matrix(1 0 0 1 0 0)" d="M792 612L792 0L792 0L0 0L0 0L0 612z" /></clipPath><clipPath id="98"><path id="" clip-rule="evenodd" transform="matrix(1 0 0 1 0 0)" d="M0 612L792 612L792 612L792 0L792 0L0 0z" /></clipPath><clipPath id="99"><path id="" clip-rule="evenodd" transform="matrix(1 0 0 1 0 0)" d="M0 612L792 612L792 612L792 0L792 0L0 0z" /></clipPath><clipPath id="100"><path id="" clip-rule="evenodd" transform="matrix(1 0 0 1 0 0)" d="M792 612L792 0L792 0L0 0L0 0L0 612z" /></clipPath><clipPath id="101"><path id="" clip-rule="evenodd" transform="matrix(1 0 0 1 0 0)" d="M0 612L792 612L792 612L792 0L792 0L0 0z" /></clipPath><clipPath id="102"><path id="" clip-rule="evenodd" transform="matrix(1 0 0 1 0 0)" d="M0 612L792 612L792 612L792 0L792 0L0 0z" /></clipPath><clipPath id="103"><path id="" clip-rule="evenodd" transform="matrix(1 0 0 1 0 0)" d="M792 612L792 0L792 0L0 0L0 0L0 612z" /></clipPath><clipPath id="104"><path id="" clip-rule="evenodd" transform="matrix(1 0 0 1 0 0)" d="M0 612L792 612L792 612L792 0L792 0L0 0z" /></clipPath><clipPath id="105"><path id="" clip-rule="evenodd" transform="matrix(1 0 0 1 0 0)" d="M0 612L792 612L792 612L792 0L792 0L0 0z" /></clipPath><clipPath id="106"><path id="" clip-rule="evenodd" transform="matrix(1 0 0 1 0 0)" d="M792 612L792 0L792 0L0 0L0 0L0 612z" /></clipPath><clipPath id="107"><path id="" clip-rule="evenodd" transform="matrix(1 0 0 1 0 0)" d="M0 612L792 612L792 612L792 0L792 0L0 0z" /></clipPath><clipPath id="108"><path id="" clip-rule="evenodd" transform="matrix(1 0 0 1 0 0)" d="M0 612L792 612L792 612L792 0L792 0L0 0z" /></clipPath><clipPath id="109"><path id="" clip-rule="evenodd" transform="matrix(1 0 0 1 0 0)" d="M792 612L792 0L792 0L0 0L0 0L0 612z" /></clipPath><clipPath id="110"><path id="" clip-rule="evenodd" transform="matrix(1 0 0 1 0 0)" d="M0 612L792 612L792 612L792 0L792 0L0 0z" /></clipPath><clipPath id="111"><path id="" clip-rule="evenodd" transform="matrix(1 0 0 1 0 0)" d="M0 612L792 612L792 612L792 0L792 0L0 0z" /></clipPath><clipPath id="112"><path id="" clip-rule="evenodd" transform="matrix(1 0 0 1 0 0)" d="M792 612L792 0L792 0L0 0L0 0L0 612z" /></clipPath><clipPath id="113"><path id="" clip-rule="evenodd" transform="matrix(1 0 0 1 0 0)" d="M0 612L792 612L792 612L792 0L792 0L0 0z" /></clipPath><clipPath id="114"><path id="" clip-rule="evenodd" transform="matrix(1 0 0 1 0 0)" d="M0 612L792 612L792 612L792 0L792 0L0 0z" /></clipPath><clipPath id="115"><path id="" clip-rule="evenodd" transform="matrix(1 0 0 1 0 0)" d="M792 612L792 0L792 0L0 0L0 0L0 612z" /></clipPath><clipPath id="116"><path id="" clip-rule="evenodd" transform="matrix(1 0 0 1 0 0)" d="M0 612L792 612L792 612L792 0L792 0L0 0z" /></clipPath><clipPath id="117"><path id="" clip-rule="evenodd" transform="matrix(1 0 0 1 0 0)" d="M0 612L792 612L792 612L792 0L792 0L0 0z" /></clipPath><clipPath id="118"><path id="" clip-rule="evenodd" transform="matrix(1 0 0 1 0 0)" d="M792 612L792 0L792 0L0 0L0 0L0 612z" /></clipPath><clipPath id="119"><path id="" clip-rule="evenodd" transform="matrix(1 0 0 1 0 0)" d="M0 612L792 612L792 612L792 0L792 0L0 0z" /></clipPath><clipPath id="120"><path id="" clip-rule="evenodd" transform="matrix(1 0 0 1 0 0)" d="M0 612L792 612L792 612L792 0L792 0L0 0z" /></clipPath><clipPath id="121"><path id="" clip-rule="evenodd" transform="matrix(1 0 0 1 0 0)" d="M792 612L792 0L792 0L0 0L0 0L0 612z" /></clipPath><clipPath id="122"><path id="" clip-rule="evenodd" transform="matrix(1 0 0 1 0 0)" d="M0 612L792 612L792 612L792 0L792 0L0 0z" /></clipPath><clipPath id="123"><path id="" clip-rule="evenodd" transform="matrix(1 0 0 1 0 0)" d="M0 612L792 612L792 612L792 0L792 0L0 0z" /></clipPath><clipPath id="124"><path id="" clip-rule="evenodd" transform="matrix(1 0 0 1 0 0)" d="M792 612L792 0L792 0L0 0L0 0L0 612z" /></clipPath><clipPath id="125"><path id="" clip-rule="evenodd" transform="matrix(1 0 0 1 0 0)" d="M0 612L792 612L792 612L792 0L792 0L0 0z" /></clipPath><clipPath id="126"><path id="" clip-rule="evenodd" transform="matrix(1 0 0 1 0 0)" d="M0 612L792 612L792 612L792 0L792 0L0 0z" /></clipPath><clipPath id="127"><path id="" clip-rule="evenodd" transform="matrix(1 0 0 1 0 0)" d="M792 612L792 0L792 0L0 0L0 0L0 612z" /></clipPath><clipPath id="128"><path id="" clip-rule="evenodd" transform="matrix(1 0 0 1 0 0)" d="M0 612L792 612L792 612L792 0L792 0L0 0z" /></clipPath><clipPath id="129"><path id="" clip-rule="evenodd" transform="matrix(1 0 0 1 0 0)" d="M0 612L792 612L792 612L792 0L792 0L0 0z" /></clipPath><clipPath id="130"><path id="" clip-rule="evenodd" transform="matrix(1 0 0 1 0 0)" d="M792 612L792 0L792 0L0 0L0 0L0 612z" /></clipPath><clipPath id="131"><path id="" clip-rule="evenodd" transform="matrix(1 0 0 1 0 0)" d="M0 612L792 612L792 612L792 0L792 0L0 0z" /></clipPath><clipPath id="132"><path id="" clip-rule="evenodd" transform="matrix(1 0 0 1 0 0)" d="M0 612L792 612L792 612L792 0L792 0L0 0z" /></clipPath><clipPath id="133"><path id="" clip-rule="evenodd" transform="matrix(1 0 0 1 0 0)" d="M792 612L792 0L792 0L0 0L0 0L0 612z" /></clipPath><clipPath id="134"><path id="" clip-rule="evenodd" transform="matrix(1 0 0 1 0 0)" d="M0 612L792 612L792 612L792 0L792 0L0 0z" /></clipPath><clipPath id="135"><path id="" clip-rule="evenodd" transform="matrix(1 0 0 1 0 0)" d="M0 612L792 612L792 612L792 0L792 0L0 0z" /></clipPath><clipPath id="136"><path id="" clip-rule="evenodd" transform="matrix(1 0 0 1 0 0)" d="M792 612L792 0L792 0L0 0L0 0L0 612z" /></clipPath><clipPath id="137"><path id="" clip-rule="evenodd" transform="matrix(1 0 0 1 0 0)" d="M0 612L792 612L792 612L792 0L792 0L0 0z" /></clipPath><clipPath id="138"><path id="" clip-rule="evenodd" transform="matrix(1 0 0 1 0 0)" d="M0 612L792 612L792 612L792 0L792 0L0 0z" /></clipPath><clipPath id="139"><path id="" clip-rule="evenodd" transform="matrix(1 0 0 1 0 0)" d="M792 612L792 0L792 0L0 0L0 0L0 612z" /></clipPath><clipPath id="140"><path id="" clip-rule="evenodd" transform="matrix(1 0 0 1 0 0)" d="M0 612L792 612L792 612L792 0L792 0L0 0z" /></clipPath><clipPath id="141"><path id="" clip-rule="evenodd" transform="matrix(1 0 0 1 0 0)" d="M0 612L792 612L792 612L792 0L792 0L0 0z" /></clipPath><clipPath id="142"><path id="" clip-rule="evenodd" transform="matrix(1 0 0 1 0 0)" d="M792 612L792 0L792 0L0 0L0 0L0 612z" /></clipPath><clipPath id="143"><path id="" clip-rule="evenodd" transform="matrix(1 0 0 1 0 0)" d="M0 612L792 612L792 612L792 0L792 0L0 0z" /></clipPath><clipPath id="144"><path id="" clip-rule="evenodd" transform="matrix(1 0 0 1 0 0)" d="M0 612L792 612L792 612L792 0L792 0L0 0z" /></clipPath><clipPath id="145"><path id="" clip-rule="evenodd" transform="matrix(1 0 0 1 0 0)" d="M792 612L792 0L792 0L0 0L0 0L0 612z" /></clipPath><clipPath id="146"><path id="" clip-rule="evenodd" transform="matrix(1 0 0 1 0 0)" d="M0 612L792 612L792 612L792 0L792 0L0 0z" /></clipPath><clipPath id="147"><path id="" clip-rule="evenodd" transform="matrix(1 0 0 1 0 0)" d="M0 612L792 612L792 612L792 0L792 0L0 0z" /></clipPath><clipPath id="148"><path id="" clip-rule="evenodd" transform="matrix(1 0 0 1 0 0)" d="M792 612L792 0L792 0L0 0L0 0L0 612z" /></clipPath><clipPath id="149"><path id="" clip-rule="evenodd" transform="matrix(1 0 0 1 0 0)" d="M0 612L792 612L792 612L792 0L792 0L0 0z" /></clipPath><clipPath id="150"><path id="" clip-rule="evenodd" transform="matrix(1 0 0 1 0 0)" d="M0 612L792 612L792 612L792 0L792 0L0 0z" /></clipPath><clipPath id="151"><path id="" clip-rule="evenodd" transform="matrix(1 0 0 1 0 0)" d="M792 612L792 0L792 0L0 0L0 0L0 612z" /></clipPath><clipPath id="152"><path id="" clip-rule="evenodd" transform="matrix(1 0 0 1 0 0)" d="M0 612L792 612L792 612L792 0L792 0L0 0z" /></clipPath><clipPath id="153"><path id="" clip-rule="evenodd" transform="matrix(1 0 0 1 0 0)" d="M0 612L792 612L792 612L792 0L792 0L0 0z" /></clipPath><clipPath id="154"><path id="" clip-rule="evenodd" transform="matrix(1 0 0 1 0 0)" d="M792 612L792 0L792 0L0 0L0 0L0 612z" /></clipPath><clipPath id="155"><path id="" clip-rule="evenodd" transform="matrix(1 0 0 1 0 0)" d="M0 612L792 612L792 612L792 0L792 0L0 0z" /></clipPath><clipPath id="156"><path id="" clip-rule="evenodd" transform="matrix(1 0 0 1 0 0)" d="M0 612L792 612L792 612L792 0L792 0L0 0z" /></clipPath><clipPath id="157"><path id="" clip-rule="evenodd" transform="matrix(1 0 0 1 0 0)" d="M792 612L792 0L792 0L0 0L0 0L0 612z" /></clipPath><clipPath id="158"><path id="" clip-rule="evenodd" transform="matrix(1 0 0 1 0 0)" d="M0 612L792 612L792 612L792 0L792 0L0 0z" /></clipPath><clipPath id="159"><path id="" clip-rule="evenodd" transform="matrix(1 0 0 1 0 0)" d="M0 612L792 612L792 612L792 0L792 0L0 0z" /></clipPath><clipPath id="160"><path id="" clip-rule="evenodd" transform="matrix(1 0 0 1 0 0)" d="M792 612L792 0L792 0L0 0L0 0L0 612z" /></clipPath><clipPath id="161"><path id="" clip-rule="evenodd" transform="matrix(1 0 0 1 0 0)" d="M0 612L792 612L792 612L792 0L792 0L0 0z" /></clipPath><clipPath id="162"><path id="" clip-rule="evenodd" transform="matrix(1 0 0 1 0 0)" d="M0 612L792 612L792 612L792 0L792 0L0 0z" /></clipPath><clipPath id="163"><path id="" clip-rule="evenodd" transform="matrix(1 0 0 1 0 0)" d="M792 612L792 0L792 0L0 0L0 0L0 612z" /></clipPath><clipPath id="164"><path id="" clip-rule="evenodd" transform="matrix(1 0 0 1 0 0)" d="M0 612L792 612L792 612L792 0L792 0L0 0z" /></clipPath><clipPath id="165"><path id="" clip-rule="evenodd" transform="matrix(1 0 0 1 0 0)" d="M0 612L792 612L792 612L792 0L792 0L0 0z" /></clipPath><clipPath id="166"><path id="" clip-rule="evenodd" transform="matrix(1 0 0 1 0 0)" d="M792 612L792 0L792 0L0 0L0 0L0 612z" /></clipPath><clipPath id="167"><path id="" clip-rule="evenodd" transform="matrix(1 0 0 1 0 0)" d="M0 612L792 612L792 612L792 0L792 0L0 0z" /></clipPath><clipPath id="168"><path id="" clip-rule="evenodd" transform="matrix(1 0 0 1 0 0)" d="M0 612L792 612L792 612L792 0L792 0L0 0z" /></clipPath><clipPath id="169"><path id="" clip-rule="evenodd" transform="matrix(1 0 0 1 0 0)" d="M792 612L792 0L792 0L0 0L0 0L0 612z" /></clipPath><clipPath id="170"><path id="" clip-rule="evenodd" transform="matrix(1 0 0 1 0 0)" d="M0 612L792 612L792 612L792 0L792 0L0 0z" /></clipPath><clipPath id="171"><path id="" clip-rule="evenodd" transform="matrix(1 0 0 1 0 0)" d="M0 612L792 612L792 612L792 0L792 0L0 0z" /></clipPath><clipPath id="172"><path id="" clip-rule="evenodd" transform="matrix(1 0 0 1 0 0)" d="M792 612L792 0L792 0L0 0L0 0L0 612z" /></clipPath><clipPath id="173"><path id="" clip-rule="evenodd" transform="matrix(1 0 0 1 0 0)" d="M0 612L792 612L792 612L792 0L792 0L0 0z" /></clipPath><clipPath id="174"><path id="" clip-rule="evenodd" transform="matrix(1 0 0 1 0 0)" d="M0 612L792 612L792 612L792 0L792 0L0 0z" /></clipPath><clipPath id="175"><path id="" clip-rule="evenodd" transform="matrix(1 0 0 1 0 0)" d="M792 612L792 0L792 0L0 0L0 0L0 612z" /></clipPath><clipPath id="176"><path id="" clip-rule="evenodd" transform="matrix(1 0 0 1 0 0)" d="M0 612L792 612L792 612L792 0L792 0L0 0z" /></clipPath><clipPath id="177"><path id="" clip-rule="evenodd" transform="matrix(1 0 0 1 0 0)" d="M0 612L792 612L792 612L792 0L792 0L0 0z" /></clipPath><clipPath id="178"><path id="" clip-rule="evenodd" transform="matrix(1 0 0 1 0 0)" d="M792 612L792 0L792 0L0 0L0 0L0 612z" /></clipPath><clipPath id="179"><path id="" clip-rule="evenodd" transform="matrix(1 0 0 1 0 0)" d="M0 612L792 612L792 612L792 0L792 0L0 0z" /></clipPath><clipPath id="180"><path id="" clip-rule="evenodd" transform="matrix(1 0 0 1 0 0)" d="M0 612L792 612L792 612L792 0L792 0L0 0z" /></clipPath><clipPath id="181"><path id="" clip-rule="evenodd" transform="matrix(1 0 0 1 0 0)" d="M792 612L792 0L792 0L0 0L0 0L0 612z" /></clipPath><clipPath id="182"><path id="" clip-rule="evenodd" transform="matrix(1 0 0 1 0 0)" d="M0 612L792 612L792 612L792 0L792 0L0 0z" /></clipPath><clipPath id="183"><path id="" clip-rule="evenodd" transform="matrix(1 0 0 1 0 0)" d="M0 612L792 612L792 612L792 0L792 0L0 0z" /></clipPath><clipPath id="184"><path id="" clip-rule="evenodd" transform="matrix(1 0 0 1 0 0)" d="M792 612L792 0L792 0L0 0L0 0L0 612z" /></clipPath><clipPath id="185"><path id="" clip-rule="evenodd" transform="matrix(1 0 0 1 0 0)" d="M0 612L792 612L792 612L792 0L792 0L0 0z" /></clipPath><clipPath id="186"><path id="" clip-rule="evenodd" transform="matrix(1 0 0 1 0 0)" d="M0 612L792 612L792 612L792 0L792 0L0 0z" /></clipPath><clipPath id="187"><path id="" clip-rule="evenodd" transform="matrix(1 0 0 1 0 0)" d="M792 612L792 0L792 0L0 0L0 0L0 612z" /></clipPath><clipPath id="188"><path id="" clip-rule="evenodd" transform="matrix(1 0 0 1 0 0)" d="M0 612L792 612L792 612L792 0L792 0L0 0z" /></clipPath><clipPath id="189"><path id="" clip-rule="evenodd" transform="matrix(1 0 0 1 0 0)" d="M0 612L792 612L792 612L792 0L792 0L0 0z" /></clipPath><clipPath id="190"><path id="" clip-rule="evenodd" transform="matrix(1 0 0 1 0 0)" d="M792 612L792 0L792 0L0 0L0 0L0 612z" /></clipPath><clipPath id="191"><path id="" clip-rule="evenodd" transform="matrix(1 0 0 1 0 0)" d="M0 612L792 612L792 612L792 0L792 0L0 0z" /></clipPath><clipPath id="192"><path id="" clip-rule="evenodd" transform="matrix(1 0 0 1 0 0)" d="M0 612L792 612L792 612L792 0L792 0L0 0z" /></clipPath><clipPath id="193"><path id="" clip-rule="evenodd" transform="matrix(1 0 0 1 0 0)" d="M792 612L792 0L792 0L0 0L0 0L0 612z" /></clipPath><clipPath id="194"><path id="" clip-rule="evenodd" transform="matrix(1 0 0 1 0 0)" d="M0 612L792 612L792 612L792 0L792 0L0 0z" /></clipPath><clipPath id="195"><path id="" clip-rule="evenodd" transform="matrix(1 0 0 1 0 0)" d="M0 612L792 612L792 612L792 0L792 0L0 0z" /></clipPath><clipPath id="196"><path id="" clip-rule="evenodd" transform="matrix(1 0 0 1 0 0)" d="M792 612L792 0L792 0L0 0L0 0L0 612z" /></clipPath><clipPath id="197"><path id="" clip-rule="evenodd" transform="matrix(1 0 0 1 0 0)" d="M0 612L792 612L792 612L792 0L792 0L0 0z" /></clipPath><clipPath id="198"><path id="" clip-rule="evenodd" transform="matrix(1 0 0 1 0 0)" d="M0 612L792 612L792 612L792 0L792 0L0 0z" /></clipPath><clipPath id="199"><path id="" clip-rule="evenodd" transform="matrix(1 0 0 1 0 0)" d="M792 612L792 0L792 0L0 0L0 0L0 612z" /></clipPath><clipPath id="200"><path id="" clip-rule="evenodd" transform="matrix(1 0 0 1 0 0)" d="M0 612L792 612L792 612L792 0L792 0L0 0z" /></clipPath><clipPath id="201"><path id="" clip-rule="evenodd" transform="matrix(1 0 0 1 0 0)" d="M0 612L792 612L792 612L792 0L792 0L0 0z" /></clipPath><clipPath id="202"><path id="" clip-rule="evenodd" transform="matrix(1 0 0 1 0 0)" d="M792 612L792 0L792 0L0 0L0 0L0 612z" /></clipPath><clipPath id="203"><path id="" clip-rule="evenodd" transform="matrix(1 0 0 1 0 0)" d="M0 612L792 612L792 612L792 0L792 0L0 0z" /></clipPath><clipPath id="204"><path id="" clip-rule="evenodd" transform="matrix(1 0 0 1 0 0)" d="M0 612L792 612L792 612L792 0L792 0L0 0z" /></clipPath><clipPath id="205"><path id="" clip-rule="evenodd" transform="matrix(1 0 0 1 0 0)" d="M792 612L792 0L792 0L0 0L0 0L0 612z" /></clipPath><clipPath id="206"><path id="" clip-rule="evenodd" transform="matrix(1 0 0 1 0 0)" d="M0 612L792 612L792 612L792 0L792 0L0 0z" /></clipPath><clipPath id="207"><path id="" clip-rule="evenodd" transform="matrix(1 0 0 1 0 0)" d="M0 612L792 612L792 612L792 0L792 0L0 0z" /></clipPath><clipPath id="208"><path id="" clip-rule="evenodd" transform="matrix(1 0 0 1 0 0)" d="M792 612L792 0L792 0L0 0L0 0L0 612z" /></clipPath><clipPath id="209"><path id="" clip-rule="evenodd" transform="matrix(1 0 0 1 0 0)" d="M0 612L792 612L792 612L792 0L792 0L0 0z" /></clipPath><clipPath id="210"><path id="" clip-rule="evenodd" transform="matrix(1 0 0 1 0 0)" d="M0 612L792 612L792 612L792 0L792 0L0 0z" /></clipPath><clipPath id="211"><path id="" clip-rule="evenodd" transform="matrix(1 0 0 1 0 0)" d="M792 612L792 0L792 0L0 0L0 0L0 612z" /></clipPath><clipPath id="212"><path id="" clip-rule="evenodd" transform="matrix(1 0 0 1 0 0)" d="M0 612L792 612L792 612L792 0L792 0L0 0z" /></clipPath><clipPath id="213"><path id="" clip-rule="evenodd" transform="matrix(1 0 0 1 0 0)" d="M0 612L792 612L792 612L792 0L792 0L0 0z" /></clipPath><clipPath id="214"><path id="" clip-rule="evenodd" transform="matrix(1 0 0 1 0 0)" d="M792 612L792 0L792 0L0 0L0 0L0 612z" /></clipPath><clipPath id="215"><path id="" clip-rule="evenodd" transform="matrix(1 0 0 1 0 0)" d="M0 612L792 612L792 612L792 0L792 0L0 0z" /></clipPath><clipPath id="216"><path id="" clip-rule="evenodd" transform="matrix(1 0 0 1 0 0)" d="M0 612L792 612L792 612L792 0L792 0L0 0z" /></clipPath><clipPath id="217"><path id="" clip-rule="evenodd" transform="matrix(1 0 0 1 0 0)" d="M792 612L792 0L792 0L0 0L0 0L0 612z" /></clipPath><clipPath id="218"><path id="" clip-rule="evenodd" transform="matrix(1 0 0 1 0 0)" d="M0 612L792 612L792 612L792 0L792 0L0 0z" /></clipPath><clipPath id="219"><path id="" clip-rule="evenodd" transform="matrix(1 0 0 1 0 0)" d="M0 612L792 612L792 612L792 0L792 0L0 0z" /></clipPath><clipPath id="220"><path id="" clip-rule="evenodd" transform="matrix(1 0 0 1 0 0)" d="M792 612L792 0L792 0L0 0L0 0L0 612z" /></clipPath><clipPath id="221"><path id="" clip-rule="evenodd" transform="matrix(1 0 0 1 0 0)" d="M0 612L792 612L792 612L792 0L792 0L0 0z" /></clipPath><clipPath id="222"><path id="" clip-rule="evenodd" transform="matrix(1 0 0 1 0 0)" d="M0 612L792 612L792 612L792 0L792 0L0 0z" /></clipPath><clipPath id="223"><path id="" clip-rule="evenodd" transform="matrix(1 0 0 1 0 0)" d="M792 612L792 0L792 0L0 0L0 0L0 612z" /></clipPath><clipPath id="224"><path id="" clip-rule="evenodd" transform="matrix(1 0 0 1 0 0)" d="M0 612L792 612L792 612L792 0L792 0L0 0z" /></clipPath><clipPath id="225"><path id="" clip-rule="evenodd" transform="matrix(1 0 0 1 0 0)" d="M0 612L792 612L792 612L792 0L792 0L0 0z" /></clipPath><clipPath id="226"><path id="" clip-rule="evenodd" transform="matrix(1 0 0 1 0 0)" d="M792 612L792 0L792 0L0 0L0 0L0 612z" /></clipPath><clipPath id="227"><path id="" clip-rule="evenodd" transform="matrix(1 0 0 1 0 0)" d="M0 612L792 612L792 612L792 0L792 0L0 0z" /></clipPath><clipPath id="228"><path id="" clip-rule="evenodd" transform="matrix(1 0 0 1 0 0)" d="M0 612L792 612L792 612L792 0L792 0L0 0z" /></clipPath><clipPath id="229"><path id="" clip-rule="evenodd" transform="matrix(1 0 0 1 0 0)" d="M792 612L792 0L792 0L0 0L0 0L0 612z" /></clipPath><clipPath id="230"><path id="" clip-rule="evenodd" transform="matrix(1 0 0 1 0 0)" d="M0 612L792 612L792 612L792 0L792 0L0 0z" /></clipPath><clipPath id="231"><path id="" clip-rule="evenodd" transform="matrix(1 0 0 1 0 0)" d="M0 612L792 612L792 612L792 0L792 0L0 0z" /></clipPath><clipPath id="232"><path id="" clip-rule="evenodd" transform="matrix(1 0 0 1 0 0)" d="M792 612L792 0L792 0L0 0L0 0L0 612z" /></clipPath><clipPath id="233"><path id="" clip-rule="evenodd" transform="matrix(1 0 0 1 0 0)" d="M0 612L792 612L792 612L792 0L792 0L0 0z" /></clipPath><clipPath id="234"><path id="" clip-rule="evenodd" transform="matrix(1 0 0 1 0 0)" d="M0 612L792 612L792 612L792 0L792 0L0 0z" /></clipPath><clipPath id="235"><path id="" clip-rule="evenodd" transform="matrix(1 0 0 1 0 0)" d="M792 612L792 0L792 0L0 0L0 0L0 612z" /></clipPath><clipPath id="236"><path id="" clip-rule="evenodd" transform="matrix(1 0 0 1 0 0)" d="M0 612L792 612L792 612L792 0L792 0L0 0z" /></clipPath><clipPath id="237"><path id="" clip-rule="evenodd" transform="matrix(1 0 0 1 0 0)" d="M0 612L792 612L792 612L792 0L792 0L0 0z" /></clipPath><clipPath id="238"><path id="" clip-rule="evenodd" transform="matrix(1 0 0 1 0 0)" d="M792 612L792 0L792 0L0 0L0 0L0 612z" /></clipPath><clipPath id="239"><path id="" clip-rule="evenodd" transform="matrix(1 0 0 1 0 0)" d="M0 612L792 612L792 612L792 0L792 0L0 0z" /></clipPath><clipPath id="240"><path id="" clip-rule="evenodd" transform="matrix(1 0 0 1 0 0)" d="M0 612L792 612L792 612L792 0L792 0L0 0z" /></clipPath><clipPath id="241"><path id="" clip-rule="evenodd" transform="matrix(1 0 0 1 0 0)" d="M792 612L792 0L792 0L0 0L0 0L0 612z" /></clipPath><clipPath id="242"><path id="" clip-rule="evenodd" transform="matrix(1 0 0 1 0 0)" d="M0 612L792 612L792 612L792 0L792 0L0 0z" /></clipPath><clipPath id="243"><path id="" clip-rule="evenodd" transform="matrix(1 0 0 1 0 0)" d="M0 612L792 612L792 612L792 0L792 0L0 0z" /></clipPath><clipPath id="244"><path id="" clip-rule="evenodd" transform="matrix(1 0 0 1 0 0)" d="M792 612L792 0L792 0L0 0L0 0L0 612z" /></clipPath><clipPath id="245"><path id="" clip-rule="evenodd" transform="matrix(1 0 0 1 0 0)" d="M0 612L792 612L792 612L792 0L792 0L0 0z" /></clipPath><clipPath id="246"><path id="" clip-rule="evenodd" transform="matrix(1 0 0 1 0 0)" d="M0 612L792 612L792 612L792 0L792 0L0 0z" /></clipPath><clipPath id="247"><path id="" clip-rule="evenodd" transform="matrix(1 0 0 1 0 0)" d="M792 612L792 0L792 0L0 0L0 0L0 612z" /></clipPath><clipPath id="248"><path id="" clip-rule="evenodd" transform="matrix(1 0 0 1 0 0)" d="M0 612L792 612L792 612L792 0L792 0L0 0z" /></clipPath><clipPath id="249"><path id="" clip-rule="evenodd" transform="matrix(1 0 0 1 0 0)" d="M0 612L792 612L792 612L792 0L792 0L0 0z" /></clipPath><clipPath id="250"><path id="" clip-rule="evenodd" transform="matrix(1 0 0 1 0 0)" d="M792 612L792 0L792 0L0 0L0 0L0 612z" /></clipPath><clipPath id="251"><path id="" clip-rule="evenodd" transform="matrix(1 0 0 1 0 0)" d="M0 612L792 612L792 612L792 0L792 0L0 0z" /></clipPath><clipPath id="252"><path id="" clip-rule="evenodd" transform="matrix(1 0 0 1 0 0)" d="M0 612L792 612L792 612L792 0L792 0L0 0z" /></clipPath><clipPath id="253"><path id="" clip-rule="evenodd" transform="matrix(1 0 0 1 0 0)" d="M792 612L792 0L792 0L0 0L0 0L0 612z" /></clipPath><clipPath id="254"><path id="" clip-rule="evenodd" transform="matrix(1 0 0 1 0 0)" d="M0 612L792 612L792 612L792 0L792 0L0 0z" /></clipPath><clipPath id="255"><path id="" clip-rule="evenodd" transform="matrix(1 0 0 1 0 0)" d="M0 612L792 612L792 612L792 0L792 0L0 0z" /></clipPath><clipPath id="256"><path id="" clip-rule="evenodd" transform="matrix(1 0 0 1 0 0)" d="M792 612L792 0L792 0L0 0L0 0L0 612z" /></clipPath><clipPath id="257"><path id="" clip-rule="evenodd" transform="matrix(1 0 0 1 0 0)" d="M0 612L792 612L792 612L792 0L792 0L0 0z" /></clipPath><clipPath id="258"><path id="" clip-rule="evenodd" transform="matrix(1 0 0 1 0 0)" d="M0 612L792 612L792 612L792 0L792 0L0 0z" /></clipPath><clipPath id="259"><path id="" clip-rule="evenodd" transform="matrix(1 0 0 1 0 0)" d="M792 612L792 0L792 0L0 0L0 0L0 612z" /></clipPath><clipPath id="260"><path id="" clip-rule="evenodd" transform="matrix(1 0 0 1 0 0)" d="M0 612L792 612L792 612L792 0L792 0L0 0z" /></clipPath><clipPath id="261"><path id="" clip-rule="evenodd" transform="matrix(1 0 0 1 0 0)" d="M0 612L792 612L792 612L792 0L792 0L0 0z" /></clipPath><clipPath id="262"><path id="" clip-rule="evenodd" transform="matrix(1 0 0 1 0 0)" d="M792 612L792 0L792 0L0 0L0 0L0 612z" /></clipPath><clipPath id="263"><path id="" clip-rule="evenodd" transform="matrix(1 0 0 1 0 0)" d="M0 612L792 612L792 612L792 0L792 0L0 0z" /></clipPath><clipPath id="264"><path id="" clip-rule="evenodd" transform="matrix(1 0 0 1 0 0)" d="M0 612L792 612L792 612L792 0L792 0L0 0z" /></clipPath><clipPath id="265"><path id="" clip-rule="evenodd" transform="matrix(1 0 0 1 0 0)" d="M792 612L792 0L792 0L0 0L0 0L0 612z" /></clipPath><clipPath id="266"><path id="" clip-rule="evenodd" transform="matrix(1 0 0 1 0 0)" d="M0 612L792 612L792 612L792 0L792 0L0 0z" /></clipPath><clipPath id="267"><path id="" clip-rule="evenodd" transform="matrix(1 0 0 1 0 0)" d="M0 612L792 612L792 612L792 0L792 0L0 0z" /></clipPath><clipPath id="268"><path id="" clip-rule="evenodd" transform="matrix(1 0 0 1 0 0)" d="M792 612L792 0L792 0L0 0L0 0L0 612z" /></clipPath><clipPath id="269"><path id="" clip-rule="evenodd" transform="matrix(1 0 0 1 0 0)" d="M0 612L792 612L792 612L792 0L792 0L0 0z" /></clipPath><clipPath id="270"><path id="" clip-rule="evenodd" transform="matrix(1 0 0 1 0 0)" d="M0 612L792 612L792 612L792 0L792 0L0 0z" /></clipPath><clipPath id="271"><path id="" clip-rule="evenodd" transform="matrix(1 0 0 1 0 0)" d="M792 612L792 0L792 0L0 0L0 0L0 612z" /></clipPath><clipPath id="272"><path id="" clip-rule="evenodd" transform="matrix(1 0 0 1 0 0)" d="M0 612L792 612L792 612L792 0L792 0L0 0z" /></clipPath><clipPath id="273"><path id="" clip-rule="evenodd" transform="matrix(1 0 0 1 0 0)" d="M0 612L792 612L792 612L792 0L792 0L0 0z" /></clipPath><clipPath id="274"><path id="" clip-rule="evenodd" transform="matrix(1 0 0 1 0 0)" d="M792 612L792 0L792 0L0 0L0 0L0 612z" /></clipPath><clipPath id="275"><path id="" clip-rule="evenodd" transform="matrix(1 0 0 1 0 0)" d="M0 612L792 612L792 612L792 0L792 0L0 0z" /></clipPath><clipPath id="276"><path id="" clip-rule="evenodd" transform="matrix(1 0 0 1 0 0)" d="M0 612L792 612L792 612L792 0L792 0L0 0z" /></clipPath><clipPath id="277"><path id="" clip-rule="evenodd" transform="matrix(1 0 0 1 0 0)" d="M792 612L792 0L792 0L0 0L0 0L0 612z" /></clipPath><clipPath id="278"><path id="" clip-rule="evenodd" transform="matrix(1 0 0 1 0 0)" d="M0 612L792 612L792 612L792 0L792 0L0 0z" /></clipPath><clipPath id="279"><path id="" clip-rule="evenodd" transform="matrix(1 0 0 1 0 0)" d="M0 612L792 612L792 612L792 0L792 0L0 0z" /></clipPath><clipPath id="280"><path id="" clip-rule="evenodd" transform="matrix(1 0 0 1 0 0)" d="M792 612L792 0L792 0L0 0L0 0L0 612z" /></clipPath><clipPath id="281"><path id="" clip-rule="evenodd" transform="matrix(1 0 0 1 0 0)" d="M0 612L792 612L792 612L792 0L792 0L0 0z" /></clipPath><clipPath id="282"><path id="" clip-rule="evenodd" transform="matrix(1 0 0 1 0 0)" d="M0 612L792 612L792 612L792 0L792 0L0 0z" /></clipPath><clipPath id="283"><path id="" clip-rule="evenodd" transform="matrix(1 0 0 1 0 0)" d="M792 612L792 0L792 0L0 0L0 0L0 612z" /></clipPath><clipPath id="284"><path id="" clip-rule="evenodd" transform="matrix(1 0 0 1 0 0)" d="M0 612L792 612L792 612L792 0L792 0L0 0z" /></clipPath><clipPath id="285"><path id="" clip-rule="evenodd" transform="matrix(1 0 0 1 0 0)" d="M0 612L792 612L792 612L792 0L792 0L0 0z" /></clipPath><clipPath id="286"><path id="" clip-rule="evenodd" transform="matrix(1 0 0 1 0 0)" d="M792 612L792 0L792 0L0 0L0 0L0 612z" /></clipPath><clipPath id="287"><path id="" clip-rule="evenodd" transform="matrix(1 0 0 1 0 0)" d="M0 612L792 612L792 612L792 0L792 0L0 0z" /></clipPath><clipPath id="288"><path id="" clip-rule="evenodd" transform="matrix(1 0 0 1 0 0)" d="M0 612L792 612L792 612L792 0L792 0L0 0z" /></clipPath><clipPath id="289"><path id="" clip-rule="evenodd" transform="matrix(1 0 0 1 0 0)" d="M792 612L792 0L792 0L0 0L0 0L0 612z" /></clipPath><clipPath id="290"><path id="" clip-rule="evenodd" transform="matrix(1 0 0 1 0 0)" d="M0 612L792 612L792 612L792 0L792 0L0 0z" /></clipPath><clipPath id="291"><path id="" clip-rule="evenodd" transform="matrix(1 0 0 1 0 0)" d="M0 612L792 612L792 612L792 0L792 0L0 0z" /></clipPath><clipPath id="292"><path id="" clip-rule="evenodd" transform="matrix(1 0 0 1 0 0)" d="M792 612L792 0L792 0L0 0L0 0L0 612z" /></clipPath><clipPath id="293"><path id="" clip-rule="evenodd" transform="matrix(1 0 0 1 0 0)" d="M0 612L792 612L792 612L792 0L792 0L0 0z" /></clipPath><clipPath id="294"><path id="" clip-rule="evenodd" transform="matrix(1 0 0 1 0 0)" d="M0 612L792 612L792 612L792 0L792 0L0 0z" /></clipPath><clipPath id="295"><path id="" clip-rule="evenodd" transform="matrix(1 0 0 1 0 0)" d="M792 612L792 0L792 0L0 0L0 0L0 612z" /></clipPath><clipPath id="296"><path id="" clip-rule="evenodd" transform="matrix(1 0 0 1 0 0)" d="M0 612L792 612L792 612L792 0L792 0L0 0z" /></clipPath><clipPath id="297"><path id="" clip-rule="evenodd" transform="matrix(1 0 0 1 0 0)" d="M0 612L792 612L792 612L792 0L792 0L0 0z" /></clipPath><clipPath id="298"><path id="" clip-rule="evenodd" transform="matrix(1 0 0 1 0 0)" d="M792 612L792 0L792 0L0 0L0 0L0 612z" /></clipPath><clipPath id="299"><path id="" clip-rule="evenodd" transform="matrix(1 0 0 1 0 0)" d="M0 612L792 612L792 612L792 0L792 0L0 0z" /></clipPath><clipPath id="300"><path id="" clip-rule="evenodd" transform="matrix(1 0 0 1 0 0)" d="M0 612L792 612L792 612L792 0L792 0L0 0z" /></clipPath><clipPath id="301"><path id="" clip-rule="evenodd" transform="matrix(1 0 0 1 0 0)" d="M792 612L792 0L792 0L0 0L0 0L0 612z" /></clipPath><clipPath id="302"><path id="" clip-rule="evenodd" transform="matrix(1 0 0 1 0 0)" d="M0 612L792 612L792 612L792 0L792 0L0 0z" /></clipPath><clipPath id="303"><path id="" clip-rule="evenodd" transform="matrix(1 0 0 1 0 0)" d="M0 612L792 612L792 612L792 0L792 0L0 0z" /></clipPath><clipPath id="304"><path id="" clip-rule="evenodd" transform="matrix(1 0 0 1 0 0)" d="M792 612L792 0L792 0L0 0L0 0L0 612z" /></clipPath><clipPath id="305"><path id="" clip-rule="evenodd" transform="matrix(1 0 0 1 0 0)" d="M0 612L792 612L792 612L792 0L792 0L0 0z" /></clipPath><clipPath id="306"><path id="" clip-rule="evenodd" transform="matrix(1 0 0 1 0 0)" d="M0 612L792 612L792 612L792 0L792 0L0 0z" /></clipPath><clipPath id="307"><path id="" clip-rule="evenodd" transform="matrix(1 0 0 1 0 0)" d="M792 612L792 0L792 0L0 0L0 0L0 612z" /></clipPath><clipPath id="308"><path id="" clip-rule="evenodd" transform="matrix(1 0 0 1 0 0)" d="M0 612L792 612L792 612L792 0L792 0L0 0z" /></clipPath><clipPath id="309"><path id="" clip-rule="evenodd" transform="matrix(1 0 0 1 0 0)" d="M0 612L792 612L792 612L792 0L792 0L0 0z" /></clipPath><clipPath id="310"><path id="" clip-rule="evenodd" transform="matrix(1 0 0 1 0 0)" d="M792 612L792 0L792 0L0 0L0 0L0 612z" /></clipPath><clipPath id="311"><path id="" clip-rule="evenodd" transform="matrix(1 0 0 1 0 0)" d="M0 612L792 612L792 612L792 0L792 0L0 0z" /></clipPath><clipPath id="312"><path id="" clip-rule="evenodd" transform="matrix(1 0 0 1 0 0)" d="M0 612L792 612L792 612L792 0L792 0L0 0z" /></clipPath><clipPath id="313"><path id="" clip-rule="evenodd" transform="matrix(1 0 0 1 0 0)" d="M792 612L792 0L792 0L0 0L0 0L0 612z" /></clipPath><clipPath id="314"><path id="" clip-rule="evenodd" transform="matrix(1 0 0 1 0 0)" d="M0 612L792 612L792 612L792 0L792 0L0 0z" /></clipPath><clipPath id="315"><path id="" clip-rule="evenodd" transform="matrix(1 0 0 1 0 0)" d="M0 612L792 612L792 612L792 0L792 0L0 0z" /></clipPath><clipPath id="316"><path id="" clip-rule="evenodd" transform="matrix(1 0 0 1 0 0)" d="M792 612L792 0L792 0L0 0L0 0L0 612z" /></clipPath><clipPath id="317"><path id="" clip-rule="evenodd" transform="matrix(1 0 0 1 0 0)" d="M0 612L792 612L792 612L792 0L792 0L0 0z" /></clipPath><clipPath id="318"><path id="" clip-rule="evenodd" transform="matrix(1 0 0 1 0 0)" d="M0 612L792 612L792 612L792 0L792 0L0 0z" /></clipPath><clipPath id="319"><path id="" clip-rule="evenodd" transform="matrix(1 0 0 1 0 0)" d="M792 612L792 0L792 0L0 0L0 0L0 612z" /></clipPath><clipPath id="320"><path id="" clip-rule="evenodd" transform="matrix(1 0 0 1 0 0)" d="M0 612L792 612L792 612L792 0L792 0L0 0z" /></clipPath><clipPath id="321"><path id="" clip-rule="evenodd" transform="matrix(1 0 0 1 0 0)" d="M0 612L792 612L792 612L792 0L792 0L0 0z" /></clipPath><clipPath id="322"><path id="" clip-rule="evenodd" transform="matrix(1 0 0 1 0 0)" d="M792 612L792 0L792 0L0 0L0 0L0 612z" /></clipPath><clipPath id="323"><path id="" clip-rule="evenodd" transform="matrix(1 0 0 1 0 0)" d="M0 612L792 612L792 612L792 0L792 0L0 0z" /></clipPath><clipPath id="324"><path id="" clip-rule="evenodd" transform="matrix(1 0 0 1 0 0)" d="M0 612L792 612L792 612L792 0L792 0L0 0z" /></clipPath><clipPath id="325"><path id="" clip-rule="evenodd" transform="matrix(1 0 0 1 0 0)" d="M792 612L792 0L792 0L0 0L0 0L0 612z" /></clipPath><clipPath id="326"><path id="" clip-rule="evenodd" transform="matrix(1 0 0 1 0 0)" d="M0 612L792 612L792 612L792 0L792 0L0 0z" /></clipPath><clipPath id="327"><path id="" clip-rule="evenodd" transform="matrix(1 0 0 1 0 0)" d="M0 612L792 612L792 612L792 0L792 0L0 0z" /></clipPath><clipPath id="328"><path id="" clip-rule="evenodd" transform="matrix(1 0 0 1 0 0)" d="M792 612L792 0L792 0L0 0L0 0L0 612z" /></clipPath><clipPath id="329"><path id="" clip-rule="evenodd" transform="matrix(1 0 0 1 0 0)" d="M0 612L792 612L792 612L792 0L792 0L0 0z" /></clipPath><clipPath id="330"><path id="" clip-rule="evenodd" transform="matrix(1 0 0 1 0 0)" d="M0 612L792 612L792 612L792 0L792 0L0 0z" /></clipPath><clipPath id="331"><path id="" clip-rule="evenodd" transform="matrix(1 0 0 1 0 0)" d="M792 612L792 0L792 0L0 0L0 0L0 612z" /></clipPath><clipPath id="332"><path id="" clip-rule="evenodd" transform="matrix(1 0 0 1 0 0)" d="M0 612L792 612L792 612L792 0L792 0L0 0z" /></clipPath><clipPath id="333"><path id="" clip-rule="evenodd" transform="matrix(1 0 0 1 0 0)" d="M0 612L792 612L792 612L792 0L792 0L0 0z" /></clipPath><clipPath id="334"><path id="" clip-rule="evenodd" transform="matrix(1 0 0 1 0 0)" d="M792 612L792 0L792 0L0 0L0 0L0 612z" /></clipPath><clipPath id="335"><path id="" clip-rule="evenodd" transform="matrix(1 0 0 1 0 0)" d="M0 612L792 612L792 612L792 0L792 0L0 0z" /></clipPath><clipPath id="336"><path id="" clip-rule="evenodd" transform="matrix(1 0 0 1 0 0)" d="M0 612L792 612L792 612L792 0L792 0L0 0z" /></clipPath><clipPath id="337"><path id="" clip-rule="evenodd" transform="matrix(1 0 0 1 0 0)" d="M792 612L792 0L792 0L0 0L0 0L0 612z" /></clipPath><clipPath id="338"><path id="" clip-rule="evenodd" transform="matrix(1 0 0 1 0 0)" d="M0 612L792 612L792 612L792 0L792 0L0 0z" /></clipPath><clipPath id="339"><path id="" clip-rule="evenodd" transform="matrix(1 0 0 1 0 0)" d="M0 612L792 612L792 612L792 0L792 0L0 0z" /></clipPath><clipPath id="340"><path id="" clip-rule="evenodd" transform="matrix(1 0 0 1 0 0)" d="M792 612L792 0L792 0L0 0L0 0L0 612z" /></clipPath><clipPath id="341"><path id="" clip-rule="evenodd" transform="matrix(1 0 0 1 0 0)" d="M0 612L792 612L792 612L792 0L792 0L0 0z" /></clipPath><clipPath id="342"><path id="" clip-rule="evenodd" transform="matrix(1 0 0 1 0 0)" d="M0 612L792 612L792 612L792 0L792 0L0 0z" /></clipPath><clipPath id="343"><path id="" clip-rule="evenodd" transform="matrix(1 0 0 1 0 0)" d="M792 612L792 0L792 0L0 0L0 0L0 612z" /></clipPath><clipPath id="344"><path id="" clip-rule="evenodd" transform="matrix(1 0 0 1 0 0)" d="M0 612L792 612L792 612L792 0L792 0L0 0z" /></clipPath><clipPath id="345"><path id="" clip-rule="evenodd" transform="matrix(1 0 0 1 0 0)" d="M0 612L792 612L792 612L792 0L792 0L0 0z" /></clipPath><clipPath id="346"><path id="" clip-rule="evenodd" transform="matrix(1 0 0 1 0 0)" d="M792 612L792 0L792 0L0 0L0 0L0 612z" /></clipPath><clipPath id="347"><path id="" clip-rule="evenodd" transform="matrix(1 0 0 1 0 0)" d="M0 612L792 612L792 612L792 0L792 0L0 0z" /></clipPath><clipPath id="348"><path id="" clip-rule="evenodd" transform="matrix(1 0 0 1 0 0)" d="M0 612L792 612L792 612L792 0L792 0L0 0z" /></clipPath><clipPath id="349"><path id="" clip-rule="evenodd" transform="matrix(1 0 0 1 0 0)" d="M792 612L792 0L792 0L0 0L0 0L0 612z" /></clipPath><clipPath id="350"><path id="" clip-rule="evenodd" transform="matrix(1 0 0 1 0 0)" d="M0 612L792 612L792 612L792 0L792 0L0 0z" /></clipPath><clipPath id="351"><path id="" clip-rule="evenodd" transform="matrix(1 0 0 1 0 0)" d="M0 612L792 612L792 612L792 0L792 0L0 0z" /></clipPath><clipPath id="352"><path id="" clip-rule="evenodd" transform="matrix(1 0 0 1 0 0)" d="M792 612L792 0L792 0L0 0L0 0L0 612z" /></clipPath><clipPath id="353"><path id="" clip-rule="evenodd" transform="matrix(1 0 0 1 0 0)" d="M0 612L792 612L792 612L792 0L792 0L0 0z" /></clipPath><clipPath id="354"><path id="" clip-rule="evenodd" transform="matrix(1 0 0 1 0 0)" d="M0 612L792 612L792 612L792 0L792 0L0 0z" /></clipPath><clipPath id="355"><path id="" clip-rule="evenodd" transform="matrix(1 0 0 1 0 0)" d="M792 612L792 0L792 0L0 0L0 0L0 612z" /></clipPath><clipPath id="356"><path id="" clip-rule="evenodd" transform="matrix(1 0 0 1 0 0)" d="M0 612L792 612L792 612L792 0L792 0L0 0z" /></clipPath><clipPath id="357"><path id="" clip-rule="evenodd" transform="matrix(1 0 0 1 0 0)" d="M0 612L792 612L792 612L792 0L792 0L0 0z" /></clipPath><clipPath id="358"><path id="" clip-rule="evenodd" transform="matrix(1 0 0 1 0 0)" d="M792 612L792 0L792 0L0 0L0 0L0 612z" /></clipPath><clipPath id="359"><path id="" clip-rule="evenodd" transform="matrix(1 0 0 1 0 0)" d="M0 612L792 612L792 612L792 0L792 0L0 0z" /></clipPath><clipPath id="360"><path id="" clip-rule="evenodd" transform="matrix(1 0 0 1 0 0)" d="M0 612L792 612L792 612L792 0L792 0L0 0z" /></clipPath><clipPath id="361"><path id="" clip-rule="evenodd" transform="matrix(1 0 0 1 0 0)" d="M792 612L792 0L792 0L0 0L0 0L0 612z" /></clipPath><clipPath id="362"><path id="" clip-rule="evenodd" transform="matrix(1 0 0 1 0 0)" d="M0 612L792 612L792 612L792 0L792 0L0 0z" /></clipPath><clipPath id="363"><path id="" clip-rule="evenodd" transform="matrix(1 0 0 1 0 0)" d="M0 612L792 612L792 612L792 0L792 0L0 0z" /></clipPath><clipPath id="364"><path id="" clip-rule="evenodd" transform="matrix(1 0 0 1 0 0)" d="M792 612L792 0L792 0L0 0L0 0L0 612z" /></clipPath><clipPath id="365"><path id="" clip-rule="evenodd" transform="matrix(1 0 0 1 0 0)" d="M0 612L792 612L792 612L792 0L792 0L0 0z" /></clipPath><clipPath id="366"><path id="" clip-rule="evenodd" transform="matrix(1 0 0 1 0 0)" d="M0 612L792 612L792 612L792 0L792 0L0 0z" /></clipPath><clipPath id="367"><path id="" clip-rule="evenodd" transform="matrix(1 0 0 1 0 0)" d="M792 612L792 0L792 0L0 0L0 0L0 612z" /></clipPath><clipPath id="368"><path id="" clip-rule="evenodd" transform="matrix(1 0 0 1 0 0)" d="M0 612L792 612L792 612L792 0L792 0L0 0z" /></clipPath><clipPath id="369"><path id="" clip-rule="evenodd" transform="matrix(1 0 0 1 0 0)" d="M0 612L792 612L792 612L792 0L792 0L0 0z" /></clipPath><clipPath id="370"><path id="" clip-rule="evenodd" transform="matrix(1 0 0 1 0 0)" d="M792 612L792 0L792 0L0 0L0 0L0 612z" /></clipPath><clipPath id="371"><path id="" clip-rule="evenodd" transform="matrix(1 0 0 1 0 0)" d="M0 612L792 612L792 612L792 0L792 0L0 0z" /></clipPath><clipPath id="372"><path id="" clip-rule="evenodd" transform="matrix(1 0 0 1 0 0)" d="M0 612L792 612L792 612L792 0L792 0L0 0z" /></clipPath><clipPath id="373"><path id="" clip-rule="evenodd" transform="matrix(1 0 0 1 0 0)" d="M792 612L792 0L792 0L0 0L0 0L0 612z" /></clipPath><clipPath id="374"><path id="" clip-rule="evenodd" transform="matrix(1 0 0 1 0 0)" d="M0 612L792 612L792 612L792 0L792 0L0 0z" /></clipPath><clipPath id="375"><path id="" clip-rule="evenodd" transform="matrix(1 0 0 1 0 0)" d="M0 612L792 612L792 612L792 0L792 0L0 0z" /></clipPath><clipPath id="376"><path id="" clip-rule="evenodd" transform="matrix(1 0 0 1 0 0)" d="M792 612L792 0L792 0L0 0L0 0L0 612z" /></clipPath><clipPath id="377"><path id="" clip-rule="evenodd" transform="matrix(1 0 0 1 0 0)" d="M0 612L792 612L792 612L792 0L792 0L0 0z" /></clipPath><clipPath id="378"><path id="" clip-rule="evenodd" transform="matrix(1 0 0 1 0 0)" d="M0 612L792 612L792 612L792 0L792 0L0 0z" /></clipPath><clipPath id="379"><path id="" clip-rule="evenodd" transform="matrix(1 0 0 1 0 0)" d="M792 612L792 0L792 0L0 0L0 0L0 612z" /></clipPath><clipPath id="380"><path id="" clip-rule="evenodd" transform="matrix(1 0 0 1 0 0)" d="M0 612L792 612L792 612L792 0L792 0L0 0z" /></clipPath><clipPath id="381"><path id="" clip-rule="evenodd" transform="matrix(1 0 0 1 0 0)" d="M0 612L792 612L792 612L792 0L792 0L0 0z" /></clipPath><clipPath id="382"><path id="" clip-rule="evenodd" transform="matrix(1 0 0 1 0 0)" d="M792 612L792 0L792 0L0 0L0 0L0 612z" /></clipPath><clipPath id="383"><path id="" clip-rule="evenodd" transform="matrix(1 0 0 1 0 0)" d="M0 612L792 612L792 612L792 0L792 0L0 0z" /></clipPath><clipPath id="384"><path id="" clip-rule="evenodd" transform="matrix(1 0 0 1 0 0)" d="M0 612L792 612L792 612L792 0L792 0L0 0z" /></clipPath><clipPath id="385"><path id="" clip-rule="evenodd" transform="matrix(1 0 0 1 0 0)" d="M792 612L792 0L792 0L0 0L0 0L0 612z" /></clipPath><clipPath id="386"><path id="" clip-rule="evenodd" transform="matrix(1 0 0 1 0 0)" d="M0 612L792 612L792 612L792 0L792 0L0 0z" /></clipPath><clipPath id="387"><path id="" clip-rule="evenodd" transform="matrix(1 0 0 1 0 0)" d="M0 612L792 612L792 612L792 0L792 0L0 0z" /></clipPath><clipPath id="388"><path id="" clip-rule="evenodd" transform="matrix(1 0 0 1 0 0)" d="M792 612L792 0L792 0L0 0L0 0L0 612z" /></clipPath><clipPath id="389"><path id="" clip-rule="evenodd" transform="matrix(1 0 0 1 0 0)" d="M0 612L792 612L792 612L792 0L792 0L0 0z" /></clipPath><clipPath id="390"><path id="" clip-rule="evenodd" transform="matrix(1 0 0 1 0 0)" d="M0 612L792 612L792 612L792 0L792 0L0 0z" /></clipPath><clipPath id="391"><path id="" clip-rule="evenodd" transform="matrix(1 0 0 1 0 0)" d="M792 612L792 0L792 0L0 0L0 0L0 612z" /></clipPath><clipPath id="392"><path id="" clip-rule="evenodd" transform="matrix(1 0 0 1 0 0)" d="M0 612L792 612L792 612L792 0L792 0L0 0z" /></clipPath><clipPath id="393"><path id="" clip-rule="evenodd" transform="matrix(1 0 0 1 0 0)" d="M0 612L792 612L792 612L792 0L792 0L0 0z" /></clipPath><clipPath id="394"><path id="" clip-rule="evenodd" transform="matrix(1 0 0 1 0 0)" d="M792 612L792 0L792 0L0 0L0 0L0 612z" /></clipPath><clipPath id="395"><path id="" clip-rule="evenodd" transform="matrix(1 0 0 1 0 0)" d="M0 612L792 612L792 612L792 0L792 0L0 0z" /></clipPath><clipPath id="396"><path id="" clip-rule="evenodd" transform="matrix(1 0 0 1 0 0)" d="M0 612L792 612L792 612L792 0L792 0L0 0z" /></clipPath><clipPath id="397"><path id="" clip-rule="evenodd" transform="matrix(1 0 0 1 0 0)" d="M792 612L792 0L792 0L0 0L0 0L0 612z" /></clipPath><clipPath id="398"><path id="" clip-rule="evenodd" transform="matrix(1 0 0 1 0 0)" d="M0 612L792 612L792 612L792 0L792 0L0 0z" /></clipPath><clipPath id="399"><path id="" clip-rule="evenodd" transform="matrix(1 0 0 1 0 0)" d="M0 612L792 612L792 612L792 0L792 0L0 0z" /></clipPath><clipPath id="400"><path id="" clip-rule="evenodd" transform="matrix(1 0 0 1 0 0)" d="M792 612L792 0L792 0L0 0L0 0L0 612z" /></clipPath><clipPath id="401"><path id="" clip-rule="evenodd" transform="matrix(1 0 0 1 0 0)" d="M0 612L792 612L792 612L792 0L792 0L0 0z" /></clipPath><clipPath id="402"><path id="" clip-rule="evenodd" transform="matrix(1 0 0 1 0 0)" d="M0 612L792 612L792 612L792 0L792 0L0 0z" /></clipPath><clipPath id="403"><path id="" clip-rule="evenodd" transform="matrix(1 0 0 1 0 0)" d="M792 612L792 0L792 0L0 0L0 0L0 612z" /></clipPath><clipPath id="404"><path id="" clip-rule="evenodd" transform="matrix(1 0 0 1 0 0)" d="M0 612L792 612L792 612L792 0L792 0L0 0z" /></clipPath><clipPath id="405"><path id="" clip-rule="evenodd" transform="matrix(1 0 0 1 0 0)" d="M0 612L792 612L792 612L792 0L792 0L0 0z" /></clipPath><clipPath id="406"><path id="" clip-rule="evenodd" transform="matrix(1 0 0 1 0 0)" d="M792 612L792 0L792 0L0 0L0 0L0 612z" /></clipPath><clipPath id="407"><path id="" clip-rule="evenodd" transform="matrix(1 0 0 1 0 0)" d="M0 612L792 612L792 612L792 0L792 0L0 0z" /></clipPath><clipPath id="408"><path id="" clip-rule="evenodd" transform="matrix(1 0 0 1 0 0)" d="M792 612L792 0L792 0L0 0L0 0L0 612z" /></clipPath><clipPath id="409"><path id="" clip-rule="evenodd" transform="matrix(1 0 0 1 0 0)" d="M0 612L792 612L792 612L792 0L792 0L0 0z" /></clipPath><clipPath id="410"><path id="" clip-rule="evenodd" transform="matrix(1 0 0 1 0 0)" d="M474.75 464.75L715.5 464.75L715.5 464.75L715.5 320.5L715.5 320.5L474.75 320.5z" /></clipPath><clipPath id="411"><path id="" clip-rule="evenodd" transform="matrix(1 0 0 1 0 0)" d="M792 612L792 0L792 0L0 0L0 0L0 612z" /></clipPath><clipPath id="412"><path id="" clip-rule="evenodd" transform="matrix(1 0 0 1 0 0)" d="M0 612L792 612L792 612L792 0L792 0L0 0z" /></clipPath><clipPath id="413"><path id="" clip-rule="evenodd" transform="matrix(1 0 0 1 0 0)" d="M474.75 464.75L715.5 464.75L715.5 464.75L715.5 320.5L715.5 320.5L474.75 320.5z" /></clipPath><clipPath id="414"><path id="" clip-rule="evenodd" transform="matrix(1 0 0 1 0 0)" d="M792 612L792 0L792 0L0 0L0 0L0 612z" /></clipPath><clipPath id="415"><path id="" clip-rule="evenodd" transform="matrix(1 0 0 1 0 0)" d="M0 612L792 612L792 612L792 0L792 0L0 0z" /></clipPath><clipPath id="416"><path id="" clip-rule="evenodd" transform="matrix(1 0 0 1 0 0)" d="M474.75 464.75L715.5 464.75L715.5 464.75L715.5 320.5L715.5 320.5L474.75 320.5z" /></clipPath><clipPath id="417"><path id="" clip-rule="evenodd" transform="matrix(1 0 0 1 0 0)" d="M792 612L792 0L792 0L0 0L0 0L0 612z" /></clipPath><clipPath id="418"><path id="" clip-rule="evenodd" transform="matrix(1 0 0 1 0 0)" d="M0 612L792 612L792 612L792 0L792 0L0 0z" /></clipPath><clipPath id="419"><path id="" clip-rule="evenodd" transform="matrix(1 0 0 1 0 0)" d="M474.75 464.75L715.5 464.75L715.5 464.75L715.5 320.5L715.5 320.5L474.75 320.5z" /></clipPath><clipPath id="420"><path id="" clip-rule="evenodd" transform="matrix(1 0 0 1 0 0)" d="M792 612L792 0L792 0L0 0L0 0L0 612z" /></clipPath><clipPath id="421"><path id="" clip-rule="evenodd" transform="matrix(1 0 0 1 0 0)" d="M0 612L792 612L792 612L792 0L792 0L0 0z" /></clipPath><clipPath id="422"><path id="" clip-rule="evenodd" transform="matrix(1 0 0 1 0 0)" d="M474.75 464.75L715.5 464.75L715.5 464.75L715.5 320.5L715.5 320.5L474.75 320.5z" /></clipPath><clipPath id="423"><path id="" clip-rule="evenodd" transform="matrix(1 0 0 1 0 0)" d="M792 612L792 0L792 0L0 0L0 0L0 612z" /></clipPath><clipPath id="424"><path id="" clip-rule="evenodd" transform="matrix(1 0 0 1 0 0)" d="M0 612L792 612L792 612L792 0L792 0L0 0z" /></clipPath><clipPath id="425"><path id="" clip-rule="evenodd" transform="matrix(1 0 0 1 0 0)" d="M474.75 464.75L715.5 464.75L715.5 464.75L715.5 320.5L715.5 320.5L474.75 320.5z" /></clipPath><clipPath id="426"><path id="" clip-rule="evenodd" transform="matrix(1 0 0 1 0 0)" d="M792 612L792 0L792 0L0 0L0 0L0 612z" /></clipPath><clipPath id="427"><path id="" clip-rule="evenodd" transform="matrix(1 0 0 1 0 0)" d="M0 612L792 612L792 612L792 0L792 0L0 0z" /></clipPath><clipPath id="428"><path id="" clip-rule="evenodd" transform="matrix(1 0 0 1 0 0)" d="M474.75 464.75L715.5 464.75L715.5 464.75L715.5 320.5L715.5 320.5L474.75 320.5z" /></clipPath><clipPath id="429"><path id="" clip-rule="evenodd" transform="matrix(1 0 0 1 0 0)" d="M792 612L792 0L792 0L0 0L0 0L0 612z" /></clipPath><clipPath id="430"><path id="" clip-rule="evenodd" transform="matrix(1 0 0 1 0 0)" d="M0 612L792 612L792 612L792 0L792 0L0 0z" /></clipPath><clipPath id="431"><path id="" clip-rule="evenodd" transform="matrix(1 0 0 1 0 0)" d="M474.75 464.75L715.5 464.75L715.5 464.75L715.5 320.5L715.5 320.5L474.75 320.5z" /></clipPath><clipPath id="432"><path id="" clip-rule="evenodd" transform="matrix(1 0 0 1 0 0)" d="M792 612L792 0L792 0L0 0L0 0L0 612z" /></clipPath><clipPath id="433"><path id="" clip-rule="evenodd" transform="matrix(1 0 0 1 0 0)" d="M0 612L792 612L792 612L792 0L792 0L0 0z" /></clipPath><clipPath id="434"><path id="" clip-rule="evenodd" transform="matrix(1 0 0 1 0 0)" d="M474.75 464.75L715.5 464.75L715.5 464.75L715.5 320.5L715.5 320.5L474.75 320.5z" /></clipPath><clipPath id="435"><path id="" clip-rule="evenodd" transform="matrix(1 0 0 1 0 0)" d="M792 612L792 0L792 0L0 0L0 0L0 612z" /></clipPath><clipPath id="436"><path id="" clip-rule="evenodd" transform="matrix(1 0 0 1 0 0)" d="M0 612L792 612L792 612L792 0L792 0L0 0z" /></clipPath><clipPath id="437"><path id="" clip-rule="evenodd" transform="matrix(1 0 0 1 0 0)" d="M474.75 464.75L715.5 464.75L715.5 464.75L715.5 320.5L715.5 320.5L474.75 320.5z" /></clipPath><clipPath id="438"><path id="" clip-rule="evenodd" transform="matrix(1 0 0 1 0 0)" d="M792 612L792 0L792 0L0 0L0 0L0 612z" /></clipPath><clipPath id="439"><path id="" clip-rule="evenodd" transform="matrix(1 0 0 1 0 0)" d="M0 612L792 612L792 612L792 0L792 0L0 0z" /></clipPath><clipPath id="440"><path id="" clip-rule="evenodd" transform="matrix(1 0 0 1 0 0)" d="M474.75 464.75L715.5 464.75L715.5 464.75L715.5 320.5L715.5 320.5L474.75 320.5z" /></clipPath><clipPath id="441"><path id="" clip-rule="evenodd" transform="matrix(1 0 0 1 0 0)" d="M792 612L792 0L792 0L0 0L0 0L0 612z" /></clipPath><clipPath id="442"><path id="" clip-rule="evenodd" transform="matrix(1 0 0 1 0 0)" d="M0 612L792 612L792 612L792 0L792 0L0 0z" /></clipPath><clipPath id="443"><path id="" clip-rule="evenodd" transform="matrix(1 0 0 1 0 0)" d="M474.75 464.75L715.5 464.75L715.5 464.75L715.5 320.5L715.5 320.5L474.75 320.5z" /></clipPath><clipPath id="444"><path id="" clip-rule="evenodd" transform="matrix(1 0 0 1 0 0)" d="M792 612L792 0L792 0L0 0L0 0L0 612z" /></clipPath><clipPath id="445"><path id="" clip-rule="evenodd" transform="matrix(1 0 0 1 0 0)" d="M0 612L792 612L792 612L792 0L792 0L0 0z" /></clipPath><clipPath id="446"><path id="" clip-rule="evenodd" transform="matrix(1 0 0 1 0 0)" d="M474.75 464.75L715.5 464.75L715.5 464.75L715.5 320.5L715.5 320.5L474.75 320.5z" /></clipPath><clipPath id="447"><path id="" clip-rule="evenodd" transform="matrix(1 0 0 1 0 0)" d="M792 612L792 0L792 0L0 0L0 0L0 612z" /></clipPath><clipPath id="448"><path id="" clip-rule="evenodd" transform="matrix(1 0 0 1 0 0)" d="M0 612L792 612L792 612L792 0L792 0L0 0z" /></clipPath><clipPath id="449"><path id="" clip-rule="evenodd" transform="matrix(1 0 0 1 0 0)" d="M474.75 464.75L715.5 464.75L715.5 464.75L715.5 320.5L715.5 320.5L474.75 320.5z" /></clipPath><clipPath id="450"><path id="" clip-rule="evenodd" transform="matrix(1 0 0 1 0 0)" d="M792 612L792 0L792 0L0 0L0 0L0 612z" /></clipPath><clipPath id="451"><path id="" clip-rule="evenodd" transform="matrix(1 0 0 1 0 0)" d="M0 612L792 612L792 612L792 0L792 0L0 0z" /></clipPath><clipPath id="452"><path id="" clip-rule="evenodd" transform="matrix(1 0 0 1 0 0)" d="M474.75 464.75L715.5 464.75L715.5 464.75L715.5 320.5L715.5 320.5L474.75 320.5z" /></clipPath><clipPath id="453"><path id="" clip-rule="evenodd" transform="matrix(1 0 0 1 0 0)" d="M792 612L792 0L792 0L0 0L0 0L0 612z" /></clipPath><clipPath id="454"><path id="" clip-rule="evenodd" transform="matrix(1 0 0 1 0 0)" d="M0 612L792 612L792 612L792 0L792 0L0 0z" /></clipPath><clipPath id="455"><path id="" clip-rule="evenodd" transform="matrix(1 0 0 1 0 0)" d="M474.75 464.75L715.5 464.75L715.5 464.75L715.5 320.5L715.5 320.5L474.75 320.5z" /></clipPath><clipPath id="456"><path id="" clip-rule="evenodd" transform="matrix(1 0 0 1 0 0)" d="M792 612L792 0L792 0L0 0L0 0L0 612z" /></clipPath><clipPath id="457"><path id="" clip-rule="evenodd" transform="matrix(1 0 0 1 0 0)" d="M0 612L792 612L792 612L792 0L792 0L0 0z" /></clipPath><clipPath id="458"><path id="" clip-rule="evenodd" transform="matrix(1 0 0 1 0 0)" d="M792 612L792 0L792 0L0 0L0 0L0 612z" /></clipPath><clipPath id="459"><path id="" clip-rule="evenodd" transform="matrix(1 0 0 1 0 0)" d="M0 612L792 612L792 612L792 0L792 0L0 0z" /></clipPath><clipPath id="460"><path id="" clip-rule="evenodd" transform="matrix(1 0 0 1 0 0)" d="M474.75 464.75L715.5 464.75L715.5 464.75L715.5 320.5L715.5 320.5L474.75 320.5z" /></clipPath><clipPath id="461"><path id="" clip-rule="evenodd" transform="matrix(1 0 0 1 0 0)" d="M792 612L792 0L792 0L0 0L0 0L0 612z" /></clipPath><clipPath id="462"><path id="" clip-rule="evenodd" transform="matrix(1 0 0 1 0 0)" d="M0 612L792 612L792 612L792 0L792 0L0 0z" /></clipPath><clipPath id="463"><path id="" clip-rule="evenodd" transform="matrix(1 0 0 1 0 0)" d="M792 612L792 0L792 0L0 0L0 0L0 612z" /></clipPath><clipPath id="464"><path id="" clip-rule="evenodd" transform="matrix(1 0 0 1 0 0)" d="M0 612L792 612L792 612L792 0L792 0L0 0z" /></clipPath><clipPath id="465"><path id="" clip-rule="evenodd" transform="matrix(1 0 0 1 0 0)" d="M474.75 464.75L715.5 464.75L715.5 464.75L715.5 320.5L715.5 320.5L474.75 320.5z" /></clipPath><clipPath id="466"><path id="" clip-rule="evenodd" transform="matrix(1 0 0 1 0 0)" d="M792 612L792 0L792 0L0 0L0 0L0 612z" /></clipPath><clipPath id="467"><path id="" clip-rule="evenodd" transform="matrix(1 0 0 1 0 0)" d="M0 612L792 612L792 612L792 0L792 0L0 0z" /></clipPath><clipPath id="468"><path id="" clip-rule="evenodd" transform="matrix(1 0 0 1 0 0)" d="M456.75 477.5L792 477.5L792 477.5L792 320.5L792 320.5L456.75 320.5z" /></clipPath><clipPath id="469"><path id="" clip-rule="evenodd" transform="matrix(1 0 0 1 0 0)" d="M792 612L792 0L792 0L0 0L0 0L0 612z" /></clipPath></defs><g transform="matrix(1.333333 0 0 1.333333 0 0)"><g clip-path="url(#1)"><g clip-path="url(#2)"><g clip-path="url(#3)"><g clip-path="url(#4)"></g></g></g><g clip-path="url(#5)"><g clip-path="url(#6)"><g clip-path="url(#7)"></g></g></g><g clip-path="url(#8)"><g clip-path="url(#9)"><g clip-path="url(#10)"></g></g></g><g clip-path="url(#11)"><g clip-path="url(#12)"><g clip-path="url(#13)"></g></g></g><g clip-path="url(#14)"><g clip-path="url(#15)"><g clip-path="url(#16)"></g></g></g><g clip-path="url(#17)"><g clip-path="url(#18)"><g clip-path="url(#19)"></g></g></g><g clip-path="url(#20)"><g clip-path="url(#21)"><g clip-path="url(#22)"></g></g></g><g clip-path="url(#23)"><g clip-path="url(#24)"><g clip-path="url(#25)"></g></g></g><g clip-path="url(#26)"><g clip-path="url(#27)"><g clip-path="url(#28)"></g></g></g><g clip-path="url(#29)"><g clip-path="url(#30)"><g clip-path="url(#31)"></g></g></g><g clip-path="url(#32)"><g clip-path="url(#33)"><g clip-path="url(#34)"></g></g></g><g clip-path="url(#35)"><g clip-path="url(#36)"><g clip-path="url(#37)"></g></g></g><g clip-path="url(#38)"><g clip-path="url(#39)"><g clip-path="url(#40)"></g></g></g><g clip-path="url(#41)"><g clip-path="url(#42)"><g clip-path="url(#43)"></g></g></g><g clip-path="url(#44)"><g clip-path="url(#45)"><g clip-path="url(#46)"></g></g></g><g clip-path="url(#47)"><g clip-path="url(#48)"><g clip-path="url(#49)"></g></g></g><g clip-path="url(#50)"><g clip-path="url(#51)"><g clip-path="url(#52)"></g></g></g><g clip-path="url(#53)"><g clip-path="url(#54)"><g clip-path="url(#55)"></g></g></g><g clip-path="url(#56)"><g clip-path="url(#57)"><g clip-path="url(#58)"></g></g></g><g clip-path="url(#59)"><g clip-path="url(#60)"><g clip-path="url(#61)"></g></g></g><g clip-path="url(#62)"><g clip-path="url(#63)"><g clip-path="url(#64)"></g></g></g><g clip-path="url(#65)"><g clip-path="url(#66)"><g clip-path="url(#67)"></g></g></g><g clip-path="url(#68)"><g clip-path="url(#69)"><g clip-path="url(#70)"></g></g></g><g clip-path="url(#71)"><g clip-path="url(#72)"><g clip-path="url(#73)"></g></g></g><g clip-path="url(#74)"><g clip-path="url(#75)"><g clip-path="url(#76)"></g></g></g><g clip-path="url(#77)"><g clip-path="url(#78)"><g clip-path="url(#79)"></g></g></g><g clip-path="url(#80)"><g clip-path="url(#81)"><g clip-path="url(#82)"></g></g></g><g clip-path="url(#83)"><g clip-path="url(#84)"><g clip-path="url(#85)"></g></g></g><g clip-path="url(#86)"><g clip-path="url(#87)"><g clip-path="url(#88)"></g></g></g><g clip-path="url(#89)"><g clip-path="url(#90)"><g clip-path="url(#91)"></g></g></g><g clip-path="url(#92)"><g clip-path="url(#93)"><g clip-path="url(#94)"></g></g></g><g clip-path="url(#95)"><g clip-path="url(#96)"><g clip-path="url(#97)"></g></g></g><g clip-path="url(#98)"><g clip-path="url(#99)"><g clip-path="url(#100)"></g></g></g><g clip-path="url(#101)"><g clip-path="url(#102)"><g clip-path="url(#103)"></g></g></g><g clip-path="url(#104)"><g clip-path="url(#105)"><g clip-path="url(#106)"></g></g></g><g clip-path="url(#107)"><g clip-path="url(#108)"><g clip-path="url(#109)"></g></g></g><g clip-path="url(#110)"><g clip-path="url(#111)"><g clip-path="url(#112)"></g></g></g><g clip-path="url(#113)"><g clip-path="url(#114)"><g clip-path="url(#115)"></g></g></g><g clip-path="url(#116)"><g clip-path="url(#117)"><g clip-path="url(#118)"></g></g></g><g clip-path="url(#119)"><g clip-path="url(#120)"><g clip-path="url(#121)"></g></g></g><g clip-path="url(#122)"><g clip-path="url(#123)"><g clip-path="url(#124)"></g></g></g><g clip-path="url(#125)"><g clip-path="url(#126)"><g clip-path="url(#127)"></g></g></g><g clip-path="url(#128)"><g clip-path="url(#129)"><g clip-path="url(#130)"></g></g></g><g clip-path="url(#131)"><g clip-path="url(#132)"><g clip-path="url(#133)"></g></g></g><g clip-path="url(#134)"><g clip-path="url(#135)"><g clip-path="url(#136)"></g></g></g><g clip-path="url(#137)"><g clip-path="url(#138)"><g clip-path="url(#139)"></g></g></g><g clip-path="url(#140)"><g clip-path="url(#141)"><g clip-path="url(#142)"></g></g></g><g clip-path="url(#143)"><g clip-path="url(#144)"><g clip-path="url(#145)"></g></g></g><g clip-path="url(#146)"><g clip-path="url(#147)"><g clip-path="url(#148)"></g></g></g><g clip-path="url(#149)"><g clip-path="url(#150)"><g clip-path="url(#151)"></g></g></g><g clip-path="url(#152)"><g clip-path="url(#153)"><g clip-path="url(#154)"></g></g></g><g clip-path="url(#155)"><g clip-path="url(#156)"><g clip-path="url(#157)"></g></g></g><g clip-path="url(#158)"><g clip-path="url(#159)"><g clip-path="url(#160)"></g></g></g><g clip-path="url(#161)"><g clip-path="url(#162)"><g clip-path="url(#163)"></g></g></g><g clip-path="url(#164)"><g clip-path="url(#165)"><g clip-path="url(#166)"></g></g></g><g clip-path="url(#167)"><g clip-path="url(#168)"><g clip-path="url(#169)"></g></g></g><g clip-path="url(#170)"><g clip-path="url(#171)"><g clip-path="url(#172)"></g></g></g><g clip-path="url(#173)"><g clip-path="url(#174)"><g clip-path="url(#175)"></g></g></g><g clip-path="url(#176)"><g clip-path="url(#177)"><g clip-path="url(#178)"></g></g></g><g clip-path="url(#179)"><g clip-path="url(#180)"><g clip-path="url(#181)"></g></g></g><g clip-path="url(#182)"><g clip-path="url(#183)"><g clip-path="url(#184)"></g></g></g><g clip-path="url(#185)"><g clip-path="url(#186)"><g clip-path="url(#187)"></g></g></g><g clip-path="url(#188)"><g clip-path="url(#189)"><g clip-path="url(#190)"></g></g></g><g clip-path="url(#191)"><g clip-path="url(#192)"><g clip-path="url(#193)"></g></g></g><g clip-path="url(#194)"><g clip-path="url(#195)"><g clip-path="url(#196)"></g></g></g><g clip-path="url(#197)"><g clip-path="url(#198)"><g clip-path="url(#199)"></g></g></g><g clip-path="url(#200)"><g clip-path="url(#201)"><g clip-path="url(#202)"></g></g></g><g clip-path="url(#203)"><g clip-path="url(#204)"><g clip-path="url(#205)"></g></g></g><g clip-path="url(#206)"><g clip-path="url(#207)"><g clip-path="url(#208)"></g></g></g><g clip-path="url(#209)"><g clip-path="url(#210)"><g clip-path="url(#211)"></g></g></g><g clip-path="url(#212)"><g clip-path="url(#213)"><g clip-path="url(#214)"></g></g></g><g clip-path="url(#215)"><g clip-path="url(#216)"><g clip-path="url(#217)"></g></g></g><g clip-path="url(#218)"><g clip-path="url(#219)"><g clip-path="url(#220)"></g></g></g><g clip-path="url(#221)"><g clip-path="url(#222)"><g clip-path="url(#223)"></g></g></g><g clip-path="url(#224)"><g clip-path="url(#225)"><g clip-path="url(#226)"></g></g></g><g clip-path="url(#227)"><g clip-path="url(#228)"><g clip-path="url(#229)"></g></g></g><g clip-path="url(#230)"><g clip-path="url(#231)"><g clip-path="url(#232)"></g></g></g><g clip-path="url(#233)"><g clip-path="url(#234)"><g clip-path="url(#235)"></g></g></g><g clip-path="url(#236)"><g clip-path="url(#237)"><g clip-path="url(#238)"></g></g></g><g clip-path="url(#239)"><g clip-path="url(#240)"><g clip-path="url(#241)"></g></g></g><g clip-path="url(#242)"><g clip-path="url(#243)"><g clip-path="url(#244)"></g></g></g><g clip-path="url(#245)"><g clip-path="url(#246)"><g clip-path="url(#247)"></g></g></g><g clip-path="url(#248)"><g clip-path="url(#249)"><g clip-path="url(#250)"></g></g></g><g clip-path="url(#251)"><g clip-path="url(#252)"><g clip-path="url(#253)"></g></g></g><g clip-path="url(#254)"><g clip-path="url(#255)"><g clip-path="url(#256)"></g></g></g><g clip-path="url(#257)"><g clip-path="url(#258)"><g clip-path="url(#259)"></g></g></g><g clip-path="url(#260)"><g clip-path="url(#261)"><g clip-path="url(#262)"></g></g></g><g clip-path="url(#263)"><g clip-path="url(#264)"><g clip-path="url(#265)"></g></g></g><g clip-path="url(#266)"><g clip-path="url(#267)"><g clip-path="url(#268)"></g></g></g><g clip-path="url(#269)"><g clip-path="url(#270)"><g clip-path="url(#271)"></g></g></g><g clip-path="url(#272)"><g clip-path="url(#273)"><g clip-path="url(#274)"></g></g></g><g clip-path="url(#275)"><g clip-path="url(#276)"><g clip-path="url(#277)"></g></g></g><g clip-path="url(#278)"><g clip-path="url(#279)"><g clip-path="url(#280)"></g></g></g><g clip-path="url(#281)"><g clip-path="url(#282)"><g clip-path="url(#283)"></g></g></g><g clip-path="url(#284)"><g clip-path="url(#285)"><g clip-path="url(#286)"></g></g></g><g clip-path="url(#287)"><g clip-path="url(#288)"><g clip-path="url(#289)"></g></g></g><g clip-path="url(#290)"><g clip-path="url(#291)"><g clip-path="url(#292)"></g></g></g><g clip-path="url(#293)"><g clip-path="url(#294)"><g clip-path="url(#295)"></g></g></g><g clip-path="url(#296)"><g clip-path="url(#297)"><g clip-path="url(#298)"></g></g></g><g clip-path="url(#299)"><g clip-path="url(#300)"><g clip-path="url(#301)"></g></g></g><g clip-path="url(#302)"><g clip-path="url(#303)"><g clip-path="url(#304)"></g></g></g><g clip-path="url(#305)"><g clip-path="url(#306)"><g clip-path="url(#307)"></g></g></g><g clip-path="url(#308)"><g clip-path="url(#309)"><g clip-path="url(#310)"></g></g></g><g clip-path="url(#311)"><g clip-path="url(#312)"><g clip-path="url(#313)"></g></g></g><g clip-path="url(#314)"><g clip-path="url(#315)"><g clip-path="url(#316)"></g></g></g><g clip-path="url(#317)"><g clip-path="url(#318)"><g clip-path="url(#319)"></g></g></g><g clip-path="url(#320)"><g clip-path="url(#321)"><g clip-path="url(#322)"></g></g></g><g clip-path="url(#323)"><g clip-path="url(#324)"><g clip-path="url(#325)"></g></g></g><g clip-path="url(#326)"><g clip-path="url(#327)"><g clip-path="url(#328)"></g></g></g><g clip-path="url(#329)"><g clip-path="url(#330)"><g clip-path="url(#331)"></g></g></g><g clip-path="url(#332)"><g clip-path="url(#333)"><g clip-path="url(#334)"></g></g></g><g clip-path="url(#335)"><g clip-path="url(#336)"><g clip-path="url(#337)"></g></g></g><g clip-path="url(#338)"><g clip-path="url(#339)"><g clip-path="url(#340)"></g></g></g><g clip-path="url(#341)"><g clip-path="url(#342)"><g clip-path="url(#343)"></g></g></g><g clip-path="url(#344)"><g clip-path="url(#345)"><g clip-path="url(#346)"></g></g></g><g clip-path="url(#347)"><g clip-path="url(#348)"><g clip-path="url(#349)"></g></g></g><g clip-path="url(#350)"><g clip-path="url(#351)"><g clip-path="url(#352)"></g></g></g><g clip-path="url(#353)"><g clip-path="url(#354)"><g clip-path="url(#355)"></g></g></g><g clip-path="url(#356)"><g clip-path="url(#357)"><g clip-path="url(#358)"></g></g></g><g clip-path="url(#359)"><g clip-path="url(#360)"><g clip-path="url(#361)"></g></g></g><g clip-path="url(#362)"><g clip-path="url(#363)"><g clip-path="url(#364)"></g></g></g><g clip-path="url(#365)"><g clip-path="url(#366)"><g clip-path="url(#367)"></g></g></g><g clip-path="url(#368)"><g clip-path="url(#369)"><g clip-path="url(#370)"></g></g></g><g clip-path="url(#371)"><g clip-path="url(#372)"><g clip-path="url(#373)"></g></g></g><g clip-path="url(#374)"><g clip-path="url(#375)"><g clip-path="url(#376)"></g></g></g><g clip-path="url(#377)"><g clip-path="url(#378)"><g clip-path="url(#379)"></g></g></g><g clip-path="url(#380)"><g clip-path="url(#381)"><g clip-path="url(#382)"></g></g></g><g clip-path="url(#383)"><g clip-path="url(#384)"><g clip-path="url(#385)"></g></g></g><g clip-path="url(#386)"><g clip-path="url(#387)"><g clip-path="url(#388)"></g></g></g><g clip-path="url(#389)"><g clip-path="url(#390)"><g clip-path="url(#391)"></g></g></g><g clip-path="url(#392)"><g clip-path="url(#393)"><g clip-path="url(#394)"></g></g></g><g clip-path="url(#395)"><g clip-path="url(#396)"><g clip-path="url(#397)"></g></g></g><g clip-path="url(#398)"><g clip-path="url(#399)"><g clip-path="url(#400)"></g></g></g><g clip-path="url(#401)"><g clip-path="url(#402)"><g clip-path="url(#403)"></g></g></g><g clip-path="url(#404)"><g clip-path="url(#405)"><g clip-path="url(#406)"></g></g></g><g clip-path="url(#407)"><g clip-path="url(#408)"><path id="1715" transform="matrix(1 0 0 -1 0 612)" d="M474.75 147.05L715.5 147.05L715.5 147.05L715.5 291.5L715.5 291.5L474.75 291.5z" stroke="none" fill="#FFFFFF" fill-rule="evenodd" /><path id="1716" transform="matrix(1 0 0 -1 0 612)" d="M526.9 280.5L704.5 280.5M526.9 262.75L704.5 262.75M526.9 245.25L704.5 245.25M526.9 227.5L704.5 227.5M526.9 210L704.5 210" stroke="#D9D9D9" stroke-width="0.75" fill="none" /><path id="1717" transform="matrix(1 0 0 -1 0 612)" d="M689.4999 258.5L693.9999 258.5L693.9999 192.24L689.4999 192.24zM669.9999 259.75L674.2499 259.75L674.2499 192.24L669.9999 192.24zM650.2499 258.25L654.4999 258.25L654.4999 192.24L650.2499 192.24zM630.4999 264L634.7499 264L634.7499 192.24L630.4999 192.24zM610.7499 260.5L614.9999 260.5L614.9999 192.24L610.7499 192.24zM590.9999 261.75L595.2499 261.75L595.2499 192.24L590.9999 192.24zM571.2499 258.75L575.7499 258.75L575.7499 192.24L571.2499 192.24zM551.4999 257L555.9999 257L555.9999 192.24L551.4999 192.24zM531.7499 254.25L536.2499 254.25L536.2499 192.24L531.7499 192.24z" stroke="none" fill="#4F81BD" fill-rule="nonzero" /><path id="1718" transform="matrix(1 0 0 -1 0 612)" d="M695.2499 260.5L699.7499 260.5L699.7499 192.24L695.2499 192.24zM675.4999 262.75L679.9999 262.75L679.9999 192.24L675.4999 192.24zM655.7499 260.25L660.2499 260.25L660.2499 192.24L655.7499 192.24zM635.9999 265.75L640.4999 265.75L640.4999 192.24L635.9999 192.24zM616.2499 262.5L620.7499 262.5L620.7499 192.24L616.2499 192.24zM596.4999 263.25L600.9999 263.25L600.9999 192.24L596.4999 192.24zM576.7499 261L581.2499 261L581.2499 192.24L576.7499 192.24zM556.9999 259.25L561.4999 259.25L561.4999 192.24L556.9999 192.24zM537.2499 255.75L541.7499 255.75L541.7499 192.24L537.2499 192.24z" stroke="none" fill="#C0504D" fill-rule="nonzero" /><path id="1719" transform="matrix(1 0 0 -1 0 612)" d="M526.9 192.24L704.5 192.24" stroke="#D9D9D9" stroke-width="0.75" fill="none" /></g></g><g clip-path="url(#409)"><g clip-path="url(#410)"><g clip-path="url(#411)"></g></g></g><g clip-path="url(#412)"><g clip-path="url(#413)"><g clip-path="url(#414)"></g></g></g><g clip-path="url(#415)"><g clip-path="url(#416)"><g clip-path="url(#417)"></g></g></g><g clip-path="url(#418)"><g clip-path="url(#419)"><g clip-path="url(#420)"></g></g></g><g clip-path="url(#421)"><g clip-path="url(#422)"><g clip-path="url(#423)"></g></g></g><g clip-path="url(#424)"><g clip-path="url(#425)"><g clip-path="url(#426)"></g></g></g><g clip-path="url(#427)"><g clip-path="url(#428)"><g clip-path="url(#429)"></g></g></g><g clip-path="url(#430)"><g clip-path="url(#431)"><g clip-path="url(#432)"></g></g></g><g clip-path="url(#433)"><g clip-path="url(#434)"><g clip-path="url(#435)"></g></g></g><g clip-path="url(#436)"><g clip-path="url(#437)"><g clip-path="url(#438)"></g></g></g><g clip-path="url(#439)"><g clip-path="url(#440)"><g clip-path="url(#441)"></g></g></g><g clip-path="url(#442)"><g clip-path="url(#443)"><g clip-path="url(#444)"></g></g></g><g clip-path="url(#445)"><g clip-path="url(#446)"><g clip-path="url(#447)"></g></g></g><g clip-path="url(#448)"><g clip-path="url(#449)"><g clip-path="url(#450)"></g></g></g><g clip-path="url(#451)"><g clip-path="url(#452)"><g clip-path="url(#453)"></g></g></g><g clip-path="url(#454)"><g clip-path="url(#455)"><g clip-path="url(#456)"><path id="1757" transform="matrix(1 0 0 -1 0 612)" d="M493.0426 207.712L493.0572 207.7803C 492.8391 207.9594 492.6674 208.1254 492.5421 208.2784C 492.4167 208.4314 492.3199 208.5966 492.2516 208.774C 492.1832 208.9514 492.149 209.1524 492.149 209.377C 492.149 209.5658 492.1588 209.7367 492.1783 209.8897L492.1783 209.8897L493.3014 209.8897L493.3014 209.8897L493.3014 209.338C 492.9498 209.1817 492.7984 209.0336 492.7984 208.7276C 492.7984 208.6104 492.8326 208.494 492.901 208.3785C 492.9693 208.2629 493.0686 208.1514 493.1988 208.044C 493.329 207.9366 493.4511 207.8625 493.565 207.8219C 493.679 207.7812 493.8141 207.7608 493.9703 207.7608L493.9703 207.7608L495.6793 207.7608C 495.9755 207.7608 496.1798 207.7787 496.2921 207.8145C 496.4044 207.8503 496.4866 207.9097 496.5387 207.9928C 496.5908 208.0758 496.6314 208.2003 496.6607 208.3663L496.6607 208.3663L496.9 208.3663L496.9 208.3663L496.9 206.3985L496.9 206.3985L496.6607 206.3985C 496.6217 206.5222 496.5875 206.6109 496.5582 206.6646C 496.5289 206.7183 496.4882 206.7647 496.4361 206.8038C 496.384 206.8428 496.3043 206.8721 496.1969 206.8917C 496.0894 206.9112 495.9218 206.921 495.6939 206.921L495.6939 206.921L493.565 206.921C 493.3567 206.921 493.1891 206.9177 493.0621 206.9112C 492.9352 206.9047 492.8334 206.8819 492.7569 206.8428C 492.6804 206.8038 492.6235 206.7444 492.586 206.6646C 492.5486 206.5849 492.5168 206.4718 492.4908 206.3253L492.4908 206.3253L492.2369 206.3253L492.2369 206.3253L492.1881 207.4678L492.1881 207.4678L492.1881 207.7657z" stroke="none" fill="#595959" fill-rule="evenodd" /><path id="1758" transform="matrix(1 0 0 -1 0 612)" d="M496.2018 213.4559L496.1822 213.3827C 496.7617 212.8163 496.9781 212.3508 496.9781 211.7909C 496.9781 211.5435 496.9301 211.3254 496.8341 211.1366C 496.738 210.9478 496.603 210.8029 496.4288 210.702C 496.2546 210.6011 496.0536 210.5506 495.8258 210.5506C 494.8752 210.5506 494.3577 211.4914 494.273 213.3729L494.273 213.3729L493.9557 213.3729C 493.6171 213.3729 493.3502 213.3403 493.1549 213.2752C 492.9596 213.2101 492.8163 213.1076 492.7252 212.9676C 492.634 212.8277 492.5885 212.6405 492.5885 212.4061C 492.5885 211.8983 492.8554 211.6004 493.3893 211.4442L493.3893 211.4442L493.3893 210.8045L493.3893 210.8045L492.7545 210.8045C 492.5917 211.117 492.4721 211.3775 492.3956 211.5858C 492.3191 211.7941 492.2589 212.0025 492.2149 212.2108C 492.171 212.4191 492.149 212.6307 492.149 212.8456C 492.149 213.1678 492.2003 213.4266 492.3028 213.6219C 492.4054 213.8172 492.5624 213.9637 492.774 214.0614C 492.9856 214.159 493.3046 214.2079 493.731 214.2079L493.731 214.2079L495.4303 214.2079C 495.6711 214.2079 495.8412 214.2095 495.9405 214.2127C 496.0398 214.216 496.1318 214.2258 496.2164 214.242C 496.301 214.2583 496.3686 214.2827 496.419 214.3153C 496.4695 214.3478 496.5126 214.3958 496.5484 214.4593C 496.5842 214.5228 496.6217 214.6261 496.6607 214.7694L496.6607 214.7694L496.9 214.7694L496.9 214.7694L496.9 213.4315zM494.6734 213.3729C 494.6865 212.0513 495.0201 211.3954 495.7037 211.3954C 495.8893 211.3954 496.0357 211.4328 496.1432 211.5077C 496.2506 211.5825 496.3246 211.6769 496.3653 211.7909C 496.406 211.9048 496.4264 212.0399 496.4264 212.1961C 496.4264 212.4175 496.3727 212.6185 496.2652 212.7992C 496.1578 212.9798 496.0211 213.1206 495.8551 213.2215C 495.6891 213.3224 495.5247 213.3729 495.3619 213.3729z" stroke="none" fill="#595959" fill-rule="evenodd" /><path id="1759" transform="matrix(1 0 0 -1 0 612)" d="M492.4762 215.3307C 492.4501 215.4934 492.4045 215.6253 492.3394 215.7262C 492.2744 215.8271 492.1905 215.906 492.088 215.963C 491.9854 216.02 491.8569 216.0647 491.7022 216.0973C 491.5476 216.1298 491.3222 216.164 491.026 216.1998L491.026 216.1998L491.026 216.8932L491.026 216.8932L492.232 216.8932L492.232 216.8932L492.232 218.4703L492.232 218.4703L492.7252 218.4703L492.7252 218.4703L492.7252 216.8932L492.7252 216.8932L494.898 216.8932C 495.2138 216.8932 495.4653 216.9062 495.6524 216.9322C 495.8396 216.9583 495.9861 217.0071 496.0919 217.0787C 496.1977 217.1503 496.2734 217.2317 496.3189 217.3229C 496.3645 217.414 496.3873 217.5312 496.3873 217.6744C 496.3873 217.9348 496.2766 218.1562 496.0748 218.3775L496.0748 218.3775L496.3385 218.5973C 496.7877 218.135 496.9781 217.7411 496.9781 217.2984C 496.9781 216.4586 496.4963 216.0533 495.4352 216.0533L495.4352 216.0533L492.7252 216.0533L492.7252 216.0533L492.7252 215.3307z" stroke="none" fill="#595959" fill-rule="evenodd" /><path id="1760" transform="matrix(1 0 0 -1 0 612)" d="M490.318 220.5101L491.2652 220.5101L491.2652 220.5101L491.2652 219.6117L491.2652 219.6117L490.318 219.6117zM496.6607 219.1136C 496.6217 219.2406 496.5875 219.3309 496.5582 219.3846C 496.5289 219.4384 496.4882 219.4839 496.4361 219.5214C 496.384 219.5588 496.3043 219.5881 496.1969 219.6093C 496.0894 219.6304 495.9218 219.641 495.6939 219.641L495.6939 219.641L493.565 219.641C 493.3567 219.641 493.1891 219.6377 493.0621 219.6312C 492.9352 219.6247 492.8334 219.6019 492.7569 219.5629C 492.6804 219.5238 492.6235 219.4644 492.586 219.3846C 492.5486 219.3049 492.5168 219.1918 492.4908 219.0453L492.4908 219.0453L492.232 219.0453L492.232 219.0453L492.1881 220.183L492.1881 220.183L492.1881 220.4808L492.1881 220.4808L495.6793 220.4808C 495.9592 220.4808 496.1537 220.4939 496.2628 220.5199C 496.3718 220.5459 496.4548 220.5956 496.5118 220.6688C 496.5688 220.7421 496.6184 220.8617 496.6607 221.0277L496.6607 221.0277L496.9 221.0277L496.9 221.0277L496.9 219.1136z" stroke="none" fill="#595959" fill-rule="evenodd" /><path id="1761" transform="matrix(1 0 0 -1 0 612)" d="M496.9781 224.0177C 496.9781 222.6635 496.1725 221.9327 494.61 221.9327C 494.0728 221.9327 493.6187 222.0263 493.2477 222.2135C 492.8766 222.4007 492.6007 222.657 492.42 222.9825C 492.2393 223.308 492.149 223.6791 492.149 224.0958C 492.149 225.489 492.9856 226.2149 494.5025 226.2149C 495.0429 226.2149 495.4986 226.1254 495.8697 225.9464C 496.2408 225.7673 496.5183 225.5134 496.7022 225.1847C 496.8862 224.8559 496.9781 224.4669 496.9781 224.0177zM494.5074 222.8556C 495.8486 222.8556 496.5924 223.2966 496.5924 224.0909C 496.5924 224.309 496.5395 224.4946 496.4337 224.6476C 496.3279 224.8006 496.1855 224.9251 496.0064 225.0211C 495.8274 225.1171 495.6199 225.1863 495.3839 225.2286C 495.1479 225.2709 494.9013 225.2921 494.6441 225.2921C 494.1656 225.2921 493.7685 225.2392 493.4527 225.1334C 493.137 225.0276 492.905 224.8836 492.7569 224.7013C 492.6088 224.519 492.5348 224.3106 492.5348 224.0763C 492.5348 223.2885 493.2444 222.8556 494.5074 222.8556z" stroke="none" fill="#595959" fill-rule="evenodd" /><path id="1762" transform="matrix(1 0 0 -1 0 612)" d="" stroke="none" fill="#595959" fill-rule="evenodd" /><path id="1763" transform="matrix(1 0 0 -1 0 612)" d="M496.9781 231.2377C 496.9781 229.8835 496.1725 229.1527 494.61 229.1527C 494.0728 229.1527 493.6187 229.2463 493.2477 229.4335C 492.8766 229.6207 492.6007 229.877 492.42 230.2025C 492.2393 230.528 492.149 230.8991 492.149 231.3158C 492.149 232.709 492.9856 233.4349 494.5025 233.4349C 495.0429 233.4349 495.4986 233.3454 495.8697 233.1664C 496.2408 232.9874 496.5183 232.7334 496.7022 232.4047C 496.8862 232.0759 496.9781 231.6869 496.9781 231.2377zM494.5074 230.0756C 495.8486 230.0756 496.5924 230.5166 496.5924 231.3109C 496.5924 231.529 496.5395 231.7146 496.4337 231.8676C 496.3279 232.0206 496.1855 232.1451 496.0064 232.2411C 495.8274 232.3371 495.6199 232.4063 495.3839 232.4486C 495.1479 232.4909 494.9013 232.5121 494.6441 232.5121C 494.1656 232.5121 493.7685 232.4592 493.4527 232.3534C 493.137 232.2476 492.905 232.1036 492.7569 231.9213C 492.6088 231.739 492.5348 231.5306 492.5348 231.2963C 492.5348 230.5085 493.2444 230.0756 494.5074 230.0756z" stroke="none" fill="#595959" fill-rule="evenodd" /><path id="1764" transform="matrix(1 0 0 -1 0 612)" d="M492.7252 236.8734L492.7252 235.7064L492.7252 235.7064L495.6793 235.7064C 495.8974 235.7064 496.0618 235.717 496.1725 235.7382C 496.2831 235.7593 496.3669 235.7902 496.4239 235.8309C 496.4809 235.8716 496.5265 235.9253 496.5606 235.9921C 496.5948 236.0588 496.6282 236.1654 496.6607 236.3119L496.6607 236.3119L496.9 236.3119L496.9 236.3119L496.9 234.3148L496.9 234.3148L496.6607 234.3148C 496.6217 234.4581 496.5842 234.5606 496.5484 234.6224C 496.5126 234.6843 496.467 234.7323 496.4117 234.7665C 496.3564 234.8007 496.2766 234.8259 496.1725 234.8422C 496.0683 234.8584 495.9039 234.8666 495.6793 234.8666L495.6793 234.8666L492.7252 234.8666L492.7252 234.8666L492.7252 234.2758L492.7252 234.2758L492.4762 234.2758C 492.4566 234.3995 492.4412 234.4816 492.4298 234.5223C 492.4184 234.563 492.4013 234.6021 492.3785 234.6395C 492.3557 234.677 492.3232 234.7095 492.2809 234.7372C 492.2385 234.7648 492.1759 234.7893 492.0929 234.8104C 492.0099 234.8316 491.8935 234.8487 491.7437 234.8617C 491.3889 234.891 491.1008 234.9553 490.8795 235.0546C 490.6581 235.1539 490.4693 235.2987 490.3131 235.4891C 490.1568 235.6796 490.047 235.883 489.9835 236.0995C 489.92 236.316 489.8883 236.5707 489.8883 236.8636C 489.8883 237.1208 489.9062 237.3389 489.942 237.5179L489.942 237.5179L490.8258 237.5179L490.8258 237.5179L490.8258 237.0345C 490.4417 236.9108 490.2984 236.7676 490.2984 236.4681C 490.2984 236.3607 490.3131 236.2704 490.3424 236.1971C 490.3717 236.1239 490.4172 236.0564 490.4791 235.9945C 490.541 235.9327 490.624 235.8798 490.7281 235.8358C 490.8323 235.7919 490.9617 235.7593 491.1163 235.7382C 491.2709 235.717 491.4719 235.7064 491.7193 235.7064L491.7193 235.7064L492.232 235.7064L492.232 235.7064L492.232 236.8734z" stroke="none" fill="#595959" fill-rule="evenodd" /><path id="1765" transform="matrix(1 0 0 -1 0 612)" d="" stroke="none" fill="#595959" fill-rule="evenodd" /><path id="1766" transform="matrix(1 0 0 -1 0 612)" d="M493.2525 243.0165L496.9244 241.7372L496.9244 241.7372L496.9244 241.0585L496.9244 241.0585L493.3014 239.8866C 493.067 239.8118 492.9018 239.7491 492.8058 239.6986C 492.7097 239.6482 492.6381 239.5945 492.5909 239.5375C 492.5437 239.4805 492.5038 239.3886 492.4713 239.2616L492.4713 239.2616L492.232 239.2616L492.232 239.2616L492.232 241.1903L492.232 241.1903L492.4713 241.1903C 492.5494 240.8127 492.6568 240.7069 492.9107 240.7069C 493.0865 240.7069 493.2672 240.746 493.5211 240.8241L493.5211 240.8241L496.0113 241.5907L496.0113 241.5907L492.232 242.8456L492.232 242.8456L492.232 243.5341L492.232 243.5341L496.0113 244.5985L496.0113 244.5985L493.6236 245.4579C 493.3762 245.5491 493.15 245.6142 492.9547 245.6142C 492.6812 245.6142 492.5429 245.4823 492.4713 245.1308L492.4713 245.1308L492.232 245.1308L492.232 245.1308L492.232 246.8349L492.232 246.8349L492.4713 246.8349C 492.4941 246.7437 492.5177 246.6754 492.5421 246.6298C 492.5665 246.5842 492.6023 246.5394 492.6495 246.4955C 492.6967 246.4516 492.77 246.4027 492.8692 246.349C 492.9685 246.2953 493.1223 246.2278 493.3307 246.1464L493.3307 246.1464L496.9244 244.7352L496.9244 244.7352L496.9244 244.0761z" stroke="none" fill="#595959" fill-rule="evenodd" /><path id="1767" transform="matrix(1 0 0 -1 0 612)" d="M496.2018 250.1759L496.1822 250.1027C 496.7617 249.5363 496.9781 249.0708 496.9781 248.5109C 496.9781 248.2635 496.9301 248.0454 496.8341 247.8566C 496.738 247.6678 496.603 247.5229 496.4288 247.422C 496.2546 247.3211 496.0536 247.2706 495.8258 247.2706C 494.8752 247.2706 494.3577 248.2114 494.273 250.0929L494.273 250.0929L493.9557 250.0929C 493.6171 250.0929 493.3502 250.0604 493.1549 249.9953C 492.9596 249.9301 492.8163 249.8276 492.7252 249.6876C 492.634 249.5477 492.5885 249.3605 492.5885 249.1261C 492.5885 248.6183 492.8554 248.3204 493.3893 248.1642L493.3893 248.1642L493.3893 247.5246L493.3893 247.5246L492.7545 247.5246C 492.5917 247.8371 492.4721 248.0975 492.3956 248.3058C 492.3191 248.5141 492.2589 248.7225 492.2149 248.9308C 492.171 249.1391 492.149 249.3507 492.149 249.5656C 492.149 249.8878 492.2003 250.1466 492.3028 250.3419C 492.4054 250.5372 492.5624 250.6837 492.774 250.7814C 492.9856 250.879 493.3046 250.9279 493.731 250.9279L493.731 250.9279L495.4303 250.9279C 495.6711 250.9279 495.8412 250.9295 495.9405 250.9328C 496.0398 250.936 496.1318 250.9458 496.2164 250.9621C 496.301 250.9783 496.3686 251.0027 496.419 251.0353C 496.4695 251.0678 496.5126 251.1159 496.5484 251.1793C 496.5842 251.2428 496.6217 251.3462 496.6607 251.4894L496.6607 251.4894L496.9 251.4894L496.9 251.4894L496.9 250.1515zM494.6734 250.0929C 494.6865 248.7713 495.0201 248.1154 495.7037 248.1154C 495.8893 248.1154 496.0357 248.1528 496.1432 248.2277C 496.2506 248.3026 496.3246 248.3969 496.3653 248.5109C 496.406 248.6248 496.4264 248.7599 496.4264 248.9162C 496.4264 249.1375 496.3727 249.3385 496.2652 249.5192C 496.1578 249.6998 496.0211 249.8406 495.8551 249.9415C 495.6891 250.0424 495.5247 250.0929 495.3619 250.0929z" stroke="none" fill="#595959" fill-rule="evenodd" /><path id="1768" transform="matrix(1 0 0 -1 0 612)" d="M492.232 253.955L492.4713 253.955C 492.5071 253.8053 492.5413 253.6994 492.5738 253.6376C 492.6064 253.5758 492.6487 253.5294 492.7008 253.4984C 492.7529 253.4675 492.8228 253.4521 492.9107 253.4521C 493.0865 253.4521 493.2672 253.4928 493.5211 253.5839L493.5211 253.5839L495.9918 254.4335L495.9918 254.4335L493.6236 255.4296C 493.3111 255.5598 493.1305 255.6054 492.9547 255.6054C 492.6812 255.6054 492.5559 255.4833 492.4713 255.0927L492.4713 255.0927L492.232 255.0927L492.232 255.0927L492.232 256.9189L492.232 256.9189L492.4713 256.9189C 492.4973 256.7919 492.5372 256.6942 492.5909 256.6259C 492.6446 256.5575 492.7292 256.4892 492.8448 256.4208C 492.9604 256.3524 493.1223 256.2711 493.3307 256.1767L493.3307 256.1767L496.9488 254.5312L496.9488 254.5312L496.9488 253.955L496.9488 253.955L493.3014 252.6317C 493.0507 252.5406 492.879 252.4682 492.7862 252.4145C 492.6935 252.3607 492.6243 252.3022 492.5787 252.2387C 492.5331 252.1752 492.4973 252.0832 492.4713 251.9628L492.4713 251.9628L492.232 251.9628z" stroke="none" fill="#595959" fill-rule="evenodd" /><path id="1769" transform="matrix(1 0 0 -1 0 612)" d="M496.0699 261.245C 496.288 261.0367 496.4589 260.8455 496.5826 260.6713C 496.7063 260.4971 496.8032 260.3059 496.8731 260.0976C 496.9431 259.8892 496.9781 259.6597 496.9781 259.4091C 496.9781 258.0679 496.1643 257.3778 494.5953 257.3778C 494.1103 257.3778 493.6822 257.4649 493.3111 257.6391C 492.94 257.8132 492.6536 258.0614 492.4518 258.3837C 492.2499 258.706 492.149 259.0771 492.149 259.497C 492.149 259.8257 492.2011 260.1057 492.3053 260.3368C 492.4094 260.5679 492.5518 260.7527 492.7325 260.891C 492.9132 261.0294 493.1411 261.1368 493.4161 261.2133C 493.6912 261.2898 494.05 261.3329 494.4928 261.3427L494.4928 261.3427L494.4928 258.2665L494.4928 258.2665L494.5807 258.2665C 494.9648 258.2665 495.2878 258.3096 495.5499 258.3959C 495.812 258.4822 496.017 258.6238 496.1651 258.8207C 496.3132 259.0176 496.3873 259.274 496.3873 259.5898C 496.3873 260.1236 496.2018 260.524 495.7525 260.9472zM494.0875 260.4247C 493.7359 260.4052 493.4487 260.3612 493.2257 260.2929C 493.0027 260.2245 492.8318 260.122 492.713 259.9853C 492.5942 259.8485 492.5348 259.6695 492.5348 259.4482C 492.5348 258.7776 493.0914 258.3625 494.0875 258.2909z" stroke="none" fill="#595959" fill-rule="evenodd" /><path id="1770" transform="matrix(1 0 0 -1 0 612)" d="M493.3014 265.6051L493.3014 265.1364C 493.106 265.0648 492.9522 264.9801 492.8399 264.8825C 492.7276 264.7848 492.6487 264.6741 492.6031 264.5504C 492.5576 264.4268 492.5348 264.2754 492.5348 264.0963C 492.5348 263.5755 492.7952 263.2419 493.2184 263.2419C 493.3681 263.2419 493.4918 263.2728 493.5894 263.3346C 493.6871 263.3965 493.7783 263.4925 493.8629 263.6227C 493.9475 263.7529 494.0598 263.9824 494.1998 264.3112C 494.343 264.6432 494.4749 264.8996 494.5953 265.0802C 494.7158 265.2609 494.8557 265.4025 495.0152 265.505C 495.1747 265.6076 495.3652 265.6588 495.5865 265.6588C 495.8437 265.6588 496.0602 265.6149 496.2359 265.527C 496.4117 265.4391 496.5549 265.3154 496.6656 265.1559C 496.7763 264.9964 496.856 264.8068 496.9049 264.5871C 496.9537 264.3673 496.9781 264.1273 496.9781 263.8669C 496.9781 263.32 496.8886 262.8073 496.7584 262.319L496.7584 262.319L495.7379 262.319L495.7379 262.319L495.7379 262.7975C 496.3369 262.9733 496.5924 263.2956 496.5924 263.901C 496.5924 264.0182 496.5802 264.133 496.5558 264.2453C 496.5313 264.3576 496.4907 264.4577 496.4337 264.5456C 496.3767 264.6335 496.2994 264.7034 496.2018 264.7555C 496.1041 264.8076 495.982 264.8336 495.8355 264.8336C 495.6695 264.8336 495.5344 264.8011 495.4303 264.736C 495.3261 264.6709 495.2309 264.57 495.1446 264.4333C 495.0583 264.2965 494.942 264.0557 494.7955 263.7106C 494.6718 263.4144 494.5514 263.1768 494.4342 262.9977C 494.317 262.8187 494.1786 262.6779 494.0191 262.5753C 493.8596 262.4728 493.6708 262.4215 493.4527 262.4215C 493.1858 262.4215 492.9539 262.494 492.7569 262.6388C 492.56 262.7837 492.4094 262.9928 492.3053 263.2663C 492.2011 263.5397 492.149 263.8604 492.149 264.2282C 492.149 264.6579 492.1816 264.9997 492.3053 265.6051z" stroke="none" fill="#595959" fill-rule="evenodd" /></g></g></g><g clip-path="url(#457)"><g clip-path="url(#458)"><path id="1771" transform="matrix(1 0 0 -1 0 612)" d="M527.727 158.9L527.727 163.647L527.727 163.647L522.98 163.647L522.98 163.647L522.98 158.9z" stroke="none" fill="#4F81BC" fill-rule="evenodd" /></g></g><g clip-path="url(#459)"><g clip-path="url(#460)"><g clip-path="url(#461)"></g></g></g><g clip-path="url(#462)"><g clip-path="url(#463)"><path id="1785" transform="matrix(1 0 0 -1 0 612)" d="M600.288 158.9L600.288 163.647L600.288 163.647L595.541 163.647L595.541 163.647L595.541 158.9z" stroke="none" fill="#C0504D" fill-rule="evenodd" /></g></g><g clip-path="url(#464)"><g clip-path="url(#465)"><g clip-path="url(#466)"></g></g></g><g clip-path="url(#467)"><g clip-path="url(#468)"><g clip-path="url(#469)"><path id="1802" transform="matrix(1 0 0 -1 0 612)" d="M474.75 147.05L715.5 147.05L715.5 147.05L715.5 291.5L715.5 291.5L474.75 291.5z" stroke="#D9D9D9" stroke-width="0.75" fill="none" /></g></g></g></g></g></svg>