<svg xmlns="http://www.w3.org/2000/svg" xmlns:xlink="http://www.w3.org/1999/xlink" id="body_1" preserveAspectRatio="xMinYMin meet" viewBox="0 0 816 1056"><defs><clipPath id="1"><path id="" clip-rule="evenodd" transform="matrix(1 0 0 1 0 0)" d="M0 792L0 0L0 0L612 0L612 0L612 792L612 792L0 792z" /></clipPath></defs><g transform="matrix(1.333333 0 0 1.333333 0 0)"><g clip-path="url(#1)"><path id="1" transform="matrix(1 0 0 -1 0 792)" d="M30.71094 257.6934C 31.42057 256.7754 31.83073 256.1992 31.94141 255.9648C 32.10417 255.6133 32.18555 255.2389 32.18555 254.8418C 32.18555 253.6048 31.26107 252.7129 29.88086 252.7129C 29.44466 252.7129 29.06706 252.8105 28.74805 253.0059C 27.86263 253.5397 27.19206 254.6204 26.07227 257.6934L26.07227 257.6934L25.7207 257.6934C 23.93685 257.6934 23.38672 257.1139 23.38672 256.0332C 23.38672 255.623 23.49739 255.2975 23.71875 255.0566C 23.94011 254.8092 24.19401 254.6855 24.48047 254.6855L24.48047 254.6855L25.04688 254.7051C 25.64583 254.7051 25.98438 254.3698 25.98438 253.875C 25.98438 253.3932 25.62305 253.0547 25.03711 253.0547C 23.91732 253.0547 22.79102 254.2559 22.79102 256.3262C 22.79102 257.1205 22.92448 257.7715 23.19141 258.2793C 23.39323 258.6634 23.70898 258.9466 24.13867 259.1289C 24.41862 259.2461 24.99154 259.3047 25.85742 259.3047L25.85742 259.3047L28.89453 259.3047C 29.7474 259.3047 30.26986 259.321 30.46191 259.3535C 30.65397 259.3861 30.78255 259.4398 30.84766 259.5146C 30.91276 259.5895 30.94531 259.6758 30.94531 259.7734C 30.94531 259.8776 30.92253 259.9688 30.87695 260.0469C 30.79232 260.1836 30.55469 260.4473 30.16406 260.8379L30.16406 260.8379L30.71094 260.8379C 31.6875 260.1087 32.17578 259.4121 32.17578 258.748C 32.17578 258.11 31.77865 257.7064 30.71094 257.6934zM30.07617 257.6934L26.66797 257.6934C 27.05859 256.7103 27.33529 256.0755 27.49805 255.7891C 28.07096 254.7604 28.67969 254.3535 29.42188 254.3535C 30.35938 254.3535 31.05273 255.0111 31.05273 255.7402C 31.05273 256.235 30.72721 256.8861 30.07617 257.6934z" stroke="none" fill="#808080" fill-rule="evenodd" /><path id="2" transform="matrix(1 0 0 -1 0 792)" d="M22.79102 264.1222L24.80273 264.1222C 23.46159 264.8709 22.79102 265.6391 22.79102 266.4269C 22.79102 267.143 23.30208 267.6671 23.875 267.6671C 24.38281 267.6671 24.7832 267.2765 24.7832 266.8077C 24.7832 266.352 24.10938 265.6847 24.10938 265.4113C 24.10938 265.2941 24.17448 265.1671 24.30469 265.0304C 24.57162 264.7374 25.01107 264.4347 25.62305 264.1222L25.62305 264.1222L29.91016 264.1222C 30.40495 264.1222 30.7793 264.184 31.0332 264.3077C 31.38477 264.477 31.64844 264.8774 31.64844 265.6847L31.64844 265.6847L32 265.6847L32 265.6847L32 261.1046L32 261.1046L31.64844 261.1046C 31.64844 261.5603 31.57682 261.8989 31.43359 262.1202C 31.32943 262.283 31.16341 262.3969 30.93555 262.462C 30.82487 262.4946 30.50912 262.5109 29.98828 262.5109L29.98828 262.5109L26.52148 262.5109C 25.47982 262.5109 24.8597 262.4897 24.66113 262.4474C 24.46256 262.4051 24.31771 262.3269 24.22656 262.213C 24.13542 262.0991 24.08984 261.9575 24.08984 261.7882C 24.08984 261.5864 24.13867 261.3585 24.23633 261.1046L24.23633 261.1046L23.88477 261.007L23.88477 261.007L22.79102 263.712z" stroke="none" fill="#808080" fill-rule="evenodd" /><path id="3" transform="matrix(1 0 0 -1 0 792)" d="M24.66602 275.7041L28.9043 278.5459C 31.24805 280.1214 31.57357 280.5771 31.63867 281.749L31.63867 281.749L32 281.749L32 281.749L32 276.0654L32 276.0654L31.63867 276.0654C 31.63216 276.443 31.5931 276.7229 31.52148 276.9052C 31.4043 277.1787 31.13412 277.374 30.88672 277.374C 30.73698 277.374 30.58724 277.3447 30.4375 277.2861C 30.32682 277.2405 30.04037 277.0615 29.57813 276.749L29.57813 276.749L26.17969 274.5029L26.17969 274.5029L29.73438 271.7295C 30.48958 271.1435 30.61328 271.1142 30.88672 271.1142C 31.30338 271.1142 31.59961 271.3942 31.63867 272.3838L31.63867 272.3838L32 272.3838L32 272.3838L32 267.6865L32 267.6865L31.63867 267.6865C 31.60612 268.0185 31.53776 268.305 31.43359 268.5459C 31.09505 269.3531 30.61654 270.0107 29.43164 270.9482L29.43164 270.9482L25.48633 274.0732L25.48633 274.0732L21.66797 271.4658C 19.59766 270.0465 19.1582 269.2392 19.11914 267.9502L19.11914 267.9502L18.75781 267.9502L18.75781 267.9502L18.75781 274.0732L18.75781 274.0732L19.11914 274.0732C 19.1582 273.0315 19.50651 272.7158 19.87109 272.7158C 20.11198 272.7158 20.46354 272.872 20.92578 273.1845L20.92578 273.1845L23.96289 275.2158L23.96289 275.2158L20.98438 277.5693C 20.28125 278.1162 20.13477 278.165 19.86133 278.165C 19.72461 278.165 19.60417 278.1259 19.5 278.0478C 19.22656 277.8525 19.13216 277.6865 19.11914 276.749L19.11914 276.749L18.75781 276.749L18.75781 276.749L18.75781 281.4463L18.75781 281.4463L19.11914 281.4463C 19.13867 281.0752 19.19727 280.7724 19.29492 280.5381C 19.5944 279.8349 19.93945 279.3987 21.30664 278.331z" stroke="none" fill="#808080" fill-rule="evenodd" /><path id="4" transform="matrix(1 0 0 -1 0 792)" d="M18.11328 284.8804C 18.11328 285.4273 18.55273 285.8667 19.09961 285.8667C 19.64648 285.8667 20.0957 285.4273 20.0957 284.8804C 20.0957 284.3335 19.64648 283.8843 19.09961 283.8843C 18.55273 283.8843 18.11328 284.3205 18.11328 284.8804zM22.79102 285.6909L29.97852 285.6909C 30.53841 285.6909 30.91113 285.7316 31.09668 285.813C 31.28223 285.8944 31.42057 286.0148 31.51172 286.1743C 31.60287 286.3338 31.64844 286.6252 31.64844 287.0484L31.64844 287.0484L32 287.0484L32 287.0484L32 282.7027L32 282.7027L31.64844 282.7027C 31.64844 283.1389 31.60612 283.4318 31.52148 283.5816C 31.43685 283.7313 31.29688 283.8501 31.10156 283.938C 30.90625 284.0259 30.5319 284.0699 29.97852 284.0699L29.97852 284.0699L26.53125 284.0699C 25.5612 284.0699 24.93294 284.0406 24.64648 283.982C 24.22982 283.8908 24.08984 283.7053 24.08984 283.3667C 24.08984 283.1844 24.13867 282.9631 24.23633 282.7027L24.23633 282.7027L23.88477 282.5659L23.88477 282.5659L22.79102 285.2613z" stroke="none" fill="#808080" fill-rule="evenodd" /><path id="5" transform="matrix(1 0 0 -1 0 792)" d="M23.05469 287.706L23.05469 291.915L23.05469 291.915L23.41602 291.915L23.41602 291.915L23.41602 291.6416C 23.41602 291.1338 23.68294 290.8603 24.09961 290.8603C 24.32747 290.8603 24.59766 290.9287 24.91016 291.0654L24.91016 291.0654L29.85156 293.1455L29.85156 293.1455L24.72461 295.2353C 24.36003 295.385 24.08333 295.4599 23.89453 295.4599C 23.80339 295.4599 23.72852 295.4339 23.66992 295.3818C 23.47461 295.2386 23.41602 295.1116 23.41602 294.4345L23.41602 294.4345L23.05469 294.4345L23.05469 294.4345L23.05469 297.3545L23.05469 297.3545L23.41602 297.3545C 23.44206 297.0159 23.51042 296.7815 23.62109 296.6513C 23.81641 296.4235 24.14193 296.2184 24.59766 296.0361L24.59766 296.0361L32.27344 292.8623L32.27344 292.8623L32.27344 292.4619L32.27344 292.4619L24.72461 289.2685C 24.02148 288.9821 23.79036 288.7639 23.58203 288.3603C 23.52344 288.2496 23.4681 288.0315 23.41602 287.706z" stroke="none" fill="#808080" fill-rule="evenodd" /><path id="6" transform="matrix(1 0 0 -1 0 792)" d="M22.78125 300.3623C 22.78125 300.9612 23.26628 301.4463 23.86523 301.4463C 24.46419 301.4463 24.94922 300.9612 24.94922 300.3623C 24.94922 299.7633 24.46419 299.2783 23.86523 299.2783C 23.26628 299.2783 22.78125 299.7633 22.78125 300.3623zM30.0957 300.3427C 30.0957 300.9547 30.59049 301.4365 31.18945 301.4365C 31.78841 301.4365 32.27344 300.9417 32.27344 300.3427C 32.27344 299.7438 31.78841 299.2588 31.18945 299.2588C 30.59049 299.2588 30.0957 299.7438 30.0957 300.3427z" stroke="none" fill="#808080" fill-rule="evenodd" /><path id="7" transform="matrix(1 0 0 -1 0 792)" d="M20.05664 305.4438L18.48438 308.6664L18.48438 308.6664L18.48438 308.9887L18.48438 308.9887L29.66602 308.9887C 30.4082 308.9887 30.87044 309.0196 31.05273 309.0815C 31.23503 309.1433 31.375 309.2719 31.47266 309.4672C 31.57031 309.6625 31.62565 310.0596 31.63867 310.6586L31.63867 310.6586L32 310.6586L32 310.6586L32 305.6781L32 305.6781L31.63867 305.6781C 31.62565 306.3031 31.57194 306.7068 31.47754 306.8891C 31.38314 307.0714 31.25619 307.1983 31.09668 307.2699C 30.93717 307.3415 30.46029 307.3773 29.66602 307.3773L29.66602 307.3773L22.51758 307.3773C 21.55404 307.3773 20.93555 307.3448 20.66211 307.2797C 20.24544 307.1885 20.05664 306.9346 20.05664 306.5961C 20.05664 306.3552 20.15755 306.0199 20.35938 305.5902z" stroke="none" fill="#808080" fill-rule="evenodd" /><path id="8" transform="matrix(1 0 0 -1 0 792)" d="M32.27344 314.1547L31.91211 314.1547C 31.89909 315.001 31.70215 315.7888 31.32129 316.518C 30.94043 317.2471 30.27474 317.9519 29.32422 318.6322C 28.3737 319.3126 27.32878 319.7862 26.18945 320.0531C 26.84701 319.031 27.17578 318.1065 27.17578 317.2797C 27.17578 315.4177 25.61328 313.891 23.23047 313.891C 22.07161 313.891 21.03971 314.2231 20.13477 314.8871C 19.0345 315.6879 18.48438 316.7328 18.48438 318.0219C 18.48438 319.1091 18.93359 320.0401 19.83203 320.8148C 20.94531 321.7654 22.31901 322.2406 23.95313 322.2406C 26.89583 322.2406 29.55859 320.7172 31.23828 318.1391C 31.92838 317.0909 32.27344 315.9483 32.27344 314.7113zM25.4668 320.2094C 24.62044 320.3266 23.94336 320.3852 23.43555 320.3852C 22.80404 320.3852 22.12207 320.2777 21.38965 320.0629C 20.65723 319.8481 20.0957 319.5437 19.70508 319.1498C 19.31445 318.7559 19.11914 318.3083 19.11914 317.807C 19.11914 316.6482 20.16732 315.6293 22.22461 315.6293C 23.59831 315.6293 24.67253 315.919 25.44727 316.4984C 26.00716 316.9216 26.28711 317.4424 26.28711 318.0609C 26.28711 318.6599 25.98763 319.5844 25.4668 320.2094z" stroke="none" fill="#808080" fill-rule="evenodd" /><path id="9" transform="matrix(1 0 0 -1 0 792)" d="M25.45703 323.8227C 22.4362 323.8227 20.18685 324.8123 19.11914 326.3227C 18.69596 326.9086 18.48438 327.5141 18.48438 328.1391C 18.48438 329.1547 19.00195 330.0662 20.03711 330.8734C 21.31966 331.8826 23.05794 332.3871 25.25195 332.3871C 26.78841 332.3871 28.09375 332.1658 29.16797 331.7231C 30.24219 331.2803 31.02181 330.7156 31.50684 330.0287C 31.99186 329.3419 32.23438 328.6794 32.23438 328.0414C 32.23438 326.7784 31.48893 325.727 29.99805 324.8871C 28.74154 324.1775 27.22787 323.8227 25.45703 323.8227zM25.70117 325.7367C 27.52409 325.7367 29.01172 325.9613 30.16406 326.4106C 31.13412 326.7816 31.61914 327.335 31.61914 328.0707C 31.61914 328.7738 31.04297 329.6332 29.55859 330.0238C 28.4388 330.3233 26.86003 330.4731 24.82227 330.4731C 23.31185 330.4731 22.05208 330.3168 21.04297 330.0043C 20.29427 329.7699 19.76367 329.4672 19.45117 329.0961C 19.23633 328.8292 19.12891 328.5069 19.12891 328.1293C 19.12891 327.6866 19.32747 327.2927 19.72461 326.9477C 20.80534 326.0102 23.44857 325.7367 25.70117 325.7367z" stroke="none" fill="#808080" fill-rule="evenodd" /><path id="10" transform="matrix(1 0 0 -1 0 792)" d="M20.05664 335.4438L18.48438 338.6664L18.48438 338.6664L18.48438 338.9887L18.48438 338.9887L29.66602 338.9887C 30.4082 338.9887 30.87044 339.0196 31.05273 339.0815C 31.23503 339.1433 31.375 339.2719 31.47266 339.4672C 31.57031 339.6625 31.62565 340.0596 31.63867 340.6586L31.63867 340.6586L32 340.6586L32 340.6586L32 335.6781L32 335.6781L31.63867 335.6781C 31.62565 336.3031 31.57194 336.7068 31.47754 336.8891C 31.38314 337.0714 31.25619 337.1983 31.09668 337.2699C 30.93717 337.3416 30.46029 337.3773 29.66602 337.3773L29.66602 337.3773L22.51758 337.3773C 21.55404 337.3773 20.93555 337.3448 20.66211 337.2797C 20.24544 337.1885 20.05664 336.9346 20.05664 336.5961C 20.05664 336.3552 20.15755 336.0199 20.35938 335.5902z" stroke="none" fill="#808080" fill-rule="evenodd" /><path id="11" transform="matrix(1 0 0 -1 0 792)" d="M30.10547 345.6C 30.10547 346.212 30.59049 346.684 31.18945 346.684C 31.78841 346.684 32.27344 346.199 32.27344 345.6C 32.27344 345.001 31.78841 344.516 31.18945 344.516C 30.57747 344.516 30.10547 345.001 30.10547 345.6z" stroke="none" fill="#808080" fill-rule="evenodd" /><path id="12" transform="matrix(1 0 0 -1 0 792)" d="M20.05664 350.4438L18.48438 353.6664L18.48438 353.6664L18.48438 353.9887L18.48438 353.9887L29.66602 353.9887C 30.4082 353.9887 30.87044 354.0196 31.05273 354.0815C 31.23503 354.1433 31.375 354.2719 31.47266 354.4672C 31.57031 354.6625 31.62565 355.0596 31.63867 355.6586L31.63867 355.6586L32 355.6586L32 355.6586L32 350.6781L32 350.6781L31.63867 350.6781C 31.62565 351.3031 31.57194 351.7068 31.47754 351.8891C 31.38314 352.0714 31.25619 352.1983 31.09668 352.2699C 30.93717 352.3416 30.46029 352.3773 29.66602 352.3773L29.66602 352.3773L22.51758 352.3773C 21.55404 352.3773 20.93555 352.3448 20.66211 352.2797C 20.24544 352.1885 20.05664 351.9346 20.05664 351.5961C 20.05664 351.3552 20.15755 351.0199 20.35938 350.5902z" stroke="none" fill="#808080" fill-rule="evenodd" /><path id="13" transform="matrix(1 0 0 -1 0 792)" d="M20.05664 360.4438L18.48438 363.6664L18.48438 363.6664L18.48438 363.9887L18.48438 363.9887L29.66602 363.9887C 30.4082 363.9887 30.87044 364.0196 31.05273 364.0815C 31.23503 364.1433 31.375 364.2719 31.47266 364.4672C 31.57031 364.6625 31.62565 365.0596 31.63867 365.6586L31.63867 365.6586L32 365.6586L32 365.6586L32 360.6781L32 360.6781L31.63867 360.6781C 31.62565 361.3031 31.57194 361.7068 31.47754 361.8891C 31.38314 362.0714 31.25619 362.1983 31.09668 362.2699C 30.93717 362.3416 30.46029 362.3773 29.66602 362.3773L29.66602 362.3773L22.51758 362.3773C 21.55404 362.3773 20.93555 362.3448 20.66211 362.2797C 20.24544 362.1885 20.05664 361.9346 20.05664 361.5961C 20.05664 361.3552 20.15755 361.0199 20.35938 360.5902z" stroke="none" fill="#808080" fill-rule="evenodd" /><path id="14" transform="matrix(1 0 0 -1 0 792)" d="M20.05664 370.4438L18.48438 373.6664L18.48438 373.6664L18.48438 373.9887L18.48438 373.9887L29.66602 373.9887C 30.4082 373.9887 30.87044 374.0196 31.05273 374.0815C 31.23503 374.1433 31.375 374.2719 31.47266 374.4672C 31.57031 374.6625 31.62565 375.0596 31.63867 375.6586L31.63867 375.6586L32 375.6586L32 375.6586L32 370.6781L32 370.6781L31.63867 370.6781C 31.62565 371.3031 31.57194 371.7068 31.47754 371.8891C 31.38314 372.0714 31.25619 372.1983 31.09668 372.2699C 30.93717 372.3416 30.46029 372.3773 29.66602 372.3773L29.66602 372.3773L22.51758 372.3773C 21.55404 372.3773 20.93555 372.3448 20.66211 372.2797C 20.24544 372.1885 20.05664 371.9346 20.05664 371.5961C 20.05664 371.3552 20.15755 371.0199 20.35938 370.5902z" stroke="none" fill="#808080" fill-rule="evenodd" /><path id="15" transform="matrix(1 0 0 -1 0 792)" d="M25.33008 381.9379C 23.61133 379.8416 22.75846 379.4574 21.63867 379.4574C 19.91992 379.4574 18.48438 380.8995 18.48438 383.1C 18.48438 385.2354 19.85156 386.6547 21.33594 386.6547C 22.32552 386.6547 23.27279 386.1566 24.66602 383.9301C 25.55143 385.0759 26.24805 385.8344 26.75586 386.2055C 27.41992 386.7003 28.11979 386.9477 28.85547 386.9477C 30.71745 386.9477 32.23438 385.3949 32.23438 383.0902C 32.23438 381.8337 31.84049 380.8539 31.05273 380.1508C 30.42122 379.5909 29.73112 379.3109 28.98242 379.3109C 27.81055 379.3109 26.72331 380.0108 25.33008 381.9379zM24.28516 383.4711C 22.87891 385.0336 22.26693 385.268 21.23828 385.268C 19.87109 385.268 19.05078 384.4477 19.05078 383.1195C 19.05078 381.7914 19.94596 380.8734 20.97461 380.8734C 21.65169 380.8734 22.34505 381.2315 22.95703 381.8695zM25.70117 382.3969C 26.61263 381.3162 27.68359 380.8051 28.93359 380.8051C 30.61328 380.8051 31.70703 381.8272 31.70703 383.2465C 31.70703 384.6527 30.79883 385.5707 29.66602 385.5707C 29.19727 385.5707 28.77734 385.447 28.40625 385.1996C 27.71615 384.7374 26.81445 383.8031 25.70117 382.3969z" stroke="none" fill="#808080" fill-rule="evenodd" /><path id="16" transform="matrix(1 0 0 -1 0 792)" d="M27.11719 397.4066L28.50391 397.4066L28.50391 397.4066L28.50391 395.6293L28.50391 395.6293L32 395.6293L32 395.6293L32 394.018L32 394.018L28.50391 394.018L28.50391 394.018L28.50391 388.4125L28.50391 388.4125L27.25391 388.4125L27.25391 388.4125L18.48438 394.5551L18.48438 394.5551L18.48438 395.6293L18.48438 395.6293L27.11719 395.6293zM27.11719 394.018L20.54492 394.018L20.54492 394.018L27.11719 389.3695z" stroke="none" fill="#808080" fill-rule="evenodd" /><path id="17" transform="matrix(1 0 0 -1 0 792)" d="M23.05469 398.266L23.05469 402.475L23.05469 402.475L23.41602 402.475L23.41602 402.475L23.41602 402.2016C 23.41602 401.6938 23.68294 401.4203 24.09961 401.4203C 24.32747 401.4203 24.59766 401.4887 24.91016 401.6254L24.91016 401.6254L29.85156 403.7055L29.85156 403.7055L24.72461 405.7953C 24.36003 405.9451 24.08333 406.0199 23.89453 406.0199C 23.80339 406.0199 23.72852 405.9939 23.66992 405.9418C 23.47461 405.7986 23.41602 405.6716 23.41602 404.9945L23.41602 404.9945L23.05469 404.9945L23.05469 404.9945L23.05469 407.9145L23.05469 407.9145L23.41602 407.9145C 23.44206 407.5759 23.51042 407.3416 23.62109 407.2113C 23.81641 406.9835 24.14193 406.7784 24.59766 406.5961L24.59766 406.5961L32.27344 403.4223L32.27344 403.4223L32.27344 403.0219L32.27344 403.0219L24.72461 399.8285C 24.02148 399.5421 23.79036 399.324 23.58203 398.9203C 23.52344 398.8096 23.4681 398.5916 23.41602 398.266z" stroke="none" fill="#808080" fill-rule="evenodd" /><path id="18" transform="matrix(1 0 0 -1 0 792)" d="M20.05664 410.4438L18.48438 413.6664L18.48438 413.6664L18.48438 413.9887L18.48438 413.9887L29.66602 413.9887C 30.4082 413.9887 30.87044 414.0196 31.05273 414.0815C 31.23503 414.1433 31.375 414.2719 31.47266 414.4672C 31.57031 414.6625 31.62565 415.0596 31.63867 415.6586L31.63867 415.6586L32 415.6586L32 415.6586L32 410.6781L32 410.6781L31.63867 410.6781C 31.62565 411.3031 31.57194 411.7068 31.47754 411.8891C 31.38314 412.0714 31.25619 412.1983 31.09668 412.2699C 30.93717 412.3416 30.46029 412.3773 29.66602 412.3773L29.66602 412.3773L22.51758 412.3773C 21.55404 412.3773 20.93555 412.3448 20.66211 412.2797C 20.24544 412.1885 20.05664 411.9346 20.05664 411.5961C 20.05664 411.3552 20.15755 411.0199 20.35938 410.5902z" stroke="none" fill="#808080" fill-rule="evenodd" /><path id="19" transform="matrix(1 0 0 -1 0 792)" d="" stroke="none" fill="#808080" fill-rule="evenodd" /><path id="20" transform="matrix(1 0 0 -1 0 792)" d="" stroke="none" fill="#808080" fill-rule="evenodd" /><path id="21" transform="matrix(1 0 0 -1 0 792)" d="M35.96484 434.0375L35.96484 429.7406L35.96484 429.7406L18.45508 429.7406L18.45508 429.7406L18.45508 434.0375L18.45508 434.0375L19.22656 434.0375L19.22656 434.0375L19.22656 431.2055L19.22656 431.2055L35.20313 431.2055L35.20313 431.2055L35.20313 434.0375z" stroke="none" fill="#808080" fill-rule="evenodd" /><path id="22" transform="matrix(1 0 0 -1 0 792)" d="M28.60156 442.9827C 30.95833 442.5009 32.27344 440.9384 32.27344 439.2327C 32.27344 437.2014 30.44076 435.4436 27.53711 435.4436C 24.72461 435.4436 22.79102 437.3674 22.79102 439.7112C 22.79102 441.469 23.93685 442.7288 24.93945 442.7288C 25.43424 442.7288 25.76953 442.3935 25.76953 441.8206C 25.76953 441.4364 25.64583 441.1467 25.39844 440.9514C 25.125 440.73 24.14193 440.7919 23.73828 440.3362C 23.54297 440.1083 23.44531 439.7925 23.44531 439.3889C 23.44531 438.7379 23.6862 438.2138 24.16797 437.8167C 24.80599 437.2893 25.64909 437.0256 26.69727 437.0256C 28.83268 437.0256 30.75 438.1519 30.75 439.9358C 30.75 440.5738 30.5319 441.1467 30.0957 441.6545C 29.79622 442.0126 29.2526 442.3609 28.46484 442.6995z" stroke="none" fill="#808080" fill-rule="evenodd" /><path id="23" transform="matrix(1 0 0 -1 0 792)" d="M22.79102 450.0463L25.83789 450.0463L25.83789 450.0463L25.83789 449.724C 23.92383 449.2292 23.36719 448.4903 23.36719 447.2924C 23.36719 446.3809 23.94336 445.7689 24.5293 445.7689C 24.89388 445.7689 25.20638 445.8731 25.4668 446.0814C 25.73372 446.2832 26.01693 446.6934 26.31641 447.3119L26.31641 447.3119L27.00977 448.7377C 27.6543 450.0593 28.50391 450.7201 29.55859 450.7201C 31.1862 450.7201 32.27344 449.2552 32.27344 447.7318C 32.27344 447.1849 32.17578 446.5599 31.98047 445.8568C 31.91537 445.642 31.88281 445.4662 31.88281 445.3295C 31.88281 445.1797 31.96745 445.0625 32.13672 444.9779L32.13672 444.9779L32.13672 444.6556L32.13672 444.6556L28.94336 444.6556L28.94336 444.6556L28.94336 444.9779C 30.76628 445.3425 31.69727 446.4753 31.69727 447.7513C 31.69727 448.6498 31.0918 449.2748 30.34961 449.2748C 29.90039 449.2748 29.52279 449.1169 29.2168 448.8011C 28.91081 448.4854 28.52344 447.8555 28.05469 446.9115C 27.58594 445.9675 27.16276 445.349 26.78516 445.056C 26.41406 444.7631 25.94531 444.6166 25.37891 444.6166C 23.90755 444.6166 22.79102 445.7299 22.79102 447.3314C 22.79102 447.683 22.86589 448.1094 23.01563 448.6107C 23.11328 448.9427 23.16211 449.1641 23.16211 449.2748C 23.16211 449.4831 23.10352 449.5677 22.79102 449.724z" stroke="none" fill="#808080" fill-rule="evenodd" /><path id="24" transform="matrix(1 0 0 -1 0 792)" d="M30.10547 453.92C 30.10547 454.532 30.59049 455.004 31.18945 455.004C 31.78841 455.004 32.27344 454.519 32.27344 453.92C 32.27344 453.321 31.78841 452.836 31.18945 452.836C 30.57747 452.836 30.10547 453.321 30.10547 453.92z" stroke="none" fill="#808080" fill-rule="evenodd" /><path id="25" transform="matrix(1 0 0 -1 0 792)" d="M27.56641 465.5704L27.56641 460.4434L27.56641 460.4434L29.65625 459.545C 30.17057 459.3236 30.55469 459.213 30.80859 459.213C 31.21224 459.213 31.54753 459.4701 31.63867 460.7462L31.63867 460.7462L32 460.7462L32 460.7462L32 456.5762L32 456.5762L31.63867 456.5762C 31.54102 457.1296 31.41406 457.4877 31.25781 457.6505C 30.94531 457.9825 30.31055 458.3503 29.35352 458.754L29.35352 458.754L18.45508 463.4122L18.45508 463.4122L18.45508 463.754L18.45508 463.754L29.4707 468.3633C 31.24154 469.1055 31.57357 469.558 31.63867 470.6387L31.63867 470.6387L32 470.6387L32 470.6387L32 465.4141L32 465.4141L31.63867 465.4141C 31.58659 466.4688 31.25781 466.7618 30.82813 466.7618C 30.54167 466.7618 30.08919 466.6316 29.4707 466.3712zM26.84375 465.2969L21.49219 463.0508L21.49219 463.0508L26.84375 460.7462z" stroke="none" fill="#808080" fill-rule="evenodd" /><path id="26" transform="matrix(1 0 0 -1 0 792)" d="M31.63867 477.0319L32 477.0319L32 477.0319L32 471.358L32 471.358L31.63867 471.358L31.63867 471.358L31.63867 471.8268C 31.63867 472.3737 31.47917 472.7708 31.16016 473.0182C 30.95182 473.1744 30.45052 473.2526 29.65625 473.2526L29.65625 473.2526L21.10156 473.2526C 20.43099 473.2526 19.98828 473.2103 19.77344 473.1256C 19.61068 473.0605 19.4707 472.9271 19.35352 472.7252C 19.19727 472.4388 19.11914 472.1393 19.11914 471.8268L19.11914 471.8268L19.11914 471.358L19.11914 471.358L18.75781 471.358L18.75781 471.358L18.75781 477.0319L18.75781 477.0319L19.11914 477.0319L19.11914 477.0319L19.11914 476.5533C 19.11914 476.013 19.27864 475.6191 19.59766 475.3717C 19.80599 475.209 20.30729 475.1276 21.10156 475.1276L21.10156 475.1276L29.65625 475.1276C 30.32682 475.1276 30.76953 475.1699 30.98438 475.2545C 31.14713 475.3196 31.28711 475.4564 31.4043 475.6647C 31.56055 475.9446 31.63867 476.2408 31.63867 476.5533z" stroke="none" fill="#808080" fill-rule="evenodd" /><path id="27" transform="matrix(1 0 0 -1 0 792)" d="M18.45508 478.2524L18.45508 482.5493L18.45508 482.5493L35.97461 482.5493L35.97461 482.5493L35.97461 478.2524L35.97461 478.2524L35.20313 478.2524L35.20313 478.2524L35.20313 481.0845L35.20313 481.0845L19.22656 481.0845L19.22656 481.0845L19.22656 478.2524z" stroke="none" fill="#808080" fill-rule="evenodd" /><path id="28" transform="matrix(1 0 0 -1 0 792)" d="" stroke="none" fill="#808080" fill-rule="evenodd" /><path id="29" transform="matrix(1 0 0 -1 0 792)" d="" stroke="none" fill="#808080" fill-rule="evenodd" /><path id="30" transform="matrix(1 0 0 -1 0 792)" d="M21.27734 495.1956C 19.49349 495.9508 18.48438 497.0609 18.48438 498.7796C 18.48438 499.8408 18.82943 500.6546 19.51953 501.221C 20.03386 501.6507 20.58398 501.8655 21.16992 501.8655C 22.13346 501.8655 23.12956 501.2601 24.1582 500.0491C 24.79622 501.6768 26.01367 502.5198 27.61523 502.5198C 28.76107 502.5198 29.75391 502.1553 30.59375 501.4261C 31.6875 500.4756 32.23438 499.0986 32.23438 497.2952C 32.23438 495.5114 31.69727 494.9905 31.18945 494.9905C 30.81185 494.9905 30.47656 495.3421 30.47656 495.7718C 30.47656 495.9346 30.5026 496.1006 30.55469 496.2698C 30.61979 496.4912 31.19922 497.5328 31.27734 497.8323C 31.34896 498.0732 31.38477 498.3304 31.38477 498.6038C 31.38477 499.9319 30.19336 501.0745 28.78711 501.0745C 28.27279 501.0745 27.77148 500.9606 27.2832 500.7327C 26.91862 500.5635 26.64193 500.3779 26.45313 500.1761C 25.93229 499.6162 25.42773 498.5452 25.42773 497.5296L25.42773 497.5296L25.42773 497.2171L25.42773 497.2171L25.13477 497.2171C 25.06966 497.7314 24.88412 498.2474 24.57813 498.765C 24.27213 499.2825 23.9043 499.6585 23.47461 499.8929C 23.04492 500.1273 22.57292 500.2444 22.05859 500.2444C 20.71745 500.2444 19.8125 499.2972 19.8125 498.0472C 19.8125 497.0381 20.35286 496.1949 21.43359 495.5179z" stroke="none" fill="#808080" fill-rule="evenodd" /><path id="31" transform="matrix(1 0 0 -1 0 792)" d="M20.05664 506.5237L18.48438 509.7464L18.48438 509.7464L18.48438 510.0687L18.48438 510.0687L29.66602 510.0687C 30.4082 510.0687 30.87044 510.0996 31.05273 510.1614C 31.23503 510.2233 31.375 510.3519 31.47266 510.5472C 31.57031 510.7425 31.62565 511.1396 31.63867 511.7386L31.63867 511.7386L32 511.7386L32 511.7386L32 506.7581L32 506.7581L31.63867 506.7581C 31.62565 507.3831 31.57194 507.7867 31.47754 507.9691C 31.38314 508.1513 31.25619 508.2783 31.09668 508.3499C 30.93717 508.4215 30.46029 508.4573 29.66602 508.4573L29.66602 508.4573L22.51758 508.4573C 21.55404 508.4573 20.93555 508.4248 20.66211 508.3597C 20.24544 508.2685 20.05664 508.0146 20.05664 507.6761C 20.05664 507.4352 20.15755 507.0999 20.35938 506.6702z" stroke="none" fill="#808080" fill-rule="evenodd" /><path id="32" transform="matrix(1 0 0 -1 0 792)" d="" stroke="none" fill="#808080" fill-rule="evenodd" /><path id="33" transform="matrix(1 0 0 -1 0 792)" d="M19.11914 521.1722L18.75781 521.1722L18.75781 521.1722L18.75781 526.846L18.75781 526.846L19.11914 526.846L19.11914 526.846L19.11914 526.3675C 19.11914 525.8271 19.27864 525.4332 19.59766 525.1859C 19.80599 525.0296 20.30729 524.9515 21.10156 524.9515L21.10156 524.9515L27.57617 524.9515C 28.57227 524.9515 29.37956 524.8424 29.99805 524.6243C 30.61654 524.4063 31.15527 524.0303 31.61426 523.4964C 32.07324 522.9625 32.30273 522.318 32.30273 521.5628C 32.30273 520.3389 31.58984 519.5901 30.80859 519.5901C 30.48958 519.5901 30.2487 519.6715 30.08594 519.8343C 29.88412 520.0491 29.7832 520.2998 29.7832 520.5862C 29.7832 521.0029 29.89713 521.2698 31.08203 521.7776C 31.43359 521.9274 31.60938 522.1194 31.60938 522.3538C 31.60938 522.7054 31.23828 523.0765 30.14453 523.0765L30.14453 523.0765L21.10156 523.0765C 20.43099 523.0765 19.98828 523.0342 19.77344 522.9495C 19.61068 522.8844 19.4707 522.7477 19.35352 522.5394C 19.19727 522.2594 19.11914 521.9632 19.11914 521.6507z" stroke="none" fill="#808080" fill-rule="evenodd" /><path id="34" transform="matrix(1 0 0 -1 0 792)" d="M30.71094 532.6533C 31.42057 531.7354 31.83073 531.1592 31.94141 530.9248C 32.10417 530.5732 32.18555 530.1989 32.18555 529.8018C 32.18555 528.5648 31.26107 527.6729 29.88086 527.6729C 29.44466 527.6729 29.06706 527.7705 28.74805 527.9658C 27.86263 528.4997 27.19206 529.5804 26.07227 532.6533L26.07227 532.6533L25.7207 532.6533C 23.93685 532.6533 23.38672 532.0739 23.38672 530.9932C 23.38672 530.583 23.49739 530.2575 23.71875 530.0166C 23.94011 529.7692 24.19401 529.6455 24.48047 529.6455L24.48047 529.6455L25.04688 529.665C 25.64583 529.665 25.98438 529.3298 25.98438 528.835C 25.98438 528.3532 25.62305 528.0146 25.03711 528.0146C 23.91732 528.0146 22.79102 529.2158 22.79102 531.2861C 22.79102 532.0804 22.92448 532.7314 23.19141 533.2393C 23.39323 533.6234 23.70898 533.9066 24.13867 534.0889C 24.41862 534.2061 24.99154 534.2646 25.85742 534.2646L25.85742 534.2646L28.89453 534.2646C 29.7474 534.2646 30.26986 534.2809 30.46191 534.3135C 30.65397 534.3461 30.78255 534.3998 30.84766 534.4746C 30.91276 534.5495 30.94531 534.6357 30.94531 534.7334C 30.94531 534.8376 30.92253 534.9287 30.87695 535.0068C 30.79232 535.1436 30.55469 535.4072 30.16406 535.7979L30.16406 535.7979L30.71094 535.7979C 31.6875 535.0687 32.17578 534.3721 32.17578 533.708C 32.17578 533.07 31.77865 532.6664 30.71094 532.6533zM30.07617 532.6533L26.66797 532.6533C 27.05859 531.6703 27.33529 531.0355 27.49805 530.749C 28.07096 529.7204 28.67969 529.3135 29.42188 529.3135C 30.35938 529.3135 31.05273 529.9711 31.05273 530.7002C 31.05273 531.195 30.72721 531.8461 30.07617 532.6533z" stroke="none" fill="#808080" fill-rule="evenodd" /><path id="35" transform="matrix(1 0 0 -1 0 792)" d="M24.68555 539.0724C 23.42253 540.1206 22.79102 541.1199 22.79102 542.0704C 22.79102 543.047 23.24349 543.7534 24.36328 544.17C 24.75391 544.3133 25.35287 544.3849 26.16016 544.3849L26.16016 544.3849L29.97852 544.3849C 30.54492 544.3849 30.92904 544.4305 31.13086 544.5216C 31.45638 544.6649 31.64844 544.8927 31.64844 545.7521L31.64844 545.7521L32 545.7521L32 545.7521L32 541.3282L32 541.3282L31.64844 541.3282L31.64844 541.3282L31.64844 541.5138C 31.64844 542.3472 31.39128 542.6043 30.89648 542.7345C 30.79883 542.7606 30.49284 542.7736 29.97852 542.7736L29.97852 542.7736L26.31641 542.7736C 24.6888 542.7736 23.99219 542.3895 23.99219 541.3868C 23.99219 540.6121 24.41537 539.8406 25.26172 539.0724L25.26172 539.0724L29.97852 539.0724C 30.58398 539.0724 30.95833 539.1082 31.10156 539.1798C 31.47917 539.3621 31.64844 539.5509 31.64844 540.5275L31.64844 540.5275L32 540.5275L32 540.5275L32 536.1036L32 536.1036L31.64844 536.1036L31.64844 536.1036L31.64844 536.299C 31.64844 537.2104 31.2806 537.4611 29.97852 537.4611L29.97852 537.4611L26.6582 537.4611C 25.58398 537.4611 24.92969 537.4366 24.69531 537.3878C 24.46094 537.339 24.30143 537.2642 24.2168 537.1632C 24.13216 537.0623 24.08984 536.9272 24.08984 536.7579C 24.08984 536.5757 24.13867 536.3575 24.23633 536.1036L24.23633 536.1036L23.88477 535.9572L23.88477 535.9572L22.79102 538.6525L22.79102 538.6525L22.79102 539.0724z" stroke="none" fill="#808080" fill-rule="evenodd" /><path id="36" transform="matrix(1 0 0 -1 0 792)" d="" stroke="none" fill="#808080" fill-rule="evenodd" /><path id="37" transform="matrix(1 0 0 -1 0 792)" d="M29.45117 560.0099L32 559.0822L32 559.0822L32 551.2697L32 551.2697L31.63867 551.2697C 27.44596 555.866 25.0599 557.5294 22.85938 557.5294C 21.17969 557.5294 19.97852 556.3445 19.97852 554.9122C 19.97852 553.6102 20.75325 552.5067 22.22461 552.0118L22.22461 552.0118L22.22461 551.6505C 19.81575 551.9761 18.48438 553.4116 18.48438 555.4298C 18.48438 557.5782 20.08594 559.1993 21.96094 559.1993C 22.63151 559.1993 23.30208 559.0431 23.97266 558.7306C 25.02734 558.2488 26.14388 557.4676 27.32227 556.3868C 29.0931 554.7657 30.16081 553.7534 30.52539 553.3497L30.52539 553.3497L30.52539 556.8068C 30.52539 557.5099 30.49935 558.0031 30.44727 558.2863C 30.39518 558.5695 30.28939 558.825 30.12988 559.0529C 29.97038 559.2808 29.74414 559.4793 29.45117 559.6486z" stroke="none" fill="#808080" fill-rule="evenodd" /><path id="38" transform="matrix(1 0 0 -1 0 792)" d="M25.45703 561.5626C 22.4362 561.5626 20.18685 562.5522 19.11914 564.0626C 18.69596 564.6486 18.48438 565.254 18.48438 565.879C 18.48438 566.8947 19.00195 567.8062 20.03711 568.6134C 21.31966 569.6226 23.05794 570.1271 25.25195 570.1271C 26.78841 570.1271 28.09375 569.9058 29.16797 569.463C 30.24219 569.0203 31.02181 568.4556 31.50684 567.7687C 31.99186 567.0818 32.23438 566.4194 32.23438 565.7814C 32.23438 564.5184 31.48893 563.4669 29.99805 562.6271C 28.74154 561.9175 27.22787 561.5626 25.45703 561.5626zM25.70117 563.4767C 27.52409 563.4767 29.01172 563.7013 30.16406 564.1505C 31.13412 564.5216 31.61914 565.075 31.61914 565.8107C 31.61914 566.5138 31.04297 567.3732 29.55859 567.7638C 28.4388 568.0633 26.86003 568.213 24.82227 568.213C 23.31185 568.213 22.05208 568.0568 21.04297 567.7443C 20.29427 567.5099 19.76367 567.2072 19.45117 566.8361C 19.23633 566.5692 19.12891 566.2469 19.12891 565.8693C 19.12891 565.4266 19.32747 565.0327 19.72461 564.6876C 20.80534 563.7501 23.44857 563.4767 25.70117 563.4767z" stroke="none" fill="#808080" fill-rule="evenodd" /><path id="39" transform="matrix(1 0 0 -1 0 792)" d="M20.05664 573.1837L18.48438 576.4064L18.48438 576.4064L18.48438 576.7286L18.48438 576.7286L29.66602 576.7286C 30.4082 576.7286 30.87044 576.7596 31.05273 576.8214C 31.23503 576.8833 31.375 577.0118 31.47266 577.2072C 31.57031 577.4025 31.62565 577.7996 31.63867 578.3986L31.63867 578.3986L32 578.3986L32 578.3986L32 573.4181L32 573.4181L31.63867 573.4181C 31.62565 574.0431 31.57194 574.4468 31.47754 574.629C 31.38314 574.8113 31.25619 574.9383 31.09668 575.0099C 30.93717 575.0815 30.46029 575.1173 29.66602 575.1173L29.66602 575.1173L22.51758 575.1173C 21.55404 575.1173 20.93555 575.0848 20.66211 575.0197C 20.24544 574.9285 20.05664 574.6746 20.05664 574.3361C 20.05664 574.0952 20.15755 573.7599 20.35938 573.3302z" stroke="none" fill="#808080" fill-rule="evenodd" /><path id="40" transform="matrix(1 0 0 -1 0 792)" d="M32.27344 581.8947L31.91211 581.8947C 31.89909 582.741 31.70215 583.5288 31.32129 584.2579C 30.94043 584.9871 30.27474 585.6919 29.32422 586.3722C 28.3737 587.0526 27.32878 587.5262 26.18945 587.7931C 26.84701 586.771 27.17578 585.8465 27.17578 585.0197C 27.17578 583.1577 25.61328 581.631 23.23047 581.631C 22.07161 581.631 21.03971 581.963 20.13477 582.6271C 19.0345 583.4279 18.48438 584.4728 18.48438 585.7618C 18.48438 586.8491 18.93359 587.7801 19.83203 588.5548C 20.94531 589.5054 22.31901 589.9806 23.95313 589.9806C 26.89583 589.9806 29.55859 588.4572 31.23828 585.879C 31.92838 584.8309 32.27344 583.6883 32.27344 582.4513zM25.4668 587.9493C 24.62044 588.0665 23.94336 588.1251 23.43555 588.1251C 22.80404 588.1251 22.12207 588.0177 21.38965 587.8029C 20.65723 587.588 20.0957 587.2837 19.70508 586.8898C 19.31445 586.4959 19.11914 586.0483 19.11914 585.547C 19.11914 584.3882 20.16732 583.3693 22.22461 583.3693C 23.59831 583.3693 24.67253 583.659 25.44727 584.2384C 26.00716 584.6616 26.28711 585.1824 26.28711 585.8009C 26.28711 586.3999 25.98763 587.3243 25.4668 587.9493z" stroke="none" fill="#808080" fill-rule="evenodd" /></g></g></svg>