<svg xmlns="http://www.w3.org/2000/svg" xmlns:xlink="http://www.w3.org/1999/xlink" id="body_1" preserveAspectRatio="xMinYMin meet" viewBox="0 0 816 1056"><defs><clipPath id="1"><path id="" clip-rule="evenodd" transform="matrix(1 0 0 1 0 0)" d="M0 792L0 0L0 0L612 0L612 0L612 792L612 792L0 792z" /></clipPath><clipPath id="2"><path id="" clip-rule="evenodd" transform="matrix(1 0 0 1 0 0)" d="M54 45.36035L118.048 45.36035L118.048 45.36035L118.048 32.81915L118.048 32.81915L54 32.81915z" /></clipPath><clipPath id="3"><path id="" clip-rule="evenodd" transform="matrix(1 0 0 1 0 0)" d="M306 45.36035L306 45.36035L306 45.36035L306 32.81915L306 32.81915L306 32.81915z" /></clipPath><clipPath id="4"><path id="" clip-rule="evenodd" transform="matrix(1 0 0 1 0 0)" d="M357.849 45.36035L558 45.36035L558 45.36035L558 32.81915L558 32.81915L357.849 32.81915z" /></clipPath><clipPath id="5"><path id="" clip-rule="evenodd" transform="matrix(1 0 0 1 0 0)" d="M54 759.1808L93.937 759.1808L93.937 759.1808L93.937 746.6396L93.937 746.6396L54 746.6396z" /></clipPath><clipPath id="6"><path id="" clip-rule="evenodd" transform="matrix(1 0 0 1 0 0)" d="M530.944 759.1808L558 759.1808L558 759.1808L558 746.6396L558 746.6396L530.944 746.6396z" /></clipPath></defs><g transform="matrix(1.333333 0 0 1.333333 0 0)"><g clip-path="url(#1)"><path id="1439" transform="matrix(1 0 0 -1 0 792)" d="M53.798 233.408L294.045 233.408" stroke="#000000" stroke-width="0.398" fill="none" /><g clip-path="url(#2)"></g><g clip-path="url(#3)"></g><g clip-path="url(#4)"></g><g clip-path="url(#5)"></g><g clip-path="url(#6)"></g></g></g></svg>