<svg xmlns="http://www.w3.org/2000/svg" xmlns:xlink="http://www.w3.org/1999/xlink" id="body_3" preserveAspectRatio="xMinYMin meet" viewBox="0 0 816 1056"><defs><clipPath id="1"><path id="" clip-rule="evenodd" transform="matrix(1 0 0 1 0 0)" d="M0 792L0 0L0 0L612 0L612 0L612 792L612 792L0 792z" /></clipPath><clipPath id="2"><path id="" clip-rule="evenodd" transform="matrix(1 0 0 1 0 0)" d="M484.211 529.211L604.211 529.211L604.211 529.211L604.211 489.251L604.211 489.251L484.211 489.251z" /></clipPath><clipPath id="3"><path id="" clip-rule="evenodd" transform="matrix(1 0 0 1 0 0)" d="M484.211 529.211L604.211 529.211L604.211 529.211L604.211 489.251L604.211 489.251L484.211 489.251z" /></clipPath><clipPath id="4"><path id="" clip-rule="evenodd" transform="matrix(1 0 0 1 0 0)" d="M487.259 555.953L551.259 555.953L551.259 555.953L551.259 545.953L551.259 545.953L487.259 545.953z" /></clipPath><clipPath id="5"><path id="" clip-rule="evenodd" transform="matrix(1 0 0 1 0 0)" d="M487.259 555.953L551.259 555.953L551.259 555.953L551.259 545.953L551.259 545.953L487.259 545.953z" /></clipPath><clipPath id="6"><path id="" clip-rule="evenodd" transform="matrix(1 0 0 1 0 0)" d="M482.382 640.308L610.382 640.308L610.382 640.308L610.382 584.364L610.382 584.364L482.382 584.364z" /></clipPath><clipPath id="7"><path id="" clip-rule="evenodd" transform="matrix(1 0 0 1 0 0)" d="M482.382 640.308L610.382 640.308L610.382 640.308L610.382 584.364L610.382 584.364L482.382 584.364z" /></clipPath><clipPath id="8"><path id="" clip-rule="evenodd" transform="matrix(1 0 0 1 0 0)" d="M248.269 606.85L311.94 606.85L311.94 606.85L311.94 596.897L311.94 596.897L248.269 596.897z" /></clipPath><clipPath id="9"><path id="" clip-rule="evenodd" transform="matrix(1 0 0 1 0 0)" d="M247.243 618.805L282.998 618.805L282.998 618.805L282.998 608.852L282.998 608.852L247.243 608.852z" /></clipPath><clipPath id="10"><path id="" clip-rule="evenodd" transform="matrix(1 0 0 1 0 0)" d="M480.554 143.073L608.554 143.073L608.554 143.073L608.554 127.089L608.554 127.089L480.554 127.089z" /></clipPath><clipPath id="11"><path id="" clip-rule="evenodd" transform="matrix(1 0 0 1 0 0)" d="M480.554 143.073L608.554 143.073L608.554 143.073L608.554 127.089L608.554 127.089L480.554 127.089z" /></clipPath><clipPath id="12"><path id="" clip-rule="evenodd" transform="matrix(1 0 0 1 0 0)" d="M479.335 199.841L607.335 199.841L607.335 199.841L607.335 175.865L607.335 175.865L479.335 175.865z" /></clipPath><clipPath id="13"><path id="" clip-rule="evenodd" transform="matrix(1 0 0 1 0 0)" d="M479.335 199.841L607.335 199.841L607.335 199.841L607.335 175.865L607.335 175.865L479.335 175.865z" /></clipPath><clipPath id="14"><path id="" clip-rule="evenodd" transform="matrix(1 0 0 1 0 0)" d="M479.944 227.888L607.944 227.888L607.944 227.888L607.944 203.912L607.944 203.912L479.944 203.912z" /></clipPath><clipPath id="15"><path id="" clip-rule="evenodd" transform="matrix(1 0 0 1 0 0)" d="M479.944 227.888L607.944 227.888L607.944 227.888L607.944 203.912L607.944 203.912L479.944 203.912z" /></clipPath><clipPath id="16"><path id="" clip-rule="evenodd" transform="matrix(1 0 0 1 0 0)" d="M239.262 221.429L300.433 221.429L300.433 221.429L300.433 212.254L300.433 212.254L239.262 212.254z" /></clipPath></defs><g transform="matrix(1.333333 0 0 1.333333 0 0)"><g clip-path="url(#1)"><path id="2334" transform="matrix(1 0 0 -1 0 792)" d="M133.768 128.707L271.25 128.707" stroke="#000000" stroke-width="0.398" fill="none" /><g clip-path="url(#2)"><g clip-path="url(#3)"></g></g><g clip-path="url(#4)"><g clip-path="url(#5)"></g></g><g clip-path="url(#6)"><g clip-path="url(#7)"></g></g><g clip-path="url(#8)"><path id="2547" transform="matrix(1 0 0 -1 0 792)" d="M248.269 187.638L250.757 185.15L250.757 185.15L253.245 187.638L253.245 187.638L255.733 185.15L255.733 185.15L258.221 187.638L258.221 187.638L260.709 185.15L260.709 185.15L263.198 187.638L263.198 187.638L265.686 185.15L265.686 185.15L268.174 187.638L268.174 187.638L270.662 185.15L270.662 185.15L273.15 187.638L273.15 187.638L275.638 185.15L275.638 185.15L278.127 187.638L278.127 187.638L280.615 185.15L280.615 185.15L283.103 187.638L283.103 187.638L285.591 185.15L285.591 185.15L288.079 187.638L288.079 187.638L290.567 185.15L290.567 185.15L293.056 187.638L293.056 187.638L295.544 185.15L295.544 185.15L298.032 187.638L298.032 187.638L300.52 185.15L300.52 185.15L303.008 187.638L303.008 187.638L305.496 185.15L305.496 185.15L307.984 187.638L307.984 187.638L310.473 185.15L310.473 185.15L312.961 187.638" stroke="#4B99FF" stroke-width="1.244" fill="none" /></g><g clip-path="url(#9)"><path id="2548" transform="matrix(1 0 0 -1 0 792)" d="M247.243 175.683L249.731 173.195L249.731 173.195L252.219 175.683L252.219 175.683L254.707 173.195L254.707 173.195L257.195 175.683L257.195 175.683L259.683 173.195L259.683 173.195L262.171 175.683L262.171 175.683L264.66 173.195L264.66 173.195L267.148 175.683L267.148 175.683L269.636 173.195L269.636 173.195L272.124 175.683L272.124 175.683L274.612 173.195L274.612 173.195L277.1 175.683L277.1 175.683L279.589 173.195L279.589 173.195L282.077 175.683L282.077 175.683L284.565 173.195" stroke="#4B99FF" stroke-width="1.244" fill="none" /></g><g clip-path="url(#10)"><g clip-path="url(#11)"></g></g><g clip-path="url(#12)"><g clip-path="url(#13)"></g></g><g clip-path="url(#14)"><g clip-path="url(#15)"></g></g><g clip-path="url(#16)"><path id="2650" transform="matrix(1 0 0 -1 0 792)" d="M239.262 579.746L300.433 579.746L300.433 570.571L239.262 570.571z" stroke="none" fill="#FFED00" fill-rule="nonzero" /></g></g></g></svg>