<svg xmlns="http://www.w3.org/2000/svg" xmlns:xlink="http://www.w3.org/1999/xlink" id="body_4" preserveAspectRatio="xMinYMin meet" viewBox="0 0 816 1056"><defs><clipPath id="1"><path id="" clip-rule="evenodd" transform="matrix(1 0 0 1 0 0)" d="M0 792L0 0L0 0L612 0L612 0L612 792L612 792L0 792z" /></clipPath><clipPath id="2"><path id="" clip-rule="evenodd" transform="matrix(1 0 0 1 0 0)" d="M484.211 359.369L608.211 359.369L608.211 359.369L608.211 287.441L608.211 287.441L484.211 287.441z" /></clipPath><clipPath id="3"><path id="" clip-rule="evenodd" transform="matrix(1 0 0 1 0 0)" d="M484.211 359.369L608.211 359.369L608.211 359.369L608.211 287.441L608.211 287.441L484.211 287.441z" /></clipPath><clipPath id="4"><path id="" clip-rule="evenodd" transform="matrix(1 0 0 1 0 0)" d="M479.944 456.855L611.944 456.855L611.944 456.855L611.944 392.919L611.944 392.919L479.944 392.919z" /></clipPath><clipPath id="5"><path id="" clip-rule="evenodd" transform="matrix(1 0 0 1 0 0)" d="M479.944 456.855L611.944 456.855L611.944 456.855L611.944 392.919L611.944 392.919L479.944 392.919z" /></clipPath><clipPath id="6"><path id="" clip-rule="evenodd" transform="matrix(1 0 0 1 0 0)" d="M328.737 439.212L444.742 439.212L444.742 439.212L444.742 429.259L444.742 429.259L328.737 429.259z" /></clipPath><clipPath id="7"><path id="" clip-rule="evenodd" transform="matrix(1 0 0 1 0 0)" d="M133.768 414.863L340.552 414.863L340.552 414.863L340.552 405.797L340.552 405.797L133.768 405.797z" /></clipPath><clipPath id="8"><path id="" clip-rule="evenodd" transform="matrix(1 0 0 1 0 0)" d="M272.703 463.123L451.87 463.123L451.87 463.123L451.87 453.17L451.87 453.17L272.703 453.17z" /></clipPath><clipPath id="9"><path id="" clip-rule="evenodd" transform="matrix(1 0 0 1 0 0)" d="M329.922 525.448L425.722 525.448L425.722 525.448L425.722 516.492L425.722 516.492L329.922 516.492z" /></clipPath><clipPath id="10"><path id="" clip-rule="evenodd" transform="matrix(1 0 0 1 0 0)" d="M133.768 537.394L267.297 537.394L267.297 537.394L267.297 528.338L267.297 528.338L133.768 528.338z" /></clipPath><clipPath id="11"><path id="" clip-rule="evenodd" transform="matrix(1 0 0 1 0 0)" d="M133.768 610.379L477.322 610.379L477.322 610.379L477.322 539.845L477.322 539.845L133.768 539.845z" /></clipPath><clipPath id="12"><path id="" clip-rule="evenodd" transform="matrix(1 0 0 1 0 0)" d="M133.768 670.058L477.189 670.058L477.189 670.058L477.189 635.825L477.189 635.825L133.768 635.825z" /></clipPath><clipPath id="13"><path id="" clip-rule="evenodd" transform="matrix(1 0 0 1 0 0)" d="M481.382 566.601L609.382 566.601L609.382 566.601L609.382 502.665L609.382 502.665L481.382 502.665z" /></clipPath><clipPath id="14"><path id="" clip-rule="evenodd" transform="matrix(1 0 0 1 0 0)" d="M481.382 566.601L609.382 566.601L609.382 566.601L609.382 502.665L609.382 502.665L481.382 502.665z" /></clipPath><clipPath id="15"><path id="" clip-rule="evenodd" transform="matrix(1 0 0 1 0 0)" d="M479.335 650.953L607.335 650.953L607.335 650.953L607.335 634.969L607.335 634.969L479.335 634.969z" /></clipPath><clipPath id="16"><path id="" clip-rule="evenodd" transform="matrix(1 0 0 1 0 0)" d="M479.335 650.953L607.335 650.953L607.335 650.953L607.335 634.969L607.335 634.969L479.335 634.969z" /></clipPath></defs><g transform="matrix(1.333333 0 0 1.333333 0 0)"><g clip-path="url(#1)"><g transform="matrix(0.18013 0 0 0.18013 218.036 153.6934)"><g transform="matrix(1 0 0 1 0 0)"><image x="0" y="0" xlink:href="img_04.png" width="954" height="620" /></g></g><g clip-path="url(#2)"><g clip-path="url(#3)"></g></g><g clip-path="url(#4)"><g clip-path="url(#5)"></g></g><g clip-path="url(#6)"><path id="2087" transform="matrix(1 0 0 -1 0 792)" d="M328.737 355.277L331.225 352.788L331.225 352.788L333.714 355.277L333.714 355.277L336.202 352.788L336.202 352.788L338.69 355.277L338.69 355.277L341.178 352.788L341.178 352.788L343.666 355.277L343.666 355.277L346.154 352.788L346.154 352.788L348.642 355.277L348.642 355.277L351.131 352.788L351.131 352.788L353.619 355.277L353.619 355.277L356.107 352.788L356.107 352.788L358.595 355.277L358.595 355.277L361.083 352.788L361.083 352.788L363.571 355.277L363.571 355.277L366.06 352.788L366.06 352.788L368.548 355.277L368.548 355.277L371.036 352.788L371.036 352.788L373.524 355.277L373.524 355.277L376.012 352.788L376.012 352.788L378.5 355.277L378.5 355.277L380.989 352.788L380.989 352.788L383.477 355.277L383.477 355.277L385.965 352.788L385.965 352.788L388.453 355.277L388.453 355.277L390.941 352.788L390.941 352.788L393.429 355.277L393.429 355.277L395.917 352.788L395.917 352.788L398.406 355.277L398.406 355.277L400.894 352.788L400.894 352.788L403.382 355.277L403.382 355.277L405.87 352.788L405.87 352.788L408.358 355.277L408.358 355.277L410.846 352.788L410.846 352.788L413.335 355.277L413.335 355.277L415.823 352.788L415.823 352.788L418.311 355.277L418.311 355.277L420.799 352.788L420.799 352.788L423.287 355.277L423.287 355.277L425.775 352.788L425.775 352.788L428.264 355.277L428.264 355.277L430.752 352.788L430.752 352.788L433.24 355.277L433.24 355.277L435.728 352.788L435.728 352.788L438.216 355.277L438.216 355.277L440.704 352.788L440.704 352.788L443.193 355.277L443.193 355.277L445.681 352.788" stroke="#4B99FF" stroke-width="1.244" fill="none" /></g><g clip-path="url(#7)"><path id="2088" transform="matrix(1 0 0 -1 0 792)" d="M133.768 379.403L136.034 377.137L136.034 377.137L138.301 379.403L138.301 379.403L140.567 377.137L140.567 377.137L142.834 379.403L142.834 379.403L145.1 377.137L145.1 377.137L147.367 379.403L147.367 379.403L149.633 377.137L149.633 377.137L151.9 379.403L151.9 379.403L154.166 377.137L154.166 377.137L156.433 379.403L156.433 379.403L158.699 377.137L158.699 377.137L160.966 379.403L160.966 379.403L163.232 377.137L163.232 377.137L165.499 379.403L165.499 379.403L167.765 377.137L167.765 377.137L170.032 379.403L170.032 379.403L172.298 377.137L172.298 377.137L174.565 379.403L174.565 379.403L176.831 377.137L176.831 377.137L179.098 379.403L179.098 379.403L181.364 377.137L181.364 377.137L183.63 379.403L183.63 379.403L185.897 377.137L185.897 377.137L188.163 379.403L188.163 379.403L190.43 377.137L190.43 377.137L192.696 379.403L192.696 379.403L194.963 377.137L194.963 377.137L197.229 379.403L197.229 379.403L199.496 377.137L199.496 377.137L201.762 379.403L201.762 379.403L204.029 377.137L204.029 377.137L206.295 379.403L206.295 379.403L208.562 377.137L208.562 377.137L210.828 379.403L210.828 379.403L213.095 377.137L213.095 377.137L215.361 379.403L215.361 379.403L217.628 377.137L217.628 377.137L219.894 379.403L219.894 379.403L222.161 377.137L222.161 377.137L224.427 379.403L224.427 379.403L226.694 377.137L226.694 377.137L228.96 379.403L228.96 379.403L231.227 377.137L231.227 377.137L233.493 379.403L233.493 379.403L235.76 377.137L235.76 377.137L238.026 379.403L238.026 379.403L240.292 377.137L240.292 377.137L242.559 379.403L242.559 379.403L244.825 377.137L244.825 377.137L247.092 379.403L247.092 379.403L249.358 377.137L249.358 377.137L251.625 379.403L251.625 379.403L253.891 377.137L253.891 377.137L256.158 379.403L256.158 379.403L258.424 377.137L258.424 377.137L260.691 379.403L260.691 379.403L262.957 377.137L262.957 377.137L265.224 379.403L265.224 379.403L267.49 377.137L267.49 377.137L269.757 379.403L269.757 379.403L272.023 377.137L272.023 377.137L274.29 379.403L274.29 379.403L276.556 377.137L276.556 377.137L278.823 379.403L278.823 379.403L281.089 377.137L281.089 377.137L283.356 379.403L283.356 379.403L285.622 377.137L285.622 377.137L287.889 379.403L287.889 379.403L290.155 377.137L290.155 377.137L292.422 379.403L292.422 379.403L294.688 377.137L294.688 377.137L296.954 379.403L296.954 379.403L299.221 377.137L299.221 377.137L301.487 379.403L301.487 379.403L303.754 377.137L303.754 377.137L306.02 379.403L306.02 379.403L308.287 377.137L308.287 377.137L310.553 379.403L310.553 379.403L312.82 377.137L312.82 377.137L315.086 379.403L315.086 379.403L317.353 377.137L317.353 377.137L319.619 379.403L319.619 379.403L321.886 377.137L321.886 377.137L324.152 379.403L324.152 379.403L326.419 377.137L326.419 377.137L328.685 379.403L328.685 379.403L330.952 377.137L330.952 377.137L333.218 379.403L333.218 379.403L335.485 377.137L335.485 377.137L337.751 379.403L337.751 379.403L340.018 377.137L340.018 377.137L342.284 379.403" stroke="#4B99FF" stroke-width="1.133" fill="none" /></g><g clip-path="url(#8)"><path id="2089" transform="matrix(1 0 0 -1 0 792)" d="M272.703 331.366L275.191 328.877L275.191 328.877L277.679 331.366L277.679 331.366L280.167 328.877L280.167 328.877L282.655 331.366L282.655 331.366L285.143 328.877L285.143 328.877L287.632 331.366L287.632 331.366L290.12 328.877L290.12 328.877L292.608 331.366L292.608 331.366L295.096 328.877L295.096 328.877L297.584 331.366L297.584 331.366L300.072 328.877L300.072 328.877L302.56 331.366L302.56 331.366L305.049 328.877L305.049 328.877L307.537 331.366L307.537 331.366L310.025 328.877L310.025 328.877L312.513 331.366L312.513 331.366L315.001 328.877L315.001 328.877L317.489 331.366L317.489 331.366L319.978 328.877L319.978 328.877L322.466 331.366L322.466 331.366L324.954 328.877L324.954 328.877L327.442 331.366L327.442 331.366L329.93 328.877L329.93 328.877L332.418 331.366L332.418 331.366L334.907 328.877L334.907 328.877L337.395 331.366L337.395 331.366L339.883 328.877L339.883 328.877L342.371 331.366L342.371 331.366L344.859 328.877L344.859 328.877L347.347 331.366L347.347 331.366L349.835 328.877L349.835 328.877L352.324 331.366L352.324 331.366L354.812 328.877L354.812 328.877L357.3 331.366L357.3 331.366L359.788 328.877L359.788 328.877L362.276 331.366L362.276 331.366L364.764 328.877L364.764 328.877L367.253 331.366L367.253 331.366L369.741 328.877L369.741 328.877L372.229 331.366L372.229 331.366L374.717 328.877L374.717 328.877L377.205 331.366L377.205 331.366L379.693 328.877L379.693 328.877L382.182 331.366L382.182 331.366L384.67 328.877L384.67 328.877L387.158 331.366L387.158 331.366L389.646 328.877L389.646 328.877L392.134 331.366L392.134 331.366L394.622 328.877L394.622 328.877L397.111 331.366L397.111 331.366L399.599 328.877L399.599 328.877L402.087 331.366L402.087 331.366L404.575 328.877L404.575 328.877L407.063 331.366L407.063 331.366L409.551 328.877L409.551 328.877L412.039 331.366L412.039 331.366L414.528 328.877L414.528 328.877L417.016 331.366L417.016 331.366L419.504 328.877L419.504 328.877L421.992 331.366L421.992 331.366L424.48 328.877L424.48 328.877L426.968 331.366L426.968 331.366L429.457 328.877L429.457 328.877L431.945 331.366L431.945 331.366L434.433 328.877L434.433 328.877L436.921 331.366L436.921 331.366L439.409 328.877L439.409 328.877L441.897 331.366L441.897 331.366L444.386 328.877L444.386 328.877L446.874 331.366L446.874 331.366L449.362 328.877L449.362 328.877L451.85 331.366L451.85 331.366L454.338 328.877" stroke="#4B99FF" stroke-width="1.244" fill="none" /></g><g clip-path="url(#9)"><path id="2090" transform="matrix(1 0 0 -1 0 792)" d="M329.922 268.791L332.161 266.552L332.161 266.552L334.4 268.791L334.4 268.791L336.639 266.552L336.639 266.552L338.878 268.791L338.878 268.791L341.117 266.552L341.117 266.552L343.356 268.791L343.356 268.791L345.595 266.552L345.595 266.552L347.834 268.791L347.834 268.791L350.073 266.552L350.073 266.552L352.312 268.791L352.312 268.791L354.551 266.552L354.551 266.552L356.791 268.791L356.791 268.791L359.03 266.552L359.03 266.552L361.269 268.791L361.269 268.791L363.508 266.552L363.508 266.552L365.747 268.791L365.747 268.791L367.986 266.552L367.986 266.552L370.225 268.791L370.225 268.791L372.464 266.552L372.464 266.552L374.703 268.791L374.703 268.791L376.942 266.552L376.942 266.552L379.181 268.791L379.181 268.791L381.42 266.552L381.42 266.552L383.659 268.791L383.659 268.791L385.898 266.552L385.898 266.552L388.138 268.791L388.138 268.791L390.377 266.552L390.377 266.552L392.616 268.791L392.616 268.791L394.855 266.552L394.855 266.552L397.094 268.791L397.094 268.791L399.333 266.552L399.333 266.552L401.572 268.791L401.572 268.791L403.811 266.552L403.811 266.552L406.05 268.791L406.05 268.791L408.289 266.552L408.289 266.552L410.528 268.791L410.528 268.791L412.767 266.552L412.767 266.552L415.006 268.791L415.006 268.791L417.246 266.552L417.246 266.552L419.485 268.791L419.485 268.791L421.724 266.552L421.724 266.552L423.963 268.791L423.963 268.791L426.202 266.552" stroke="#4B99FF" stroke-width="1.12" fill="none" /></g><g clip-path="url(#10)"><path id="2091" transform="matrix(1 0 0 -1 0 792)" d="M133.768 256.87L136.032 254.606L136.032 254.606L138.296 256.87L138.296 256.87L140.56 254.606L140.56 254.606L142.824 256.87L142.824 256.87L145.088 254.606L145.088 254.606L147.352 256.87L147.352 256.87L149.616 254.606L149.616 254.606L151.88 256.87L151.88 256.87L154.144 254.606L154.144 254.606L156.408 256.87L156.408 256.87L158.672 254.606L158.672 254.606L160.936 256.87L160.936 256.87L163.2 254.606L163.2 254.606L165.464 256.87L165.464 256.87L167.728 254.606L167.728 254.606L169.992 256.87L169.992 256.87L172.256 254.606L172.256 254.606L174.52 256.87L174.52 256.87L176.784 254.606L176.784 254.606L179.048 256.87L179.048 256.87L181.312 254.606L181.312 254.606L183.576 256.87L183.576 256.87L185.84 254.606L185.84 254.606L188.104 256.87L188.104 256.87L190.368 254.606L190.368 254.606L192.632 256.87L192.632 256.87L194.896 254.606L194.896 254.606L197.16 256.87L197.16 256.87L199.424 254.606L199.424 254.606L201.688 256.87L201.688 256.87L203.952 254.606L203.952 254.606L206.216 256.87L206.216 256.87L208.48 254.606L208.48 254.606L210.744 256.87L210.744 256.87L213.008 254.606L213.008 254.606L215.272 256.87L215.272 256.87L217.536 254.606L217.536 254.606L219.8 256.87L219.8 256.87L222.064 254.606L222.064 254.606L224.328 256.87L224.328 256.87L226.592 254.606L226.592 254.606L228.856 256.87L228.856 256.87L231.12 254.606L231.12 254.606L233.384 256.87L233.384 256.87L235.648 254.606L235.648 254.606L237.912 256.87L237.912 256.87L240.176 254.606L240.176 254.606L242.44 256.87L242.44 256.87L244.704 254.606L244.704 254.606L246.968 256.87L246.968 256.87L249.232 254.606L249.232 254.606L251.496 256.87L251.496 256.87L253.76 254.606L253.76 254.606L256.024 256.87L256.024 256.87L258.288 254.606L258.288 254.606L260.552 256.87L260.552 256.87L262.816 254.606L262.816 254.606L265.08 256.87L265.08 256.87L267.344 254.606" stroke="#4B99FF" stroke-width="1.132" fill="none" /></g><g clip-path="url(#11)"><path id="2092" transform="matrix(1 0 0 -1 0 792)" d="M256.589 242.298L477.24 242.298" stroke="#339E00" stroke-width="1.34" fill="none" /><path id="2093" transform="matrix(1 0 0 -1 0 792)" d="M133.768 230.781L477.149 230.781" stroke="#339E00" stroke-width="1.34" fill="none" /><path id="2094" transform="matrix(1 0 0 -1 0 792)" d="M133.768 218.388L477.322 218.388" stroke="#339E00" stroke-width="1.34" fill="none" /><path id="2095" transform="matrix(1 0 0 -1 0 792)" d="M133.768 206.871L477.109 206.871" stroke="#339E00" stroke-width="1.34" fill="none" /><path id="2096" transform="matrix(1 0 0 -1 0 792)" d="M133.768 194.478L477.27 194.478" stroke="#339E00" stroke-width="1.34" fill="none" /><path id="2097" transform="matrix(1 0 0 -1 0 792)" d="M133.768 182.96L199.631 182.96" stroke="#339E00" stroke-width="1.34" fill="none" /></g><g clip-path="url(#12)"><path id="2098" transform="matrix(1 0 0 -1 0 792)" d="M330.041 147.134L477.189 147.134" stroke="#339E00" stroke-width="1.281" fill="none" /><path id="2099" transform="matrix(1 0 0 -1 0 792)" d="M133.768 135.189L477.149 135.189" stroke="#339E00" stroke-width="1.281" fill="none" /><path id="2100" transform="matrix(1 0 0 -1 0 792)" d="M133.768 123.223L250.56 123.223" stroke="#339E00" stroke-width="1.281" fill="none" /></g><g clip-path="url(#13)"><g clip-path="url(#14)"></g></g><g clip-path="url(#15)"><g clip-path="url(#16)"></g></g></g></g></svg>