<svg xmlns="http://www.w3.org/2000/svg" xmlns:xlink="http://www.w3.org/1999/xlink" id="body_10" preserveAspectRatio="xMinYMin meet" viewBox="0 0 816 1056"><defs><clipPath id="1"><path id="" clip-rule="evenodd" transform="matrix(1 0 0 1 0 0)" d="M0 792L0 0L0 0L612 0L612 0L612 792L612 792L0 792z" /></clipPath></defs><g transform="matrix(1.333333 0 0 1.333333 0 0)"><g clip-path="url(#1)"><path id="81" transform="matrix(1 0 0 -1 0 792)" d="M213.9952 611.2766C 214.1778 611.2328 214.2198 611.2218 214.2198 610.9807C 214.2198 610.9149 214.2144 610.8547 214.3239 610.8547C 214.3678 610.8547 214.3897 610.8821 214.3897 610.9259C 214.3897 611.072 214.3732 611.2328 214.3732 611.3862C 214.3732 611.5615 214.3897 611.7533 214.3897 611.9286C 214.3897 611.9506 214.3897 612.0273 214.2801 612.0273C 214.2144 612.0273 214.2198 611.9688 214.2198 611.8958C 214.2198 611.6182 214.176 611.6218 214.1321 611.6218C 214.0664 611.6218 213.1751 611.8464 213.0363 611.8903C 213.197 611.9561 213.3869 612.1095 213.3869 612.3944C 213.3869 613.03 212.5924 613.715 211.7815 613.715C 211.2701 613.715 210.9048 613.4026 210.9048 612.9861C 210.9048 612.7086 211.1039 612.4437 211.3157 612.2684C 211.0235 612.21 210.9048 611.9725 210.9048 611.7752C 210.9048 611.5195 211.1221 611.4136 211.2171 611.3698C 211.407 611.2675 211.734 611.1999 211.7486 611.1999C 211.8071 611.1999 211.8034 611.251 211.8034 611.2656C 211.8034 611.3168 211.8015 611.3223 211.6774 611.3588C 211.2902 611.4465 211.0253 611.5615 211.0253 611.7588C 211.0253 611.8464 211.0728 611.9286 211.2774 611.9286C 211.4088 611.9286 211.4691 611.9122 211.5568 611.8903zM211.6171 612.241C 211.4709 612.2775 211.3212 612.4236 211.2335 612.5259C 211.0655 612.7158 211.0253 612.8748 211.0253 612.9697C 211.0253 613.1889 211.2189 613.3204 211.5404 613.3204C 211.8692 613.3204 212.4974 613.1359 212.702 613.041C 213.0892 612.851 213.2664 612.5862 213.2664 612.3889C 213.2664 612.0236 212.8152 611.9561 212.7787 611.9561C 212.7714 611.9561 212.7568 611.9506 212.6911 611.9725z" stroke="none" fill="#000000" fill-rule="evenodd" /><path id="82" transform="matrix(1 0 0 -1 0 792)" d="M210.5979 619.0086C 210.5687 619.0743 210.5432 619.1127 210.4774 619.1127C 210.4189 619.1127 210.3678 619.0616 210.3678 619.0031C 210.3678 618.9812 210.3696 618.9703 210.4061 618.9045L210.4061 618.9045L211.8363 615.8689C 211.8655 615.8032 211.8911 615.7648 211.9568 615.7648C 212.0226 615.7648 212.0555 615.8032 212.0774 615.8689L212.0774 615.8689L213.5075 618.9045C 213.544 618.9703 213.5458 618.9812 213.5458 619.0031C 213.5458 619.0616 213.4947 619.1127 213.4363 619.1127C 213.3705 619.1127 213.3449 619.0743 213.3157 619.0086L213.3157 619.0086L211.9568 616.1319z" stroke="none" fill="#000000" fill-rule="evenodd" /><path id="83" transform="matrix(1 0 0 -1 0 792)" d="M213.0363 622.1472C 212.8828 622.1472 212.7458 622.0103 212.7458 621.8568C 212.7458 621.6961 212.8828 621.5664 213.0363 621.5664C 213.197 621.5664 213.3267 621.6961 213.3267 621.8568C 213.3267 622.0103 213.197 622.1472 213.0363 622.1472z" stroke="none" fill="#000000" fill-rule="evenodd" /><path id="84" transform="matrix(1 0 0 -1 0 792)" d="M211.5732 625.1357C 211.1349 625.1357 210.7002 625.1065 210.2911 624.9166C 209.765 624.6609 209.6774 624.2115 209.6774 623.9851C 209.6774 623.6563 209.8253 623.2509 210.3294 623.0317C 210.7094 622.8563 211.1349 622.8289 211.5732 622.8289C 211.9897 622.8289 212.4774 622.849 212.8938 623.0755C 213.3395 623.3093 213.4472 623.7093 213.4472 623.9796C 213.4472 624.2719 213.3376 624.6919 212.8116 624.933C 212.439 625.1083 212.0116 625.1357 211.5732 625.1357zM213.3267 623.9796C 213.3267 623.7604 213.1897 623.439 212.6637 623.344C 212.3349 623.2782 211.8363 623.2837 211.5075 623.2837C 211.1568 623.2837 210.7988 623.2837 210.4993 623.3275C 209.8491 623.4298 209.7979 623.8408 209.7979 623.9796C 209.7979 624.1549 209.8984 624.5166 210.439 624.6262C 210.7458 624.6773 211.1641 624.681 211.5075 624.681C 211.924 624.681 212.291 624.6791 212.6418 624.6207C 213.1678 624.533 213.3267 624.2207 213.3267 623.9796z" stroke="none" fill="#000000" fill-rule="evenodd" /><path id="85" transform="matrix(1 0 0 -1 0 792)" d="M212.2253 627.8152C 211.5751 627.8152 211.0253 627.3658 211.0253 626.7741C 211.0253 626.5111 211.1148 626.2755 211.3047 626.0782L211.3047 626.0782L210.2363 626.0782C 210.2728 626.1878 210.3075 626.3687 210.3075 626.5439C 210.3075 627.2161 209.8107 627.6015 209.7376 627.6015C 209.7084 627.6015 209.6774 627.5833 209.6774 627.5467C 209.6774 627.5394 209.6792 627.5248 209.6938 627.5029C 209.745 627.3932 209.8527 627.1229 209.8527 626.7577C 209.8527 626.5385 209.8162 626.2846 209.6993 626.0289C 209.6847 625.985 209.6829 625.9705 209.6829 625.9631C 209.6829 625.9047 209.7267 625.9083 209.8144 625.9083L209.8144 625.9083L211.4363 625.9083C 211.5386 625.9083 211.5788 625.9047 211.5788 625.985C 211.5788 626.0216 211.5659 626.0344 211.5294 626.0563C 211.4417 626.1147 211.1459 626.3175 211.1459 626.7631C 211.1459 627.0481 211.4016 627.1851 211.4966 627.2289C 211.7011 627.3165 211.9166 627.3275 212.187 627.3275C 212.3842 627.3275 212.7112 627.3275 212.9377 627.196C 213.1568 627.0645 213.2938 626.8582 213.2938 626.6097C 213.2938 626.2079 213.0089 625.8919 212.6801 625.8043C 212.6874 625.8188 212.6911 625.8317 212.6911 625.8974C 212.6911 626.0728 212.5541 626.1714 212.4226 626.1714C 212.291 626.1714 212.1541 626.0728 212.1541 625.8974C 212.1541 625.817 212.1961 625.6289 212.4445 625.6289C 212.9194 625.6289 213.4472 626.007 213.4472 626.6207C 213.4472 627.2563 212.9267 627.8152 212.2253 627.8152z" stroke="none" fill="#000000" fill-rule="evenodd" /><path id="86" transform="matrix(1 0 0 -1 0 792)" d="M225.1673 611.2766C 225.3499 611.2328 225.3919 611.2218 225.3919 610.9807C 225.3919 610.9149 225.3865 610.8547 225.496 610.8547C 225.5399 610.8547 225.5618 610.8821 225.5618 610.9259C 225.5618 611.072 225.5453 611.2328 225.5453 611.3862C 225.5453 611.5615 225.5618 611.7533 225.5618 611.9286C 225.5618 611.9506 225.5618 612.0273 225.4522 612.0273C 225.3865 612.0273 225.3919 611.9688 225.3919 611.8958C 225.3919 611.6182 225.3481 611.6218 225.3043 611.6218C 225.2385 611.6218 224.3472 611.8464 224.2084 611.8903C 224.3691 611.9561 224.5591 612.1095 224.5591 612.3944C 224.5591 613.03 223.7646 613.715 222.9536 613.715C 222.4422 613.715 222.0769 613.4026 222.0769 612.9861C 222.0769 612.7086 222.276 612.4437 222.4879 612.2684C 222.1956 612.2099 222.0769 611.9725 222.0769 611.7752C 222.0769 611.5195 222.2942 611.4136 222.3892 611.3698C 222.5792 611.2675 222.9061 611.1999 222.9207 611.1999C 222.9792 611.1999 222.9755 611.251 222.9755 611.2656C 222.9755 611.3168 222.9737 611.3223 222.8495 611.3588C 222.4623 611.4465 222.1974 611.5615 222.1974 611.7588C 222.1974 611.8464 222.2449 611.9286 222.4495 611.9286C 222.581 611.9286 222.6413 611.9122 222.7289 611.8903zM222.7892 612.241C 222.6431 612.2775 222.4933 612.4236 222.4056 612.5259C 222.2376 612.7158 222.1974 612.8748 222.1974 612.9697C 222.1974 613.1889 222.3911 613.3204 222.7125 613.3204C 223.0413 613.3204 223.6696 613.1359 223.8741 613.041C 224.2614 612.851 224.4385 612.5862 224.4385 612.3889C 224.4385 612.0236 223.9874 611.9561 223.9508 611.9561C 223.9435 611.9561 223.9289 611.9506 223.8632 611.9725z" stroke="none" fill="#000000" fill-rule="evenodd" /><path id="87" transform="matrix(1 0 0 -1 0 792)" d="M221.7701 619.0086C 221.7408 619.0743 221.7153 619.1127 221.6495 619.1127C 221.5911 619.1127 221.5399 619.0616 221.5399 619.0031C 221.5399 618.9812 221.5417 618.9703 221.5782 618.9045L221.5782 618.9045L223.0084 615.8689C 223.0376 615.8032 223.0632 615.7648 223.1289 615.7648C 223.1947 615.7648 223.2276 615.8032 223.2495 615.8689L223.2495 615.8689L224.6796 618.9045C 224.7162 618.9703 224.718 618.9812 224.718 619.0031C 224.718 619.0616 224.6668 619.1127 224.6084 619.1127C 224.5426 619.1127 224.5171 619.0743 224.4879 619.0086L224.4879 619.0086L223.1289 616.1319z" stroke="none" fill="#000000" fill-rule="evenodd" /><path id="88" transform="matrix(1 0 0 -1 0 792)" d="M224.2084 622.1472C 224.055 622.1472 223.918 622.0103 223.918 621.8568C 223.918 621.6961 224.055 621.5664 224.2084 621.5664C 224.3691 621.5664 224.4988 621.6961 224.4988 621.8568C 224.4988 622.0103 224.3691 622.1472 224.2084 622.1472z" stroke="none" fill="#000000" fill-rule="evenodd" /><path id="89" transform="matrix(1 0 0 -1 0 792)" d="M222.7454 625.1352C 222.307 625.1352 221.8723 625.106 221.4632 624.916C 220.9372 624.6603 220.8495 624.211 220.8495 623.9845C 220.8495 623.6558 220.9974 623.2502 221.5016 623.0311C 221.8815 622.8557 222.307 622.8284 222.7454 622.8284C 223.1618 622.8284 223.6495 622.8484 224.0659 623.075C 224.5116 623.3087 224.6194 623.7087 224.6194 623.979C 224.6194 624.2712 224.5097 624.6913 223.9837 624.9324C 223.6111 625.1078 223.1837 625.1352 222.7454 625.1352zM224.4988 623.979C 224.4988 623.7599 224.3618 623.4384 223.8358 623.3434C 223.507 623.2776 223.0084 623.2831 222.6796 623.2831C 222.3289 623.2831 221.9709 623.2831 221.6714 623.327C 221.0212 623.4293 220.9701 623.8402 220.9701 623.979C 220.9701 624.1544 221.0705 624.516 221.6111 624.6256C 221.918 624.6768 222.3362 624.6804 222.6796 624.6804C 223.0961 624.6804 223.4632 624.6786 223.8139 624.6201C 224.3399 624.5325 224.4988 624.2201 224.4988 623.979z" stroke="none" fill="#000000" fill-rule="evenodd" /><path id="90" transform="matrix(1 0 0 -1 0 792)" d="M220.992 626.9653C 220.8604 626.9653 220.8495 626.9635 220.8495 626.8393C 221.2002 626.4959 221.2002 626.0174 221.2002 625.842L221.2002 625.842L221.37 625.842C 221.37 625.9517 221.3737 626.2749 221.2276 626.5598L221.2276 626.5598L224.0659 626.5598C 224.2632 626.5598 224.3289 626.5397 224.3289 626.0503L224.3289 626.0503L224.3289 625.8749L224.3289 625.8749L224.4988 625.8749C 224.4842 626.0649 224.4823 626.5434 224.4823 626.7626C 224.4823 626.9818 224.4842 627.453 224.4988 627.6503L224.4988 627.6503L224.3289 627.6503L224.3289 627.6503L224.3289 627.4749C 224.3289 626.9781 224.2705 626.9653 224.0659 626.9653z" stroke="none" fill="#000000" fill-rule="evenodd" /><path id="91" transform="matrix(1 0 0 -1 0 792)" d="M236.3395 611.2766C 236.5221 611.2327 236.5641 611.2218 236.5641 610.9807C 236.5641 610.9149 236.5587 610.8547 236.6682 610.8547C 236.7121 610.8547 236.734 610.8821 236.734 610.9259C 236.734 611.072 236.7175 611.2327 236.7175 611.3862C 236.7175 611.5615 236.734 611.7533 236.734 611.9286C 236.734 611.9506 236.734 612.0273 236.6244 612.0273C 236.5587 612.0273 236.5641 611.9688 236.5641 611.8958C 236.5641 611.6181 236.5203 611.6218 236.4764 611.6218C 236.4107 611.6218 235.5194 611.8464 235.3806 611.8903C 235.5413 611.9561 235.7312 612.1094 235.7312 612.3944C 235.7312 613.03 234.9367 613.715 234.1258 613.715C 233.6143 613.715 233.2491 613.4026 233.2491 612.9861C 233.2491 612.7086 233.4482 612.4437 233.66 612.2684C 233.3678 612.2099 233.2491 611.9725 233.2491 611.7752C 233.2491 611.5195 233.4664 611.4136 233.5614 611.3698C 233.7513 611.2675 234.0783 611.1998 234.0929 611.1998C 234.1514 611.1998 234.1477 611.251 234.1477 611.2656C 234.1477 611.3168 234.1458 611.3223 234.0217 611.3588C 233.6345 611.4464 233.3696 611.5615 233.3696 611.7588C 233.3696 611.8464 233.4171 611.9286 233.6217 611.9286C 233.7531 611.9286 233.8134 611.9122 233.9011 611.8903zM233.9614 612.241C 233.8152 612.2775 233.6655 612.4236 233.5778 612.5259C 233.4098 612.7158 233.3696 612.8748 233.3696 612.9697C 233.3696 613.1889 233.5632 613.3204 233.8847 613.3204C 234.2135 613.3204 234.8417 613.1359 235.0463 613.041C 235.4335 612.851 235.6107 612.5862 235.6107 612.3889C 235.6107 612.0236 235.1595 611.9561 235.123 611.9561C 235.1157 611.9561 235.1011 611.9506 235.0354 611.9725z" stroke="none" fill="#000000" fill-rule="evenodd" /><path id="92" transform="matrix(1 0 0 -1 0 792)" d="M232.9422 619.0086C 232.913 619.0743 232.8875 619.1127 232.8217 619.1127C 232.7632 619.1127 232.7121 619.0616 232.7121 619.0031C 232.7121 618.9812 232.7139 618.9703 232.7504 618.9045L232.7504 618.9045L234.1806 615.8689C 234.2098 615.8032 234.2354 615.7648 234.3011 615.7648C 234.3669 615.7648 234.3997 615.8032 234.4217 615.8689L234.4217 615.8689L235.8518 618.9045C 235.8883 618.9703 235.8901 618.9812 235.8901 619.0031C 235.8901 619.0616 235.839 619.1127 235.7806 619.1127C 235.7148 619.1127 235.6892 619.0743 235.66 619.0086L235.66 619.0086L234.3011 616.1319z" stroke="none" fill="#000000" fill-rule="evenodd" /><path id="93" transform="matrix(1 0 0 -1 0 792)" d="M235.3806 622.1472C 235.2271 622.1472 235.0901 622.0103 235.0901 621.8568C 235.0901 621.6961 235.2271 621.5664 235.3806 621.5664C 235.5413 621.5664 235.671 621.6961 235.671 621.8568C 235.671 622.0103 235.5413 622.1472 235.3806 622.1472z" stroke="none" fill="#000000" fill-rule="evenodd" /><path id="94" transform="matrix(1 0 0 -1 0 792)" d="M233.9175 625.1352C 233.4792 625.1352 233.0445 625.106 232.6354 624.916C 232.1093 624.6603 232.0217 624.211 232.0217 623.9845C 232.0217 623.6558 232.1696 623.2502 232.6737 623.0311C 233.0536 622.8557 233.4792 622.8284 233.9175 622.8284C 234.334 622.8284 234.8217 622.8484 235.2381 623.075C 235.6838 623.3087 235.7915 623.7087 235.7915 623.979C 235.7915 624.2712 235.6819 624.6913 235.1559 624.9324C 234.7833 625.1078 234.3559 625.1352 233.9175 625.1352zM235.671 623.979C 235.671 623.7598 235.534 623.4384 235.008 623.3434C 234.6792 623.2776 234.1806 623.2831 233.8518 623.2831C 233.5011 623.2831 233.1431 623.2831 232.8436 623.327C 232.1934 623.4293 232.1422 623.8402 232.1422 623.979C 232.1422 624.1544 232.2427 624.516 232.7833 624.6256C 233.0901 624.6768 233.5084 624.6804 233.8518 624.6804C 234.2682 624.6804 234.6353 624.6786 234.9861 624.6201C 235.5121 624.5325 235.671 624.2201 235.671 623.979z" stroke="none" fill="#000000" fill-rule="evenodd" /><path id="95" transform="matrix(1 0 0 -1 0 792)" d="M233.9175 627.8749C 233.4792 627.8749 233.0445 627.8457 232.6354 627.6557C 232.1093 627.4 232.0217 626.9507 232.0217 626.7242C 232.0217 626.3954 232.1696 625.99 232.6737 625.7708C 233.0536 625.5955 233.4792 625.5681 233.9175 625.5681C 234.334 625.5681 234.8217 625.5881 235.2381 625.8146C 235.6838 626.0484 235.7915 626.4484 235.7915 626.7188C 235.7915 627.011 235.6819 627.431 235.1559 627.6721C 234.7833 627.8475 234.3559 627.8749 233.9175 627.8749zM235.671 626.7188C 235.671 626.4996 235.534 626.1781 235.008 626.0831C 234.6792 626.0173 234.1806 626.0228 233.8518 626.0228C 233.5011 626.0228 233.1431 626.0228 232.8436 626.0667C 232.1934 626.1689 232.1422 626.58 232.1422 626.7188C 232.1422 626.8941 232.2427 627.2557 232.7833 627.3653C 233.0901 627.4164 233.5084 627.4201 233.8518 627.4201C 234.2682 627.4201 234.6353 627.4183 234.9861 627.3599C 235.5121 627.2722 235.671 626.9598 235.671 626.7188z" stroke="none" fill="#000000" fill-rule="evenodd" /><path id="96" transform="matrix(1 0 0 -1 0 792)" d="M232.1642 629.705C 232.0326 629.705 232.0217 629.7032 232.0217 629.579C 232.3723 629.2356 232.3723 628.7571 232.3723 628.5817L232.3723 628.5817L232.5422 628.5817C 232.5422 628.6913 232.5459 629.0146 232.3997 629.2996L232.3997 629.2996L235.2381 629.2996C 235.4354 629.2996 235.5011 629.2794 235.5011 628.79L235.5011 628.79L235.5011 628.6146L235.5011 628.6146L235.671 628.6146C 235.6564 628.8046 235.6545 629.2831 235.6545 629.5023C 235.6545 629.7214 235.6564 630.1927 235.671 630.39L235.671 630.39L235.5011 630.39L235.5011 630.39L235.5011 630.2146C 235.5011 629.7178 235.4427 629.705 235.2381 629.705z" stroke="none" fill="#000000" fill-rule="evenodd" /><path id="97" transform="matrix(1 0 0 -1 0 792)" d="M243.4184 615.0629L243.4184 611.3752L243.4184 611.3752L244.7389 611.2601L244.7389 611.2601L244.7389 611.5177C 244.1252 611.5615 243.6759 611.6218 243.6759 612.4108L243.6759 612.4108L243.6759 612.8328L243.6759 612.8328L246.8595 612.8328L246.8595 612.8328L246.8595 611.9944L246.8595 611.9944L247.117 611.9944C 247.1024 612.2866 247.1006 612.893 247.1006 613.2218C 247.1006 613.5432 247.1024 614.1497 247.117 614.4492L247.117 614.4492L246.8595 614.4492L246.8595 614.4492L246.8595 613.6108L246.8595 613.6108L243.6759 613.6108L243.6759 613.6108L243.6759 614.0273C 243.6759 614.809 244.1179 614.8619 244.7389 614.9204L244.7389 614.9204L244.7389 615.1779z" stroke="none" fill="#000000" fill-rule="evenodd" /><path id="98" transform="matrix(1 0 0 -1 0 792)" d="M245.9225 617.8574C 245.1919 617.8574 244.6348 617.3514 244.6348 616.4601C 244.6348 615.5615 245.1992 615.0629 245.9225 615.0629C 246.602 615.0629 247.1499 615.5396 247.1499 616.4601C 247.1499 617.3807 246.602 617.8574 245.9225 617.8574zM246.9307 616.4601C 246.9307 615.7588 246.3444 615.7642 245.8622 615.7642C 245.6211 615.7642 245.3398 615.7625 245.1499 615.8574C 244.9526 615.9597 244.8321 616.1898 244.8321 616.4601C 244.8321 616.6866 244.9216 616.9167 245.1115 617.041C 245.3015 617.1505 245.5992 617.156 245.8622 617.156C 246.3444 617.156 246.9307 617.1542 246.9307 616.4601z" stroke="none" fill="#000000" fill-rule="evenodd" /><path id="99" transform="matrix(1 0 0 -1 0 792)" d="M244.9417 618.6026L246.4431 618.6026C 247.0349 618.6026 247.1499 619.0738 247.1499 619.4683C 247.1499 619.8848 246.8394 620.1313 246.4376 620.1313L246.4376 620.1313L246.1472 620.1313L246.1472 620.1313L246.1472 619.8738L246.1472 619.8738L246.4266 619.8738C 246.7992 619.8738 246.9307 619.6985 246.9307 619.545C 246.9307 619.2236 246.5855 619.2272 246.454 619.2272L246.454 619.2272L244.9417 619.2272L244.9417 619.2272L244.9417 620.0272L244.9417 620.0272L244.6841 620.0272L244.6841 620.0272L244.6841 619.2272L244.6841 619.2272L243.6376 619.2272L243.6376 619.2272L243.6376 618.9697C 244.1855 618.9624 244.7298 618.6939 244.7444 618.1533L244.7444 618.1533L244.9417 618.1533z" stroke="none" fill="#000000" fill-rule="evenodd" /><path id="100" transform="matrix(1 0 0 -1 0 792)" d="M246.6951 622.5379C 246.8705 622.5379 247.117 622.5379 247.117 623.1078L247.117 623.1078L247.117 623.3708C 247.117 623.4803 247.117 623.5461 246.9855 623.5461C 246.8613 623.5461 246.8595 623.4694 246.8595 623.4037C 246.8595 623.0676 246.7882 623.0694 246.6567 623.0694L246.6567 623.0694L245.4787 623.0694C 244.9965 623.0694 244.6348 622.6749 244.6348 621.864C 244.6348 621.5498 244.6568 620.8831 245.1389 620.8831C 245.38 620.8831 245.4841 621.0695 245.4841 621.2228C 245.4841 621.3909 245.3727 621.5681 245.1389 621.5681C 244.9782 621.5681 244.8851 621.4621 244.8705 621.4475C 244.8412 621.601 244.8321 621.7762 244.8321 621.842C 244.8321 622.2512 245.0622 622.4448 245.4787 622.4448L245.4787 622.4448L245.665 622.4448C 245.6869 622.0502 245.7362 620.6639 246.5252 620.6639C 247.0513 620.6639 247.1499 621.3416 247.1499 621.7215C 247.1499 622.1598 246.9289 622.4137 246.6951 622.5379zM245.8348 622.4448L246.3554 622.4448C 246.8814 622.4448 246.9526 621.9352 246.9526 621.8036C 246.9526 621.5187 246.7608 621.3051 246.5197 621.3051C 245.928 621.3051 245.8568 622.1671 245.8348 622.4448z" stroke="none" fill="#000000" fill-rule="evenodd" /><path id="101" transform="matrix(1 0 0 -1 0 792)" d="M243.3143 624.779L243.3581 623.8091L243.3581 623.8091L243.6157 623.8091C 243.6157 624.1452 243.6175 624.1873 243.8294 624.1873L243.8294 624.1873L246.8595 624.1873L246.8595 624.1873L246.8595 623.8091L246.8595 623.8091L247.117 623.8091C 247.117 623.9845 247.1006 624.242 247.1006 624.4831C 247.1006 624.7169 247.117 624.9672 247.117 625.1571L247.117 625.1571L246.8595 625.1571L246.8595 625.1571L246.8595 624.779z" stroke="none" fill="#000000" fill-rule="evenodd" /><path id="102" transform="matrix(1 0 0 -1 0 792)" d="M154.7665 608.7502L252.0791 608.7502" stroke="#000000" stroke-width="0.2189" fill="none" /><path id="103" transform="matrix(1 0 0 -1 0 792)" d="M154.7665 607.4352L252.0791 607.4352" stroke="#000000" stroke-width="0.2189" fill="none" /><path id="104" transform="matrix(1 0 0 -1 0 792)" d="M161.5689 525.1247C 161.7223 525.2927 161.8593 525.6178 161.8593 525.6617C 161.8593 525.7347 161.7935 525.7383 161.7059 525.7383L161.7059 525.7383L160.6045 525.7383L160.6045 525.7383L160.6045 526.1767L160.6045 526.1767L160.347 526.1767C 160.3689 525.9795 160.3634 525.5064 160.3634 525.2946C 160.3634 524.9731 160.3689 524.4635 160.347 524.1713L160.347 524.1713L160.6045 524.1713L160.6045 524.1713L160.6045 524.9603L160.6045 524.9603L161.1579 524.9603C 161.2675 524.9603 161.4228 524.9585 161.547 524.7466C 161.6346 524.6005 161.662 524.4288 161.662 524.2534C 161.662 523.7786 161.5068 523.3055 161.1634 523.0425C 160.8639 522.8014 160.4785 522.7357 159.9744 522.7357C 159.3607 522.7357 159.0447 522.8434 158.7744 523.048C 158.5041 523.2672 158.2976 523.6891 158.2976 524.2151C 158.2976 524.7996 158.7159 525.3183 159.41 525.4425C 159.5196 525.4571 159.5251 525.4589 159.5251 525.5905C 159.5251 525.7292 159.5178 525.7383 159.3716 525.7383L159.3716 525.7383L158.1935 525.7383C 158.0913 525.7383 158.0401 525.7347 158.0401 525.6398C 158.0401 525.5886 158.0529 525.5795 158.0894 525.5356L158.0894 525.5356L158.4127 525.174C 158.0986 524.7722 158.0401 524.3795 158.0401 524.0945C 158.0401 522.7429 158.8474 521.8973 159.9799 521.8973C 161.0757 521.8973 161.9196 522.6882 161.9196 524.1055C 161.9196 524.2808 161.9123 524.847 161.5689 525.1247z" stroke="none" fill="#000000" fill-rule="evenodd" /><path id="105" transform="matrix(1 0 0 -1 0 792)" d="M160.6648 529.0326C 160.6648 529.1495 160.6703 529.2079 160.5168 529.2079C 160.3488 529.2079 159.9507 529.1714 159.673 528.9011C 159.4757 528.6965 159.3771 528.4025 159.3771 528.0298C 159.3771 527.1531 159.947 526.6765 160.6264 526.6765C 161.3643 526.6765 161.8922 527.2225 161.8922 528.1066C 161.8922 528.9687 161.3132 529.2079 161.2182 529.2079C 161.1232 529.2079 161.1196 529.0983 161.1196 529.0764C 161.1196 528.9814 161.1469 528.9687 161.2346 528.9395C 161.4977 528.8226 161.673 528.5066 161.673 528.1559C 161.673 527.3815 160.9497 527.3778 160.6648 527.3778zM160.4839 527.3778C 160.2721 527.3851 160.042 527.3925 159.8593 527.5093C 159.6401 527.6481 159.5744 527.8691 159.5744 528.0298C 159.5744 528.6655 160.294 528.6801 160.4839 528.6874z" stroke="none" fill="#000000" fill-rule="evenodd" /><path id="106" transform="matrix(1 0 0 -1 0 792)" d="M159.9086 530.014L161.6017 530.014L161.6017 530.014L161.6017 529.6359L161.6017 529.6359L161.8593 529.6359C 161.8593 529.7893 161.8428 530.1144 161.8428 530.3263C 161.8428 530.5381 161.8593 530.8633 161.8593 531.0167L161.8593 531.0167L161.6017 531.0167L161.6017 531.0167L161.6017 530.6386L161.6017 530.6386L160.4566 530.6386C 159.8648 530.6386 159.5908 531.1044 159.5908 531.4551C 159.5908 531.6377 159.7059 531.7564 160.1223 531.7564L160.1223 531.7564L161.6017 531.7564L161.6017 531.7564L161.6017 531.3784L161.6017 531.3784L161.8593 531.3784C 161.8593 531.5317 161.8428 531.8569 161.8428 532.0687C 161.8428 532.2806 161.8593 532.6057 161.8593 532.7592L161.8593 532.7592L161.6017 532.7592L161.6017 532.7592L161.6017 532.3811L161.6017 532.3811L160.1826 532.3811C 159.6127 532.3811 159.3936 532.0852 159.3936 531.5372C 159.3936 531.0112 159.7077 530.7172 159.9853 530.5784L159.9853 530.5784L159.3936 530.5784L159.3936 530.5784L159.4374 529.6359L159.4374 529.6359L159.6949 529.6359C 159.6949 529.972 159.6967 530.014 159.9086 530.014z" stroke="none" fill="#000000" fill-rule="evenodd" /><path id="107" transform="matrix(1 0 0 -1 0 792)" d="M160.6648 535.4216C 160.6648 535.5385 160.6703 535.597 160.5168 535.597C 160.3488 535.597 159.9507 535.5604 159.673 535.2901C 159.4757 535.0856 159.3771 534.7915 159.3771 534.4189C 159.3771 533.5422 159.947 533.0654 160.6264 533.0654C 161.3643 533.0654 161.8922 533.6116 161.8922 534.4956C 161.8922 535.3577 161.3132 535.597 161.2182 535.597C 161.1232 535.597 161.1196 535.4874 161.1196 535.4655C 161.1196 535.3705 161.1469 535.3577 161.2346 535.3285C 161.4977 535.2115 161.673 534.8956 161.673 534.5449C 161.673 533.7705 160.9497 533.7668 160.6648 533.7668zM160.4839 533.7668C 160.2721 533.7741 160.042 533.7814 159.8593 533.8983C 159.6401 534.0372 159.5744 534.2582 159.5744 534.4189C 159.5744 535.0545 160.294 535.0691 160.4839 535.0764z" stroke="none" fill="#000000" fill-rule="evenodd" /><path id="108" transform="matrix(1 0 0 -1 0 792)" d="M160.0127 536.8906L159.3936 536.8906L159.3936 536.8906L159.4374 535.9811L159.4374 535.9811L159.6949 535.9811C 159.6949 536.3171 159.6967 536.3591 159.9086 536.3591L159.9086 536.3591L161.6017 536.3591L161.6017 536.3591L161.6017 535.9811L161.6017 535.9811L161.8593 535.9811C 161.8593 536.171 161.8428 536.4158 161.8428 536.6715C 161.8428 536.876 161.8447 537.2303 161.8593 537.4276L161.8593 537.4276L161.6017 537.4276L161.6017 537.4276L161.6017 536.9509L161.6017 536.9509L160.6429 536.9509C 160.2629 536.9509 159.5908 537.0879 159.5908 537.6359C 159.5981 537.6285 159.6894 537.5317 159.8428 537.5317C 160.0693 537.5317 160.1771 537.7053 160.1771 537.866C 160.1771 538.0194 160.062 538.2003 159.8428 538.2003C 159.558 538.2003 159.3936 537.9044 159.3936 537.6194C 159.3936 537.2322 159.6694 537.0148 160.0127 536.8906z" stroke="none" fill="#000000" fill-rule="evenodd" /><path id="109" transform="matrix(1 0 0 -1 0 792)" d="M161.4374 540.4227C 161.6127 540.4227 161.8593 540.4227 161.8593 540.9926L161.8593 540.9926L161.8593 541.2556C 161.8593 541.3652 161.8593 541.4309 161.7278 541.4309C 161.6036 541.4309 161.6017 541.3542 161.6017 541.2885C 161.6017 540.9524 161.5305 540.9542 161.399 540.9542L161.399 540.9542L160.2209 540.9542C 159.7387 540.9542 159.3771 540.5597 159.3771 539.7487C 159.3771 539.4346 159.399 538.7679 159.8812 538.7679C 160.1223 538.7679 160.2264 538.9542 160.2264 539.1076C 160.2264 539.2757 160.115 539.4528 159.8812 539.4528C 159.7205 539.4528 159.6273 539.3469 159.6127 539.3323C 159.5835 539.4857 159.5744 539.6611 159.5744 539.7268C 159.5744 540.1359 159.8045 540.3295 160.2209 540.3295L160.2209 540.3295L160.4073 540.3295C 160.4292 539.935 160.4785 538.5487 161.2675 538.5487C 161.7935 538.5487 161.8922 539.2263 161.8922 539.6063C 161.8922 540.0446 161.6712 540.2985 161.4374 540.4227zM160.5771 540.3295L161.0976 540.3295C 161.6237 540.3295 161.6949 539.8199 161.6949 539.6885C 161.6949 539.4035 161.5031 539.1898 161.262 539.1898C 160.6703 539.1898 160.599 540.0519 160.5771 540.3295z" stroke="none" fill="#000000" fill-rule="evenodd" /><path id="110" transform="matrix(1 0 0 -1 0 792)" d="M158.0565 542.6638L158.1004 541.6939L158.1004 541.6939L158.3579 541.6939C 158.3579 542.03 158.3597 542.072 158.5717 542.072L158.5717 542.072L161.6017 542.072L161.6017 542.072L161.6017 541.6939L161.6017 541.6939L161.8593 541.6939C 161.8593 541.8693 161.8428 542.1268 161.8428 542.3679C 161.8428 542.6017 161.8593 542.8519 161.8593 543.0419L161.8593 543.0419L161.6017 543.0419L161.6017 543.0419L161.6017 542.6638z" stroke="none" fill="#000000" fill-rule="evenodd" /><path id="132" transform="matrix(1 0 0 -1 0 792)" d="M185.6595 585.5171L252.0786 585.5171" stroke="#000000" stroke-width="0.2189" fill="none" /><path id="142" transform="matrix(1 0 0 -1 0 792)" d="M166.7059 578.2846L252.0786 578.2846" stroke="#000000" stroke-width="0.2189" fill="none" /><path id="163" transform="matrix(1 0 0 -1 0 792)" d="M185.6595 556.5854L252.0786 556.5854" stroke="#000000" stroke-width="0.2189" fill="none" /><path id="173" transform="matrix(1 0 0 -1 0 792)" d="M166.7059 549.353L252.0786 549.353" stroke="#000000" stroke-width="0.2189" fill="none" /><path id="195" transform="matrix(1 0 0 -1 0 792)" d="M185.6595 527.6544L252.0786 527.6544" stroke="#000000" stroke-width="0.2189" fill="none" /><path id="205" transform="matrix(1 0 0 -1 0 792)" d="M166.7059 520.4213L252.0786 520.4213" stroke="#000000" stroke-width="0.2189" fill="none" /><path id="226" transform="matrix(1 0 0 -1 0 792)" d="M185.6595 498.7227L252.0786 498.7227" stroke="#000000" stroke-width="0.2189" fill="none" /><path id="236" transform="matrix(1 0 0 -1 0 792)" d="M166.7059 491.4897L252.0786 491.4897" stroke="#000000" stroke-width="0.2189" fill="none" /><path id="258" transform="matrix(1 0 0 -1 0 792)" d="M185.6595 469.7911L252.0786 469.7911" stroke="#000000" stroke-width="0.2189" fill="none" /><path id="268" transform="matrix(1 0 0 -1 0 792)" d="M166.7059 462.558L252.0786 462.558" stroke="#000000" stroke-width="0.2189" fill="none" /><path id="269" transform="matrix(1 0 0 -1 0 792)" d="M166.487 462.558L166.7059 462.558" stroke="#000000" stroke-width="0.2189" fill="none" /><path id="270" transform="matrix(1 0 0 -1 0 792)" d="M166.7059 462.558L185.6595 462.558" stroke="#000000" stroke-width="0.2189" fill="none" /><path id="271" transform="matrix(1 0 0 -1 0 792)" d="M185.6595 462.558L206.2888 462.558" stroke="#000000" stroke-width="0.2189" fill="none" /><path id="272" transform="matrix(1 0 0 -1 0 792)" d="M206.2889 462.558L206.5078 462.558" stroke="#000000" stroke-width="0.2189" fill="none" /><path id="273" transform="matrix(1 0 0 -1 0 792)" d="M206.5078 462.558L217.6799 462.558" stroke="#000000" stroke-width="0.2189" fill="none" /><path id="274" transform="matrix(1 0 0 -1 0 792)" d="M217.6799 462.558L228.6326 462.558" stroke="#000000" stroke-width="0.2189" fill="none" /><path id="275" transform="matrix(1 0 0 -1 0 792)" d="M228.6326 462.558L228.8515 462.558" stroke="#000000" stroke-width="0.2189" fill="none" /><path id="297" transform="matrix(1 0 0 -1 0 792)" d="M185.6595 440.64L252.0786 440.64" stroke="#000000" stroke-width="0.2189" fill="none" /><path id="308" transform="matrix(1 0 0 -1 0 792)" d="M154.7665 433.4069L252.0791 433.4069" stroke="#000000" stroke-width="0.2189" fill="none" /><path id="320" transform="matrix(1 0 0 -1 0 792)" d="M317.2011 611.1666C 317.3837 611.1228 317.4257 611.1118 317.4257 610.8707C 317.4257 610.8049 317.4202 610.7447 317.5298 610.7447C 317.5736 610.7447 317.5956 610.7721 317.5956 610.8159C 317.5956 610.962 317.5791 611.1228 317.5791 611.2762C 317.5791 611.4515 317.5956 611.6433 317.5956 611.8187C 317.5956 611.8406 317.5956 611.9173 317.486 611.9173C 317.4202 611.9173 317.4257 611.8589 317.4257 611.7858C 317.4257 611.5082 317.3819 611.5118 317.338 611.5118C 317.2723 611.5118 316.381 611.7365 316.2422 611.7803C 316.4029 611.8461 316.5928 611.9995 316.5928 612.2844C 316.5928 612.92 315.7983 613.605 314.9874 613.605C 314.476 613.605 314.1107 613.2926 314.1107 612.8762C 314.1107 612.5986 314.3098 612.3337 314.5216 612.1584C 314.2294 612.1 314.1107 611.8625 314.1107 611.6653C 314.1107 611.4095 314.328 611.3036 314.423 611.2598C 314.6129 611.1575 314.9399 611.0899 314.9545 611.0899C 315.0129 611.0899 315.0093 611.1411 315.0093 611.1556C 315.0093 611.2068 315.0074 611.2123 314.8833 611.2488C 314.4961 611.3365 314.2312 611.4515 314.2312 611.6488C 314.2312 611.7365 314.2787 611.8187 314.4832 611.8187C 314.6147 611.8187 314.675 611.8022 314.7627 611.7803zM314.823 612.131C 314.6768 612.1675 314.5271 612.3137 314.4394 612.4159C 314.2714 612.6059 314.2312 612.7648 314.2312 612.8597C 314.2312 613.0789 314.4248 613.2104 314.7463 613.2104C 315.075 613.2104 315.7033 613.026 315.9079 612.931C 316.2951 612.741 316.4723 612.4762 316.4723 612.2789C 316.4723 611.9136 316.0211 611.8461 315.9846 611.8461C 315.9773 611.8461 315.9627 611.8406 315.897 611.8625z" stroke="none" fill="#000000" fill-rule="evenodd" /><path id="321" transform="matrix(1 0 0 -1 0 792)" d="M313.8038 618.8987C 313.7746 618.9644 313.749 619.0027 313.6833 619.0027C 313.6248 619.0027 313.5737 618.9516 313.5737 618.8932C 313.5737 618.8712 313.5755 618.8603 313.612 618.7946L313.612 618.7946L315.0421 615.7589C 315.0714 615.6932 315.097 615.6548 315.1627 615.6548C 315.2285 615.6548 315.2613 615.6932 315.2833 615.7589L315.2833 615.7589L316.7134 618.7946C 316.7499 618.8603 316.7517 618.8712 316.7517 618.8932C 316.7517 618.9516 316.7006 619.0027 316.6422 619.0027C 316.5764 619.0027 316.5508 618.9644 316.5216 618.8987L316.5216 618.8987L315.1627 616.022z" stroke="none" fill="#000000" fill-rule="evenodd" /><path id="322" transform="matrix(1 0 0 -1 0 792)" d="M316.2422 622.0372C 316.0887 622.0372 315.9518 621.9003 315.9518 621.7468C 315.9518 621.5861 316.0887 621.4564 316.2422 621.4564C 316.4029 621.4564 316.5326 621.5861 316.5326 621.7468C 316.5326 621.9003 316.4029 622.0372 316.2422 622.0372z" stroke="none" fill="#000000" fill-rule="evenodd" /><path id="323" transform="matrix(1 0 0 -1 0 792)" d="M314.7791 625.0252C 314.3408 625.0252 313.9061 624.996 313.4969 624.806C 312.9709 624.5504 312.8833 624.101 312.8833 623.8746C 312.8833 623.5458 313.0312 623.1403 313.5353 622.9211C 313.9152 622.7458 314.3408 622.7184 314.7791 622.7184C 315.1956 622.7184 315.6833 622.7385 316.0997 622.965C 316.5453 623.1987 316.6531 623.5988 316.6531 623.8691C 316.6531 624.1613 316.5435 624.5814 316.0175 624.8225C 315.6449 624.9978 315.2175 625.0252 314.7791 625.0252zM316.5326 623.8691C 316.5326 623.6499 316.3956 623.3284 315.8696 623.2335C 315.5408 623.1677 315.0421 623.1732 314.7134 623.1732C 314.3627 623.1732 314.0047 623.1732 313.7052 623.217C 313.055 623.3193 313.0038 623.7302 313.0038 623.8691C 313.0038 624.0444 313.1043 624.4061 313.6449 624.5156C 313.9518 624.5668 314.37 624.5704 314.7134 624.5704C 315.1299 624.5704 315.4969 624.5686 315.8477 624.5101C 316.3737 624.4225 316.5326 624.1102 316.5326 623.8691z" stroke="none" fill="#000000" fill-rule="evenodd" /><path id="324" transform="matrix(1 0 0 -1 0 792)" d="M315.4312 627.7047C 314.781 627.7047 314.2312 627.2554 314.2312 626.6636C 314.2312 626.4006 314.3207 626.1649 314.5107 625.9677L314.5107 625.9677L313.4422 625.9677C 313.4787 626.0773 313.5134 626.2581 313.5134 626.4335C 313.5134 627.1056 313.0166 627.491 312.9435 627.491C 312.9143 627.491 312.8833 627.4727 312.8833 627.4362C 312.8833 627.4289 312.8851 627.4142 312.8997 627.3923C 312.9509 627.2827 313.0586 627.0125 313.0586 626.6472C 313.0586 626.428 313.0221 626.1741 312.9052 625.9183C 312.8906 625.8745 312.8888 625.8599 312.8888 625.8527C 312.8888 625.7942 312.9326 625.7979 313.0202 625.7979L313.0202 625.7979L314.6422 625.7979C 314.7445 625.7979 314.7846 625.7942 314.7846 625.8745C 314.7846 625.9111 314.7719 625.9238 314.7353 625.9457C 314.6476 626.0042 314.3518 626.207 314.3518 626.6526C 314.3518 626.9376 314.6075 627.0745 314.7024 627.1184C 314.907 627.2061 315.1225 627.217 315.3929 627.217C 315.5901 627.217 315.9171 627.217 316.1435 627.0855C 316.3627 626.954 316.4997 626.7476 316.4997 626.4992C 316.4997 626.0974 316.2148 625.7814 315.886 625.6937C 315.8933 625.7083 315.897 625.7211 315.897 625.7869C 315.897 625.9622 315.76 626.0609 315.6285 626.0609C 315.4969 626.0609 315.36 625.9622 315.36 625.7869C 315.36 625.7065 315.402 625.5184 315.6504 625.5184C 316.1253 625.5184 316.6531 625.8965 316.6531 626.5101C 316.6531 627.1458 316.1326 627.7047 315.4312 627.7047z" stroke="none" fill="#000000" fill-rule="evenodd" /><path id="325" transform="matrix(1 0 0 -1 0 792)" d="M329.256 611.1666C 329.4386 611.1228 329.4806 611.1118 329.4806 610.8707C 329.4806 610.8049 329.4751 610.7447 329.5847 610.7447C 329.6285 610.7447 329.6505 610.7721 329.6505 610.8159C 329.6505 610.962 329.634 611.1228 329.634 611.2762C 329.634 611.4515 329.6505 611.6433 329.6505 611.8187C 329.6505 611.8406 329.6505 611.9173 329.5409 611.9173C 329.4751 611.9173 329.4806 611.8589 329.4806 611.7858C 329.4806 611.5082 329.4367 611.5118 329.3929 611.5118C 329.3272 611.5118 328.4359 611.7365 328.297 611.7803C 328.4578 611.8461 328.6477 611.9995 328.6477 612.2844C 328.6477 612.92 327.8532 613.605 327.0422 613.605C 326.5308 613.605 326.1656 613.2926 326.1656 612.8762C 326.1656 612.5986 326.3646 612.3337 326.5765 612.1584C 326.2842 612.1 326.1656 611.8625 326.1656 611.6653C 326.1656 611.4095 326.3829 611.3036 326.4779 611.2598C 326.6678 611.1575 326.9948 611.0899 327.0094 611.0899C 327.0678 611.0899 327.0641 611.1411 327.0641 611.1556C 327.0641 611.2068 327.0623 611.2123 326.9381 611.2488C 326.5509 611.3365 326.2861 611.4515 326.2861 611.6488C 326.2861 611.7365 326.3336 611.8187 326.5381 611.8187C 326.6696 611.8187 326.7299 611.8022 326.8176 611.7803zM326.8778 612.131C 326.7317 612.1675 326.582 612.3137 326.4943 612.4159C 326.3263 612.6059 326.2861 612.7648 326.2861 612.8597C 326.2861 613.0789 326.4797 613.2104 326.8011 613.2104C 327.1299 613.2104 327.7582 613.026 327.9628 612.931C 328.35 612.741 328.5272 612.4762 328.5272 612.2789C 328.5272 611.9136 328.076 611.8461 328.0395 611.8461C 328.0322 611.8461 328.0176 611.8406 327.9518 611.8625z" stroke="none" fill="#000000" fill-rule="evenodd" /><path id="326" transform="matrix(1 0 0 -1 0 792)" d="M325.8587 618.8987C 325.8294 618.9644 325.8039 619.0027 325.7381 619.0027C 325.6797 619.0027 325.6285 618.9517 325.6285 618.8932C 325.6285 618.8713 325.6304 618.8603 325.6669 618.7946L325.6669 618.7946L327.097 615.7589C 327.1263 615.6932 327.1518 615.6548 327.2176 615.6548C 327.2833 615.6548 327.3162 615.6932 327.3381 615.7589L327.3381 615.7589L328.7682 618.7946C 328.8048 618.8603 328.8066 618.8713 328.8066 618.8932C 328.8066 618.9517 328.7555 619.0027 328.6971 619.0027C 328.6313 619.0027 328.6057 618.9644 328.5765 618.8987L328.5765 618.8987L327.2176 616.022z" stroke="none" fill="#000000" fill-rule="evenodd" /><path id="327" transform="matrix(1 0 0 -1 0 792)" d="M328.297 622.0372C 328.1436 622.0372 328.0066 621.9003 328.0066 621.7468C 328.0066 621.5861 328.1436 621.4564 328.297 621.4564C 328.4578 621.4564 328.5874 621.5861 328.5874 621.7468C 328.5874 621.9003 328.4578 622.0372 328.297 622.0372z" stroke="none" fill="#000000" fill-rule="evenodd" /><path id="328" transform="matrix(1 0 0 -1 0 792)" d="M326.834 625.0252C 326.3957 625.0252 325.961 624.996 325.5518 624.806C 325.0258 624.5504 324.9381 624.101 324.9381 623.8745C 324.9381 623.5458 325.0861 623.1403 325.5902 622.9211C 325.9701 622.7458 326.3957 622.7184 326.834 622.7184C 327.2505 622.7184 327.7381 622.7385 328.1546 622.965C 328.6002 623.1987 328.708 623.5988 328.708 623.8691C 328.708 624.1613 328.5984 624.5814 328.0724 624.8225C 327.6998 624.9978 327.2724 625.0252 326.834 625.0252zM328.5874 623.8691C 328.5874 623.6499 328.4504 623.3284 327.9244 623.2335C 327.5957 623.1677 327.097 623.1732 326.7683 623.1732C 326.4176 623.1732 326.0596 623.1732 325.7601 623.217C 325.1098 623.3193 325.0587 623.7302 325.0587 623.8691C 325.0587 624.0444 325.1591 624.4061 325.6998 624.5156C 326.0066 624.5668 326.4249 624.5704 326.7683 624.5704C 327.1847 624.5704 327.5518 624.5686 327.9025 624.5101C 328.4285 624.4225 328.5874 624.1102 328.5874 623.8691z" stroke="none" fill="#000000" fill-rule="evenodd" /><path id="329" transform="matrix(1 0 0 -1 0 792)" d="M325.0806 626.8553C 324.9491 626.8553 324.9381 626.8535 324.9381 626.7293C 325.2888 626.386 325.2888 625.9074 325.2888 625.7321L325.2888 625.7321L325.4587 625.7321C 325.4587 625.8417 325.4623 626.1649 325.3162 626.4499L325.3162 626.4499L328.1546 626.4499C 328.3518 626.4499 328.4176 626.4298 328.4176 625.9403L328.4176 625.9403L328.4176 625.765L328.4176 625.765L328.5874 625.765C 328.5728 625.9549 328.571 626.4335 328.571 626.6526C 328.571 626.8718 328.5728 627.343 328.5874 627.5403L328.5874 627.5403L328.4176 627.5403L328.4176 627.5403L328.4176 627.3649C 328.4176 626.8682 328.3591 626.8553 328.1546 626.8553z" stroke="none" fill="#000000" fill-rule="evenodd" /><path id="330" transform="matrix(1 0 0 -1 0 792)" d="M340.4275 611.1666C 340.6102 611.1228 340.6522 611.1118 340.6522 610.8707C 340.6522 610.8049 340.6467 610.7447 340.7563 610.7447C 340.8001 610.7447 340.822 610.7721 340.822 610.8159C 340.822 610.962 340.8056 611.1228 340.8056 611.2762C 340.8056 611.4515 340.822 611.6433 340.822 611.8187C 340.822 611.8406 340.822 611.9173 340.7124 611.9173C 340.6467 611.9173 340.6522 611.8588 340.6522 611.7858C 340.6522 611.5082 340.6083 611.5118 340.5645 611.5118C 340.4987 611.5118 339.6074 611.7365 339.4686 611.7803C 339.6293 611.8461 339.8193 611.9995 339.8193 612.2844C 339.8193 612.92 339.0248 613.605 338.2138 613.605C 337.7024 613.605 337.3371 613.2926 337.3371 612.8762C 337.3371 612.5986 337.5362 612.3337 337.7481 612.1584C 337.4558 612.1 337.3371 611.8625 337.3371 611.6652C 337.3371 611.4095 337.5544 611.3036 337.6494 611.2598C 337.8394 611.1575 338.1663 611.0899 338.1809 611.0899C 338.2394 611.0899 338.2357 611.1411 338.2357 611.1556C 338.2357 611.2068 338.2339 611.2123 338.1097 611.2488C 337.7225 611.3365 337.4577 611.4515 337.4577 611.6488C 337.4577 611.7365 337.5051 611.8187 337.7097 611.8187C 337.8412 611.8187 337.9015 611.8022 337.9892 611.7803zM338.0494 612.131C 337.9033 612.1675 337.7535 612.3136 337.6659 612.4159C 337.4978 612.6058 337.4577 612.7648 337.4577 612.8597C 337.4577 613.0789 337.6512 613.2104 337.9727 613.2104C 338.3015 613.2104 338.9298 613.0259 339.1343 612.931C 339.5216 612.741 339.6988 612.4762 339.6988 612.2789C 339.6988 611.9136 339.2476 611.8461 339.2111 611.8461C 339.2038 611.8461 339.1891 611.8406 339.1234 611.8625z" stroke="none" fill="#000000" fill-rule="evenodd" /><path id="331" transform="matrix(1 0 0 -1 0 792)" d="M337.0302 618.8986C 337.001 618.9644 336.9755 619.0027 336.9097 619.0027C 336.8513 619.0027 336.8001 618.9516 336.8001 618.8932C 336.8001 618.8712 336.8019 618.8603 336.8385 618.7946L336.8385 618.7946L338.2686 615.7589C 338.2978 615.6932 338.3234 615.6548 338.3891 615.6548C 338.4549 615.6548 338.4878 615.6932 338.5097 615.7589L338.5097 615.7589L339.9398 618.7946C 339.9764 618.8603 339.9782 618.8712 339.9782 618.8932C 339.9782 618.9516 339.9271 619.0027 339.8686 619.0027C 339.8029 619.0027 339.7773 618.9644 339.7481 618.8986L339.7481 618.8986L338.3891 616.0219z" stroke="none" fill="#000000" fill-rule="evenodd" /><path id="332" transform="matrix(1 0 0 -1 0 792)" d="M339.4686 622.0372C 339.3152 622.0372 339.1782 621.9003 339.1782 621.7468C 339.1782 621.5861 339.3152 621.4564 339.4686 621.4564C 339.6293 621.4564 339.759 621.5861 339.759 621.7468C 339.759 621.9003 339.6293 622.0372 339.4686 622.0372z" stroke="none" fill="#000000" fill-rule="evenodd" /><path id="333" transform="matrix(1 0 0 -1 0 792)" d="M338.0056 625.0258C 337.5672 625.0258 337.1325 624.9965 336.7234 624.8066C 336.1974 624.5509 336.1097 624.1016 336.1097 623.8751C 336.1097 623.5463 336.2577 623.1409 336.7618 622.9217C 337.1417 622.7463 337.5672 622.7189 338.0056 622.7189C 338.422 622.7189 338.9097 622.739 339.3261 622.9655C 339.7718 623.1993 339.8795 623.5993 339.8795 623.8696C 339.8795 624.1619 339.77 624.5819 339.244 624.823C 338.8713 624.9984 338.4439 625.0258 338.0056 625.0258zM339.759 623.8696C 339.759 623.6505 339.622 623.329 339.096 623.234C 338.7672 623.1682 338.2686 623.1737 337.9398 623.1737C 337.5891 623.1737 337.2312 623.1737 336.9316 623.2175C 336.2814 623.3198 336.2303 623.7308 336.2303 623.8696C 336.2303 624.0449 336.3307 624.4066 336.8713 624.5162C 337.1782 624.5673 337.5965 624.571 337.9398 624.571C 338.3563 624.571 338.7234 624.5692 339.0741 624.5107C 339.6001 624.423 339.759 624.1107 339.759 623.8696z" stroke="none" fill="#000000" fill-rule="evenodd" /><path id="334" transform="matrix(1 0 0 -1 0 792)" d="M338.0056 627.7655C 337.5672 627.7655 337.1325 627.7363 336.7234 627.5463C 336.1974 627.2906 336.1097 626.8413 336.1097 626.6148C 336.1097 626.286 336.2577 625.8806 336.7618 625.6614C 337.1417 625.486 337.5672 625.4586 338.0056 625.4586C 338.422 625.4586 338.9097 625.4788 339.3261 625.7052C 339.7718 625.939 339.8795 626.339 339.8795 626.6093C 339.8795 626.9016 339.77 627.3217 339.244 627.5627C 338.8713 627.7381 338.4439 627.7655 338.0056 627.7655zM339.759 626.6093C 339.759 626.3901 339.622 626.0687 339.096 625.9737C 338.7672 625.908 338.2686 625.9135 337.9398 625.9135C 337.5891 625.9135 337.2312 625.9135 336.9316 625.9573C 336.2814 626.0596 336.2303 626.4705 336.2303 626.6093C 336.2303 626.7847 336.3307 627.1463 336.8713 627.2559C 337.1782 627.307 337.5965 627.3107 337.9398 627.3107C 338.3563 627.3107 338.7234 627.3088 339.0741 627.2504C 339.6001 627.1627 339.759 626.8504 339.759 626.6093z" stroke="none" fill="#000000" fill-rule="evenodd" /><path id="335" transform="matrix(1 0 0 -1 0 792)" d="M336.2522 629.5956C 336.1207 629.5956 336.1097 629.5938 336.1097 629.4696C 336.4604 629.1262 336.4604 628.6476 336.4604 628.4724L336.4604 628.4724L336.6302 628.4724C 336.6302 628.5819 336.6339 628.9052 336.4878 629.1901L336.4878 629.1901L339.3261 629.1901C 339.5234 629.1901 339.5891 629.17 339.5891 628.6805L339.5891 628.6805L339.5891 628.5052L339.5891 628.5052L339.759 628.5052C 339.7444 628.6952 339.7426 629.1737 339.7426 629.3929C 339.7426 629.6121 339.7444 630.0833 339.759 630.2805L339.759 630.2805L339.5891 630.2805L339.5891 630.2805L339.5891 630.1052C 339.5891 629.6084 339.5307 629.5956 339.3261 629.5956z" stroke="none" fill="#000000" fill-rule="evenodd" /><path id="336" transform="matrix(1 0 0 -1 0 792)" d="M347.5064 614.9529L347.5064 611.2653L347.5064 611.2653L348.827 611.1501L348.827 611.1501L348.827 611.4077C 348.2133 611.4515 347.7639 611.5118 347.7639 612.3008L347.7639 612.3008L347.7639 612.7228L347.7639 612.7228L350.9475 612.7228L350.9475 612.7228L350.9475 611.8844L350.9475 611.8844L351.205 611.8844C 351.1905 612.1766 351.1886 612.7831 351.1886 613.1118C 351.1886 613.4333 351.1905 614.0397 351.205 614.3392L351.205 614.3392L350.9475 614.3392L350.9475 614.3392L350.9475 613.5009L350.9475 613.5009L347.7639 613.5009L347.7639 613.5009L347.7639 613.9173C 347.7639 614.699 348.206 614.752 348.827 614.8104L348.827 614.8104L348.827 615.068z" stroke="none" fill="#000000" fill-rule="evenodd" /><path id="337" transform="matrix(1 0 0 -1 0 792)" d="M350.0105 617.7474C 349.2799 617.7474 348.7229 617.2415 348.7229 616.3502C 348.7229 615.4515 349.2872 614.9529 350.0105 614.9529C 350.69 614.9529 351.2379 615.4296 351.2379 616.3502C 351.2379 617.2707 350.69 617.7474 350.0105 617.7474zM351.0187 616.3502C 351.0187 615.6488 350.4325 615.6543 349.9503 615.6543C 349.7092 615.6543 349.4279 615.6525 349.2379 615.7474C 349.0407 615.8497 348.9201 616.0798 348.9201 616.3502C 348.9201 616.5767 349.0096 616.8068 349.1996 616.931C 349.3895 617.0406 349.6873 617.046 349.9503 617.046C 350.4325 617.046 351.0187 617.0442 351.0187 616.3502z" stroke="none" fill="#000000" fill-rule="evenodd" /><path id="338" transform="matrix(1 0 0 -1 0 792)" d="M349.0297 618.4926L350.5311 618.4926C 351.1229 618.4926 351.2379 618.9639 351.2379 619.3584C 351.2379 619.7748 350.9274 620.0214 350.5256 620.0214L350.5256 620.0214L350.2352 620.0214L350.2352 620.0214L350.2352 619.7639L350.2352 619.7639L350.5146 619.7639C 350.8872 619.7639 351.0187 619.5885 351.0187 619.4351C 351.0187 619.1136 350.6736 619.1172 350.5421 619.1172L350.5421 619.1172L349.0297 619.1172L349.0297 619.1172L349.0297 619.9172L349.0297 619.9172L348.7722 619.9172L348.7722 619.9172L348.7722 619.1172L348.7722 619.1172L347.7256 619.1172L347.7256 619.1172L347.7256 618.8597C 348.2735 618.8524 348.8178 618.5839 348.8325 618.0433L348.8325 618.0433L349.0297 618.0433z" stroke="none" fill="#000000" fill-rule="evenodd" /><path id="339" transform="matrix(1 0 0 -1 0 792)" d="M350.7831 622.428C 350.9585 622.428 351.205 622.428 351.205 622.9978L351.205 622.9978L351.205 623.2608C 351.205 623.3704 351.205 623.4362 351.0735 623.4362C 350.9493 623.4362 350.9475 623.3594 350.9475 623.2937C 350.9475 622.9576 350.8763 622.9595 350.7448 622.9595L350.7448 622.9595L349.5667 622.9595C 349.0845 622.9595 348.7229 622.5649 348.7229 621.754C 348.7229 621.4398 348.7448 620.7732 349.227 620.7732C 349.4681 620.7732 349.5722 620.9595 349.5722 621.1129C 349.5722 621.2809 349.4608 621.4581 349.227 621.4581C 349.0663 621.4581 348.9731 621.3522 348.9585 621.3375C 348.9293 621.491 348.9201 621.6663 348.9201 621.7321C 348.9201 622.1412 349.1503 622.3348 349.5667 622.3348L349.5667 622.3348L349.753 622.3348C 349.7749 621.9402 349.8242 620.554 350.6133 620.554C 351.1393 620.554 351.2379 621.2316 351.2379 621.6115C 351.2379 622.0499 351.0169 622.3037 350.7831 622.428zM349.9229 622.3348L350.4434 622.3348C 350.9694 622.3348 351.0406 621.8252 351.0406 621.6937C 351.0406 621.4088 350.8489 621.1951 350.6078 621.1951C 350.016 621.1951 349.9448 622.0572 349.9229 622.3348z" stroke="none" fill="#000000" fill-rule="evenodd" /><path id="340" transform="matrix(1 0 0 -1 0 792)" d="M347.4023 624.6691L347.4462 623.6992L347.4462 623.6992L347.7037 623.6992C 347.7037 624.0353 347.7055 624.0773 347.9174 624.0773L347.9174 624.0773L350.9475 624.0773L350.9475 624.0773L350.9475 623.6992L350.9475 623.6992L351.205 623.6992C 351.205 623.8745 351.1886 624.132 351.1886 624.3732C 351.1886 624.6069 351.205 624.8572 351.205 625.0471L351.205 625.0471L350.9475 625.0471L350.9475 625.0471L350.9475 624.6691z" stroke="none" fill="#000000" fill-rule="evenodd" /><path id="341" transform="matrix(1 0 0 -1 0 792)" d="M256.9065 608.6408L356.1672 608.6408" stroke="#000000" stroke-width="0.2189" fill="none" /><path id="342" transform="matrix(1 0 0 -1 0 792)" d="M256.9065 607.3257L356.1672 607.3257" stroke="#000000" stroke-width="0.2189" fill="none" /><path id="343" transform="matrix(1 0 0 -1 0 792)" d="M261.7308 526.2766L261.5609 525.4821C 261.5171 525.2629 261.3271 524.9561 260.9911 524.9561C 260.7573 524.9561 260.4157 525.1095 260.4157 525.6575C 260.4157 526.0958 260.602 526.6437 261.3472 526.7753C 261.4787 526.7972 261.4897 526.7953 261.4897 526.9122C 261.4897 527.0437 261.4678 527.0437 261.3363 527.0437L261.3363 527.0437L260.3335 527.0437C 260.2312 527.0437 260.1801 527.0401 260.1801 526.9451C 260.1801 526.9012 260.1892 526.894 260.2404 526.8355L260.2404 526.8355L260.4815 526.589C 260.2331 526.2675 260.1801 525.915 260.1801 525.652C 260.1801 524.8191 260.7116 524.4246 261.2815 524.4246C 261.6394 524.4246 261.8933 524.6036 262.0103 524.7205C 262.2805 524.9835 262.3171 525.1735 262.4486 525.7725C 262.5582 526.2547 262.5746 526.3442 262.6842 526.4684C 262.7719 526.5488 262.9125 526.6876 263.1609 526.6876C 263.4239 526.6876 263.802 526.5451 263.802 525.9752C 263.802 525.5588 263.6942 524.726 262.876 524.6821C 262.781 524.6748 262.7499 524.673 262.7499 524.5561C 262.7499 524.4246 262.7847 524.4246 262.9089 524.4246L262.9089 524.4246L263.9061 524.4246C 264.0157 524.4246 264.0595 524.4209 264.0595 524.5232C 264.0595 524.567 264.0468 524.5835 264.0102 524.6273L264.0102 524.6273L263.7582 524.8794C 264.0285 525.2374 264.0595 525.7488 264.0595 525.9752C 264.0595 526.8739 263.4422 527.2191 262.8869 527.2191C 262.2805 527.2191 261.8404 526.7734 261.7308 526.2766z" stroke="none" fill="#000000" fill-rule="evenodd" /><path id="344" transform="matrix(1 0 0 -1 0 792)" d="M261.8239 528.1391L263.3253 528.1391C 263.9171 528.1391 264.0321 528.6103 264.0321 529.0048C 264.0321 529.4213 263.7216 529.6678 263.3198 529.6678L263.3198 529.6678L263.0294 529.6678L263.0294 529.6678L263.0294 529.4103L263.0294 529.4103L263.3088 529.4103C 263.6815 529.4103 263.813 529.235 263.813 529.0815C 263.813 528.7601 263.4677 528.7637 263.3363 528.7637L263.3363 528.7637L261.8239 528.7637L261.8239 528.7637L261.8239 529.5637L261.8239 529.5637L261.5664 529.5637L261.5664 529.5637L261.5664 528.7637L261.5664 528.7637L260.5198 528.7637L260.5198 528.7637L260.5198 528.5062C 261.0677 528.4989 261.612 528.2304 261.6267 527.6898L261.6267 527.6898L261.8239 527.6898z" stroke="none" fill="#000000" fill-rule="evenodd" /><path id="345" transform="matrix(1 0 0 -1 0 792)" d="M263.6048 532.425L264.0321 532.425L264.0321 532.425L263.9993 533.395L263.9993 533.395L263.7417 533.395C 263.7417 533.0516 263.7472 533.0168 263.528 533.0168L263.528 533.0168L261.5335 533.0168L261.5335 533.0168L261.5774 532.0142L261.5774 532.0142L261.8349 532.0142C 261.8349 532.3502 261.8367 532.3922 262.0486 532.3922L262.0486 532.3922L263.0952 532.3922C 263.5481 532.3922 263.8349 532.1073 263.8349 531.7128C 263.8349 531.289 263.7015 531.2744 263.402 531.2744L263.402 531.2744L261.5335 531.2744L261.5335 531.2744L261.5774 530.2717L261.5774 530.2717L261.8349 530.2717C 261.8349 530.6077 261.8367 530.6498 262.0486 530.6498L262.0486 530.6498L263.3253 530.6498C 263.9171 530.6498 264.0321 531.0881 264.0321 531.636C 264.0321 531.7748 264.0358 532.1694 263.6048 532.425z" stroke="none" fill="#000000" fill-rule="evenodd" /><path id="346" transform="matrix(1 0 0 -1 0 792)" d="M263.7636 535.8163L264.0321 535.8163L264.0321 535.8163L263.9993 536.819L263.9993 536.819L263.7417 536.819C 263.7417 536.4756 263.7472 536.441 263.528 536.441L263.528 536.441L260.1965 536.441L260.1965 536.441L260.2404 535.4711L260.2404 535.4711L260.4979 535.4711C 260.4979 535.8072 260.4997 535.8492 260.7116 535.8492L260.7116 535.8492L261.7801 535.8492C 261.5682 535.5715 261.5335 535.2848 261.5335 535.1094C 261.5335 534.3058 262.0212 533.7341 262.7883 533.7341C 263.5116 533.7341 264.0321 534.2382 264.0321 535.0492C 264.0321 535.3779 263.9024 535.641 263.7636 535.8163zM262.065 535.8163L263.4349 535.8163C 263.5372 535.7432 263.8349 535.5204 263.8349 535.104C 263.8349 534.4318 263.1755 534.4355 262.7883 534.4355C 262.5253 534.4355 262.2349 534.4318 262.0157 534.5779C 261.7892 534.7314 261.7308 534.9889 261.7308 535.1642C 261.7308 535.4711 261.9116 535.6921 262.065 535.8163z" stroke="none" fill="#000000" fill-rule="evenodd" /><path id="347" transform="matrix(1 0 0 -1 0 792)" d="M261.939 539.7993C 261.8659 539.8358 261.8239 539.8541 261.8239 540.2048L261.8239 540.2048L261.5664 540.2048C 261.581 540.0732 261.5828 539.9034 261.5828 539.7719C 261.5828 539.6331 261.5737 539.3829 261.5664 539.2733L261.5664 539.2733L261.8239 539.2733C 261.8239 539.2806 261.8239 539.5308 261.8897 539.5308C 261.897 539.5308 261.9554 539.5034 261.9554 539.5034L261.9554 539.5034L263.3034 538.8733L263.3034 538.8733L261.8239 538.1774L261.8239 538.1774L261.8239 538.4733L261.8239 538.4733L261.5664 538.4733C 261.581 538.2906 261.5828 537.7938 261.5828 537.7938C 261.5828 537.6404 261.5737 537.3884 261.5664 537.1692L261.5664 537.1692L261.8239 537.1692L261.8239 537.1692L261.8239 537.5199L261.8239 537.5199L263.9993 538.5446L263.9993 538.5446L264.2623 538.4185C 264.5253 538.2943 264.8979 538.1208 264.8979 537.7335C 264.8979 537.6532 264.8906 537.6459 264.8759 537.6021C 264.854 537.6459 264.7755 537.7774 264.5855 537.7774C 264.4029 537.7774 264.2732 537.6422 264.2732 537.4596C 264.2732 537.3062 264.3719 537.1473 264.5911 537.1473C 264.8687 537.1473 265.0951 537.4048 265.0951 537.7335C 265.0951 538.15 264.7499 538.4678 264.4431 538.6212z" stroke="none" fill="#000000" fill-rule="evenodd" /><path id="369" transform="matrix(1 0 0 -1 0 792)" d="M288.8653 585.4077L356.1672 585.4077" stroke="#000000" stroke-width="0.2189" fill="none" /><path id="379" transform="matrix(1 0 0 -1 0 792)" d="M269.9118 578.1746L356.1672 578.1746" stroke="#000000" stroke-width="0.2189" fill="none" /><path id="400" transform="matrix(1 0 0 -1 0 792)" d="M288.8653 556.476L356.1672 556.476" stroke="#000000" stroke-width="0.2189" fill="none" /><path id="410" transform="matrix(1 0 0 -1 0 792)" d="M269.9118 549.243L356.1672 549.243" stroke="#000000" stroke-width="0.2189" fill="none" /><path id="432" transform="matrix(1 0 0 -1 0 792)" d="M288.8653 527.5444L356.1672 527.5444" stroke="#000000" stroke-width="0.2189" fill="none" /><path id="442" transform="matrix(1 0 0 -1 0 792)" d="M269.9118 520.3113L356.1672 520.3113" stroke="#000000" stroke-width="0.2189" fill="none" /><path id="463" transform="matrix(1 0 0 -1 0 792)" d="M288.8653 498.6127L356.1672 498.6127" stroke="#000000" stroke-width="0.2189" fill="none" /><path id="473" transform="matrix(1 0 0 -1 0 792)" d="M269.9118 491.3802L356.1672 491.3802" stroke="#000000" stroke-width="0.2189" fill="none" /><path id="495" transform="matrix(1 0 0 -1 0 792)" d="M288.8653 469.6811L356.1672 469.6811" stroke="#000000" stroke-width="0.2189" fill="none" /><path id="505" transform="matrix(1 0 0 -1 0 792)" d="M269.9118 462.4486L356.1672 462.4486" stroke="#000000" stroke-width="0.2189" fill="none" /><path id="530" transform="matrix(1 0 0 -1 0 792)" d="M288.8653 440.7495L356.1672 440.7495" stroke="#000000" stroke-width="0.2189" fill="none" /><path id="542" transform="matrix(1 0 0 -1 0 792)" d="M256.9065 433.5169L356.1672 433.5169" stroke="#000000" stroke-width="0.2189" fill="none" /><path id="562" transform="matrix(1 0 0 -1 0 792)" d="M419.76 611.1666C 419.9427 611.1228 419.9847 611.1118 419.9847 610.8707C 419.9847 610.8049 419.9792 610.7447 420.0888 610.7447C 420.1326 610.7447 420.1545 610.7721 420.1545 610.8159C 420.1545 610.962 420.1381 611.1228 420.1381 611.2762C 420.1381 611.4515 420.1545 611.6433 420.1545 611.8187C 420.1545 611.8406 420.1545 611.9173 420.045 611.9173C 419.9792 611.9173 419.9847 611.8589 419.9847 611.7858C 419.9847 611.5082 419.9408 611.5118 419.897 611.5118C 419.8313 611.5118 418.9399 611.7365 418.8011 611.7803C 418.9619 611.8461 419.1518 611.9995 419.1518 612.2844C 419.1518 612.92 418.3573 613.605 417.5463 613.605C 417.0349 613.605 416.6696 613.2926 416.6696 612.8762C 416.6696 612.5986 416.8687 612.3337 417.0806 612.1584C 416.7883 612.1 416.6696 611.8625 416.6696 611.6653C 416.6696 611.4095 416.887 611.3036 416.982 611.2598C 417.1719 611.1575 417.4988 611.0899 417.5135 611.0899C 417.5719 611.0899 417.5682 611.1411 417.5682 611.1556C 417.5682 611.2068 417.5664 611.2123 417.4422 611.2488C 417.055 611.3365 416.7902 611.4515 416.7902 611.6488C 416.7902 611.7365 416.8376 611.8187 417.0422 611.8187C 417.1737 611.8187 417.234 611.8022 417.3217 611.7803zM417.3819 612.131C 417.2358 612.1675 417.0861 612.3136 416.9984 612.4159C 416.8304 612.6058 416.7902 612.7648 416.7902 612.8597C 416.7902 613.0789 416.9838 613.2104 417.3052 613.2104C 417.634 613.2104 418.2623 613.026 418.4669 612.931C 418.8541 612.741 419.0313 612.4762 419.0313 612.2789C 419.0313 611.9136 418.5801 611.8461 418.5436 611.8461C 418.5363 611.8461 418.5217 611.8406 418.4559 611.8625z" stroke="none" fill="#000000" fill-rule="evenodd" /><path id="563" transform="matrix(1 0 0 -1 0 792)" d="M416.3628 618.8987C 416.3335 618.9644 416.308 619.0027 416.2422 619.0027C 416.1838 619.0027 416.1326 618.9517 416.1326 618.8932C 416.1326 618.8712 416.1345 618.8603 416.171 618.7946L416.171 618.7946L417.6011 615.7589C 417.6303 615.6932 417.6559 615.6548 417.7216 615.6548C 417.7874 615.6548 417.8203 615.6932 417.8422 615.7589L417.8422 615.7589L419.2723 618.7946C 419.3089 618.8603 419.3107 618.8712 419.3107 618.8932C 419.3107 618.9517 419.2596 619.0027 419.2011 619.0027C 419.1354 619.0027 419.1098 618.9644 419.0806 618.8987L419.0806 618.8987L417.7216 616.022z" stroke="none" fill="#000000" fill-rule="evenodd" /><path id="564" transform="matrix(1 0 0 -1 0 792)" d="M418.8011 622.0372C 418.6477 622.0372 418.5107 621.9003 418.5107 621.7468C 418.5107 621.5861 418.6477 621.4564 418.8011 621.4564C 418.9619 621.4564 419.0915 621.5861 419.0915 621.7468C 419.0915 621.9003 418.9619 622.0372 418.8011 622.0372z" stroke="none" fill="#000000" fill-rule="evenodd" /><path id="565" transform="matrix(1 0 0 -1 0 792)" d="M417.3381 625.0252C 416.8997 625.0252 416.4651 624.996 416.0559 624.806C 415.5299 624.5503 415.4422 624.101 415.4422 623.8745C 415.4422 623.5458 415.5902 623.1403 416.0943 622.9211C 416.4742 622.7458 416.8997 622.7184 417.3381 622.7184C 417.7545 622.7184 418.2422 622.7385 418.6587 622.965C 419.1043 623.1987 419.2121 623.5988 419.2121 623.869C 419.2121 624.1613 419.1025 624.5814 418.5765 624.8225C 418.2039 624.9978 417.7765 625.0252 417.3381 625.0252zM419.0915 623.869C 419.0915 623.6499 418.9545 623.3284 418.4285 623.2334C 418.0998 623.1677 417.6011 623.1732 417.2724 623.1732C 416.9217 623.1732 416.5637 623.1732 416.2642 623.217C 415.6139 623.3193 415.5628 623.7302 415.5628 623.869C 415.5628 624.0444 415.6632 624.406 416.2039 624.5156C 416.5107 624.5668 416.929 624.5704 417.2724 624.5704C 417.6888 624.5704 418.0559 624.5686 418.4066 624.5101C 418.9326 624.4225 419.0915 624.1101 419.0915 623.869z" stroke="none" fill="#000000" fill-rule="evenodd" /><path id="566" transform="matrix(1 0 0 -1 0 792)" d="M417.9901 627.7047C 417.3399 627.7047 416.7902 627.2554 416.7902 626.6636C 416.7902 626.4005 416.8797 626.1649 417.0696 625.9677L417.0696 625.9677L416.0011 625.9677C 416.0377 626.0773 416.0724 626.2581 416.0724 626.4335C 416.0724 627.1056 415.5756 627.491 415.5025 627.491C 415.4733 627.491 415.4422 627.4727 415.4422 627.4362C 415.4422 627.4288 415.4441 627.4142 415.4586 627.3923C 415.5098 627.2827 415.6176 627.0125 415.6176 626.6471C 415.6176 626.428 415.5811 626.1741 415.4642 625.9183C 415.4495 625.8745 415.4477 625.8599 415.4477 625.8527C 415.4477 625.7942 415.4915 625.7979 415.5792 625.7979L415.5792 625.7979L417.2011 625.7979C 417.3034 625.7979 417.3436 625.7942 417.3436 625.8745C 417.3436 625.9111 417.3308 625.9238 417.2943 625.9458C 417.2066 626.0042 416.9107 626.2069 416.9107 626.6526C 416.9107 626.9376 417.1664 627.0745 417.2614 627.1184C 417.466 627.2061 417.6815 627.217 417.9518 627.217C 418.1491 627.217 418.476 627.217 418.7025 627.0854C 418.9217 626.954 419.0587 626.7476 419.0587 626.4991C 419.0587 626.0974 418.7737 625.7814 418.4449 625.6937C 418.4523 625.7083 418.4559 625.7211 418.4559 625.7869C 418.4559 625.9622 418.3189 626.0608 418.1874 626.0608C 418.0559 626.0608 417.9189 625.9622 417.9189 625.7869C 417.9189 625.7065 417.9609 625.5184 418.2093 625.5184C 418.6842 625.5184 419.2121 625.8965 419.2121 626.5101C 419.2121 627.1458 418.6915 627.7047 417.9901 627.7047z" stroke="none" fill="#000000" fill-rule="evenodd" /><path id="567" transform="matrix(1 0 0 -1 0 792)" d="M431.8144 611.1666C 431.997 611.1228 432.039 611.1118 432.039 610.8707C 432.039 610.8049 432.0335 610.7447 432.1431 610.7447C 432.1869 610.7447 432.2089 610.7721 432.2089 610.8159C 432.2089 610.962 432.1924 611.1228 432.1924 611.2762C 432.1924 611.4515 432.2089 611.6433 432.2089 611.8187C 432.2089 611.8406 432.2089 611.9173 432.0993 611.9173C 432.0335 611.9173 432.039 611.8589 432.039 611.7858C 432.039 611.5082 431.9951 611.5118 431.9513 611.5118C 431.8856 611.5118 430.9943 611.7365 430.8554 611.7803C 431.0162 611.8461 431.2061 611.9995 431.2061 612.2844C 431.2061 612.92 430.4116 613.605 429.6006 613.605C 429.0892 613.605 428.724 613.2926 428.724 612.8762C 428.724 612.5986 428.923 612.3337 429.1349 612.1584C 428.8427 612.1 428.724 611.8625 428.724 611.6653C 428.724 611.4095 428.9413 611.3036 429.0363 611.2598C 429.2262 611.1575 429.5532 611.0899 429.5678 611.0899C 429.6262 611.0899 429.6226 611.141 429.6226 611.1556C 429.6226 611.2068 429.6207 611.2123 429.4966 611.2488C 429.1093 611.3365 428.8445 611.4515 428.8445 611.6488C 428.8445 611.7365 428.892 611.8187 429.0965 611.8187C 429.228 611.8187 429.2883 611.8022 429.376 611.7803zM429.4362 612.131C 429.2901 612.1675 429.1404 612.3136 429.0527 612.4159C 428.8847 612.6058 428.8445 612.7648 428.8445 612.8597C 428.8445 613.0789 429.0381 613.2104 429.3596 613.2104C 429.6883 613.2104 430.3166 613.0259 430.5212 612.931C 430.9084 612.741 431.0856 612.4762 431.0856 612.2789C 431.0856 611.9136 430.6344 611.8461 430.5979 611.8461C 430.5906 611.8461 430.576 611.8406 430.5103 611.8625z" stroke="none" fill="#000000" fill-rule="evenodd" /><path id="568" transform="matrix(1 0 0 -1 0 792)" d="M428.4171 618.8987C 428.3878 618.9644 428.3623 619.0027 428.2965 619.0027C 428.2381 619.0027 428.187 618.9516 428.187 618.8932C 428.187 618.8712 428.1888 618.8603 428.2253 618.7946L428.2253 618.7946L429.6554 615.7589C 429.6847 615.6932 429.7102 615.6548 429.776 615.6548C 429.8417 615.6548 429.8746 615.6932 429.8965 615.7589L429.8965 615.7589L431.3267 618.7946C 431.3632 618.8603 431.365 618.8712 431.365 618.8932C 431.365 618.9516 431.3139 619.0027 431.2555 619.0027C 431.1897 619.0027 431.1641 618.9644 431.1349 618.8987L431.1349 618.8987L429.776 616.022z" stroke="none" fill="#000000" fill-rule="evenodd" /><path id="569" transform="matrix(1 0 0 -1 0 792)" d="M430.8554 622.0372C 430.702 622.0372 430.565 621.9003 430.565 621.7468C 430.565 621.5861 430.702 621.4564 430.8554 621.4564C 431.0162 621.4564 431.1458 621.5861 431.1458 621.7468C 431.1458 621.9003 431.0162 622.0372 430.8554 622.0372z" stroke="none" fill="#000000" fill-rule="evenodd" /><path id="570" transform="matrix(1 0 0 -1 0 792)" d="M429.3924 625.0258C 428.9541 625.0258 428.5194 624.9966 428.1102 624.8066C 427.5842 624.5509 427.4966 624.1016 427.4966 623.8751C 427.4966 623.5463 427.6445 623.1409 428.1486 622.9216C 428.5285 622.7463 428.9541 622.7189 429.3924 622.7189C 429.8089 622.7189 430.2965 622.739 430.713 622.9655C 431.1586 623.1993 431.2664 623.5993 431.2664 623.8696C 431.2664 624.1619 431.1568 624.5819 430.6308 624.823C 430.2582 624.9984 429.8308 625.0258 429.3924 625.0258zM431.1458 623.8696C 431.1458 623.6504 431.0089 623.329 430.4828 623.234C 430.1541 623.1682 429.6554 623.1737 429.3267 623.1737C 428.976 623.1737 428.618 623.1737 428.3185 623.2175C 427.6682 623.3198 427.6171 623.7308 427.6171 623.8696C 427.6171 624.0449 427.7176 624.4066 428.2582 624.5162C 428.565 624.5673 428.9833 624.571 429.3267 624.571C 429.7431 624.571 430.1102 624.5692 430.4609 624.5107C 430.9869 624.423 431.1458 624.1107 431.1458 623.8696z" stroke="none" fill="#000000" fill-rule="evenodd" /><path id="571" transform="matrix(1 0 0 -1 0 792)" d="M427.639 626.8559C 427.5075 626.8559 427.4966 626.8541 427.4966 626.7299C 427.8472 626.3865 427.8472 625.908 427.8472 625.7327L427.8472 625.7327L428.0171 625.7327C 428.0171 625.8422 428.0208 626.1655 427.8746 626.4504L427.8746 626.4504L430.713 626.4504C 430.9102 626.4504 430.976 626.4303 430.976 625.9408L430.976 625.9408L430.976 625.7655L430.976 625.7655L431.1458 625.7655C 431.1313 625.9554 431.1294 626.434 431.1294 626.6532C 431.1294 626.8723 431.1313 627.3436 431.1458 627.5408L431.1458 627.5408L430.976 627.5408L430.976 627.5408L430.976 627.3655C 430.976 626.8687 430.9175 626.8559 430.713 626.8559z" stroke="none" fill="#000000" fill-rule="evenodd" /><path id="572" transform="matrix(1 0 0 -1 0 792)" d="M442.9865 611.1666C 443.1692 611.1228 443.2112 611.1118 443.2112 610.8707C 443.2112 610.8049 443.2057 610.7447 443.3153 610.7447C 443.3591 610.7447 443.381 610.7721 443.381 610.8159C 443.381 610.962 443.3646 611.1228 443.3646 611.2762C 443.3646 611.4515 443.381 611.6433 443.381 611.8187C 443.381 611.8406 443.381 611.9173 443.2715 611.9173C 443.2057 611.9173 443.2112 611.8589 443.2112 611.7858C 443.2112 611.5082 443.1673 611.5118 443.1235 611.5118C 443.0578 611.5118 442.1664 611.7365 442.0276 611.7803C 442.1884 611.8461 442.3783 611.9995 442.3783 612.2844C 442.3783 612.92 441.5838 613.605 440.7728 613.605C 440.2614 613.605 439.8961 613.2926 439.8961 612.8762C 439.8961 612.5985 440.0952 612.3337 440.3071 612.1584C 440.0148 612.1 439.8961 611.8625 439.8961 611.6652C 439.8961 611.4095 440.1135 611.3036 440.2085 611.2598C 440.3984 611.1575 440.7253 611.0898 440.74 611.0898C 440.7984 611.0898 440.7947 611.141 440.7947 611.1556C 440.7947 611.2068 440.7929 611.2123 440.6687 611.2488C 440.2815 611.3364 440.0167 611.4515 440.0167 611.6488C 440.0167 611.7365 440.0641 611.8187 440.2687 611.8187C 440.4002 611.8187 440.4605 611.8022 440.5482 611.7803zM440.6084 612.131C 440.4623 612.1675 440.3126 612.3136 440.2249 612.4159C 440.0569 612.6058 440.0167 612.7648 440.0167 612.8597C 440.0167 613.0789 440.2103 613.2104 440.5317 613.2104C 440.8605 613.2104 441.4888 613.0259 441.6934 612.931C 442.0806 612.741 442.2578 612.4762 442.2578 612.2789C 442.2578 611.9136 441.8066 611.8461 441.7701 611.8461C 441.7628 611.8461 441.7482 611.8406 441.6824 611.8625z" stroke="none" fill="#000000" fill-rule="evenodd" /><path id="573" transform="matrix(1 0 0 -1 0 792)" d="M439.5893 618.8986C 439.56 618.9644 439.5345 619.0027 439.4687 619.0027C 439.4103 619.0027 439.3591 618.9515 439.3591 618.8931C 439.3591 618.8712 439.361 618.8602 439.3975 618.7945L439.3975 618.7945L440.8276 615.7589C 440.8568 615.6931 440.8824 615.6548 440.9482 615.6548C 441.0139 615.6548 441.0468 615.6931 441.0687 615.7589L441.0687 615.7589L442.4988 618.7945C 442.5354 618.8602 442.5372 618.8712 442.5372 618.8931C 442.5372 618.9515 442.4861 619.0027 442.4276 619.0027C 442.3619 619.0027 442.3363 618.9644 442.3071 618.8986L442.3071 618.8986L440.9482 616.0219z" stroke="none" fill="#000000" fill-rule="evenodd" /><path id="574" transform="matrix(1 0 0 -1 0 792)" d="M442.0276 622.0372C 441.8742 622.0372 441.7372 621.9003 441.7372 621.7468C 441.7372 621.5861 441.8742 621.4564 442.0276 621.4564C 442.1884 621.4564 442.318 621.5861 442.318 621.7468C 442.318 621.9003 442.1884 622.0372 442.0276 622.0372z" stroke="none" fill="#000000" fill-rule="evenodd" /><path id="575" transform="matrix(1 0 0 -1 0 792)" d="M440.5646 625.0253C 440.1263 625.0253 439.6916 624.996 439.2824 624.806C 438.7564 624.5503 438.6687 624.1011 438.6687 623.8745C 438.6687 623.5458 438.8167 623.1403 439.3208 622.9211C 439.7007 622.7458 440.1263 622.7184 440.5646 622.7184C 440.981 622.7184 441.4687 622.7385 441.8852 622.965C 442.3308 623.1987 442.4386 623.5988 442.4386 623.8691C 442.4386 624.1613 442.329 624.5814 441.803 624.8225C 441.4304 624.9978 441.003 625.0253 440.5646 625.0253zM442.318 623.8691C 442.318 623.6499 442.181 623.3284 441.655 623.2335C 441.3263 623.1677 440.8276 623.1732 440.4989 623.1732C 440.1482 623.1732 439.7902 623.1732 439.4907 623.217C 438.8404 623.3193 438.7893 623.7302 438.7893 623.8691C 438.7893 624.0444 438.8897 624.4061 439.4304 624.5156C 439.7372 624.5668 440.1555 624.5704 440.4989 624.5704C 440.9153 624.5704 441.2824 624.5686 441.6331 624.5101C 442.1591 624.4225 442.318 624.1102 442.318 623.8691z" stroke="none" fill="#000000" fill-rule="evenodd" /><path id="576" transform="matrix(1 0 0 -1 0 792)" d="M440.5646 627.7649C 440.1263 627.7649 439.6916 627.7357 439.2824 627.5458C 438.7564 627.29 438.6687 626.8407 438.6687 626.6143C 438.6687 626.2855 438.8167 625.88 439.3208 625.6609C 439.7007 625.4855 440.1263 625.4581 440.5646 625.4581C 440.981 625.4581 441.4687 625.4781 441.8852 625.7047C 442.3308 625.9385 442.4386 626.3385 442.4386 626.6088C 442.4386 626.901 442.329 627.3211 441.803 627.5623C 441.4304 627.7375 441.003 627.7649 440.5646 627.7649zM442.318 626.6088C 442.318 626.3896 442.181 626.0681 441.655 625.9731C 441.3263 625.9074 440.8276 625.9128 440.4989 625.9128C 440.1482 625.9128 439.7902 625.9128 439.4907 625.9567C 438.8404 626.059 438.7893 626.47 438.7893 626.6088C 438.7893 626.7841 438.8897 627.1458 439.4304 627.2554C 439.7372 627.3065 440.1555 627.3102 440.4989 627.3102C 440.9153 627.3102 441.2824 627.3083 441.6331 627.2499C 442.1591 627.1622 442.318 626.8499 442.318 626.6088z" stroke="none" fill="#000000" fill-rule="evenodd" /><path id="577" transform="matrix(1 0 0 -1 0 792)" d="M438.8112 629.5951C 438.6797 629.5951 438.6687 629.5933 438.6687 629.4691C 439.0194 629.1257 439.0194 628.6471 439.0194 628.4718L439.0194 628.4718L439.1893 628.4718C 439.1893 628.5814 439.1929 628.9047 439.0468 629.1896L439.0468 629.1896L441.8852 629.1896C 442.0824 629.1896 442.1482 629.1696 442.1482 628.68L442.1482 628.68L442.1482 628.5046L442.1482 628.5046L442.318 628.5046C 442.3034 628.6946 442.3016 629.1732 442.3016 629.3923C 442.3016 629.6115 442.3034 630.0828 442.318 630.28L442.318 630.28L442.1482 630.28L442.1482 630.28L442.1482 630.1046C 442.1482 629.6078 442.0897 629.5951 441.8852 629.5951z" stroke="none" fill="#000000" fill-rule="evenodd" /><path id="578" transform="matrix(1 0 0 -1 0 792)" d="M450.0655 614.9529L450.0655 611.2653L450.0655 611.2653L451.386 611.1501L451.386 611.1501L451.386 611.4077C 450.7723 611.4515 450.323 611.5118 450.323 612.3008L450.323 612.3008L450.323 612.7228L450.323 612.7228L453.5065 612.7228L453.5065 612.7228L453.5065 611.8844L453.5065 611.8844L453.7641 611.8844C 453.7495 612.1766 453.7476 612.783 453.7476 613.1118C 453.7476 613.4332 453.7495 614.0397 453.7641 614.3392L453.7641 614.3392L453.5065 614.3392L453.5065 614.3392L453.5065 613.5009L453.5065 613.5009L450.323 613.5009L450.323 613.5009L450.323 613.9172C 450.323 614.699 450.765 614.752 451.386 614.8104L451.386 614.8104L451.386 615.068z" stroke="none" fill="#000000" fill-rule="evenodd" /><path id="579" transform="matrix(1 0 0 -1 0 792)" d="M452.5695 617.7474C 451.839 617.7474 451.2819 617.2415 451.2819 616.3502C 451.2819 615.4515 451.8463 614.9529 452.5695 614.9529C 453.249 614.9529 453.7969 615.4296 453.7969 616.3502C 453.7969 617.2707 453.249 617.7474 452.5695 617.7474zM453.5778 616.3502C 453.5778 615.6488 452.9915 615.6543 452.5093 615.6543C 452.2682 615.6543 451.9869 615.6525 451.7969 615.7474C 451.5997 615.8497 451.4792 616.0798 451.4792 616.3502C 451.4792 616.5767 451.5686 616.8068 451.7586 616.931C 451.9485 617.0405 452.2463 617.046 452.5093 617.046C 452.9915 617.046 453.5778 617.0442 453.5778 616.3502z" stroke="none" fill="#000000" fill-rule="evenodd" /><path id="580" transform="matrix(1 0 0 -1 0 792)" d="M451.5887 618.4926L453.0901 618.4926C 453.6819 618.4926 453.7969 618.9639 453.7969 619.3584C 453.7969 619.7748 453.4865 620.0214 453.0846 620.0214L453.0846 620.0214L452.7942 620.0214L452.7942 620.0214L452.7942 619.7639L452.7942 619.7639L453.0736 619.7639C 453.4463 619.7639 453.5778 619.5885 453.5778 619.4351C 453.5778 619.1136 453.2326 619.1173 453.1011 619.1173L453.1011 619.1173L451.5887 619.1173L451.5887 619.1173L451.5887 619.9172L451.5887 619.9172L451.3312 619.9172L451.3312 619.9172L451.3312 619.1173L451.3312 619.1173L450.2846 619.1173L450.2846 619.1173L450.2846 618.8597C 450.8326 618.8524 451.3769 618.584 451.3915 618.0433L451.3915 618.0433L451.5887 618.0433z" stroke="none" fill="#000000" fill-rule="evenodd" /><path id="581" transform="matrix(1 0 0 -1 0 792)" d="M453.3422 622.428C 453.5175 622.428 453.7641 622.428 453.7641 622.9978L453.7641 622.9978L453.7641 623.2608C 453.7641 623.3704 453.7641 623.4362 453.6326 623.4362C 453.5084 623.4362 453.5065 623.3595 453.5065 623.2937C 453.5065 622.9576 453.4353 622.9595 453.3038 622.9595L453.3038 622.9595L452.1257 622.9595C 451.6435 622.9595 451.2819 622.5649 451.2819 621.754C 451.2819 621.4398 451.3038 620.7731 451.786 620.7731C 452.0271 620.7731 452.1312 620.9595 452.1312 621.1129C 452.1312 621.2809 452.0198 621.4581 451.786 621.4581C 451.6253 621.4581 451.5321 621.3522 451.5175 621.3375C 451.4883 621.491 451.4792 621.6663 451.4792 621.7321C 451.4792 622.1412 451.7093 622.3348 452.1257 622.3348L452.1257 622.3348L452.312 622.3348C 452.334 621.9403 452.3833 620.554 453.1723 620.554C 453.6983 620.554 453.7969 621.2316 453.7969 621.6115C 453.7969 622.0498 453.576 622.3037 453.3422 622.428zM452.4819 622.3348L453.0024 622.3348C 453.5284 622.3348 453.5997 621.8252 453.5997 621.6937C 453.5997 621.4088 453.4079 621.1951 453.1668 621.1951C 452.575 621.1951 452.5038 622.0571 452.4819 622.3348z" stroke="none" fill="#000000" fill-rule="evenodd" /><path id="582" transform="matrix(1 0 0 -1 0 792)" d="M449.9613 624.6691L450.0052 623.6992L450.0052 623.6992L450.2627 623.6992C 450.2627 624.0353 450.2645 624.0773 450.4764 624.0773L450.4764 624.0773L453.5065 624.0773L453.5065 624.0773L453.5065 623.6992L453.5065 623.6992L453.7641 623.6992C 453.7641 623.8745 453.7476 624.1321 453.7476 624.3732C 453.7476 624.6069 453.7641 624.8572 453.7641 625.0471L453.7641 625.0471L453.5065 625.0471L453.5065 625.0471L453.5065 624.6691z" stroke="none" fill="#000000" fill-rule="evenodd" /><path id="583" transform="matrix(1 0 0 -1 0 792)" d="M360.5765 608.6408L458.7262 608.6408" stroke="#000000" stroke-width="0.2189" fill="none" /><path id="584" transform="matrix(1 0 0 -1 0 792)" d="M360.5765 607.3257L458.7262 607.3257" stroke="#000000" stroke-width="0.2189" fill="none" /><path id="585" transform="matrix(1 0 0 -1 0 792)" d="M366.1222 526.6297L366.1222 526.3722C 366.5021 526.3284 367.3661 526.2334 367.3661 525.2544L367.3661 525.2544L367.3661 524.69L367.3661 524.69L364.1223 524.69L364.1223 524.69L364.1223 525.4297L364.1223 525.4297L363.8647 525.4297C 363.8866 525.1886 363.8811 524.5859 363.8811 524.3229C 363.8811 524.0818 363.8866 523.5247 363.8647 523.3201L363.8647 523.3201L364.1223 523.3201L364.1223 523.3201L364.1223 523.9119L364.1223 523.9119L367.3661 523.9119L367.3661 523.9119L367.3661 523.3201L367.3661 523.3201L367.6236 523.3201L367.6236 523.3201L367.6236 526.4598z" stroke="none" fill="#000000" fill-rule="evenodd" /><path id="586" transform="matrix(1 0 0 -1 0 792)" d="M366.429 529.428C 366.429 529.5449 366.4346 529.6034 366.2811 529.6034C 366.1131 529.6034 365.7149 529.5669 365.4373 529.2966C 365.24 529.092 365.1414 528.7979 365.1414 528.4253C 365.1414 527.5486 365.7113 527.0719 366.3907 527.0719C 367.1286 527.0719 367.6565 527.618 367.6565 528.502C 367.6565 529.3641 367.0775 529.6034 366.9825 529.6034C 366.8875 529.6034 366.8839 529.4938 366.8839 529.4719C 366.8839 529.377 366.9113 529.3641 366.9989 529.3349C 367.2619 529.218 367.4373 528.902 367.4373 528.5513C 367.4373 527.7769 366.714 527.7733 366.429 527.7733zM366.2483 527.7733C 366.0364 527.7806 365.8062 527.7878 365.6236 527.9048C 365.4044 528.0436 365.3387 528.2646 365.3387 528.4253C 365.3387 529.0609 366.0583 529.0756 366.2483 529.0829z" stroke="none" fill="#000000" fill-rule="evenodd" /><path id="587" transform="matrix(1 0 0 -1 0 792)" d="M366.0126 530.9409C 365.9761 530.7363 365.9195 530.382 365.6565 530.382C 365.3204 530.382 365.3167 530.8861 365.3167 530.9957C 365.3167 531.4048 365.4775 531.613 365.777 531.6423C 365.8647 531.6423 365.8866 531.6514 365.8866 531.7683C 365.8866 531.8998 365.8647 531.8998 365.7332 531.8998L365.7332 531.8998L365.2948 531.8998C 365.1926 531.8998 365.1414 531.8962 365.1414 531.8012C 365.1414 531.7793 365.1432 531.7665 365.2455 531.5546C 365.1798 531.4085 365.1414 531.2204 365.1414 531.0012C 365.1414 530.8331 365.1432 529.993 365.8592 529.993C 366.0784 529.993 366.2318 530.1025 366.3195 530.2122C 366.5168 530.4313 366.5478 530.6377 366.6208 531.0615C 366.6574 531.2587 366.7268 531.6697 367.0482 531.6697C 367.4647 531.6697 367.4592 531.1619 367.4592 531.045C 367.4592 530.4606 367.0647 530.3218 366.8236 530.256C 366.7505 530.2268 366.7469 530.1976 366.7469 530.1245C 366.7469 529.993 366.7816 529.993 366.9058 529.993L366.9058 529.993L367.5031 529.993C 367.6126 529.993 367.6565 529.9893 367.6565 530.0916C 367.6565 530.1282 367.6546 530.1391 367.5743 530.256C 367.5743 530.256 367.4957 530.3765 367.4811 530.3984C 367.6565 530.6469 367.6565 530.9354 367.6565 531.045C 367.6565 531.2131 367.6601 532.0587 366.8565 532.0587C 366.6227 532.0587 366.429 531.9473 366.2756 531.7573C 366.1222 531.5382 366.0857 531.3646 366.0126 530.9409z" stroke="none" fill="#000000" fill-rule="evenodd" /><path id="588" transform="matrix(1 0 0 -1 0 792)" d="M366.0126 533.4264C 365.9761 533.2218 365.9195 532.8675 365.6565 532.8675C 365.3204 532.8675 365.3167 533.3716 365.3167 533.4812C 365.3167 533.8903 365.4775 534.0985 365.777 534.1277C 365.8647 534.1277 365.8866 534.1369 365.8866 534.2538C 365.8866 534.3853 365.8647 534.3853 365.7332 534.3853L365.7332 534.3853L365.2948 534.3853C 365.1926 534.3853 365.1414 534.3817 365.1414 534.2867C 365.1414 534.2648 365.1432 534.252 365.2455 534.0401C 365.1798 533.894 365.1414 533.7058 365.1414 533.4867C 365.1414 533.3186 365.1432 532.4785 365.8592 532.4785C 366.0784 532.4785 366.2318 532.588 366.3195 532.6976C 366.5168 532.9168 366.5478 533.1232 366.6208 533.5469C 366.6574 533.7442 366.7268 534.1552 367.0482 534.1552C 367.4647 534.1552 367.4592 533.6474 367.4592 533.5305C 367.4592 532.946 367.0647 532.8073 366.8236 532.7415C 366.7505 532.7122 366.7469 532.683 366.7469 532.61C 366.7469 532.4785 366.7816 532.4785 366.9058 532.4785L366.9058 532.4785L367.5031 532.4785C 367.6126 532.4785 367.6565 532.4748 367.6565 532.5771C 367.6565 532.6136 367.6546 532.6246 367.5743 532.7415C 367.5743 532.7415 367.4957 532.862 367.4811 532.8839C 367.6565 533.1323 367.6565 533.4209 367.6565 533.5305C 367.6565 533.6985 367.6601 534.5442 366.8565 534.5442C 366.6227 534.5442 366.429 534.4328 366.2756 534.2428C 366.1222 534.0237 366.0857 533.8501 366.0126 533.4264z" stroke="none" fill="#000000" fill-rule="evenodd" /><path id="589" transform="matrix(1 0 0 -1 0 792)" d="M366.429 537.7256C 365.6985 537.7256 365.1414 537.2196 365.1414 536.3283C 365.1414 535.4297 365.7058 534.931 366.429 534.931C 367.1085 534.931 367.6565 535.4077 367.6565 536.3283C 367.6565 537.2488 367.1085 537.7256 366.429 537.7256zM367.4373 536.3283C 367.4373 535.627 366.851 535.6324 366.3688 535.6324C 366.1277 535.6324 365.8464 535.6306 365.6565 535.7256C 365.4592 535.8278 365.3387 536.058 365.3387 536.3283C 365.3387 536.5548 365.4282 536.7849 365.6181 536.9091C 365.808 537.0187 366.1058 537.0242 366.3688 537.0242C 366.851 537.0242 367.4373 537.0223 367.4373 536.3283z" stroke="none" fill="#000000" fill-rule="evenodd" /><path id="590" transform="matrix(1 0 0 -1 0 792)" d="M365.6729 538.531L367.3661 538.531L367.3661 538.531L367.3661 538.153L367.3661 538.153L367.6236 538.153C 367.6236 538.3064 367.6071 538.6315 367.6071 538.8434C 367.6071 539.0552 367.6236 539.3804 367.6236 539.5338L367.6236 539.5338L367.3661 539.5338L367.3661 539.5338L367.3661 539.1557L367.3661 539.1557L366.2209 539.1557C 365.6291 539.1557 365.3551 539.6215 365.3551 539.9721C 365.3551 540.1548 365.4702 540.2735 365.8866 540.2735L365.8866 540.2735L367.3661 540.2735L367.3661 540.2735L367.3661 539.8954L367.3661 539.8954L367.6236 539.8954C 367.6236 540.0488 367.6071 540.374 367.6071 540.5858C 367.6071 540.7977 367.6236 541.1228 367.6236 541.2762L367.6236 541.2762L367.3661 541.2762L367.3661 541.2762L367.3661 540.8981L367.3661 540.8981L365.9469 540.8981C 365.377 540.8981 365.1579 540.6022 365.1579 540.0543C 365.1579 539.5283 365.472 539.2343 365.7496 539.0954L365.7496 539.0954L365.1579 539.0954L365.1579 539.0954L365.2017 538.153L365.2017 538.153L365.4592 538.153C 365.4592 538.489 365.4611 538.531 365.6729 538.531z" stroke="none" fill="#000000" fill-rule="evenodd" /><path id="612" transform="matrix(1 0 0 -1 0 792)" d="M391.4238 585.4077L458.7256 585.4077" stroke="#000000" stroke-width="0.2189" fill="none" /><path id="622" transform="matrix(1 0 0 -1 0 792)" d="M372.4702 578.1746L458.7256 578.1746" stroke="#000000" stroke-width="0.2189" fill="none" /><path id="643" transform="matrix(1 0 0 -1 0 792)" d="M391.4238 556.476L458.7256 556.476" stroke="#000000" stroke-width="0.2189" fill="none" /><path id="653" transform="matrix(1 0 0 -1 0 792)" d="M372.4702 549.243L458.7256 549.243" stroke="#000000" stroke-width="0.2189" fill="none" /><path id="675" transform="matrix(1 0 0 -1 0 792)" d="M391.4238 527.5444L458.7256 527.5444" stroke="#000000" stroke-width="0.2189" fill="none" /><path id="685" transform="matrix(1 0 0 -1 0 792)" d="M372.4702 520.3113L458.7256 520.3113" stroke="#000000" stroke-width="0.2189" fill="none" /><path id="706" transform="matrix(1 0 0 -1 0 792)" d="M391.4238 498.6127L458.7256 498.6127" stroke="#000000" stroke-width="0.2189" fill="none" /><path id="716" transform="matrix(1 0 0 -1 0 792)" d="M372.4702 491.3802L458.7256 491.3802" stroke="#000000" stroke-width="0.2189" fill="none" /><path id="738" transform="matrix(1 0 0 -1 0 792)" d="M391.4238 469.6811L458.7256 469.6811" stroke="#000000" stroke-width="0.2189" fill="none" /><path id="748" transform="matrix(1 0 0 -1 0 792)" d="M372.4702 462.4486L458.7256 462.4486" stroke="#000000" stroke-width="0.2189" fill="none" /><path id="749" transform="matrix(1 0 0 -1 0 792)" d="M372.4702 462.4486L458.7256 462.4486" stroke="#000000" stroke-width="0.2189" fill="none" /><path id="772" transform="matrix(1 0 0 -1 0 792)" d="M391.4238 440.7495L458.7256 440.7495" stroke="#000000" stroke-width="0.2189" fill="none" /><path id="784" transform="matrix(1 0 0 -1 0 792)" d="M360.5764 433.5169L458.7261 433.5169" stroke="#000000" stroke-width="0.2189" fill="none" /></g></g></svg>