<svg xmlns="http://www.w3.org/2000/svg" xmlns:xlink="http://www.w3.org/1999/xlink" id="body_1" preserveAspectRatio="xMinYMin meet" viewBox="0 0 816 1056"><defs><clipPath id="1"><path id="" clip-rule="evenodd" transform="matrix(1 0 0 1 0 0)" d="M0 792L0 0L0 0L612 0L612 0L612 792L612 792L0 792z" /></clipPath><clipPath id="2"><path id="" clip-rule="evenodd" transform="matrix(1 0 0 1 0 0)" d="M182.854 591.174L206.854 591.174L206.854 591.174L206.854 581.174L206.854 581.174L182.854 581.174z" /></clipPath><clipPath id="3"><path id="" clip-rule="evenodd" transform="matrix(1 0 0 1 0 0)" d="M182.854 591.174L206.854 591.174L206.854 591.174L206.854 581.174L206.854 581.174L182.854 581.174z" /></clipPath><clipPath id="4"><path id="" clip-rule="evenodd" transform="matrix(1 0 0 1 0 0)" d="M481.22 577.43L609.22 577.43L609.22 577.43L609.22 561.446L609.22 561.446L481.22 561.446z" /></clipPath><clipPath id="5"><path id="" clip-rule="evenodd" transform="matrix(1 0 0 1 0 0)" d="M481.22 577.43L609.22 577.43L609.22 577.43L609.22 561.446L609.22 561.446L481.22 561.446z" /></clipPath></defs><g transform="matrix(1.333333 0 0 1.333333 0 0)"><g clip-path="url(#1)"><path id="309" transform="matrix(1 0 0 -1 0 792)" d="M133.768 529.957L477.479 529.957" stroke="#000000" stroke-width="0.398" fill="none" /><path id="1526" transform="matrix(1 0 0 -1 0 792)" d="M133.768 270.751L477.479 270.751" stroke="#000000" stroke-width="0.398" fill="none" /><path id="1675" transform="matrix(1 0 0 -1 0 792)" d="M133.768 189.766L271.25 189.766" stroke="#000000" stroke-width="0.398" fill="none" /><g clip-path="url(#2)"><g clip-path="url(#3)"></g></g><g clip-path="url(#4)"><g clip-path="url(#5)"></g></g></g></g></svg>