<svg xmlns="http://www.w3.org/2000/svg" xmlns:xlink="http://www.w3.org/1999/xlink" id="body_11" preserveAspectRatio="xMinYMin meet" viewBox="0 0 816 1056"><defs><clipPath id="1"><path id="" clip-rule="evenodd" transform="matrix(1 0 0 1 0 0)" d="M0 792L0 0L0 0L612 0L612 0L612 792L612 792L0 792z" /></clipPath></defs><g transform="matrix(1.333333 0 0 1.333333 0 0)"><g clip-path="url(#1)"><path id="562" transform="matrix(1 0 0 -1 0 792)" d="M227.751 528.075L431.459 528.075" stroke="#000000" stroke-width="0.398" fill="none" /><path id="563" transform="matrix(1 0 0 -1 0 792)" d="M233.9521 488.3313C 233.6997 488.2117 233.6931 488.0922 233.6931 487.9328C 233.6931 487.6538 233.7794 487.6107 233.9521 487.5443L233.9521 487.5443L239.9496 485.0735C 240.109 485.0071 240.1787 484.9838 240.1787 484.2267L240.1787 484.2267L240.1787 484.0175L240.1787 484.0175L240.647 484.0175C 240.647 484.3894 240.6171 484.8643 240.6171 485.1831C 240.6171 485.5683 240.6204 486.1262 240.647 486.4982L240.647 486.4982L240.1787 486.4982C 240.1787 486.4716 240.182 485.6115 240.0492 485.6115C 240.0492 485.6115 239.943 485.6381 239.9297 485.6513L239.9297 485.6513L238.7242 486.1495L238.7242 486.1495L238.7242 488.8195L238.7242 488.8195L240.1787 489.4172L240.1787 489.4172L240.1787 488.4708L240.1787 488.4708L240.647 488.4708C 240.6204 488.8427 240.6171 489.7858 240.6171 490.2242C 240.6171 490.6227 240.6204 491.4894 240.647 491.8481L240.647 491.8481L240.1787 491.8481L240.1787 491.8481L240.1787 490.8817zM235.4864 487.4845L238.256 488.6202L238.256 488.6202L238.256 486.3487z" stroke="none" fill="#000000" fill-rule="evenodd" /><path id="564" transform="matrix(1 0 0 -1 0 792)" d="M233.7329 494.5021L233.8126 492.7387L233.8126 492.7387L234.2809 492.7387C 234.2809 493.3498 234.2842 493.4261 234.6694 493.4261L234.6694 493.4261L240.1787 493.4261L240.1787 493.4261L240.1787 492.7387L240.1787 492.7387L240.647 492.7387C 240.647 493.0576 240.6171 493.5258 240.6171 493.9641C 240.6171 494.3892 240.647 494.8442 240.647 495.1895L240.647 495.1895L240.1787 495.1895L240.1787 495.1895L240.1787 494.5021z" stroke="none" fill="#000000" fill-rule="evenodd" /><path id="565" transform="matrix(1 0 0 -1 0 792)" d="M233.7329 497.6842L233.8126 495.9208L233.8126 495.9208L234.2809 495.9208C 234.2809 496.5318 234.2842 496.6082 234.6694 496.6082L234.6694 496.6082L240.1787 496.6082L240.1787 496.6082L240.1787 495.9208L240.1787 495.9208L240.647 495.9208C 240.647 496.2396 240.6171 496.7078 240.6171 497.1462C 240.6171 497.5713 240.647 498.0262 240.647 498.3716L240.647 498.3716L240.1787 498.3716L240.1787 498.3716L240.1787 497.6842z" stroke="none" fill="#000000" fill-rule="evenodd" /><path id="566" transform="matrix(1 0 0 -1 0 792)" d="M253.0719 491.1009L253.0719 492.1768L253.0719 492.1768L252.6036 492.1768C 252.6435 491.7916 252.6335 490.8186 252.6335 490.3936C 252.6335 489.9552 252.6435 488.9822 252.6036 488.6102L252.6036 488.6102L253.0719 488.6102L253.0719 488.6102L253.0719 489.6862L253.0719 489.6862L255.6522 489.6862L255.6522 489.6862L255.6522 486.4882L255.6522 486.4882L253.0719 486.4882L253.0719 486.4882L253.0719 487.5641L253.0719 487.5641L252.6036 487.5641C 252.6435 487.179 252.6335 486.2059 252.6335 485.7809C 252.6335 485.3425 252.6435 484.3695 252.6036 483.9976L252.6036 483.9976L253.0719 483.9976L253.0719 483.9976L253.0719 485.0735L253.0719 485.0735L258.9698 485.0735L258.9698 485.0735L258.9698 483.9976L258.9698 483.9976L259.438 483.9976C 259.4114 484.3695 259.4081 485.3425 259.4081 485.7809C 259.4081 486.2059 259.4114 487.179 259.438 487.5641L259.438 487.5641L258.9698 487.5641L258.9698 487.5641L258.9698 486.4882L258.9698 486.4882L256.1205 486.4882L256.1205 486.4882L256.1205 489.6862L256.1205 489.6862L258.9698 489.6862L258.9698 489.6862L258.9698 488.6102L258.9698 488.6102L259.438 488.6102C 259.4114 488.9822 259.4081 489.9552 259.4081 490.3936C 259.4081 490.8186 259.4114 491.7916 259.438 492.1768L259.438 492.1768L258.9698 492.1768L258.9698 492.1768L258.9698 491.1009z" stroke="none" fill="#000000" fill-rule="evenodd" /><path id="567" transform="matrix(1 0 0 -1 0 792)" d="M258.7207 496.939L259.4978 496.939L259.4978 496.939L259.438 498.7024L259.438 498.7024L258.9698 498.7024C 258.9698 498.078 258.9797 498.0149 258.5812 498.0149L258.5812 498.0149L254.9548 498.0149L254.9548 498.0149L255.0345 496.1918L255.0345 496.1918L255.5027 496.1918C 255.5027 496.8028 255.5061 496.8792 255.8913 496.8792L255.8913 496.8792L257.7942 496.8792C 258.6177 496.8792 259.1391 496.3611 259.1391 495.6438C 259.1391 494.8734 258.8967 494.8468 258.3521 494.8468L258.3521 494.8468L254.9548 494.8468L254.9548 494.8468L255.0345 493.0237L255.0345 493.0237L255.5027 493.0237C 255.5027 493.6347 255.5061 493.7111 255.8913 493.7111L255.8913 493.7111L258.2126 493.7111C 259.2885 493.7111 259.4978 494.5081 259.4978 495.5044C 259.4978 495.7567 259.5044 496.4741 258.7207 496.939z" stroke="none" fill="#000000" fill-rule="evenodd" /><path id="568" transform="matrix(1 0 0 -1 0 792)" d="M255.8913 500.0762L258.9698 500.0762L258.9698 500.0762L258.9698 499.3888L258.9698 499.3888L259.438 499.3888C 259.438 499.6677 259.4081 500.2589 259.4081 500.644C 259.4081 501.0293 259.438 501.6204 259.438 501.8994L259.438 501.8994L258.9698 501.8994L258.9698 501.8994L258.9698 501.2119L258.9698 501.2119L256.8876 501.2119C 255.8116 501.2119 255.3135 502.072 255.3135 502.6964C 255.3135 503.0284 255.5227 503.2543 256.2798 503.2543L256.2798 503.2543L258.9698 503.2543L258.9698 503.2543L258.9698 502.5668L258.9698 502.5668L259.438 502.5668C 259.438 502.8458 259.4081 503.4369 259.4081 503.8221C 259.4081 504.2073 259.438 504.7985 259.438 505.0774L259.438 505.0774L258.9698 505.0774L258.9698 505.0774L258.9698 504.39L258.9698 504.39L256.8876 504.39C 255.8116 504.39 255.3135 505.2501 255.3135 505.8744C 255.3135 506.2065 255.5227 506.4323 256.2798 506.4323L256.2798 506.4323L258.9698 506.4323L258.9698 506.4323L258.9698 505.7449L258.9698 505.7449L259.438 505.7449C 259.438 506.0239 259.4081 506.615 259.4081 507.0002C 259.4081 507.3854 259.438 507.9765 259.438 508.2555L259.438 508.2555L258.9698 508.2555L258.9698 508.2555L258.9698 507.5681L258.9698 507.5681L256.3894 507.5681C 255.3666 507.5681 254.9548 507.0566 254.9548 506.0338C 254.9548 505.1173 255.4596 504.6025 255.9112 504.3502C 254.9947 504.1509 254.9548 503.2277 254.9548 502.8557C 254.9548 501.979 255.4065 501.4211 256.0308 501.1023L256.0308 501.1023L254.9548 501.1023L254.9548 501.1023L255.0345 499.3888L255.0345 499.3888L255.5027 499.3888C 255.5027 499.9998 255.5061 500.0762 255.8913 500.0762z" stroke="none" fill="#000000" fill-rule="evenodd" /><path id="569" transform="matrix(1 0 0 -1 0 792)" d="M258.6609 510.8488C 258.2358 510.8488 257.8838 510.4967 257.8838 510.0717C 257.8838 509.6333 258.2358 509.2946 258.6609 509.2946C 259.0993 509.2946 259.438 509.6333 259.438 510.0717C 259.438 510.4967 259.0993 510.8488 258.6609 510.8488z" stroke="none" fill="#000000" fill-rule="evenodd" /><path id="570" transform="matrix(1 0 0 -1 0 792)" d="M274.1865 487.614L273.8776 486.1694C 273.7979 485.7709 273.4525 485.213 272.8415 485.213C 272.4164 485.213 271.7954 485.4919 271.7954 486.4882C 271.7954 487.2852 272.1342 488.2815 273.4891 488.5206C 273.7282 488.5604 273.7481 488.5571 273.7481 488.7696C 273.7481 489.0087 273.7083 489.0087 273.4691 489.0087L273.4691 489.0087L271.646 489.0087C 271.46 489.0087 271.367 489.0021 271.367 488.8294C 271.367 488.7497 271.3836 488.7364 271.4766 488.6302L271.4766 488.6302L271.915 488.1819C 271.4633 487.5974 271.367 486.9565 271.367 486.4782C 271.367 484.9639 272.3334 484.2466 273.3695 484.2466C 274.0204 484.2466 274.482 484.5721 274.6945 484.7846C 275.186 485.2628 275.2524 485.6082 275.4915 486.6974C 275.6908 487.5741 275.7207 487.7368 275.92 487.9627C 276.0793 488.1088 276.3351 488.3612 276.7867 488.3612C 277.2649 488.3612 277.9523 488.1021 277.9523 487.066C 277.9523 486.3089 277.7564 484.7946 276.2686 484.7148C 276.0959 484.7016 276.0395 484.6982 276.0395 484.4857C 276.0395 484.2466 276.1026 484.2466 276.3284 484.2466L276.3284 484.2466L278.1416 484.2466C 278.3409 484.2466 278.4206 484.24 278.4206 484.4259C 278.4206 484.5056 278.3973 484.5355 278.3309 484.6152L278.3309 484.6152L277.8726 485.0735C 278.3641 485.7244 278.4206 486.6542 278.4206 487.066C 278.4206 488.6999 277.2981 489.3275 276.2886 489.3275C 275.186 489.3275 274.3857 488.5172 274.1865 487.614z" stroke="none" fill="#000000" fill-rule="evenodd" /><path id="571" transform="matrix(1 0 0 -1 0 792)" d="M274.2562 493.5606C 274.4156 493.3747 274.6348 493.3614 274.7145 493.3614C 275.1528 493.3614 275.3421 493.7001 275.3421 493.9791C 275.3421 494.2846 275.1396 494.6067 274.7145 494.6067C 273.8643 494.6067 273.7979 493.4444 273.7979 492.8732C 273.7979 491.08 274.9436 490.3527 276.0993 490.3527C 277.4276 490.3527 278.3708 491.2825 278.3708 492.8234C 278.3708 494.4307 277.225 494.7362 277.1454 494.7362C 277.0125 494.7362 277.0059 494.5901 277.0059 494.4971C 277.0059 494.3112 277.0358 494.2979 277.1553 494.258C 277.7929 493.9924 277.9723 493.5175 277.9723 493.0127C 277.9723 491.618 276.5144 491.6279 276.0495 491.6279C 275.4915 491.6279 274.1964 491.6246 274.1964 492.9131C 274.1964 493.2585 274.2296 493.4278 274.2562 493.5606z" stroke="none" fill="#000000" fill-rule="evenodd" /><path id="572" transform="matrix(1 0 0 -1 0 792)" d="M273.8278 497.2976L273.9075 495.5641L273.9075 495.5641L274.3757 495.5641C 274.3757 496.1486 274.3791 496.2216 274.7643 496.2216L274.7643 496.2216L277.8427 496.2216L277.8427 496.2216L277.8427 495.5342L277.8427 495.5342L278.311 495.5342C 278.311 495.8398 278.2811 496.3246 278.2811 496.7497C 278.2811 497.0419 278.311 497.5566 278.311 497.9153L278.311 497.9153L277.8427 497.9153L277.8427 497.9153L277.8427 497.2976zM272.1641 497.3972C 271.7257 497.3972 271.387 497.032 271.387 496.6202C 271.387 496.1818 271.739 495.8431 272.1641 495.8431C 272.6024 495.8431 272.9411 496.1818 272.9411 496.6202C 272.9411 497.032 272.6024 497.3972 272.1641 497.3972z" stroke="none" fill="#000000" fill-rule="evenodd" /><path id="573" transform="matrix(1 0 0 -1 0 792)" d="M277.5339 500.6092C 277.1088 500.6092 276.7568 500.2572 276.7568 499.8321C 276.7568 499.3937 277.1088 499.055 277.5339 499.055C 277.9723 499.055 278.311 499.3937 278.311 499.8321C 278.311 500.2572 277.9723 500.6092 277.5339 500.6092z" stroke="none" fill="#000000" fill-rule="evenodd" /><path id="574" transform="matrix(1 0 0 -1 0 792)" d="M290.3274 490.0249L290.3274 483.9976L290.3274 483.9976L290.7956 483.9976L290.7956 483.9976L290.7956 485.0735L290.7956 485.0735L296.6337 485.0735L296.6337 485.0735L296.6337 483.9976L296.6337 483.9976L297.1019 483.9976C 297.0753 484.3695 297.0721 485.3824 297.0721 485.8207C 297.0721 486.2989 297.0753 487.3948 297.1019 487.8332L297.1019 487.8332L296.6337 487.8332L296.6337 487.8332L296.6337 486.4882L296.6337 486.4882L293.9438 486.4882L293.9438 486.4882L293.9438 486.9863C 293.9438 487.9427 294.3788 488.0324 295.1094 488.0324L295.1094 488.0324L295.1094 488.5006L295.1094 488.5006L292.3099 488.5006L292.3099 488.5006L292.3099 488.0324C 293.0538 488.0324 293.4756 487.9427 293.4756 486.9863L293.4756 486.9863L293.4756 486.4882L293.4756 486.4882L290.7956 486.4882L290.7956 486.4882L290.7956 487.883C 290.7956 489.477 291.5727 489.7061 292.7283 489.8655L292.7283 489.8655L292.7283 490.3338z" stroke="none" fill="#000000" fill-rule="evenodd" /><path id="575" transform="matrix(1 0 0 -1 0 792)" d="M314.5779 489.0486L309.3077 486.6576C 309.0686 486.538 309.0586 486.4317 309.0586 486.2192L309.0586 486.2192L309.0586 484.0075L309.0586 484.0075L309.5269 484.0075L309.5269 484.0075L309.5269 485.0835L309.5269 485.0835L315.1358 485.0835C 315.3616 485.0835 315.3683 485.0735 315.3948 484.7946C 315.4347 484.5555 315.4247 484.5355 315.4247 484.2566L315.4247 484.2566L315.4247 484.0075L315.4247 484.0075L315.8929 484.0075C 315.8664 484.3795 315.8631 484.944 315.8631 485.3425C 315.8631 485.7543 315.8664 486.2757 315.8929 486.6874L315.8929 486.6874L315.4247 486.6874L315.4247 486.6874L315.4247 486.4384C 315.4247 486.2524 315.4214 486.0831 315.3948 485.9104C 315.3683 485.6181 315.3616 485.6115 315.1358 485.6115L315.1358 485.6115L309.6564 485.6115L309.6564 485.6115L309.6564 485.6215L309.6564 485.6215L315.6439 488.3313C 315.8431 488.411 315.8929 488.5305 315.8929 488.6501C 315.8929 488.8493 315.7468 488.929 315.6538 488.9689L315.6538 488.9689L309.5269 491.7484L309.5269 491.7484L309.5269 491.7584L309.5269 491.7584L315.4247 491.7584L315.4247 491.7584L315.4247 490.6825L315.4247 490.6825L315.8929 490.6825C 315.8664 491.0411 315.8631 491.9643 315.8631 492.3761C 315.8631 492.7746 315.8664 493.721 315.8929 494.0797L315.8929 494.0797L315.4247 494.0797L315.4247 494.0797L315.4247 493.0038L315.4247 493.0038L309.5269 493.0038L309.5269 493.0038L309.5269 494.0797L309.5269 494.0797L309.0586 494.0797L309.0586 494.0797L309.0586 491.878C 309.0586 491.6522 309.0686 491.5459 309.3077 491.4396z" stroke="none" fill="#000000" fill-rule="evenodd" /><path id="576" transform="matrix(1 0 0 -1 0 792)" d="M331.1954 487.614L330.8865 486.1694C 330.8068 485.7709 330.4615 485.213 329.8504 485.213C 329.4254 485.213 328.8044 485.4919 328.8044 486.4882C 328.8044 487.2852 329.1431 488.2815 330.498 488.5206C 330.7371 488.5604 330.757 488.5571 330.757 488.7696C 330.757 489.0087 330.7172 489.0087 330.4781 489.0087L330.4781 489.0087L328.6549 489.0087C 328.4689 489.0087 328.3759 489.0021 328.3759 488.8294C 328.3759 488.7497 328.3925 488.7364 328.4855 488.6302L328.4855 488.6302L328.9239 488.1819C 328.4723 487.5974 328.3759 486.9565 328.3759 486.4782C 328.3759 484.9639 329.3423 484.2466 330.3784 484.2466C 331.0293 484.2466 331.4909 484.5721 331.7035 484.7846C 332.1949 485.2628 332.2614 485.6082 332.5005 486.6974C 332.6997 487.5741 332.7296 487.7368 332.9289 487.9627C 333.0883 488.1088 333.344 488.3612 333.7956 488.3612C 334.2738 488.3612 334.9612 488.1021 334.9612 487.066C 334.9612 486.3089 334.7653 484.7946 333.2776 484.7148C 333.1049 484.7016 333.0484 484.6982 333.0484 484.4857C 333.0484 484.2466 333.1115 484.2466 333.3373 484.2466L333.3373 484.2466L335.1505 484.2466C 335.3498 484.2466 335.4295 484.24 335.4295 484.4259C 335.4295 484.5056 335.4062 484.5355 335.3398 484.6152L335.3398 484.6152L334.8815 485.0735C 335.373 485.7244 335.4295 486.6542 335.4295 487.066C 335.4295 488.6999 334.307 489.3275 333.2975 489.3275C 332.1949 489.3275 331.3946 488.5172 331.1954 487.614z" stroke="none" fill="#000000" fill-rule="evenodd" /><path id="577" transform="matrix(1 0 0 -1 0 792)" d="M331.2651 493.5606C 331.4245 493.3747 331.6437 493.3614 331.7234 493.3614C 332.1617 493.3614 332.351 493.7001 332.351 493.9791C 332.351 494.2846 332.1485 494.6067 331.7234 494.6067C 330.8732 494.6067 330.8068 493.4444 330.8068 492.8732C 330.8068 491.08 331.9525 490.3527 333.1082 490.3527C 334.4365 490.3527 335.3797 491.2825 335.3797 492.8234C 335.3797 494.4307 334.2339 494.7362 334.1543 494.7362C 334.0214 494.7362 334.0148 494.5901 334.0148 494.4971C 334.0148 494.3112 334.0447 494.2979 334.1642 494.258C 334.8018 493.9924 334.9812 493.5175 334.9812 493.0127C 334.9812 491.618 333.5233 491.6279 333.0584 491.6279C 332.5005 491.6279 331.2053 491.6246 331.2053 492.9131C 331.2053 493.2585 331.2385 493.4278 331.2651 493.5606z" stroke="none" fill="#000000" fill-rule="evenodd" /><path id="578" transform="matrix(1 0 0 -1 0 792)" d="M330.8367 497.2976L330.9164 495.5641L330.9164 495.5641L331.3846 495.5641C 331.3846 496.1486 331.388 496.2216 331.7732 496.2216L331.7732 496.2216L334.8517 496.2216L334.8517 496.2216L334.8517 495.5342L334.8517 495.5342L335.3199 495.5342C 335.3199 495.8398 335.29 496.3246 335.29 496.7497C 335.29 497.0419 335.3199 497.5566 335.3199 497.9153L335.3199 497.9153L334.8517 497.9153L334.8517 497.9153L334.8517 497.2976zM329.173 497.3972C 328.7346 497.3972 328.3959 497.032 328.3959 496.6202C 328.3959 496.1818 328.7479 495.8431 329.173 495.8431C 329.6113 495.8431 329.95 496.1818 329.95 496.6202C 329.95 497.032 329.6113 497.3972 329.173 497.3972z" stroke="none" fill="#000000" fill-rule="evenodd" /><path id="579" transform="matrix(1 0 0 -1 0 792)" d="M334.5428 500.6092C 334.1177 500.6092 333.7657 500.2572 333.7657 499.8321C 333.7657 499.3937 334.1177 499.055 334.5428 499.055C 334.9812 499.055 335.3199 499.3937 335.3199 499.8321C 335.3199 500.2572 334.9812 500.6092 334.5428 500.6092z" stroke="none" fill="#000000" fill-rule="evenodd" /><path id="580" transform="matrix(1 0 0 -1 0 792)" d="M337.5216 505.8843C 337.6412 505.9241 337.8105 506.0005 337.8105 506.213C 337.8105 506.3459 337.6877 506.5119 337.5017 506.5119C 337.4619 506.5119 337.4319 506.5053 337.3124 506.4521L337.3124 506.4521L328.1468 502.6963C 328.0007 502.6298 327.8479 502.5667 327.8479 502.3675C 327.8479 502.2214 327.9708 502.0686 328.1568 502.0686C 328.1966 502.0686 328.2265 502.062 328.3461 502.1284z" stroke="none" fill="#000000" fill-rule="evenodd" /><path id="581" transform="matrix(1 0 0 -1 0 792)" d="M328.5453 513.575L328.5453 507.5475L328.5453 507.5475L329.0135 507.5475L329.0135 507.5475L329.0135 508.6235L329.0135 508.6235L334.8517 508.6235L334.8517 508.6235L334.8517 507.5475L334.8517 507.5475L335.3199 507.5475C 335.2933 507.9195 335.29 508.9323 335.29 509.3707C 335.29 509.8489 335.2933 510.9448 335.3199 511.3831L335.3199 511.3831L334.8517 511.3831L334.8517 511.3831L334.8517 510.0382L334.8517 510.0382L332.1617 510.0382L332.1617 510.0382L332.1617 510.5363C 332.1617 511.4927 332.5968 511.5824 333.3274 511.5824L333.3274 511.5824L333.3274 512.0507L333.3274 512.0507L330.5279 512.0507L330.5279 512.0507L330.5279 511.5824C 331.2718 511.5824 331.6935 511.4927 331.6935 510.5363L331.6935 510.5363L331.6935 510.0382L331.6935 510.0382L329.0135 510.0382L329.0135 510.0382L329.0135 511.433C 329.0135 513.027 329.7906 513.2561 330.9463 513.4155L330.9463 513.4155L330.9463 513.8838z" stroke="none" fill="#000000" fill-rule="evenodd" /><path id="582" transform="matrix(1 0 0 -1 0 792)" d="M350.8718 491.1009L350.8718 492.1768L350.8718 492.1768L350.4036 492.1768C 350.4434 491.7916 350.4335 490.8186 350.4335 490.3935C 350.4335 489.9552 350.4434 488.9822 350.4036 488.6102L350.4036 488.6102L350.8718 488.6102L350.8718 488.6102L350.8718 489.6862L350.8718 489.6862L353.4521 489.6862L353.4521 489.6862L353.4521 486.4882L353.4521 486.4882L350.8718 486.4882L350.8718 486.4882L350.8718 487.5641L350.8718 487.5641L350.4036 487.5641C 350.4434 487.179 350.4335 486.2059 350.4335 485.7809C 350.4335 485.3425 350.4434 484.3695 350.4036 483.9976L350.4036 483.9976L350.8718 483.9976L350.8718 483.9976L350.8718 485.0735L350.8718 485.0735L356.7697 485.0735L356.7697 485.0735L356.7697 483.9976L356.7697 483.9976L357.2379 483.9976C 357.2113 484.3695 357.208 485.3425 357.208 485.7809C 357.208 486.2059 357.2113 487.179 357.2379 487.5641L357.2379 487.5641L356.7697 487.5641L356.7697 487.5641L356.7697 486.4882L356.7697 486.4882L353.9204 486.4882L353.9204 486.4882L353.9204 489.6862L353.9204 489.6862L356.7697 489.6862L356.7697 489.6862L356.7697 488.6102L356.7697 488.6102L357.2379 488.6102C 357.2113 488.9822 357.208 489.9552 357.208 490.3935C 357.208 490.8186 357.2113 491.7916 357.2379 492.1768L357.2379 492.1768L356.7697 492.1768L356.7697 492.1768L356.7697 491.1009z" stroke="none" fill="#000000" fill-rule="evenodd" /><path id="583" transform="matrix(1 0 0 -1 0 792)" d="M356.5206 496.939L357.2977 496.939L357.2977 496.939L357.2379 498.7024L357.2379 498.7024L356.7697 498.7024C 356.7697 498.078 356.7796 498.0149 356.3811 498.0149L356.3811 498.0149L352.7547 498.0149L352.7547 498.0149L352.8344 496.1918L352.8344 496.1918L353.3027 496.1918C 353.3027 496.8028 353.306 496.8792 353.6912 496.8792L353.6912 496.8792L355.5941 496.8792C 356.4177 496.8792 356.939 496.3611 356.939 495.6438C 356.939 494.8734 356.6966 494.8468 356.152 494.8468L356.152 494.8468L352.7547 494.8468L352.7547 494.8468L352.8344 493.0237L352.8344 493.0237L353.3027 493.0237C 353.3027 493.6347 353.306 493.7111 353.6912 493.7111L353.6912 493.7111L356.0125 493.7111C 357.0885 493.7111 357.2977 494.5081 357.2977 495.5044C 357.2977 495.7567 357.3043 496.4741 356.5206 496.939z" stroke="none" fill="#000000" fill-rule="evenodd" /><path id="584" transform="matrix(1 0 0 -1 0 792)" d="M353.6912 500.0762L356.7697 500.0762L356.7697 500.0762L356.7697 499.3888L356.7697 499.3888L357.2379 499.3888C 357.2379 499.6677 357.208 500.2589 357.208 500.6441C 357.208 501.0293 357.2379 501.6204 357.2379 501.8994L357.2379 501.8994L356.7697 501.8994L356.7697 501.8994L356.7697 501.2119L356.7697 501.2119L354.6875 501.2119C 353.6115 501.2119 353.1134 502.072 353.1134 502.6964C 353.1134 503.0284 353.3226 503.2543 354.0798 503.2543L354.0798 503.2543L356.7697 503.2543L356.7697 503.2543L356.7697 502.5668L356.7697 502.5668L357.2379 502.5668C 357.2379 502.8458 357.208 503.4369 357.208 503.8221C 357.208 504.2073 357.2379 504.7985 357.2379 505.0774L357.2379 505.0774L356.7697 505.0774L356.7697 505.0774L356.7697 504.39L356.7697 504.39L354.6875 504.39C 353.6115 504.39 353.1134 505.2501 353.1134 505.8744C 353.1134 506.2065 353.3226 506.4323 354.0798 506.4323L354.0798 506.4323L356.7697 506.4323L356.7697 506.4323L356.7697 505.7449L356.7697 505.7449L357.2379 505.7449C 357.2379 506.0239 357.208 506.615 357.208 507.0002C 357.208 507.3854 357.2379 507.9765 357.2379 508.2555L357.2379 508.2555L356.7697 508.2555L356.7697 508.2555L356.7697 507.5681L356.7697 507.5681L354.1894 507.5681C 353.1665 507.5681 352.7547 507.0566 352.7547 506.0338C 352.7547 505.1173 353.2595 504.6025 353.7112 504.3502C 352.7946 504.1509 352.7547 503.2277 352.7547 502.8557C 352.7547 501.979 353.2064 501.4211 353.8307 501.1023L353.8307 501.1023L352.7547 501.1023L352.7547 501.1023L352.8344 499.3888L352.8344 499.3888L353.3027 499.3888C 353.3027 499.9998 353.306 500.0762 353.6912 500.0762z" stroke="none" fill="#000000" fill-rule="evenodd" /><path id="585" transform="matrix(1 0 0 -1 0 792)" d="M356.4608 510.8488C 356.0358 510.8488 355.6837 510.4967 355.6837 510.0717C 355.6837 509.6333 356.0358 509.2946 356.4608 509.2946C 356.8992 509.2946 357.2379 509.6333 357.2379 510.0717C 357.2379 510.4967 356.8992 510.8488 356.4608 510.8488z" stroke="none" fill="#000000" fill-rule="evenodd" /><path id="586" transform="matrix(1 0 0 -1 0 792)" d="M359.4396 516.1233C 359.5592 516.1631 359.7286 516.2395 359.7286 516.452C 359.7286 516.5849 359.6057 516.751 359.4197 516.751C 359.3799 516.751 359.35 516.7443 359.2304 516.6912L359.2304 516.6912L350.0648 512.9353C 349.9187 512.8688 349.766 512.8058 349.766 512.6065C 349.766 512.4604 349.8888 512.3076 350.0748 512.3076C 350.1147 512.3076 350.1445 512.301 350.2641 512.3674z" stroke="none" fill="#000000" fill-rule="evenodd" /><path id="587" transform="matrix(1 0 0 -1 0 792)" d="M350.4633 523.814L350.4633 517.7866L350.4633 517.7866L350.9316 517.7866L350.9316 517.7866L350.9316 518.8625L350.9316 518.8625L356.7697 518.8625L356.7697 518.8625L356.7697 517.7866L356.7697 517.7866L357.2379 517.7866C 357.2113 518.1584 357.208 519.1714 357.208 519.6097C 357.208 520.0879 357.2113 521.1838 357.2379 521.6222L357.2379 521.6222L356.7697 521.6222L356.7697 521.6222L356.7697 520.2772L356.7697 520.2772L354.0798 520.2772L354.0798 520.2772L354.0798 520.7753C 354.0798 521.7318 354.5148 521.8214 355.2454 521.8214L355.2454 521.8214L355.2454 522.2897L355.2454 522.2897L352.4459 522.2897L352.4459 522.2897L352.4459 521.8214C 353.1898 521.8214 353.6115 521.7318 353.6115 520.7753L353.6115 520.7753L353.6115 520.2772L353.6115 520.2772L350.9316 520.2772L350.9316 520.2772L350.9316 521.672C 350.9316 523.266 351.7087 523.4951 352.8643 523.6545L352.8643 523.6545L352.8643 524.1228z" stroke="none" fill="#000000" fill-rule="evenodd" /><path id="588" transform="matrix(1 0 0 -1 0 792)" d="M375.0304 487.614L374.7216 486.1694C 374.6418 485.7709 374.2965 485.213 373.6854 485.213C 373.2604 485.213 372.6394 485.4919 372.6394 486.4882C 372.6394 487.2852 372.9781 488.2815 374.333 488.5206C 374.5721 488.5604 374.592 488.5571 374.592 488.7696C 374.592 489.0087 374.5522 489.0087 374.3131 489.0087L374.3131 489.0087L372.4899 489.0087C 372.304 489.0087 372.211 489.0021 372.211 488.8294C 372.211 488.7497 372.2276 488.7364 372.3206 488.6302L372.3206 488.6302L372.7589 488.1819C 372.3073 487.5974 372.211 486.9565 372.211 486.4782C 372.211 484.9639 373.1773 484.2466 374.2135 484.2466C 374.8643 484.2466 375.326 484.5721 375.5385 484.7846C 376.03 485.2628 376.0964 485.6082 376.3355 486.6974C 376.5347 487.5741 376.5646 487.7368 376.7639 487.9627C 376.9233 488.1088 377.179 488.3612 377.6306 488.3612C 378.1088 488.3612 378.7963 488.1021 378.7963 487.066C 378.7963 486.3089 378.6003 484.7946 377.1126 484.7148C 376.9399 484.7016 376.8834 484.6982 376.8834 484.4857C 376.8834 484.2466 376.9465 484.2466 377.1724 484.2466L377.1724 484.2466L378.9855 484.2466C 379.1848 484.2466 379.2645 484.24 379.2645 484.4259C 379.2645 484.5056 379.2412 484.5355 379.1748 484.6152L379.1748 484.6152L378.7166 485.0735C 379.208 485.7244 379.2645 486.6542 379.2645 487.066C 379.2645 488.6999 378.142 489.3275 377.1325 489.3275C 376.03 489.3275 375.2296 488.5172 375.0304 487.614z" stroke="none" fill="#000000" fill-rule="evenodd" /><path id="589" transform="matrix(1 0 0 -1 0 792)" d="M375.1001 493.5606C 375.2595 493.3747 375.4787 493.3614 375.5584 493.3614C 375.9968 493.3614 376.1861 493.7001 376.1861 493.9791C 376.1861 494.2846 375.9835 494.6067 375.5584 494.6067C 374.7083 494.6067 374.6418 493.4444 374.6418 492.8732C 374.6418 491.08 375.7875 490.3527 376.9432 490.3527C 378.2715 490.3527 379.2147 491.2825 379.2147 492.8234C 379.2147 494.4307 378.069 494.7362 377.9893 494.7362C 377.8564 494.7362 377.8498 494.5901 377.8498 494.4971C 377.8498 494.3112 377.8797 494.2979 377.9992 494.258C 378.6368 493.9924 378.8162 493.5175 378.8162 493.0127C 378.8162 491.618 377.3583 491.6279 376.8934 491.6279C 376.3355 491.6279 375.0403 491.6246 375.0403 492.9131C 375.0403 493.2585 375.0735 493.4278 375.1001 493.5606z" stroke="none" fill="#000000" fill-rule="evenodd" /><path id="590" transform="matrix(1 0 0 -1 0 792)" d="M374.6717 497.2976L374.7514 495.5641L374.7514 495.5641L375.2197 495.5641C 375.2197 496.1486 375.223 496.2216 375.6082 496.2216L375.6082 496.2216L378.6867 496.2216L378.6867 496.2216L378.6867 495.5342L378.6867 495.5342L379.1549 495.5342C 379.1549 495.8398 379.125 496.3246 379.125 496.7497C 379.125 497.0419 379.1549 497.5566 379.1549 497.9153L379.1549 497.9153L378.6867 497.9153L378.6867 497.9153L378.6867 497.2976zM373.008 497.3972C 372.5696 497.3972 372.2309 497.032 372.2309 496.6202C 372.2309 496.1818 372.5829 495.8431 373.008 495.8431C 373.4464 495.8431 373.7851 496.1818 373.7851 496.6202C 373.7851 497.032 373.4464 497.3972 373.008 497.3972z" stroke="none" fill="#000000" fill-rule="evenodd" /><path id="591" transform="matrix(1 0 0 -1 0 792)" d="M378.3778 500.6092C 377.9528 500.6092 377.6007 500.2572 377.6007 499.8321C 377.6007 499.3937 377.9528 499.055 378.3778 499.055C 378.8162 499.055 379.1549 499.3937 379.1549 499.8321C 379.1549 500.2572 378.8162 500.6092 378.3778 500.6092z" stroke="none" fill="#000000" fill-rule="evenodd" /><path id="592" transform="matrix(1 0 0 -1 0 792)" d="M381.3566 505.8843C 381.4762 505.9241 381.6456 506.0005 381.6456 506.213C 381.6456 506.3459 381.5227 506.5119 381.3367 506.5119C 381.2969 506.5119 381.267 506.5053 381.1474 506.4521L381.1474 506.4521L371.9818 502.6963C 371.8357 502.6298 371.683 502.5667 371.683 502.3675C 371.683 502.2214 371.8058 502.0686 371.9918 502.0686C 372.0316 502.0686 372.0615 502.062 372.1811 502.1284z" stroke="none" fill="#000000" fill-rule="evenodd" /><path id="593" transform="matrix(1 0 0 -1 0 792)" d="M377.8398 512.5996L372.5696 510.2086C 372.3305 510.089 372.3206 509.9827 372.3206 509.7702L372.3206 509.7702L372.3206 507.5585L372.3206 507.5585L372.7888 507.5585L372.7888 507.5585L372.7888 508.6345L372.7888 508.6345L378.3977 508.6345C 378.6236 508.6345 378.6302 508.6245 378.6568 508.3456C 378.6966 508.1064 378.6867 508.0865 378.6867 507.8076L378.6867 507.8076L378.6867 507.5585L378.6867 507.5585L379.1549 507.5585C 379.1283 507.9305 379.125 508.495 379.125 508.8935C 379.125 509.3053 379.1283 509.8267 379.1549 510.2384L379.1549 510.2384L378.6867 510.2384L378.6867 510.2384L378.6867 509.9894C 378.6867 509.8034 378.6833 509.6341 378.6568 509.4614C 378.6302 509.1691 378.6236 509.1625 378.3977 509.1625L378.3977 509.1625L372.9183 509.1625L372.9183 509.1625L372.9183 509.1725L372.9183 509.1725L378.9059 511.8823C 379.1051 511.962 379.1549 512.0815 379.1549 512.201C 379.1549 512.4003 379.0088 512.48 378.9158 512.5199L378.9158 512.5199L372.7888 515.2994L372.7888 515.2994L372.7888 515.3094L372.7888 515.3094L378.6867 515.3094L378.6867 515.3094L378.6867 514.2335L378.6867 514.2335L379.1549 514.2335C 379.1283 514.5921 379.125 515.5153 379.125 515.9271C 379.125 516.3256 379.1283 517.272 379.1549 517.6307L379.1549 517.6307L378.6867 517.6307L378.6867 517.6307L378.6867 516.5547L378.6867 516.5547L372.7888 516.5547L372.7888 516.5547L372.7888 517.6307L372.7888 517.6307L372.3206 517.6307L372.3206 517.6307L372.3206 515.429C 372.3206 515.2031 372.3305 515.0969 372.5696 514.9906z" stroke="none" fill="#000000" fill-rule="evenodd" /><path id="594" transform="matrix(1 0 0 -1 0 792)" d="M394.7068 491.1009L394.7068 492.1768L394.7068 492.1768L394.2385 492.1768C 394.2784 491.7916 394.2684 490.8186 394.2684 490.3936C 394.2684 489.9552 394.2784 488.9822 394.2385 488.6102L394.2385 488.6102L394.7068 488.6102L394.7068 488.6102L394.7068 489.6862L394.7068 489.6862L397.2871 489.6862L397.2871 489.6862L397.2871 486.4882L397.2871 486.4882L394.7068 486.4882L394.7068 486.4882L394.7068 487.5641L394.7068 487.5641L394.2385 487.5641C 394.2784 487.179 394.2684 486.2059 394.2684 485.7809C 394.2684 485.3425 394.2784 484.3695 394.2385 483.9976L394.2385 483.9976L394.7068 483.9976L394.7068 483.9976L394.7068 485.0735L394.7068 485.0735L400.6046 485.0735L400.6046 485.0735L400.6046 483.9976L400.6046 483.9976L401.0729 483.9976C 401.0463 484.3695 401.043 485.3425 401.043 485.7809C 401.043 486.2059 401.0463 487.179 401.0729 487.5641L401.0729 487.5641L400.6046 487.5641L400.6046 487.5641L400.6046 486.4882L400.6046 486.4882L397.7553 486.4882L397.7553 486.4882L397.7553 489.6862L397.7553 489.6862L400.6046 489.6862L400.6046 489.6862L400.6046 488.6102L400.6046 488.6102L401.0729 488.6102C 401.0463 488.9822 401.043 489.9552 401.043 490.3936C 401.043 490.8186 401.0463 491.7916 401.0729 492.1768L401.0729 492.1768L400.6046 492.1768L400.6046 492.1768L400.6046 491.1009z" stroke="none" fill="#000000" fill-rule="evenodd" /><path id="595" transform="matrix(1 0 0 -1 0 792)" d="M400.3556 496.939L401.1327 496.939L401.1327 496.939L401.0729 498.7024L401.0729 498.7024L400.6046 498.7024C 400.6046 498.078 400.6146 498.0149 400.2161 498.0149L400.2161 498.0149L396.5897 498.0149L396.5897 498.0149L396.6694 496.1918L396.6694 496.1918L397.1376 496.1918C 397.1376 496.8028 397.141 496.8792 397.5262 496.8792L397.5262 496.8792L399.429 496.8792C 400.2526 496.8792 400.774 496.3611 400.774 495.6438C 400.774 494.8734 400.5316 494.8468 399.9869 494.8468L399.9869 494.8468L396.5897 494.8468L396.5897 494.8468L396.6694 493.0237L396.6694 493.0237L397.1376 493.0237C 397.1376 493.6347 397.141 493.7111 397.5262 493.7111L397.5262 493.7111L399.8475 493.7111C 400.9234 493.7111 401.1327 494.5081 401.1327 495.5044C 401.1327 495.7567 401.1393 496.4741 400.3556 496.939z" stroke="none" fill="#000000" fill-rule="evenodd" /><path id="596" transform="matrix(1 0 0 -1 0 792)" d="M397.5262 500.0762L400.6046 500.0762L400.6046 500.0762L400.6046 499.3888L400.6046 499.3888L401.0729 499.3888C 401.0729 499.6677 401.043 500.2589 401.043 500.644C 401.043 501.0293 401.0729 501.6204 401.0729 501.8994L401.0729 501.8994L400.6046 501.8994L400.6046 501.8994L400.6046 501.2119L400.6046 501.2119L398.5225 501.2119C 397.4465 501.2119 396.9484 502.072 396.9484 502.6964C 396.9484 503.0284 397.1576 503.2543 397.9147 503.2543L397.9147 503.2543L400.6046 503.2543L400.6046 503.2543L400.6046 502.5668L400.6046 502.5668L401.0729 502.5668C 401.0729 502.8458 401.043 503.4369 401.043 503.8221C 401.043 504.2073 401.0729 504.7985 401.0729 505.0774L401.0729 505.0774L400.6046 505.0774L400.6046 505.0774L400.6046 504.39L400.6046 504.39L398.5225 504.39C 397.4465 504.39 396.9484 505.2501 396.9484 505.8744C 396.9484 506.2065 397.1576 506.4323 397.9147 506.4323L397.9147 506.4323L400.6046 506.4323L400.6046 506.4323L400.6046 505.7449L400.6046 505.7449L401.0729 505.7449C 401.0729 506.0239 401.043 506.615 401.043 507.0002C 401.043 507.3854 401.0729 507.9765 401.0729 508.2555L401.0729 508.2555L400.6046 508.2555L400.6046 508.2555L400.6046 507.5681L400.6046 507.5681L398.0243 507.5681C 397.0015 507.5681 396.5897 507.0566 396.5897 506.0338C 396.5897 505.1173 397.0945 504.6025 397.5461 504.3502C 396.6295 504.1509 396.5897 503.2277 396.5897 502.8557C 396.5897 501.979 397.0414 501.4211 397.6657 501.1023L397.6657 501.1023L396.5897 501.1023L396.5897 501.1023L396.6694 499.3888L396.6694 499.3888L397.1376 499.3888C 397.1376 499.9998 397.141 500.0762 397.5262 500.0762z" stroke="none" fill="#000000" fill-rule="evenodd" /><path id="597" transform="matrix(1 0 0 -1 0 792)" d="M400.2958 510.8488C 399.8707 510.8488 399.5187 510.4967 399.5187 510.0717C 399.5187 509.6333 399.8707 509.2946 400.2958 509.2946C 400.7342 509.2946 401.0729 509.6333 401.0729 510.0717C 401.0729 510.4967 400.7342 510.8488 400.2958 510.8488z" stroke="none" fill="#000000" fill-rule="evenodd" /><path id="598" transform="matrix(1 0 0 -1 0 792)" d="M403.2746 516.1243C 403.3942 516.1642 403.5635 516.2405 403.5635 516.4531C 403.5635 516.5859 403.4406 516.752 403.2547 516.752C 403.2148 516.752 403.1849 516.7453 403.0654 516.6921L403.0654 516.6921L393.8998 512.9363C 393.7537 512.8699 393.6009 512.8068 393.6009 512.6075C 393.6009 512.4614 393.7238 512.3086 393.9098 512.3086C 393.9496 512.3086 393.9795 512.302 394.0991 512.3684z" stroke="none" fill="#000000" fill-rule="evenodd" /><path id="599" transform="matrix(1 0 0 -1 0 792)" d="M399.7578 522.8386L394.4876 520.4476C 394.2485 520.328 394.2385 520.2217 394.2385 520.0092L394.2385 520.0092L394.2385 517.7975L394.2385 517.7975L394.7068 517.7975L394.7068 517.7975L394.7068 518.8735L394.7068 518.8735L400.3157 518.8735C 400.5415 518.8735 400.5482 518.8635 400.5747 518.5846C 400.6146 518.3455 400.6046 518.3256 400.6046 518.0466L400.6046 518.0466L400.6046 517.7975L400.6046 517.7975L401.0729 517.7975C 401.0463 518.1694 401.043 518.734 401.043 519.1325C 401.043 519.5443 401.0463 520.0657 401.0729 520.4774L401.0729 520.4774L400.6046 520.4774L400.6046 520.4774L400.6046 520.2284C 400.6046 520.0424 400.6013 519.873 400.5747 519.7004C 400.5482 519.4081 400.5415 519.4015 400.3157 519.4015L400.3157 519.4015L394.8363 519.4015L394.8363 519.4015L394.8363 519.4115L394.8363 519.4115L400.8238 522.1213C 401.0231 522.201 401.0729 522.3206 401.0729 522.4401C 401.0729 522.6393 400.9268 522.7191 400.8338 522.7589L400.8338 522.7589L394.7068 525.5385L394.7068 525.5385L394.7068 525.5485L394.7068 525.5485L400.6046 525.5485L400.6046 525.5485L400.6046 524.4725L400.6046 524.4725L401.0729 524.4725C 401.0463 524.8311 401.043 525.7543 401.043 526.1661C 401.043 526.5646 401.0463 527.511 401.0729 527.8698L401.0729 527.8698L400.6046 527.8698L400.6046 527.8698L400.6046 526.7938L400.6046 526.7938L394.7068 526.7938L394.7068 526.7938L394.7068 527.8698L394.7068 527.8698L394.2385 527.8698L394.2385 527.8698L394.2385 525.668C 394.2385 525.4421 394.2485 525.3359 394.4876 525.2296z" stroke="none" fill="#000000" fill-rule="evenodd" /><path id="600" transform="matrix(1 0 0 -1 0 792)" d="M418.2303 487.614L417.9215 486.1694C 417.8418 485.7709 417.4964 485.213 416.8854 485.213C 416.4603 485.213 415.8393 485.4919 415.8393 486.4882C 415.8393 487.2852 416.178 488.2815 417.533 488.5206C 417.7721 488.5604 417.792 488.5571 417.792 488.7696C 417.792 489.0087 417.7521 489.0087 417.513 489.0087L417.513 489.0087L415.6899 489.0087C 415.5039 489.0087 415.4109 489.0021 415.4109 488.8294C 415.4109 488.7497 415.4275 488.7364 415.5205 488.6302L415.5205 488.6302L415.9589 488.1819C 415.5072 487.5974 415.4109 486.9565 415.4109 486.4782C 415.4109 484.9639 416.3773 484.2466 417.4134 484.2466C 418.0643 484.2466 418.5259 484.5721 418.7384 484.7846C 419.2299 485.2628 419.2963 485.6082 419.5354 486.6974C 419.7347 487.5741 419.7646 487.7368 419.9638 487.9627C 420.1232 488.1088 420.3789 488.3612 420.8306 488.3612C 421.3088 488.3612 421.9962 488.1021 421.9962 487.066C 421.9962 486.3089 421.8003 484.7946 420.3125 484.7148C 420.1398 484.7016 420.0834 484.6982 420.0834 484.4857C 420.0834 484.2466 420.1465 484.2466 420.3723 484.2466L420.3723 484.2466L422.1855 484.2466C 422.3847 484.2466 422.4644 484.24 422.4644 484.4259C 422.4644 484.5056 422.4412 484.5355 422.3748 484.6152L422.3748 484.6152L421.9165 485.0735C 422.408 485.7244 422.4644 486.6542 422.4644 487.066C 422.4644 488.6999 421.342 489.3275 420.3325 489.3275C 419.2299 489.3275 418.4296 488.5172 418.2303 487.614z" stroke="none" fill="#000000" fill-rule="evenodd" /><path id="601" transform="matrix(1 0 0 -1 0 792)" d="M421.6375 494.3377L422.4146 494.3377L422.4146 494.3377L422.3549 496.1011L422.3549 496.1011L421.8866 496.1011C 421.8866 495.4768 421.8966 495.4137 421.4981 495.4137L421.4981 495.4137L417.8717 495.4137L417.8717 495.4137L417.9514 493.5905L417.9514 493.5905L418.4196 493.5905C 418.4196 494.2016 418.4229 494.278 418.8082 494.278L418.8082 494.278L420.711 494.278C 421.5346 494.278 422.056 493.7599 422.056 493.0426C 422.056 492.2722 421.8136 492.2456 421.2689 492.2456L421.2689 492.2456L417.8717 492.2456L417.8717 492.2456L417.9514 490.4224L417.9514 490.4224L418.4196 490.4224C 418.4196 491.0335 418.4229 491.1099 418.8082 491.1099L418.8082 491.1099L421.1295 491.1099C 422.2054 491.1099 422.4146 491.9069 422.4146 492.9031C 422.4146 493.1555 422.4213 493.8728 421.6375 494.3377z" stroke="none" fill="#000000" fill-rule="evenodd" /><path id="602" transform="matrix(1 0 0 -1 0 792)" d="M418.8082 497.4749L421.8866 497.4749L421.8866 497.4749L421.8866 496.7875L421.8866 496.7875L422.3549 496.7875C 422.3549 497.0665 422.325 497.6576 422.325 498.0428C 422.325 498.428 422.3549 499.0192 422.3549 499.2981L422.3549 499.2981L421.8866 499.2981L421.8866 499.2981L421.8866 498.6107L421.8866 498.6107L419.8044 498.6107C 418.7285 498.6107 418.2303 499.4708 418.2303 500.0951C 418.2303 500.4272 418.4395 500.653 419.1967 500.653L419.1967 500.653L421.8866 500.653L421.8866 500.653L421.8866 499.9656L421.8866 499.9656L422.3549 499.9656C 422.3549 500.2446 422.325 500.8357 422.325 501.2209C 422.325 501.6061 422.3549 502.1972 422.3549 502.4762L422.3549 502.4762L421.8866 502.4762L421.8866 502.4762L421.8866 501.7888L421.8866 501.7888L419.8044 501.7888C 418.7285 501.7888 418.2303 502.6489 418.2303 503.2732C 418.2303 503.6053 418.4395 503.8311 419.1967 503.8311L419.1967 503.8311L421.8866 503.8311L421.8866 503.8311L421.8866 503.1437L421.8866 503.1437L422.3549 503.1437C 422.3549 503.4226 422.325 504.0137 422.325 504.399C 422.325 504.7842 422.3549 505.3753 422.3549 505.6542L422.3549 505.6542L421.8866 505.6542L421.8866 505.6542L421.8866 504.9668L421.8866 504.9668L419.3063 504.9668C 418.2835 504.9668 417.8717 504.4554 417.8717 503.4326C 417.8717 502.516 418.3765 502.0013 418.8281 501.7489C 417.9115 501.5497 417.8717 500.6265 417.8717 500.2545C 417.8717 499.3778 418.3233 498.8199 418.9477 498.5011L418.9477 498.5011L417.8717 498.5011L417.8717 498.5011L417.9514 496.7875L417.9514 496.7875L418.4196 496.7875C 418.4196 497.3986 418.4229 497.4749 418.8082 497.4749z" stroke="none" fill="#000000" fill-rule="evenodd" /><path id="603" transform="matrix(1 0 0 -1 0 792)" d="M179.7889 479.823L431.4599 479.823" stroke="#000000" stroke-width="0.398" fill="none" /><path id="604" transform="matrix(1 0 0 -1 0 792)" d="M179.7889 477.432L431.4599 477.432" stroke="#000000" stroke-width="0.398" fill="none" /><path id="653" transform="matrix(1 0 0 -1 0 792)" d="M179.7889 441.168L431.4599 441.168" stroke="#000000" stroke-width="0.398" fill="none" /><path id="668" transform="matrix(1 0 0 -1 0 792)" d="M179.7889 428.814L431.4599 428.814" stroke="#000000" stroke-width="0.398" fill="none" /><path id="715" transform="matrix(1 0 0 -1 0 792)" d="M227.7509 373.123L431.4589 373.123" stroke="#000000" stroke-width="0.398" fill="none" /><path id="716" transform="matrix(1 0 0 -1 0 792)" d="M233.952 333.3793C 233.6996 333.2597 233.693 333.1402 233.693 332.9808C 233.693 332.7018 233.7793 332.6587 233.952 332.5922L233.952 332.5922L239.9495 330.1215C 240.1089 330.0551 240.1786 330.0319 240.1786 329.2747L240.1786 329.2747L240.1786 329.0655L240.1786 329.0655L240.6469 329.0655C 240.6469 329.4374 240.617 329.9123 240.617 330.2311C 240.617 330.6163 240.6203 331.1742 240.6469 331.5462L240.6469 331.5462L240.1786 331.5462C 240.1786 331.5196 240.1819 330.6595 240.0491 330.6595C 240.0491 330.6595 239.9429 330.6861 239.9296 330.6993L239.9296 330.6993L238.7241 331.1975L238.7241 331.1975L238.7241 333.8674L238.7241 333.8674L240.1786 334.4652L240.1786 334.4652L240.1786 333.5188L240.1786 333.5188L240.6469 333.5188C 240.6203 333.8907 240.617 334.8338 240.617 335.2722C 240.617 335.6707 240.6203 336.5374 240.6469 336.8961L240.6469 336.8961L240.1786 336.8961L240.1786 336.8961L240.1786 335.9297zM235.4863 332.5325L238.2559 333.6682L238.2559 333.6682L238.2559 331.3967z" stroke="none" fill="#000000" fill-rule="evenodd" /><path id="717" transform="matrix(1 0 0 -1 0 792)" d="M233.7328 339.5501L233.8125 337.7867L233.8125 337.7867L234.2808 337.7867C 234.2808 338.3978 234.2841 338.4742 234.6693 338.4742L234.6693 338.4742L240.1786 338.4742L240.1786 338.4742L240.1786 337.7867L240.1786 337.7867L240.6469 337.7867C 240.6469 338.1055 240.617 338.5738 240.617 339.0121C 240.617 339.4372 240.6469 339.8922 240.6469 340.2375L240.6469 340.2375L240.1786 340.2375L240.1786 340.2375L240.1786 339.5501z" stroke="none" fill="#000000" fill-rule="evenodd" /><path id="718" transform="matrix(1 0 0 -1 0 792)" d="M233.7328 342.7322L233.8125 340.9688L233.8125 340.9688L234.2808 340.9688C 234.2808 341.5798 234.2841 341.6562 234.6693 341.6562L234.6693 341.6562L240.1786 341.6562L240.1786 341.6562L240.1786 340.9688L240.1786 340.9688L240.6469 340.9688C 240.6469 341.2876 240.617 341.7559 240.617 342.1942C 240.617 342.6193 240.6469 343.0742 240.6469 343.4196L240.6469 343.4196L240.1786 343.4196L240.1786 343.4196L240.1786 342.7322z" stroke="none" fill="#000000" fill-rule="evenodd" /><path id="719" transform="matrix(1 0 0 -1 0 792)" d="M253.0717 336.1489L253.0717 337.2249L253.0717 337.2249L252.6035 337.2249C 252.6433 336.8396 252.6334 335.8666 252.6334 335.4416C 252.6334 335.0032 252.6433 334.0302 252.6035 333.6582L252.6035 333.6582L253.0717 333.6582L253.0717 333.6582L253.0717 334.7342L253.0717 334.7342L255.652 334.7342L255.652 334.7342L255.652 331.5362L255.652 331.5362L253.0717 331.5362L253.0717 331.5362L253.0717 332.6122L253.0717 332.6122L252.6035 332.6122C 252.6433 332.227 252.6334 331.2539 252.6334 330.8289C 252.6334 330.3905 252.6433 329.4175 252.6035 329.0456L252.6035 329.0456L253.0717 329.0456L253.0717 329.0456L253.0717 330.1215L253.0717 330.1215L258.9696 330.1215L258.9696 330.1215L258.9696 329.0456L258.9696 329.0456L259.4378 329.0456C 259.4113 329.4175 259.408 330.3905 259.408 330.8289C 259.408 331.2539 259.4113 332.227 259.4378 332.6122L259.4378 332.6122L258.9696 332.6122L258.9696 332.6122L258.9696 331.5362L258.9696 331.5362L256.1203 331.5362L256.1203 331.5362L256.1203 334.7342L256.1203 334.7342L258.9696 334.7342L258.9696 334.7342L258.9696 333.6582L258.9696 333.6582L259.4378 333.6582C 259.4113 334.0302 259.408 335.0032 259.408 335.4416C 259.408 335.8666 259.4113 336.8396 259.4378 337.2249L259.4378 337.2249L258.9696 337.2249L258.9696 337.2249L258.9696 336.1489z" stroke="none" fill="#000000" fill-rule="evenodd" /><path id="720" transform="matrix(1 0 0 -1 0 792)" d="M258.7205 341.987L259.4976 341.987L259.4976 341.987L259.4378 343.7504L259.4378 343.7504L258.9696 343.7504C 258.9696 343.126 258.9796 343.0629 258.5811 343.0629L258.5811 343.0629L254.9547 343.0629L254.9547 343.0629L255.0344 341.2398L255.0344 341.2398L255.5026 341.2398C 255.5026 341.8508 255.5059 341.9272 255.8911 341.9272L255.8911 341.9272L257.794 341.9272C 258.6176 341.9272 259.1389 341.4091 259.1389 340.6918C 259.1389 339.9214 258.8965 339.8948 258.3519 339.8948L258.3519 339.8948L254.9547 339.8948L254.9547 339.8948L255.0344 338.0717L255.0344 338.0717L255.5026 338.0717C 255.5026 338.6827 255.5059 338.7591 255.8911 338.7591L255.8911 338.7591L258.2124 338.7591C 259.2884 338.7591 259.4976 339.5561 259.4976 340.5524C 259.4976 340.8047 259.5042 341.5221 258.7205 341.987z" stroke="none" fill="#000000" fill-rule="evenodd" /><path id="721" transform="matrix(1 0 0 -1 0 792)" d="M255.8911 345.1242L258.9696 345.1242L258.9696 345.1242L258.9696 344.4368L258.9696 344.4368L259.4378 344.4368C 259.4378 344.7157 259.408 345.3069 259.408 345.692C 259.408 346.0773 259.4378 346.6684 259.4378 346.9474L259.4378 346.9474L258.9696 346.9474L258.9696 346.9474L258.9696 346.2599L258.9696 346.2599L256.8874 346.2599C 255.8115 346.2599 255.3133 347.12 255.3133 347.7444C 255.3133 348.0764 255.5225 348.3023 256.2797 348.3023L256.2797 348.3023L258.9696 348.3023L258.9696 348.3023L258.9696 347.6148L258.9696 347.6148L259.4378 347.6148C 259.4378 347.8938 259.408 348.4849 259.408 348.8701C 259.408 349.2553 259.4378 349.8465 259.4378 350.1254L259.4378 350.1254L258.9696 350.1254L258.9696 350.1254L258.9696 349.438L258.9696 349.438L256.8874 349.438C 255.8115 349.438 255.3133 350.2981 255.3133 350.9224C 255.3133 351.2545 255.5225 351.4803 256.2797 351.4803L256.2797 351.4803L258.9696 351.4803L258.9696 351.4803L258.9696 350.7929L258.9696 350.7929L259.4378 350.7929C 259.4378 351.0719 259.408 351.663 259.408 352.0482C 259.408 352.4334 259.4378 353.0245 259.4378 353.3035L259.4378 353.3035L258.9696 353.3035L258.9696 353.3035L258.9696 352.6161L258.9696 352.6161L256.3893 352.6161C 255.3665 352.6161 254.9547 352.1046 254.9547 351.0818C 254.9547 350.1653 255.4594 349.6505 255.9111 349.3982C 254.9945 349.1989 254.9547 348.2757 254.9547 347.9037C 254.9547 347.027 255.4063 346.4691 256.0306 346.1503L256.0306 346.1503L254.9547 346.1503L254.9547 346.1503L255.0344 344.4368L255.0344 344.4368L255.5026 344.4368C 255.5026 345.0478 255.5059 345.1242 255.8911 345.1242z" stroke="none" fill="#000000" fill-rule="evenodd" /><path id="722" transform="matrix(1 0 0 -1 0 792)" d="M258.6608 355.8968C 258.2357 355.8968 257.8837 355.5447 257.8837 355.1197C 257.8837 354.6813 258.2357 354.3426 258.6608 354.3426C 259.0991 354.3426 259.4378 354.6813 259.4378 355.1197C 259.4378 355.5447 259.0991 355.8968 258.6608 355.8968z" stroke="none" fill="#000000" fill-rule="evenodd" /><path id="723" transform="matrix(1 0 0 -1 0 792)" d="M274.1863 332.662L273.8775 331.2174C 273.7978 330.8189 273.4524 330.261 272.8414 330.261C 272.4163 330.261 271.7953 330.5399 271.7953 331.5362C 271.7953 332.3332 272.134 333.3295 273.4889 333.5686C 273.728 333.6084 273.748 333.6051 273.748 333.8176C 273.748 334.0567 273.7081 334.0567 273.469 334.0567L273.469 334.0567L271.6458 334.0567C 271.4599 334.0567 271.3669 334.0501 271.3669 333.8774C 271.3669 333.7977 271.3835 333.7844 271.4765 333.6782L271.4765 333.6782L271.9148 333.2299C 271.4632 332.6454 271.3669 332.0045 271.3669 331.5262C 271.3669 330.0119 272.3333 329.2946 273.3694 329.2946C 274.0203 329.2946 274.4819 329.6201 274.6944 329.8326C 275.1859 330.3108 275.2523 330.6562 275.4914 331.7454C 275.6906 332.6221 275.7206 332.7849 275.9198 333.0107C 276.0792 333.1568 276.3349 333.4092 276.7865 333.4092C 277.2647 333.4092 277.9522 333.1501 277.9522 332.114C 277.9522 331.3569 277.7562 329.8426 276.2685 329.7628C 276.0958 329.7496 276.0393 329.7462 276.0393 329.5337C 276.0393 329.2946 276.1024 329.2946 276.3283 329.2946L276.3283 329.2946L278.1414 329.2946C 278.3407 329.2946 278.4204 329.288 278.4204 329.4739C 278.4204 329.5536 278.3972 329.5835 278.3307 329.6632L278.3307 329.6632L277.8725 330.1215C 278.364 330.7724 278.4204 331.7022 278.4204 332.114C 278.4204 333.7479 277.2979 334.3755 276.2884 334.3755C 275.1859 334.3755 274.3856 333.5652 274.1863 332.662z" stroke="none" fill="#000000" fill-rule="evenodd" /><path id="724" transform="matrix(1 0 0 -1 0 792)" d="M274.256 338.6086C 274.4154 338.4227 274.6346 338.4094 274.7143 338.4094C 275.1527 338.4094 275.342 338.7481 275.342 339.0271C 275.342 339.3326 275.1394 339.6547 274.7143 339.6547C 273.8642 339.6547 273.7978 338.4924 273.7978 337.9212C 273.7978 336.128 274.9435 335.4007 276.0991 335.4007C 277.4275 335.4007 278.3706 336.3305 278.3706 337.8714C 278.3706 339.4787 277.2249 339.7842 277.1452 339.7842C 277.0124 339.7842 277.0057 339.6381 277.0057 339.5451C 277.0057 339.3592 277.0356 339.3459 277.1552 339.306C 277.7928 339.0404 277.9721 338.5655 277.9721 338.0607C 277.9721 336.666 276.5142 336.6759 276.0493 336.6759C 275.4914 336.6759 274.1963 336.6726 274.1963 337.9611C 274.1963 338.3065 274.2295 338.4758 274.256 338.6086z" stroke="none" fill="#000000" fill-rule="evenodd" /><path id="725" transform="matrix(1 0 0 -1 0 792)" d="M273.8276 342.3456L273.9073 340.6121L273.9073 340.6121L274.3756 340.6121C 274.3756 341.1966 274.3789 341.2697 274.7641 341.2697L274.7641 341.2697L277.8426 341.2697L277.8426 341.2697L277.8426 340.5822L277.8426 340.5822L278.3108 340.5822C 278.3108 340.8878 278.2809 341.3726 278.2809 341.7977C 278.2809 342.0899 278.3108 342.6046 278.3108 342.9633L278.3108 342.9633L277.8426 342.9633L277.8426 342.9633L277.8426 342.3456zM272.1639 342.4453C 271.7256 342.4453 271.3868 342.08 271.3868 341.6682C 271.3868 341.2298 271.7388 340.8911 272.1639 340.8911C 272.6023 340.8911 272.941 341.2298 272.941 341.6682C 272.941 342.08 272.6023 342.4453 272.1639 342.4453z" stroke="none" fill="#000000" fill-rule="evenodd" /><path id="726" transform="matrix(1 0 0 -1 0 792)" d="M277.5338 345.6572C 277.1087 345.6572 276.7567 345.3052 276.7567 344.8801C 276.7567 344.4417 277.1087 344.103 277.5338 344.103C 277.9721 344.103 278.3108 344.4417 278.3108 344.8801C 278.3108 345.3052 277.9721 345.6572 277.5338 345.6572z" stroke="none" fill="#000000" fill-rule="evenodd" /><path id="727" transform="matrix(1 0 0 -1 0 792)" d="M290.3273 335.0729L290.3273 329.0456L290.3273 329.0456L290.7955 329.0456L290.7955 329.0456L290.7955 330.1215L290.7955 330.1215L296.6336 330.1215L296.6336 330.1215L296.6336 329.0456L296.6336 329.0456L297.1018 329.0456C 297.0753 329.4175 297.072 330.4304 297.072 330.8687C 297.072 331.3469 297.0753 332.4428 297.1018 332.8812L297.1018 332.8812L296.6336 332.8812L296.6336 332.8812L296.6336 331.5362L296.6336 331.5362L293.9437 331.5362L293.9437 331.5362L293.9437 332.0343C 293.9437 332.9908 294.3787 333.0804 295.1093 333.0804L295.1093 333.0804L295.1093 333.5486L295.1093 333.5486L292.3098 333.5486L292.3098 333.5486L292.3098 333.0804C 293.0537 333.0804 293.4755 332.9908 293.4755 332.0343L293.4755 332.0343L293.4755 331.5362L293.4755 331.5362L290.7955 331.5362L290.7955 331.5362L290.7955 332.931C 290.7955 334.525 291.5726 334.7541 292.7282 334.9135L292.7282 334.9135L292.7282 335.3818z" stroke="none" fill="#000000" fill-rule="evenodd" /><path id="728" transform="matrix(1 0 0 -1 0 792)" d="M314.5777 334.0966L309.3075 331.7056C 309.0684 331.586 309.0584 331.4797 309.0584 331.2672L309.0584 331.2672L309.0584 329.0555L309.0584 329.0555L309.5267 329.0555L309.5267 329.0555L309.5267 330.1315L309.5267 330.1315L315.1356 330.1315C 315.3615 330.1315 315.3681 330.1215 315.3947 329.8426C 315.4345 329.6035 315.4246 329.5835 315.4246 329.3046L315.4246 329.3046L315.4246 329.0555L315.4246 329.0555L315.8928 329.0555C 315.8662 329.4275 315.8629 329.992 315.8629 330.3905C 315.8629 330.8023 315.8662 331.3237 315.8928 331.7354L315.8928 331.7354L315.4246 331.7354L315.4246 331.7354L315.4246 331.4864C 315.4246 331.3004 315.4212 331.1311 315.3947 330.9584C 315.3681 330.6661 315.3615 330.6595 315.1356 330.6595L315.1356 330.6595L309.6562 330.6595L309.6562 330.6595L309.6562 330.6695L309.6562 330.6695L315.6437 333.3793C 315.843 333.459 315.8928 333.5786 315.8928 333.6981C 315.8928 333.8973 315.7467 333.9771 315.6537 334.0169L315.6537 334.0169L309.5267 336.7964L309.5267 336.7964L309.5267 336.8064L309.5267 336.8064L315.4246 336.8064L315.4246 336.8064L315.4246 335.7305L315.4246 335.7305L315.8928 335.7305C 315.8662 336.0891 315.8629 337.0123 315.8629 337.4241C 315.8629 337.8226 315.8662 338.769 315.8928 339.1277L315.8928 339.1277L315.4246 339.1277L315.4246 339.1277L315.4246 338.0518L315.4246 338.0518L309.5267 338.0518L309.5267 338.0518L309.5267 339.1277L309.5267 339.1277L309.0584 339.1277L309.0584 339.1277L309.0584 336.926C 309.0584 336.7002 309.0684 336.5939 309.3075 336.4876z" stroke="none" fill="#000000" fill-rule="evenodd" /><path id="729" transform="matrix(1 0 0 -1 0 792)" d="M331.1953 332.662L330.8864 331.2174C 330.8067 330.8189 330.4614 330.261 329.8503 330.261C 329.4253 330.261 328.8043 330.5399 328.8043 331.5362C 328.8043 332.3332 329.143 333.3295 330.4979 333.5686C 330.737 333.6084 330.7569 333.6051 330.7569 333.8176C 330.7569 334.0567 330.7171 334.0567 330.478 334.0567L330.478 334.0567L328.6548 334.0567C 328.4688 334.0567 328.3759 334.0501 328.3759 333.8774C 328.3759 333.7977 328.3925 333.7844 328.4854 333.6782L328.4854 333.6782L328.9238 333.2299C 328.4722 332.6454 328.3759 332.0045 328.3759 331.5262C 328.3759 330.0119 329.3422 329.2946 330.3784 329.2946C 331.0292 329.2946 331.4908 329.6201 331.7034 329.8326C 332.1949 330.3108 332.2613 330.6562 332.5004 331.7454C 332.6996 332.6221 332.7295 332.7849 332.9288 333.0107C 333.0882 333.1568 333.3439 333.4092 333.7955 333.4092C 334.2737 333.4092 334.9612 333.1501 334.9612 332.114C 334.9612 331.3569 334.7652 329.8426 333.2775 329.7628C 333.1048 329.7496 333.0483 329.7462 333.0483 329.5337C 333.0483 329.2946 333.1114 329.2946 333.3372 329.2946L333.3372 329.2946L335.1504 329.2946C 335.3497 329.2946 335.4294 329.288 335.4294 329.4739C 335.4294 329.5536 335.4061 329.5835 335.3397 329.6632L335.3397 329.6632L334.8814 330.1215C 335.3729 330.7724 335.4294 331.7022 335.4294 332.114C 335.4294 333.7479 334.3069 334.3755 333.2974 334.3755C 332.1949 334.3755 331.3945 333.5652 331.1953 332.662z" stroke="none" fill="#000000" fill-rule="evenodd" /><path id="730" transform="matrix(1 0 0 -1 0 792)" d="M331.265 338.6086C 331.4244 338.4227 331.6436 338.4094 331.7233 338.4094C 332.1617 338.4094 332.351 338.7481 332.351 339.0271C 332.351 339.3326 332.1484 339.6547 331.7233 339.6547C 330.8731 339.6547 330.8067 338.4924 330.8067 337.9212C 330.8067 336.128 331.9524 335.4007 333.1081 335.4007C 334.4364 335.4007 335.3796 336.3305 335.3796 337.8714C 335.3796 339.4787 334.2339 339.7842 334.1542 339.7842C 334.0213 339.7842 334.0147 339.6381 334.0147 339.5451C 334.0147 339.3592 334.0446 339.3459 334.1641 339.306C 334.8017 339.0404 334.9811 338.5655 334.9811 338.0607C 334.9811 336.666 333.5232 336.6759 333.0583 336.6759C 332.5004 336.6759 331.2052 336.6726 331.2052 337.9611C 331.2052 338.3065 331.2384 338.4758 331.265 338.6086z" stroke="none" fill="#000000" fill-rule="evenodd" /><path id="731" transform="matrix(1 0 0 -1 0 792)" d="M330.8366 342.3456L330.9163 340.6121L330.9163 340.6121L331.3846 340.6121C 331.3846 341.1966 331.3879 341.2697 331.7731 341.2697L331.7731 341.2697L334.8516 341.2697L334.8516 341.2697L334.8516 340.5822L334.8516 340.5822L335.3198 340.5822C 335.3198 340.8878 335.2899 341.3726 335.2899 341.7977C 335.2899 342.0899 335.3198 342.6046 335.3198 342.9633L335.3198 342.9633L334.8516 342.9633L334.8516 342.9633L334.8516 342.3456zM329.1729 342.4453C 328.7345 342.4453 328.3958 342.08 328.3958 341.6682C 328.3958 341.2298 328.7478 340.8911 329.1729 340.8911C 329.6112 340.8911 329.95 341.2298 329.95 341.6682C 329.95 342.08 329.6112 342.4453 329.1729 342.4453z" stroke="none" fill="#000000" fill-rule="evenodd" /><path id="732" transform="matrix(1 0 0 -1 0 792)" d="M334.5427 345.6572C 334.1176 345.6572 333.7656 345.3052 333.7656 344.8801C 333.7656 344.4417 334.1176 344.103 334.5427 344.103C 334.9811 344.103 335.3198 344.4417 335.3198 344.8801C 335.3198 345.3052 334.9811 345.6572 334.5427 345.6572z" stroke="none" fill="#000000" fill-rule="evenodd" /><path id="733" transform="matrix(1 0 0 -1 0 792)" d="M337.5215 350.9323C 337.6411 350.9721 337.8105 351.0485 337.8105 351.261C 337.8105 351.3939 337.6876 351.5599 337.5016 351.5599C 337.4618 351.5599 337.4319 351.5533 337.3123 351.5002L337.3123 351.5002L328.1467 347.7443C 328.0006 347.6778 327.8478 347.6147 327.8478 347.4155C 327.8478 347.2694 327.9707 347.1166 328.1567 347.1166C 328.1965 347.1166 328.2264 347.11 328.346 347.1764z" stroke="none" fill="#000000" fill-rule="evenodd" /><path id="734" transform="matrix(1 0 0 -1 0 792)" d="M328.5452 358.6229L328.5452 352.5956L328.5452 352.5956L329.0135 352.5956L329.0135 352.5956L329.0135 353.6715L329.0135 353.6715L334.8516 353.6715L334.8516 353.6715L334.8516 352.5956L334.8516 352.5956L335.3198 352.5956C 335.2932 352.9675 335.2899 353.9803 335.2899 354.4187C 335.2899 354.8969 335.2932 355.9928 335.3198 356.4312L335.3198 356.4312L334.8516 356.4312L334.8516 356.4312L334.8516 355.0862L334.8516 355.0862L332.1617 355.0862L332.1617 355.0862L332.1617 355.5843C 332.1617 356.5407 332.5967 356.6304 333.3273 356.6304L333.3273 356.6304L333.3273 357.0986L333.3273 357.0986L330.5278 357.0986L330.5278 357.0986L330.5278 356.6304C 331.2717 356.6304 331.6934 356.5407 331.6934 355.5843L331.6934 355.5843L331.6934 355.0862L331.6934 355.0862L329.0135 355.0862L329.0135 355.0862L329.0135 356.481C 329.0135 358.075 329.7906 358.3041 330.9462 358.4635L330.9462 358.4635L330.9462 358.9318z" stroke="none" fill="#000000" fill-rule="evenodd" /><path id="735" transform="matrix(1 0 0 -1 0 792)" d="M350.8717 336.1489L350.8717 337.2249L350.8717 337.2249L350.4034 337.2249C 350.4433 336.8396 350.4333 335.8666 350.4333 335.4415C 350.4333 335.0032 350.4433 334.0302 350.4034 333.6582L350.4034 333.6582L350.8717 333.6582L350.8717 333.6582L350.8717 334.7342L350.8717 334.7342L353.452 334.7342L353.452 334.7342L353.452 331.5362L353.452 331.5362L350.8717 331.5362L350.8717 331.5362L350.8717 332.6122L350.8717 332.6122L350.4034 332.6122C 350.4433 332.227 350.4333 331.2539 350.4333 330.8289C 350.4333 330.3905 350.4433 329.4175 350.4034 329.0456L350.4034 329.0456L350.8717 329.0456L350.8717 329.0456L350.8717 330.1215L350.8717 330.1215L356.7695 330.1215L356.7695 330.1215L356.7695 329.0456L356.7695 329.0456L357.2378 329.0456C 357.2112 329.4175 357.2079 330.3905 357.2079 330.8289C 357.2079 331.2539 357.2112 332.227 357.2378 332.6122L357.2378 332.6122L356.7695 332.6122L356.7695 332.6122L356.7695 331.5362L356.7695 331.5362L353.9202 331.5362L353.9202 331.5362L353.9202 334.7342L353.9202 334.7342L356.7695 334.7342L356.7695 334.7342L356.7695 333.6582L356.7695 333.6582L357.2378 333.6582C 357.2112 334.0302 357.2079 335.0032 357.2079 335.4415C 357.2079 335.8666 357.2112 336.8396 357.2378 337.2249L357.2378 337.2249L356.7695 337.2249L356.7695 337.2249L356.7695 336.1489z" stroke="none" fill="#000000" fill-rule="evenodd" /><path id="736" transform="matrix(1 0 0 -1 0 792)" d="M356.5204 341.987L357.2975 341.987L357.2975 341.987L357.2378 343.7504L357.2378 343.7504L356.7695 343.7504C 356.7695 343.126 356.7795 343.0629 356.381 343.0629L356.381 343.0629L352.7546 343.0629L352.7546 343.0629L352.8343 341.2398L352.8343 341.2398L353.3025 341.2398C 353.3025 341.8508 353.3058 341.9272 353.6911 341.9272L353.6911 341.9272L355.5939 341.9272C 356.4175 341.9272 356.9389 341.4091 356.9389 340.6918C 356.9389 339.9214 356.6965 339.8948 356.1518 339.8948L356.1518 339.8948L352.7546 339.8948L352.7546 339.8948L352.8343 338.0717L352.8343 338.0717L353.3025 338.0717C 353.3025 338.6827 353.3058 338.7591 353.6911 338.7591L353.6911 338.7591L356.0124 338.7591C 357.0883 338.7591 357.2975 339.5561 357.2975 340.5524C 357.2975 340.8047 357.3042 341.5221 356.5204 341.987z" stroke="none" fill="#000000" fill-rule="evenodd" /><path id="737" transform="matrix(1 0 0 -1 0 792)" d="M353.6911 345.1242L356.7695 345.1242L356.7695 345.1242L356.7695 344.4368L356.7695 344.4368L357.2378 344.4368C 357.2378 344.7157 357.2079 345.3069 357.2079 345.6921C 357.2079 346.0773 357.2378 346.6684 357.2378 346.9474L357.2378 346.9474L356.7695 346.9474L356.7695 346.9474L356.7695 346.2599L356.7695 346.2599L354.6873 346.2599C 353.6114 346.2599 353.1133 347.12 353.1133 347.7444C 353.1133 348.0764 353.3224 348.3023 354.0796 348.3023L354.0796 348.3023L356.7695 348.3023L356.7695 348.3023L356.7695 347.6148L356.7695 347.6148L357.2378 347.6148C 357.2378 347.8938 357.2079 348.4849 357.2079 348.8701C 357.2079 349.2553 357.2378 349.8465 357.2378 350.1254L357.2378 350.1254L356.7695 350.1254L356.7695 350.1254L356.7695 349.438L356.7695 349.438L354.6873 349.438C 353.6114 349.438 353.1133 350.2981 353.1133 350.9224C 353.1133 351.2545 353.3224 351.4803 354.0796 351.4803L354.0796 351.4803L356.7695 351.4803L356.7695 351.4803L356.7695 350.7929L356.7695 350.7929L357.2378 350.7929C 357.2378 351.0719 357.2079 351.663 357.2079 352.0482C 357.2079 352.4334 357.2378 353.0245 357.2378 353.3035L357.2378 353.3035L356.7695 353.3035L356.7695 353.3035L356.7695 352.6161L356.7695 352.6161L354.1892 352.6161C 353.1664 352.6161 352.7546 352.1046 352.7546 351.0818C 352.7546 350.1653 353.2594 349.6505 353.711 349.3982C 352.7944 349.1989 352.7546 348.2757 352.7546 347.9037C 352.7546 347.027 353.2062 346.4691 353.8306 346.1503L353.8306 346.1503L352.7546 346.1503L352.7546 346.1503L352.8343 344.4368L352.8343 344.4368L353.3025 344.4368C 353.3025 345.0478 353.3058 345.1242 353.6911 345.1242z" stroke="none" fill="#000000" fill-rule="evenodd" /><path id="738" transform="matrix(1 0 0 -1 0 792)" d="M356.4607 355.8968C 356.0356 355.8968 355.6836 355.5447 355.6836 355.1197C 355.6836 354.6813 356.0356 354.3426 356.4607 354.3426C 356.899 354.3426 357.2378 354.6813 357.2378 355.1197C 357.2378 355.5447 356.899 355.8968 356.4607 355.8968z" stroke="none" fill="#000000" fill-rule="evenodd" /><path id="739" transform="matrix(1 0 0 -1 0 792)" d="M359.4395 361.1713C 359.5591 361.2112 359.7284 361.2875 359.7284 361.5001C 359.7284 361.6329 359.6055 361.799 359.4196 361.799C 359.3797 361.799 359.3498 361.7923 359.2303 361.7392L359.2303 361.7392L350.0647 357.9833C 349.9186 357.9168 349.7658 357.8538 349.7658 357.6545C 349.7658 357.5084 349.8887 357.3556 350.0746 357.3556C 350.1145 357.3556 350.1444 357.349 350.2639 357.4154z" stroke="none" fill="#000000" fill-rule="evenodd" /><path id="740" transform="matrix(1 0 0 -1 0 792)" d="M350.4632 368.8619L350.4632 362.8346L350.4632 362.8346L350.9314 362.8346L350.9314 362.8346L350.9314 363.9105L350.9314 363.9105L356.7695 363.9105L356.7695 363.9105L356.7695 362.8346L356.7695 362.8346L357.2378 362.8346C 357.2112 363.2065 357.2079 364.2194 357.2079 364.6577C 357.2079 365.1359 357.2112 366.2318 357.2378 366.6702L357.2378 366.6702L356.7695 366.6702L356.7695 366.6702L356.7695 365.3252L356.7695 365.3252L354.0796 365.3252L354.0796 365.3252L354.0796 365.8233C 354.0796 366.7798 354.5146 366.8694 355.2452 366.8694L355.2452 366.8694L355.2452 367.3376L355.2452 367.3376L352.4457 367.3376L352.4457 367.3376L352.4457 366.8694C 353.1896 366.8694 353.6114 366.7798 353.6114 365.8233L353.6114 365.8233L353.6114 365.3252L353.6114 365.3252L350.9314 365.3252L350.9314 365.3252L350.9314 366.72C 350.9314 368.314 351.7085 368.5431 352.8642 368.7025L352.8642 368.7025L352.8642 369.1708z" stroke="none" fill="#000000" fill-rule="evenodd" /><path id="741" transform="matrix(1 0 0 -1 0 792)" d="M375.0302 332.662L374.7214 331.2174C 374.6417 330.8189 374.2963 330.261 373.6853 330.261C 373.2602 330.261 372.6392 330.5399 372.6392 331.5362C 372.6392 332.3332 372.9779 333.3295 374.3329 333.5686C 374.572 333.6084 374.5919 333.6051 374.5919 333.8176C 374.5919 334.0567 374.552 334.0567 374.3129 334.0567L374.3129 334.0567L372.4898 334.0567C 372.3038 334.0567 372.2108 334.0501 372.2108 333.8774C 372.2108 333.7977 372.2274 333.7844 372.3204 333.6782L372.3204 333.6782L372.7588 333.2299C 372.3071 332.6454 372.2108 332.0045 372.2108 331.5262C 372.2108 330.0119 373.1772 329.2946 374.2133 329.2946C 374.8642 329.2946 375.3258 329.6201 375.5383 329.8326C 376.0298 330.3108 376.0962 330.6562 376.3353 331.7454C 376.5346 332.6221 376.5645 332.7849 376.7637 333.0107C 376.9231 333.1568 377.1788 333.4092 377.6305 333.4092C 378.1087 333.4092 378.7961 333.1501 378.7961 332.114C 378.7961 331.3569 378.6002 329.8426 377.1124 329.7628C 376.9397 329.7496 376.8833 329.7462 376.8833 329.5337C 376.8833 329.2946 376.9464 329.2946 377.1722 329.2946L377.1722 329.2946L378.9854 329.2946C 379.1846 329.2946 379.2643 329.288 379.2643 329.4739C 379.2643 329.5536 379.2411 329.5835 379.1747 329.6632L379.1747 329.6632L378.7164 330.1215C 379.2079 330.7724 379.2643 331.7022 379.2643 332.114C 379.2643 333.7479 378.1419 334.3755 377.1324 334.3755C 376.0298 334.3755 375.2295 333.5652 375.0302 332.662z" stroke="none" fill="#000000" fill-rule="evenodd" /><path id="742" transform="matrix(1 0 0 -1 0 792)" d="M375.1 338.6086C 375.2594 338.4227 375.4785 338.4094 375.5583 338.4094C 375.9966 338.4094 376.1859 338.7481 376.1859 339.0271C 376.1859 339.3326 375.9833 339.6547 375.5583 339.6547C 374.7081 339.6547 374.6417 338.4924 374.6417 337.9212C 374.6417 336.128 375.7874 335.4007 376.9431 335.4007C 378.2714 335.4007 379.2145 336.3305 379.2145 337.8714C 379.2145 339.4787 378.0688 339.7842 377.9891 339.7842C 377.8563 339.7842 377.8496 339.6381 377.8496 339.5451C 377.8496 339.3592 377.8795 339.3459 377.9991 339.306C 378.6367 339.0404 378.816 338.5655 378.816 338.0607C 378.816 336.666 377.3582 336.6759 376.8932 336.6759C 376.3353 336.6759 375.0402 336.6726 375.0402 337.9611C 375.0402 338.3065 375.0734 338.4758 375.1 338.6086z" stroke="none" fill="#000000" fill-rule="evenodd" /><path id="743" transform="matrix(1 0 0 -1 0 792)" d="M374.6716 342.3456L374.7513 340.6121L374.7513 340.6121L375.2195 340.6121C 375.2195 341.1966 375.2228 341.2697 375.6081 341.2697L375.6081 341.2697L378.6865 341.2697L378.6865 341.2697L378.6865 340.5822L378.6865 340.5822L379.1548 340.5822C 379.1548 340.8878 379.1249 341.3726 379.1249 341.7977C 379.1249 342.0899 379.1548 342.6046 379.1548 342.9633L379.1548 342.9633L378.6865 342.9633L378.6865 342.9633L378.6865 342.3456zM373.0078 342.4453C 372.5695 342.4453 372.2307 342.08 372.2307 341.6682C 372.2307 341.2298 372.5828 340.8911 373.0078 340.8911C 373.4462 340.8911 373.7849 341.2298 373.7849 341.6682C 373.7849 342.08 373.4462 342.4453 373.0078 342.4453z" stroke="none" fill="#000000" fill-rule="evenodd" /><path id="744" transform="matrix(1 0 0 -1 0 792)" d="M378.3777 345.6572C 377.9526 345.6572 377.6006 345.3052 377.6006 344.8801C 377.6006 344.4417 377.9526 344.103 378.3777 344.103C 378.816 344.103 379.1548 344.4417 379.1548 344.8801C 379.1548 345.3052 378.816 345.6572 378.3777 345.6572z" stroke="none" fill="#000000" fill-rule="evenodd" /><path id="745" transform="matrix(1 0 0 -1 0 792)" d="M381.3565 350.9323C 381.476 350.9721 381.6454 351.0485 381.6454 351.261C 381.6454 351.3939 381.5225 351.5599 381.3366 351.5599C 381.2967 351.5599 381.2668 351.5533 381.1473 351.5002L381.1473 351.5002L371.9817 347.7443C 371.8356 347.6778 371.6828 347.6147 371.6828 347.4155C 371.6828 347.2694 371.8057 347.1166 371.9916 347.1166C 372.0315 347.1166 372.0614 347.11 372.1809 347.1764z" stroke="none" fill="#000000" fill-rule="evenodd" /><path id="746" transform="matrix(1 0 0 -1 0 792)" d="M377.8397 357.6476L372.5695 355.2566C 372.3304 355.137 372.3204 355.0307 372.3204 354.8182L372.3204 354.8182L372.3204 352.6065L372.3204 352.6065L372.7887 352.6065L372.7887 352.6065L372.7887 353.6825L372.7887 353.6825L378.3976 353.6825C 378.6234 353.6825 378.6301 353.6725 378.6566 353.3936C 378.6965 353.1544 378.6865 353.1345 378.6865 352.8556L378.6865 352.8556L378.6865 352.6065L378.6865 352.6065L379.1548 352.6065C 379.1282 352.9785 379.1249 353.543 379.1249 353.9415C 379.1249 354.3533 379.1282 354.8747 379.1548 355.2864L379.1548 355.2864L378.6865 355.2864L378.6865 355.2864L378.6865 355.0374C 378.6865 354.8514 378.6832 354.6821 378.6566 354.5094C 378.6301 354.2171 378.6234 354.2105 378.3976 354.2105L378.3976 354.2105L372.9182 354.2105L372.9182 354.2105L372.9182 354.2205L372.9182 354.2205L378.9057 356.9303C 379.1049 357.01 379.1548 357.1295 379.1548 357.2491C 379.1548 357.4483 379.0086 357.528 378.9156 357.5679L378.9156 357.5679L372.7887 360.3474L372.7887 360.3474L372.7887 360.3574L372.7887 360.3574L378.6865 360.3574L378.6865 360.3574L378.6865 359.2815L378.6865 359.2815L379.1548 359.2815C 379.1282 359.6401 379.1249 360.5633 379.1249 360.9751C 379.1249 361.3736 379.1282 362.32 379.1548 362.6787L379.1548 362.6787L378.6865 362.6787L378.6865 362.6787L378.6865 361.6028L378.6865 361.6028L372.7887 361.6028L372.7887 361.6028L372.7887 362.6787L372.7887 362.6787L372.3204 362.6787L372.3204 362.6787L372.3204 360.477C 372.3204 360.2512 372.3304 360.1449 372.5695 360.0386z" stroke="none" fill="#000000" fill-rule="evenodd" /><path id="747" transform="matrix(1 0 0 -1 0 792)" d="M394.7067 336.1489L394.7067 337.2249L394.7067 337.2249L394.2384 337.2249C 394.2783 336.8396 394.2683 335.8666 394.2683 335.4416C 394.2683 335.0032 394.2783 334.0302 394.2384 333.6582L394.2384 333.6582L394.7067 333.6582L394.7067 333.6582L394.7067 334.7342L394.7067 334.7342L397.287 334.7342L397.287 334.7342L397.287 331.5362L397.287 331.5362L394.7067 331.5362L394.7067 331.5362L394.7067 332.6122L394.7067 332.6122L394.2384 332.6122C 394.2783 332.227 394.2683 331.2539 394.2683 330.8289C 394.2683 330.3905 394.2783 329.4175 394.2384 329.0456L394.2384 329.0456L394.7067 329.0456L394.7067 329.0456L394.7067 330.1215L394.7067 330.1215L400.6046 330.1215L400.6046 330.1215L400.6046 329.0456L400.6046 329.0456L401.0728 329.0456C 401.0462 329.4175 401.0429 330.3905 401.0429 330.8289C 401.0429 331.2539 401.0462 332.227 401.0728 332.6122L401.0728 332.6122L400.6046 332.6122L400.6046 332.6122L400.6046 331.5362L400.6046 331.5362L397.7552 331.5362L397.7552 331.5362L397.7552 334.7342L397.7552 334.7342L400.6046 334.7342L400.6046 334.7342L400.6046 333.6582L400.6046 333.6582L401.0728 333.6582C 401.0462 334.0302 401.0429 335.0032 401.0429 335.4416C 401.0429 335.8666 401.0462 336.8396 401.0728 337.2249L401.0728 337.2249L400.6046 337.2249L400.6046 337.2249L400.6046 336.1489z" stroke="none" fill="#000000" fill-rule="evenodd" /><path id="748" transform="matrix(1 0 0 -1 0 792)" d="M400.3555 341.987L401.1326 341.987L401.1326 341.987L401.0728 343.7504L401.0728 343.7504L400.6046 343.7504C 400.6046 343.126 400.6145 343.0629 400.216 343.0629L400.216 343.0629L396.5896 343.0629L396.5896 343.0629L396.6693 341.2398L396.6693 341.2398L397.1375 341.2398C 397.1375 341.8508 397.1409 341.9272 397.5261 341.9272L397.5261 341.9272L399.429 341.9272C 400.2525 341.9272 400.7739 341.4091 400.7739 340.6918C 400.7739 339.9214 400.5315 339.8948 399.9868 339.8948L399.9868 339.8948L396.5896 339.8948L396.5896 339.8948L396.6693 338.0717L396.6693 338.0717L397.1375 338.0717C 397.1375 338.6827 397.1409 338.7591 397.5261 338.7591L397.5261 338.7591L399.8474 338.7591C 400.9233 338.7591 401.1326 339.5561 401.1326 340.5524C 401.1326 340.8047 401.1392 341.5221 400.3555 341.987z" stroke="none" fill="#000000" fill-rule="evenodd" /><path id="749" transform="matrix(1 0 0 -1 0 792)" d="M397.5261 345.1242L400.6046 345.1242L400.6046 345.1242L400.6046 344.4368L400.6046 344.4368L401.0728 344.4368C 401.0728 344.7157 401.0429 345.3069 401.0429 345.692C 401.0429 346.0773 401.0728 346.6684 401.0728 346.9474L401.0728 346.9474L400.6046 346.9474L400.6046 346.9474L400.6046 346.2599L400.6046 346.2599L398.5224 346.2599C 397.4464 346.2599 396.9483 347.12 396.9483 347.7444C 396.9483 348.0764 397.1575 348.3023 397.9146 348.3023L397.9146 348.3023L400.6046 348.3023L400.6046 348.3023L400.6046 347.6148L400.6046 347.6148L401.0728 347.6148C 401.0728 347.8938 401.0429 348.4849 401.0429 348.8701C 401.0429 349.2553 401.0728 349.8465 401.0728 350.1254L401.0728 350.1254L400.6046 350.1254L400.6046 350.1254L400.6046 349.438L400.6046 349.438L398.5224 349.438C 397.4464 349.438 396.9483 350.2981 396.9483 350.9224C 396.9483 351.2545 397.1575 351.4803 397.9146 351.4803L397.9146 351.4803L400.6046 351.4803L400.6046 351.4803L400.6046 350.7929L400.6046 350.7929L401.0728 350.7929C 401.0728 351.0719 401.0429 351.663 401.0429 352.0482C 401.0429 352.4334 401.0728 353.0245 401.0728 353.3035L401.0728 353.3035L400.6046 353.3035L400.6046 353.3035L400.6046 352.6161L400.6046 352.6161L398.0242 352.6161C 397.0014 352.6161 396.5896 352.1046 396.5896 351.0818C 396.5896 350.1653 397.0944 349.6505 397.546 349.3982C 396.6295 349.1989 396.5896 348.2757 396.5896 347.9037C 396.5896 347.027 397.0413 346.4691 397.6656 346.1503L397.6656 346.1503L396.5896 346.1503L396.5896 346.1503L396.6693 344.4368L396.6693 344.4368L397.1375 344.4368C 397.1375 345.0478 397.1409 345.1242 397.5261 345.1242z" stroke="none" fill="#000000" fill-rule="evenodd" /><path id="750" transform="matrix(1 0 0 -1 0 792)" d="M400.2957 355.8968C 399.8706 355.8968 399.5186 355.5447 399.5186 355.1197C 399.5186 354.6813 399.8706 354.3426 400.2957 354.3426C 400.7341 354.3426 401.0728 354.6813 401.0728 355.1197C 401.0728 355.5447 400.7341 355.8968 400.2957 355.8968z" stroke="none" fill="#000000" fill-rule="evenodd" /><path id="751" transform="matrix(1 0 0 -1 0 792)" d="M403.2745 361.1723C 403.3941 361.2122 403.5634 361.2885 403.5634 361.5011C 403.5634 361.6339 403.4406 361.8 403.2546 361.8C 403.2148 361.8 403.1848 361.7933 403.0653 361.7402L403.0653 361.7402L393.8997 357.9843C 393.7536 357.9178 393.6008 357.8548 393.6008 357.6555C 393.6008 357.5094 393.7237 357.3566 393.9097 357.3566C 393.9495 357.3566 393.9794 357.35 394.099 357.4164z" stroke="none" fill="#000000" fill-rule="evenodd" /><path id="752" transform="matrix(1 0 0 -1 0 792)" d="M399.7577 367.8866L394.4875 365.4956C 394.2484 365.376 394.2384 365.2697 394.2384 365.0572L394.2384 365.0572L394.2384 362.8455L394.2384 362.8455L394.7067 362.8455L394.7067 362.8455L394.7067 363.9215L394.7067 363.9215L400.3156 363.9215C 400.5414 363.9215 400.5481 363.9115 400.5746 363.6326C 400.6145 363.3935 400.6046 363.3735 400.6046 363.0946L400.6046 363.0946L400.6046 362.8455L400.6046 362.8455L401.0728 362.8455C 401.0462 363.2175 401.0429 363.782 401.0429 364.1805C 401.0429 364.5923 401.0462 365.1137 401.0728 365.5255L401.0728 365.5255L400.6046 365.5255L400.6046 365.5255L400.6046 365.2764C 400.6046 365.0904 400.6012 364.9211 400.5746 364.7484C 400.5481 364.4561 400.5414 364.4495 400.3156 364.4495L400.3156 364.4495L394.8362 364.4495L394.8362 364.4495L394.8362 364.4595L394.8362 364.4595L400.8237 367.1693C 401.023 367.249 401.0728 367.3686 401.0728 367.4881C 401.0728 367.6873 400.9267 367.7671 400.8337 367.8069L400.8337 367.8069L394.7067 370.5865L394.7067 370.5865L394.7067 370.5964L394.7067 370.5964L400.6046 370.5964L400.6046 370.5964L400.6046 369.5205L400.6046 369.5205L401.0728 369.5205C 401.0462 369.8791 401.0429 370.8023 401.0429 371.2141C 401.0429 371.6126 401.0462 372.5591 401.0728 372.9177L401.0728 372.9177L400.6046 372.9177L400.6046 372.9177L400.6046 371.8418L400.6046 371.8418L394.7067 371.8418L394.7067 371.8418L394.7067 372.9177L394.7067 372.9177L394.2384 372.9177L394.2384 372.9177L394.2384 370.716C 394.2384 370.4902 394.2484 370.3839 394.4875 370.2776z" stroke="none" fill="#000000" fill-rule="evenodd" /><path id="753" transform="matrix(1 0 0 -1 0 792)" d="M418.2303 332.662L417.9214 331.2174C 417.8417 330.8189 417.4963 330.261 416.8853 330.261C 416.4602 330.261 415.8392 330.5399 415.8392 331.5362C 415.8392 332.3332 416.1779 333.3295 417.5329 333.5686C 417.772 333.6084 417.7919 333.6051 417.7919 333.8176C 417.7919 334.0567 417.752 334.0567 417.5129 334.0567L417.5129 334.0567L415.6898 334.0567C 415.5038 334.0567 415.4108 334.0501 415.4108 333.8774C 415.4108 333.7977 415.4274 333.7844 415.5204 333.6782L415.5204 333.6782L415.9588 333.2299C 415.5071 332.6454 415.4108 332.0045 415.4108 331.5262C 415.4108 330.0119 416.3772 329.2946 417.4133 329.2946C 418.0642 329.2946 418.5258 329.6201 418.7383 329.8326C 419.2298 330.3108 419.2962 330.6562 419.5353 331.7454C 419.7346 332.6221 419.7645 332.7849 419.9637 333.0107C 420.1231 333.1568 420.3788 333.4092 420.8305 333.4092C 421.3087 333.4092 421.9961 333.1501 421.9961 332.114C 421.9961 331.3569 421.8002 329.8426 420.3124 329.7628C 420.1397 329.7496 420.0833 329.7462 420.0833 329.5337C 420.0833 329.2946 420.1464 329.2946 420.3722 329.2946L420.3722 329.2946L422.1854 329.2946C 422.3846 329.2946 422.4644 329.288 422.4644 329.4739C 422.4644 329.5536 422.4411 329.5835 422.3747 329.6632L422.3747 329.6632L421.9164 330.1215C 422.4079 330.7724 422.4644 331.7022 422.4644 332.114C 422.4644 333.7479 421.3419 334.3755 420.3324 334.3755C 419.2298 334.3755 418.4295 333.5652 418.2303 332.662z" stroke="none" fill="#000000" fill-rule="evenodd" /><path id="754" transform="matrix(1 0 0 -1 0 792)" d="M421.6375 339.3857L422.4146 339.3857L422.4146 339.3857L422.3548 341.1491L422.3548 341.1491L421.8865 341.1491C 421.8865 340.5248 421.8965 340.4617 421.498 340.4617L421.498 340.4617L417.8716 340.4617L417.8716 340.4617L417.9513 338.6385L417.9513 338.6385L418.4195 338.6385C 418.4195 339.2496 418.4229 339.326 418.8081 339.326L418.8081 339.326L420.7109 339.326C 421.5345 339.326 422.0559 338.8079 422.0559 338.0906C 422.0559 337.3202 421.8135 337.2936 421.2688 337.2936L421.2688 337.2936L417.8716 337.2936L417.8716 337.2936L417.9513 335.4704L417.9513 335.4704L418.4195 335.4704C 418.4195 336.0815 418.4229 336.1579 418.8081 336.1579L418.8081 336.1579L421.1294 336.1579C 422.2053 336.1579 422.4146 336.9549 422.4146 337.9511C 422.4146 338.2035 422.4212 338.9208 421.6375 339.3857z" stroke="none" fill="#000000" fill-rule="evenodd" /><path id="755" transform="matrix(1 0 0 -1 0 792)" d="M418.8081 342.5229L421.8865 342.5229L421.8865 342.5229L421.8865 341.8355L421.8865 341.8355L422.3548 341.8355C 422.3548 342.1145 422.3249 342.7056 422.3249 343.0908C 422.3249 343.476 422.3548 344.0672 422.3548 344.3461L422.3548 344.3461L421.8865 344.3461L421.8865 344.3461L421.8865 343.6587L421.8865 343.6587L419.8044 343.6587C 418.7284 343.6587 418.2303 344.5188 418.2303 345.1431C 418.2303 345.4752 418.4395 345.701 419.1966 345.701L419.1966 345.701L421.8865 345.701L421.8865 345.701L421.8865 345.0136L421.8865 345.0136L422.3548 345.0136C 422.3548 345.2926 422.3249 345.8837 422.3249 346.2689C 422.3249 346.6541 422.3548 347.2452 422.3548 347.5242L422.3548 347.5242L421.8865 347.5242L421.8865 347.5242L421.8865 346.8368L421.8865 346.8368L419.8044 346.8368C 418.7284 346.8368 418.2303 347.6969 418.2303 348.3212C 418.2303 348.6533 418.4395 348.8791 419.1966 348.8791L419.1966 348.8791L421.8865 348.8791L421.8865 348.8791L421.8865 348.1917L421.8865 348.1917L422.3548 348.1917C 422.3548 348.4706 422.3249 349.0617 422.3249 349.447C 422.3249 349.8322 422.3548 350.4233 422.3548 350.7022L422.3548 350.7022L421.8865 350.7022L421.8865 350.7022L421.8865 350.0148L421.8865 350.0148L419.3062 350.0148C 418.2834 350.0148 417.8716 349.5034 417.8716 348.4806C 417.8716 347.564 418.3764 347.0493 418.828 346.7969C 417.9114 346.5977 417.8716 345.6745 417.8716 345.3025C 417.8716 344.4258 418.3232 343.8679 418.9476 343.5491L418.9476 343.5491L417.8716 343.5491L417.8716 343.5491L417.9513 341.8355L417.9513 341.8355L418.4195 341.8355C 418.4195 342.4466 418.4229 342.5229 418.8081 342.5229z" stroke="none" fill="#000000" fill-rule="evenodd" /><path id="756" transform="matrix(1 0 0 -1 0 792)" d="M179.7888 324.871L431.4598 324.871" stroke="#000000" stroke-width="0.398" fill="none" /><path id="757" transform="matrix(1 0 0 -1 0 792)" d="M179.7888 322.48L431.4598 322.48" stroke="#000000" stroke-width="0.398" fill="none" /><path id="806" transform="matrix(1 0 0 -1 0 792)" d="M179.7888 286.216L431.4598 286.216" stroke="#000000" stroke-width="0.398" fill="none" /><path id="821" transform="matrix(1 0 0 -1 0 792)" d="M179.7888 273.862L431.4598 273.862" stroke="#000000" stroke-width="0.398" fill="none" /></g></g></svg>