<svg xmlns="http://www.w3.org/2000/svg" xmlns:xlink="http://www.w3.org/1999/xlink" id="body_8" preserveAspectRatio="xMinYMin meet" viewBox="0 0 816 1056"><defs><clipPath id="1"><path id="" clip-rule="evenodd" transform="matrix(1 0 0 1 0 0)" d="M0 792L0 0L0 0L612 0L612 0L612 792L612 792L0 792z" /></clipPath></defs><g transform="matrix(1.333333 0 0 1.333333 0 0)"><g clip-path="url(#1)"><g transform="matrix(0.5816088 0 0 0.5816087 133.768 124.8006)"><g transform="matrix(1 0 0 1 0 0)"><image x="0" y="0" xlink:href="img_13.png" width="591" height="183" /></g></g><path id="706" transform="matrix(1 0 0 -1 0 792)" d="M152.7785 322.007L253.4665 322.007" stroke="#000000" stroke-width="0.2189" fill="none" /><path id="707" transform="matrix(1 0 0 -1 0 792)" d="M152.7785 320.6919L253.4665 320.6919" stroke="#000000" stroke-width="0.2189" fill="none" /><path id="708" transform="matrix(1 0 0 -1 0 792)" d="M159.5809 260.08C 159.7343 260.2481 159.8713 260.5732 159.8713 260.617C 159.8713 260.6901 159.8056 260.6937 159.7179 260.6937L159.7179 260.6937L158.6165 260.6937L158.6165 260.6937L158.6165 261.1321L158.6165 261.1321L158.359 261.1321C 158.3809 260.9348 158.3754 260.4618 158.3754 260.2499C 158.3754 259.9285 158.3809 259.4189 158.359 259.1266L158.359 259.1266L158.6165 259.1266L158.6165 259.1266L158.6165 259.9156L158.6165 259.9156L159.17 259.9156C 159.2796 259.9156 159.4348 259.9138 159.559 259.702C 159.6467 259.5558 159.6741 259.3842 159.6741 259.2088C 159.6741 258.7339 159.5188 258.2609 159.1754 257.9979C 158.8759 257.7568 158.4905 257.691 157.9864 257.691C 157.3727 257.691 157.0567 257.7988 156.7864 258.0034C 156.5161 258.2225 156.3097 258.6444 156.3097 259.1705C 156.3097 259.7549 156.728 260.2737 157.422 260.3979C 157.5316 260.4125 157.5371 260.4143 157.5371 260.5458C 157.5371 260.6846 157.5298 260.6937 157.3837 260.6937L157.3837 260.6937L156.2056 260.6937C 156.1033 260.6937 156.0522 260.6901 156.0522 260.5951C 156.0522 260.544 156.065 260.5349 156.1015 260.491L156.1015 260.491L156.4248 260.1294C 156.1106 259.7275 156.0522 259.3348 156.0522 259.0499C 156.0522 257.6983 156.8595 256.8527 157.9919 256.8527C 159.0878 256.8527 159.9316 257.6435 159.9316 259.0609C 159.9316 259.2362 159.9243 259.8024 159.5809 260.08z" stroke="none" fill="#000000" fill-rule="evenodd" /><path id="709" transform="matrix(1 0 0 -1 0 792)" d="M158.6768 263.988C 158.6768 264.1049 158.6823 264.1633 158.5289 264.1633C 158.3608 264.1633 157.9627 264.1268 157.685 263.8564C 157.4878 263.6519 157.3891 263.3578 157.3891 262.9852C 157.3891 262.1085 157.959 261.6318 158.6385 261.6318C 159.3764 261.6318 159.9042 262.1779 159.9042 263.062C 159.9042 263.924 159.3252 264.1633 159.2302 264.1633C 159.1353 264.1633 159.1316 264.0537 159.1316 264.0318C 159.1316 263.9368 159.159 263.924 159.2467 263.8948C 159.5097 263.7779 159.685 263.4619 159.685 263.1113C 159.685 262.3369 158.9617 262.3332 158.6768 262.3332zM158.496 262.3332C 158.2841 262.3405 158.054 262.3478 157.8713 262.4647C 157.6522 262.6035 157.5864 262.8245 157.5864 262.9852C 157.5864 263.6208 158.306 263.6355 158.496 263.6428z" stroke="none" fill="#000000" fill-rule="evenodd" /><path id="710" transform="matrix(1 0 0 -1 0 792)" d="M157.9207 264.9693L159.6138 264.9693L159.6138 264.9693L159.6138 264.5912L159.6138 264.5912L159.8713 264.5912C 159.8713 264.7447 159.8549 265.0698 159.8549 265.2817C 159.8549 265.4935 159.8713 265.8187 159.8713 265.9721L159.8713 265.9721L159.6138 265.9721L159.6138 265.9721L159.6138 265.594L159.6138 265.594L158.4686 265.594C 157.8768 265.594 157.6028 266.0598 157.6028 266.4104C 157.6028 266.5931 157.7179 266.7118 158.1344 266.7118L158.1344 266.7118L159.6138 266.7118L159.6138 266.7118L159.6138 266.3337L159.6138 266.3337L159.8713 266.3337C 159.8713 266.4872 159.8549 266.8123 159.8549 267.0241C 159.8549 267.236 159.8713 267.5611 159.8713 267.7145L159.8713 267.7145L159.6138 267.7145L159.6138 267.7145L159.6138 267.3365L159.6138 267.3365L158.1946 267.3365C 157.6248 267.3365 157.4056 267.0406 157.4056 266.4926C 157.4056 265.9666 157.7197 265.6725 157.9974 265.5337L157.9974 265.5337L157.4056 265.5337L157.4056 265.5337L157.4494 264.5912L157.4494 264.5912L157.707 264.5912C 157.707 264.9273 157.7088 264.9693 157.9207 264.9693z" stroke="none" fill="#000000" fill-rule="evenodd" /><path id="711" transform="matrix(1 0 0 -1 0 792)" d="M158.6768 270.377C 158.6768 270.4939 158.6823 270.5523 158.5289 270.5523C 158.3608 270.5523 157.9627 270.5158 157.685 270.2455C 157.4878 270.0409 157.3891 269.7469 157.3891 269.3743C 157.3891 268.4976 157.959 268.0208 158.6385 268.0208C 159.3764 268.0208 159.9042 268.567 159.9042 269.451C 159.9042 270.313 159.3252 270.5523 159.2302 270.5523C 159.1353 270.5523 159.1316 270.4427 159.1316 270.4208C 159.1316 270.3258 159.159 270.313 159.2467 270.2838C 159.5097 270.1669 159.685 269.851 159.685 269.5003C 159.685 268.7259 158.9617 268.7222 158.6768 268.7222zM158.496 268.7222C 158.2841 268.7295 158.054 268.7368 157.8713 268.8537C 157.6522 268.9925 157.5864 269.2135 157.5864 269.3743C 157.5864 270.0099 158.306 270.0245 158.496 270.0318z" stroke="none" fill="#000000" fill-rule="evenodd" /><path id="712" transform="matrix(1 0 0 -1 0 792)" d="M158.0248 271.846L157.4056 271.846L157.4056 271.846L157.4494 270.9364L157.4494 270.9364L157.707 270.9364C 157.707 271.2725 157.7088 271.3145 157.9207 271.3145L157.9207 271.3145L159.6138 271.3145L159.6138 271.3145L159.6138 270.9364L159.6138 270.9364L159.8713 270.9364C 159.8713 271.1264 159.8549 271.3712 159.8549 271.6268C 159.8549 271.8314 159.8567 272.1857 159.8713 272.383L159.8713 272.383L159.6138 272.383L159.6138 272.383L159.6138 271.9063L159.6138 271.9063L158.6549 271.9063C 158.275 271.9063 157.6028 272.0433 157.6028 272.5912C 157.6102 272.5839 157.7015 272.4871 157.8549 272.4871C 158.0814 272.4871 158.1891 272.6606 158.1891 272.8214C 158.1891 272.9748 158.0741 273.1556 157.8549 273.1556C 157.57 273.1556 157.4056 272.8597 157.4056 272.5748C 157.4056 272.1876 157.6814 271.9702 158.0248 271.846z" stroke="none" fill="#000000" fill-rule="evenodd" /><path id="713" transform="matrix(1 0 0 -1 0 792)" d="M159.4494 275.3781C 159.6248 275.3781 159.8713 275.3781 159.8713 275.9479L159.8713 275.9479L159.8713 276.2109C 159.8713 276.3205 159.8713 276.3863 159.7398 276.3863C 159.6156 276.3863 159.6138 276.3096 159.6138 276.2438C 159.6138 275.9077 159.5426 275.9096 159.4111 275.9096L159.4111 275.9096L158.233 275.9096C 157.7508 275.9096 157.3891 275.515 157.3891 274.7041C 157.3891 274.39 157.4111 273.7233 157.8932 273.7233C 158.1344 273.7233 158.2385 273.9096 158.2385 274.063C 158.2385 274.231 158.127 274.4082 157.8932 274.4082C 157.7325 274.4082 157.6394 274.3023 157.6248 274.2877C 157.5955 274.4411 157.5864 274.6164 157.5864 274.6822C 157.5864 275.0913 157.8165 275.2849 158.233 275.2849L158.233 275.2849L158.4193 275.2849C 158.4412 274.8904 158.4905 273.5041 159.2796 273.5041C 159.8056 273.5041 159.9042 274.1817 159.9042 274.5616C 159.9042 275 159.6832 275.2539 159.4494 275.3781zM158.5891 275.2849L159.1097 275.2849C 159.6357 275.2849 159.707 274.7753 159.707 274.6438C 159.707 274.3589 159.5152 274.1452 159.2741 274.1452C 158.6823 274.1452 158.6111 275.0073 158.5891 275.2849z" stroke="none" fill="#000000" fill-rule="evenodd" /><path id="714" transform="matrix(1 0 0 -1 0 792)" d="M156.0686 277.6191L156.1124 276.6493L156.1124 276.6493L156.37 276.6493C 156.37 276.9854 156.3718 277.0274 156.5837 277.0274L156.5837 277.0274L159.6138 277.0274L159.6138 277.0274L159.6138 276.6493L159.6138 276.6493L159.8713 276.6493C 159.8713 276.8246 159.8549 277.0822 159.8549 277.3233C 159.8549 277.5571 159.8713 277.8073 159.8713 277.9972L159.8713 277.9972L159.6138 277.9972L159.6138 277.9972L159.6138 277.6191z" stroke="none" fill="#000000" fill-rule="evenodd" /><path id="762" transform="matrix(1 0 0 -1 0 792)" d="M164.7185 298.7744L253.4665 298.7744" stroke="#000000" stroke-width="0.2189" fill="none" /><path id="811" transform="matrix(1 0 0 -1 0 792)" d="M164.7185 277.0753L253.4665 277.0753" stroke="#000000" stroke-width="0.2189" fill="none" /><path id="861" transform="matrix(1 0 0 -1 0 792)" d="M164.7185 255.3767L253.4665 255.3767" stroke="#000000" stroke-width="0.2189" fill="none" /><path id="907" transform="matrix(1 0 0 -1 0 792)" d="M164.7185 233.6781L253.4665 233.6781" stroke="#000000" stroke-width="0.2189" fill="none" /><path id="953" transform="matrix(1 0 0 -1 0 792)" d="M152.7785 211.9795L253.4665 211.9795" stroke="#000000" stroke-width="0.2189" fill="none" /><path id="972" transform="matrix(1 0 0 -1 0 792)" d="M256.9235 322.007L356.1501 322.007" stroke="#000000" stroke-width="0.2189" fill="none" /><path id="973" transform="matrix(1 0 0 -1 0 792)" d="M256.9235 320.6919L356.1501 320.6919" stroke="#000000" stroke-width="0.2189" fill="none" /><path id="974" transform="matrix(1 0 0 -1 0 792)" d="M261.7478 261.3854L261.578 260.5909C 261.5341 260.3717 261.3442 260.0649 261.0081 260.0649C 260.7743 260.0649 260.4328 260.2183 260.4328 260.7662C 260.4328 261.2046 260.6191 261.7525 261.3643 261.884C 261.4958 261.9059 261.5067 261.9041 261.5067 262.021C 261.5067 262.1525 261.4848 262.1525 261.3533 262.1525L261.3533 262.1525L260.3506 262.1525C 260.2483 262.1525 260.1971 262.1489 260.1971 262.0539C 260.1971 262.0101 260.2063 262.0027 260.2574 261.9443L260.2574 261.9443L260.4985 261.6978C 260.2501 261.3763 260.1971 261.0238 260.1971 260.7607C 260.1971 259.9279 260.7286 259.5334 261.2985 259.5334C 261.6565 259.5334 261.9104 259.7123 262.0273 259.8293C 262.2976 260.0923 262.3341 260.2822 262.4656 260.8813C 262.5752 261.3635 262.5917 261.453 262.7012 261.5772C 262.7889 261.6576 262.9296 261.7964 263.178 261.7964C 263.441 261.7964 263.8191 261.6539 263.8191 261.084C 263.8191 260.6676 263.7113 259.8347 262.893 259.7909C 262.7981 259.7836 262.767 259.7817 262.767 259.6649C 262.767 259.5334 262.8017 259.5334 262.9259 259.5334L262.9259 259.5334L263.9232 259.5334C 264.0328 259.5334 264.0766 259.5297 264.0766 259.632C 264.0766 259.6758 264.0638 259.6923 264.0273 259.7361L264.0273 259.7361L263.7752 259.9882C 264.0455 260.3461 264.0766 260.8575 264.0766 261.084C 264.0766 261.9827 263.4592 262.3279 262.904 262.3279C 262.2976 262.3279 261.8574 261.8822 261.7478 261.3854z" stroke="none" fill="#000000" fill-rule="evenodd" /><path id="975" transform="matrix(1 0 0 -1 0 792)" d="M261.841 263.2479L263.3423 263.2479C 263.9341 263.2479 264.0492 263.7191 264.0492 264.1136C 264.0492 264.5301 263.7387 264.7766 263.3369 264.7766L263.3369 264.7766L263.0464 264.7766L263.0464 264.7766L263.0464 264.5191L263.0464 264.5191L263.3259 264.5191C 263.6985 264.5191 263.83 264.3438 263.83 264.1903C 263.83 263.8689 263.4848 263.8725 263.3533 263.8725L263.3533 263.8725L261.841 263.8725L261.841 263.8725L261.841 264.6725L261.841 264.6725L261.5834 264.6725L261.5834 264.6725L261.5834 263.8725L261.5834 263.8725L260.5369 263.8725L260.5369 263.8725L260.5369 263.615C 261.0848 263.6077 261.6291 263.3392 261.6437 262.7986L261.6437 262.7986L261.841 262.7986z" stroke="none" fill="#000000" fill-rule="evenodd" /><path id="976" transform="matrix(1 0 0 -1 0 792)" d="M263.6218 267.5339L264.0492 267.5339L264.0492 267.5339L264.0163 268.5037L264.0163 268.5037L263.7588 268.5037C 263.7588 268.1603 263.7643 268.1257 263.5451 268.1257L263.5451 268.1257L261.5506 268.1257L261.5506 268.1257L261.5944 267.1229L261.5944 267.1229L261.8519 267.1229C 261.8519 267.459 261.8538 267.501 262.0656 267.501L262.0656 267.501L263.1122 267.501C 263.5652 267.501 263.8519 267.2161 263.8519 266.8215C 263.8519 266.3978 263.7186 266.3832 263.4191 266.3832L263.4191 266.3832L261.5506 266.3832L261.5506 266.3832L261.5944 265.3805L261.5944 265.3805L261.8519 265.3805C 261.8519 265.7165 261.8538 265.7585 262.0656 265.7585L262.0656 265.7585L263.3423 265.7585C 263.9341 265.7585 264.0492 266.1969 264.0492 266.7448C 264.0492 266.8837 264.0529 267.2782 263.6218 267.5339z" stroke="none" fill="#000000" fill-rule="evenodd" /><path id="977" transform="matrix(1 0 0 -1 0 792)" d="M263.7807 270.9251L264.0492 270.9251L264.0492 270.9251L264.0163 271.9278L264.0163 271.9278L263.7588 271.9278C 263.7588 271.5844 263.7643 271.5497 263.5451 271.5497L263.5451 271.5497L260.2136 271.5497L260.2136 271.5497L260.2574 270.5799L260.2574 270.5799L260.515 270.5799C 260.515 270.916 260.5168 270.958 260.7286 270.958L260.7286 270.958L261.7971 270.958C 261.5853 270.6804 261.5506 270.3936 261.5506 270.2183C 261.5506 269.4146 262.0382 268.8429 262.8054 268.8429C 263.5286 268.8429 264.0492 269.347 264.0492 270.158C 264.0492 270.4868 263.9195 270.7498 263.7807 270.9251zM262.0821 270.9251L263.4519 270.9251C 263.5542 270.8521 263.8519 270.6292 263.8519 270.2128C 263.8519 269.5406 263.1926 269.5443 262.8054 269.5443C 262.5424 269.5443 262.252 269.5406 262.0328 269.6867C 261.8063 269.8401 261.7478 270.0977 261.7478 270.273C 261.7478 270.5799 261.9286 270.8009 262.0821 270.9251z" stroke="none" fill="#000000" fill-rule="evenodd" /><path id="978" transform="matrix(1 0 0 -1 0 792)" d="M261.9561 274.9081C 261.883 274.9446 261.841 274.9629 261.841 275.3136L261.841 275.3136L261.5834 275.3136C 261.5981 275.1821 261.5999 275.0122 261.5999 274.8807C 261.5999 274.7419 261.5908 274.4916 261.5834 274.3821L261.5834 274.3821L261.841 274.3821C 261.841 274.3894 261.841 274.6396 261.9067 274.6396C 261.9141 274.6396 261.9725 274.6122 261.9725 274.6122L261.9725 274.6122L263.3204 273.9821L263.3204 273.9821L261.841 273.2862L261.841 273.2862L261.841 273.5821L261.841 273.5821L261.5834 273.5821C 261.5981 273.3994 261.5999 272.9026 261.5999 272.9026C 261.5999 272.7492 261.5908 272.4971 261.5834 272.278L261.5834 272.278L261.841 272.278L261.841 272.278L261.841 272.6287L261.841 272.6287L264.0163 273.6533L264.0163 273.6533L264.2793 273.5273C 264.5424 273.4031 264.9149 273.2296 264.9149 272.8423C 264.9149 272.762 264.9077 272.7547 264.893 272.7108C 264.8711 272.7547 264.7926 272.8862 264.6026 272.8862C 264.42 272.8862 264.2903 272.751 264.2903 272.5684C 264.2903 272.4149 264.3889 272.256 264.6081 272.256C 264.8857 272.256 265.1122 272.5136 265.1122 272.8423C 265.1122 273.2588 264.767 273.5766 264.4601 273.73z" stroke="none" fill="#000000" fill-rule="evenodd" /><path id="1028" transform="matrix(1 0 0 -1 0 792)" d="M269.9288 298.7744L356.1501 298.7744" stroke="#000000" stroke-width="0.2189" fill="none" /><path id="1075" transform="matrix(1 0 0 -1 0 792)" d="M269.9288 277.0753L356.1501 277.0753" stroke="#000000" stroke-width="0.2189" fill="none" /><path id="1124" transform="matrix(1 0 0 -1 0 792)" d="M269.9288 255.3767L356.1501 255.3767" stroke="#000000" stroke-width="0.2189" fill="none" /><path id="1171" transform="matrix(1 0 0 -1 0 792)" d="M269.9288 233.6781L356.1501 233.6781" stroke="#000000" stroke-width="0.2189" fill="none" /><path id="1218" transform="matrix(1 0 0 -1 0 792)" d="M256.9235 211.9795L356.1501 211.9795" stroke="#000000" stroke-width="0.2189" fill="none" /><path id="1245" transform="matrix(1 0 0 -1 0 792)" d="M359.0075 322.007L457.1231 322.007" stroke="#000000" stroke-width="0.2189" fill="none" /><path id="1246" transform="matrix(1 0 0 -1 0 792)" d="M359.0075 320.6919L457.1231 320.6919" stroke="#000000" stroke-width="0.2189" fill="none" /><path id="1247" transform="matrix(1 0 0 -1 0 792)" d="M364.5533 261.6951L364.5533 261.4375C 364.9332 261.3937 365.7971 261.2987 365.7971 260.3197L365.7971 260.3197L365.7971 259.7553L365.7971 259.7553L362.5533 259.7553L362.5533 259.7553L362.5533 260.4951L362.5533 260.4951L362.2958 260.4951C 362.3177 260.254 362.3122 259.6512 362.3122 259.3882C 362.3122 259.1471 362.3177 258.59 362.2958 258.3855L362.2958 258.3855L362.5533 258.3855L362.5533 258.3855L362.5533 258.9773L362.5533 258.9773L365.7971 258.9773L365.7971 258.9773L365.7971 258.3855L365.7971 258.3855L366.0547 258.3855L366.0547 258.3855L366.0547 261.5252z" stroke="none" fill="#000000" fill-rule="evenodd" /><path id="1248" transform="matrix(1 0 0 -1 0 792)" d="M364.8602 264.4934C 364.8602 264.6103 364.8657 264.6688 364.7122 264.6688C 364.5442 264.6688 364.146 264.6322 363.8684 264.3619C 363.6711 264.1573 363.5725 263.8633 363.5725 263.4907C 363.5725 262.614 364.1424 262.1372 364.8218 262.1372C 365.5597 262.1372 366.0876 262.6833 366.0876 263.5674C 366.0876 264.4295 365.5085 264.6688 365.4136 264.6688C 365.3186 264.6688 365.3149 264.5591 365.3149 264.5372C 365.3149 264.4423 365.3423 264.4295 365.43 264.4003C 365.6931 264.2834 365.8684 263.9674 365.8684 263.6167C 365.8684 262.8423 365.1451 262.8386 364.8602 262.8386zM364.6794 262.8386C 364.4675 262.8459 364.2373 262.8532 364.0547 262.9701C 363.8355 263.1089 363.7698 263.3299 363.7698 263.4907C 363.7698 264.1263 364.4894 264.1409 364.6794 264.1482z" stroke="none" fill="#000000" fill-rule="evenodd" /><path id="1249" transform="matrix(1 0 0 -1 0 792)" d="M364.4437 266.0063C 364.4072 265.8017 364.3506 265.4474 364.0876 265.4474C 363.7515 265.4474 363.7478 265.9515 363.7478 266.0611C 363.7478 266.4702 363.9086 266.6784 364.2081 266.7076C 364.2958 266.7076 364.3177 266.7168 364.3177 266.8337C 364.3177 266.9651 364.2958 266.9651 364.1643 266.9651L364.1643 266.9651L363.7259 266.9651C 363.6237 266.9651 363.5725 266.9615 363.5725 266.8665C 363.5725 266.8446 363.5743 266.8318 363.6766 266.62C 363.6108 266.4738 363.5725 266.2857 363.5725 266.0666C 363.5725 265.8985 363.5743 265.0583 364.2903 265.0583C 364.5095 265.0583 364.6629 265.1679 364.7506 265.2775C 364.9478 265.4967 364.9789 265.7031 365.0519 266.1268C 365.0885 266.3241 365.1579 266.735 365.4793 266.735C 365.8958 266.735 365.8903 266.2273 365.8903 266.1104C 365.8903 265.5259 365.4958 265.3871 365.2547 265.3214C 365.1816 265.2921 365.178 265.2629 365.178 265.1898C 365.178 265.0583 365.2127 265.0583 365.3369 265.0583L365.3369 265.0583L365.9341 265.0583C 366.0437 265.0583 366.0876 265.0547 366.0876 265.157C 366.0876 265.1935 366.0858 265.2044 366.0054 265.3214C 366.0054 265.3214 365.9268 265.4419 365.9122 265.4638C 366.0876 265.7122 366.0876 266.0008 366.0876 266.1104C 366.0876 266.2784 366.0912 267.1241 365.2876 267.1241C 365.0538 267.1241 364.8602 267.0126 364.7067 266.8227C 364.5533 266.6035 364.5168 266.43 364.4437 266.0063z" stroke="none" fill="#000000" fill-rule="evenodd" /><path id="1250" transform="matrix(1 0 0 -1 0 792)" d="M364.4437 268.4917C 364.4072 268.2872 364.3506 267.9329 364.0876 267.9329C 363.7515 267.9329 363.7478 268.437 363.7478 268.5465C 363.7478 268.9557 363.9086 269.1639 364.2081 269.1931C 364.2958 269.1931 364.3177 269.2022 364.3177 269.3192C 364.3177 269.4506 364.2958 269.4506 364.1643 269.4506L364.1643 269.4506L363.7259 269.4506C 363.6237 269.4506 363.5725 269.447 363.5725 269.352C 363.5725 269.3301 363.5743 269.3173 363.6766 269.1054C 363.6108 268.9593 363.5725 268.7712 363.5725 268.552C 363.5725 268.384 363.5743 267.5438 364.2903 267.5438C 364.5095 267.5438 364.6629 267.6534 364.7506 267.763C 364.9478 267.9821 364.9789 268.1885 365.0519 268.6123C 365.0885 268.8096 365.1579 269.2205 365.4793 269.2205C 365.8958 269.2205 365.8903 268.7127 365.8903 268.5959C 365.8903 268.0114 365.4958 267.8726 365.2547 267.8068C 365.1816 267.7776 365.178 267.7484 365.178 267.6753C 365.178 267.5438 365.2127 267.5438 365.3369 267.5438L365.3369 267.5438L365.9341 267.5438C 366.0437 267.5438 366.0876 267.5402 366.0876 267.6424C 366.0876 267.679 366.0858 267.6899 366.0054 267.8068C 366.0054 267.8068 365.9268 267.9274 365.9122 267.9493C 366.0876 268.1977 366.0876 268.4863 366.0876 268.5959C 366.0876 268.7639 366.0912 269.6096 365.2876 269.6096C 365.0538 269.6096 364.8602 269.4981 364.7067 269.3082C 364.5533 269.089 364.5168 268.9155 364.4437 268.4917z" stroke="none" fill="#000000" fill-rule="evenodd" /><path id="1251" transform="matrix(1 0 0 -1 0 792)" d="M364.8602 272.7909C 364.1296 272.7909 363.5725 272.285 363.5725 271.3936C 363.5725 270.495 364.1369 269.9964 364.8602 269.9964C 365.5396 269.9964 366.0876 270.4731 366.0876 271.3936C 366.0876 272.3142 365.5396 272.7909 364.8602 272.7909zM365.8684 271.3936C 365.8684 270.6923 365.2821 270.6978 364.7999 270.6978C 364.5588 270.6978 364.2775 270.6959 364.0876 270.7909C 363.8903 270.8932 363.7698 271.1234 363.7698 271.3936C 363.7698 271.6201 363.8593 271.8503 364.0492 271.9745C 364.2392 272.084 364.5369 272.0895 364.7999 272.0895C 365.2821 272.0895 365.8684 272.0877 365.8684 271.3936z" stroke="none" fill="#000000" fill-rule="evenodd" /><path id="1252" transform="matrix(1 0 0 -1 0 792)" d="M364.104 273.5964L365.7971 273.5964L365.7971 273.5964L365.7971 273.2183L365.7971 273.2183L366.0547 273.2183C 366.0547 273.3717 366.0382 273.6968 366.0382 273.9087C 366.0382 274.1206 366.0547 274.4457 366.0547 274.5991L366.0547 274.5991L365.7971 274.5991L365.7971 274.5991L365.7971 274.221L365.7971 274.221L364.6519 274.221C 364.0602 274.221 363.7862 274.6868 363.7862 275.0375C 363.7862 275.2201 363.9012 275.3388 364.3177 275.3388L364.3177 275.3388L365.7971 275.3388L365.7971 275.3388L365.7971 274.9608L365.7971 274.9608L366.0547 274.9608C 366.0547 275.1142 366.0382 275.4393 366.0382 275.6512C 366.0382 275.863 366.0547 276.1881 366.0547 276.3416L366.0547 276.3416L365.7971 276.3416L365.7971 276.3416L365.7971 275.9635L365.7971 275.9635L364.378 275.9635C 363.8081 275.9635 363.5889 275.6676 363.5889 275.1197C 363.5889 274.5936 363.9031 274.2996 364.1807 274.1608L364.1807 274.1608L363.5889 274.1608L363.5889 274.1608L363.6328 273.2183L363.6328 273.2183L363.8903 273.2183C 363.8903 273.5544 363.8922 273.5964 364.104 273.5964z" stroke="none" fill="#000000" fill-rule="evenodd" /><path id="1302" transform="matrix(1 0 0 -1 0 792)" d="M370.9013 298.7744L457.1226 298.7744" stroke="#000000" stroke-width="0.2189" fill="none" /><path id="1349" transform="matrix(1 0 0 -1 0 792)" d="M370.9013 277.0753L457.1226 277.0753" stroke="#000000" stroke-width="0.2189" fill="none" /><path id="1397" transform="matrix(1 0 0 -1 0 792)" d="M370.9013 255.3767L457.1226 255.3767" stroke="#000000" stroke-width="0.2189" fill="none" /><path id="1444" transform="matrix(1 0 0 -1 0 792)" d="M370.9013 233.6781L457.1226 233.6781" stroke="#000000" stroke-width="0.2189" fill="none" /><path id="1491" transform="matrix(1 0 0 -1 0 792)" d="M359.0075 211.9795L457.1231 211.9795" stroke="#000000" stroke-width="0.2189" fill="none" /></g></g></svg>