<svg xmlns="http://www.w3.org/2000/svg" xmlns:xlink="http://www.w3.org/1999/xlink" id="body_6" preserveAspectRatio="xMinYMin meet" viewBox="0 0 816 1056"><defs><clipPath id="1"><path id="" clip-rule="evenodd" transform="matrix(1 0 0 1 0 0)" d="M0 792L0 0L0 0L612 0L612 0L612 792L612 792L0 792z" /></clipPath><clipPath id="2"><path id="" clip-rule="evenodd" transform="matrix(1 0 0 1 0 0)" d="M133.768 619.588L477.4959 619.588L477.4959 619.588L477.4959 509.4294L477.4959 509.4294L133.768 509.4294z" /></clipPath><clipPath id="3"><path id="" clip-rule="evenodd" transform="matrix(1 0 0 1 0 0)" d="M134.265 619.2567L477.4959 619.2567L477.4959 619.2567L477.4959 509.4294L477.4959 509.4294L134.265 509.4294z" /></clipPath><clipPath id="4"><path id="" clip-rule="evenodd" transform="matrix(1 0 0 1 0 0)" d="M164.6265 599.4299L443.49 599.4299L443.49 599.4299L443.49 518.0947L443.49 518.0947L164.6265 518.0947z" /></clipPath><clipPath id="5"><path id="" clip-rule="evenodd" transform="matrix(1 0 0 1 0 0)" d="M134.265 619.2567L477.4959 619.2567L477.4959 619.2567L477.4959 509.4294L477.4959 509.4294L134.265 509.4294z" /></clipPath><clipPath id="6"><path id="" clip-rule="evenodd" transform="matrix(1 0 0 1 0 0)" d="M451.3775 599.4315L455.4444 599.4315L455.4444 599.4315L455.4444 518.0964L455.4444 518.0964L451.3775 518.0964z" /></clipPath><clipPath id="7"><path id="" clip-rule="evenodd" transform="matrix(1 0 0 1 0 0)" d="M134.265 619.2567L477.4959 619.2567L477.4959 619.2567L477.4959 509.4294L477.4959 509.4294L134.265 509.4294z" /></clipPath></defs><g transform="matrix(1.333333 0 0 1.333333 0 0)"><g clip-path="url(#1)"><g clip-path="url(#2)"><g clip-path="url(#3)"><path id="1581" transform="matrix(1 0 0 -1 0 792)" d="M134.3196 172.798L477.7717 172.798L477.7717 283.0137L134.3196 283.0137z" stroke="none" fill="#FFFFFF" fill-rule="nonzero" /><path id="1582" transform="matrix(1 0 0 -1 0 792)" d="M164.6262 192.5701L443.4897 192.5701L443.4897 273.9052L164.6262 273.9052z" stroke="none" fill="#FFFFFF" fill-rule="nonzero" /></g><g clip-path="url(#4)"><g transform="matrix(0.5963472 0 0 0.5963472 164.6261 517.7303)"><g transform="matrix(1 0 0 1 0 0)"><image x="0" y="0" xlink:href="img_07.png" width="468" height="137" /></g></g></g><g clip-path="url(#5)"><path id="1584" transform="matrix(1 0 0 -1 0 792)" d="M170.436 192.5701L170.436 189.6712" stroke="none" fill="#000000" fill-rule="nonzero" /><path id="1585" transform="matrix(1 0 0 -1 0 792)" d="M170.436 192.5701L170.436 189.6712" stroke="#000000" stroke-width="0.662608" fill="none" /><path id="1586" transform="matrix(1 0 0 -1 0 792)" d="M170.4362 186.6284C 171.1071 186.6284 171.6206 186.3551 171.9851 185.825C 172.3412 185.2866 172.5235 184.508 172.5235 183.4975C 172.5235 182.4788 172.3412 181.7002 171.9851 181.1701C 171.6206 180.64 171.1071 180.375 170.4362 180.375C 169.757 180.375 169.2352 180.64 168.8791 181.1701C 168.5229 181.7002 168.349 182.4788 168.349 183.4975C 168.349 184.508 168.5229 185.2866 168.8791 185.825C 169.2352 186.3551 169.757 186.6284 170.4362 186.6284M170.4362 185.9823C 170.0138 185.9823 169.6991 185.7753 169.4837 185.3611C 169.2684 184.947 169.169 184.3258 169.169 183.4975C 169.169 182.6693 169.2684 182.0481 169.4837 181.634C 169.6991 181.2198 170.0138 181.0128 170.4362 181.0128C 170.8586 181.0128 171.1734 181.2198 171.3887 181.634C 171.5958 182.0481 171.7035 182.6693 171.7035 183.4975C 171.7035 184.3258 171.5958 184.947 171.3887 185.3611C 171.1734 185.7753 170.8586 185.9823 170.4362 185.9823" stroke="none" fill="#000000" fill-rule="evenodd" /><path id="1587" transform="matrix(1 0 0 -1 0 792)" d="M182.0552 192.5701L182.0552 189.6712" stroke="none" fill="#000000" fill-rule="nonzero" /><path id="1588" transform="matrix(1 0 0 -1 0 792)" d="M182.0552 192.5701L182.0552 189.6712" stroke="#000000" stroke-width="0.662608" fill="none" /><path id="1589" transform="matrix(1 0 0 -1 0 792)" d="M180.4486 181.1701L181.7821 181.1701L181.7821 181.1701L181.7821 185.7753L181.7821 185.7753L180.3327 185.4854L180.3327 185.4854L180.3327 186.2308L180.3327 186.2308L181.7739 186.5207L181.7739 186.5207L182.5938 186.5207L182.5938 186.5207L182.5938 181.1701L182.5938 181.1701L183.9273 181.1701L183.9273 181.1701L183.9273 180.4827L183.9273 180.4827L180.4486 180.4827L180.4486 180.4827L180.4486 181.1701" stroke="none" fill="#000000" fill-rule="evenodd" /><path id="1590" transform="matrix(1 0 0 -1 0 792)" d="M193.6745 192.5701L193.6745 189.6712" stroke="none" fill="#000000" fill-rule="nonzero" /><path id="1591" transform="matrix(1 0 0 -1 0 792)" d="M193.6745 192.5701L193.6745 189.6712" stroke="#000000" stroke-width="0.662608" fill="none" /><path id="1592" transform="matrix(1 0 0 -1 0 792)" d="M192.6311 181.1701L195.4803 181.1701L195.4803 181.1701L195.4803 180.4827L195.4803 180.4827L191.6455 180.4827L191.6455 180.4827L191.6455 181.1701C 191.9519 181.4849 192.3743 181.9156 192.9127 182.4622C 193.4428 183.0006 193.7824 183.3485 193.9232 183.5058C 194.1882 183.7957 194.3705 184.0442 194.4698 184.2513C 194.5692 184.45 194.6272 184.6571 194.6272 184.8559C 194.6272 185.1706 194.5113 185.4357 194.2876 185.6345C 194.064 185.8332 193.7741 185.9409 193.4097 185.9409C 193.1529 185.9409 192.8796 185.8912 192.598 185.8084C 192.3164 185.7173 192.0099 185.5848 191.6869 185.4026L191.6869 185.4026L191.6869 186.2308C 192.0182 186.3633 192.3246 186.4627 192.6063 186.529C 192.8879 186.5952 193.1529 186.6284 193.3931 186.6284C 194.0143 186.6284 194.5113 186.471 194.884 186.1563C 195.2567 185.8415 195.4472 185.4274 195.4472 184.9056C 195.4472 184.6571 195.3975 184.4169 195.3064 184.2016C 195.2153 183.9779 195.0496 183.7129 194.8011 183.4147C 194.7349 183.3319 194.5195 183.1083 194.1551 182.7355C 193.7907 182.3628 193.2854 181.841 192.6311 181.1701" stroke="none" fill="#000000" fill-rule="evenodd" /><path id="1593" transform="matrix(1 0 0 -1 0 792)" d="M205.2937 192.5701L205.2937 189.6712" stroke="none" fill="#000000" fill-rule="nonzero" /><path id="1594" transform="matrix(1 0 0 -1 0 792)" d="M205.2937 192.5701L205.2937 189.6712" stroke="#000000" stroke-width="0.662608" fill="none" /><path id="1595" transform="matrix(1 0 0 -1 0 792)" d="M206.0229 183.7377C 206.4122 183.6549 206.7187 183.481 206.934 183.2159C 207.1494 182.9509 207.2653 182.6196 207.2653 182.2386C 207.2653 181.6422 207.0582 181.1784 206.6524 180.8554C 206.2383 180.5324 205.6585 180.375 204.9048 180.375C 204.648 180.375 204.3829 180.3999 204.1179 180.4496C 203.8529 180.491 203.5713 180.5655 203.2896 180.6649L203.2896 180.6649L203.2896 181.4518C 203.5133 181.3192 203.7618 181.2198 204.0351 181.1536C 204.3001 181.0873 204.5817 181.0542 204.8799 181.0542C 205.3934 181.0542 205.7827 181.1536 206.0478 181.3524C 206.3128 181.5511 206.4536 181.8493 206.4536 182.2386C 206.4536 182.5865 206.3294 182.8681 206.0809 183.0668C 205.8324 183.2656 205.4845 183.3733 205.0373 183.3733L205.0373 183.3733L204.3333 183.3733L204.3333 183.3733L204.3333 184.0442L204.3333 184.0442L205.0704 184.0442C 205.468 184.0442 205.7744 184.1187 205.9898 184.2844C 206.2051 184.4418 206.3128 184.6737 206.3128 184.9801C 206.3128 185.2866 206.1968 185.5268 205.9815 185.6925C 205.7579 185.8581 205.4431 185.9409 205.0373 185.9409C 204.8136 185.9409 204.5735 185.9161 204.3167 185.8664C 204.0599 185.8167 203.7783 185.7422 203.4719 185.6427L203.4719 185.6427L203.4719 186.3716C 203.7783 186.4545 204.0682 186.5207 204.3415 186.5621C 204.6066 186.6035 204.8633 186.6284 205.1118 186.6284C 205.7247 186.6284 206.2134 186.4875 206.5779 186.2059C 206.9423 185.9243 207.1245 185.5433 207.1245 185.063C 207.1245 184.7317 207.0251 184.45 206.8346 184.2181C 206.6441 183.9862 206.3708 183.8206 206.0229 183.7377" stroke="none" fill="#000000" fill-rule="evenodd" /><path id="1596" transform="matrix(1 0 0 -1 0 792)" d="M216.9129 192.5701L216.9129 189.6712" stroke="none" fill="#000000" fill-rule="nonzero" /><path id="1597" transform="matrix(1 0 0 -1 0 792)" d="M216.9129 192.5701L216.9129 189.6712" stroke="#000000" stroke-width="0.662608" fill="none" /><path id="1598" transform="matrix(1 0 0 -1 0 792)" d="M217.1949 186.5207L218.2219 186.5207L218.2219 186.5207L218.2219 182.5865L218.2219 182.5865L219.0833 182.5865L219.0833 182.5865L219.0833 181.9073L219.0833 181.9073L218.2219 181.9073L218.2219 181.9073L218.2219 180.4827L218.2219 180.4827L217.4102 180.4827L217.4102 180.4827L217.4102 181.9073L217.4102 181.9073L214.6853 181.9073L214.6853 181.9073L214.6853 182.6941L214.6853 182.6941L217.1949 186.5207M217.4102 185.8084L215.3479 182.5865L215.3479 182.5865L217.4102 182.5865L217.4102 182.5865L217.4102 185.8084" stroke="none" fill="#000000" fill-rule="evenodd" /><path id="1599" transform="matrix(1 0 0 -1 0 792)" d="M228.5325 192.5701L228.5325 189.6712" stroke="none" fill="#000000" fill-rule="nonzero" /><path id="1600" transform="matrix(1 0 0 -1 0 792)" d="M228.5325 192.5701L228.5325 189.6712" stroke="#000000" stroke-width="0.662608" fill="none" /><path id="1601" transform="matrix(1 0 0 -1 0 792)" d="M226.7932 186.5207L229.9986 186.5207L229.9986 186.5207L229.9986 185.8333L229.9986 185.8333L227.5386 185.8333L227.5386 185.8333L227.5386 184.3506C 227.6546 184.3921 227.7788 184.4252 227.8948 184.4418C 228.0107 184.4583 228.135 184.4749 228.2509 184.4749C 228.9218 184.4749 229.4519 184.2844 229.8495 183.92C 230.247 183.5472 230.4458 183.0503 230.4458 182.4208C 230.4458 181.7665 230.2387 181.2612 229.8329 180.9051C 229.427 180.5489 228.8555 180.375 228.1267 180.375C 227.8699 180.375 227.6132 180.3999 227.3481 180.433C 227.0831 180.4744 226.818 180.5324 226.5364 180.6235L226.5364 180.6235L226.5364 181.4435C 226.7766 181.3109 227.0251 181.2115 227.2901 181.1453C 227.5469 181.079 227.8202 181.0542 228.1101 181.0542C 228.5739 181.0542 228.9467 181.1701 229.22 181.4186C 229.485 181.6671 229.6258 181.9984 229.6258 182.4208C 229.6258 182.8349 229.485 183.1662 229.22 183.4147C 228.9467 183.6632 228.5739 183.7874 228.1101 183.7874C 227.8948 183.7874 227.6711 183.7626 227.4558 183.7129C 227.2404 183.6632 227.0168 183.5887 226.7932 183.4893L226.7932 183.4893L226.7932 186.5207" stroke="none" fill="#000000" fill-rule="evenodd" /><path id="1602" transform="matrix(1 0 0 -1 0 792)" d="M240.1514 192.5701L240.1514 189.6712" stroke="none" fill="#000000" fill-rule="nonzero" /><path id="1603" transform="matrix(1 0 0 -1 0 792)" d="M240.1514 192.5701L240.1514 189.6712" stroke="#000000" stroke-width="0.662608" fill="none" /><path id="1604" transform="matrix(1 0 0 -1 0 792)" d="M241.875 186.3882L241.875 185.6427C 241.6679 185.7422 241.4608 185.8167 241.2538 185.8664C 241.0384 185.9161 240.8314 185.9409 240.6326 185.9409C 240.0859 185.9409 239.6718 185.7587 239.3902 185.3943C 239.1086 185.0298 238.9429 184.4749 238.9098 183.746C 239.0672 183.9779 239.266 184.1602 239.5061 184.2844C 239.7464 184.4086 240.0114 184.4749 240.3013 184.4749C 240.9059 184.4749 241.3863 184.2844 241.7342 183.92C 242.082 183.5555 242.2643 183.0503 242.2643 182.4208C 242.2643 181.7996 242.0738 181.3027 241.7093 180.9299C 241.3449 180.5572 240.8562 180.375 240.2516 180.375C 239.5558 180.375 239.0175 180.64 238.653 181.1701C 238.2803 181.7002 238.0981 182.4788 238.0981 183.4975C 238.0981 184.45 238.3217 185.212 238.7773 185.7753C 239.2245 186.3385 239.8374 186.6284 240.5995 186.6284C 240.7982 186.6284 241.0053 186.6035 241.2206 186.5704C 241.4277 186.529 241.6431 186.471 241.875 186.3882M240.2516 183.8289C 239.8871 183.8289 239.5973 183.6963 239.3819 183.4478C 239.1666 183.1994 239.0589 182.8515 239.0589 182.4208C 239.0589 181.9818 239.1666 181.634 239.3819 181.3855C 239.5973 181.137 239.8871 181.0128 240.2516 181.0128C 240.616 181.0128 240.9059 181.137 241.1213 181.3855C 241.3366 181.634 241.4443 181.9818 241.4443 182.4208C 241.4443 182.8515 241.3366 183.1994 241.1213 183.4478C 240.9059 183.6963 240.616 183.8289 240.2516 183.8289" stroke="none" fill="#000000" fill-rule="evenodd" /><path id="1605" transform="matrix(1 0 0 -1 0 792)" d="M251.771 192.5701L251.771 189.6712" stroke="none" fill="#000000" fill-rule="nonzero" /><path id="1606" transform="matrix(1 0 0 -1 0 792)" d="M251.771 192.5701L251.771 189.6712" stroke="#000000" stroke-width="0.662608" fill="none" /><path id="1607" transform="matrix(1 0 0 -1 0 792)" d="M249.8163 186.5207L253.7009 186.5207L253.7009 186.5207L253.7009 186.1728L253.7009 186.1728L251.506 180.4827L251.506 180.4827L250.6529 180.4827L250.6529 180.4827L252.7152 185.8333L252.7152 185.8333L249.8163 185.8333L249.8163 185.8333L249.8163 186.5207" stroke="none" fill="#000000" fill-rule="evenodd" /><path id="1608" transform="matrix(1 0 0 -1 0 792)" d="M263.3899 192.5701L263.3899 189.6712" stroke="none" fill="#000000" fill-rule="nonzero" /><path id="1609" transform="matrix(1 0 0 -1 0 792)" d="M263.3899 192.5701L263.3899 189.6712" stroke="#000000" stroke-width="0.662608" fill="none" /><path id="1610" transform="matrix(1 0 0 -1 0 792)" d="M262.2725 184.9884C 262.2725 184.6737 262.3636 184.4252 262.5624 184.2513C 262.7612 184.0773 263.0345 183.9945 263.3907 183.9945C 263.7386 183.9945 264.0119 184.0773 264.2107 184.2513C 264.4094 184.4252 264.5088 184.6737 264.5088 184.9884C 264.5088 185.3032 264.4094 185.5433 264.2107 185.7173C 264.0119 185.8912 263.7386 185.9823 263.3907 185.9823C 263.0345 185.9823 262.7612 185.8912 262.5624 185.7173C 262.3636 185.5433 262.2725 185.3032 262.2725 184.9884M262.5707 183.6963C 262.2228 183.7792 261.9495 183.9448 261.7507 184.185C 261.5519 184.4252 261.4608 184.7151 261.4608 185.063C 261.4608 185.5433 261.6265 185.9243 261.9744 186.2059C 262.3139 186.4875 262.786 186.6284 263.3907 186.6284C 263.987 186.6284 264.4591 186.4875 264.807 186.2059C 265.1466 185.9243 265.3205 185.5433 265.3205 185.063C 265.3205 184.7151 265.2211 184.4252 265.0223 184.185C 264.8235 183.9448 264.5585 183.7792 264.2107 183.6963C 264.5999 183.6052 264.9064 183.423 265.13 183.158C 265.3454 182.8929 265.4613 182.5616 265.4613 182.1806C 265.4613 181.5925 265.2791 181.1453 264.9229 180.8388C 264.5585 180.5241 264.0533 180.375 263.3907 180.375C 262.7198 180.375 262.2063 180.5241 261.8501 180.8388C 261.494 181.1453 261.32 181.5925 261.32 182.1806C 261.32 182.5616 261.4277 182.8929 261.6513 183.158C 261.8667 183.423 262.1731 183.6052 262.5707 183.6963M263.3907 183.3485C 263.0014 183.3485 262.6949 183.2408 262.4713 183.0337C 262.2477 182.8267 262.14 182.545 262.14 182.1806C 262.14 181.8162 262.2477 181.5263 262.4713 181.3192C 262.6949 181.1122 263.0014 181.0128 263.3907 181.0128C 263.7717 181.0128 264.0781 181.1122 264.3018 181.3275C 264.5254 181.5346 264.6413 181.8162 264.6413 182.1806C 264.6413 182.545 264.5254 182.8267 264.31 183.0337C 264.0864 183.2408 263.78 183.3485 263.3907 183.3485" stroke="none" fill="#000000" fill-rule="evenodd" /><path id="1611" transform="matrix(1 0 0 -1 0 792)" d="M275.0095 192.5701L275.0095 189.6712" stroke="none" fill="#000000" fill-rule="nonzero" /><path id="1612" transform="matrix(1 0 0 -1 0 792)" d="M275.0095 192.5701L275.0095 189.6712" stroke="#000000" stroke-width="0.662608" fill="none" /><path id="1613" transform="matrix(1 0 0 -1 0 792)" d="M274.9101 183.1662C 275.2746 183.1662 275.5645 183.2905 275.7798 183.539C 275.9951 183.7874 276.1028 184.1353 276.1028 184.5743C 276.1028 185.005 275.9951 185.3529 275.7798 185.6013C 275.5645 185.8498 275.2746 185.9823 274.9101 185.9823C 274.5457 185.9823 274.2558 185.8498 274.0404 185.6013C 273.8251 185.3529 273.7174 185.005 273.7174 184.5743C 273.7174 184.1353 273.8251 183.7874 274.0404 183.539C 274.2558 183.2905 274.5457 183.1662 274.9101 183.1662M273.2867 180.6069L273.2867 181.3524C 273.4855 181.253 273.6926 181.1784 273.9079 181.1287C 274.115 181.079 274.3221 181.0542 274.5291 181.0542C 275.0592 181.0542 275.4733 181.2281 275.7549 181.5925C 276.0366 181.957 276.2022 182.5036 276.2519 183.2491C 276.0862 183.0172 275.8875 182.8349 275.6555 182.7107C 275.4153 182.5865 275.1503 182.5285 274.8604 182.5285C 274.2475 182.5285 273.7671 182.7107 273.4193 183.0751C 273.0714 183.4396 272.8974 183.9365 272.8974 184.5743C 272.8974 185.1872 273.0797 185.6842 273.4441 186.0652C 273.8085 186.4379 274.2972 186.6284 274.9101 186.6284C 275.6059 186.6284 276.1442 186.3551 276.5087 185.825C 276.8731 185.2866 277.0636 184.508 277.0636 183.4975C 277.0636 182.5368 276.8317 181.7831 276.3844 181.2198C 275.9289 180.6566 275.3242 180.375 274.5623 180.375C 274.3552 180.375 274.1481 180.3999 273.941 180.433C 273.7257 180.4661 273.5103 180.5241 273.2867 180.6069" stroke="none" fill="#000000" fill-rule="evenodd" /><path id="1614" transform="matrix(1 0 0 -1 0 792)" d="M286.6292 192.5701L286.6292 189.6712" stroke="none" fill="#000000" fill-rule="nonzero" /><path id="1615" transform="matrix(1 0 0 -1 0 792)" d="M286.6292 192.5701L286.6292 189.6712" stroke="#000000" stroke-width="0.662608" fill="none" /><path id="1616" transform="matrix(1 0 0 -1 0 792)" d="M282.3885 181.1701L283.722 181.1701L283.722 181.1701L283.722 185.7753L283.722 185.7753L282.2725 185.4854L282.2725 185.4854L282.2725 186.2308L282.2725 186.2308L283.7137 186.5207L283.7137 186.5207L284.5337 186.5207L284.5337 186.5207L284.5337 181.1701L284.5337 181.1701L285.8672 181.1701L285.8672 181.1701L285.8672 180.4827L285.8672 180.4827L282.3885 180.4827L282.3885 180.4827L282.3885 181.1701" stroke="none" fill="#000000" fill-rule="evenodd" /><path id="1617" transform="matrix(1 0 0 -1 0 792)" d="M289.2631 186.6284C 289.9339 186.6284 290.4475 186.3551 290.8119 185.825C 291.1681 185.2866 291.3503 184.508 291.3503 183.4975C 291.3503 182.4788 291.1681 181.7002 290.8119 181.1701C 290.4475 180.64 289.9339 180.375 289.2631 180.375C 288.5839 180.375 288.0621 180.64 287.7059 181.1701C 287.3498 181.7002 287.1758 182.4788 287.1758 183.4975C 287.1758 184.508 287.3498 185.2866 287.7059 185.825C 288.0621 186.3551 288.5839 186.6284 289.2631 186.6284M289.2631 185.9823C 288.8406 185.9823 288.5259 185.7753 288.3105 185.3611C 288.0952 184.947 287.9958 184.3258 287.9958 183.4975C 287.9958 182.6693 288.0952 182.0481 288.3105 181.634C 288.5259 181.2198 288.8406 181.0128 289.2631 181.0128C 289.6855 181.0128 290.0002 181.2198 290.2155 181.634C 290.4226 182.0481 290.5303 182.6693 290.5303 183.4975C 290.5303 184.3258 290.4226 184.947 290.2155 185.3611C 290.0002 185.7753 289.6855 185.9823 289.2631 185.9823" stroke="none" fill="#000000" fill-rule="evenodd" /><path id="1618" transform="matrix(1 0 0 -1 0 792)" d="M298.248 192.5701L298.248 189.6712" stroke="none" fill="#000000" fill-rule="nonzero" /><path id="1619" transform="matrix(1 0 0 -1 0 792)" d="M298.248 192.5701L298.248 189.6712" stroke="#000000" stroke-width="0.662608" fill="none" /><path id="1620" transform="matrix(1 0 0 -1 0 792)" d="M294.0081 181.1701L295.3416 181.1701L295.3416 181.1701L295.3416 185.7753L295.3416 185.7753L293.8922 185.4854L293.8922 185.4854L293.8922 186.2308L293.8922 186.2308L295.3333 186.5207L295.3333 186.5207L296.1533 186.5207L296.1533 186.5207L296.1533 181.1701L296.1533 181.1701L297.4868 181.1701L297.4868 181.1701L297.4868 180.4827L297.4868 180.4827L294.0081 180.4827L294.0081 180.4827L294.0081 181.1701" stroke="none" fill="#000000" fill-rule="evenodd" /><path id="1621" transform="matrix(1 0 0 -1 0 792)" d="M299.2758 181.1701L300.6093 181.1701L300.6093 181.1701L300.6093 185.7753L300.6093 185.7753L299.1599 185.4854L299.1599 185.4854L299.1599 186.2308L299.1599 186.2308L300.6011 186.5207L300.6011 186.5207L301.4211 186.5207L301.4211 186.5207L301.4211 181.1701L301.4211 181.1701L302.7545 181.1701L302.7545 181.1701L302.7545 180.4827L302.7545 180.4827L299.2758 180.4827L299.2758 180.4827L299.2758 181.1701" stroke="none" fill="#000000" fill-rule="evenodd" /><path id="1622" transform="matrix(1 0 0 -1 0 792)" d="M309.8677 192.5701L309.8677 189.6712" stroke="none" fill="#000000" fill-rule="nonzero" /><path id="1623" transform="matrix(1 0 0 -1 0 792)" d="M309.8677 192.5701L309.8677 189.6712" stroke="#000000" stroke-width="0.662608" fill="none" /><path id="1624" transform="matrix(1 0 0 -1 0 792)" d="M305.627 181.1701L306.9604 181.1701L306.9604 181.1701L306.9604 185.7753L306.9604 185.7753L305.511 185.4854L305.511 185.4854L305.511 186.2308L305.511 186.2308L306.9522 186.5207L306.9522 186.5207L307.7722 186.5207L307.7722 186.5207L307.7722 181.1701L307.7722 181.1701L309.1057 181.1701L309.1057 181.1701L309.1057 180.4827L309.1057 180.4827L305.627 180.4827L305.627 180.4827L305.627 181.1701" stroke="none" fill="#000000" fill-rule="evenodd" /><path id="1625" transform="matrix(1 0 0 -1 0 792)" d="M311.4579 181.1701L314.3071 181.1701L314.3071 181.1701L314.3071 180.4827L314.3071 180.4827L310.4723 180.4827L310.4723 180.4827L310.4723 181.1701C 310.7787 181.4849 311.2011 181.9156 311.7395 182.4622C 312.2696 183.0006 312.6092 183.3485 312.75 183.5058C 313.015 183.7957 313.1973 184.0442 313.2966 184.2513C 313.396 184.45 313.454 184.6571 313.454 184.8559C 313.454 185.1706 313.338 185.4357 313.1144 185.6345C 312.8908 185.8332 312.6009 185.9409 312.2365 185.9409C 311.9797 185.9409 311.7064 185.8912 311.4248 185.8084C 311.1432 185.7173 310.8367 185.5848 310.5137 185.4026L310.5137 185.4026L310.5137 186.2308C 310.845 186.3633 311.1515 186.4627 311.433 186.529C 311.7147 186.5952 311.9797 186.6284 312.2199 186.6284C 312.8411 186.6284 313.338 186.471 313.7108 186.1563C 314.0835 185.8415 314.274 185.4274 314.274 184.9056C 314.274 184.6571 314.2243 184.4169 314.1332 184.2016C 314.0421 183.9779 313.8764 183.7129 313.628 183.4147C 313.5617 183.3319 313.3463 183.1083 312.9819 182.7355C 312.6175 182.3628 312.1122 181.841 311.4579 181.1701" stroke="none" fill="#000000" fill-rule="evenodd" /><path id="1626" transform="matrix(1 0 0 -1 0 792)" d="M321.4865 192.5701L321.4865 189.6712" stroke="none" fill="#000000" fill-rule="nonzero" /><path id="1627" transform="matrix(1 0 0 -1 0 792)" d="M321.4865 192.5701L321.4865 189.6712" stroke="#000000" stroke-width="0.662608" fill="none" /><path id="1628" transform="matrix(1 0 0 -1 0 792)" d="M317.2466 181.1701L318.5801 181.1701L318.5801 181.1701L318.5801 185.7753L318.5801 185.7753L317.1306 185.4854L317.1306 185.4854L317.1306 186.2308L317.1306 186.2308L318.5718 186.5207L318.5718 186.5207L319.3918 186.5207L319.3918 186.5207L319.3918 181.1701L319.3918 181.1701L320.7253 181.1701L320.7253 181.1701L320.7253 180.4827L320.7253 180.4827L317.2466 180.4827L317.2466 180.4827L317.2466 181.1701" stroke="none" fill="#000000" fill-rule="evenodd" /><path id="1629" transform="matrix(1 0 0 -1 0 792)" d="M324.85 183.7377C 325.2393 183.6549 325.5458 183.481 325.7611 183.2159C 325.9765 182.9509 326.0924 182.6196 326.0924 182.2386C 326.0924 181.6422 325.8853 181.1784 325.4795 180.8554C 325.0654 180.5324 324.4856 180.375 323.7319 180.375C 323.4751 180.375 323.2101 180.3999 322.945 180.4496C 322.68 180.491 322.3984 180.5655 322.1168 180.6649L322.1168 180.6649L322.1168 181.4518C 322.3404 181.3192 322.5889 181.2198 322.8622 181.1536C 323.1273 181.0873 323.4089 181.0542 323.707 181.0542C 324.2206 181.0542 324.6098 181.1536 324.8749 181.3524C 325.1399 181.5511 325.2807 181.8493 325.2807 182.2386C 325.2807 182.5865 325.1565 182.8681 324.908 183.0668C 324.6595 183.2656 324.3117 183.3733 323.8644 183.3733L323.8644 183.3733L323.1604 183.3733L323.1604 183.3733L323.1604 184.0442L323.1604 184.0442L323.8976 184.0442C 324.2951 184.0442 324.6016 184.1187 324.8169 184.2844C 325.0323 184.4418 325.1399 184.6737 325.1399 184.9801C 325.1399 185.2866 325.024 185.5268 324.8086 185.6925C 324.585 185.8581 324.2703 185.9409 323.8644 185.9409C 323.6408 185.9409 323.4006 185.9161 323.1438 185.8664C 322.8871 185.8167 322.6055 185.7422 322.299 185.6427L322.299 185.6427L322.299 186.3716C 322.6055 186.4545 322.8954 186.5207 323.1687 186.5621C 323.4337 186.6035 323.6905 186.6284 323.939 186.6284C 324.5519 186.6284 325.0405 186.4875 325.405 186.2059C 325.7694 185.9243 325.9516 185.5433 325.9516 185.063C 325.9516 184.7317 325.8523 184.45 325.6617 184.2181C 325.4712 183.9862 325.1979 183.8206 324.85 183.7377" stroke="none" fill="#000000" fill-rule="evenodd" /><path id="1630" transform="matrix(1 0 0 -1 0 792)" d="M333.1061 192.5701L333.1061 189.6712" stroke="none" fill="#000000" fill-rule="nonzero" /><path id="1631" transform="matrix(1 0 0 -1 0 792)" d="M333.1061 192.5701L333.1061 189.6712" stroke="#000000" stroke-width="0.662608" fill="none" /><path id="1632" transform="matrix(1 0 0 -1 0 792)" d="M328.8663 181.1701L330.1998 181.1701L330.1998 181.1701L330.1998 185.7753L330.1998 185.7753L328.7503 185.4854L328.7503 185.4854L328.7503 186.2308L328.7503 186.2308L330.1915 186.5207L330.1915 186.5207L331.0115 186.5207L331.0115 186.5207L331.0115 181.1701L331.0115 181.1701L332.345 181.1701L332.345 181.1701L332.345 180.4827L332.345 180.4827L328.8663 180.4827L328.8663 180.4827L328.8663 181.1701" stroke="none" fill="#000000" fill-rule="evenodd" /><path id="1633" transform="matrix(1 0 0 -1 0 792)" d="M336.0224 186.5207L337.0495 186.5207L337.0495 186.5207L337.0495 182.5865L337.0495 182.5865L337.9109 182.5865L337.9109 182.5865L337.9109 181.9073L337.9109 181.9073L337.0495 181.9073L337.0495 181.9073L337.0495 180.4827L337.0495 180.4827L336.2378 180.4827L336.2378 180.4827L336.2378 181.9073L336.2378 181.9073L333.5128 181.9073L333.5128 181.9073L333.5128 182.6941L333.5128 182.6941L336.0224 186.5207M336.2378 185.8084L334.1754 182.5865L334.1754 182.5865L336.2378 182.5865L336.2378 182.5865L336.2378 185.8084" stroke="none" fill="#000000" fill-rule="evenodd" /><path id="1634" transform="matrix(1 0 0 -1 0 792)" d="M344.725 192.5701L344.725 189.6712" stroke="none" fill="#000000" fill-rule="nonzero" /><path id="1635" transform="matrix(1 0 0 -1 0 792)" d="M344.725 192.5701L344.725 189.6712" stroke="#000000" stroke-width="0.662608" fill="none" /><path id="1636" transform="matrix(1 0 0 -1 0 792)" d="M340.4851 181.1701L341.8186 181.1701L341.8186 181.1701L341.8186 185.7753L341.8186 185.7753L340.3691 185.4854L340.3691 185.4854L340.3691 186.2308L340.3691 186.2308L341.8103 186.5207L341.8103 186.5207L342.6303 186.5207L342.6303 186.5207L342.6303 181.1701L342.6303 181.1701L343.9638 181.1701L343.9638 181.1701L343.9638 180.4827L343.9638 180.4827L340.4851 180.4827L340.4851 180.4827L340.4851 181.1701" stroke="none" fill="#000000" fill-rule="evenodd" /><path id="1637" transform="matrix(1 0 0 -1 0 792)" d="M345.6203 186.5207L348.8257 186.5207L348.8257 186.5207L348.8257 185.8333L348.8257 185.8333L346.3658 185.8333L346.3658 185.8333L346.3658 184.3506C 346.4817 184.3921 346.606 184.4252 346.7219 184.4418C 346.8379 184.4583 346.9621 184.4749 347.0781 184.4749C 347.7489 184.4749 348.279 184.2844 348.6766 183.92C 349.0742 183.5472 349.2729 183.0503 349.2729 182.4208C 349.2729 181.7665 349.0659 181.2612 348.66 180.9051C 348.2542 180.5489 347.6827 180.375 346.9538 180.375C 346.6971 180.375 346.4403 180.3999 346.1753 180.433C 345.9102 180.4744 345.6452 180.5324 345.3636 180.6235L345.3636 180.6235L345.3636 181.4435C 345.6038 181.3109 345.8522 181.2115 346.1173 181.1453C 346.374 181.079 346.6474 181.0542 346.9373 181.0542C 347.4011 181.0542 347.7738 181.1701 348.0471 181.4186C 348.3122 181.6671 348.4529 181.9984 348.4529 182.4208C 348.4529 182.8349 348.3122 183.1662 348.0471 183.4147C 347.7738 183.6632 347.4011 183.7874 346.9373 183.7874C 346.7219 183.7874 346.4983 183.7626 346.2829 183.7129C 346.0676 183.6632 345.844 183.5887 345.6203 183.4893L345.6203 183.4893L345.6203 186.5207" stroke="none" fill="#000000" fill-rule="evenodd" /><path id="1638" transform="matrix(1 0 0 -1 0 792)" d="M356.3447 192.5701L356.3447 189.6712" stroke="none" fill="#000000" fill-rule="nonzero" /><path id="1639" transform="matrix(1 0 0 -1 0 792)" d="M356.3447 192.5701L356.3447 189.6712" stroke="#000000" stroke-width="0.662608" fill="none" /><path id="1640" transform="matrix(1 0 0 -1 0 792)" d="M352.1048 181.1701L353.4383 181.1701L353.4383 181.1701L353.4383 185.7753L353.4383 185.7753L351.9888 185.4854L351.9888 185.4854L351.9888 186.2308L351.9888 186.2308L353.43 186.5207L353.43 186.5207L354.25 186.5207L354.25 186.5207L354.25 181.1701L354.25 181.1701L355.5835 181.1701L355.5835 181.1701L355.5835 180.4827L355.5835 180.4827L352.1048 180.4827L352.1048 180.4827L352.1048 181.1701" stroke="none" fill="#000000" fill-rule="evenodd" /><path id="1641" transform="matrix(1 0 0 -1 0 792)" d="M360.7021 186.3882L360.7021 185.6427C 360.495 185.7422 360.2879 185.8167 360.0809 185.8664C 359.8655 185.9161 359.6585 185.9409 359.4597 185.9409C 358.913 185.9409 358.4989 185.7587 358.2173 185.3943C 357.9357 185.0298 357.7701 184.4749 357.7369 183.746C 357.8943 183.9779 358.093 184.1602 358.3333 184.2844C 358.5735 184.4086 358.8385 184.4749 359.1284 184.4749C 359.733 184.4749 360.2134 184.2844 360.5612 183.92C 360.9091 183.5555 361.0914 183.0503 361.0914 182.4208C 361.0914 181.7996 360.9008 181.3027 360.5364 180.9299C 360.172 180.5572 359.6833 180.375 359.0787 180.375C 358.3829 180.375 357.8446 180.64 357.4801 181.1701C 357.1074 181.7002 356.9252 182.4788 356.9252 183.4975C 356.9252 184.45 357.1488 185.212 357.6044 185.7753C 358.0516 186.3385 358.6646 186.6284 359.4265 186.6284C 359.6253 186.6284 359.8324 186.6035 360.0478 186.5704C 360.2548 186.529 360.4702 186.471 360.7021 186.3882M359.0787 183.8289C 358.7143 183.8289 358.4243 183.6963 358.209 183.4478C 357.9937 183.1994 357.886 182.8515 357.886 182.4208C 357.886 181.9818 357.9937 181.634 358.209 181.3855C 358.4243 181.137 358.7143 181.0128 359.0787 181.0128C 359.4431 181.0128 359.733 181.137 359.9484 181.3855C 360.1637 181.634 360.2714 181.9818 360.2714 182.4208C 360.2714 182.8515 360.1637 183.1994 359.9484 183.4478C 359.733 183.6963 359.4431 183.8289 359.0787 183.8289" stroke="none" fill="#000000" fill-rule="evenodd" /><path id="1642" transform="matrix(1 0 0 -1 0 792)" d="M367.9643 192.5701L367.9643 189.6712" stroke="none" fill="#000000" fill-rule="nonzero" /><path id="1643" transform="matrix(1 0 0 -1 0 792)" d="M367.9643 192.5701L367.9643 189.6712" stroke="#000000" stroke-width="0.662608" fill="none" /><path id="1644" transform="matrix(1 0 0 -1 0 792)" d="M363.7236 181.1701L365.0571 181.1701L365.0571 181.1701L365.0571 185.7753L365.0571 185.7753L363.6076 185.4854L363.6076 185.4854L363.6076 186.2308L363.6076 186.2308L365.0488 186.5207L365.0488 186.5207L365.8688 186.5207L365.8688 186.5207L365.8688 181.1701L365.8688 181.1701L367.2023 181.1701L367.2023 181.1701L367.2023 180.4827L367.2023 180.4827L363.7236 180.4827L363.7236 180.4827L363.7236 181.1701" stroke="none" fill="#000000" fill-rule="evenodd" /><path id="1645" transform="matrix(1 0 0 -1 0 792)" d="M368.6434 186.5207L372.528 186.5207L372.528 186.5207L372.528 186.1728L372.528 186.1728L370.3331 180.4827L370.3331 180.4827L369.48 180.4827L369.48 180.4827L371.5424 185.8333L371.5424 185.8333L368.6434 185.8333L368.6434 185.8333L368.6434 186.5207" stroke="none" fill="#000000" fill-rule="evenodd" /><path id="1646" transform="matrix(1 0 0 -1 0 792)" d="M379.5831 192.5701L379.5831 189.6712" stroke="none" fill="#000000" fill-rule="nonzero" /><path id="1647" transform="matrix(1 0 0 -1 0 792)" d="M379.5831 192.5701L379.5831 189.6712" stroke="#000000" stroke-width="0.662608" fill="none" /><path id="1648" transform="matrix(1 0 0 -1 0 792)" d="M375.3433 181.1701L376.6768 181.1701L376.6768 181.1701L376.6768 185.7753L376.6768 185.7753L375.2273 185.4854L375.2273 185.4854L375.2273 186.2308L375.2273 186.2308L376.6685 186.5207L376.6685 186.5207L377.4885 186.5207L377.4885 186.5207L377.4885 181.1701L377.4885 181.1701L378.822 181.1701L378.822 181.1701L378.822 180.4827L378.822 180.4827L375.3433 180.4827L375.3433 180.4827L375.3433 181.1701" stroke="none" fill="#000000" fill-rule="evenodd" /><path id="1649" transform="matrix(1 0 0 -1 0 792)" d="M381.0996 184.9884C 381.0996 184.6737 381.1907 184.4252 381.3895 184.2513C 381.5883 184.0773 381.8616 183.9945 382.2178 183.9945C 382.5657 183.9945 382.839 184.0773 383.0378 184.2513C 383.2365 184.4252 383.3359 184.6737 383.3359 184.9884C 383.3359 185.3032 383.2365 185.5433 383.0378 185.7173C 382.839 185.8912 382.5657 185.9823 382.2178 185.9823C 381.8616 185.9823 381.5883 185.8912 381.3895 185.7173C 381.1907 185.5433 381.0996 185.3032 381.0996 184.9884M381.3978 183.6963C 381.05 183.7792 380.7766 183.9448 380.5779 184.185C 380.3791 184.4252 380.2879 184.7151 380.2879 185.063C 380.2879 185.5433 380.4536 185.9243 380.8015 186.2059C 381.1411 186.4875 381.6132 186.6284 382.2178 186.6284C 382.8141 186.6284 383.2863 186.4875 383.6341 186.2059C 383.9737 185.9243 384.1476 185.5433 384.1476 185.063C 384.1476 184.7151 384.0482 184.4252 383.8495 184.185C 383.6507 183.9448 383.3857 183.7792 383.0378 183.6963C 383.4271 183.6052 383.7335 183.423 383.9571 183.158C 384.1725 182.8929 384.2884 182.5616 384.2884 182.1806C 384.2884 181.5925 384.1062 181.1453 383.7501 180.8388C 383.3857 180.5241 382.8804 180.375 382.2178 180.375C 381.5469 180.375 381.0334 180.5241 380.6772 180.8388C 380.3211 181.1453 380.1471 181.5925 380.1471 182.1806C 380.1471 182.5616 380.2548 182.8929 380.4785 183.158C 380.6938 183.423 381.0002 183.6052 381.3978 183.6963M382.2178 183.3485C 381.8285 183.3485 381.5221 183.2408 381.2984 183.0337C 381.0748 182.8267 380.9671 182.545 380.9671 182.1806C 380.9671 181.8162 381.0748 181.5263 381.2984 181.3192C 381.5221 181.1122 381.8285 181.0128 382.2178 181.0128C 382.5988 181.0128 382.9052 181.1122 383.1289 181.3275C 383.3525 181.5346 383.4684 181.8162 383.4684 182.1806C 383.4684 182.545 383.3525 182.8267 383.1371 183.0337C 382.9135 183.2408 382.6071 183.3485 382.2178 183.3485" stroke="none" fill="#000000" fill-rule="evenodd" /><path id="1650" transform="matrix(1 0 0 -1 0 792)" d="M391.2028 192.5701L391.2028 189.6712" stroke="none" fill="#000000" fill-rule="nonzero" /><path id="1651" transform="matrix(1 0 0 -1 0 792)" d="M391.2028 192.5701L391.2028 189.6712" stroke="#000000" stroke-width="0.662608" fill="none" /><path id="1652" transform="matrix(1 0 0 -1 0 792)" d="M386.9621 181.1701L388.2956 181.1701L388.2956 181.1701L388.2956 185.7753L388.2956 185.7753L386.8461 185.4854L386.8461 185.4854L386.8461 186.2308L386.8461 186.2308L388.2873 186.5207L388.2873 186.5207L389.1073 186.5207L389.1073 186.5207L389.1073 181.1701L389.1073 181.1701L390.4408 181.1701L390.4408 181.1701L390.4408 180.4827L390.4408 180.4827L386.9621 180.4827L386.9621 180.4827L386.9621 181.1701" stroke="none" fill="#000000" fill-rule="evenodd" /><path id="1653" transform="matrix(1 0 0 -1 0 792)" d="M393.7372 183.1662C 394.1017 183.1662 394.3916 183.2905 394.6069 183.539C 394.8223 183.7874 394.9299 184.1353 394.9299 184.5743C 394.9299 185.005 394.8223 185.3529 394.6069 185.6013C 394.3916 185.8498 394.1017 185.9823 393.7372 185.9823C 393.3728 185.9823 393.0829 185.8498 392.8676 185.6013C 392.6522 185.3529 392.5446 185.005 392.5446 184.5743C 392.5446 184.1353 392.6522 183.7874 392.8676 183.539C 393.0829 183.2905 393.3728 183.1662 393.7372 183.1662M392.1138 180.6069L392.1138 181.3524C 392.3126 181.253 392.5197 181.1784 392.735 181.1287C 392.9421 181.079 393.1492 181.0542 393.3562 181.0542C 393.8863 181.0542 394.3004 181.2281 394.5821 181.5925C 394.8637 181.957 395.0293 182.5036 395.079 183.2491C 394.9134 183.0172 394.7146 182.8349 394.4827 182.7107C 394.2425 182.5865 393.9774 182.5285 393.6875 182.5285C 393.0746 182.5285 392.5942 182.7107 392.2464 183.0751C 391.8985 183.4396 391.7245 183.9365 391.7245 184.5743C 391.7245 185.1872 391.9068 185.6842 392.2712 186.0652C 392.6357 186.4379 393.1243 186.6284 393.7372 186.6284C 394.433 186.6284 394.9713 186.3551 395.3358 185.825C 395.7002 185.2866 395.8907 184.508 395.8907 183.4975C 395.8907 182.5368 395.6588 181.7831 395.2115 181.2198C 394.756 180.6566 394.1514 180.375 393.3894 180.375C 393.1823 180.375 392.9753 180.3999 392.7682 180.433C 392.5528 180.4661 392.3375 180.5241 392.1138 180.6069" stroke="none" fill="#000000" fill-rule="evenodd" /><path id="1654" transform="matrix(1 0 0 -1 0 792)" d="M402.8216 192.5701L402.8216 189.6712" stroke="none" fill="#000000" fill-rule="nonzero" /><path id="1655" transform="matrix(1 0 0 -1 0 792)" d="M402.8216 192.5701L402.8216 189.6712" stroke="#000000" stroke-width="0.662608" fill="none" /><path id="1656" transform="matrix(1 0 0 -1 0 792)" d="M399.145 181.1701L401.9942 181.1701L401.9942 181.1701L401.9942 180.4827L401.9942 180.4827L398.1594 180.4827L398.1594 180.4827L398.1594 181.1701C 398.4658 181.4849 398.8882 181.9156 399.4266 182.4622C 399.9567 183.0006 400.2963 183.3485 400.4371 183.5058C 400.7021 183.7957 400.8843 184.0442 400.9837 184.2513C 401.0831 184.45 401.1411 184.6571 401.1411 184.8559C 401.1411 185.1706 401.0251 185.4357 400.8015 185.6345C 400.5779 185.8332 400.288 185.9409 399.9236 185.9409C 399.6668 185.9409 399.3935 185.8912 399.1118 185.8084C 398.8302 185.7173 398.5238 185.5848 398.2008 185.4026L398.2008 185.4026L398.2008 186.2308C 398.5321 186.3633 398.8385 186.4627 399.1201 186.529C 399.4017 186.5952 399.6668 186.6284 399.907 186.6284C 400.5282 186.6284 401.0251 186.471 401.3979 186.1563C 401.7705 185.8415 401.9611 185.4274 401.9611 184.9056C 401.9611 184.6571 401.9114 184.4169 401.8203 184.2016C 401.7292 183.9779 401.5635 183.7129 401.315 183.4147C 401.2487 183.3319 401.0334 183.1083 400.669 182.7355C 400.3045 182.3628 399.7993 181.841 399.145 181.1701" stroke="none" fill="#000000" fill-rule="evenodd" /><path id="1657" transform="matrix(1 0 0 -1 0 792)" d="M405.4563 186.6284C 406.1272 186.6284 406.6407 186.3551 407.0052 185.825C 407.3613 185.2866 407.5435 184.508 407.5435 183.4975C 407.5435 182.4788 407.3613 181.7002 407.0052 181.1701C 406.6407 180.64 406.1272 180.375 405.4563 180.375C 404.7771 180.375 404.2553 180.64 403.8992 181.1701C 403.543 181.7002 403.3691 182.4788 403.3691 183.4975C 403.3691 184.508 403.543 185.2866 403.8992 185.825C 404.2553 186.3551 404.7771 186.6284 405.4563 186.6284M405.4563 185.9823C 405.0339 185.9823 404.7191 185.7753 404.5038 185.3611C 404.2885 184.947 404.1891 184.3258 404.1891 183.4975C 404.1891 182.6693 404.2885 182.0481 404.5038 181.634C 404.7191 181.2198 405.0339 181.0128 405.4563 181.0128C 405.8787 181.0128 406.1935 181.2198 406.4088 181.634C 406.6158 182.0481 406.7235 182.6693 406.7235 183.4975C 406.7235 184.3258 406.6158 184.947 406.4088 185.3611C 406.1935 185.7753 405.8787 185.9823 405.4563 185.9823" stroke="none" fill="#000000" fill-rule="evenodd" /><path id="1658" transform="matrix(1 0 0 -1 0 792)" d="M414.4413 192.5701L414.4413 189.6712" stroke="none" fill="#000000" fill-rule="nonzero" /><path id="1659" transform="matrix(1 0 0 -1 0 792)" d="M414.4413 192.5701L414.4413 189.6712" stroke="#000000" stroke-width="0.662608" fill="none" /><path id="1660" transform="matrix(1 0 0 -1 0 792)" d="M410.7646 181.1701L413.6138 181.1701L413.6138 181.1701L413.6138 180.4827L413.6138 180.4827L409.779 180.4827L409.779 180.4827L409.779 181.1701C 410.0854 181.4849 410.5078 181.9156 411.0462 182.4622C 411.5763 183.0006 411.9159 183.3485 412.0567 183.5058C 412.3217 183.7957 412.504 184.0442 412.6033 184.2513C 412.7027 184.45 412.7607 184.6571 412.7607 184.8559C 412.7607 185.1706 412.6447 185.4357 412.4211 185.6345C 412.1975 185.8332 411.9076 185.9409 411.5432 185.9409C 411.2864 185.9409 411.0131 185.8912 410.7315 185.8084C 410.4499 185.7173 410.1434 185.5848 409.8204 185.4026L409.8204 185.4026L409.8204 186.2308C 410.1517 186.3633 410.4582 186.4627 410.7397 186.529C 411.0214 186.5952 411.2864 186.6284 411.5266 186.6284C 412.1478 186.6284 412.6447 186.471 413.0175 186.1563C 413.3902 185.8415 413.5807 185.4274 413.5807 184.9056C 413.5807 184.6571 413.531 184.4169 413.4399 184.2016C 413.3488 183.9779 413.1831 183.7129 412.9347 183.4147C 412.8684 183.3319 412.653 183.1083 412.2886 182.7355C 411.9242 182.3628 411.4189 181.841 410.7646 181.1701" stroke="none" fill="#000000" fill-rule="evenodd" /><path id="1661" transform="matrix(1 0 0 -1 0 792)" d="M415.4691 181.1701L416.8026 181.1701L416.8026 181.1701L416.8026 185.7753L416.8026 185.7753L415.3531 185.4854L415.3531 185.4854L415.3531 186.2308L415.3531 186.2308L416.7943 186.5207L416.7943 186.5207L417.6143 186.5207L417.6143 186.5207L417.6143 181.1701L417.6143 181.1701L418.9478 181.1701L418.9478 181.1701L418.9478 180.4827L418.9478 180.4827L415.4691 180.4827L415.4691 180.4827L415.4691 181.1701" stroke="none" fill="#000000" fill-rule="evenodd" /><path id="1662" transform="matrix(1 0 0 -1 0 792)" d="M426.0601 192.5701L426.0601 189.6712" stroke="none" fill="#000000" fill-rule="nonzero" /><path id="1663" transform="matrix(1 0 0 -1 0 792)" d="M426.0601 192.5701L426.0601 189.6712" stroke="#000000" stroke-width="0.662608" fill="none" /><path id="1664" transform="matrix(1 0 0 -1 0 792)" d="M422.3835 181.1701L425.2327 181.1701L425.2327 181.1701L425.2327 180.4827L425.2327 180.4827L421.3979 180.4827L421.3979 180.4827L421.3979 181.1701C 421.7043 181.4849 422.1267 181.9156 422.6651 182.4622C 423.1952 183.0006 423.5348 183.3485 423.6756 183.5058C 423.9406 183.7957 424.1228 184.0442 424.2222 184.2513C 424.3216 184.45 424.3796 184.6571 424.3796 184.8559C 424.3796 185.1706 424.2636 185.4357 424.04 185.6345C 423.8164 185.8332 423.5265 185.9409 423.162 185.9409C 422.9053 185.9409 422.632 185.8912 422.3503 185.8084C 422.0687 185.7173 421.7623 185.5848 421.4393 185.4026L421.4393 185.4026L421.4393 186.2308C 421.7706 186.3633 422.077 186.4627 422.3586 186.529C 422.6402 186.5952 422.9053 186.6284 423.1455 186.6284C 423.7667 186.6284 424.2636 186.471 424.6364 186.1563C 425.009 185.8415 425.1996 185.4274 425.1996 184.9056C 425.1996 184.6571 425.1499 184.4169 425.0587 184.2016C 424.9677 183.9779 424.802 183.7129 424.5535 183.4147C 424.4872 183.3319 424.2719 183.1083 423.9075 182.7355C 423.543 182.3628 423.0378 181.841 422.3835 181.1701" stroke="none" fill="#000000" fill-rule="evenodd" /><path id="1665" transform="matrix(1 0 0 -1 0 792)" d="M427.6512 181.1701L430.5004 181.1701L430.5004 181.1701L430.5004 180.4827L430.5004 180.4827L426.6656 180.4827L426.6656 180.4827L426.6656 181.1701C 426.972 181.4849 427.3944 181.9156 427.9328 182.4622C 428.4629 183.0006 428.8025 183.3485 428.9433 183.5058C 429.2083 183.7957 429.3905 184.0442 429.4899 184.2513C 429.5893 184.45 429.6473 184.6571 429.6473 184.8559C 429.6473 185.1706 429.5313 185.4357 429.3077 185.6345C 429.0841 185.8332 428.7942 185.9409 428.4297 185.9409C 428.173 185.9409 427.8997 185.8912 427.618 185.8084C 427.3364 185.7173 427.03 185.5848 426.707 185.4026L426.707 185.4026L426.707 186.2308C 427.0383 186.3633 427.3447 186.4627 427.6263 186.529C 427.9079 186.5952 428.173 186.6284 428.4132 186.6284C 429.0344 186.6284 429.5313 186.471 429.9041 186.1563C 430.2767 185.8415 430.4673 185.4274 430.4673 184.9056C 430.4673 184.6571 430.4176 184.4169 430.3264 184.2016C 430.2354 183.9779 430.0697 183.7129 429.8212 183.4147C 429.7549 183.3319 429.5396 183.1083 429.1752 182.7355C 428.8107 182.3628 428.3055 181.841 427.6512 181.1701" stroke="none" fill="#000000" fill-rule="evenodd" /><path id="1666" transform="matrix(1 0 0 -1 0 792)" d="M437.6798 192.5701L437.6798 189.6712" stroke="none" fill="#000000" fill-rule="nonzero" /><path id="1667" transform="matrix(1 0 0 -1 0 792)" d="M437.6798 192.5701L437.6798 189.6712" stroke="#000000" stroke-width="0.662608" fill="none" /><path id="1668" transform="matrix(1 0 0 -1 0 792)" d="M434.0031 181.1701L436.8523 181.1701L436.8523 181.1701L436.8523 180.4827L436.8523 180.4827L433.0175 180.4827L433.0175 180.4827L433.0175 181.1701C 433.3239 181.4849 433.7463 181.9156 434.2847 182.4622C 434.8148 183.0006 435.1544 183.3485 435.2952 183.5058C 435.5602 183.7957 435.7425 184.0442 435.8418 184.2513C 435.9412 184.45 435.9992 184.6571 435.9992 184.8559C 435.9992 185.1706 435.8832 185.4357 435.6596 185.6345C 435.436 185.8332 435.1461 185.9409 434.7817 185.9409C 434.5249 185.9409 434.2516 185.8912 433.97 185.8084C 433.6884 185.7173 433.3819 185.5848 433.0589 185.4026L433.0589 185.4026L433.0589 186.2308C 433.3902 186.3633 433.6967 186.4627 433.9782 186.529C 434.2599 186.5952 434.5249 186.6284 434.7651 186.6284C 435.3863 186.6284 435.8832 186.471 436.256 186.1563C 436.6287 185.8415 436.8192 185.4274 436.8192 184.9056C 436.8192 184.6571 436.7695 184.4169 436.6784 184.2016C 436.5873 183.9779 436.4216 183.7129 436.1732 183.4147C 436.1069 183.3319 435.8915 183.1083 435.5271 182.7355C 435.1627 182.3628 434.6574 181.841 434.0031 181.1701" stroke="none" fill="#000000" fill-rule="evenodd" /><path id="1669" transform="matrix(1 0 0 -1 0 792)" d="M441.0433 183.7377C 441.4326 183.6549 441.7391 183.481 441.9544 183.2159C 442.1698 182.9509 442.2857 182.6196 442.2857 182.2386C 442.2857 181.6422 442.0786 181.1784 441.6728 180.8554C 441.2587 180.5324 440.6789 180.375 439.9252 180.375C 439.6684 180.375 439.4034 180.3999 439.1383 180.4496C 438.8733 180.491 438.5916 180.5655 438.3101 180.6649L438.3101 180.6649L438.3101 181.4518C 438.5337 181.3192 438.7822 181.2198 439.0555 181.1536C 439.3205 181.0873 439.6021 181.0542 439.9003 181.0542C 440.4138 181.0542 440.8031 181.1536 441.0681 181.3524C 441.3332 181.5511 441.474 181.8493 441.474 182.2386C 441.474 182.5865 441.3498 182.8681 441.1013 183.0668C 440.8528 183.2656 440.5049 183.3733 440.0577 183.3733L440.0577 183.3733L439.3537 183.3733L439.3537 183.3733L439.3537 184.0442L439.3537 184.0442L440.0908 184.0442C 440.4884 184.0442 440.7948 184.1187 441.0102 184.2844C 441.2255 184.4418 441.3332 184.6737 441.3332 184.9801C 441.3332 185.2866 441.2173 185.5268 441.0019 185.6925C 440.7783 185.8581 440.4635 185.9409 440.0577 185.9409C 439.834 185.9409 439.5938 185.9161 439.3371 185.8664C 439.0803 185.8167 438.7987 185.7422 438.4923 185.6427L438.4923 185.6427L438.4923 186.3716C 438.7987 186.4545 439.0886 186.5207 439.3619 186.5621C 439.627 186.6035 439.8838 186.6284 440.1322 186.6284C 440.7451 186.6284 441.2338 186.4875 441.5982 186.2059C 441.9627 185.9243 442.1449 185.5433 442.1449 185.063C 442.1449 184.7317 442.0455 184.45 441.855 184.2181C 441.6645 183.9862 441.3912 183.8206 441.0433 183.7377" stroke="none" fill="#000000" fill-rule="evenodd" /><path id="1670" transform="matrix(1 0 0 -1 0 792)" d="M164.6262 268.0959L161.7272 268.0959" stroke="none" fill="#000000" fill-rule="nonzero" /><path id="1671" transform="matrix(1 0 0 -1 0 792)" d="M164.6262 268.0959L161.7272 268.0959" stroke="#000000" stroke-width="0.662608" fill="none" /><path id="1672" transform="matrix(1 0 0 -1 0 792)" d="M142.1689 270.989L143.3865 270.989L143.3865 270.989L144.927 266.8808L144.927 266.8808L146.4759 270.989L146.4759 270.989L147.6934 270.989L147.6934 270.989L147.6934 264.951L147.6934 264.951L146.8983 264.951L146.8983 264.951L146.8983 270.2519L146.8983 270.2519L145.3412 266.1106L145.3412 266.1106L144.5212 266.1106L144.5212 266.1106L142.9641 270.2519L142.9641 270.2519L142.9641 264.951L142.9641 264.951L142.1689 264.951L142.1689 264.951L142.1689 270.989" stroke="none" fill="#000000" fill-rule="evenodd" /><path id="1673" transform="matrix(1 0 0 -1 0 792)" d="M151.0396 269.5892C 151.6856 269.5892 152.1909 269.3739 152.5636 268.9598C 152.928 268.5374 153.1185 267.9576 153.1185 267.2121C 153.1185 266.4667 152.928 265.8869 152.5636 265.4728C 152.1909 265.0504 151.6856 264.8433 151.0396 264.8433C 150.3853 264.8433 149.8718 265.0504 149.5073 265.4728C 149.1429 265.8869 148.9607 266.4667 148.9607 267.2121C 148.9607 267.9576 149.1429 268.5374 149.5073 268.9598C 149.8718 269.3739 150.3853 269.5892 151.0396 269.5892M151.0396 268.9598C 150.642 268.9598 150.3273 268.8024 150.0954 268.4876C 149.8635 268.1729 149.7475 267.7505 149.7475 267.2121C 149.7475 266.6655 149.8552 266.2431 150.0871 265.9283C 150.319 265.6136 150.6338 265.4645 151.0396 265.4645C 151.4372 265.4645 151.7519 265.6136 151.9838 265.9283C 152.2157 266.2431 152.3317 266.6655 152.3317 267.2121C 152.3317 267.7422 152.2157 268.1729 151.9838 268.4876C 151.7519 268.8024 151.4372 268.9598 151.0396 268.9598" stroke="none" fill="#000000" fill-rule="evenodd" /><path id="1674" transform="matrix(1 0 0 -1 0 792)" d="M158.1212 267.6842L158.1212 264.951L158.1212 264.951L157.3758 264.951L157.3758 264.951L157.3758 267.6594C 157.3758 268.0901 157.2847 268.4048 157.119 268.6202C 156.9534 268.8355 156.7049 268.9432 156.3736 268.9432C 155.9677 268.9432 155.653 268.8107 155.4211 268.5539C 155.1892 268.2971 155.0732 267.9493 155.0732 267.5103L155.0732 267.5103L155.0732 264.951L155.0732 264.951L154.3278 264.951L154.3278 264.951L154.3278 269.4816L154.3278 269.4816L155.0732 269.4816L155.0732 269.4816L155.0732 268.7776C 155.2472 269.0426 155.4542 269.2497 155.7027 269.3822C 155.9429 269.5147 156.2245 269.5892 156.5393 269.5892C 157.0528 269.5892 157.4503 269.4236 157.7154 269.1006C 157.9804 268.7776 158.1212 268.3055 158.1212 267.6842" stroke="none" fill="#000000" fill-rule="evenodd" /><path id="1675" transform="matrix(1 0 0 -1 0 792)" d="M164.6262 256.4763L161.7272 256.4763" stroke="none" fill="#000000" fill-rule="nonzero" /><path id="1676" transform="matrix(1 0 0 -1 0 792)" d="M164.6262 256.4763L161.7272 256.4763" stroke="#000000" stroke-width="0.662608" fill="none" /><path id="1677" transform="matrix(1 0 0 -1 0 792)" d="M143.4113 259.3694L148.5134 259.3694L148.5134 259.3694L148.5134 258.6819L148.5134 258.6819L146.3682 258.6819L146.3682 258.6819L146.3682 253.3313L146.3682 253.3313L145.5483 253.3313L145.5483 253.3313L145.5483 258.6819L145.5483 258.6819L143.4113 258.6819L143.4113 258.6819L143.4113 259.3694" stroke="none" fill="#000000" fill-rule="evenodd" /><path id="1678" transform="matrix(1 0 0 -1 0 792)" d="M151.0562 257.9696L151.0562 257.9696M149.1843 255.1204L149.1843 257.8619L149.1843 257.8619L149.9297 257.8619L149.9297 257.8619L149.9297 255.1452C 149.9297 254.7145 150.0126 254.3998 150.1782 254.1844C 150.3439 253.9691 150.5924 253.8614 150.9319 253.8614C 151.3295 253.8614 151.6525 253.9857 151.8844 254.2424C 152.1163 254.4992 152.2323 254.847 152.2323 255.2943L152.2323 255.2943L152.2323 257.8619L152.2323 257.8619L152.9778 257.8619L152.9778 257.8619L152.9778 253.3313L152.9778 253.3313L152.2323 253.3313L152.2323 253.3313L152.2323 254.0271C 152.0501 253.7455 151.8347 253.5467 151.6028 253.4142C 151.3626 253.2899 151.0893 253.2236 150.7746 253.2236C 150.2528 253.2236 149.8552 253.381 149.5902 253.704C 149.3168 254.0188 149.1843 254.4909 149.1843 255.1204" stroke="none" fill="#000000" fill-rule="evenodd" /><path id="1679" transform="matrix(1 0 0 -1 0 792)" d="M157.6409 255.9983C 157.6326 256.4042 157.5166 256.7272 157.3013 256.9757C 157.0776 257.2159 156.7794 257.3401 156.415 257.3401C 156.0009 257.3401 155.6696 257.2159 155.4211 256.9839C 155.1726 256.752 155.0235 256.4207 154.9904 255.9983L154.9904 255.9983L157.6409 255.9983M158.3863 255.783L158.3863 255.4185L158.3863 255.4185L154.9656 255.4185C 154.9987 254.905 155.1478 254.5075 155.4294 254.2424C 155.7027 253.9774 156.0837 253.8448 156.5807 253.8448C 156.8623 253.8448 157.1439 253.878 157.4089 253.9442C 157.674 254.0105 157.9473 254.1182 158.2123 254.2673L158.2123 254.2673L158.2123 253.5632C 157.9473 253.4473 157.674 253.3562 157.3924 253.3065C 157.1108 253.2568 156.8209 253.2237 156.5393 253.2237C 155.8104 253.2237 155.2389 253.4307 154.8165 253.8448C 154.3941 254.259 154.187 254.8305 154.187 255.5511C 154.187 256.2882 154.3858 256.8763 154.7834 257.3152C 155.1809 257.7459 155.7276 257.9696 156.4067 257.9696C 157.0197 257.9696 157.5 257.7708 157.8562 257.3815C 158.2041 256.9839 158.3863 256.4539 158.3863 255.783" stroke="none" fill="#000000" fill-rule="evenodd" /><path id="1680" transform="matrix(1 0 0 -1 0 792)" d="M164.6262 244.8569L161.7272 244.8569" stroke="none" fill="#000000" fill-rule="nonzero" /><path id="1681" transform="matrix(1 0 0 -1 0 792)" d="M164.6262 244.8569L161.7272 244.8569" stroke="#000000" stroke-width="0.662608" fill="none" /><path id="1682" transform="matrix(1 0 0 -1 0 792)" d="M140.5564 247.7501L141.3847 247.7501L141.3847 247.7501L142.6519 242.648L142.6519 242.648L143.9192 247.7501L143.9192 247.7501L144.8385 247.7501L144.8385 247.7501L146.1058 242.648L146.1058 242.648L147.373 247.7501L147.373 247.7501L148.2013 247.7501L148.2013 247.7501L146.6855 241.7121L146.6855 241.7121L145.6585 241.7121L145.6585 241.7121L144.383 246.955L144.383 246.955L143.0992 241.7121L143.0992 241.7121L142.0722 241.7121L142.0722 241.7121L140.5564 247.7501" stroke="none" fill="#000000" fill-rule="evenodd" /><path id="1683" transform="matrix(1 0 0 -1 0 792)" d="M152.384 244.3791C 152.3757 244.7849 152.2597 245.108 152.0444 245.3564C 151.8208 245.5966 151.5226 245.7209 151.1582 245.7209C 150.744 245.7209 150.4127 245.5966 150.1642 245.3647C 149.9158 245.1328 149.7667 244.8015 149.7336 244.3791L149.7336 244.3791L152.384 244.3791M153.1294 244.1637L153.1294 243.7993L153.1294 243.7993L149.7087 243.7993C 149.7418 243.2858 149.8909 242.8882 150.1725 242.6232C 150.4458 242.3581 150.8268 242.2256 151.3238 242.2256C 151.6054 242.2256 151.887 242.2587 152.1521 242.325C 152.4171 242.3913 152.6904 242.4989 152.9555 242.648L152.9555 242.648L152.9555 241.944C 152.6904 241.828 152.4171 241.7369 152.1355 241.6873C 151.8539 241.6376 151.564 241.6044 151.2824 241.6044C 150.5535 241.6044 149.982 241.8115 149.5596 242.2256C 149.1372 242.6398 148.9301 243.2112 148.9301 243.9318C 148.9301 244.669 149.1289 245.257 149.5265 245.696C 149.924 246.1267 150.4707 246.3504 151.1499 246.3504C 151.7628 246.3504 152.2432 246.1516 152.5993 245.7623C 152.9472 245.3647 153.1294 244.8346 153.1294 244.1637" stroke="none" fill="#000000" fill-rule="evenodd" /><path id="1684" transform="matrix(1 0 0 -1 0 792)" d="M154.7942 243.9733C 154.7942 243.4266 154.9019 242.9959 155.1255 242.6812C 155.3492 242.3664 155.6639 242.2173 156.0615 242.2173C 156.4507 242.2173 156.7572 242.3664 156.9891 242.6812C 157.2127 242.9959 157.3287 243.4266 157.3287 243.9733C 157.3287 244.5199 157.2127 244.9423 156.9891 245.257C 156.7572 245.5718 156.4507 245.7292 156.0615 245.7292C 155.6639 245.7292 155.3492 245.5718 155.1255 245.257C 154.9019 244.9423 154.7942 244.5199 154.7942 243.9733M157.3287 245.5552L157.3287 248.0069L157.3287 248.0069L158.0741 248.0069L158.0741 248.0069L158.0741 241.7121L158.0741 241.7121L157.3287 241.7121L157.3287 241.7121L157.3287 242.3913C 157.1713 242.118 156.9725 241.9192 156.7323 241.7949C 156.4921 241.6707 156.2105 241.6044 155.8792 241.6044C 155.3326 241.6044 154.8853 241.8198 154.5375 242.2505C 154.1896 242.6812 154.0239 243.2609 154.0239 243.9733C 154.0239 244.6855 154.1896 245.257 154.5375 245.696C 154.8853 246.1267 155.3326 246.3503 155.8792 246.3503C 156.2105 246.3503 156.4921 246.2841 156.7323 246.1516C 156.9725 246.019 157.1713 245.8203 157.3287 245.5552" stroke="none" fill="#000000" fill-rule="evenodd" /><path id="1685" transform="matrix(1 0 0 -1 0 792)" d="M164.6262 233.2377L161.7272 233.2377" stroke="none" fill="#000000" fill-rule="nonzero" /><path id="1686" transform="matrix(1 0 0 -1 0 792)" d="M164.6262 233.2377L161.7272 233.2377" stroke="#000000" stroke-width="0.662608" fill="none" /><path id="1687" transform="matrix(1 0 0 -1 0 792)" d="M143.2431 236.1309L148.3452 236.1309L148.3452 236.1309L148.3452 235.4434L148.3452 235.4434L146.2 235.4434L146.2 235.4434L146.2 230.0928L146.2 230.0928L145.38 230.0928L145.38 230.0928L145.38 235.4434L145.38 235.4434L143.2431 235.4434L143.2431 235.4434L143.2431 236.1309" stroke="none" fill="#000000" fill-rule="evenodd" /><path id="1688" transform="matrix(1 0 0 -1 0 792)" d="M152.8675 232.8261L152.8675 230.0928L152.8675 230.0928L152.1221 230.0928L152.1221 230.0928L152.1221 232.8013C 152.1221 233.2319 152.031 233.5467 151.8653 233.762C 151.6997 233.9774 151.4512 234.0851 151.1199 234.0851C 150.714 234.0851 150.3993 233.9525 150.1674 233.6958C 149.9355 233.439 149.8195 233.0912 149.8195 232.6522L149.8195 232.6522L149.8195 230.0928L149.8195 230.0928L149.0741 230.0928L149.0741 230.0928L149.0741 236.3876L149.0741 236.3876L149.8195 236.3876L149.8195 236.3876L149.8195 233.9194C 149.9934 234.1845 150.2005 234.3915 150.449 234.524C 150.6892 234.6566 150.9708 234.7311 151.2855 234.7311C 151.7991 234.7311 152.1966 234.5655 152.4617 234.2424C 152.7267 233.9194 152.8675 233.4473 152.8675 232.8261" stroke="none" fill="#000000" fill-rule="evenodd" /><path id="1689" transform="matrix(1 0 0 -1 0 792)" d="M156.1474 234.7311L156.1474 234.7311M154.2756 231.8819L154.2756 234.6234L154.2756 234.6234L155.021 234.6234L155.021 234.6234L155.021 231.9067C 155.021 231.476 155.1038 231.1613 155.2695 230.946C 155.4351 230.7306 155.6836 230.6229 156.0232 230.6229C 156.4208 230.6229 156.7438 230.7472 156.9757 231.0039C 157.2076 231.2607 157.3235 231.6086 157.3235 232.0558L157.3235 232.0558L157.3235 234.6234L157.3235 234.6234L158.069 234.6234L158.069 234.6234L158.069 230.0928L158.069 230.0928L157.3235 230.0928L157.3235 230.0928L157.3235 230.7886C 157.1413 230.507 156.926 230.3082 156.6941 230.1757C 156.4539 230.0514 156.1805 229.9852 155.8658 229.9852C 155.344 229.9852 154.9464 230.1425 154.6814 230.4656C 154.4081 230.7803 154.2756 231.2524 154.2756 231.8819" stroke="none" fill="#000000" fill-rule="evenodd" /><path id="1690" transform="matrix(1 0 0 -1 0 792)" d="M164.6262 221.6184L161.7272 221.6184" stroke="none" fill="#000000" fill-rule="nonzero" /><path id="1691" transform="matrix(1 0 0 -1 0 792)" d="M164.6262 221.6184L161.7272 221.6184" stroke="#000000" stroke-width="0.662608" fill="none" /><path id="1692" transform="matrix(1 0 0 -1 0 792)" d="M149.1703 224.5116L152.6407 224.5116L152.6407 224.5116L152.6407 223.8242L152.6407 223.8242L149.9903 223.8242L149.9903 223.8242L149.9903 222.0434L149.9903 222.0434L152.384 222.0434L152.384 222.0434L152.384 221.3559L152.384 221.3559L149.9903 221.3559L149.9903 221.3559L149.9903 218.4736L149.9903 218.4736L149.1703 218.4736L149.1703 218.4736L149.1703 224.5116" stroke="none" fill="#000000" fill-rule="evenodd" /><path id="1693" transform="matrix(1 0 0 -1 0 792)" d="M156.5253 222.3084C 156.4425 222.3581 156.3513 222.3913 156.2519 222.4161C 156.1525 222.4327 156.0449 222.4492 155.9289 222.4492C 155.5065 222.4492 155.1835 222.3084 154.9599 222.0351C 154.728 221.7618 154.6203 221.3725 154.6203 220.859L154.6203 220.859L154.6203 218.4736L154.6203 218.4736L153.8748 218.4736L153.8748 218.4736L153.8748 223.0042L153.8748 223.0042L154.6203 223.0042L154.6203 223.0042L154.6203 222.3002C 154.7694 222.5735 154.9764 222.7805 155.2249 222.9131C 155.4734 223.0456 155.7798 223.1118 156.1443 223.1118C 156.194 223.1118 156.2519 223.1036 156.3182 223.1036C 156.3762 223.0953 156.4425 223.087 156.5253 223.0704L156.5253 223.0704L156.5253 222.3084" stroke="none" fill="#000000" fill-rule="evenodd" /><path id="1694" transform="matrix(1 0 0 -1 0 792)" d="M157.3038 224.7684L158.0493 224.7684L158.0493 224.7684L158.0493 223.8242L158.0493 223.8242L157.3038 223.8242L157.3038 223.8242L157.3038 224.7684M157.3038 223.0042L158.0493 223.0042L158.0493 223.0042L158.0493 218.4736L158.0493 218.4736L157.3038 218.4736L157.3038 218.4736L157.3038 223.0042" stroke="none" fill="#000000" fill-rule="evenodd" /><path id="1695" transform="matrix(1 0 0 -1 0 792)" d="M164.6262 209.9992L161.7272 209.9992" stroke="none" fill="#000000" fill-rule="nonzero" /><path id="1696" transform="matrix(1 0 0 -1 0 792)" d="M164.6262 209.9992L161.7272 209.9992" stroke="#000000" stroke-width="0.662608" fill="none" /><path id="1697" transform="matrix(1 0 0 -1 0 792)" d="M149.6839 212.6936L149.6839 211.8985C 149.3691 212.0475 149.0792 212.1552 148.8059 212.2298C 148.5243 212.296 148.2592 212.3374 148.0108 212.3374C 147.5635 212.3374 147.2156 212.2463 146.9754 212.0807C 146.7352 211.9068 146.6193 211.6582 146.6193 211.3435C 146.6193 211.0785 146.6938 210.8714 146.8595 210.7389C 147.0168 210.5981 147.3233 210.4904 147.7706 210.4076L147.7706 210.4076L148.2675 210.3082C 148.8721 210.1922 149.3194 209.9852 149.6093 209.6953C 149.8992 209.3971 150.0483 209.0078 150.0483 208.5192C 150.0483 207.9311 149.8495 207.4921 149.4602 207.1939C 149.0626 206.8958 148.4911 206.7467 147.7374 206.7467C 147.4475 206.7467 147.1411 206.7798 146.8181 206.8378C 146.495 206.8958 146.1637 206.9869 145.8242 207.1194L145.8242 207.1194L145.8242 207.9642C 146.1555 207.7737 146.4785 207.6329 146.7932 207.5418C 147.108 207.4424 147.4227 207.401 147.7374 207.401C 148.2013 207.401 148.5574 207.4921 148.8142 207.6743C 149.0626 207.8566 149.1952 208.1133 149.1952 208.4612C 149.1952 208.7594 149.1041 208.9913 148.9218 209.1569C 148.7396 209.3226 148.4415 209.4468 148.0273 209.5296L148.0273 209.5296L147.5304 209.629C 146.9175 209.745 146.4785 209.9355 146.2052 210.2005C 145.9318 210.4573 145.7993 210.8134 145.7993 211.2773C 145.7993 211.8074 145.9815 212.2298 146.3625 212.5362C 146.7352 212.8427 147.257 213 147.9196 213C 148.2013 213 148.4829 212.9752 148.781 212.9255C 149.0709 212.8758 149.3691 212.793 149.6839 212.6936" stroke="none" fill="#000000" fill-rule="evenodd" /><path id="1698" transform="matrix(1 0 0 -1 0 792)" d="M154.8356 209.4385L154.8356 206.8544L154.8356 206.8544L154.0902 206.8544L154.0902 206.8544L154.0902 207.5418C 153.9162 207.2602 153.7009 207.0614 153.4524 206.9372C 153.2039 206.8129 152.8892 206.7467 152.5248 206.7467C 152.0609 206.7467 151.6882 206.8709 151.4149 207.1277C 151.1416 207.3844 151.0091 207.7323 151.0091 208.1713C 151.0091 208.6765 151.1747 209.0575 151.5226 209.3226C 151.8622 209.5793 152.3674 209.7119 153.0466 209.7119L153.0466 209.7119L154.0902 209.7119L154.0902 209.7119L154.0902 209.7864C 154.0902 210.126 153.9742 210.391 153.7506 210.5815C 153.527 210.7637 153.2122 210.8631 152.8064 210.8631C 152.5413 210.8631 152.2929 210.83 152.0444 210.7637C 151.7959 210.6975 151.564 210.6064 151.3404 210.4904L151.3404 210.4904L151.3404 211.1779C 151.6054 211.2773 151.8704 211.3601 152.1272 211.4098C 152.384 211.4595 152.6324 211.4926 152.8809 211.4926C 153.5352 211.4926 154.0239 211.3187 154.3469 210.9791C 154.67 210.6395 154.8356 210.126 154.8356 209.4385M153.353 209.1321C 152.7484 209.1321 152.3343 209.0575 152.1024 208.925C 151.8704 208.7842 151.7545 208.5523 151.7545 208.221C 151.7545 207.9559 151.8373 207.7406 152.0112 207.5915C 152.1852 207.4341 152.4254 207.3596 152.7236 207.3596C 153.1377 207.3596 153.469 207.5004 153.7175 207.7986C 153.9659 208.0885 154.0902 208.4777 154.0902 208.9664L154.0902 208.9664L154.0902 209.1321L154.0902 209.1321L153.353 209.1321" stroke="none" fill="#000000" fill-rule="evenodd" /><path id="1699" transform="matrix(1 0 0 -1 0 792)" d="M157.1051 212.6687L157.1051 211.3849L157.1051 211.3849L158.6373 211.3849L158.6373 211.3849L158.6373 210.8051L158.6373 210.8051L157.1051 210.8051L157.1051 210.8051L157.1051 208.3452C 157.1051 207.9725 157.1548 207.7323 157.2541 207.6329C 157.3535 207.5253 157.5606 207.4756 157.8753 207.4756L157.8753 207.4756L158.6373 207.4756L158.6373 207.4756L158.6373 206.8544L158.6373 206.8544L157.8753 206.8544C 157.2956 206.8544 156.898 206.962 156.6826 207.1774C 156.4673 207.3927 156.3596 207.782 156.3596 208.3452L156.3596 208.3452L156.3596 210.8051L156.3596 210.8051L155.813 210.8051L155.813 210.8051L155.813 211.3849L155.813 211.3849L156.3596 211.3849L156.3596 211.3849L156.3596 212.6687L156.3596 212.6687L157.1051 212.6687" stroke="none" fill="#000000" fill-rule="evenodd" /><path id="1700" transform="matrix(1 0 0 -1 0 792)" d="M164.6262 198.3799L161.7272 198.3799" stroke="none" fill="#000000" fill-rule="nonzero" /><path id="1701" transform="matrix(1 0 0 -1 0 792)" d="M164.6262 198.3799L161.7272 198.3799" stroke="#000000" stroke-width="0.662608" fill="none" /><path id="1702" transform="matrix(1 0 0 -1 0 792)" d="M147.4967 201.0743L147.4967 200.2792C 147.182 200.4283 146.8921 200.536 146.6188 200.6105C 146.3372 200.6768 146.0721 200.7182 145.8237 200.7182C 145.3764 200.7182 145.0285 200.6271 144.7883 200.4614C 144.5481 200.2875 144.4322 200.039 144.4322 199.7243C 144.4322 199.4592 144.5067 199.2522 144.6724 199.1196C 144.8297 198.9789 145.1362 198.8712 145.5835 198.7883L145.5835 198.7883L146.0804 198.6889C 146.685 198.573 147.1323 198.3659 147.4222 198.076C 147.7121 197.7779 147.8612 197.3886 147.8612 196.8999C 147.8612 196.3118 147.6624 195.8729 147.2731 195.5747C 146.8755 195.2765 146.304 195.1274 145.5503 195.1274C 145.2604 195.1274 144.954 195.1606 144.631 195.2185C 144.3079 195.2765 143.9766 195.3676 143.6371 195.5002L143.6371 195.5002L143.6371 196.345C 143.9684 196.1545 144.2914 196.0137 144.6061 195.9226C 144.9209 195.8232 145.2356 195.7818 145.5503 195.7818C 146.0142 195.7818 146.3703 195.8729 146.6271 196.0551C 146.8755 196.2373 147.0081 196.4941 147.0081 196.8419C 147.0081 197.1401 146.917 197.372 146.7347 197.5377C 146.5525 197.7033 146.2543 197.8276 145.8402 197.9104L145.8402 197.9104L145.3433 198.0098C 144.7304 198.1257 144.2914 198.3162 144.0181 198.5813C 143.7447 198.838 143.6122 199.1942 143.6122 199.658C 143.6122 200.1881 143.7944 200.6105 144.1754 200.917C 144.5481 201.2234 145.0699 201.3808 145.7325 201.3808C 146.0142 201.3808 146.2958 201.356 146.5939 201.3063C 146.8838 201.2566 147.182 201.1737 147.4967 201.0743" stroke="none" fill="#000000" fill-rule="evenodd" /><path id="1703" transform="matrix(1 0 0 -1 0 792)" d="M150.9009 199.8734L150.9009 199.8734M149.029 197.0241L149.029 199.7657L149.029 199.7657L149.7744 199.7657L149.7744 199.7657L149.7744 197.049C 149.7744 196.6183 149.8573 196.3036 150.0229 196.0882C 150.1886 195.8729 150.4371 195.7652 150.7766 195.7652C 151.1742 195.7652 151.4972 195.8894 151.7291 196.1462C 151.961 196.403 152.077 196.7508 152.077 197.1981L152.077 197.1981L152.077 199.7657L152.077 199.7657L152.8224 199.7657L152.8224 199.7657L152.8224 195.2351L152.8224 195.2351L152.077 195.2351L152.077 195.2351L152.077 195.9308C 151.8948 195.6492 151.6794 195.4505 151.4475 195.3179C 151.2073 195.1937 150.934 195.1274 150.6193 195.1274C 150.0975 195.1274 149.6999 195.2848 149.4349 195.6078C 149.1615 195.9226 149.029 196.3947 149.029 197.0241" stroke="none" fill="#000000" fill-rule="evenodd" /><path id="1704" transform="matrix(1 0 0 -1 0 792)" d="M158.1233 197.9684L158.1233 195.2351L158.1233 195.2351L157.3779 195.2351L157.3779 195.2351L157.3779 197.9435C 157.3779 198.3742 157.2868 198.6889 157.1211 198.9043C 156.9555 199.1196 156.707 199.2273 156.3757 199.2273C 155.9698 199.2273 155.6551 199.0948 155.4232 198.838C 155.1913 198.5813 155.0753 198.2334 155.0753 197.7944L155.0753 197.7944L155.0753 195.2351L155.0753 195.2351L154.3299 195.2351L154.3299 195.2351L154.3299 199.7657L154.3299 199.7657L155.0753 199.7657L155.0753 199.7657L155.0753 199.0617C 155.2493 199.3267 155.4563 199.5338 155.7048 199.6663C 155.945 199.7988 156.2266 199.8734 156.5414 199.8734C 157.0549 199.8734 157.4524 199.7077 157.7175 199.3847C 157.9825 199.0617 158.1233 198.5896 158.1233 197.9684" stroke="none" fill="#000000" fill-rule="evenodd" /><path id="1705" transform="matrix(1 0 0 -1 0 792)" d="M164.6262 192.5701L164.6262 273.9053" stroke="#000000" stroke-width="0.662608" stroke-linecap="square" fill="none" /><path id="1706" transform="matrix(1 0 0 -1 0 792)" d="M443.4892 192.5701L443.4892 273.9053" stroke="#000000" stroke-width="0.662608" stroke-linecap="square" fill="none" /><path id="1707" transform="matrix(1 0 0 -1 0 792)" d="M164.6262 192.5701L443.4892 192.5701" stroke="#000000" stroke-width="0.662608" stroke-linecap="square" fill="none" /><path id="1708" transform="matrix(1 0 0 -1 0 792)" d="M164.6262 273.9053L443.4892 273.9053" stroke="#000000" stroke-width="0.662608" stroke-linecap="square" fill="none" /></g><g clip-path="url(#6)"><path id="1709" transform="matrix(1 0 0 -1 0 792)" d="M451.4099 192.5701L451.4099 273.9053L455.4758 273.9053L455.4758 192.5701" stroke="none" fill="#FFFFFF" fill-rule="nonzero" /><path id="1710" transform="matrix(1 0 0 -1 0 792)" d="M451.4099 192.5701L451.4099 273.9053L451.4099 273.9053L455.4758 273.9053L455.4758 273.9053L455.4758 192.5701z" stroke="#FFFFFF" stroke-width="0.0082826" fill="none" /></g><g clip-path="url(#7)"><g transform="matrix(0.5963472 0 0 0.5963472 451.5763 517.3353)"><g transform="matrix(1 0 0 1 0 0)"><image x="0" y="0" xlink:href="img_08.png" width="7" height="137" /></g></g><path id="1712" transform="matrix(1 0 0 -1 0 792)" d="M455.4758 192.5701L458.3747 192.5701" stroke="none" fill="#000000" fill-rule="nonzero" /><path id="1713" transform="matrix(1 0 0 -1 0 792)" d="M455.4758 192.5701L458.3747 192.5701" stroke="#000000" stroke-width="0.662608" fill="none" /><path id="1714" transform="matrix(1 0 0 -1 0 792)" d="M463.9074 195.571C 464.5783 195.571 465.0919 195.2977 465.4563 194.7675C 465.8124 194.2292 465.9947 193.4506 465.9947 192.4401C 465.9947 191.4214 465.8124 190.6428 465.4563 190.1127C 465.0919 189.5826 464.5783 189.3176 463.9074 189.3176C 463.2282 189.3176 462.7065 189.5826 462.3503 190.1127C 461.9941 190.6428 461.8202 191.4214 461.8202 192.4401C 461.8202 193.4506 461.9941 194.2292 462.3503 194.7675C 462.7065 195.2977 463.2282 195.571 463.9074 195.571M463.9074 194.9249C 463.485 194.9249 463.1703 194.7178 462.9549 194.3037C 462.7396 193.8896 462.6402 193.2684 462.6402 192.4401C 462.6402 191.6119 462.7396 190.9907 462.9549 190.5766C 463.1703 190.1624 463.485 189.9554 463.9074 189.9554C 464.3298 189.9554 464.6446 190.1624 464.8599 190.5766C 465.067 190.9907 465.1747 191.6119 465.1747 192.4401C 465.1747 193.2684 465.067 193.8896 464.8599 194.3037C 464.6446 194.7178 464.3298 194.9249 463.9074 194.9249" stroke="none" fill="#000000" fill-rule="evenodd" /><path id="1715" transform="matrix(1 0 0 -1 0 792)" d="M455.4758 204.1894L458.3747 204.1894" stroke="none" fill="#000000" fill-rule="nonzero" /><path id="1716" transform="matrix(1 0 0 -1 0 792)" d="M455.4758 204.1894L458.3747 204.1894" stroke="#000000" stroke-width="0.662608" fill="none" /><path id="1717" transform="matrix(1 0 0 -1 0 792)" d="M462.8638 201.732L465.713 201.732L465.713 201.732L465.713 201.0445L465.713 201.0445L461.8782 201.0445L461.8782 201.0445L461.8782 201.732C 462.1846 202.0467 462.6071 202.4774 463.1454 203.0241C 463.6755 203.5624 464.0151 203.9103 464.1559 204.0677C 464.421 204.3576 464.6032 204.606 464.7025 204.8131C 464.8019 205.0119 464.8599 205.219 464.8599 205.4177C 464.8599 205.7325 464.744 205.9975 464.5203 206.1963C 464.2967 206.3951 464.0068 206.5028 463.6424 206.5028C 463.3856 206.5028 463.1123 206.4531 462.8307 206.3702C 462.5491 206.2791 462.2426 206.1466 461.9196 205.9644L461.9196 205.9644L461.9196 206.7927C 462.2509 206.9252 462.5574 207.0246 462.839 207.0908C 463.1206 207.1571 463.3856 207.1902 463.6258 207.1902C 464.247 207.1902 464.744 207.0328 465.1167 206.7181C 465.4894 206.4034 465.6799 205.9892 465.6799 205.4674C 465.6799 205.219 465.6302 204.9787 465.5391 204.7634C 465.448 204.5398 465.2823 204.2747 465.0339 203.9766C 464.9676 203.8937 464.7523 203.6701 464.3878 203.2974C 464.0234 202.9247 463.5182 202.4029 462.8638 201.732" stroke="none" fill="#000000" fill-rule="evenodd" /><path id="1718" transform="matrix(1 0 0 -1 0 792)" d="M455.4758 215.8086L458.3747 215.8086" stroke="none" fill="#000000" fill-rule="nonzero" /><path id="1719" transform="matrix(1 0 0 -1 0 792)" d="M455.4758 215.8086L458.3747 215.8086" stroke="#000000" stroke-width="0.662608" fill="none" /><path id="1720" transform="matrix(1 0 0 -1 0 792)" d="M464.189 218.7018L465.2161 218.7018L465.2161 218.7018L465.2161 214.7675L465.2161 214.7675L466.0775 214.7675L466.0775 214.7675L466.0775 214.0884L466.0775 214.0884L465.2161 214.0884L465.2161 214.0884L465.2161 212.6638L465.2161 212.6638L464.4044 212.6638L464.4044 212.6638L464.4044 214.0884L464.4044 214.0884L461.6794 214.0884L461.6794 214.0884L461.6794 214.8752L461.6794 214.8752L464.189 218.7018M464.4044 217.9895L462.342 214.7675L462.342 214.7675L464.4044 214.7675L464.4044 214.7675L464.4044 217.9895" stroke="none" fill="#000000" fill-rule="evenodd" /><path id="1721" transform="matrix(1 0 0 -1 0 792)" d="M455.4758 227.4278L458.3747 227.4278" stroke="none" fill="#000000" fill-rule="nonzero" /><path id="1722" transform="matrix(1 0 0 -1 0 792)" d="M455.4758 227.4278L458.3747 227.4278" stroke="#000000" stroke-width="0.662608" fill="none" /><path id="1723" transform="matrix(1 0 0 -1 0 792)" d="M465.6302 230.1886L465.6302 229.4431C 465.4232 229.5426 465.2161 229.6171 465.009 229.6668C 464.7937 229.7165 464.5866 229.7413 464.3878 229.7413C 463.8412 229.7413 463.427 229.5591 463.1454 229.1947C 462.8638 228.8302 462.6982 228.2753 462.665 227.5464C 462.8224 227.7784 463.0212 227.9606 463.2614 228.0848C 463.5016 228.2091 463.7666 228.2753 464.0565 228.2753C 464.6611 228.2753 465.1415 228.0848 465.4894 227.7204C 465.8373 227.3559 466.0195 226.8507 466.0195 226.2212C 466.0195 225.6 465.829 225.1031 465.4645 224.7304C 465.1001 224.3576 464.6115 224.1754 464.0068 224.1754C 463.3111 224.1754 462.7727 224.4405 462.4083 224.9706C 462.0356 225.5006 461.8533 226.2792 461.8533 227.298C 461.8533 228.2505 462.077 229.0125 462.5325 229.5757C 462.9798 230.1389 463.5927 230.4288 464.3547 230.4288C 464.5535 230.4288 464.7605 230.4039 464.9759 230.3708C 465.1829 230.3294 465.3983 230.2714 465.6302 230.1886M464.0068 227.6293C 463.6424 227.6293 463.3525 227.4967 463.1371 227.2483C 462.9218 226.9998 462.8141 226.6519 462.8141 226.2212C 462.8141 225.7822 462.9218 225.4344 463.1371 225.1859C 463.3525 224.9374 463.6424 224.8132 464.0068 224.8132C 464.3712 224.8132 464.6611 224.9374 464.8765 225.1859C 465.0919 225.4344 465.1995 225.7822 465.1995 226.2212C 465.1995 226.6519 465.0919 226.9998 464.8765 227.2483C 464.6611 227.4967 464.3712 227.6293 464.0068 227.6293" stroke="none" fill="#000000" fill-rule="evenodd" /><path id="1724" transform="matrix(1 0 0 -1 0 792)" d="M455.4758 239.0474L458.3747 239.0474" stroke="none" fill="#000000" fill-rule="nonzero" /><path id="1725" transform="matrix(1 0 0 -1 0 792)" d="M455.4758 239.0474L458.3747 239.0474" stroke="#000000" stroke-width="0.662608" fill="none" /><path id="1726" transform="matrix(1 0 0 -1 0 792)" d="M462.7893 240.4084C 462.7893 240.0937 462.8804 239.8452 463.0792 239.6713C 463.278 239.4973 463.5513 239.4145 463.9074 239.4145C 464.2553 239.4145 464.5286 239.4973 464.7274 239.6713C 464.9262 239.8452 465.0256 240.0937 465.0256 240.4084C 465.0256 240.7232 464.9262 240.9633 464.7274 241.1373C 464.5286 241.3112 464.2553 241.4023 463.9074 241.4023C 463.5513 241.4023 463.278 241.3112 463.0792 241.1373C 462.8804 240.9633 462.7893 240.7232 462.7893 240.4084M463.0875 239.1163C 462.7396 239.1992 462.4662 239.3648 462.2675 239.605C 462.0687 239.8452 461.9776 240.1351 461.9776 240.483C 461.9776 240.9633 462.1432 241.3443 462.4911 241.6259C 462.8307 241.9075 463.3028 242.0484 463.9074 242.0484C 464.5038 242.0484 464.9759 241.9075 465.3238 241.6259C 465.6634 241.3443 465.8373 240.9633 465.8373 240.483C 465.8373 240.1351 465.7379 239.8452 465.5391 239.605C 465.3403 239.3648 465.0753 239.1992 464.7274 239.1163C 465.1167 239.0252 465.4232 238.843 465.6468 238.578C 465.8621 238.3129 465.9781 237.9816 465.9781 237.6006C 465.9781 237.0125 465.7958 236.5653 465.4397 236.2588C 465.0753 235.9441 464.57 235.795 463.9074 235.795C 463.2365 235.795 462.723 235.9441 462.3669 236.2588C 462.0107 236.5653 461.8368 237.0125 461.8368 237.6006C 461.8368 237.9816 461.9445 238.3129 462.1681 238.578C 462.3834 238.843 462.6899 239.0252 463.0875 239.1163M463.9074 238.7685C 463.5182 238.7685 463.2117 238.6608 462.9881 238.4537C 462.7644 238.2467 462.6568 237.965 462.6568 237.6006C 462.6568 237.2362 462.7644 236.9463 462.9881 236.7392C 463.2117 236.5322 463.5182 236.4328 463.9074 236.4328C 464.2884 236.4328 464.5949 236.5322 464.8185 236.7475C 465.0421 236.9546 465.1581 237.2362 465.1581 237.6006C 465.1581 237.965 465.0421 238.2467 464.8268 238.4537C 464.6032 238.6608 464.2967 238.7685 463.9074 238.7685" stroke="none" fill="#000000" fill-rule="evenodd" /><path id="1727" transform="matrix(1 0 0 -1 0 792)" d="M455.4758 250.6667L458.3747 250.6667" stroke="none" fill="#000000" fill-rule="nonzero" /><path id="1728" transform="matrix(1 0 0 -1 0 792)" d="M455.4758 250.6667L458.3747 250.6667" stroke="#000000" stroke-width="0.662608" fill="none" /><path id="1729" transform="matrix(1 0 0 -1 0 792)" d="M462.3006 248.2094L463.6341 248.2094L463.6341 248.2094L463.6341 252.8145L463.6341 252.8145L462.1846 252.5246L462.1846 252.5246L462.1846 253.27L462.1846 253.27L463.6258 253.5599L463.6258 253.5599L464.4458 253.5599L464.4458 253.5599L464.4458 248.2094L464.4458 248.2094L465.7793 248.2094L465.7793 248.2094L465.7793 247.5219L465.7793 247.5219L462.3006 247.5219L462.3006 247.5219L462.3006 248.2094" stroke="none" fill="#000000" fill-rule="evenodd" /><path id="1730" transform="matrix(1 0 0 -1 0 792)" d="M469.1752 253.6676C 469.846 253.6676 470.3596 253.3943 470.724 252.8642C 471.0802 252.3258 471.2624 251.5473 471.2624 250.5368C 471.2624 249.518 471.0802 248.7395 470.724 248.2094C 470.3596 247.6793 469.846 247.4142 469.1752 247.4142C 468.496 247.4142 467.9742 247.6793 467.618 248.2094C 467.2619 248.7395 467.088 249.518 467.088 250.5368C 467.088 251.5473 467.2619 252.3258 467.618 252.8642C 467.9742 253.3943 468.496 253.6676 469.1752 253.6676M469.1752 253.0215C 468.7527 253.0215 468.438 252.8145 468.2227 252.4003C 468.0073 251.9863 467.9079 251.365 467.9079 250.5368C 467.9079 249.7085 468.0073 249.0873 468.2227 248.6732C 468.438 248.2591 468.7527 248.052 469.1752 248.052C 469.5976 248.052 469.9123 248.2591 470.1277 248.6732C 470.3347 249.0873 470.4424 249.7085 470.4424 250.5368C 470.4424 251.365 470.3347 251.9863 470.1277 252.4003C 469.9123 252.8145 469.5976 253.0215 469.1752 253.0215" stroke="none" fill="#000000" fill-rule="evenodd" /><path id="1731" transform="matrix(1 0 0 -1 0 792)" d="M455.4758 262.2856L458.3747 262.2856" stroke="none" fill="#000000" fill-rule="nonzero" /><path id="1732" transform="matrix(1 0 0 -1 0 792)" d="M455.4758 262.2856L458.3747 262.2856" stroke="#000000" stroke-width="0.662608" fill="none" /><path id="1733" transform="matrix(1 0 0 -1 0 792)" d="M462.3006 259.829L463.6341 259.829L463.6341 259.829L463.6341 264.4342L463.6341 264.4342L462.1846 264.1443L462.1846 264.1443L462.1846 264.8897L462.1846 264.8897L463.6258 265.1796L463.6258 265.1796L464.4458 265.1796L464.4458 265.1796L464.4458 259.829L464.4458 259.829L465.7793 259.829L465.7793 259.829L465.7793 259.1416L465.7793 259.1416L462.3006 259.1416L462.3006 259.1416L462.3006 259.829" stroke="none" fill="#000000" fill-rule="evenodd" /><path id="1734" transform="matrix(1 0 0 -1 0 792)" d="M468.1316 259.829L470.9808 259.829L470.9808 259.829L470.9808 259.1416L470.9808 259.1416L467.1459 259.1416L467.1459 259.1416L467.1459 259.829C 467.4524 260.1438 467.8748 260.5745 468.4131 261.1211C 468.9432 261.6595 469.2828 262.0074 469.4236 262.1647C 469.6887 262.4546 469.8709 262.7031 469.9703 262.9102C 470.0697 263.1089 470.1277 263.316 470.1277 263.5148C 470.1277 263.8295 470.0117 264.0946 469.7881 264.2934C 469.5645 264.4921 469.2745 264.5998 468.9101 264.5998C 468.6534 264.5998 468.38 264.5501 468.0984 264.4673C 467.8168 264.3762 467.5103 264.2437 467.1873 264.0614L467.1873 264.0614L467.1873 264.8897C 467.5186 265.0222 467.8251 265.1216 468.1067 265.1879C 468.3883 265.2541 468.6534 265.2873 468.8936 265.2873C 469.5147 265.2873 470.0117 265.1299 470.3844 264.8151C 470.7571 264.5004 470.9476 264.0863 470.9476 263.5645C 470.9476 263.316 470.8979 263.0758 470.8068 262.8605C 470.7157 262.6368 470.55 262.3718 470.3016 262.0736C 470.2353 261.9908 470.02 261.7672 469.6555 261.3944C 469.2911 261.0217 468.7859 260.4999 468.1316 259.829" stroke="none" fill="#000000" fill-rule="evenodd" /><path id="1735" transform="matrix(1 0 0 -1 0 792)" d="M455.4758 273.9053L458.3747 273.9053" stroke="none" fill="#000000" fill-rule="nonzero" /><path id="1736" transform="matrix(1 0 0 -1 0 792)" d="M455.4758 273.9053L458.3747 273.9053" stroke="#000000" stroke-width="0.662608" fill="none" /><path id="1737" transform="matrix(1 0 0 -1 0 792)" d="M462.3006 271.4479L463.6341 271.4479L463.6341 271.4479L463.6341 276.053L463.6341 276.053L462.1846 275.7631L462.1846 275.7631L462.1846 276.5085L462.1846 276.5085L463.6258 276.7984L463.6258 276.7984L464.4458 276.7984L464.4458 276.7984L464.4458 271.4479L464.4458 271.4479L465.7793 271.4479L465.7793 271.4479L465.7793 270.7604L465.7793 270.7604L462.3006 270.7604L462.3006 270.7604L462.3006 271.4479" stroke="none" fill="#000000" fill-rule="evenodd" /><path id="1738" transform="matrix(1 0 0 -1 0 792)" d="M469.4568 276.7984L470.4838 276.7984L470.4838 276.7984L470.4838 272.8642L470.4838 272.8642L471.3452 272.8642L471.3452 272.8642L471.3452 272.185L471.3452 272.185L470.4838 272.185L470.4838 272.185L470.4838 270.7604L470.4838 270.7604L469.6721 270.7604L469.6721 270.7604L469.6721 272.185L469.6721 272.185L466.9471 272.185L466.9471 272.185L466.9471 272.9719L466.9471 272.9719L469.4568 276.7984M469.6721 276.0861L467.6097 272.8642L467.6097 272.8642L469.6721 272.8642L469.6721 272.8642L469.6721 276.0861" stroke="none" fill="#000000" fill-rule="evenodd" /><path id="1739" transform="matrix(1 0 0 -1 0 792)" d="M451.4099 192.5701L451.4099 273.9053L451.4099 273.9053L455.4758 273.9053L455.4758 273.9053L455.4758 192.5701z" stroke="#000000" stroke-width="0.662608" fill="none" /></g></g></g></g></svg>