<svg xmlns="http://www.w3.org/2000/svg" xmlns:xlink="http://www.w3.org/1999/xlink" id="body_2" preserveAspectRatio="xMinYMin meet" viewBox="0 0 816 1056"><defs><clipPath id="1"><path id="" clip-rule="evenodd" transform="matrix(1 0 0 1 0 0)" d="M0 792L0 0L0 0L612 0L612 0L612 792L612 792L0 792z" /></clipPath><clipPath id="2"><path id="" clip-rule="evenodd" transform="matrix(1 0 0 1 0 0)" d="M302.137 128.511L390.137 128.511L390.137 128.511L390.137 118.511L390.137 118.511L302.137 118.511z" /></clipPath><clipPath id="3"><path id="" clip-rule="evenodd" transform="matrix(1 0 0 1 0 0)" d="M302.137 128.511L390.137 128.511L390.137 128.511L390.137 118.511L390.137 118.511L302.137 118.511z" /></clipPath><clipPath id="4"><path id="" clip-rule="evenodd" transform="matrix(1 0 0 1 0 0)" d="M277.326 156.513L309.326 156.513L309.326 156.513L309.326 146.513L309.326 146.513L277.326 146.513z" /></clipPath><clipPath id="5"><path id="" clip-rule="evenodd" transform="matrix(1 0 0 1 0 0)" d="M277.326 156.513L309.326 156.513L309.326 156.513L309.326 146.513L309.326 146.513L277.326 146.513z" /></clipPath><clipPath id="6"><path id="" clip-rule="evenodd" transform="matrix(1 0 0 1 0 0)" d="M293.231 203.288L341.231 203.288L341.231 203.288L341.231 193.288L341.231 193.288L293.231 193.288z" /></clipPath><clipPath id="7"><path id="" clip-rule="evenodd" transform="matrix(1 0 0 1 0 0)" d="M293.231 203.288L341.231 203.288L341.231 203.288L341.231 193.288L341.231 193.288L293.231 193.288z" /></clipPath><clipPath id="8"><path id="" clip-rule="evenodd" transform="matrix(1 0 0 1 0 0)" d="M207.029 239.563L239.029 239.563L239.029 239.563L239.029 229.563L239.029 229.563L207.029 229.563z" /></clipPath><clipPath id="9"><path id="" clip-rule="evenodd" transform="matrix(1 0 0 1 0 0)" d="M207.029 239.563L239.029 239.563L239.029 239.563L239.029 229.563L239.029 229.563L207.029 229.563z" /></clipPath><clipPath id="10"><path id="" clip-rule="evenodd" transform="matrix(1 0 0 1 0 0)" d="M191.125 250.7L207.125 250.7L207.125 250.7L207.125 240.7L207.125 240.7L191.125 240.7z" /></clipPath><clipPath id="11"><path id="" clip-rule="evenodd" transform="matrix(1 0 0 1 0 0)" d="M191.125 250.7L207.125 250.7L207.125 250.7L207.125 240.7L207.125 240.7L191.125 240.7z" /></clipPath><clipPath id="12"><path id="" clip-rule="evenodd" transform="matrix(1 0 0 1 0 0)" d="M138.322 265.337L154.322 265.337L154.322 265.337L154.322 255.337L154.322 255.337L138.322 255.337z" /></clipPath><clipPath id="13"><path id="" clip-rule="evenodd" transform="matrix(1 0 0 1 0 0)" d="M138.322 265.337L154.322 265.337L154.322 265.337L154.322 255.337L154.322 255.337L138.322 255.337z" /></clipPath><clipPath id="14"><path id="" clip-rule="evenodd" transform="matrix(1 0 0 1 0 0)" d="M177.129 287.611L193.129 287.611L193.129 287.611L193.129 277.611L193.129 277.611L177.129 277.611z" /></clipPath><clipPath id="15"><path id="" clip-rule="evenodd" transform="matrix(1 0 0 1 0 0)" d="M177.129 287.611L193.129 287.611L193.129 287.611L193.129 277.611L193.129 277.611L177.129 277.611z" /></clipPath><clipPath id="16"><path id="" clip-rule="evenodd" transform="matrix(1 0 0 1 0 0)" d="M449.139 335.701L465.639 335.701L465.639 335.701L465.639 325.519L465.639 325.519L449.139 325.519z" /></clipPath><clipPath id="17"><path id="" clip-rule="evenodd" transform="matrix(1 0 0 1 0 0)" d="M449.139 335.701L465.639 335.701L465.639 335.701L465.639 325.519L465.639 325.519L449.139 325.519z" /></clipPath><clipPath id="18"><path id="" clip-rule="evenodd" transform="matrix(1 0 0 1 0 0)" d="M378.796 345.842L418.796 345.842L418.796 345.842L418.796 335.842L418.796 335.842L378.796 335.842z" /></clipPath><clipPath id="19"><path id="" clip-rule="evenodd" transform="matrix(1 0 0 1 0 0)" d="M378.796 345.842L418.796 345.842L418.796 345.842L418.796 335.842L418.796 335.842L378.796 335.842z" /></clipPath><clipPath id="20"><path id="" clip-rule="evenodd" transform="matrix(1 0 0 1 0 0)" d="M138.958 359.206L154.958 359.206L154.958 359.206L154.958 349.206L154.958 349.206L138.958 349.206z" /></clipPath><clipPath id="21"><path id="" clip-rule="evenodd" transform="matrix(1 0 0 1 0 0)" d="M138.958 359.206L154.958 359.206L154.958 359.206L154.958 349.206L154.958 349.206L138.958 349.206z" /></clipPath><clipPath id="22"><path id="" clip-rule="evenodd" transform="matrix(1 0 0 1 0 0)" d="M308.711 363.955L346.36 363.955L346.36 363.955L346.36 354.999L346.36 354.999L308.711 354.999z" /></clipPath><clipPath id="23"><path id="" clip-rule="evenodd" transform="matrix(1 0 0 1 0 0)" d="M468.292 363.955L477.139 363.955L477.139 363.955L477.139 354.999L477.139 354.999L468.292 354.999z" /></clipPath><clipPath id="24"><path id="" clip-rule="evenodd" transform="matrix(1 0 0 1 0 0)" d="M341.262 358.888L389.262 358.888L389.262 358.888L389.262 348.888L389.262 348.888L341.262 348.888z" /></clipPath><clipPath id="25"><path id="" clip-rule="evenodd" transform="matrix(1 0 0 1 0 0)" d="M341.262 358.888L389.262 358.888L389.262 358.888L389.262 348.888L389.262 348.888L341.262 348.888z" /></clipPath><clipPath id="26"><path id="" clip-rule="evenodd" transform="matrix(1 0 0 1 0 0)" d="M441.141 396.435L481.141 396.435L481.141 396.435L481.141 386.435L481.141 386.435L441.141 386.435z" /></clipPath><clipPath id="27"><path id="" clip-rule="evenodd" transform="matrix(1 0 0 1 0 0)" d="M441.141 396.435L481.141 396.435L481.141 396.435L481.141 386.435L481.141 386.435L441.141 386.435z" /></clipPath><clipPath id="28"><path id="" clip-rule="evenodd" transform="matrix(1 0 0 1 0 0)" d="M200.667 395.163L216.667 395.163L216.667 395.163L216.667 385.163L216.667 385.163L200.667 385.163z" /></clipPath><clipPath id="29"><path id="" clip-rule="evenodd" transform="matrix(1 0 0 1 0 0)" d="M200.667 395.163L216.667 395.163L216.667 395.163L216.667 385.163L216.667 385.163L200.667 385.163z" /></clipPath><clipPath id="30"><path id="" clip-rule="evenodd" transform="matrix(1 0 0 1 0 0)" d="M167.904 406.618L183.904 406.618L183.904 406.618L183.904 396.618L183.904 396.618L167.904 396.618z" /></clipPath><clipPath id="31"><path id="" clip-rule="evenodd" transform="matrix(1 0 0 1 0 0)" d="M167.904 406.618L183.904 406.618L183.904 406.618L183.904 396.618L183.904 396.618L167.904 396.618z" /></clipPath><clipPath id="32"><path id="" clip-rule="evenodd" transform="matrix(1 0 0 1 0 0)" d="M304.926 411.776L393.134 411.776L393.134 411.776L393.134 402.71L393.134 402.71L304.926 402.71z" /></clipPath><clipPath id="33"><path id="" clip-rule="evenodd" transform="matrix(1 0 0 1 0 0)" d="M262.058 430.165L278.058 430.165L278.058 430.165L278.058 420.165L278.058 420.165L262.058 420.165z" /></clipPath><clipPath id="34"><path id="" clip-rule="evenodd" transform="matrix(1 0 0 1 0 0)" d="M262.058 430.165L278.058 430.165L278.058 430.165L278.058 420.165L278.058 420.165L262.058 420.165z" /></clipPath><clipPath id="35"><path id="" clip-rule="evenodd" transform="matrix(1 0 0 1 0 0)" d="M138.322 453.075L162.322 453.075L162.322 453.075L162.322 443.075L162.322 443.075L138.322 443.075z" /></clipPath><clipPath id="36"><path id="" clip-rule="evenodd" transform="matrix(1 0 0 1 0 0)" d="M138.322 453.075L162.322 453.075L162.322 453.075L162.322 443.075L162.322 443.075L138.322 443.075z" /></clipPath><clipPath id="37"><path id="" clip-rule="evenodd" transform="matrix(1 0 0 1 0 0)" d="M179.992 454.666L195.992 454.666L195.992 454.666L195.992 444.666L195.992 444.666L179.992 444.666z" /></clipPath><clipPath id="38"><path id="" clip-rule="evenodd" transform="matrix(1 0 0 1 0 0)" d="M179.992 454.666L195.992 454.666L195.992 454.666L195.992 444.666L195.992 444.666L179.992 444.666z" /></clipPath><clipPath id="39"><path id="" clip-rule="evenodd" transform="matrix(1 0 0 1 0 0)" d="M271.283 453.712L287.283 453.712L287.283 453.712L287.283 443.712L287.283 443.712L271.283 443.712z" /></clipPath><clipPath id="40"><path id="" clip-rule="evenodd" transform="matrix(1 0 0 1 0 0)" d="M271.283 453.712L287.283 453.712L287.283 453.712L287.283 443.712L287.283 443.712L271.283 443.712z" /></clipPath><clipPath id="41"><path id="" clip-rule="evenodd" transform="matrix(1 0 0 1 0 0)" d="M311.044 465.485L367.044 465.485L367.044 465.485L367.044 455.485L367.044 455.485L311.044 455.485z" /></clipPath><clipPath id="42"><path id="" clip-rule="evenodd" transform="matrix(1 0 0 1 0 0)" d="M311.044 465.485L367.044 465.485L367.044 465.485L367.044 455.485L367.044 455.485L311.044 455.485z" /></clipPath><clipPath id="43"><path id="" clip-rule="evenodd" transform="matrix(1 0 0 1 0 0)" d="M340.308 514.17L356.308 514.17L356.308 514.17L356.308 504.17L356.308 504.17L340.308 504.17z" /></clipPath><clipPath id="44"><path id="" clip-rule="evenodd" transform="matrix(1 0 0 1 0 0)" d="M340.308 514.17L356.308 514.17L356.308 514.17L356.308 504.17L356.308 504.17L340.308 504.17z" /></clipPath><clipPath id="45"><path id="" clip-rule="evenodd" transform="matrix(1 0 0 1 0 0)" d="M343.182 543.283L409.045 543.283L409.045 543.283L409.045 534.108L409.045 534.108L343.182 534.108z" /></clipPath><clipPath id="46"><path id="" clip-rule="evenodd" transform="matrix(1 0 0 1 0 0)" d="M370.844 536.762L442.844 536.762L442.844 536.762L442.844 526.762L442.844 526.762L370.844 526.762z" /></clipPath><clipPath id="47"><path id="" clip-rule="evenodd" transform="matrix(1 0 0 1 0 0)" d="M370.844 536.762L442.844 536.762L442.844 536.762L442.844 526.762L442.844 526.762L370.844 526.762z" /></clipPath><clipPath id="48"><path id="" clip-rule="evenodd" transform="matrix(1 0 0 1 0 0)" d="M483 141.363L611 141.363L611 141.363L611 125.379L611 125.379L483 125.379z" /></clipPath><clipPath id="49"><path id="" clip-rule="evenodd" transform="matrix(1 0 0 1 0 0)" d="M483 141.363L611 141.363L611 141.363L611 125.379L611 125.379L483 125.379z" /></clipPath><clipPath id="50"><path id="" clip-rule="evenodd" transform="matrix(1 0 0 1 0 0)" d="M486 397.389L610 397.389L610 397.389L610 157.629L610 157.629L486 157.629z" /></clipPath><clipPath id="51"><path id="" clip-rule="evenodd" transform="matrix(1 0 0 1 0 0)" d="M486 397.389L610 397.389L610 397.389L610 157.629L610 157.629L486 157.629z" /></clipPath><clipPath id="52"><path id="" clip-rule="evenodd" transform="matrix(1 0 0 1 0 0)" d="M484 475.815L612 475.815L612 475.815L612 411.879L612 411.879L484 411.879z" /></clipPath><clipPath id="53"><path id="" clip-rule="evenodd" transform="matrix(1 0 0 1 0 0)" d="M484 475.815L612 475.815L612 475.815L612 411.879L612 411.879L484 411.879z" /></clipPath></defs><g transform="matrix(1.333333 0 0 1.333333 0 0)"><g clip-path="url(#1)"><g clip-path="url(#2)"><g clip-path="url(#3)"></g></g><g clip-path="url(#4)"><g clip-path="url(#5)"></g></g><g clip-path="url(#6)"><g clip-path="url(#7)"></g></g><g clip-path="url(#8)"><g clip-path="url(#9)"></g></g><g clip-path="url(#10)"><g clip-path="url(#11)"></g></g><g clip-path="url(#12)"><g clip-path="url(#13)"></g></g><g clip-path="url(#14)"><g clip-path="url(#15)"></g></g><g clip-path="url(#16)"><g clip-path="url(#17)"></g></g><g clip-path="url(#18)"><g clip-path="url(#19)"></g></g><g clip-path="url(#20)"><g clip-path="url(#21)"></g></g><g clip-path="url(#22)"><path id="2833" transform="matrix(1 0 0 -1 0 792)" d="M308.711 430.284L310.95 428.045L310.95 428.045L313.189 430.284L313.189 430.284L315.428 428.045L315.428 428.045L317.668 430.284L317.668 430.284L319.907 428.045L319.907 428.045L322.146 430.284L322.146 430.284L324.385 428.045L324.385 428.045L326.624 430.284L326.624 430.284L328.863 428.045L328.863 428.045L331.102 430.284L331.102 430.284L333.341 428.045L333.341 428.045L335.58 430.284L335.58 430.284L337.819 428.045L337.819 428.045L340.058 430.284L340.058 430.284L342.297 428.045L342.297 428.045L344.536 430.284L344.536 430.284L346.776 428.045" stroke="#4B99FF" stroke-width="1.12" fill="none" /></g><g clip-path="url(#23)"><path id="2834" transform="matrix(1 0 0 -1 0 792)" d="M468.292 430.284L470.531 428.045L470.531 428.045L472.77 430.284L472.77 430.284L475.009 428.045L475.009 428.045L477.248 430.284" stroke="#4B99FF" stroke-width="1.12" fill="none" /></g><g clip-path="url(#24)"><g clip-path="url(#25)"></g></g><g clip-path="url(#26)"><g clip-path="url(#27)"></g></g><g clip-path="url(#28)"><g clip-path="url(#29)"></g></g><g clip-path="url(#30)"><g clip-path="url(#31)"></g></g><g clip-path="url(#32)"><path id="2850" transform="matrix(1 0 0 -1 0 792)" d="M304.926 389.29L393.134 389.29L393.134 380.224L304.926 380.224z" stroke="none" fill="#FFED00" fill-rule="nonzero" /></g><g clip-path="url(#33)"><g clip-path="url(#34)"></g></g><g clip-path="url(#35)"><g clip-path="url(#36)"></g></g><g clip-path="url(#37)"><g clip-path="url(#38)"></g></g><g clip-path="url(#39)"><g clip-path="url(#40)"></g></g><g clip-path="url(#41)"><g clip-path="url(#42)"></g></g><g clip-path="url(#43)"><g clip-path="url(#44)"></g></g><g clip-path="url(#45)"><path id="2869" transform="matrix(1 0 0 -1 0 792)" d="M343.182 251.011L345.476 248.717L345.476 248.717L347.77 251.011L347.77 251.011L350.063 248.717L350.063 248.717L352.357 251.011L352.357 251.011L354.651 248.717L354.651 248.717L356.945 251.011L356.945 251.011L359.239 248.717L359.239 248.717L361.533 251.011L361.533 251.011L363.827 248.717L363.827 248.717L366.121 251.011L366.121 251.011L368.415 248.717L368.415 248.717L370.708 251.011L370.708 251.011L373.002 248.717L373.002 248.717L375.296 251.011L375.296 251.011L377.59 248.717L377.59 248.717L379.884 251.011L379.884 251.011L382.178 248.717L382.178 248.717L384.472 251.011L384.472 251.011L386.766 248.717L386.766 248.717L389.059 251.011L389.059 251.011L391.353 248.717L391.353 248.717L393.647 251.011L393.647 251.011L395.941 248.717L395.941 248.717L398.235 251.011L398.235 251.011L400.529 248.717L400.529 248.717L402.823 251.011L402.823 251.011L405.117 248.717L405.117 248.717L407.411 251.011L407.411 251.011L409.704 248.717" stroke="#4B99FF" stroke-width="1.147" fill="none" /></g><g clip-path="url(#46)"><g clip-path="url(#47)"></g></g><g clip-path="url(#48)"><g clip-path="url(#49)"></g></g><g clip-path="url(#50)"><g clip-path="url(#51)"></g></g><g clip-path="url(#52)"><g clip-path="url(#53)"></g></g></g></g></svg>