<svg xmlns="http://www.w3.org/2000/svg" xmlns:xlink="http://www.w3.org/1999/xlink" id="body_3" preserveAspectRatio="xMinYMin meet" viewBox="0 0 1056 816"><defs><clipPath id="1"><path id="" clip-rule="evenodd" transform="matrix(1 0 0 1 0 0)" d="M0 612L0 0L0 0L792 0L792 0L792 612L792 612L0 612z" /></clipPath><clipPath id="2"><path id="" clip-rule="evenodd" transform="matrix(1 0 0 1 0 0)" d="M50.4 239.16L179.28 239.16L179.28 239.16L179.28 128.04L179.28 128.04L50.4 128.04z" /></clipPath><clipPath id="3"><path id="" clip-rule="evenodd" transform="matrix(1 0 0 1 0 0)" d="M50.4 128.04L179.28 128.04L179.28 128.04L179.28 239.16L179.28 239.16L50.4 239.16z" /></clipPath><clipPath id="4"><path id="" clip-rule="evenodd" transform="matrix(1 0 0 1 0 0)" d="M54 357.663L176.345 357.663L176.345 357.663L176.345 301.2L176.345 301.2L54 301.2z" /></clipPath><clipPath id="5"><path id="" clip-rule="evenodd" transform="matrix(1 0 0 1 0 0)" d="M54 301.2L176.345 301.2L176.345 301.2L176.345 357.662L176.345 357.662L54 357.662z" /></clipPath><clipPath id="6"><path id="" clip-rule="evenodd" transform="matrix(1 0 0 1 0 0)" d="M54 426.171L176.344 426.171L176.344 426.171L176.344 369.6L176.344 369.6L54 369.6z" /></clipPath></defs><g transform="matrix(1.333333 0 0 1.333333 0 0)"><g clip-path="url(#1)"><g clip-path="url(#2)"><g transform="matrix(0.1602871 0 0 0.160221 48 126)"><g transform="matrix(1 0 0 1 0 0)"><image x="0" y="0" xlink:href="img_04.png" width="836" height="724" /></g></g></g><g clip-path="url(#3)"></g><g clip-path="url(#4)"><g transform="matrix(0.1601513 0 0 0.160105 52 299)"><g transform="matrix(1 0 0 1 0 0)"><image x="0" y="0" xlink:href="img_05.png" width="793" height="381" /></g></g></g><g clip-path="url(#5)"></g><g clip-path="url(#6)"><g transform="matrix(0.1601513 0 0 0.1602067 52 367)"><g transform="matrix(1 0 0 1 0 0)"><image x="0" y="0" xlink:href="img_06.png" width="793" height="387" /></g></g></g></g></g></svg>