<svg xmlns="http://www.w3.org/2000/svg" xmlns:xlink="http://www.w3.org/1999/xlink" id="body_1" preserveAspectRatio="xMinYMin meet" viewBox="0 0 1056 816"><defs><clipPath id="1"><path id="" clip-rule="evenodd" transform="matrix(1 0 0 1 0 0)" d="M0 612L0 0L0 0L792 0L792 0L792 612L792 612L0 612z" /></clipPath><clipPath id="2"><path id="" clip-rule="evenodd" transform="matrix(1 0 0 1 0 0)" d="M192.6 549.12L453.96 549.12L453.96 549.12L453.96 427.32L453.96 427.32L192.6 427.32z" /></clipPath><clipPath id="3"><path id="" clip-rule="evenodd" transform="matrix(1 0 0 1 0 0)" d="M192.6 549.12L453.96 549.12L453.96 549.12L453.96 427.32L453.96 427.32L192.6 427.32z" /></clipPath><clipPath id="4"><path id="" clip-rule="evenodd" transform="matrix(1 0 0 1 0 0)" d="M192.6 549.12L453.96 549.12L453.96 549.12L453.96 427.32L453.96 427.32L192.6 427.32z" /></clipPath><clipPath id="5"><path id="" clip-rule="evenodd" transform="matrix(1 0 0 1 0 0)" d="M192.6 549.12L453.96 549.12L453.96 549.12L453.96 427.32L453.96 427.32L192.6 427.32z" /></clipPath><clipPath id="6"><path id="" clip-rule="evenodd" transform="matrix(1 0 0 1 0 0)" d="M192.6 549.12L453.96 549.12L453.96 549.12L453.96 427.32L453.96 427.32L192.6 427.32z" /></clipPath><clipPath id="7"><path id="" clip-rule="evenodd" transform="matrix(1 0 0 1 0 0)" d="M192.6 549.12L453.96 549.12L453.96 549.12L453.96 427.32L453.96 427.32L192.6 427.32z" /></clipPath><clipPath id="8"><path id="" clip-rule="evenodd" transform="matrix(1 0 0 1 0 0)" d="M192.6 549.12L453.96 549.12L453.96 549.12L453.96 427.32L453.96 427.32L192.6 427.32z" /></clipPath><clipPath id="9"><path id="" clip-rule="evenodd" transform="matrix(1 0 0 1 0 0)" d="M192.6 549.12L453.96 549.12L453.96 549.12L453.96 427.32L453.96 427.32L192.6 427.32z" /></clipPath><clipPath id="10"><path id="" clip-rule="evenodd" transform="matrix(1 0 0 1 0 0)" d="M192.6 549.12L453.96 549.12L453.96 549.12L453.96 427.32L453.96 427.32L192.6 427.32z" /></clipPath><clipPath id="11"><path id="" clip-rule="evenodd" transform="matrix(1 0 0 1 0 0)" d="M192.6 549.12L453.96 549.12L453.96 549.12L453.96 427.32L453.96 427.32L192.6 427.32z" /></clipPath><clipPath id="12"><path id="" clip-rule="evenodd" transform="matrix(1 0 0 1 0 0)" d="M192.6 549.12L453.96 549.12L453.96 549.12L453.96 427.32L453.96 427.32L192.6 427.32z" /></clipPath><clipPath id="13"><path id="" clip-rule="evenodd" transform="matrix(1 0 0 1 0 0)" d="M192.6 549.12L453.96 549.12L453.96 549.12L453.96 427.32L453.96 427.32L192.6 427.32z" /></clipPath><clipPath id="14"><path id="" clip-rule="evenodd" transform="matrix(1 0 0 1 0 0)" d="M192.6 549.12L453.96 549.12L453.96 549.12L453.96 427.32L453.96 427.32L192.6 427.32z" /></clipPath><clipPath id="15"><path id="" clip-rule="evenodd" transform="matrix(1 0 0 1 0 0)" d="M193.08 447.12L326.401 447.12L326.401 447.12L326.401 231.6L326.401 231.6L193.08 231.6z" /></clipPath><clipPath id="16"><path id="" clip-rule="evenodd" transform="matrix(1 0 0 1 0 0)" d="M193.08 447.12L326.401 447.12L326.401 447.12L326.401 231.6L326.401 231.6L193.08 231.6z" /></clipPath><clipPath id="17"><path id="" clip-rule="evenodd" transform="matrix(1 0 0 1 0 0)" d="M193.08 447.12L326.401 447.12L326.401 447.12L326.401 231.6L326.401 231.6L193.08 231.6z" /></clipPath><clipPath id="18"><path id="" clip-rule="evenodd" transform="matrix(1 0 0 1 0 0)" d="M193.08 447.12L326.401 447.12L326.401 447.12L326.401 231.6L326.401 231.6L193.08 231.6z" /></clipPath><clipPath id="19"><path id="" clip-rule="evenodd" transform="matrix(1 0 0 1 0 0)" d="M193.08 447.12L326.401 447.12L326.401 447.12L326.401 231.6L326.401 231.6L193.08 231.6z" /></clipPath><clipPath id="20"><path id="" clip-rule="evenodd" transform="matrix(1 0 0 1 0 0)" d="M193.08 447.12L326.401 447.12L326.401 447.12L326.401 231.6L326.401 231.6L193.08 231.6z" /></clipPath><clipPath id="21"><path id="" clip-rule="evenodd" transform="matrix(1 0 0 1 0 0)" d="M193.08 447.12L326.401 447.12L326.401 447.12L326.401 231.6L326.401 231.6L193.08 231.6z" /></clipPath><clipPath id="22"><path id="" clip-rule="evenodd" transform="matrix(1 0 0 1 0 0)" d="M193.08 447.12L326.401 447.12L326.401 447.12L326.401 231.6L326.401 231.6L193.08 231.6z" /></clipPath><clipPath id="23"><path id="" clip-rule="evenodd" transform="matrix(1 0 0 1 0 0)" d="M319.08 447.12L452.401 447.12L452.401 447.12L452.401 231.6L452.401 231.6L319.08 231.6z" /></clipPath></defs><g transform="matrix(1.333333 0 0 1.333333 0 0)"><g clip-path="url(#1)"><path id="34" transform="matrix(1 0 0 -1 0 612)" d="M300.12 492.48L717 492.48L717 492.48L717 495.48L717 495.48L300.12 495.48z" stroke="none" fill="#000000" fill-rule="evenodd" /><g clip-path="url(#2)"></g><g clip-path="url(#3)"></g><g clip-path="url(#4)"></g><g clip-path="url(#5)"></g><g clip-path="url(#6)"></g><g clip-path="url(#7)"></g><g clip-path="url(#8)"></g><g clip-path="url(#9)"></g><g clip-path="url(#10)"></g><g clip-path="url(#11)"></g><g clip-path="url(#12)"></g><g clip-path="url(#13)"></g><g clip-path="url(#14)"></g><g clip-path="url(#15)"></g><g clip-path="url(#16)"></g><g clip-path="url(#17)"></g><g clip-path="url(#18)"></g><g clip-path="url(#19)"></g><g clip-path="url(#20)"></g><g clip-path="url(#21)"></g><g clip-path="url(#22)"></g><g clip-path="url(#23)"></g></g></g></svg>