<svg xmlns="http://www.w3.org/2000/svg" xmlns:xlink="http://www.w3.org/1999/xlink" id="body_5" preserveAspectRatio="xMinYMin meet" viewBox="0 0 1056 816"><defs><clipPath id="1"><path id="" clip-rule="evenodd" transform="matrix(1 0 0 1 0 0)" d="M0 612L0 0L0 0L792 0L792 0L792 612L792 612L0 612z" /></clipPath><clipPath id="2"><path id="" clip-rule="evenodd" transform="matrix(1 0 0 1 0 0)" d="M35.4 553.08L179.28 553.08L179.28 553.08L179.28 124.68L179.28 124.68L35.4 124.68z" /></clipPath><clipPath id="3"><path id="" clip-rule="evenodd" transform="matrix(1 0 0 1 0 0)" d="M35.4 553.08L179.28 553.08L179.28 553.08L179.28 124.68L179.28 124.68L35.4 124.68z" /></clipPath><clipPath id="4"><path id="" clip-rule="evenodd" transform="matrix(1 0 0 1 0 0)" d="M35.4 553.08L179.28 553.08L179.28 553.08L179.28 124.68L179.28 124.68L35.4 124.68z" /></clipPath><clipPath id="5"><path id="" clip-rule="evenodd" transform="matrix(1 0 0 1 0 0)" d="M42.6 205.68L172.08 205.68L172.08 205.68L172.08 124.68L172.08 124.68L42.6 124.68z" /></clipPath><clipPath id="6"><path id="" clip-rule="evenodd" transform="matrix(1 0 0 1 0 0)" d="M42.6 124.68L172.08 124.68L172.08 124.68L172.08 205.68L172.08 205.68L42.6 205.68z" /></clipPath><clipPath id="7"><path id="" clip-rule="evenodd" transform="matrix(1 0 0 1 0 0)" d="M42.6 287.64L164.88 287.64L164.88 287.64L164.88 338.64L164.88 338.64L42.6 338.64z" /></clipPath></defs><g transform="matrix(1.333333 0 0 1.333333 0 0)"><g clip-path="url(#1)"><g clip-path="url(#2)"></g><g clip-path="url(#3)"></g><g clip-path="url(#4)"></g><g clip-path="url(#5)"><g transform="matrix(0.1601423 0 0 0.160149 40 122)"><g transform="matrix(1 0 0 1 0 0)"><image x="0" y="0" xlink:href="img_09.png" width="843" height="537" /></g></g></g><g clip-path="url(#6)"></g><g clip-path="url(#7)"><g transform="matrix(0.2038 0 0 0.204 42.6 287.64)"><g transform="matrix(1 0 0 1 0 0)"><image x="0" y="0" xlink:href="img_10.png" width="600" height="250" /></g></g></g></g></g></svg>