<svg xmlns="http://www.w3.org/2000/svg" xmlns:xlink="http://www.w3.org/1999/xlink" id="body_4" preserveAspectRatio="xMinYMin meet" viewBox="0 0 1056 816"><defs><clipPath id="1"><path id="" clip-rule="evenodd" transform="matrix(1 0 0 1 0 0)" d="M0 612L0 0L0 0L792 0L792 0L792 612L792 612L0 612z" /></clipPath><clipPath id="2"><path id="" clip-rule="evenodd" transform="matrix(1 0 0 1 0 0)" d="M31.8 551.76L188.161 551.76L188.161 551.76L188.161 123.48L188.161 123.48L31.8 123.48z" /></clipPath><clipPath id="3"><path id="" clip-rule="evenodd" transform="matrix(1 0 0 1 0 0)" d="M31.8 551.76L188.161 551.76L188.161 551.76L188.161 123.48L188.161 123.48L31.8 123.48z" /></clipPath><clipPath id="4"><path id="" clip-rule="evenodd" transform="matrix(1 0 0 1 0 0)" d="M31.8 551.76L188.161 551.76L188.161 551.76L188.161 123.48L188.161 123.48L31.8 123.48z" /></clipPath></defs><g transform="matrix(1.333333 0 0 1.333333 0 0)"><g clip-path="url(#1)"><path id="2754" transform="matrix(1 0 0 -1 0 612)" d="M115.8 452.52L116.28 452.52L116.28 488.52L115.8 488.52z" stroke="none" fill="#000000" fill-rule="nonzero" /><path id="2773" transform="matrix(1 0 0 -1 0 612)" d="M115.8 428.52L116.28 428.52L116.28 452.52L115.8 452.52z" stroke="none" fill="#000000" fill-rule="nonzero" /><path id="2788" transform="matrix(1 0 0 -1 0 612)" d="M39.84 428.04L70.44 428.04L70.44 428.52L39.84 428.52z" stroke="none" fill="#000000" fill-rule="nonzero" /><path id="2789" transform="matrix(1 0 0 -1 0 612)" d="M70.44 428.04L70.92001 428.04L70.92001 428.52L70.44 428.52z" stroke="none" fill="#000000" fill-rule="nonzero" /><path id="2790" transform="matrix(1 0 0 -1 0 612)" d="M70.92 428.04L103.32 428.04L103.32 428.52L70.92 428.52z" stroke="none" fill="#000000" fill-rule="nonzero" /><path id="2791" transform="matrix(1 0 0 -1 0 612)" d="M103.32 428.04L103.8 428.04L103.8 428.52L103.32 428.52z" stroke="none" fill="#000000" fill-rule="nonzero" /><path id="2792" transform="matrix(1 0 0 -1 0 612)" d="M103.8 428.04L115.801 428.04L115.801 428.52L103.8 428.52z" stroke="none" fill="#000000" fill-rule="nonzero" /><path id="2793" transform="matrix(1 0 0 -1 0 612)" d="M115.8 428.04L116.28 428.04L116.28 428.52L115.8 428.52z" stroke="none" fill="#000000" fill-rule="nonzero" /><path id="2794" transform="matrix(1 0 0 -1 0 612)" d="M116.28 428.04L148.08 428.04L148.08 428.52L116.28 428.52z" stroke="none" fill="#000000" fill-rule="nonzero" /><path id="2795" transform="matrix(1 0 0 -1 0 612)" d="M148.08 428.04L148.561 428.04L148.561 428.52L148.08 428.52z" stroke="none" fill="#000000" fill-rule="nonzero" /><path id="2796" transform="matrix(1 0 0 -1 0 612)" d="M148.56 428.04L180.24 428.04L180.24 428.52L148.56 428.52z" stroke="none" fill="#000000" fill-rule="nonzero" /><path id="2797" transform="matrix(1 0 0 -1 0 612)" d="M115.8 404.04L116.28 404.04L116.28 428.04L115.8 428.04z" stroke="none" fill="#000000" fill-rule="nonzero" /><path id="2813" transform="matrix(1 0 0 -1 0 612)" d="M115.8 380.04L116.28 380.04L116.28 404.039L115.8 404.039z" stroke="none" fill="#000000" fill-rule="nonzero" /><path id="2829" transform="matrix(1 0 0 -1 0 612)" d="M115.8 356.04L116.28 356.04L116.28 380.04L115.8 380.04z" stroke="none" fill="#000000" fill-rule="nonzero" /><path id="2846" transform="matrix(1 0 0 -1 0 612)" d="M115.8 332.04L116.28 332.04L116.28 356.04L115.8 356.04z" stroke="none" fill="#000000" fill-rule="nonzero" /><g clip-path="url(#2)"></g><g clip-path="url(#3)"></g><g clip-path="url(#4)"></g></g></g></svg>