<svg xmlns="http://www.w3.org/2000/svg" xmlns:xlink="http://www.w3.org/1999/xlink" id="body_7" preserveAspectRatio="xMinYMin meet" viewBox="0 0 816 1056"><defs><clipPath id="1"><path id="" clip-rule="evenodd" transform="matrix(1 0 0 1 0 0)" d="M0 792L0 0L0 0L612 0L612 0L612 792L612 792L0 792z" /></clipPath><clipPath id="2"><path id="" clip-rule="evenodd" transform="matrix(1 0 0 1 0 0)" d="M133.768 536.803L477.4959 536.803L477.4959 536.803L477.4959 426.6444L477.4959 426.6444L133.768 426.6444z" /></clipPath><clipPath id="3"><path id="" clip-rule="evenodd" transform="matrix(1 0 0 1 0 0)" d="M134.265 536.4717L477.4959 536.4717L477.4959 536.4717L477.4959 426.6444L477.4959 426.6444L134.265 426.6444z" /></clipPath><clipPath id="4"><path id="" clip-rule="evenodd" transform="matrix(1 0 0 1 0 0)" d="M164.6265 516.6449L443.49 516.6449L443.49 516.6449L443.49 435.3098L443.49 435.3098L164.6265 435.3098z" /></clipPath><clipPath id="5"><path id="" clip-rule="evenodd" transform="matrix(1 0 0 1 0 0)" d="M134.265 536.4717L477.4959 536.4717L477.4959 536.4717L477.4959 426.6444L477.4959 426.6444L134.265 426.6444z" /></clipPath><clipPath id="6"><path id="" clip-rule="evenodd" transform="matrix(1 0 0 1 0 0)" d="M451.3775 516.6465L455.4444 516.6465L455.4444 516.6465L455.4444 435.3114L455.4444 435.3114L451.3775 435.3114z" /></clipPath><clipPath id="7"><path id="" clip-rule="evenodd" transform="matrix(1 0 0 1 0 0)" d="M134.265 536.4717L477.4959 536.4717L477.4959 536.4717L477.4959 426.6444L477.4959 426.6444L134.265 426.6444z" /></clipPath></defs><g transform="matrix(1.333333 0 0 1.333333 0 0)"><g clip-path="url(#1)"><g transform="matrix(0.5816088 0 0 0.5816087 133.768 171.4696)"><g transform="matrix(1 0 0 1 0 0)"><image x="0" y="0" xlink:href="img_10.png" width="591" height="183" /></g></g><g clip-path="url(#2)"><g clip-path="url(#3)"><path id="718" transform="matrix(1 0 0 -1 0 792)" d="M134.3196 255.583L477.7717 255.583L477.7717 365.7987L134.3196 365.7987z" stroke="none" fill="#FFFFFF" fill-rule="nonzero" /><path id="719" transform="matrix(1 0 0 -1 0 792)" d="M164.6262 275.3551L443.4897 275.3551L443.4897 356.6902L164.6262 356.6902z" stroke="none" fill="#FFFFFF" fill-rule="nonzero" /></g><g clip-path="url(#4)"><g transform="matrix(0.5963472 0 0 0.5963472 164.6261 434.9453)"><g transform="matrix(1 0 0 1 0 0)"><image x="0" y="0" xlink:href="img_11.png" width="468" height="137" /></g></g></g><g clip-path="url(#5)"><path id="721" transform="matrix(1 0 0 -1 0 792)" d="M170.436 275.3551L170.436 272.4562" stroke="none" fill="#000000" fill-rule="nonzero" /><path id="722" transform="matrix(1 0 0 -1 0 792)" d="M170.436 275.3551L170.436 272.4562" stroke="#000000" stroke-width="0.662608" fill="none" /><path id="723" transform="matrix(1 0 0 -1 0 792)" d="M170.4362 269.4134C 171.1071 269.4134 171.6206 269.14 171.9851 268.6099C 172.3412 268.0716 172.5235 267.293 172.5235 266.2825C 172.5235 265.2638 172.3412 264.4852 171.9851 263.9551C 171.6206 263.425 171.1071 263.16 170.4362 263.16C 169.757 263.16 169.2352 263.425 168.8791 263.9551C 168.5229 264.4852 168.349 265.2638 168.349 266.2825C 168.349 267.293 168.5229 268.0716 168.8791 268.6099C 169.2352 269.14 169.757 269.4134 170.4362 269.4134M170.4362 268.7673C 170.0138 268.7673 169.6991 268.5602 169.4837 268.1461C 169.2684 267.732 169.169 267.1108 169.169 266.2825C 169.169 265.4543 169.2684 264.8331 169.4837 264.4189C 169.6991 264.0048 170.0138 263.7978 170.4362 263.7978C 170.8586 263.7978 171.1734 264.0048 171.3887 264.4189C 171.5958 264.8331 171.7035 265.4543 171.7035 266.2825C 171.7035 267.1108 171.5958 267.732 171.3887 268.1461C 171.1734 268.5602 170.8586 268.7673 170.4362 268.7673" stroke="none" fill="#000000" fill-rule="evenodd" /><path id="724" transform="matrix(1 0 0 -1 0 792)" d="M182.0552 275.3551L182.0552 272.4562" stroke="none" fill="#000000" fill-rule="nonzero" /><path id="725" transform="matrix(1 0 0 -1 0 792)" d="M182.0552 275.3551L182.0552 272.4562" stroke="#000000" stroke-width="0.662608" fill="none" /><path id="726" transform="matrix(1 0 0 -1 0 792)" d="M180.4486 263.9551L181.7821 263.9551L181.7821 263.9551L181.7821 268.5603L181.7821 268.5603L180.3327 268.2704L180.3327 268.2704L180.3327 269.0158L180.3327 269.0158L181.7739 269.3057L181.7739 269.3057L182.5938 269.3057L182.5938 269.3057L182.5938 263.9551L182.5938 263.9551L183.9273 263.9551L183.9273 263.9551L183.9273 263.2677L183.9273 263.2677L180.4486 263.2677L180.4486 263.2677L180.4486 263.9551" stroke="none" fill="#000000" fill-rule="evenodd" /><path id="727" transform="matrix(1 0 0 -1 0 792)" d="M193.6745 275.3551L193.6745 272.4562" stroke="none" fill="#000000" fill-rule="nonzero" /><path id="728" transform="matrix(1 0 0 -1 0 792)" d="M193.6745 275.3551L193.6745 272.4562" stroke="#000000" stroke-width="0.662608" fill="none" /><path id="729" transform="matrix(1 0 0 -1 0 792)" d="M192.6311 263.9551L195.4803 263.9551L195.4803 263.9551L195.4803 263.2677L195.4803 263.2677L191.6455 263.2677L191.6455 263.2677L191.6455 263.9551C 191.9519 264.2699 192.3743 264.7006 192.9127 265.2472C 193.4428 265.7856 193.7824 266.1335 193.9232 266.2908C 194.1882 266.5807 194.3705 266.8292 194.4698 267.0363C 194.5692 267.235 194.6272 267.4421 194.6272 267.6409C 194.6272 267.9556 194.5113 268.2207 194.2876 268.4195C 194.064 268.6182 193.7741 268.7259 193.4097 268.7259C 193.1529 268.7259 192.8796 268.6762 192.598 268.5934C 192.3164 268.5023 192.0099 268.3698 191.6869 268.1875L191.6869 268.1875L191.6869 269.0158C 192.0182 269.1483 192.3246 269.2477 192.6063 269.314C 192.8879 269.3802 193.1529 269.4134 193.3931 269.4134C 194.0143 269.4134 194.5113 269.256 194.884 268.9412C 195.2567 268.6265 195.4472 268.2124 195.4472 267.6906C 195.4472 267.4421 195.3975 267.2019 195.3064 266.9866C 195.2153 266.7629 195.0496 266.4979 194.8011 266.1997C 194.7349 266.1169 194.5195 265.8932 194.1551 265.5205C 193.7907 265.1478 193.2854 264.626 192.6311 263.9551" stroke="none" fill="#000000" fill-rule="evenodd" /><path id="730" transform="matrix(1 0 0 -1 0 792)" d="M205.2937 275.3551L205.2937 272.4562" stroke="none" fill="#000000" fill-rule="nonzero" /><path id="731" transform="matrix(1 0 0 -1 0 792)" d="M205.2937 275.3551L205.2937 272.4562" stroke="#000000" stroke-width="0.662608" fill="none" /><path id="732" transform="matrix(1 0 0 -1 0 792)" d="M206.0229 266.5227C 206.4122 266.4399 206.7187 266.266 206.934 266.0009C 207.1494 265.7359 207.2653 265.4046 207.2653 265.0236C 207.2653 264.4272 207.0582 263.9634 206.6524 263.6404C 206.2383 263.3174 205.6585 263.16 204.9048 263.16C 204.648 263.16 204.3829 263.1848 204.1179 263.2345C 203.8529 263.2759 203.5713 263.3505 203.2896 263.4499L203.2896 263.4499L203.2896 264.2367C 203.5133 264.1042 203.7618 264.0048 204.0351 263.9386C 204.3001 263.8723 204.5817 263.8392 204.8799 263.8392C 205.3934 263.8392 205.7827 263.9386 206.0478 264.1373C 206.3128 264.3361 206.4536 264.6343 206.4536 265.0236C 206.4536 265.3715 206.3294 265.653 206.0809 265.8518C 205.8324 266.0506 205.4845 266.1583 205.0373 266.1583L205.0373 266.1583L204.3333 266.1583L204.3333 266.1583L204.3333 266.8292L204.3333 266.8292L205.0704 266.8292C 205.468 266.8292 205.7744 266.9037 205.9898 267.0694C 206.2051 267.2267 206.3128 267.4586 206.3128 267.7651C 206.3128 268.0716 206.1968 268.3118 205.9815 268.4774C 205.7579 268.6431 205.4431 268.7259 205.0373 268.7259C 204.8136 268.7259 204.5735 268.701 204.3167 268.6514C 204.0599 268.6017 203.7783 268.5271 203.4719 268.4277L203.4719 268.4277L203.4719 269.1566C 203.7783 269.2394 204.0682 269.3057 204.3415 269.3471C 204.6066 269.3885 204.8633 269.4134 205.1118 269.4134C 205.7247 269.4134 206.2134 269.2726 206.5779 268.9909C 206.9423 268.7093 207.1245 268.3283 207.1245 267.8479C 207.1245 267.5166 207.0251 267.235 206.8346 267.0031C 206.6441 266.7712 206.3708 266.6056 206.0229 266.5227" stroke="none" fill="#000000" fill-rule="evenodd" /><path id="733" transform="matrix(1 0 0 -1 0 792)" d="M216.9129 275.3551L216.9129 272.4562" stroke="none" fill="#000000" fill-rule="nonzero" /><path id="734" transform="matrix(1 0 0 -1 0 792)" d="M216.9129 275.3551L216.9129 272.4562" stroke="#000000" stroke-width="0.662608" fill="none" /><path id="735" transform="matrix(1 0 0 -1 0 792)" d="M217.1949 269.3057L218.2219 269.3057L218.2219 269.3057L218.2219 265.3715L218.2219 265.3715L219.0833 265.3715L219.0833 265.3715L219.0833 264.6923L219.0833 264.6923L218.2219 264.6923L218.2219 264.6923L218.2219 263.2677L218.2219 263.2677L217.4102 263.2677L217.4102 263.2677L217.4102 264.6923L217.4102 264.6923L214.6853 264.6923L214.6853 264.6923L214.6853 265.4791L214.6853 265.4791L217.1949 269.3057M217.4102 268.5934L215.3479 265.3715L215.3479 265.3715L217.4102 265.3715L217.4102 265.3715L217.4102 268.5934" stroke="none" fill="#000000" fill-rule="evenodd" /><path id="736" transform="matrix(1 0 0 -1 0 792)" d="M228.5325 275.3551L228.5325 272.4562" stroke="none" fill="#000000" fill-rule="nonzero" /><path id="737" transform="matrix(1 0 0 -1 0 792)" d="M228.5325 275.3551L228.5325 272.4562" stroke="#000000" stroke-width="0.662608" fill="none" /><path id="738" transform="matrix(1 0 0 -1 0 792)" d="M226.7932 269.3057L229.9986 269.3057L229.9986 269.3057L229.9986 268.6182L229.9986 268.6182L227.5386 268.6182L227.5386 268.6182L227.5386 267.1356C 227.6546 267.177 227.7788 267.2102 227.8948 267.2267C 228.0107 267.2433 228.135 267.2599 228.2509 267.2599C 228.9218 267.2599 229.4519 267.0694 229.8495 266.705C 230.247 266.3322 230.4458 265.8353 230.4458 265.2058C 230.4458 264.5515 230.2387 264.0462 229.8329 263.6901C 229.427 263.3339 228.8555 263.16 228.1267 263.16C 227.8699 263.16 227.6132 263.1848 227.3481 263.218C 227.0831 263.2594 226.818 263.3174 226.5364 263.4085L226.5364 263.4085L226.5364 264.2285C 226.7766 264.0959 227.0251 263.9966 227.2901 263.9303C 227.5469 263.864 227.8202 263.8392 228.1101 263.8392C 228.5739 263.8392 228.9467 263.9551 229.22 264.2036C 229.485 264.4521 229.6258 264.7834 229.6258 265.2058C 229.6258 265.6199 229.485 265.9512 229.22 266.1997C 228.9467 266.4482 228.5739 266.5724 228.1101 266.5724C 227.8948 266.5724 227.6711 266.5476 227.4558 266.4979C 227.2404 266.4482 227.0168 266.3736 226.7932 266.2743L226.7932 266.2743L226.7932 269.3057" stroke="none" fill="#000000" fill-rule="evenodd" /><path id="739" transform="matrix(1 0 0 -1 0 792)" d="M240.1514 275.3551L240.1514 272.4562" stroke="none" fill="#000000" fill-rule="nonzero" /><path id="740" transform="matrix(1 0 0 -1 0 792)" d="M240.1514 275.3551L240.1514 272.4562" stroke="#000000" stroke-width="0.662608" fill="none" /><path id="741" transform="matrix(1 0 0 -1 0 792)" d="M241.875 269.1732L241.875 268.4277C 241.6679 268.5271 241.4608 268.6017 241.2538 268.6514C 241.0384 268.701 240.8314 268.7259 240.6326 268.7259C 240.0859 268.7259 239.6718 268.5437 239.3902 268.1793C 239.1086 267.8148 238.9429 267.2599 238.9098 266.531C 239.0672 266.7629 239.266 266.9452 239.5061 267.0694C 239.7464 267.1936 240.0114 267.2599 240.3013 267.2599C 240.9059 267.2599 241.3863 267.0694 241.7342 266.705C 242.082 266.3405 242.2643 265.8353 242.2643 265.2058C 242.2643 264.5846 242.0738 264.0876 241.7093 263.7149C 241.3449 263.3422 240.8562 263.16 240.2516 263.16C 239.5558 263.16 239.0175 263.425 238.653 263.9551C 238.2803 264.4852 238.0981 265.2638 238.0981 266.2825C 238.0981 267.235 238.3217 267.997 238.7773 268.5602C 239.2245 269.1234 239.8374 269.4134 240.5995 269.4134C 240.7982 269.4134 241.0053 269.3885 241.2206 269.3554C 241.4277 269.314 241.6431 269.256 241.875 269.1732M240.2516 266.6138C 239.8871 266.6138 239.5973 266.4813 239.3819 266.2328C 239.1666 265.9844 239.0589 265.6365 239.0589 265.2058C 239.0589 264.7668 239.1666 264.4189 239.3819 264.1705C 239.5973 263.922 239.8871 263.7978 240.2516 263.7978C 240.616 263.7978 240.9059 263.922 241.1213 264.1705C 241.3366 264.4189 241.4443 264.7668 241.4443 265.2058C 241.4443 265.6365 241.3366 265.9844 241.1213 266.2328C 240.9059 266.4813 240.616 266.6138 240.2516 266.6138" stroke="none" fill="#000000" fill-rule="evenodd" /><path id="742" transform="matrix(1 0 0 -1 0 792)" d="M251.771 275.3551L251.771 272.4562" stroke="none" fill="#000000" fill-rule="nonzero" /><path id="743" transform="matrix(1 0 0 -1 0 792)" d="M251.771 275.3551L251.771 272.4562" stroke="#000000" stroke-width="0.662608" fill="none" /><path id="744" transform="matrix(1 0 0 -1 0 792)" d="M249.8163 269.3057L253.7009 269.3057L253.7009 269.3057L253.7009 268.9578L253.7009 268.9578L251.506 263.2677L251.506 263.2677L250.6529 263.2677L250.6529 263.2677L252.7152 268.6182L252.7152 268.6182L249.8163 268.6182L249.8163 268.6182L249.8163 269.3057" stroke="none" fill="#000000" fill-rule="evenodd" /><path id="745" transform="matrix(1 0 0 -1 0 792)" d="M263.3899 275.3551L263.3899 272.4562" stroke="none" fill="#000000" fill-rule="nonzero" /><path id="746" transform="matrix(1 0 0 -1 0 792)" d="M263.3899 275.3551L263.3899 272.4562" stroke="#000000" stroke-width="0.662608" fill="none" /><path id="747" transform="matrix(1 0 0 -1 0 792)" d="M262.2725 267.7734C 262.2725 267.4586 262.3636 267.2102 262.5624 267.0363C 262.7612 266.8623 263.0345 266.7795 263.3907 266.7795C 263.7386 266.7795 264.0119 266.8623 264.2107 267.0363C 264.4094 267.2102 264.5088 267.4586 264.5088 267.7734C 264.5088 268.0882 264.4094 268.3283 264.2107 268.5023C 264.0119 268.6762 263.7386 268.7673 263.3907 268.7673C 263.0345 268.7673 262.7612 268.6762 262.5624 268.5023C 262.3636 268.3283 262.2725 268.0882 262.2725 267.7734M262.5707 266.4813C 262.2228 266.5641 261.9495 266.7298 261.7507 266.97C 261.5519 267.2102 261.4608 267.5001 261.4608 267.8479C 261.4608 268.3283 261.6265 268.7093 261.9744 268.9909C 262.3139 269.2726 262.786 269.4134 263.3907 269.4134C 263.987 269.4134 264.4591 269.2726 264.807 268.9909C 265.1466 268.7093 265.3205 268.3283 265.3205 267.8479C 265.3205 267.5001 265.2211 267.2102 265.0223 266.97C 264.8235 266.7298 264.5585 266.5641 264.2107 266.4813C 264.5999 266.3902 264.9064 266.208 265.13 265.943C 265.3454 265.6779 265.4613 265.3466 265.4613 264.9656C 265.4613 264.3775 265.2791 263.9303 264.9229 263.6238C 264.5585 263.3091 264.0533 263.16 263.3907 263.16C 262.7198 263.16 262.2063 263.3091 261.8501 263.6238C 261.494 263.9303 261.32 264.3775 261.32 264.9656C 261.32 265.3466 261.4277 265.6779 261.6513 265.943C 261.8667 266.208 262.1731 266.3902 262.5707 266.4813M263.3907 266.1335C 263.0014 266.1335 262.6949 266.0258 262.4713 265.8187C 262.2477 265.6116 262.14 265.33 262.14 264.9656C 262.14 264.6012 262.2477 264.3113 262.4713 264.1042C 262.6949 263.8972 263.0014 263.7978 263.3907 263.7978C 263.7717 263.7978 264.0781 263.8972 264.3018 264.1125C 264.5254 264.3195 264.6413 264.6012 264.6413 264.9656C 264.6413 265.33 264.5254 265.6116 264.31 265.8187C 264.0864 266.0258 263.78 266.1335 263.3907 266.1335" stroke="none" fill="#000000" fill-rule="evenodd" /><path id="748" transform="matrix(1 0 0 -1 0 792)" d="M275.0095 275.3551L275.0095 272.4562" stroke="none" fill="#000000" fill-rule="nonzero" /><path id="749" transform="matrix(1 0 0 -1 0 792)" d="M275.0095 275.3551L275.0095 272.4562" stroke="#000000" stroke-width="0.662608" fill="none" /><path id="750" transform="matrix(1 0 0 -1 0 792)" d="M274.9101 265.9512C 275.2746 265.9512 275.5645 266.0755 275.7798 266.3239C 275.9951 266.5724 276.1028 266.9203 276.1028 267.3593C 276.1028 267.7899 275.9951 268.1378 275.7798 268.3863C 275.5645 268.6348 275.2746 268.7673 274.9101 268.7673C 274.5457 268.7673 274.2558 268.6348 274.0404 268.3863C 273.8251 268.1378 273.7174 267.7899 273.7174 267.3593C 273.7174 266.9203 273.8251 266.5724 274.0404 266.3239C 274.2558 266.0755 274.5457 265.9512 274.9101 265.9512M273.2867 263.3919L273.2867 264.1373C 273.4855 264.038 273.6926 263.9634 273.9079 263.9137C 274.115 263.864 274.3221 263.8392 274.5291 263.8392C 275.0592 263.8392 275.4733 264.0131 275.7549 264.3775C 276.0366 264.742 276.2022 265.2886 276.2519 266.0341C 276.0862 265.8022 275.8875 265.6199 275.6555 265.4957C 275.4153 265.3715 275.1503 265.3135 274.8604 265.3135C 274.2475 265.3135 273.7671 265.4957 273.4193 265.8601C 273.0714 266.2245 272.8974 266.7215 272.8974 267.3593C 272.8974 267.9722 273.0797 268.4691 273.4441 268.8502C 273.8085 269.2228 274.2972 269.4134 274.9101 269.4134C 275.6059 269.4134 276.1442 269.14 276.5087 268.6099C 276.8731 268.0716 277.0636 267.293 277.0636 266.2825C 277.0636 265.3217 276.8317 264.568 276.3844 264.0048C 275.9289 263.4416 275.3242 263.16 274.5623 263.16C 274.3552 263.16 274.1481 263.1848 273.941 263.218C 273.7257 263.2511 273.5103 263.3091 273.2867 263.3919" stroke="none" fill="#000000" fill-rule="evenodd" /><path id="751" transform="matrix(1 0 0 -1 0 792)" d="M286.6292 275.3551L286.6292 272.4562" stroke="none" fill="#000000" fill-rule="nonzero" /><path id="752" transform="matrix(1 0 0 -1 0 792)" d="M286.6292 275.3551L286.6292 272.4562" stroke="#000000" stroke-width="0.662608" fill="none" /><path id="753" transform="matrix(1 0 0 -1 0 792)" d="M282.3885 263.9551L283.722 263.9551L283.722 263.9551L283.722 268.5603L283.722 268.5603L282.2725 268.2704L282.2725 268.2704L282.2725 269.0158L282.2725 269.0158L283.7137 269.3057L283.7137 269.3057L284.5337 269.3057L284.5337 269.3057L284.5337 263.9551L284.5337 263.9551L285.8672 263.9551L285.8672 263.9551L285.8672 263.2677L285.8672 263.2677L282.3885 263.2677L282.3885 263.2677L282.3885 263.9551" stroke="none" fill="#000000" fill-rule="evenodd" /><path id="754" transform="matrix(1 0 0 -1 0 792)" d="M289.2631 269.4134C 289.9339 269.4134 290.4475 269.14 290.8119 268.6099C 291.1681 268.0716 291.3503 267.293 291.3503 266.2825C 291.3503 265.2638 291.1681 264.4852 290.8119 263.9551C 290.4475 263.425 289.9339 263.16 289.2631 263.16C 288.5839 263.16 288.0621 263.425 287.7059 263.9551C 287.3498 264.4852 287.1758 265.2638 287.1758 266.2825C 287.1758 267.293 287.3498 268.0716 287.7059 268.6099C 288.0621 269.14 288.5839 269.4134 289.2631 269.4134M289.2631 268.7673C 288.8406 268.7673 288.5259 268.5602 288.3105 268.1461C 288.0952 267.732 287.9958 267.1108 287.9958 266.2825C 287.9958 265.4543 288.0952 264.8331 288.3105 264.4189C 288.5259 264.0048 288.8406 263.7978 289.2631 263.7978C 289.6855 263.7978 290.0002 264.0048 290.2155 264.4189C 290.4226 264.8331 290.5303 265.4543 290.5303 266.2825C 290.5303 267.1108 290.4226 267.732 290.2155 268.1461C 290.0002 268.5602 289.6855 268.7673 289.2631 268.7673" stroke="none" fill="#000000" fill-rule="evenodd" /><path id="755" transform="matrix(1 0 0 -1 0 792)" d="M298.248 275.3551L298.248 272.4562" stroke="none" fill="#000000" fill-rule="nonzero" /><path id="756" transform="matrix(1 0 0 -1 0 792)" d="M298.248 275.3551L298.248 272.4562" stroke="#000000" stroke-width="0.662608" fill="none" /><path id="757" transform="matrix(1 0 0 -1 0 792)" d="M294.0081 263.9551L295.3416 263.9551L295.3416 263.9551L295.3416 268.5603L295.3416 268.5603L293.8922 268.2704L293.8922 268.2704L293.8922 269.0158L293.8922 269.0158L295.3333 269.3057L295.3333 269.3057L296.1533 269.3057L296.1533 269.3057L296.1533 263.9551L296.1533 263.9551L297.4868 263.9551L297.4868 263.9551L297.4868 263.2677L297.4868 263.2677L294.0081 263.2677L294.0081 263.2677L294.0081 263.9551" stroke="none" fill="#000000" fill-rule="evenodd" /><path id="758" transform="matrix(1 0 0 -1 0 792)" d="M299.2758 263.9551L300.6093 263.9551L300.6093 263.9551L300.6093 268.5603L300.6093 268.5603L299.1599 268.2704L299.1599 268.2704L299.1599 269.0158L299.1599 269.0158L300.6011 269.3057L300.6011 269.3057L301.4211 269.3057L301.4211 269.3057L301.4211 263.9551L301.4211 263.9551L302.7545 263.9551L302.7545 263.9551L302.7545 263.2677L302.7545 263.2677L299.2758 263.2677L299.2758 263.2677L299.2758 263.9551" stroke="none" fill="#000000" fill-rule="evenodd" /><path id="759" transform="matrix(1 0 0 -1 0 792)" d="M309.8677 275.3551L309.8677 272.4562" stroke="none" fill="#000000" fill-rule="nonzero" /><path id="760" transform="matrix(1 0 0 -1 0 792)" d="M309.8677 275.3551L309.8677 272.4562" stroke="#000000" stroke-width="0.662608" fill="none" /><path id="761" transform="matrix(1 0 0 -1 0 792)" d="M305.627 263.9551L306.9604 263.9551L306.9604 263.9551L306.9604 268.5603L306.9604 268.5603L305.511 268.2704L305.511 268.2704L305.511 269.0158L305.511 269.0158L306.9522 269.3057L306.9522 269.3057L307.7722 269.3057L307.7722 269.3057L307.7722 263.9551L307.7722 263.9551L309.1057 263.9551L309.1057 263.9551L309.1057 263.2677L309.1057 263.2677L305.627 263.2677L305.627 263.2677L305.627 263.9551" stroke="none" fill="#000000" fill-rule="evenodd" /><path id="762" transform="matrix(1 0 0 -1 0 792)" d="M311.4579 263.9551L314.3071 263.9551L314.3071 263.9551L314.3071 263.2677L314.3071 263.2677L310.4723 263.2677L310.4723 263.2677L310.4723 263.9551C 310.7787 264.2699 311.2011 264.7006 311.7395 265.2472C 312.2696 265.7856 312.6092 266.1335 312.75 266.2908C 313.015 266.5807 313.1973 266.8292 313.2966 267.0363C 313.396 267.235 313.454 267.4421 313.454 267.6409C 313.454 267.9556 313.338 268.2207 313.1144 268.4195C 312.8908 268.6182 312.6009 268.7259 312.2365 268.7259C 311.9797 268.7259 311.7064 268.6762 311.4248 268.5934C 311.1432 268.5023 310.8367 268.3698 310.5137 268.1875L310.5137 268.1875L310.5137 269.0158C 310.845 269.1483 311.1515 269.2477 311.433 269.314C 311.7147 269.3802 311.9797 269.4134 312.2199 269.4134C 312.8411 269.4134 313.338 269.256 313.7108 268.9412C 314.0835 268.6265 314.274 268.2124 314.274 267.6906C 314.274 267.4421 314.2243 267.2019 314.1332 266.9866C 314.0421 266.7629 313.8764 266.4979 313.628 266.1997C 313.5617 266.1169 313.3463 265.8932 312.9819 265.5205C 312.6175 265.1478 312.1122 264.626 311.4579 263.9551" stroke="none" fill="#000000" fill-rule="evenodd" /><path id="763" transform="matrix(1 0 0 -1 0 792)" d="M321.4865 275.3551L321.4865 272.4562" stroke="none" fill="#000000" fill-rule="nonzero" /><path id="764" transform="matrix(1 0 0 -1 0 792)" d="M321.4865 275.3551L321.4865 272.4562" stroke="#000000" stroke-width="0.662608" fill="none" /><path id="765" transform="matrix(1 0 0 -1 0 792)" d="M317.2466 263.9551L318.5801 263.9551L318.5801 263.9551L318.5801 268.5603L318.5801 268.5603L317.1306 268.2704L317.1306 268.2704L317.1306 269.0158L317.1306 269.0158L318.5718 269.3057L318.5718 269.3057L319.3918 269.3057L319.3918 269.3057L319.3918 263.9551L319.3918 263.9551L320.7253 263.9551L320.7253 263.9551L320.7253 263.2677L320.7253 263.2677L317.2466 263.2677L317.2466 263.2677L317.2466 263.9551" stroke="none" fill="#000000" fill-rule="evenodd" /><path id="766" transform="matrix(1 0 0 -1 0 792)" d="M324.85 266.5227C 325.2393 266.4399 325.5458 266.266 325.7611 266.0009C 325.9765 265.7359 326.0924 265.4046 326.0924 265.0236C 326.0924 264.4272 325.8853 263.9634 325.4795 263.6404C 325.0654 263.3174 324.4856 263.16 323.7319 263.16C 323.4751 263.16 323.2101 263.1848 322.945 263.2345C 322.68 263.2759 322.3984 263.3505 322.1168 263.4499L322.1168 263.4499L322.1168 264.2367C 322.3404 264.1042 322.5889 264.0048 322.8622 263.9386C 323.1273 263.8723 323.4089 263.8392 323.707 263.8392C 324.2206 263.8392 324.6098 263.9386 324.8749 264.1373C 325.1399 264.3361 325.2807 264.6343 325.2807 265.0236C 325.2807 265.3715 325.1565 265.653 324.908 265.8518C 324.6595 266.0506 324.3117 266.1583 323.8644 266.1583L323.8644 266.1583L323.1604 266.1583L323.1604 266.1583L323.1604 266.8292L323.1604 266.8292L323.8976 266.8292C 324.2951 266.8292 324.6016 266.9037 324.8169 267.0694C 325.0323 267.2267 325.1399 267.4586 325.1399 267.7651C 325.1399 268.0716 325.024 268.3118 324.8086 268.4774C 324.585 268.6431 324.2703 268.7259 323.8644 268.7259C 323.6408 268.7259 323.4006 268.701 323.1438 268.6514C 322.8871 268.6017 322.6055 268.5271 322.299 268.4277L322.299 268.4277L322.299 269.1566C 322.6055 269.2394 322.8954 269.3057 323.1687 269.3471C 323.4337 269.3885 323.6905 269.4134 323.939 269.4134C 324.5519 269.4134 325.0405 269.2726 325.405 268.9909C 325.7694 268.7093 325.9516 268.3283 325.9516 267.8479C 325.9516 267.5166 325.8523 267.235 325.6617 267.0031C 325.4712 266.7712 325.1979 266.6056 324.85 266.5227" stroke="none" fill="#000000" fill-rule="evenodd" /><path id="767" transform="matrix(1 0 0 -1 0 792)" d="M333.1061 275.3551L333.1061 272.4562" stroke="none" fill="#000000" fill-rule="nonzero" /><path id="768" transform="matrix(1 0 0 -1 0 792)" d="M333.1061 275.3551L333.1061 272.4562" stroke="#000000" stroke-width="0.662608" fill="none" /><path id="769" transform="matrix(1 0 0 -1 0 792)" d="M328.8663 263.9551L330.1998 263.9551L330.1998 263.9551L330.1998 268.5603L330.1998 268.5603L328.7503 268.2704L328.7503 268.2704L328.7503 269.0158L328.7503 269.0158L330.1915 269.3057L330.1915 269.3057L331.0115 269.3057L331.0115 269.3057L331.0115 263.9551L331.0115 263.9551L332.345 263.9551L332.345 263.9551L332.345 263.2677L332.345 263.2677L328.8663 263.2677L328.8663 263.2677L328.8663 263.9551" stroke="none" fill="#000000" fill-rule="evenodd" /><path id="770" transform="matrix(1 0 0 -1 0 792)" d="M336.0224 269.3057L337.0495 269.3057L337.0495 269.3057L337.0495 265.3715L337.0495 265.3715L337.9109 265.3715L337.9109 265.3715L337.9109 264.6923L337.9109 264.6923L337.0495 264.6923L337.0495 264.6923L337.0495 263.2677L337.0495 263.2677L336.2378 263.2677L336.2378 263.2677L336.2378 264.6923L336.2378 264.6923L333.5128 264.6923L333.5128 264.6923L333.5128 265.4791L333.5128 265.4791L336.0224 269.3057M336.2378 268.5934L334.1754 265.3715L334.1754 265.3715L336.2378 265.3715L336.2378 265.3715L336.2378 268.5934" stroke="none" fill="#000000" fill-rule="evenodd" /><path id="771" transform="matrix(1 0 0 -1 0 792)" d="M344.725 275.3551L344.725 272.4562" stroke="none" fill="#000000" fill-rule="nonzero" /><path id="772" transform="matrix(1 0 0 -1 0 792)" d="M344.725 275.3551L344.725 272.4562" stroke="#000000" stroke-width="0.662608" fill="none" /><path id="773" transform="matrix(1 0 0 -1 0 792)" d="M340.4851 263.9551L341.8186 263.9551L341.8186 263.9551L341.8186 268.5603L341.8186 268.5603L340.3691 268.2704L340.3691 268.2704L340.3691 269.0158L340.3691 269.0158L341.8103 269.3057L341.8103 269.3057L342.6303 269.3057L342.6303 269.3057L342.6303 263.9551L342.6303 263.9551L343.9638 263.9551L343.9638 263.9551L343.9638 263.2677L343.9638 263.2677L340.4851 263.2677L340.4851 263.2677L340.4851 263.9551" stroke="none" fill="#000000" fill-rule="evenodd" /><path id="774" transform="matrix(1 0 0 -1 0 792)" d="M345.6203 269.3057L348.8257 269.3057L348.8257 269.3057L348.8257 268.6182L348.8257 268.6182L346.3658 268.6182L346.3658 268.6182L346.3658 267.1356C 346.4817 267.177 346.606 267.2102 346.7219 267.2267C 346.8379 267.2433 346.9621 267.2599 347.0781 267.2599C 347.7489 267.2599 348.279 267.0694 348.6766 266.705C 349.0742 266.3322 349.2729 265.8353 349.2729 265.2058C 349.2729 264.5515 349.0659 264.0462 348.66 263.6901C 348.2542 263.3339 347.6827 263.16 346.9538 263.16C 346.6971 263.16 346.4403 263.1848 346.1753 263.218C 345.9102 263.2594 345.6452 263.3174 345.3636 263.4085L345.3636 263.4085L345.3636 264.2285C 345.6038 264.0959 345.8522 263.9966 346.1173 263.9303C 346.374 263.864 346.6474 263.8392 346.9373 263.8392C 347.4011 263.8392 347.7738 263.9551 348.0471 264.2036C 348.3122 264.4521 348.4529 264.7834 348.4529 265.2058C 348.4529 265.6199 348.3122 265.9512 348.0471 266.1997C 347.7738 266.4482 347.4011 266.5724 346.9373 266.5724C 346.7219 266.5724 346.4983 266.5476 346.2829 266.4979C 346.0676 266.4482 345.844 266.3736 345.6203 266.2743L345.6203 266.2743L345.6203 269.3057" stroke="none" fill="#000000" fill-rule="evenodd" /><path id="775" transform="matrix(1 0 0 -1 0 792)" d="M356.3447 275.3551L356.3447 272.4562" stroke="none" fill="#000000" fill-rule="nonzero" /><path id="776" transform="matrix(1 0 0 -1 0 792)" d="M356.3447 275.3551L356.3447 272.4562" stroke="#000000" stroke-width="0.662608" fill="none" /><path id="777" transform="matrix(1 0 0 -1 0 792)" d="M352.1048 263.9551L353.4383 263.9551L353.4383 263.9551L353.4383 268.5603L353.4383 268.5603L351.9888 268.2704L351.9888 268.2704L351.9888 269.0158L351.9888 269.0158L353.43 269.3057L353.43 269.3057L354.25 269.3057L354.25 269.3057L354.25 263.9551L354.25 263.9551L355.5835 263.9551L355.5835 263.9551L355.5835 263.2677L355.5835 263.2677L352.1048 263.2677L352.1048 263.2677L352.1048 263.9551" stroke="none" fill="#000000" fill-rule="evenodd" /><path id="778" transform="matrix(1 0 0 -1 0 792)" d="M360.7021 269.1732L360.7021 268.4277C 360.495 268.5271 360.2879 268.6017 360.0809 268.6514C 359.8655 268.701 359.6585 268.7259 359.4597 268.7259C 358.913 268.7259 358.4989 268.5437 358.2173 268.1793C 357.9357 267.8148 357.7701 267.2599 357.7369 266.531C 357.8943 266.7629 358.093 266.9452 358.3333 267.0694C 358.5735 267.1936 358.8385 267.2599 359.1284 267.2599C 359.733 267.2599 360.2134 267.0694 360.5612 266.705C 360.9091 266.3405 361.0914 265.8353 361.0914 265.2058C 361.0914 264.5846 360.9008 264.0876 360.5364 263.7149C 360.172 263.3422 359.6833 263.16 359.0787 263.16C 358.3829 263.16 357.8446 263.425 357.4801 263.9551C 357.1074 264.4852 356.9252 265.2638 356.9252 266.2825C 356.9252 267.235 357.1488 267.997 357.6044 268.5602C 358.0516 269.1234 358.6646 269.4134 359.4265 269.4134C 359.6253 269.4134 359.8324 269.3885 360.0478 269.3554C 360.2548 269.314 360.4702 269.256 360.7021 269.1732M359.0787 266.6138C 358.7143 266.6138 358.4243 266.4813 358.209 266.2328C 357.9937 265.9844 357.886 265.6365 357.886 265.2058C 357.886 264.7668 357.9937 264.4189 358.209 264.1705C 358.4243 263.922 358.7143 263.7978 359.0787 263.7978C 359.4431 263.7978 359.733 263.922 359.9484 264.1705C 360.1637 264.4189 360.2714 264.7668 360.2714 265.2058C 360.2714 265.6365 360.1637 265.9844 359.9484 266.2328C 359.733 266.4813 359.4431 266.6138 359.0787 266.6138" stroke="none" fill="#000000" fill-rule="evenodd" /><path id="779" transform="matrix(1 0 0 -1 0 792)" d="M367.9643 275.3551L367.9643 272.4562" stroke="none" fill="#000000" fill-rule="nonzero" /><path id="780" transform="matrix(1 0 0 -1 0 792)" d="M367.9643 275.3551L367.9643 272.4562" stroke="#000000" stroke-width="0.662608" fill="none" /><path id="781" transform="matrix(1 0 0 -1 0 792)" d="M363.7236 263.9551L365.0571 263.9551L365.0571 263.9551L365.0571 268.5603L365.0571 268.5603L363.6076 268.2704L363.6076 268.2704L363.6076 269.0158L363.6076 269.0158L365.0488 269.3057L365.0488 269.3057L365.8688 269.3057L365.8688 269.3057L365.8688 263.9551L365.8688 263.9551L367.2023 263.9551L367.2023 263.9551L367.2023 263.2677L367.2023 263.2677L363.7236 263.2677L363.7236 263.2677L363.7236 263.9551" stroke="none" fill="#000000" fill-rule="evenodd" /><path id="782" transform="matrix(1 0 0 -1 0 792)" d="M368.6434 269.3057L372.528 269.3057L372.528 269.3057L372.528 268.9578L372.528 268.9578L370.3331 263.2677L370.3331 263.2677L369.48 263.2677L369.48 263.2677L371.5424 268.6182L371.5424 268.6182L368.6434 268.6182L368.6434 268.6182L368.6434 269.3057" stroke="none" fill="#000000" fill-rule="evenodd" /><path id="783" transform="matrix(1 0 0 -1 0 792)" d="M379.5831 275.3551L379.5831 272.4562" stroke="none" fill="#000000" fill-rule="nonzero" /><path id="784" transform="matrix(1 0 0 -1 0 792)" d="M379.5831 275.3551L379.5831 272.4562" stroke="#000000" stroke-width="0.662608" fill="none" /><path id="785" transform="matrix(1 0 0 -1 0 792)" d="M375.3433 263.9551L376.6768 263.9551L376.6768 263.9551L376.6768 268.5603L376.6768 268.5603L375.2273 268.2704L375.2273 268.2704L375.2273 269.0158L375.2273 269.0158L376.6685 269.3057L376.6685 269.3057L377.4885 269.3057L377.4885 269.3057L377.4885 263.9551L377.4885 263.9551L378.822 263.9551L378.822 263.9551L378.822 263.2677L378.822 263.2677L375.3433 263.2677L375.3433 263.2677L375.3433 263.9551" stroke="none" fill="#000000" fill-rule="evenodd" /><path id="786" transform="matrix(1 0 0 -1 0 792)" d="M381.0996 267.7734C 381.0996 267.4586 381.1907 267.2102 381.3895 267.0363C 381.5883 266.8623 381.8616 266.7795 382.2178 266.7795C 382.5657 266.7795 382.839 266.8623 383.0378 267.0363C 383.2365 267.2102 383.3359 267.4586 383.3359 267.7734C 383.3359 268.0882 383.2365 268.3283 383.0378 268.5023C 382.839 268.6762 382.5657 268.7673 382.2178 268.7673C 381.8616 268.7673 381.5883 268.6762 381.3895 268.5023C 381.1907 268.3283 381.0996 268.0882 381.0996 267.7734M381.3978 266.4813C 381.05 266.5641 380.7766 266.7298 380.5779 266.97C 380.3791 267.2102 380.2879 267.5001 380.2879 267.8479C 380.2879 268.3283 380.4536 268.7093 380.8015 268.9909C 381.1411 269.2726 381.6132 269.4134 382.2178 269.4134C 382.8141 269.4134 383.2863 269.2726 383.6341 268.9909C 383.9737 268.7093 384.1476 268.3283 384.1476 267.8479C 384.1476 267.5001 384.0482 267.2102 383.8495 266.97C 383.6507 266.7298 383.3857 266.5641 383.0378 266.4813C 383.4271 266.3902 383.7335 266.208 383.9571 265.943C 384.1725 265.6779 384.2884 265.3466 384.2884 264.9656C 384.2884 264.3775 384.1062 263.9303 383.7501 263.6238C 383.3857 263.3091 382.8804 263.16 382.2178 263.16C 381.5469 263.16 381.0334 263.3091 380.6772 263.6238C 380.3211 263.9303 380.1471 264.3775 380.1471 264.9656C 380.1471 265.3466 380.2548 265.6779 380.4785 265.943C 380.6938 266.208 381.0002 266.3902 381.3978 266.4813M382.2178 266.1335C 381.8285 266.1335 381.5221 266.0258 381.2984 265.8187C 381.0748 265.6116 380.9671 265.33 380.9671 264.9656C 380.9671 264.6012 381.0748 264.3113 381.2984 264.1042C 381.5221 263.8972 381.8285 263.7978 382.2178 263.7978C 382.5988 263.7978 382.9052 263.8972 383.1289 264.1125C 383.3525 264.3195 383.4684 264.6012 383.4684 264.9656C 383.4684 265.33 383.3525 265.6116 383.1371 265.8187C 382.9135 266.0258 382.6071 266.1335 382.2178 266.1335" stroke="none" fill="#000000" fill-rule="evenodd" /><path id="787" transform="matrix(1 0 0 -1 0 792)" d="M391.2028 275.3551L391.2028 272.4562" stroke="none" fill="#000000" fill-rule="nonzero" /><path id="788" transform="matrix(1 0 0 -1 0 792)" d="M391.2028 275.3551L391.2028 272.4562" stroke="#000000" stroke-width="0.662608" fill="none" /><path id="789" transform="matrix(1 0 0 -1 0 792)" d="M386.9621 263.9551L388.2956 263.9551L388.2956 263.9551L388.2956 268.5603L388.2956 268.5603L386.8461 268.2704L386.8461 268.2704L386.8461 269.0158L386.8461 269.0158L388.2873 269.3057L388.2873 269.3057L389.1073 269.3057L389.1073 269.3057L389.1073 263.9551L389.1073 263.9551L390.4408 263.9551L390.4408 263.9551L390.4408 263.2677L390.4408 263.2677L386.9621 263.2677L386.9621 263.2677L386.9621 263.9551" stroke="none" fill="#000000" fill-rule="evenodd" /><path id="790" transform="matrix(1 0 0 -1 0 792)" d="M393.7372 265.9512C 394.1017 265.9512 394.3916 266.0755 394.6069 266.3239C 394.8223 266.5724 394.9299 266.9203 394.9299 267.3593C 394.9299 267.7899 394.8223 268.1378 394.6069 268.3863C 394.3916 268.6348 394.1017 268.7673 393.7372 268.7673C 393.3728 268.7673 393.0829 268.6348 392.8676 268.3863C 392.6522 268.1378 392.5446 267.7899 392.5446 267.3593C 392.5446 266.9203 392.6522 266.5724 392.8676 266.3239C 393.0829 266.0755 393.3728 265.9512 393.7372 265.9512M392.1138 263.3919L392.1138 264.1373C 392.3126 264.038 392.5197 263.9634 392.735 263.9137C 392.9421 263.864 393.1492 263.8392 393.3562 263.8392C 393.8863 263.8392 394.3004 264.0131 394.5821 264.3775C 394.8637 264.742 395.0293 265.2886 395.079 266.0341C 394.9134 265.8022 394.7146 265.6199 394.4827 265.4957C 394.2425 265.3715 393.9774 265.3135 393.6875 265.3135C 393.0746 265.3135 392.5942 265.4957 392.2464 265.8601C 391.8985 266.2245 391.7245 266.7215 391.7245 267.3593C 391.7245 267.9722 391.9068 268.4691 392.2712 268.8502C 392.6357 269.2228 393.1243 269.4134 393.7372 269.4134C 394.433 269.4134 394.9713 269.14 395.3358 268.6099C 395.7002 268.0716 395.8907 267.293 395.8907 266.2825C 395.8907 265.3217 395.6588 264.568 395.2115 264.0048C 394.756 263.4416 394.1514 263.16 393.3894 263.16C 393.1823 263.16 392.9753 263.1848 392.7682 263.218C 392.5528 263.2511 392.3375 263.3091 392.1138 263.3919" stroke="none" fill="#000000" fill-rule="evenodd" /><path id="791" transform="matrix(1 0 0 -1 0 792)" d="M402.8216 275.3551L402.8216 272.4562" stroke="none" fill="#000000" fill-rule="nonzero" /><path id="792" transform="matrix(1 0 0 -1 0 792)" d="M402.8216 275.3551L402.8216 272.4562" stroke="#000000" stroke-width="0.662608" fill="none" /><path id="793" transform="matrix(1 0 0 -1 0 792)" d="M399.145 263.9551L401.9942 263.9551L401.9942 263.9551L401.9942 263.2677L401.9942 263.2677L398.1594 263.2677L398.1594 263.2677L398.1594 263.9551C 398.4658 264.2699 398.8882 264.7006 399.4266 265.2472C 399.9567 265.7856 400.2963 266.1335 400.4371 266.2908C 400.7021 266.5807 400.8843 266.8292 400.9837 267.0363C 401.0831 267.235 401.1411 267.4421 401.1411 267.6409C 401.1411 267.9556 401.0251 268.2207 400.8015 268.4195C 400.5779 268.6182 400.288 268.7259 399.9236 268.7259C 399.6668 268.7259 399.3935 268.6762 399.1118 268.5934C 398.8302 268.5023 398.5238 268.3698 398.2008 268.1875L398.2008 268.1875L398.2008 269.0158C 398.5321 269.1483 398.8385 269.2477 399.1201 269.314C 399.4017 269.3802 399.6668 269.4134 399.907 269.4134C 400.5282 269.4134 401.0251 269.256 401.3979 268.9412C 401.7705 268.6265 401.9611 268.2124 401.9611 267.6906C 401.9611 267.4421 401.9114 267.2019 401.8203 266.9866C 401.7292 266.7629 401.5635 266.4979 401.315 266.1997C 401.2487 266.1169 401.0334 265.8932 400.669 265.5205C 400.3045 265.1478 399.7993 264.626 399.145 263.9551" stroke="none" fill="#000000" fill-rule="evenodd" /><path id="794" transform="matrix(1 0 0 -1 0 792)" d="M405.4563 269.4134C 406.1272 269.4134 406.6407 269.14 407.0052 268.6099C 407.3613 268.0716 407.5435 267.293 407.5435 266.2825C 407.5435 265.2638 407.3613 264.4852 407.0052 263.9551C 406.6407 263.425 406.1272 263.16 405.4563 263.16C 404.7771 263.16 404.2553 263.425 403.8992 263.9551C 403.543 264.4852 403.3691 265.2638 403.3691 266.2825C 403.3691 267.293 403.543 268.0716 403.8992 268.6099C 404.2553 269.14 404.7771 269.4134 405.4563 269.4134M405.4563 268.7673C 405.0339 268.7673 404.7191 268.5602 404.5038 268.1461C 404.2885 267.732 404.1891 267.1108 404.1891 266.2825C 404.1891 265.4543 404.2885 264.8331 404.5038 264.4189C 404.7191 264.0048 405.0339 263.7978 405.4563 263.7978C 405.8787 263.7978 406.1935 264.0048 406.4088 264.4189C 406.6158 264.8331 406.7235 265.4543 406.7235 266.2825C 406.7235 267.1108 406.6158 267.732 406.4088 268.1461C 406.1935 268.5602 405.8787 268.7673 405.4563 268.7673" stroke="none" fill="#000000" fill-rule="evenodd" /><path id="795" transform="matrix(1 0 0 -1 0 792)" d="M414.4413 275.3551L414.4413 272.4562" stroke="none" fill="#000000" fill-rule="nonzero" /><path id="796" transform="matrix(1 0 0 -1 0 792)" d="M414.4413 275.3551L414.4413 272.4562" stroke="#000000" stroke-width="0.662608" fill="none" /><path id="797" transform="matrix(1 0 0 -1 0 792)" d="M410.7646 263.9551L413.6138 263.9551L413.6138 263.9551L413.6138 263.2677L413.6138 263.2677L409.779 263.2677L409.779 263.2677L409.779 263.9551C 410.0854 264.2699 410.5078 264.7006 411.0462 265.2472C 411.5763 265.7856 411.9159 266.1335 412.0567 266.2908C 412.3217 266.5807 412.504 266.8292 412.6033 267.0363C 412.7027 267.235 412.7607 267.4421 412.7607 267.6409C 412.7607 267.9556 412.6447 268.2207 412.4211 268.4195C 412.1975 268.6182 411.9076 268.7259 411.5432 268.7259C 411.2864 268.7259 411.0131 268.6762 410.7315 268.5934C 410.4499 268.5023 410.1434 268.3698 409.8204 268.1875L409.8204 268.1875L409.8204 269.0158C 410.1517 269.1483 410.4582 269.2477 410.7397 269.314C 411.0214 269.3802 411.2864 269.4134 411.5266 269.4134C 412.1478 269.4134 412.6447 269.256 413.0175 268.9412C 413.3902 268.6265 413.5807 268.2124 413.5807 267.6906C 413.5807 267.4421 413.531 267.2019 413.4399 266.9866C 413.3488 266.7629 413.1831 266.4979 412.9347 266.1997C 412.8684 266.1169 412.653 265.8932 412.2886 265.5205C 411.9242 265.1478 411.4189 264.626 410.7646 263.9551" stroke="none" fill="#000000" fill-rule="evenodd" /><path id="798" transform="matrix(1 0 0 -1 0 792)" d="M415.4691 263.9551L416.8026 263.9551L416.8026 263.9551L416.8026 268.5603L416.8026 268.5603L415.3531 268.2704L415.3531 268.2704L415.3531 269.0158L415.3531 269.0158L416.7943 269.3057L416.7943 269.3057L417.6143 269.3057L417.6143 269.3057L417.6143 263.9551L417.6143 263.9551L418.9478 263.9551L418.9478 263.9551L418.9478 263.2677L418.9478 263.2677L415.4691 263.2677L415.4691 263.2677L415.4691 263.9551" stroke="none" fill="#000000" fill-rule="evenodd" /><path id="799" transform="matrix(1 0 0 -1 0 792)" d="M426.0601 275.3551L426.0601 272.4562" stroke="none" fill="#000000" fill-rule="nonzero" /><path id="800" transform="matrix(1 0 0 -1 0 792)" d="M426.0601 275.3551L426.0601 272.4562" stroke="#000000" stroke-width="0.662608" fill="none" /><path id="801" transform="matrix(1 0 0 -1 0 792)" d="M422.3835 263.9551L425.2327 263.9551L425.2327 263.9551L425.2327 263.2677L425.2327 263.2677L421.3979 263.2677L421.3979 263.2677L421.3979 263.9551C 421.7043 264.2699 422.1267 264.7006 422.6651 265.2472C 423.1952 265.7856 423.5348 266.1335 423.6756 266.2908C 423.9406 266.5807 424.1228 266.8292 424.2222 267.0363C 424.3216 267.235 424.3796 267.4421 424.3796 267.6409C 424.3796 267.9556 424.2636 268.2207 424.04 268.4195C 423.8164 268.6182 423.5265 268.7259 423.162 268.7259C 422.9053 268.7259 422.632 268.6762 422.3503 268.5934C 422.0687 268.5023 421.7623 268.3698 421.4393 268.1875L421.4393 268.1875L421.4393 269.0158C 421.7706 269.1483 422.077 269.2477 422.3586 269.314C 422.6402 269.3802 422.9053 269.4134 423.1455 269.4134C 423.7667 269.4134 424.2636 269.256 424.6364 268.9412C 425.009 268.6265 425.1996 268.2124 425.1996 267.6906C 425.1996 267.4421 425.1499 267.2019 425.0587 266.9866C 424.9677 266.7629 424.802 266.4979 424.5535 266.1997C 424.4872 266.1169 424.2719 265.8932 423.9075 265.5205C 423.543 265.1478 423.0378 264.626 422.3835 263.9551" stroke="none" fill="#000000" fill-rule="evenodd" /><path id="802" transform="matrix(1 0 0 -1 0 792)" d="M427.6512 263.9551L430.5004 263.9551L430.5004 263.9551L430.5004 263.2677L430.5004 263.2677L426.6656 263.2677L426.6656 263.2677L426.6656 263.9551C 426.972 264.2699 427.3944 264.7006 427.9328 265.2472C 428.4629 265.7856 428.8025 266.1335 428.9433 266.2908C 429.2083 266.5807 429.3905 266.8292 429.4899 267.0363C 429.5893 267.235 429.6473 267.4421 429.6473 267.6409C 429.6473 267.9556 429.5313 268.2207 429.3077 268.4195C 429.0841 268.6182 428.7942 268.7259 428.4297 268.7259C 428.173 268.7259 427.8997 268.6762 427.618 268.5934C 427.3364 268.5023 427.03 268.3698 426.707 268.1875L426.707 268.1875L426.707 269.0158C 427.0383 269.1483 427.3447 269.2477 427.6263 269.314C 427.9079 269.3802 428.173 269.4134 428.4132 269.4134C 429.0344 269.4134 429.5313 269.256 429.9041 268.9412C 430.2767 268.6265 430.4673 268.2124 430.4673 267.6906C 430.4673 267.4421 430.4176 267.2019 430.3264 266.9866C 430.2354 266.7629 430.0697 266.4979 429.8212 266.1997C 429.7549 266.1169 429.5396 265.8932 429.1752 265.5205C 428.8107 265.1478 428.3055 264.626 427.6512 263.9551" stroke="none" fill="#000000" fill-rule="evenodd" /><path id="803" transform="matrix(1 0 0 -1 0 792)" d="M437.6798 275.3551L437.6798 272.4562" stroke="none" fill="#000000" fill-rule="nonzero" /><path id="804" transform="matrix(1 0 0 -1 0 792)" d="M437.6798 275.3551L437.6798 272.4562" stroke="#000000" stroke-width="0.662608" fill="none" /><path id="805" transform="matrix(1 0 0 -1 0 792)" d="M434.0031 263.9551L436.8523 263.9551L436.8523 263.9551L436.8523 263.2677L436.8523 263.2677L433.0175 263.2677L433.0175 263.2677L433.0175 263.9551C 433.3239 264.2699 433.7463 264.7006 434.2847 265.2472C 434.8148 265.7856 435.1544 266.1335 435.2952 266.2908C 435.5602 266.5807 435.7425 266.8292 435.8418 267.0363C 435.9412 267.235 435.9992 267.4421 435.9992 267.6409C 435.9992 267.9556 435.8832 268.2207 435.6596 268.4195C 435.436 268.6182 435.1461 268.7259 434.7817 268.7259C 434.5249 268.7259 434.2516 268.6762 433.97 268.5934C 433.6884 268.5023 433.3819 268.3698 433.0589 268.1875L433.0589 268.1875L433.0589 269.0158C 433.3902 269.1483 433.6967 269.2477 433.9782 269.314C 434.2599 269.3802 434.5249 269.4134 434.7651 269.4134C 435.3863 269.4134 435.8832 269.256 436.256 268.9412C 436.6287 268.6265 436.8192 268.2124 436.8192 267.6906C 436.8192 267.4421 436.7695 267.2019 436.6784 266.9866C 436.5873 266.7629 436.4216 266.4979 436.1732 266.1997C 436.1069 266.1169 435.8915 265.8932 435.5271 265.5205C 435.1627 265.1478 434.6574 264.626 434.0031 263.9551" stroke="none" fill="#000000" fill-rule="evenodd" /><path id="806" transform="matrix(1 0 0 -1 0 792)" d="M441.0433 266.5227C 441.4326 266.4399 441.7391 266.266 441.9544 266.0009C 442.1698 265.7359 442.2857 265.4046 442.2857 265.0236C 442.2857 264.4272 442.0786 263.9634 441.6728 263.6404C 441.2587 263.3174 440.6789 263.16 439.9252 263.16C 439.6684 263.16 439.4034 263.1848 439.1383 263.2345C 438.8733 263.2759 438.5916 263.3505 438.3101 263.4499L438.3101 263.4499L438.3101 264.2367C 438.5337 264.1042 438.7822 264.0048 439.0555 263.9386C 439.3205 263.8723 439.6021 263.8392 439.9003 263.8392C 440.4138 263.8392 440.8031 263.9386 441.0681 264.1373C 441.3332 264.3361 441.474 264.6343 441.474 265.0236C 441.474 265.3715 441.3498 265.653 441.1013 265.8518C 440.8528 266.0506 440.5049 266.1583 440.0577 266.1583L440.0577 266.1583L439.3537 266.1583L439.3537 266.1583L439.3537 266.8292L439.3537 266.8292L440.0908 266.8292C 440.4884 266.8292 440.7948 266.9037 441.0102 267.0694C 441.2255 267.2267 441.3332 267.4586 441.3332 267.7651C 441.3332 268.0716 441.2173 268.3118 441.0019 268.4774C 440.7783 268.6431 440.4635 268.7259 440.0577 268.7259C 439.834 268.7259 439.5938 268.701 439.3371 268.6514C 439.0803 268.6017 438.7987 268.5271 438.4923 268.4277L438.4923 268.4277L438.4923 269.1566C 438.7987 269.2394 439.0886 269.3057 439.3619 269.3471C 439.627 269.3885 439.8838 269.4134 440.1322 269.4134C 440.7451 269.4134 441.2338 269.2726 441.5982 268.9909C 441.9627 268.7093 442.1449 268.3283 442.1449 267.8479C 442.1449 267.5166 442.0455 267.235 441.855 267.0031C 441.6645 266.7712 441.3912 266.6056 441.0433 266.5227" stroke="none" fill="#000000" fill-rule="evenodd" /><path id="807" transform="matrix(1 0 0 -1 0 792)" d="M164.6262 350.8809L161.7272 350.8809" stroke="none" fill="#000000" fill-rule="nonzero" /><path id="808" transform="matrix(1 0 0 -1 0 792)" d="M164.6262 350.8809L161.7272 350.8809" stroke="#000000" stroke-width="0.662608" fill="none" /><path id="809" transform="matrix(1 0 0 -1 0 792)" d="M142.1689 353.774L143.3865 353.774L143.3865 353.774L144.927 349.6658L144.927 349.6658L146.4759 353.774L146.4759 353.774L147.6934 353.774L147.6934 353.774L147.6934 347.736L147.6934 347.736L146.8983 347.736L146.8983 347.736L146.8983 353.0369L146.8983 353.0369L145.3412 348.8956L145.3412 348.8956L144.5212 348.8956L144.5212 348.8956L142.9641 353.0369L142.9641 353.0369L142.9641 347.736L142.9641 347.736L142.1689 347.736L142.1689 347.736L142.1689 353.774" stroke="none" fill="#000000" fill-rule="evenodd" /><path id="810" transform="matrix(1 0 0 -1 0 792)" d="M151.0396 352.3742C 151.6856 352.3742 152.1909 352.1589 152.5636 351.7448C 152.928 351.3224 153.1185 350.7426 153.1185 349.9971C 153.1185 349.2517 152.928 348.6719 152.5636 348.2578C 152.1909 347.8354 151.6856 347.6283 151.0396 347.6283C 150.3853 347.6283 149.8718 347.8354 149.5073 348.2578C 149.1429 348.6719 148.9607 349.2517 148.9607 349.9971C 148.9607 350.7426 149.1429 351.3224 149.5073 351.7448C 149.8718 352.1589 150.3853 352.3742 151.0396 352.3742M151.0396 351.7448C 150.642 351.7448 150.3273 351.5874 150.0954 351.2726C 149.8635 350.9579 149.7475 350.5355 149.7475 349.9971C 149.7475 349.4505 149.8552 349.0281 150.0871 348.7133C 150.319 348.3986 150.6338 348.2495 151.0396 348.2495C 151.4372 348.2495 151.7519 348.3986 151.9838 348.7133C 152.2157 349.0281 152.3317 349.4505 152.3317 349.9971C 152.3317 350.5272 152.2157 350.9579 151.9838 351.2726C 151.7519 351.5874 151.4372 351.7448 151.0396 351.7448" stroke="none" fill="#000000" fill-rule="evenodd" /><path id="811" transform="matrix(1 0 0 -1 0 792)" d="M158.1212 350.4692L158.1212 347.736L158.1212 347.736L157.3758 347.736L157.3758 347.736L157.3758 350.4444C 157.3758 350.8751 157.2847 351.1898 157.119 351.4052C 156.9534 351.6205 156.7049 351.7282 156.3736 351.7282C 155.9677 351.7282 155.653 351.5957 155.4211 351.3389C 155.1892 351.0822 155.0732 350.7343 155.0732 350.2953L155.0732 350.2953L155.0732 347.736L155.0732 347.736L154.3278 347.736L154.3278 347.736L154.3278 352.2666L154.3278 352.2666L155.0732 352.2666L155.0732 352.2666L155.0732 351.5626C 155.2472 351.8276 155.4542 352.0347 155.7027 352.1672C 155.9429 352.2997 156.2245 352.3742 156.5393 352.3742C 157.0528 352.3742 157.4503 352.2086 157.7154 351.8856C 157.9804 351.5626 158.1212 351.0905 158.1212 350.4692" stroke="none" fill="#000000" fill-rule="evenodd" /><path id="812" transform="matrix(1 0 0 -1 0 792)" d="M164.6262 339.2613L161.7272 339.2613" stroke="none" fill="#000000" fill-rule="nonzero" /><path id="813" transform="matrix(1 0 0 -1 0 792)" d="M164.6262 339.2613L161.7272 339.2613" stroke="#000000" stroke-width="0.662608" fill="none" /><path id="814" transform="matrix(1 0 0 -1 0 792)" d="M143.4113 342.1544L148.5134 342.1544L148.5134 342.1544L148.5134 341.4669L148.5134 341.4669L146.3682 341.4669L146.3682 341.4669L146.3682 336.1163L146.3682 336.1163L145.5483 336.1163L145.5483 336.1163L145.5483 341.4669L145.5483 341.4669L143.4113 341.4669L143.4113 341.4669L143.4113 342.1544" stroke="none" fill="#000000" fill-rule="evenodd" /><path id="815" transform="matrix(1 0 0 -1 0 792)" d="M151.0562 340.7546L151.0562 340.7546M149.1843 337.9054L149.1843 340.6469L149.1843 340.6469L149.9297 340.6469L149.9297 340.6469L149.9297 337.9302C 149.9297 337.4995 150.0126 337.1848 150.1782 336.9695C 150.3439 336.7541 150.5924 336.6464 150.9319 336.6464C 151.3295 336.6464 151.6525 336.7707 151.8844 337.0274C 152.1163 337.2842 152.2323 337.632 152.2323 338.0793L152.2323 338.0793L152.2323 340.6469L152.2323 340.6469L152.9778 340.6469L152.9778 340.6469L152.9778 336.1163L152.9778 336.1163L152.2323 336.1163L152.2323 336.1163L152.2323 336.8121C 152.0501 336.5305 151.8347 336.3317 151.6028 336.1992C 151.3626 336.0749 151.0893 336.0087 150.7746 336.0087C 150.2528 336.0087 149.8552 336.166 149.5902 336.489C 149.3168 336.8038 149.1843 337.2759 149.1843 337.9054" stroke="none" fill="#000000" fill-rule="evenodd" /><path id="816" transform="matrix(1 0 0 -1 0 792)" d="M157.6409 338.7833C 157.6326 339.1892 157.5166 339.5122 157.3013 339.7607C 157.0776 340.0009 156.7794 340.1251 156.415 340.1251C 156.0009 340.1251 155.6696 340.0009 155.4211 339.769C 155.1726 339.537 155.0235 339.2057 154.9904 338.7833L154.9904 338.7833L157.6409 338.7833M158.3863 338.568L158.3863 338.2036L158.3863 338.2036L154.9656 338.2036C 154.9987 337.69 155.1478 337.2924 155.4294 337.0274C 155.7027 336.7624 156.0837 336.6299 156.5807 336.6299C 156.8623 336.6299 157.1439 336.663 157.4089 336.7292C 157.674 336.7955 157.9473 336.9032 158.2123 337.0523L158.2123 337.0523L158.2123 336.3482C 157.9473 336.2323 157.674 336.1412 157.3924 336.0915C 157.1108 336.0418 156.8209 336.0087 156.5393 336.0087C 155.8104 336.0087 155.2389 336.2157 154.8165 336.6299C 154.3941 337.044 154.187 337.6155 154.187 338.3361C 154.187 339.0732 154.3858 339.6613 154.7834 340.1003C 155.1809 340.5309 155.7276 340.7546 156.4067 340.7546C 157.0197 340.7546 157.5 340.5558 157.8562 340.1665C 158.2041 339.769 158.3863 339.2389 158.3863 338.568" stroke="none" fill="#000000" fill-rule="evenodd" /><path id="817" transform="matrix(1 0 0 -1 0 792)" d="M164.6262 327.6419L161.7272 327.6419" stroke="none" fill="#000000" fill-rule="nonzero" /><path id="818" transform="matrix(1 0 0 -1 0 792)" d="M164.6262 327.6419L161.7272 327.6419" stroke="#000000" stroke-width="0.662608" fill="none" /><path id="819" transform="matrix(1 0 0 -1 0 792)" d="M140.5564 330.5351L141.3847 330.5351L141.3847 330.5351L142.6519 325.433L142.6519 325.433L143.9192 330.5351L143.9192 330.5351L144.8385 330.5351L144.8385 330.5351L146.1058 325.433L146.1058 325.433L147.373 330.5351L147.373 330.5351L148.2013 330.5351L148.2013 330.5351L146.6855 324.4971L146.6855 324.4971L145.6585 324.4971L145.6585 324.4971L144.383 329.74L144.383 329.74L143.0992 324.4971L143.0992 324.4971L142.0722 324.4971L142.0722 324.4971L140.5564 330.5351" stroke="none" fill="#000000" fill-rule="evenodd" /><path id="820" transform="matrix(1 0 0 -1 0 792)" d="M152.384 327.1641C 152.3757 327.5699 152.2597 327.893 152.0444 328.1414C 151.8208 328.3817 151.5226 328.5059 151.1582 328.5059C 150.744 328.5059 150.4127 328.3817 150.1642 328.1497C 149.9158 327.9178 149.7667 327.5865 149.7336 327.1641L149.7336 327.1641L152.384 327.1641M153.1294 326.9488L153.1294 326.5843L153.1294 326.5843L149.7087 326.5843C 149.7418 326.0708 149.8909 325.6732 150.1725 325.4082C 150.4458 325.1432 150.8268 325.0106 151.3238 325.0106C 151.6054 325.0106 151.887 325.0438 152.1521 325.11C 152.4171 325.1763 152.6904 325.2839 152.9555 325.433L152.9555 325.433L152.9555 324.729C 152.6904 324.6131 152.4171 324.5219 152.1355 324.4723C 151.8539 324.4225 151.564 324.3894 151.2824 324.3894C 150.5535 324.3894 149.982 324.5965 149.5596 325.0106C 149.1372 325.4247 148.9301 325.9962 148.9301 326.7168C 148.9301 327.454 149.1289 328.0421 149.5265 328.481C 149.924 328.9117 150.4707 329.1353 151.1499 329.1353C 151.7628 329.1353 152.2432 328.9366 152.5993 328.5473C 152.9472 328.1497 153.1294 327.6196 153.1294 326.9488" stroke="none" fill="#000000" fill-rule="evenodd" /><path id="821" transform="matrix(1 0 0 -1 0 792)" d="M154.7942 326.7582C 154.7942 326.2116 154.9019 325.7809 155.1255 325.4662C 155.3492 325.1514 155.6639 325.0023 156.0615 325.0023C 156.4507 325.0023 156.7572 325.1514 156.9891 325.4662C 157.2127 325.7809 157.3287 326.2116 157.3287 326.7582C 157.3287 327.3049 157.2127 327.7273 156.9891 328.0421C 156.7572 328.3568 156.4507 328.5142 156.0615 328.5142C 155.6639 328.5142 155.3492 328.3568 155.1255 328.0421C 154.9019 327.7273 154.7942 327.3049 154.7942 326.7582M157.3287 328.3402L157.3287 330.7919L157.3287 330.7919L158.0741 330.7919L158.0741 330.7919L158.0741 324.4971L158.0741 324.4971L157.3287 324.4971L157.3287 324.4971L157.3287 325.1763C 157.1713 324.903 156.9725 324.7042 156.7323 324.5799C 156.4921 324.4557 156.2105 324.3894 155.8792 324.3894C 155.3326 324.3894 154.8853 324.6048 154.5375 325.0355C 154.1896 325.4662 154.0239 326.046 154.0239 326.7582C 154.0239 327.4706 154.1896 328.0421 154.5375 328.481C 154.8853 328.9117 155.3326 329.1353 155.8792 329.1353C 156.2105 329.1353 156.4921 329.0691 156.7323 328.9366C 156.9725 328.804 157.1713 328.6053 157.3287 328.3402" stroke="none" fill="#000000" fill-rule="evenodd" /><path id="822" transform="matrix(1 0 0 -1 0 792)" d="M164.6262 316.0227L161.7272 316.0227" stroke="none" fill="#000000" fill-rule="nonzero" /><path id="823" transform="matrix(1 0 0 -1 0 792)" d="M164.6262 316.0227L161.7272 316.0227" stroke="#000000" stroke-width="0.662608" fill="none" /><path id="824" transform="matrix(1 0 0 -1 0 792)" d="M143.2431 318.9159L148.3452 318.9159L148.3452 318.9159L148.3452 318.2284L148.3452 318.2284L146.2 318.2284L146.2 318.2284L146.2 312.8778L146.2 312.8778L145.38 312.8778L145.38 312.8778L145.38 318.2284L145.38 318.2284L143.2431 318.2284L143.2431 318.2284L143.2431 318.9159" stroke="none" fill="#000000" fill-rule="evenodd" /><path id="825" transform="matrix(1 0 0 -1 0 792)" d="M152.8675 315.6111L152.8675 312.8778L152.8675 312.8778L152.1221 312.8778L152.1221 312.8778L152.1221 315.5862C 152.1221 316.0169 152.031 316.3317 151.8653 316.547C 151.6997 316.7624 151.4512 316.8701 151.1199 316.8701C 150.714 316.8701 150.3993 316.7375 150.1674 316.4808C 149.9355 316.224 149.8195 315.8761 149.8195 315.4372L149.8195 315.4372L149.8195 312.8778L149.8195 312.8778L149.0741 312.8778L149.0741 312.8778L149.0741 319.1726L149.0741 319.1726L149.8195 319.1726L149.8195 319.1726L149.8195 316.7044C 149.9934 316.9695 150.2005 317.1765 150.449 317.309C 150.6892 317.4416 150.9708 317.5161 151.2855 317.5161C 151.7991 317.5161 152.1966 317.3505 152.4617 317.0274C 152.7267 316.7044 152.8675 316.2323 152.8675 315.6111" stroke="none" fill="#000000" fill-rule="evenodd" /><path id="826" transform="matrix(1 0 0 -1 0 792)" d="M156.1474 317.5161L156.1474 317.5161M154.2756 314.6669L154.2756 317.4084L154.2756 317.4084L155.021 317.4084L155.021 317.4084L155.021 314.6917C 155.021 314.261 155.1038 313.9463 155.2695 313.731C 155.4351 313.5156 155.6836 313.4079 156.0232 313.4079C 156.4208 313.4079 156.7438 313.5322 156.9757 313.7889C 157.2076 314.0457 157.3235 314.3936 157.3235 314.8408L157.3235 314.8408L157.3235 317.4084L157.3235 317.4084L158.069 317.4084L158.069 317.4084L158.069 312.8778L158.069 312.8778L157.3235 312.8778L157.3235 312.8778L157.3235 313.5736C 157.1413 313.292 156.926 313.0932 156.6941 312.9607C 156.4539 312.8364 156.1805 312.7702 155.8658 312.7702C 155.344 312.7702 154.9464 312.9275 154.6814 313.2505C 154.4081 313.5653 154.2756 314.0374 154.2756 314.6669" stroke="none" fill="#000000" fill-rule="evenodd" /><path id="827" transform="matrix(1 0 0 -1 0 792)" d="M164.6262 304.4034L161.7272 304.4034" stroke="none" fill="#000000" fill-rule="nonzero" /><path id="828" transform="matrix(1 0 0 -1 0 792)" d="M164.6262 304.4034L161.7272 304.4034" stroke="#000000" stroke-width="0.662608" fill="none" /><path id="829" transform="matrix(1 0 0 -1 0 792)" d="M149.1703 307.2966L152.6407 307.2966L152.6407 307.2966L152.6407 306.6092L152.6407 306.6092L149.9903 306.6092L149.9903 306.6092L149.9903 304.8284L149.9903 304.8284L152.384 304.8284L152.384 304.8284L152.384 304.141L152.384 304.141L149.9903 304.141L149.9903 304.141L149.9903 301.2586L149.9903 301.2586L149.1703 301.2586L149.1703 301.2586L149.1703 307.2966" stroke="none" fill="#000000" fill-rule="evenodd" /><path id="830" transform="matrix(1 0 0 -1 0 792)" d="M156.5253 305.0934C 156.4425 305.1431 156.3513 305.1763 156.2519 305.2011C 156.1525 305.2177 156.0449 305.2343 155.9289 305.2343C 155.5065 305.2343 155.1835 305.0934 154.9599 304.8201C 154.728 304.5468 154.6203 304.1575 154.6203 303.644L154.6203 303.644L154.6203 301.2586L154.6203 301.2586L153.8748 301.2586L153.8748 301.2586L153.8748 305.7892L153.8748 305.7892L154.6203 305.7892L154.6203 305.7892L154.6203 305.0852C 154.7694 305.3585 154.9764 305.5656 155.2249 305.6981C 155.4734 305.8306 155.7798 305.8969 156.1443 305.8969C 156.194 305.8969 156.2519 305.8886 156.3182 305.8886C 156.3762 305.8803 156.4425 305.872 156.5253 305.8555L156.5253 305.8555L156.5253 305.0934" stroke="none" fill="#000000" fill-rule="evenodd" /><path id="831" transform="matrix(1 0 0 -1 0 792)" d="M157.3038 307.5534L158.0493 307.5534L158.0493 307.5534L158.0493 306.6092L158.0493 306.6092L157.3038 306.6092L157.3038 306.6092L157.3038 307.5534M157.3038 305.7892L158.0493 305.7892L158.0493 305.7892L158.0493 301.2586L158.0493 301.2586L157.3038 301.2586L157.3038 301.2586L157.3038 305.7892" stroke="none" fill="#000000" fill-rule="evenodd" /><path id="832" transform="matrix(1 0 0 -1 0 792)" d="M164.6262 292.7842L161.7272 292.7842" stroke="none" fill="#000000" fill-rule="nonzero" /><path id="833" transform="matrix(1 0 0 -1 0 792)" d="M164.6262 292.7842L161.7272 292.7842" stroke="#000000" stroke-width="0.662608" fill="none" /><path id="834" transform="matrix(1 0 0 -1 0 792)" d="M149.6839 295.4786L149.6839 294.6834C 149.3691 294.8325 149.0792 294.9402 148.8059 295.0147C 148.5243 295.081 148.2592 295.1224 148.0108 295.1224C 147.5635 295.1224 147.2156 295.0313 146.9754 294.8657C 146.7352 294.6917 146.6193 294.4432 146.6193 294.1285C 146.6193 293.8635 146.6938 293.6564 146.8595 293.5239C 147.0168 293.3831 147.3233 293.2754 147.7706 293.1926L147.7706 293.1926L148.2675 293.0932C 148.8721 292.9772 149.3194 292.7702 149.6093 292.4803C 149.8992 292.1821 150.0483 291.7928 150.0483 291.3041C 150.0483 290.7161 149.8495 290.2771 149.4602 289.9789C 149.0626 289.6808 148.4911 289.5317 147.7374 289.5317C 147.4475 289.5317 147.1411 289.5648 146.8181 289.6228C 146.495 289.6808 146.1637 289.7719 145.8242 289.9044L145.8242 289.9044L145.8242 290.7492C 146.1555 290.5587 146.4785 290.4179 146.7932 290.3268C 147.108 290.2274 147.4227 290.186 147.7374 290.186C 148.2013 290.186 148.5574 290.2771 148.8142 290.4593C 149.0626 290.6415 149.1952 290.8983 149.1952 291.2462C 149.1952 291.5443 149.1041 291.7762 148.9218 291.9419C 148.7396 292.1075 148.4415 292.2318 148.0273 292.3146L148.0273 292.3146L147.5304 292.414C 146.9175 292.53 146.4785 292.7205 146.2052 292.9855C 145.9318 293.2423 145.7993 293.5984 145.7993 294.0623C 145.7993 294.5923 145.9815 295.0147 146.3625 295.3212C 146.7352 295.6277 147.257 295.785 147.9196 295.785C 148.2013 295.785 148.4829 295.7602 148.781 295.7105C 149.0709 295.6608 149.3691 295.578 149.6839 295.4786" stroke="none" fill="#000000" fill-rule="evenodd" /><path id="835" transform="matrix(1 0 0 -1 0 792)" d="M154.8356 292.2235L154.8356 289.6393L154.8356 289.6393L154.0902 289.6393L154.0902 289.6393L154.0902 290.3268C 153.9162 290.0452 153.7009 289.8464 153.4524 289.7222C 153.2039 289.5979 152.8892 289.5317 152.5248 289.5317C 152.0609 289.5317 151.6882 289.6559 151.4149 289.9127C 151.1416 290.1694 151.0091 290.5173 151.0091 290.9563C 151.0091 291.4615 151.1747 291.8425 151.5226 292.1075C 151.8622 292.3643 152.3674 292.4969 153.0466 292.4969L153.0466 292.4969L154.0902 292.4969L154.0902 292.4969L154.0902 292.5714C 154.0902 292.9109 153.9742 293.176 153.7506 293.3665C 153.527 293.5487 153.2122 293.6481 152.8064 293.6481C 152.5413 293.6481 152.2929 293.615 152.0444 293.5487C 151.7959 293.4825 151.564 293.3914 151.3404 293.2754L151.3404 293.2754L151.3404 293.9629C 151.6054 294.0623 151.8704 294.1451 152.1272 294.1948C 152.384 294.2445 152.6324 294.2776 152.8809 294.2776C 153.5352 294.2776 154.0239 294.1036 154.3469 293.7641C 154.67 293.4245 154.8356 292.9109 154.8356 292.2235M153.353 291.9171C 152.7484 291.9171 152.3343 291.8425 152.1024 291.71C 151.8704 291.5692 151.7545 291.3373 151.7545 291.006C 151.7545 290.7409 151.8373 290.5256 152.0112 290.3765C 152.1852 290.2191 152.4254 290.1446 152.7236 290.1446C 153.1377 290.1446 153.469 290.2854 153.7175 290.5836C 153.9659 290.8734 154.0902 291.2627 154.0902 291.7514L154.0902 291.7514L154.0902 291.9171L154.0902 291.9171L153.353 291.9171" stroke="none" fill="#000000" fill-rule="evenodd" /><path id="836" transform="matrix(1 0 0 -1 0 792)" d="M157.1051 295.4537L157.1051 294.1699L157.1051 294.1699L158.6373 294.1699L158.6373 294.1699L158.6373 293.5901L158.6373 293.5901L157.1051 293.5901L157.1051 293.5901L157.1051 291.1302C 157.1051 290.7575 157.1548 290.5173 157.2541 290.4179C 157.3535 290.3102 157.5606 290.2605 157.8753 290.2605L157.8753 290.2605L158.6373 290.2605L158.6373 290.2605L158.6373 289.6393L158.6373 289.6393L157.8753 289.6393C 157.2956 289.6393 156.898 289.747 156.6826 289.9624C 156.4673 290.1777 156.3596 290.567 156.3596 291.1302L156.3596 291.1302L156.3596 293.5901L156.3596 293.5901L155.813 293.5901L155.813 293.5901L155.813 294.1699L155.813 294.1699L156.3596 294.1699L156.3596 294.1699L156.3596 295.4537L156.3596 295.4537L157.1051 295.4537" stroke="none" fill="#000000" fill-rule="evenodd" /><path id="837" transform="matrix(1 0 0 -1 0 792)" d="M164.6262 281.1649L161.7272 281.1649" stroke="none" fill="#000000" fill-rule="nonzero" /><path id="838" transform="matrix(1 0 0 -1 0 792)" d="M164.6262 281.1649L161.7272 281.1649" stroke="#000000" stroke-width="0.662608" fill="none" /><path id="839" transform="matrix(1 0 0 -1 0 792)" d="M147.4967 283.8593L147.4967 283.0642C 147.182 283.2133 146.8921 283.321 146.6188 283.3955C 146.3372 283.4618 146.0721 283.5032 145.8237 283.5032C 145.3764 283.5032 145.0285 283.4121 144.7883 283.2464C 144.5481 283.0725 144.4322 282.824 144.4322 282.5093C 144.4322 282.2442 144.5067 282.0372 144.6724 281.9046C 144.8297 281.7639 145.1362 281.6562 145.5835 281.5733L145.5835 281.5733L146.0804 281.474C 146.685 281.358 147.1323 281.1509 147.4222 280.8611C 147.7121 280.5629 147.8612 280.1736 147.8612 279.6849C 147.8612 279.0969 147.6624 278.6579 147.2731 278.3597C 146.8755 278.0615 146.304 277.9124 145.5503 277.9124C 145.2604 277.9124 144.954 277.9456 144.631 278.0035C 144.3079 278.0615 143.9766 278.1526 143.6371 278.2852L143.6371 278.2852L143.6371 279.13C 143.9684 278.9395 144.2914 278.7987 144.6061 278.7076C 144.9209 278.6082 145.2356 278.5668 145.5503 278.5668C 146.0142 278.5668 146.3703 278.6579 146.6271 278.8401C 146.8755 279.0223 147.0081 279.2791 147.0081 279.6269C 147.0081 279.9251 146.917 280.157 146.7347 280.3227C 146.5525 280.4883 146.2543 280.6126 145.8402 280.6954L145.8402 280.6954L145.3433 280.7948C 144.7304 280.9107 144.2914 281.1012 144.0181 281.3663C 143.7447 281.623 143.6122 281.9792 143.6122 282.443C 143.6122 282.9731 143.7944 283.3955 144.1754 283.702C 144.5481 284.0084 145.0699 284.1658 145.7325 284.1658C 146.0142 284.1658 146.2958 284.141 146.5939 284.0912C 146.8838 284.0416 147.182 283.9587 147.4967 283.8593" stroke="none" fill="#000000" fill-rule="evenodd" /><path id="840" transform="matrix(1 0 0 -1 0 792)" d="M150.9009 282.6584L150.9009 282.6584M149.029 279.8091L149.029 282.5507L149.029 282.5507L149.7744 282.5507L149.7744 282.5507L149.7744 279.834C 149.7744 279.4033 149.8573 279.0886 150.0229 278.8732C 150.1886 278.6579 150.4371 278.5502 150.7766 278.5502C 151.1742 278.5502 151.4972 278.6744 151.7291 278.9312C 151.961 279.188 152.077 279.5358 152.077 279.9831L152.077 279.9831L152.077 282.5507L152.077 282.5507L152.8224 282.5507L152.8224 282.5507L152.8224 278.0201L152.8224 278.0201L152.077 278.0201L152.077 278.0201L152.077 278.7159C 151.8948 278.4342 151.6794 278.2355 151.4475 278.1029C 151.2073 277.9787 150.934 277.9124 150.6193 277.9124C 150.0975 277.9124 149.6999 278.0698 149.4349 278.3928C 149.1615 278.7076 149.029 279.1797 149.029 279.8091" stroke="none" fill="#000000" fill-rule="evenodd" /><path id="841" transform="matrix(1 0 0 -1 0 792)" d="M158.1233 280.7534L158.1233 278.0201L158.1233 278.0201L157.3779 278.0201L157.3779 278.0201L157.3779 280.7285C 157.3779 281.1592 157.2868 281.474 157.1211 281.6893C 156.9555 281.9046 156.707 282.0123 156.3757 282.0123C 155.9698 282.0123 155.6551 281.8798 155.4232 281.623C 155.1913 281.3663 155.0753 281.0184 155.0753 280.5794L155.0753 280.5794L155.0753 278.0201L155.0753 278.0201L154.3299 278.0201L154.3299 278.0201L154.3299 282.5507L154.3299 282.5507L155.0753 282.5507L155.0753 282.5507L155.0753 281.8467C 155.2493 282.1117 155.4563 282.3188 155.7048 282.4513C 155.945 282.5838 156.2266 282.6584 156.5414 282.6584C 157.0549 282.6584 157.4524 282.4927 157.7175 282.1697C 157.9825 281.8467 158.1233 281.3746 158.1233 280.7534" stroke="none" fill="#000000" fill-rule="evenodd" /><path id="842" transform="matrix(1 0 0 -1 0 792)" d="M164.6262 275.3551L164.6262 356.6903" stroke="#000000" stroke-width="0.662608" stroke-linecap="square" fill="none" /><path id="843" transform="matrix(1 0 0 -1 0 792)" d="M443.4892 275.3551L443.4892 356.6903" stroke="#000000" stroke-width="0.662608" stroke-linecap="square" fill="none" /><path id="844" transform="matrix(1 0 0 -1 0 792)" d="M164.6262 275.3551L443.4892 275.3551" stroke="#000000" stroke-width="0.662608" stroke-linecap="square" fill="none" /><path id="845" transform="matrix(1 0 0 -1 0 792)" d="M164.6262 356.6903L443.4892 356.6903" stroke="#000000" stroke-width="0.662608" stroke-linecap="square" fill="none" /></g><g clip-path="url(#6)"><path id="846" transform="matrix(1 0 0 -1 0 792)" d="M451.4099 275.3551L451.4099 356.6903L455.4758 356.6903L455.4758 275.3551" stroke="none" fill="#FFFFFF" fill-rule="nonzero" /><path id="847" transform="matrix(1 0 0 -1 0 792)" d="M451.4099 275.3551L451.4099 356.6903L451.4099 356.6903L455.4758 356.6903L455.4758 356.6903L455.4758 275.3551z" stroke="#FFFFFF" stroke-width="0.0082826" fill="none" /></g><g clip-path="url(#7)"><g transform="matrix(0.5963472 0 0 0.5963472 451.5763 434.5504)"><g transform="matrix(1 0 0 1 0 0)"><image x="0" y="0" xlink:href="img_08.png" width="7" height="137" /></g></g><path id="849" transform="matrix(1 0 0 -1 0 792)" d="M455.4758 275.3551L458.3747 275.3551" stroke="none" fill="#000000" fill-rule="nonzero" /><path id="850" transform="matrix(1 0 0 -1 0 792)" d="M455.4758 275.3551L458.3747 275.3551" stroke="#000000" stroke-width="0.662608" fill="none" /><path id="851" transform="matrix(1 0 0 -1 0 792)" d="M463.9074 278.356C 464.5783 278.356 465.0919 278.0826 465.4563 277.5525C 465.8124 277.0142 465.9947 276.2356 465.9947 275.2251C 465.9947 274.2064 465.8124 273.4278 465.4563 272.8977C 465.0919 272.3676 464.5783 272.1026 463.9074 272.1026C 463.2282 272.1026 462.7065 272.3676 462.3503 272.8977C 461.9941 273.4278 461.8202 274.2064 461.8202 275.2251C 461.8202 276.2356 461.9941 277.0142 462.3503 277.5525C 462.7065 278.0826 463.2282 278.356 463.9074 278.356M463.9074 277.7099C 463.485 277.7099 463.1703 277.5028 462.9549 277.0887C 462.7396 276.6746 462.6402 276.0534 462.6402 275.2251C 462.6402 274.3969 462.7396 273.7757 462.9549 273.3615C 463.1703 272.9474 463.485 272.7404 463.9074 272.7404C 464.3298 272.7404 464.6446 272.9474 464.8599 273.3615C 465.067 273.7757 465.1747 274.3969 465.1747 275.2251C 465.1747 276.0534 465.067 276.6746 464.8599 277.0887C 464.6446 277.5028 464.3298 277.7099 463.9074 277.7099" stroke="none" fill="#000000" fill-rule="evenodd" /><path id="852" transform="matrix(1 0 0 -1 0 792)" d="M455.4758 286.9744L458.3747 286.9744" stroke="none" fill="#000000" fill-rule="nonzero" /><path id="853" transform="matrix(1 0 0 -1 0 792)" d="M455.4758 286.9744L458.3747 286.9744" stroke="#000000" stroke-width="0.662608" fill="none" /><path id="854" transform="matrix(1 0 0 -1 0 792)" d="M462.8638 284.517L465.713 284.517L465.713 284.517L465.713 283.8295L465.713 283.8295L461.8782 283.8295L461.8782 283.8295L461.8782 284.517C 462.1846 284.8317 462.6071 285.2624 463.1454 285.8091C 463.6755 286.3474 464.0151 286.6953 464.1559 286.8527C 464.421 287.1426 464.6032 287.3911 464.7025 287.5981C 464.8019 287.7969 464.8599 288.004 464.8599 288.2027C 464.8599 288.5175 464.744 288.7825 464.5203 288.9813C 464.2967 289.1801 464.0068 289.2878 463.6424 289.2878C 463.3856 289.2878 463.1123 289.2381 462.8307 289.1552C 462.5491 289.0641 462.2426 288.9316 461.9196 288.7494L461.9196 288.7494L461.9196 289.5777C 462.2509 289.7102 462.5574 289.8095 462.839 289.8758C 463.1206 289.9421 463.3856 289.9752 463.6258 289.9752C 464.247 289.9752 464.744 289.8178 465.1167 289.5031C 465.4894 289.1884 465.6799 288.7743 465.6799 288.2524C 465.6799 288.004 465.6302 287.7638 465.5391 287.5484C 465.448 287.3248 465.2823 287.0598 465.0339 286.7616C 464.9676 286.6787 464.7523 286.4551 464.3878 286.0824C 464.0234 285.7097 463.5182 285.1879 462.8638 284.517" stroke="none" fill="#000000" fill-rule="evenodd" /><path id="855" transform="matrix(1 0 0 -1 0 792)" d="M455.4758 298.5936L458.3747 298.5936" stroke="none" fill="#000000" fill-rule="nonzero" /><path id="856" transform="matrix(1 0 0 -1 0 792)" d="M455.4758 298.5936L458.3747 298.5936" stroke="#000000" stroke-width="0.662608" fill="none" /><path id="857" transform="matrix(1 0 0 -1 0 792)" d="M464.189 301.4868L465.2161 301.4868L465.2161 301.4868L465.2161 297.5526L465.2161 297.5526L466.0775 297.5526L466.0775 297.5526L466.0775 296.8734L466.0775 296.8734L465.2161 296.8734L465.2161 296.8734L465.2161 295.4488L465.2161 295.4488L464.4044 295.4488L464.4044 295.4488L464.4044 296.8734L464.4044 296.8734L461.6794 296.8734L461.6794 296.8734L461.6794 297.6602L461.6794 297.6602L464.189 301.4868M464.4044 300.7745L462.342 297.5526L462.342 297.5526L464.4044 297.5526L464.4044 297.5526L464.4044 300.7745" stroke="none" fill="#000000" fill-rule="evenodd" /><path id="858" transform="matrix(1 0 0 -1 0 792)" d="M455.4758 310.2129L458.3747 310.2129" stroke="none" fill="#000000" fill-rule="nonzero" /><path id="859" transform="matrix(1 0 0 -1 0 792)" d="M455.4758 310.2129L458.3747 310.2129" stroke="#000000" stroke-width="0.662608" fill="none" /><path id="860" transform="matrix(1 0 0 -1 0 792)" d="M465.6302 312.9736L465.6302 312.2281C 465.4232 312.3275 465.2161 312.4021 465.009 312.4518C 464.7937 312.5015 464.5866 312.5263 464.3878 312.5263C 463.8412 312.5263 463.427 312.3441 463.1454 311.9797C 462.8638 311.6152 462.6982 311.0603 462.665 310.3314C 462.8224 310.5634 463.0212 310.7456 463.2614 310.8698C 463.5016 310.994 463.7666 311.0603 464.0565 311.0603C 464.6611 311.0603 465.1415 310.8698 465.4894 310.5054C 465.8373 310.1409 466.0195 309.6357 466.0195 309.0062C 466.0195 308.385 465.829 307.8881 465.4645 307.5154C 465.1001 307.1426 464.6115 306.9604 464.0068 306.9604C 463.3111 306.9604 462.7727 307.2255 462.4083 307.7556C 462.0356 308.2856 461.8533 309.0642 461.8533 310.0829C 461.8533 311.0355 462.077 311.7974 462.5325 312.3607C 462.9798 312.9239 463.5927 313.2138 464.3547 313.2138C 464.5535 313.2138 464.7605 313.1889 464.9759 313.1558C 465.1829 313.1144 465.3983 313.0564 465.6302 312.9736M464.0068 310.4142C 463.6424 310.4142 463.3525 310.2817 463.1371 310.0333C 462.9218 309.7848 462.8141 309.4369 462.8141 309.0062C 462.8141 308.5672 462.9218 308.2194 463.1371 307.9709C 463.3525 307.7224 463.6424 307.5982 464.0068 307.5982C 464.3712 307.5982 464.6611 307.7224 464.8765 307.9709C 465.0919 308.2194 465.1995 308.5672 465.1995 309.0062C 465.1995 309.4369 465.0919 309.7848 464.8765 310.0333C 464.6611 310.2817 464.3712 310.4142 464.0068 310.4142" stroke="none" fill="#000000" fill-rule="evenodd" /><path id="861" transform="matrix(1 0 0 -1 0 792)" d="M455.4758 321.8324L458.3747 321.8324" stroke="none" fill="#000000" fill-rule="nonzero" /><path id="862" transform="matrix(1 0 0 -1 0 792)" d="M455.4758 321.8324L458.3747 321.8324" stroke="#000000" stroke-width="0.662608" fill="none" /><path id="863" transform="matrix(1 0 0 -1 0 792)" d="M462.7893 323.1934C 462.7893 322.8787 462.8804 322.6302 463.0792 322.4563C 463.278 322.2823 463.5513 322.1995 463.9074 322.1995C 464.2553 322.1995 464.5286 322.2823 464.7274 322.4563C 464.9262 322.6302 465.0256 322.8787 465.0256 323.1934C 465.0256 323.5082 464.9262 323.7484 464.7274 323.9223C 464.5286 324.0962 464.2553 324.1873 463.9074 324.1873C 463.5513 324.1873 463.278 324.0962 463.0792 323.9223C 462.8804 323.7484 462.7893 323.5082 462.7893 323.1934M463.0875 321.9013C 462.7396 321.9842 462.4662 322.1498 462.2675 322.39C 462.0687 322.6302 461.9776 322.9201 461.9776 323.2679C 461.9776 323.7484 462.1432 324.1293 462.4911 324.4109C 462.8307 324.6926 463.3028 324.8334 463.9074 324.8334C 464.5038 324.8334 464.9759 324.6926 465.3238 324.4109C 465.6634 324.1293 465.8373 323.7484 465.8373 323.2679C 465.8373 322.9201 465.7379 322.6302 465.5391 322.39C 465.3403 322.1498 465.0753 321.9842 464.7274 321.9013C 465.1167 321.8102 465.4232 321.628 465.6468 321.363C 465.8621 321.0979 465.9781 320.7666 465.9781 320.3856C 465.9781 319.7975 465.7958 319.3503 465.4397 319.0438C 465.0753 318.7291 464.57 318.58 463.9074 318.58C 463.2365 318.58 462.723 318.7291 462.3669 319.0438C 462.0107 319.3503 461.8368 319.7975 461.8368 320.3856C 461.8368 320.7666 461.9445 321.0979 462.1681 321.363C 462.3834 321.628 462.6899 321.8102 463.0875 321.9013M463.9074 321.5535C 463.5182 321.5535 463.2117 321.4458 462.9881 321.2387C 462.7644 321.0316 462.6568 320.7501 462.6568 320.3856C 462.6568 320.0212 462.7644 319.7313 462.9881 319.5242C 463.2117 319.3172 463.5182 319.2178 463.9074 319.2178C 464.2884 319.2178 464.5949 319.3172 464.8185 319.5325C 465.0421 319.7396 465.1581 320.0212 465.1581 320.3856C 465.1581 320.7501 465.0421 321.0316 464.8268 321.2387C 464.6032 321.4458 464.2967 321.5535 463.9074 321.5535" stroke="none" fill="#000000" fill-rule="evenodd" /><path id="864" transform="matrix(1 0 0 -1 0 792)" d="M455.4758 333.4518L458.3747 333.4518" stroke="none" fill="#000000" fill-rule="nonzero" /><path id="865" transform="matrix(1 0 0 -1 0 792)" d="M455.4758 333.4518L458.3747 333.4518" stroke="#000000" stroke-width="0.662608" fill="none" /><path id="866" transform="matrix(1 0 0 -1 0 792)" d="M462.3006 330.9944L463.6341 330.9944L463.6341 330.9944L463.6341 335.5995L463.6341 335.5995L462.1846 335.3096L462.1846 335.3096L462.1846 336.055L462.1846 336.055L463.6258 336.3449L463.6258 336.3449L464.4458 336.3449L464.4458 336.3449L464.4458 330.9944L464.4458 330.9944L465.7793 330.9944L465.7793 330.9944L465.7793 330.3069L465.7793 330.3069L462.3006 330.3069L462.3006 330.3069L462.3006 330.9944" stroke="none" fill="#000000" fill-rule="evenodd" /><path id="867" transform="matrix(1 0 0 -1 0 792)" d="M469.1752 336.4526C 469.846 336.4526 470.3596 336.1793 470.724 335.6492C 471.0802 335.1108 471.2624 334.3323 471.2624 333.3218C 471.2624 332.303 471.0802 331.5245 470.724 330.9944C 470.3596 330.4643 469.846 330.1992 469.1752 330.1992C 468.496 330.1992 467.9742 330.4643 467.618 330.9944C 467.2619 331.5245 467.088 332.303 467.088 333.3218C 467.088 334.3323 467.2619 335.1108 467.618 335.6492C 467.9742 336.1793 468.496 336.4526 469.1752 336.4526M469.1752 335.8065C 468.7527 335.8065 468.438 335.5995 468.2227 335.1854C 468.0073 334.7712 467.9079 334.1501 467.9079 333.3218C 467.9079 332.4935 468.0073 331.8723 468.2227 331.4582C 468.438 331.0441 468.7527 330.837 469.1752 330.837C 469.5976 330.837 469.9123 331.0441 470.1277 331.4582C 470.3347 331.8723 470.4424 332.4935 470.4424 333.3218C 470.4424 334.1501 470.3347 334.7712 470.1277 335.1854C 469.9123 335.5995 469.5976 335.8065 469.1752 335.8065" stroke="none" fill="#000000" fill-rule="evenodd" /><path id="868" transform="matrix(1 0 0 -1 0 792)" d="M455.4758 345.0707L458.3747 345.0707" stroke="none" fill="#000000" fill-rule="nonzero" /><path id="869" transform="matrix(1 0 0 -1 0 792)" d="M455.4758 345.0707L458.3747 345.0707" stroke="#000000" stroke-width="0.662608" fill="none" /><path id="870" transform="matrix(1 0 0 -1 0 792)" d="M462.3006 342.614L463.6341 342.614L463.6341 342.614L463.6341 347.2192L463.6341 347.2192L462.1846 346.9293L462.1846 346.9293L462.1846 347.6747L462.1846 347.6747L463.6258 347.9646L463.6258 347.9646L464.4458 347.9646L464.4458 347.9646L464.4458 342.614L464.4458 342.614L465.7793 342.614L465.7793 342.614L465.7793 341.9266L465.7793 341.9266L462.3006 341.9266L462.3006 341.9266L462.3006 342.614" stroke="none" fill="#000000" fill-rule="evenodd" /><path id="871" transform="matrix(1 0 0 -1 0 792)" d="M468.1316 342.614L470.9808 342.614L470.9808 342.614L470.9808 341.9266L470.9808 341.9266L467.1459 341.9266L467.1459 341.9266L467.1459 342.614C 467.4524 342.9288 467.8748 343.3595 468.4131 343.9061C 468.9432 344.4445 469.2828 344.7924 469.4236 344.9497C 469.6887 345.2396 469.8709 345.4881 469.9703 345.6952C 470.0697 345.894 470.1277 346.101 470.1277 346.2998C 470.1277 346.6145 470.0117 346.8796 469.7881 347.0784C 469.5645 347.2771 469.2745 347.3848 468.9101 347.3848C 468.6534 347.3848 468.38 347.3351 468.0984 347.2523C 467.8168 347.1612 467.5103 347.0287 467.1873 346.8464L467.1873 346.8464L467.1873 347.6747C 467.5186 347.8072 467.8251 347.9066 468.1067 347.9729C 468.3883 348.0391 468.6534 348.0723 468.8936 348.0723C 469.5147 348.0723 470.0117 347.9149 470.3844 347.6001C 470.7571 347.2854 470.9476 346.8713 470.9476 346.3495C 470.9476 346.101 470.8979 345.8608 470.8068 345.6455C 470.7157 345.4218 470.55 345.1568 470.3016 344.8586C 470.2353 344.7758 470.02 344.5522 469.6555 344.1794C 469.2911 343.8067 468.7859 343.2849 468.1316 342.614" stroke="none" fill="#000000" fill-rule="evenodd" /><path id="872" transform="matrix(1 0 0 -1 0 792)" d="M455.4758 356.6903L458.3747 356.6903" stroke="none" fill="#000000" fill-rule="nonzero" /><path id="873" transform="matrix(1 0 0 -1 0 792)" d="M455.4758 356.6903L458.3747 356.6903" stroke="#000000" stroke-width="0.662608" fill="none" /><path id="874" transform="matrix(1 0 0 -1 0 792)" d="M462.3006 354.2329L463.6341 354.2329L463.6341 354.2329L463.6341 358.838L463.6341 358.838L462.1846 358.5481L462.1846 358.5481L462.1846 359.2935L462.1846 359.2935L463.6258 359.5834L463.6258 359.5834L464.4458 359.5834L464.4458 359.5834L464.4458 354.2329L464.4458 354.2329L465.7793 354.2329L465.7793 354.2329L465.7793 353.5454L465.7793 353.5454L462.3006 353.5454L462.3006 353.5454L462.3006 354.2329" stroke="none" fill="#000000" fill-rule="evenodd" /><path id="875" transform="matrix(1 0 0 -1 0 792)" d="M469.4568 359.5834L470.4838 359.5834L470.4838 359.5834L470.4838 355.6492L470.4838 355.6492L471.3452 355.6492L471.3452 355.6492L471.3452 354.97L471.3452 354.97L470.4838 354.97L470.4838 354.97L470.4838 353.5454L470.4838 353.5454L469.6721 353.5454L469.6721 353.5454L469.6721 354.97L469.6721 354.97L466.9471 354.97L466.9471 354.97L466.9471 355.7569L466.9471 355.7569L469.4568 359.5834M469.6721 358.8711L467.6097 355.6492L467.6097 355.6492L469.6721 355.6492L469.6721 355.6492L469.6721 358.8711" stroke="none" fill="#000000" fill-rule="evenodd" /><path id="876" transform="matrix(1 0 0 -1 0 792)" d="M451.4099 275.3551L451.4099 356.6903L451.4099 356.6903L455.4758 356.6903L455.4758 356.6903L455.4758 275.3551z" stroke="#000000" stroke-width="0.662608" fill="none" /></g></g></g></g></svg>