<svg xmlns="http://www.w3.org/2000/svg" xmlns:xlink="http://www.w3.org/1999/xlink" id="body_5" preserveAspectRatio="xMinYMin meet" viewBox="0 0 816 1056"><defs><clipPath id="1"><path id="" clip-rule="evenodd" transform="matrix(1 0 0 1 0 0)" d="M0 792L0 0L0 0L612 0L612 0L612 792L612 792L0 792z" /></clipPath><clipPath id="2"><path id="" clip-rule="evenodd" transform="matrix(1 0 0 1 0 0)" d="M270.246 215.601L426.32 215.601L426.32 215.601L426.32 206.655L426.32 206.655L270.246 206.655z" /></clipPath><clipPath id="3"><path id="" clip-rule="evenodd" transform="matrix(1 0 0 1 0 0)" d="M133.768 251.477L477.129 251.477L477.129 251.477L477.129 230.455L477.129 230.455L133.768 230.455z" /></clipPath><clipPath id="4"><path id="" clip-rule="evenodd" transform="matrix(1 0 0 1 0 0)" d="M133.768 299.287L477.179 299.287L477.179 299.287L477.179 242.411L477.179 242.411L133.768 242.411z" /></clipPath><clipPath id="5"><path id="" clip-rule="evenodd" transform="matrix(1 0 0 1 0 0)" d="M489.088 262.294L609.088 262.294L609.088 262.294L609.088 206.35L609.088 206.35L489.088 206.35z" /></clipPath><clipPath id="6"><path id="" clip-rule="evenodd" transform="matrix(1 0 0 1 0 0)" d="M489.088 262.294L609.088 262.294L609.088 262.294L609.088 206.35L609.088 206.35L489.088 206.35z" /></clipPath><clipPath id="7"><path id="" clip-rule="evenodd" transform="matrix(1 0 0 1 0 0)" d="M478.506 478.614L610.671 478.614L610.671 478.614L610.671 417.644L610.671 417.644L478.506 417.644z" /></clipPath><clipPath id="8"><path id="" clip-rule="evenodd" transform="matrix(1 0 0 1 0 0)" d="M478.506 478.614L610.671 478.614L610.671 478.614L610.671 417.644L610.671 417.644L478.506 417.644z" /></clipPath></defs><g transform="matrix(1.333333 0 0 1.333333 0 0)"><g clip-path="url(#1)"><path id="78" transform="matrix(1 0 0 -1 0 792)" d="M161.992 635.616L449.256 635.616" stroke="#000000" stroke-width="0.398" fill="none" /><path id="117" transform="matrix(1 0 0 -1 0 792)" d="M161.992 623.263L449.256 623.263" stroke="#000000" stroke-width="0.398" fill="none" /><path id="118" transform="matrix(1 0 0 -1 0 792)" d="M161.992 620.872L449.256 620.872" stroke="#000000" stroke-width="0.398" fill="none" /><path id="129" transform="matrix(1 0 0 -1 0 792)" d="M246.773 608.717L246.773 620.672" stroke="#000000" stroke-width="0.398" fill="none" /><path id="140" transform="matrix(1 0 0 -1 0 792)" d="M373.119 608.717L373.119 620.672" stroke="#000000" stroke-width="0.398" fill="none" /><path id="151" transform="matrix(1 0 0 -1 0 792)" d="M161.992 608.518L449.256 608.518" stroke="#000000" stroke-width="0.398" fill="none" /><g clip-path="url(#2)"><path id="2081" transform="matrix(1 0 0 -1 0 792)" d="M270.246 578.635L272.482 576.399L272.482 576.399L274.719 578.635L274.719 578.635L276.956 576.399L276.956 576.399L279.192 578.635L279.192 578.635L281.429 576.399L281.429 576.399L283.665 578.635L283.665 578.635L285.902 576.399L285.902 576.399L288.139 578.635L288.139 578.635L290.375 576.399L290.375 576.399L292.612 578.635L292.612 578.635L294.848 576.399L294.848 576.399L297.085 578.635L297.085 578.635L299.322 576.399L299.322 576.399L301.558 578.635L301.558 578.635L303.795 576.399L303.795 576.399L306.031 578.635L306.031 578.635L308.268 576.399L308.268 576.399L310.505 578.635L310.505 578.635L312.741 576.399L312.741 576.399L314.978 578.635L314.978 578.635L317.214 576.399L317.214 576.399L319.451 578.635L319.451 578.635L321.688 576.399L321.688 576.399L323.924 578.635L323.924 578.635L326.161 576.399L326.161 576.399L328.397 578.635L328.397 578.635L330.634 576.399L330.634 576.399L332.871 578.635L332.871 578.635L335.107 576.399L335.107 576.399L337.344 578.635L337.344 578.635L339.58 576.399L339.58 576.399L341.817 578.635L341.817 578.635L344.054 576.399L344.054 576.399L346.29 578.635L346.29 578.635L348.527 576.399L348.527 576.399L350.763 578.635L350.763 578.635L353 576.399L353 576.399L355.237 578.635L355.237 578.635L357.473 576.399L357.473 576.399L359.71 578.635L359.71 578.635L361.946 576.399L361.946 576.399L364.183 578.635L364.183 578.635L366.42 576.399L366.42 576.399L368.656 578.635L368.656 578.635L370.893 576.399L370.893 576.399L373.129 578.635L373.129 578.635L375.366 576.399L375.366 576.399L377.603 578.635L377.603 578.635L379.839 576.399L379.839 576.399L382.076 578.635L382.076 578.635L384.312 576.399L384.312 576.399L386.549 578.635L386.549 578.635L388.786 576.399L388.786 576.399L391.022 578.635L391.022 578.635L393.259 576.399L393.259 576.399L395.495 578.635L395.495 578.635L397.732 576.399L397.732 576.399L399.969 578.635L399.969 578.635L402.205 576.399L402.205 576.399L404.442 578.635L404.442 578.635L406.678 576.399L406.678 576.399L408.915 578.635L408.915 578.635L411.152 576.399L411.152 576.399L413.388 578.635L413.388 578.635L415.625 576.399L415.625 576.399L417.862 578.635L417.862 578.635L420.098 576.399L420.098 576.399L422.335 578.635L422.335 578.635L424.571 576.399L424.571 576.399L426.808 578.635" stroke="#4B99FF" stroke-width="1.118" fill="none" /></g><g clip-path="url(#3)"><path id="2082" transform="matrix(1 0 0 -1 0 792)" d="M257.314 554.745L259.581 552.479L259.581 552.479L261.847 554.745L261.847 554.745L264.114 552.479L264.114 552.479L266.38 554.745L266.38 554.745L268.647 552.479L268.647 552.479L270.913 554.745L270.913 554.745L273.18 552.479L273.18 552.479L275.446 554.745L275.446 554.745L277.713 552.479L277.713 552.479L279.979 554.745L279.979 554.745L282.245 552.479L282.245 552.479L284.512 554.745L284.512 554.745L286.778 552.479L286.778 552.479L289.045 554.745L289.045 554.745L291.311 552.479L291.311 552.479L293.578 554.745L293.578 554.745L295.844 552.479L295.844 552.479L298.111 554.745L298.111 554.745L300.377 552.479L300.377 552.479L302.644 554.745L302.644 554.745L304.91 552.479L304.91 552.479L307.177 554.745L307.177 554.745L309.443 552.479L309.443 552.479L311.71 554.745L311.71 554.745L313.976 552.479L313.976 552.479L316.243 554.745L316.243 554.745L318.509 552.479L318.509 552.479L320.776 554.745L320.776 554.745L323.042 552.479L323.042 552.479L325.309 554.745L325.309 554.745L327.575 552.479L327.575 552.479L329.842 554.745L329.842 554.745L332.108 552.479L332.108 552.479L334.375 554.745L334.375 554.745L336.641 552.479L336.641 552.479L338.907 554.745L338.907 554.745L341.174 552.479L341.174 552.479L343.44 554.745L343.44 554.745L345.707 552.479L345.707 552.479L347.973 554.745L347.973 554.745L350.24 552.479L350.24 552.479L352.506 554.745L352.506 554.745L354.773 552.479L354.773 552.479L357.039 554.745L357.039 554.745L359.306 552.479L359.306 552.479L361.572 554.745L361.572 554.745L363.839 552.479L363.839 552.479L366.105 554.745L366.105 554.745L368.372 552.479L368.372 552.479L370.638 554.745L370.638 554.745L372.905 552.479L372.905 552.479L375.171 554.745L375.171 554.745L377.438 552.479L377.438 552.479L379.704 554.745L379.704 554.745L381.971 552.479L381.971 552.479L384.237 554.745L384.237 554.745L386.504 552.479L386.504 552.479L388.77 554.745L388.77 554.745L391.036 552.479L391.036 552.479L393.303 554.745L393.303 554.745L395.569 552.479L395.569 552.479L397.836 554.745L397.836 554.745L400.102 552.479L400.102 552.479L402.369 554.745L402.369 554.745L404.635 552.479L404.635 552.479L406.902 554.745L406.902 554.745L409.168 552.479L409.168 552.479L411.435 554.745L411.435 554.745L413.701 552.479L413.701 552.479L415.968 554.745L415.968 554.745L418.234 552.479L418.234 552.479L420.501 554.745L420.501 554.745L422.767 552.479L422.767 552.479L425.034 554.745L425.034 554.745L427.3 552.479L427.3 552.479L429.567 554.745L429.567 554.745L431.833 552.479L431.833 552.479L434.1 554.745L434.1 554.745L436.366 552.479L436.366 552.479L438.633 554.745L438.633 554.745L440.899 552.479L440.899 552.479L443.166 554.745L443.166 554.745L445.432 552.479L445.432 552.479L447.698 554.745L447.698 554.745L449.965 552.479L449.965 552.479L452.231 554.745L452.231 554.745L454.498 552.479L454.498 552.479L456.764 554.745L456.764 554.745L459.031 552.479L459.031 552.479L461.297 554.745L461.297 554.745L463.564 552.479L463.564 552.479L465.83 554.745L465.83 554.745L468.097 552.479L468.097 552.479L470.363 554.745L470.363 554.745L472.63 552.479L472.63 552.479L474.896 554.745L474.896 554.745L477.163 552.479" stroke="#4B99FF" stroke-width="1.133" fill="none" /><path id="2083" transform="matrix(1 0 0 -1 0 792)" d="M133.768 542.789L136.034 540.523L136.034 540.523L138.301 542.789L138.301 542.789L140.567 540.523L140.567 540.523L142.834 542.789L142.834 542.789L145.1 540.523L145.1 540.523L147.367 542.789L147.367 542.789L149.633 540.523L149.633 540.523L151.9 542.789L151.9 542.789L154.166 540.523L154.166 540.523L156.433 542.789L156.433 542.789L158.699 540.523L158.699 540.523L160.966 542.789L160.966 542.789L163.232 540.523L163.232 540.523L165.499 542.789L165.499 542.789L167.765 540.523L167.765 540.523L170.032 542.789L170.032 542.789L172.298 540.523L172.298 540.523L174.565 542.789L174.565 542.789L176.831 540.523L176.831 540.523L179.098 542.789L179.098 542.789L181.364 540.523L181.364 540.523L183.631 542.789L183.631 542.789L185.897 540.523L185.897 540.523L188.164 542.789L188.164 542.789L190.43 540.523L190.43 540.523L192.697 542.789L192.697 542.789L194.963 540.523L194.963 540.523L197.23 542.789L197.23 542.789L199.496 540.523L199.496 540.523L201.763 542.789L201.763 542.789L204.029 540.523L204.029 540.523L206.296 542.789L206.296 542.789L208.562 540.523L208.562 540.523L210.829 542.789L210.829 542.789L213.095 540.523L213.095 540.523L215.362 542.789L215.362 542.789L217.628 540.523L217.628 540.523L219.895 542.789L219.895 542.789L222.161 540.523L222.161 540.523L224.428 542.789L224.428 542.789L226.694 540.523L226.694 540.523L228.961 542.789L228.961 542.789L231.227 540.523L231.227 540.523L233.494 542.789L233.494 542.789L235.76 540.523L235.76 540.523L238.027 542.789L238.027 542.789L240.293 540.523L240.293 540.523L242.56 542.789L242.56 542.789L244.826 540.523L244.826 540.523L247.093 542.789L247.093 542.789L249.359 540.523L249.359 540.523L251.626 542.789L251.626 542.789L253.892 540.523L253.892 540.523L256.159 542.789L256.159 542.789L258.425 540.523L258.425 540.523L260.692 542.789L260.692 542.789L262.958 540.523L262.958 540.523L265.225 542.789L265.225 542.789L267.491 540.523L267.491 540.523L269.758 542.789L269.758 542.789L272.024 540.523L272.024 540.523L274.291 542.789L274.291 542.789L276.557 540.523L276.557 540.523L278.823 542.789L278.823 542.789L281.09 540.523L281.09 540.523L283.356 542.789L283.356 542.789L285.623 540.523L285.623 540.523L287.889 542.789L287.889 542.789L290.156 540.523L290.156 540.523L292.422 542.789L292.422 542.789L294.689 540.523L294.689 540.523L296.955 542.789L296.955 542.789L299.222 540.523L299.222 540.523L301.488 542.789L301.488 542.789L303.755 540.523L303.755 540.523L306.021 542.789L306.021 542.789L308.288 540.523L308.288 540.523L310.554 542.789L310.554 542.789L312.821 540.523L312.821 540.523L315.087 542.789L315.087 542.789L317.354 540.523L317.354 540.523L319.62 542.789L319.62 542.789L321.887 540.523L321.887 540.523L324.153 542.789L324.153 542.789L326.42 540.523L326.42 540.523L328.686 542.789L328.686 542.789L330.953 540.523L330.953 540.523L333.219 542.789L333.219 542.789L335.485 540.523L335.485 540.523L337.752 542.789L337.752 542.789L340.018 540.523L340.018 540.523L342.285 542.789L342.285 542.789L344.551 540.523L344.551 540.523L346.818 542.789L346.818 542.789L349.084 540.523L349.084 540.523L351.351 542.789L351.351 542.789L353.617 540.523L353.617 540.523L355.884 542.789L355.884 542.789L358.15 540.523" stroke="#4B99FF" stroke-width="1.133" fill="none" /></g><g clip-path="url(#4)"><path id="2084" transform="matrix(1 0 0 -1 0 792)" d="M360.696 542.777L362.938 540.535L362.938 540.535L365.18 542.777L365.18 542.777L367.422 540.535L367.422 540.535L369.664 542.777L369.664 542.777L371.907 540.535L371.907 540.535L374.149 542.777L374.149 542.777L376.391 540.535L376.391 540.535L378.633 542.777L378.633 542.777L380.875 540.535L380.875 540.535L383.117 542.777L383.117 542.777L385.359 540.535L385.359 540.535L387.601 542.777L387.601 542.777L389.843 540.535L389.843 540.535L392.085 542.777L392.085 542.777L394.327 540.535L394.327 540.535L396.57 542.777L396.57 542.777L398.812 540.535L398.812 540.535L401.054 542.777L401.054 542.777L403.296 540.535L403.296 540.535L405.538 542.777L405.538 542.777L407.78 540.535L407.78 540.535L410.022 542.777L410.022 542.777L412.264 540.535L412.264 540.535L414.506 542.777L414.506 542.777L416.748 540.535L416.748 540.535L418.991 542.777L418.991 542.777L421.233 540.535L421.233 540.535L423.475 542.777L423.475 542.777L425.717 540.535L425.717 540.535L427.959 542.777L427.959 542.777L430.201 540.535L430.201 540.535L432.443 542.777L432.443 542.777L434.685 540.535L434.685 540.535L436.927 542.777L436.927 542.777L439.169 540.535L439.169 540.535L441.411 542.777L441.411 542.777L443.654 540.535L443.654 540.535L445.896 542.777L445.896 542.777L448.138 540.535L448.138 540.535L450.38 542.777L450.38 542.777L452.622 540.535L452.622 540.535L454.864 542.777L454.864 542.777L457.106 540.535L457.106 540.535L459.348 542.777L459.348 542.777L461.59 540.535L461.59 540.535L463.832 542.777L463.832 542.777L466.075 540.535L466.075 540.535L468.317 542.777L468.317 542.777L470.559 540.535L470.559 540.535L472.801 542.777L472.801 542.777L475.043 540.535L475.043 540.535L477.285 542.777" stroke="#4B99FF" stroke-width="1.121" fill="none" /><path id="2085" transform="matrix(1 0 0 -1 0 792)" d="M133.768 530.822L136.01 528.58L136.01 528.58L138.252 530.822L138.252 530.822L140.494 528.58L140.494 528.58L142.736 530.822L142.736 530.822L144.978 528.58L144.978 528.58L147.22 530.822L147.22 530.822L149.463 528.58L149.463 528.58L151.705 530.822L151.705 530.822L153.947 528.58L153.947 528.58L156.189 530.822L156.189 530.822L158.431 528.58L158.431 528.58L160.673 530.822L160.673 530.822L162.915 528.58L162.915 528.58L165.157 530.822L165.157 530.822L167.399 528.58L167.399 528.58L169.641 530.822L169.641 530.822L171.883 528.58L171.883 528.58L174.125 530.822L174.125 530.822L176.368 528.58L176.368 528.58L178.61 530.822L178.61 530.822L180.852 528.58L180.852 528.58L183.094 530.822L183.094 530.822L185.336 528.58L185.336 528.58L187.578 530.822L187.578 530.822L189.82 528.58L189.82 528.58L192.062 530.822L192.062 530.822L194.304 528.58L194.304 528.58L196.546 530.822L196.546 530.822L198.788 528.58L198.788 528.58L201.03 530.822L201.03 530.822L203.272 528.58L203.272 528.58L205.515 530.822L205.515 530.822L207.757 528.58L207.757 528.58L209.999 530.822L209.999 530.822L212.241 528.58L212.241 528.58L214.483 530.822L214.483 530.822L216.725 528.58L216.725 528.58L218.967 530.822L218.967 530.822L221.209 528.58L221.209 528.58L223.451 530.822L223.451 530.822L225.693 528.58L225.693 528.58L227.935 530.822L227.935 530.822L230.177 528.58L230.177 528.58L232.42 530.822L232.42 530.822L234.662 528.58L234.662 528.58L236.904 530.822L236.904 530.822L239.146 528.58L239.146 528.58L241.388 530.822L241.388 530.822L243.63 528.58L243.63 528.58L245.872 530.822L245.872 530.822L248.114 528.58L248.114 528.58L250.356 530.822L250.356 530.822L252.598 528.58L252.598 528.58L254.84 530.822L254.84 530.822L257.082 528.58L257.082 528.58L259.325 530.822L259.325 530.822L261.567 528.58L261.567 528.58L263.809 530.822L263.809 530.822L266.051 528.58L266.051 528.58L268.293 530.822L268.293 530.822L270.535 528.58L270.535 528.58L272.777 530.822L272.777 530.822L275.019 528.58L275.019 528.58L277.261 530.822L277.261 530.822L279.503 528.58L279.503 528.58L281.745 530.822L281.745 530.822L283.988 528.58L283.988 528.58L286.23 530.822L286.23 530.822L288.472 528.58L288.472 528.58L290.714 530.822L290.714 530.822L292.956 528.58L292.956 528.58L295.198 530.822L295.198 530.822L297.44 528.58L297.44 528.58L299.682 530.822L299.682 530.822L301.924 528.58L301.924 528.58L304.166 530.822L304.166 530.822L306.409 528.58L306.409 528.58L308.651 530.822L308.651 530.822L310.893 528.58L310.893 528.58L313.135 530.822L313.135 530.822L315.377 528.58L315.377 528.58L317.619 530.822L317.619 530.822L319.861 528.58L319.861 528.58L322.103 530.822L322.103 530.822L324.345 528.58L324.345 528.58L326.587 530.822L326.587 530.822L328.829 528.58L328.829 528.58L331.072 530.822L331.072 530.822L333.314 528.58L333.314 528.58L335.556 530.822L335.556 530.822L337.798 528.58L337.798 528.58L340.04 530.822L340.04 530.822L342.282 528.58L342.282 528.58L344.524 530.822L344.524 530.822L346.766 528.58L346.766 528.58L349.008 530.822L349.008 530.822L351.25 528.58L351.25 528.58L353.493 530.822L353.493 530.822L355.735 528.58L355.735 528.58L357.977 530.822L357.977 530.822L360.219 528.58L360.219 528.58L362.461 530.822L362.461 530.822L364.703 528.58L364.703 528.58L366.945 530.822L366.945 530.822L369.187 528.58L369.187 528.58L371.429 530.822L371.429 530.822L373.671 528.58L373.671 528.58L375.914 530.822L375.914 530.822L378.156 528.58L378.156 528.58L380.398 530.822L380.398 530.822L382.64 528.58L382.64 528.58L384.882 530.822L384.882 530.822L387.124 528.58L387.124 528.58L389.366 530.822L389.366 530.822L391.608 528.58L391.608 528.58L393.85 530.822L393.85 530.822L396.092 528.58L396.092 528.58L398.334 530.822L398.334 530.822L400.577 528.58L400.577 528.58L402.819 530.822L402.819 530.822L405.061 528.58L405.061 528.58L407.303 530.822L407.303 530.822L409.545 528.58L409.545 528.58L411.787 530.822L411.787 530.822L414.029 528.58L414.029 528.58L416.271 530.822L416.271 530.822L418.513 528.58L418.513 528.58L420.755 530.822L420.755 530.822L422.998 528.58L422.998 528.58L425.24 530.822L425.24 530.822L427.482 528.58L427.482 528.58L429.724 530.822L429.724 530.822L431.966 528.58L431.966 528.58L434.208 530.822L434.208 530.822L436.45 528.58L436.45 528.58L438.692 530.822L438.692 530.822L440.934 528.58L440.934 528.58L443.176 530.822L443.176 530.822L445.418 528.58L445.418 528.58L447.661 530.822L447.661 530.822L449.903 528.58L449.903 528.58L452.145 530.822L452.145 530.822L454.387 528.58L454.387 528.58L456.629 530.822L456.629 530.822L458.871 528.58L458.871 528.58L461.113 530.822L461.113 530.822L463.355 528.58L463.355 528.58L465.597 530.822L465.597 530.822L467.839 528.58L467.839 528.58L470.082 530.822L470.082 530.822L472.324 528.58L472.324 528.58L474.566 530.822L474.566 530.822L476.808 528.58L476.808 528.58L479.05 530.822" stroke="#4B99FF" stroke-width="1.121" fill="none" /><path id="2086" transform="matrix(1 0 0 -1 0 792)" d="M133.768 518.867L136.01 516.625L136.01 516.625L138.252 518.867L138.252 518.867L140.494 516.625L140.494 516.625L142.736 518.867L142.736 518.867L144.978 516.625L144.978 516.625L147.22 518.867L147.22 518.867L149.463 516.625L149.463 516.625L151.705 518.867L151.705 518.867L153.947 516.625L153.947 516.625L156.189 518.867L156.189 518.867L158.431 516.625L158.431 516.625L160.673 518.867L160.673 518.867L162.915 516.625L162.915 516.625L165.157 518.867L165.157 518.867L167.399 516.625L167.399 516.625L169.641 518.867L169.641 518.867L171.883 516.625L171.883 516.625L174.125 518.867L174.125 518.867L176.368 516.625L176.368 516.625L178.61 518.867L178.61 518.867L180.852 516.625L180.852 516.625L183.094 518.867L183.094 518.867L185.336 516.625L185.336 516.625L187.578 518.867L187.578 518.867L189.82 516.625L189.82 516.625L192.062 518.867L192.062 518.867L194.304 516.625L194.304 516.625L196.546 518.867L196.546 518.867L198.788 516.625L198.788 516.625L201.03 518.867L201.03 518.867L203.272 516.625L203.272 516.625L205.515 518.867L205.515 518.867L207.757 516.625L207.757 516.625L209.999 518.867L209.999 518.867L212.241 516.625L212.241 516.625L214.483 518.867L214.483 518.867L216.725 516.625L216.725 516.625L218.967 518.867L218.967 518.867L221.209 516.625L221.209 516.625L223.451 518.867L223.451 518.867L225.693 516.625L225.693 516.625L227.935 518.867L227.935 518.867L230.177 516.625L230.177 516.625L232.42 518.867L232.42 518.867L234.662 516.625L234.662 516.625L236.904 518.867L236.904 518.867L239.146 516.625L239.146 516.625L241.388 518.867L241.388 518.867L243.63 516.625L243.63 516.625L245.872 518.867L245.872 518.867L248.114 516.625L248.114 516.625L250.356 518.867L250.356 518.867L252.598 516.625L252.598 516.625L254.84 518.867L254.84 518.867L257.082 516.625L257.082 516.625L259.325 518.867L259.325 518.867L261.567 516.625L261.567 516.625L263.809 518.867L263.809 518.867L266.051 516.625L266.051 516.625L268.293 518.867L268.293 518.867L270.535 516.625L270.535 516.625L272.777 518.867L272.777 518.867L275.019 516.625L275.019 516.625L277.261 518.867L277.261 518.867L279.503 516.625L279.503 516.625L281.745 518.867L281.745 518.867L283.988 516.625L283.988 516.625L286.23 518.867L286.23 518.867L288.472 516.625L288.472 516.625L290.714 518.867L290.714 518.867L292.956 516.625L292.956 516.625L295.198 518.867L295.198 518.867L297.44 516.625L297.44 516.625L299.682 518.867L299.682 518.867L301.924 516.625L301.924 516.625L304.166 518.867L304.166 518.867L306.409 516.625L306.409 516.625L308.651 518.867L308.651 518.867L310.893 516.625L310.893 516.625L313.135 518.867L313.135 518.867L315.377 516.625L315.377 516.625L317.619 518.867L317.619 518.867L319.861 516.625L319.861 516.625L322.103 518.867L322.103 518.867L324.345 516.625L324.345 516.625L326.587 518.867L326.587 518.867L328.829 516.625L328.829 516.625L331.072 518.867L331.072 518.867L333.314 516.625L333.314 516.625L335.556 518.867L335.556 518.867L337.798 516.625L337.798 516.625L340.04 518.867L340.04 518.867L342.282 516.625L342.282 516.625L344.524 518.867L344.524 518.867L346.766 516.625L346.766 516.625L349.008 518.867L349.008 518.867L351.25 516.625L351.25 516.625L353.493 518.867L353.493 518.867L355.735 516.625L355.735 516.625L357.977 518.867L357.977 518.867L360.219 516.625L360.219 516.625L362.461 518.867L362.461 518.867L364.703 516.625L364.703 516.625L366.945 518.867L366.945 518.867L369.187 516.625L369.187 516.625L371.429 518.867L371.429 518.867L373.671 516.625L373.671 516.625L375.914 518.867L375.914 518.867L378.156 516.625L378.156 516.625L380.398 518.867L380.398 518.867L382.64 516.625L382.64 516.625L384.882 518.867L384.882 518.867L387.124 516.625L387.124 516.625L389.366 518.867L389.366 518.867L391.608 516.625L391.608 516.625L393.85 518.867L393.85 518.867L396.092 516.625L396.092 516.625L398.334 518.867L398.334 518.867L400.577 516.625L400.577 516.625L402.819 518.867L402.819 518.867L405.061 516.625L405.061 516.625L407.303 518.867L407.303 518.867L409.545 516.625L409.545 516.625L411.787 518.867L411.787 518.867L414.029 516.625L414.029 516.625L416.271 518.867L416.271 518.867L418.513 516.625L418.513 516.625L420.755 518.867L420.755 518.867L422.998 516.625L422.998 516.625L425.24 518.867L425.24 518.867L427.482 516.625L427.482 516.625L429.724 518.867L429.724 518.867L431.966 516.625L431.966 516.625L434.208 518.867L434.208 518.867L436.45 516.625L436.45 516.625L438.692 518.867L438.692 518.867L440.934 516.625L440.934 516.625L443.176 518.867L443.176 518.867L445.418 516.625L445.418 516.625L447.661 518.867L447.661 518.867L449.903 516.625L449.903 516.625L452.145 518.867L452.145 518.867L454.387 516.625L454.387 516.625L456.629 518.867L456.629 518.867L458.871 516.625L458.871 516.625L461.113 518.867L461.113 518.867L463.355 516.625L463.355 516.625L465.597 518.867L465.597 518.867L467.839 516.625L467.839 516.625L470.082 518.867L470.082 518.867L472.324 516.625L472.324 516.625L474.566 518.867L474.566 518.867L476.808 516.625L476.808 516.625L479.05 518.867" stroke="#4B99FF" stroke-width="1.121" fill="none" /><path id="2087" transform="matrix(1 0 0 -1 0 792)" d="M133.768 507.017L136.01 504.774L136.01 504.774L138.252 507.017L138.252 507.017L140.494 504.774L140.494 504.774L142.736 507.017L142.736 507.017L144.978 504.774L144.978 504.774L147.22 507.017L147.22 507.017L149.463 504.774L149.463 504.774L151.705 507.017L151.705 507.017L153.947 504.774L153.947 504.774L156.189 507.017L156.189 507.017L158.431 504.774L158.431 504.774L160.673 507.017L160.673 507.017L162.915 504.774L162.915 504.774L165.157 507.017L165.157 507.017L167.399 504.774L167.399 504.774L169.641 507.017L169.641 507.017L171.883 504.774L171.883 504.774L174.125 507.017L174.125 507.017L176.368 504.774L176.368 504.774L178.61 507.017L178.61 507.017L180.852 504.774L180.852 504.774L183.094 507.017L183.094 507.017L185.336 504.774L185.336 504.774L187.578 507.017L187.578 507.017L189.82 504.774L189.82 504.774L192.062 507.017L192.062 507.017L194.304 504.774L194.304 504.774L196.546 507.017L196.546 507.017L198.788 504.774L198.788 504.774L201.03 507.017L201.03 507.017L203.272 504.774L203.272 504.774L205.515 507.017L205.515 507.017L207.757 504.774L207.757 504.774L209.999 507.017L209.999 507.017L212.241 504.774L212.241 504.774L214.483 507.017L214.483 507.017L216.725 504.774L216.725 504.774L218.967 507.017L218.967 507.017L221.209 504.774L221.209 504.774L223.451 507.017L223.451 507.017L225.693 504.774L225.693 504.774L227.935 507.017L227.935 507.017L230.177 504.774L230.177 504.774L232.42 507.017L232.42 507.017L234.662 504.774L234.662 504.774L236.904 507.017L236.904 507.017L239.146 504.774L239.146 504.774L241.388 507.017L241.388 507.017L243.63 504.774L243.63 504.774L245.872 507.017L245.872 507.017L248.114 504.774L248.114 504.774L250.356 507.017L250.356 507.017L252.598 504.774L252.598 504.774L254.84 507.017L254.84 507.017L257.082 504.774L257.082 504.774L259.325 507.017L259.325 507.017L261.567 504.774L261.567 504.774L263.809 507.017L263.809 507.017L266.051 504.774L266.051 504.774L268.293 507.017L268.293 507.017L270.535 504.774L270.535 504.774L272.777 507.017L272.777 507.017L275.019 504.774L275.019 504.774L277.261 507.017L277.261 507.017L279.503 504.774L279.503 504.774L281.745 507.017L281.745 507.017L283.988 504.774L283.988 504.774L286.23 507.017L286.23 507.017L288.472 504.774L288.472 504.774L290.714 507.017L290.714 507.017L292.956 504.774L292.956 504.774L295.198 507.017L295.198 507.017L297.44 504.774L297.44 504.774L299.682 507.017L299.682 507.017L301.924 504.774L301.924 504.774L304.166 507.017L304.166 507.017L306.409 504.774L306.409 504.774L308.651 507.017L308.651 507.017L310.893 504.774L310.893 504.774L313.135 507.017L313.135 507.017L315.377 504.774L315.377 504.774L317.619 507.017L317.619 507.017L319.861 504.774L319.861 504.774L322.103 507.017L322.103 507.017L324.345 504.774L324.345 504.774L326.587 507.017L326.587 507.017L328.829 504.774L328.829 504.774L331.072 507.017L331.072 507.017L333.314 504.774L333.314 504.774L335.556 507.017L335.556 507.017L337.798 504.774L337.798 504.774L340.04 507.017L340.04 507.017L342.282 504.774L342.282 504.774L344.524 507.017L344.524 507.017L346.766 504.774L346.766 504.774L349.008 507.017L349.008 507.017L351.25 504.774L351.25 504.774L353.493 507.017L353.493 507.017L355.735 504.774L355.735 504.774L357.977 507.017L357.977 507.017L360.219 504.774L360.219 504.774L362.461 507.017L362.461 507.017L364.703 504.774L364.703 504.774L366.945 507.017L366.945 507.017L369.187 504.774L369.187 504.774L371.429 507.017L371.429 507.017L373.671 504.774L373.671 504.774L375.914 507.017L375.914 507.017L378.156 504.774L378.156 504.774L380.398 507.017L380.398 507.017L382.64 504.774L382.64 504.774L384.882 507.017L384.882 507.017L387.124 504.774L387.124 504.774L389.366 507.017L389.366 507.017L391.608 504.774L391.608 504.774L393.85 507.017L393.85 507.017L396.092 504.774L396.092 504.774L398.334 507.017L398.334 507.017L400.577 504.774L400.577 504.774L402.819 507.017L402.819 507.017L405.061 504.774L405.061 504.774L407.303 507.017L407.303 507.017L409.545 504.774L409.545 504.774L411.787 507.017L411.787 507.017L414.029 504.774L414.029 504.774L416.271 507.017L416.271 507.017L418.513 504.774L418.513 504.774L420.755 507.017L420.755 507.017L422.998 504.774L422.998 504.774L425.24 507.017L425.24 507.017L427.482 504.774L427.482 504.774L429.724 507.017L429.724 507.017L431.966 504.774L431.966 504.774L434.208 507.017L434.208 507.017L436.45 504.774L436.45 504.774L438.692 507.017L438.692 507.017L440.934 504.774L440.934 504.774L443.176 507.017L443.176 507.017L445.418 504.774L445.418 504.774L447.661 507.017L447.661 507.017L449.903 504.774L449.903 504.774L452.145 507.017L452.145 507.017L454.387 504.774L454.387 504.774L456.629 507.017L456.629 507.017L458.871 504.774L458.871 504.774L461.113 507.017L461.113 507.017L463.355 504.774L463.355 504.774L465.597 507.017L465.597 507.017L467.839 504.774L467.839 504.774L470.082 507.017L470.082 507.017L472.324 504.774L472.324 504.774L474.566 507.017L474.566 507.017L476.808 504.774L476.808 504.774L479.05 507.017" stroke="#4B99FF" stroke-width="1.121" fill="none" /><path id="2088" transform="matrix(1 0 0 -1 0 792)" d="M133.768 494.921L136.01 492.679L136.01 492.679L138.252 494.921L138.252 494.921L140.494 492.679L140.494 492.679L142.736 494.921L142.736 494.921L144.978 492.679L144.978 492.679L147.22 494.921L147.22 494.921L149.463 492.679L149.463 492.679L151.705 494.921L151.705 494.921L153.947 492.679L153.947 492.679L156.189 494.921L156.189 494.921L158.431 492.679L158.431 492.679L160.673 494.921L160.673 494.921L162.915 492.679L162.915 492.679L165.157 494.921L165.157 494.921L167.399 492.679L167.399 492.679L169.641 494.921L169.641 494.921L171.883 492.679L171.883 492.679L174.125 494.921L174.125 494.921L176.368 492.679L176.368 492.679L178.61 494.921" stroke="#4B99FF" stroke-width="1.121" fill="none" /></g><g clip-path="url(#5)"><g clip-path="url(#6)"></g></g><g clip-path="url(#7)"><g clip-path="url(#8)"></g></g></g></g></svg>